<?xml version="1.0" encoding="UTF-8" standalone="no"?>
<!-- Created with Inkscape (http://www.inkscape.org/) -->

<svg
   version="1.1"
   id="svg1388"
   xml:space="preserve"
   width="91.611732"
   height="127.40293"
   viewBox="0 0 91.611732 127.40293"
   sodipodi:docname="ISSprOM 103 Form line.svg"
   inkscape:version="1.1.1 (3bf5ae0d25, 2021-09-20)"
   xmlns:inkscape="http://www.inkscape.org/namespaces/inkscape"
   xmlns:sodipodi="http://sodipodi.sourceforge.net/DTD/sodipodi-0.dtd"
   xmlns="http://www.w3.org/2000/svg"
   xmlns:svg="http://www.w3.org/2000/svg"><defs
     id="defs1392"><clipPath
       clipPathUnits="userSpaceOnUse"
       id="clipPath1406"><path
         d="M 0,95.552 H 68.709 V 0 H 0 Z"
         id="path1404" /></clipPath><clipPath
       clipPathUnits="userSpaceOnUse"
       id="clipPath1500"><path
         d="M 0,95.552 H 68.709 V 0 H 0 Z"
         id="path1498" /></clipPath><clipPath
       clipPathUnits="userSpaceOnUse"
       id="clipPath1524"><path
         d="M 0,95.552 H 68.709 V 0 H 0 Z"
         id="path1522" /></clipPath><clipPath
       clipPathUnits="userSpaceOnUse"
       id="clipPath1556"><path
         d="M 0,95.552 H 68.709 V 0 H 0 Z"
         id="path1554" /></clipPath></defs><sodipodi:namedview
     id="namedview1390"
     pagecolor="#ffffff"
     bordercolor="#666666"
     borderopacity="1.0"
     inkscape:pageshadow="2"
     inkscape:pageopacity="0.0"
     inkscape:pagecheckerboard="0"
     showgrid="false"
     inkscape:zoom="6.5540093"
     inkscape:cx="45.849797"
     inkscape:cy="63.701466"
     inkscape:window-width="1920"
     inkscape:window-height="1017"
     inkscape:window-x="-8"
     inkscape:window-y="-8"
     inkscape:window-maximized="1"
     inkscape:current-layer="g1394" /><g
     id="g1394"
     inkscape:groupmode="layer"
     inkscape:label="ISSprOM 103 Form line"
     transform="matrix(1.3333333,0,0,-1.3333333,0,127.40293)"><g
       id="g1396"
       transform="translate(37.3022,84.6501)"><path
         d="M 0,0 0.752,-3.628"
         style="fill:none;stroke:#d07500;stroke-width:0.85;stroke-linecap:butt;stroke-linejoin:miter;stroke-miterlimit:22.926;stroke-dasharray:none;stroke-opacity:1"
         id="path1398" /></g><g
       id="g1400"><g
         id="g1402"
         clip-path="url(#clipPath1406)"><g
           id="g1408"
           transform="translate(11.6225,66.5055)"><path
             d="m 0,0 c 4.717,2.671 8.33,5.052 13.354,3.019 2.271,-0.923 4.272,-0.918 6.251,0.524 2.834,2.066 5.539,4.318 8.6,2.603 3.781,-2.122 5.893,-3.189 9.633,-5.377 1.811,-1.062 3.279,-1.053 5.338,-0.651 1.929,0.378 2.912,0.749 4.178,2.25 2.038,2.415 7.001,2.114 9.33,-0.024"
             style="fill:none;stroke:#d07500;stroke-width:1.191;stroke-linecap:butt;stroke-linejoin:miter;stroke-miterlimit:22.926;stroke-dasharray:none;stroke-opacity:1"
             id="path1410" /></g><g
           id="g1412"
           transform="translate(51.1831,56.9469)"><path
             d="m 0,0 c -3.319,-3.234 -4.837,-6.286 -5.202,-7.675 -0.365,-1.389 -0.679,-3.593 -1.742,-4.655 -1.064,-1.063 -3.189,-2.481 -8.15,-1.418 -4.961,1.064 -6.023,1.771 -5.67,2.835 0.356,1.062 2.199,0.908 4.252,0.354 2.055,-0.553 5.316,-1.063 6.024,0.355 0.709,1.417 1.154,3.751 1.154,5.168 0,1.417 -1.406,3.729 -2.115,4.793 -0.709,1.062 -1.069,2.07 -1.197,3.318"
             style="fill:none;stroke:#d07500;stroke-width:0.85;stroke-linecap:butt;stroke-linejoin:miter;stroke-miterlimit:22.926;stroke-dasharray:17.008, 1.701;stroke-dashoffset:0;stroke-opacity:1"
             id="path1414" /></g><g
           id="g1416"
           transform="translate(11.6225,81.4108)"><path
             d="m 0,0 c 6.654,0 12.619,-2.234 16.893,2.868 3.086,3.686 4.72,8.252 9.508,7.816 2.55,-0.231 3.644,-2.097 4.953,-4.298 2.394,-4.033 5.89,-5.241 10.553,-5.732 5.514,-0.579 9.25,-0.393 14.777,0.076"
             style="fill:none;stroke:#d07500;stroke-width:1.191;stroke-linecap:butt;stroke-linejoin:miter;stroke-miterlimit:22.926;stroke-dasharray:none;stroke-opacity:1"
             id="path1418" /></g><g
           id="g1420"
           transform="translate(11.6225,49.2087)"><path
             d="m 0,0 c 4.695,3.828 7.177,9.347 13.001,7.682 2.696,-0.772 1.984,-4.437 2.395,-7.213 0.538,-3.627 0.35,-7.18 3.022,-8.555 4.83,-2.485 13.225,-1.875 15.728,-0.25 3.422,2.223 2.034,6.961 4.646,11.045 2.063,3.22 5.923,7.301 9.539,6.058 5.271,-1.813 4.458,-4.125 4.417,-8.959 -0.023,-2.756 1.978,-5.834 3.936,-5.834"
             style="fill:none;stroke:#d07500;stroke-width:1.191;stroke-linecap:butt;stroke-linejoin:miter;stroke-miterlimit:22.926;stroke-dasharray:none;stroke-opacity:1"
             id="path1422" /></g><g
           id="g1424"
           transform="translate(11.6225,57.4899)"><path
             d="m 0,0 c 6.461,4.121 10.129,6.433 17.781,6.826 4.143,0.214 6.918,1.93 10.205,-0.599 1.43,-1.102 2.653,-2.325 3.144,-4.065 0.352,-1.249 1.179,-2.184 2.474,-2.214 2.729,-0.066 3.453,1.051 5.16,3.186 3.878,4.846 12.179,1.553 17.92,-0.817"
             style="fill:none;stroke:#d07500;stroke-width:1.701;stroke-linecap:butt;stroke-linejoin:miter;stroke-miterlimit:22.926;stroke-dasharray:none;stroke-opacity:1"
             id="path1426" /></g><g
           id="g1428"
           transform="translate(31.5698,11.8365)"><path
             d="M 0,0 0.002,-2.919"
             style="fill:none;stroke:#d07500;stroke-width:0.85;stroke-linecap:butt;stroke-linejoin:miter;stroke-miterlimit:22.926;stroke-dasharray:none;stroke-opacity:1"
             id="path1430" /></g><g
           id="g1432"
           transform="translate(33.8276,7.4879)"><path
             d="m 0,0 c -0.116,-1.779 -0.731,-2.688 -2.105,-2.724 -1.458,-0.042 -2.423,0.639 -2.59,3.138 m 0.006,1.478 c 0.204,2.226 1.373,2.71 2.584,2.751 1.509,0.049 1.984,-0.91 2.101,-3.129"
             style="fill:none;stroke:#d07500;stroke-width:0.85;stroke-linecap:butt;stroke-linejoin:miter;stroke-miterlimit:22.926;stroke-dasharray:none;stroke-opacity:1"
             id="path1434" /></g><g
           id="g1436"
           transform="translate(33.768,17.651)"><path
             d="m 0,0 c -0.116,-1.777 -0.73,-2.689 -2.104,-2.725 -1.457,-0.04 -2.424,0.641 -2.59,3.138 m 0.006,1.478 c 0.204,2.227 1.373,2.711 2.584,2.752 1.507,0.05 1.984,-0.91 2.101,-3.129"
             style="fill:none;stroke:#d07500;stroke-width:0.85;stroke-linecap:butt;stroke-linejoin:miter;stroke-miterlimit:22.926;stroke-dasharray:none;stroke-opacity:1"
             id="path1438" /></g><g
           id="g1440"
           transform="translate(19.0815,74.026)"><path
             d="m 0,0 c 2.48,0.355 10.984,2.55 12.756,1.842 1.771,-0.709 3.189,-1.418 3.897,-0.355 0.708,1.063 0.708,1.772 -0.354,3.19 -1.063,1.417 -2.126,2.479 0,4.605 2.126,2.126 2.835,1.418 4.252,0 1.418,-1.417 2.126,-2.48 1.418,-4.605 -0.709,-2.127 -1.418,-2.835 0,-3.544 1.417,-0.709 1.06,0.058 2.48,0.354 1.055,0.22 1.253,-0.284 3.174,-0.556"
             style="fill:none;stroke:#d07500;stroke-width:0.85;stroke-linecap:butt;stroke-linejoin:miter;stroke-miterlimit:22.926;stroke-dasharray:17.008, 1.701;stroke-dashoffset:0;stroke-opacity:1"
             id="path1442" /></g><g
           id="g1444"
           transform="translate(34.3589,55.5251)"><path
             d="M 0,0 C 0.046,1.567 0.189,3.042 -1.073,3.673 -1.932,4.102 -3.342,3.701 -3.908,2.964 -4.206,2.576 -4.346,0.953 -4.314,-0.023"
             style="fill:none;stroke:#d07500;stroke-width:0.85;stroke-linecap:butt;stroke-linejoin:miter;stroke-miterlimit:22.926;stroke-dasharray:17.008, 1.701;stroke-dashoffset:0;stroke-opacity:1"
             id="path1446" /></g><g
           id="g1448"
           transform="translate(30.1792,53.7536)"><path
             d="m 0,0 c 0.354,-2.835 0.98,-3.769 1.689,-3.769 0.709,0 1.772,0.002 2.126,0.71 0.28,0.559 0.338,1.782 0.351,3.143"
             style="fill:none;stroke:#d07500;stroke-width:0.85;stroke-linecap:butt;stroke-linejoin:miter;stroke-miterlimit:22.926;stroke-dasharray:17.008, 1.701;stroke-dashoffset:0;stroke-opacity:1"
             id="path1450" /></g><path
           d="M 13.04,26.08 H 66.898 V 0.567 H 13.04 Z"
           style="fill:none;stroke:#312783;stroke-width:1.134;stroke-linecap:butt;stroke-linejoin:miter;stroke-miterlimit:22.926;stroke-dasharray:none;stroke-opacity:1"
           id="path1452" /><g
           id="g1454"
           transform="translate(53.3452,51.1618)"><path
             d="m 0,0 c 1.418,2.835 2.92,4.625 5.422,3.75 3.601,-1.26 3.221,-3.588 2.81,-5.583 -0.811,-3.958 -3.623,-5.462 -6.25,-5.04 -2.205,0.354 -3.413,3.062 -2.644,5.165"
             style="fill:none;stroke:#d07500;stroke-width:0.85;stroke-linecap:butt;stroke-linejoin:miter;stroke-miterlimit:22.926;stroke-dasharray:17.008, 1.701;stroke-dashoffset:0;stroke-opacity:1"
             id="path1456" /></g><g
           id="g1458"
           transform="translate(59.1616,54.6794)"><path
             d="M 0,0 -1.182,-3.514"
             style="fill:none;stroke:#d07500;stroke-width:0.85;stroke-linecap:butt;stroke-linejoin:miter;stroke-miterlimit:22.926;stroke-dasharray:none;stroke-opacity:1"
             id="path1460" /></g><g
           id="g1462"
           transform="translate(56.1548,47.8004)"><path
             d="M 0,0 -1.181,-3.512"
             style="fill:none;stroke:#d07500;stroke-width:0.85;stroke-linecap:butt;stroke-linejoin:miter;stroke-miterlimit:22.926;stroke-dasharray:none;stroke-opacity:1"
             id="path1464" /></g><g
           id="g1466"
           transform="translate(34.3882,75.987)"><path
             d="M 0,0 0.712,1.549 3.284,0.36 2.575,-1.184 Z"
             style="fill:#ffffff;fill-opacity:1;fill-rule:nonzero;stroke:none"
             id="path1468" /></g><g
           id="g1470"
           transform="translate(39.2339,78.1061)"><path
             d="M 0,0 0.457,1.643 3.184,0.878 2.732,-0.759 Z"
             style="fill:#ffffff;fill-opacity:1;fill-rule:nonzero;stroke:none"
             id="path1472" /></g><g
           id="g1474"
           transform="translate(58.7846,46.2565)"><path
             d="M 0,0 1.057,1.337 3.275,-0.427 2.222,-1.76 Z"
             style="fill:#ffffff;fill-opacity:1;fill-rule:nonzero;stroke:none"
             id="path1476" /></g><g
           id="g1478"
           transform="translate(39.9643,44.5407)"><path
             d="M 0,0 1.657,0.404 2.32,-2.351 0.67,-2.754 Z"
             style="fill:#ffffff;fill-opacity:1;fill-rule:nonzero;stroke:none"
             id="path1480" /></g><g
           id="g1482"
           transform="translate(36.1245,47.8727)"><path
             d="M 0,0 1.684,-0.262 1.241,-3.06 -0.436,-2.801 Z"
             style="fill:#ffffff;fill-opacity:1;fill-rule:nonzero;stroke:none"
             id="path1484" /></g></g></g><text
       transform="matrix(1,0,0,-1,50.3857,70.8457)"
       style="font-variant:normal;font-weight:normal;font-stretch:semi-condensed;font-size:7px;font-family:'Arial Narrow';-inkscape-font-specification:ArialNarrow;writing-mode:lr-tb;fill:#e30613;fill-opacity:1;fill-rule:nonzero;stroke:none"
       id="text1492"><tspan
         x="0 3.1919999 4.7880001 7.98"
         y="0"
         sodipodi:role="line"
         id="tspan1486">0.15</tspan><tspan
         x="-4.27 -1.0779999 0.51800001"
         y="-5.7399998"
         sodipodi:role="line"
         id="tspan1488">0.3</tspan><tspan
         x="-35.784 -32.591999 -30.996"
         y="-4.3189998"
         sodipodi:role="line"
         id="tspan1490">3.0</tspan></text><g
       id="g1494"><g
         id="g1496"
         clip-path="url(#clipPath1500)"><g
           id="g1502"
           transform="translate(49.9077,72.9626)"><path
             d="M 0,0 -2.843,1.69"
             style="fill:none;stroke:#e30613;stroke-width:0.283;stroke-linecap:butt;stroke-linejoin:miter;stroke-miterlimit:22.926;stroke-dasharray:none;stroke-opacity:1"
             id="path1504" /></g><g
           id="g1506"
           transform="translate(45.3022,77.9743)"><path
             d="m 0,0 -2.684,0.574 2.579,1.27"
             style="fill:none;stroke:#e30613;stroke-width:0.283;stroke-linecap:butt;stroke-linejoin:miter;stroke-miterlimit:22.926;stroke-dasharray:none;stroke-opacity:1"
             id="path1508" /></g><g
           id="g1510"
           transform="translate(23.3335,77.569)"><path
             d="M 0,0 3.801,-1.223"
             style="fill:none;stroke:#e30613;stroke-width:0.283;stroke-linecap:butt;stroke-linejoin:miter;stroke-miterlimit:22.926;stroke-dasharray:none;stroke-opacity:1"
             id="path1512" /></g></g></g><text
       transform="matrix(1,0,0,-1,52.1294,85.4414)"
       style="font-variant:normal;font-weight:normal;font-stretch:semi-condensed;font-size:7px;font-family:'Arial Narrow';-inkscape-font-specification:ArialNarrow;writing-mode:lr-tb;fill:#e30613;fill-opacity:1;fill-rule:nonzero;stroke:none"
       id="text1516"><tspan
         x="0 3.1919999 4.7880001 7.98"
         y="0"
         sodipodi:role="line"
         id="tspan1514">0.15</tspan></text><g
       id="g1518"><g
         id="g1520"
         clip-path="url(#clipPath1524)"><text
           transform="matrix(1,0,0,-1,0,89.5459)"
           style="font-variant:normal;font-weight:normal;font-stretch:semi-condensed;font-size:7px;font-family:'Arial Narrow';-inkscape-font-specification:ArialNarrow;writing-mode:lr-tb;fill:#e30613;fill-opacity:1;fill-rule:nonzero;stroke:none"
           id="text1528"><tspan
             x="0 3.1919999 4.7880001 7.98 9.5760002 11.487 15.953 20.733999"
             y="0"
             sodipodi:role="line"
             id="tspan1526">0.6 (OM)</tspan></text><g
           id="g1530"
           transform="translate(16.8628,84.4401)"><path
             d="M 0,0 20.312,-3.317"
             style="fill:none;stroke:#e30613;stroke-width:0.283;stroke-linecap:butt;stroke-linejoin:miter;stroke-miterlimit:22.926;stroke-dasharray:none;stroke-opacity:1"
             id="path1532" /></g><g
           id="g1534"
           transform="translate(17.2259,87.5993)"><path
             d="M 0,0 20.005,-3.267"
             style="fill:none;stroke:#e30613;stroke-width:0.283;stroke-linecap:butt;stroke-linejoin:miter;stroke-miterlimit:22.926;stroke-dasharray:none;stroke-opacity:1"
             id="path1536" /></g><g
           id="g1538"
           transform="translate(47.7827,86.777)"><path
             d="M 0,0 -9.567,-4.253"
             style="fill:none;stroke:#e30613;stroke-width:0.283;stroke-linecap:butt;stroke-linejoin:miter;stroke-miterlimit:22.926;stroke-dasharray:none;stroke-opacity:1"
             id="path1540" /></g></g></g><text
       transform="matrix(1,0,0,-1,16.7412,11.835)"
       style="font-variant:normal;font-weight:normal;font-stretch:semi-condensed;font-size:7px;font-family:'Arial Narrow';-inkscape-font-specification:ArialNarrow;writing-mode:lr-tb;fill:#e30613;fill-opacity:1;fill-rule:nonzero;stroke:none"
       id="text1548"><tspan
         x="0 4.7810001 6.0549998 9.2469997"
         y="0"
         sodipodi:role="line"
         id="tspan1542">min.</tspan><tspan
         x="20.825001 24.017 25.613001 28.805 31.997 33.592999 35.504002 39.970001 44.750999"
         y="-4.809"
         sodipodi:role="line"
         id="tspan1544">1.65 (OM)</tspan><tspan
         x="20.440001 23.632 25.228001 28.42 31.612 33.208 35.118999 39.584999 44.366001"
         y="5.6420002"
         sodipodi:role="line"
         id="tspan1546">1.65 (OM)</tspan></text><g
       id="g1550"><g
         id="g1552"
         clip-path="url(#clipPath1556)"><g
           id="g1558"
           transform="translate(37.5688,4.2838)"><path
             d="M 0,0 H -2.312"
             style="fill:none;stroke:#e30613;stroke-width:0.283;stroke-linecap:butt;stroke-linejoin:miter;stroke-miterlimit:22.926;stroke-dasharray:none;stroke-opacity:1"
             id="path1560" /></g><g
           id="g1562"
           transform="translate(36.77,12.5338)"><path
             d="M 0,0 H -2.312"
             style="fill:none;stroke:#e30613;stroke-width:0.283;stroke-linecap:butt;stroke-linejoin:miter;stroke-miterlimit:22.926;stroke-dasharray:none;stroke-opacity:1"
             id="path1564" /></g><g
           id="g1566"
           transform="translate(36.77,14.5338)"><path
             d="M 0,0 H -2.312"
             style="fill:none;stroke:#e30613;stroke-width:0.283;stroke-linecap:butt;stroke-linejoin:miter;stroke-miterlimit:22.926;stroke-dasharray:none;stroke-opacity:1"
             id="path1568" /></g><g
           id="g1570"
           transform="translate(37.5688,22.6792)"><path
             d="M 0,0 H -2.312"
             style="fill:none;stroke:#e30613;stroke-width:0.283;stroke-linecap:butt;stroke-linejoin:miter;stroke-miterlimit:22.926;stroke-dasharray:none;stroke-opacity:1"
             id="path1572" /></g></g></g></g></svg>
