<?xml version="1.0" encoding="UTF-8" standalone="no"?>
<!-- Created with Inkscape (http://www.inkscape.org/) -->

<svg
   version="1.1"
   id="svg5200"
   xml:space="preserve"
   width="70.844398"
   height="43.857735"
   viewBox="0 0 70.844398 43.857735"
   sodipodi:docname="ISSprOM 205 Large boulder.svg"
   inkscape:version="1.1.1 (3bf5ae0d25, 2021-09-20)"
   xmlns:inkscape="http://www.inkscape.org/namespaces/inkscape"
   xmlns:sodipodi="http://sodipodi.sourceforge.net/DTD/sodipodi-0.dtd"
   xmlns="http://www.w3.org/2000/svg"
   xmlns:svg="http://www.w3.org/2000/svg">
  <rect width="100%" height="100%" fill="white"/>
<defs
     id="defs5204"><clipPath
       clipPathUnits="userSpaceOnUse"
       id="clipPath5214"><path
         d="M 0,32.893 H 53.133 V 0 H 0 Z"
         id="path5212" /></clipPath></defs><sodipodi:namedview
     id="namedview5202"
     pagecolor="#ffffff"
     bordercolor="#666666"
     borderopacity="1.0"
     inkscape:pageshadow="2"
     inkscape:pageopacity="0.0"
     inkscape:pagecheckerboard="0"
     showgrid="false"
     inkscape:zoom="15.908103"
     inkscape:cx="35.422199"
     inkscape:cy="21.907074"
     inkscape:window-width="1920"
     inkscape:window-height="1017"
     inkscape:window-x="-8"
     inkscape:window-y="-8"
     inkscape:window-maximized="1"
     inkscape:current-layer="g5206" /><g
     id="g5206"
     inkscape:groupmode="layer"
     inkscape:label="ISSprOM 205 Large boulder"
     transform="matrix(1.3333333,0,0,-1.3333333,0,43.857733)"><g
       id="g5208"><g
         id="g5210"
         clip-path="url(#clipPath5214)"><g
           id="g5216"
           transform="translate(1.7212,15.3327)"><path
             d="m 0,0 c 18.235,-0.417 24.179,4.138 32.21,9.966 9.286,6.738 15.796,7 15.796,7"
             style="fill:none;stroke:#d07500;stroke-width:1.191;stroke-linecap:butt;stroke-linejoin:miter;stroke-miterlimit:22.926;stroke-dasharray:none;stroke-opacity:1"
             id="path5218" /></g><g
           id="g5220"
           transform="translate(0.0503,8.9265)"><path
             d="m 0,0 c 18.175,-1.541 22.472,4.345 31.549,8.352 8.693,3.839 13.585,3.873 18.128,5.045"
             style="fill:none;stroke:#d07500;stroke-width:1.191;stroke-linecap:butt;stroke-linejoin:miter;stroke-miterlimit:22.926;stroke-dasharray:none;stroke-opacity:1"
             id="path5222" /></g><g
           id="g5224"
           transform="translate(17.2153,15.0471)"><path
             d="M 0,0 C -1.408,0 -2.551,1.143 -2.551,2.551 -2.551,3.96 -1.408,5.102 0,5.102 1.409,5.102 2.551,3.96 2.551,2.551 2.551,1.143 1.409,0 0,0"
             style="fill:#1d1d1b;fill-opacity:1;fill-rule:evenodd;stroke:none"
             id="path5226" /></g><g
           id="g5228"
           transform="translate(0.0503,2.6892)"><path
             d="M 0,0 C 18.175,-1.54 22.472,1.414 31.549,5.421 40.242,9.259 44.4,9.44 49.677,9.44"
             style="fill:none;stroke:#d07500;stroke-width:1.191;stroke-linecap:butt;stroke-linejoin:miter;stroke-miterlimit:22.926;stroke-dasharray:none;stroke-opacity:1"
             id="path5230" /></g><g
           id="g5232"
           transform="translate(39.4487,15.4992)"><path
             d="m 0,0 c -1.409,0 -2.552,1.142 -2.552,2.551 0,1.409 1.143,2.55 2.552,2.55 1.408,0 2.551,-1.141 2.551,-2.55 C 2.551,1.142 1.408,0 0,0"
             style="fill:#1d1d1b;fill-opacity:1;fill-rule:evenodd;stroke:none"
             id="path5234" /></g><g
           id="g5236"
           transform="translate(35.4848,9.1223)"><path
             d="m 0,0 c -1.409,0 -2.551,1.143 -2.551,2.551 0,1.408 1.142,2.55 2.551,2.55 1.408,0 2.551,-1.142 2.551,-2.55 C 2.551,1.143 1.408,0 0,0"
             style="fill:#1d1d1b;fill-opacity:1;fill-rule:evenodd;stroke:none"
             id="path5238" /></g><text
           transform="matrix(1,0,0,-1,39.2816,2.273)"
           style="font-variant:normal;font-weight:normal;font-stretch:normal;font-size:6.9997px;font-family:Arial;-inkscape-font-specification:ArialMT;writing-mode:lr-tb;fill:#e30613;fill-opacity:1;fill-rule:nonzero;stroke:none"
           id="text5242"><tspan
             x="0"
             y="0"
             id="tspan5240">ø</tspan></text><text
           transform="matrix(1,0,0,-1,45.154348,2.273)"
           style="font-variant:normal;font-weight:normal;font-stretch:semi-condensed;font-size:6.9997px;font-family:'Arial Narrow';-inkscape-font-specification:ArialNarrow;writing-mode:lr-tb;fill:#e30613;fill-opacity:1;fill-rule:nonzero;stroke:none"
           id="text5246"><tspan
             x="0 3.1918633 4.7877946"
             y="0"
             sodipodi:role="line"
             id="tspan5244">0.9</tspan></text></g></g></g></svg>
