<?xml version="1.0" encoding="UTF-8" standalone="no"?>
<!-- Created with Inkscape (http://www.inkscape.org/) -->

<svg
   version="1.1"
   id="svg5439"
   xml:space="preserve"
   width="92.111732"
   height="54.599468"
   viewBox="0 0 92.111732 54.599468"
   sodipodi:docname="ISSprOM 206 Gigantic boulder or rock pillar.svg"
   inkscape:version="1.1.1 (3bf5ae0d25, 2021-09-20)"
   xmlns:inkscape="http://www.inkscape.org/namespaces/inkscape"
   xmlns:sodipodi="http://sodipodi.sourceforge.net/DTD/sodipodi-0.dtd"
   xmlns="http://www.w3.org/2000/svg"
   xmlns:svg="http://www.w3.org/2000/svg">
  <rect width="100%" height="100%" fill="white"/>
<defs
     id="defs5443"><clipPath
       clipPathUnits="userSpaceOnUse"
       id="clipPath5453"><path
         d="M 0,40.95 H 69.084 V 0 H 0 Z"
         id="path5451" /></clipPath></defs><sodipodi:namedview
     id="namedview5441"
     pagecolor="#ffffff"
     bordercolor="#666666"
     borderopacity="1.0"
     inkscape:pageshadow="2"
     inkscape:pageopacity="0.0"
     inkscape:pagecheckerboard="0"
     showgrid="false"
     inkscape:zoom="12.235141"
     inkscape:cx="46.055866"
     inkscape:cy="27.339285"
     inkscape:window-width="1920"
     inkscape:window-height="1017"
     inkscape:window-x="-8"
     inkscape:window-y="-8"
     inkscape:window-maximized="1"
     inkscape:current-layer="g5445" /><g
     id="g5445"
     inkscape:groupmode="layer"
     inkscape:label="ISSprOM 206 Gigantic boulder or rock pillar"
     transform="matrix(1.3333333,0,0,-1.3333333,0,54.599467)"><g
       id="g5447"><g
         id="g5449"
         clip-path="url(#clipPath5453)"><g
           id="g5455"
           transform="translate(12.0908,24.0718)"><path
             d="m 0,0 c 2.589,-0.493 6.572,-2.948 10.765,-2.578 4.192,0.37 5.056,1.356 7.768,4.069 2.713,2.713 2.22,2.959 3.206,4.193 0.987,1.233 3.946,2.959 5.426,0.863 1.479,-2.097 2.713,-4.809 4.809,-5.672 2.095,-0.863 3.453,-0.37 4.316,0.863 0.862,1.233 -0.371,3.206 2.342,3.206 2.713,0 3.083,-2.219 6.043,-2.59 2.959,-0.37 9.002,1.328 11.961,3.548"
             style="fill:none;stroke:#d07500;stroke-width:1.191;stroke-linecap:butt;stroke-linejoin:miter;stroke-miterlimit:22.926;stroke-dasharray:none;stroke-opacity:1"
             id="path5457" /></g><g
           id="g5459"
           transform="translate(33.2012,29.9155)"><path
             d="m 0,0 c 0,0 0.145,-2.736 -1.584,-5.256 -1.729,-2.52 -3.168,-3.24 -4.68,-3.384 -1.511,-0.144 -2.377,0.072 -2.377,0.72 0,0.648 0.577,1.224 1.729,1.367 1.152,0.145 1.368,0.289 2.519,1.297 1.153,1.008 1.585,2.159 2.45,3.024 C -1.08,-1.368 0,0 0,0"
             style="fill:#1d1d1b;fill-opacity:1;fill-rule:evenodd;stroke:none"
             id="path5461" /></g><g
           id="g5463"
           transform="translate(44.3613,22.4995)"><path
             d="m 0,0 c -1.729,1.296 -2.088,2.016 -1.512,3.023 0.576,1.009 1.08,0.937 2.088,0.865 1.008,-0.072 1.871,-0.36 2.592,1.224 0.72,1.584 1.08,2.376 1.584,2.232 C 5.256,7.2 5.832,6.264 5.544,5.04 5.256,3.816 5.112,2.592 4.248,1.152 3.384,-0.288 3.023,-0.504 1.872,-0.432 0.72,-0.36 0.287,-0.217 0,0"
             style="fill:#1d1d1b;fill-opacity:1;fill-rule:evenodd;stroke:none"
             id="path5465" /></g><g
           id="g5467"
           transform="translate(12.0908,32.9419)"><path
             d="m 0,0 c 2.59,-0.493 7.065,-3.064 11.259,-2.694 4.191,0.369 5.055,1.355 7.767,4.069 2.713,2.712 2.22,2.959 3.206,4.192 0.987,1.233 3.947,2.959 5.426,0.864 1.48,-2.097 2.712,-4.81 4.809,-5.673 2.097,-0.862 3.452,-0.369 4.315,0.863 0.864,1.234 -0.369,3.206 2.344,3.206 2.712,0 3.082,-2.22 6.041,-2.59 2.96,-0.369 8.508,0.871 11.469,3.092"
             style="fill:none;stroke:#d07500;stroke-width:1.191;stroke-linecap:butt;stroke-linejoin:miter;stroke-miterlimit:22.926;stroke-dasharray:none;stroke-opacity:1"
             id="path5469" /></g><g
           id="g5471"
           transform="translate(11.2324,13.0645)"><path
             d="m 0,0 c 2.59,-0.493 7.787,-0.953 11.979,-0.583 4.193,0.37 4.947,2.182 7.66,4.895 2.713,2.713 1.602,2.713 4.191,0.247 2.59,-2.466 2.467,-1.973 5.303,-0.74 2.836,1.233 2.096,1.973 5.303,0.986 3.205,-0.986 4.438,0.74 5.301,1.974 0.863,1.232 0.74,3.698 4.316,3.082 3.576,-0.616 1.233,-0.37 4.562,-0.246 3.329,0.123 4.004,-0.966 8.937,-0.596"
             style="fill:none;stroke:#d07500;stroke-width:1.191;stroke-linecap:butt;stroke-linejoin:miter;stroke-miterlimit:22.926;stroke-dasharray:none;stroke-opacity:1"
             id="path5473" /></g><g
           id="g5475"
           transform="translate(33.5605,21.0962)"><path
             d="m 0,0 c 0,0 -0.359,-2.232 0.721,-3.96 1.08,-1.729 1.728,-2.16 3.456,-2.089 1.727,0.072 3.6,1.368 3.311,2.376 C 7.201,-2.665 6.408,-2.88 5.473,-3.024 4.537,-3.169 3.385,-3.816 2.664,-3.097 1.944,-2.376 1.441,-1.656 0.937,-1.152 0.434,-0.648 0,0 0,0"
             style="fill:#1d1d1b;fill-opacity:1;fill-rule:evenodd;stroke:none"
             id="path5477" /></g><g
           id="g5479"
           transform="translate(56.0977,27.8276)"><path
             d="M 0,0 C 1.296,1.8 2.808,2.088 3.6,1.439 4.392,0.792 5.184,0.36 5.976,-0.288 6.768,-0.937 7.56,-1.729 6.407,-2.376 5.256,-3.024 3.096,-3.24 1.512,-3.24 c -1.584,0 -2.664,-0.432 -2.664,0.431 0,0.865 0.359,1.729 1.152,2.809"
             style="fill:#1d1d1b;fill-opacity:1;fill-rule:evenodd;stroke:none"
             id="path5481" /></g><g
           id="g5483"
           transform="translate(56.5674)"><path
             d="m 0,0 -2.937,11.739 6.523,4.565 8.477,-3.913 -3.422,-9.13 z"
             style="fill:#00111e;fill-opacity:1;fill-rule:nonzero;stroke:none"
             id="path5485" /></g><text
           transform="matrix(1,0,0,-1,0,15.04)"
           style="font-variant:normal;font-weight:normal;font-stretch:semi-condensed;font-size:7px;font-family:'Arial Narrow';-inkscape-font-specification:ArialNarrow;writing-mode:lr-tb;fill:#e30613;fill-opacity:1;fill-rule:nonzero;stroke:none"
           id="text5489"><tspan
             x="0 4.7810001 6.0549998 9.2469997 10.843 12.439 15.631 17.226999"
             y="0"
             sodipodi:role="line"
             id="tspan5487">min. 0.3</tspan></text><g
           id="g5491"
           transform="translate(25.2598,21.0962)"><path
             d="M 0,0 -3.18,-2.824"
             style="fill:none;stroke:#e30613;stroke-width:0.283;stroke-linecap:butt;stroke-linejoin:miter;stroke-miterlimit:22.926;stroke-dasharray:none;stroke-opacity:1"
             id="path5493" /></g><g
           id="g5495"
           transform="translate(26.3896,19.8247)"><path
             d="M 0,0 -3.179,-2.823"
             style="fill:none;stroke:#e30613;stroke-width:0.283;stroke-linecap:butt;stroke-linejoin:miter;stroke-miterlimit:22.926;stroke-dasharray:none;stroke-opacity:1"
             id="path5497" /></g></g></g></g></svg>
