<?xml version="1.0" encoding="UTF-8" standalone="no"?>
<!-- Created with Inkscape (http://www.inkscape.org/) -->

<svg
   version="1.1"
   id="svg9"
   xml:space="preserve"
   width="75.775467"
   height="82.855064"
   viewBox="0 0 75.775467 82.855064"
   sodipodi:docname="ISSprOM 208 Boulder field.svg"
   inkscape:version="1.1.1 (3bf5ae0d25, 2021-09-20)"
   xmlns:inkscape="http://www.inkscape.org/namespaces/inkscape"
   xmlns:sodipodi="http://sodipodi.sourceforge.net/DTD/sodipodi-0.dtd"
   xmlns="http://www.w3.org/2000/svg"
   xmlns:svg="http://www.w3.org/2000/svg"><defs
     id="defs13"><clipPath
       clipPathUnits="userSpaceOnUse"
       id="clipPath23"><path
         d="M 0,62.141 H 56.832 V 0 H 0 Z"
         id="path21" /></clipPath><clipPath
       clipPathUnits="userSpaceOnUse"
       id="clipPath127"><path
         d="M 0,62.141 H 56.832 V 0 H 0 Z"
         id="path125" /></clipPath><clipPath
       clipPathUnits="userSpaceOnUse"
       id="clipPath163"><path
         d="M 0,62.141 H 56.832 V 0 H 0 Z"
         id="path161" /></clipPath></defs><sodipodi:namedview
     id="namedview11"
     pagecolor="#ffffff"
     bordercolor="#666666"
     borderopacity="1.0"
     inkscape:pageshadow="2"
     inkscape:pageopacity="0.0"
     inkscape:pagecheckerboard="0"
     showgrid="false"
     inkscape:zoom="10.077839"
     inkscape:cx="37.855338"
     inkscape:cy="41.427532"
     inkscape:window-width="1920"
     inkscape:window-height="1017"
     inkscape:window-x="-8"
     inkscape:window-y="-8"
     inkscape:window-maximized="1"
     inkscape:current-layer="g15" /><g
     id="g15"
     inkscape:groupmode="layer"
     inkscape:label="ISSprOM 208 Boulder field"
     transform="matrix(1.3333333,0,0,-1.3333333,0,82.855067)"><g
       id="g17"><g
         id="g19"
         clip-path="url(#clipPath23)"><g
           id="g25"
           transform="translate(0.1727,56.3278)"><path
             d="M 0,0 C 11.226,3.402 33.023,5.805 56.493,-0.998"
             style="fill:none;stroke:#d07500;stroke-width:1.191;stroke-linecap:butt;stroke-linejoin:miter;stroke-miterlimit:22.926;stroke-dasharray:none;stroke-opacity:1"
             id="path27" /></g><g
           id="g29"
           transform="translate(0.1727,45.1716)"><path
             d="M 0,0 C 11.226,3.401 33.023,5.553 56.493,-1.25"
             style="fill:none;stroke:#d07500;stroke-width:1.191;stroke-linecap:butt;stroke-linejoin:miter;stroke-miterlimit:22.926;stroke-dasharray:none;stroke-opacity:1"
             id="path31" /></g><g
           id="g33"
           transform="translate(29.3026,61.4343)"><path
             d="M 0,0 -2.338,-2.642 -5.66,0.007 Z"
             style="fill:#1d1d1b;fill-opacity:1;fill-rule:evenodd;stroke:none"
             id="path35" /></g><g
           id="g37"
           transform="translate(37.4813,62.1413)"><path
             d="M 0,0 1.243,-3.304 -2.651,-5.001 Z"
             style="fill:#1d1d1b;fill-opacity:1;fill-rule:evenodd;stroke:none"
             id="path39" /></g><g
           id="g41"
           transform="translate(38.8417,41.9509)"><path
             d="m 0,0 -2.871,2.054 2.292,3.577 z"
             style="fill:#1d1d1b;fill-opacity:1;fill-rule:evenodd;stroke:none"
             id="path43" /></g><g
           id="g45"
           transform="translate(43.5419,44.6989)"><path
             d="M 0,0 1.354,-3.259 -2.482,-5.088 Z"
             style="fill:#1d1d1b;fill-opacity:1;fill-rule:evenodd;stroke:none"
             id="path47" /></g><g
           id="g49"
           transform="translate(34.5838,5.5251)"><path
             d="m 0,0 -2.871,2.054 2.292,3.577 z"
             style="fill:#1d1d1b;fill-opacity:1;fill-rule:evenodd;stroke:none"
             id="path51" /></g><g
           id="g53"
           transform="translate(39.0399,9.0105)"><path
             d="M 0,0 1.354,-3.259 -2.481,-5.088 Z"
             style="fill:#1d1d1b;fill-opacity:1;fill-rule:evenodd;stroke:none"
             id="path55" /></g><g
           id="g57"
           transform="translate(20.7137,46.8464)"><path
             d="M 0,0 -1.393,3.243 2.42,5.116 Z"
             style="fill:#1d1d1b;fill-opacity:1;fill-rule:evenodd;stroke:none"
             id="path59" /></g><g
           id="g61"
           transform="translate(27.6268,47.3669)"><path
             d="M 0,0 3.034,1.803 5.388,-1.735 Z"
             style="fill:#1d1d1b;fill-opacity:1;fill-rule:evenodd;stroke:none"
             id="path63" /></g><g
           id="g65"
           transform="translate(8.4081,56.8689)"><path
             d="M 0,0 3.164,1.565 5.24,-2.141 Z"
             style="fill:#1d1d1b;fill-opacity:1;fill-rule:evenodd;stroke:none"
             id="path67" /></g><g
           id="g69"
           transform="translate(18.5526,44.4245)"><path
             d="M 0,0 -3.193,-1.506 -5.198,2.239 Z"
             style="fill:#1d1d1b;fill-opacity:1;fill-rule:evenodd;stroke:none"
             id="path71" /></g><g
           id="g73"
           transform="translate(20.9608,54.8415)"><path
             d="m 0,0 -3.424,0.859 0.822,4.168 z"
             style="fill:#1d1d1b;fill-opacity:1;fill-rule:evenodd;stroke:none"
             id="path75" /></g><g
           id="g77"
           transform="translate(26.412,41.3181)"><path
             d="m 0,0 -3.08,1.724 1.884,3.807 z"
             style="fill:#1d1d1b;fill-opacity:1;fill-rule:evenodd;stroke:none"
             id="path79" /></g><g
           id="g81"
           transform="translate(46.5956,55.0046)"><path
             d="m 0,0 -2.643,2.339 2.65,3.322 z"
             style="fill:#1d1d1b;fill-opacity:1;fill-rule:evenodd;stroke:none"
             id="path83" /></g><g
           id="g85"
           transform="translate(41.994,51.5749)"><path
             d="m 0,0 -3.08,1.725 1.885,3.809 z"
             style="fill:#1d1d1b;fill-opacity:1;fill-rule:evenodd;stroke:none"
             id="path87" /></g><g
           id="g89"
           transform="translate(29.3768,55.4782)"><path
             d="M 0,0 1.354,-3.261 -2.48,-5.089 Z"
             style="fill:#1d1d1b;fill-opacity:1;fill-rule:evenodd;stroke:none"
             id="path91" /></g><g
           id="g93"
           transform="translate(49.8378,47.4773)"><path
             d="M 0,0 -3.193,-1.506 -5.197,2.24 Z"
             style="fill:#1d1d1b;fill-opacity:1;fill-rule:evenodd;stroke:none"
             id="path95" /></g><g
           id="g97"
           transform="translate(10.7811,49.8737)"><path
             d="M 0,0 1.814,3.027 5.565,1.032 Z"
             style="fill:#1d1d1b;fill-opacity:1;fill-rule:evenodd;stroke:none"
             id="path99" /></g><g
           id="g101"
           transform="translate(5.1366,43.9323)"><path
             d="M 0,0 1.814,3.027 5.566,1.032 Z"
             style="fill:#1d1d1b;fill-opacity:1;fill-rule:evenodd;stroke:none"
             id="path103" /></g><g
           id="g105"
           transform="translate(32.3182,50.9138)"><path
             d="M 0,0 1.814,3.027 5.566,1.032 Z"
             style="fill:#1d1d1b;fill-opacity:1;fill-rule:evenodd;stroke:none"
             id="path107" /></g><g
           id="g109"
           transform="translate(31.1846,33.8971)"><path
             d="M 0,0 1.319,-3.174 -2.416,-4.955 Z"
             style="fill:#1d1d1b;fill-opacity:1;fill-rule:evenodd;stroke:none"
             id="path111" /></g></g></g><text
       transform="matrix(1,0,0,-1,35.6324,32.2434)"
       style="font-variant:normal;font-weight:normal;font-stretch:semi-condensed;font-size:6.9997px;font-family:'Arial Narrow';-inkscape-font-specification:ArialNarrow;writing-mode:lr-tb;fill:#e30613;fill-opacity:1;fill-rule:nonzero;stroke:none"
       id="text119"><tspan
         x="0 3.1918633 4.7877946"
         y="0"
         sodipodi:role="line"
         id="tspan113">0.6</tspan><tspan
         x="-7.1186948 -3.9268317 -2.3309002 0.86096311"
         y="11.955488"
         sodipodi:role="line"
         id="tspan115">0.72</tspan><tspan
         x="-20.76811 -17.576246 -15.980315 -12.788452"
         y="0.8049655"
         sodipodi:role="line"
         id="tspan117">0.96</tspan></text><g
       id="g121"><g
         id="g123"
         clip-path="url(#clipPath127)"><g
           id="g129"
           transform="translate(27.9303,29.2545)"><path
             d="M 0,0 -1.53,0.743"
             style="fill:none;stroke:#e30613;stroke-width:0.283;stroke-linecap:butt;stroke-linejoin:miter;stroke-miterlimit:22.926;stroke-dasharray:none;stroke-opacity:1"
             id="path131" /></g><g
           id="g133"
           transform="translate(30.3433,34.2256)"><path
             d="M 0,0 -1.53,0.743"
             style="fill:none;stroke:#e30613;stroke-width:0.283;stroke-linecap:butt;stroke-linejoin:miter;stroke-miterlimit:22.926;stroke-dasharray:none;stroke-opacity:1"
             id="path135" /></g><g
           id="g137"
           transform="translate(34.8862,31.7852)"><path
             d="M 0,0 -1.568,-0.658"
             style="fill:none;stroke:#e30613;stroke-width:0.283;stroke-linecap:butt;stroke-linejoin:miter;stroke-miterlimit:22.926;stroke-dasharray:none;stroke-opacity:1"
             id="path139" /></g><g
           id="g141"
           transform="translate(33.5696,34.9216)"><path
             d="M 0,0 -1.568,-0.658"
             style="fill:none;stroke:#e30613;stroke-width:0.283;stroke-linecap:butt;stroke-linejoin:miter;stroke-miterlimit:22.926;stroke-dasharray:none;stroke-opacity:1"
             id="path143" /></g><g
           id="g145"
           transform="translate(29.9192,26.6123)"><path
             d="M 0,0 -0.73,1.536"
             style="fill:none;stroke:#e30613;stroke-width:0.283;stroke-linecap:butt;stroke-linejoin:miter;stroke-miterlimit:22.926;stroke-dasharray:none;stroke-opacity:1"
             id="path147" /></g><g
           id="g149"
           transform="translate(33.6054,28.3654)"><path
             d="M 0,0 -0.73,1.536"
             style="fill:none;stroke:#e30613;stroke-width:0.283;stroke-linecap:butt;stroke-linejoin:miter;stroke-miterlimit:22.926;stroke-dasharray:none;stroke-opacity:1"
             id="path151" /></g></g></g><text
       transform="matrix(1,0,0,-1,16.6416,5.3857)"
       style="font-variant:normal;font-weight:normal;font-stretch:semi-condensed;font-size:7px;font-family:'Arial Narrow';-inkscape-font-specification:ArialNarrow;writing-mode:lr-tb;fill:#e30613;fill-opacity:1;fill-rule:nonzero;stroke:none"
       id="text155"><tspan
         x="0 4.7810001 6.0549998 9.2469997"
         y="0"
         sodipodi:role="line"
         id="tspan153">min.</tspan></text><g
       id="g157"><g
         id="g159"
         clip-path="url(#clipPath163)"><path
           d="m 10.093,14.74 h 36.85 V 0.567 h -36.85 z"
           style="fill:none;stroke:#312783;stroke-width:1.134;stroke-linecap:butt;stroke-linejoin:miter;stroke-miterlimit:22.926;stroke-dasharray:none;stroke-opacity:1"
           id="path165" /></g></g></g></svg>
