<?xml version="1.0" encoding="UTF-8" standalone="no"?>
<svg xmlns:inkscape="http://www.inkscape.org/namespaces/inkscape" xmlns:sodipodi="http://sodipodi.sourceforge.net/DTD/sodipodi-0.dtd" xmlns="http://www.w3.org/2000/svg" xmlns:svg="http://www.w3.org/2000/svg" version="1.1" id="svg4092" width="75.983597" height="55.565067" viewBox="0 0 75.983597 55.565067" sodipodi:docname="ISSprOM 210 Stony ground.svg" inkscape:version="1.2.2 (732a01da63, 2022-12-09)">
  <rect width="100%" height="100%" fill="white"/>

  <defs id="defs4096">
    <clipPath id="clipPath4108">
      <path d="M 0,41.674 H 56.988 V 0 H 0 Z" id="path4106"></path>
    </clipPath>
  </defs>
  <g id="g4100" inkscape:groupmode="layer" inkscape:label="Page 1" transform="matrix(1.3333333,0,0,-1.3333333,0,55.565067)">
    <g id="g4102">
      <g id="g4104" clip-path="url(#clipPath4108)">
        <g id="g4110" transform="translate(0.0802,28.8703)">
          <path d="m 0,0 c 7.415,-1.008 15.556,-4.945 21.388,-2.498 5.832,2.448 5.687,4.32 9.216,5.544 3.528,1.224 6.263,2.449 11.159,1.513 C 46.659,3.622 52.128,4.48 56.692,6.25" style="fill:none;stroke:#d07500;stroke-width:1.191;stroke-linecap:butt;stroke-linejoin:miter;stroke-miterlimit:22.926;stroke-dasharray:none;stroke-opacity:1" id="path4112"></path>
        </g>
        <g id="g4114" transform="translate(0.0802,21.1545)">
          <path d="m 0,0 c 7.415,-1.008 15.839,-3.902 21.671,-1.454 5.832,2.448 5.687,4.319 9.217,5.544 3.527,1.223 6.263,2.448 11.16,1.512 4.894,-0.936 9.371,-0.564 14.644,-1.491" style="fill:none;stroke:#d07500;stroke-width:1.191;stroke-linecap:butt;stroke-linejoin:miter;stroke-miterlimit:22.926;stroke-dasharray:none;stroke-opacity:1" id="path4116"></path>
        </g>
        <g id="g4118" transform="translate(32.5021,28.0246)">
          <path d="m 0,0 c -0.392,0 -0.71,0.317 -0.71,0.709 0,0.392 0.318,0.709 0.71,0.709 0.391,0 0.708,-0.317 0.708,-0.709 C 0.708,0.317 0.391,0 0,0" style="fill:#1d1d1b;fill-opacity:1;fill-rule:evenodd;stroke:none" id="path4120"></path>
        </g>
        <g id="g4122" transform="translate(32.1613,29.9894)">
          <path d="m 0,0 c -0.392,0 -0.709,0.318 -0.709,0.71 0,0.391 0.317,0.708 0.709,0.708 0.391,0 0.709,-0.317 0.709,-0.708 C 0.709,0.318 0.391,0 0,0" style="fill:#1d1d1b;fill-opacity:1;fill-rule:evenodd;stroke:none" id="path4124"></path>
        </g>
        <g id="g4126" transform="translate(30.3029,28.5383)">
          <path d="M 0,0 C -0.392,0 -0.709,0.318 -0.709,0.709 -0.709,1.1 -0.392,1.418 0,1.418 0.392,1.418 0.709,1.1 0.709,0.709 0.709,0.318 0.392,0 0,0" style="fill:#1d1d1b;fill-opacity:1;fill-rule:evenodd;stroke:none" id="path4128"></path>
        </g>
        <g id="g4130" transform="translate(36.4472,31.5549)">
          <path d="M 0,0 C -0.352,0 -0.638,0.286 -0.638,0.638 -0.638,0.99 -0.352,1.275 0,1.275 0.352,1.275 0.639,0.99 0.639,0.638 0.639,0.286 0.352,0 0,0" style="fill:#1d1d1b;fill-opacity:1;fill-rule:evenodd;stroke:none" id="path4132"></path>
        </g>
        <g id="g4134" transform="translate(37.5792,29.6427)">
          <path d="m 0,0 c -0.391,0 -0.709,0.318 -0.709,0.71 0,0.391 0.318,0.709 0.709,0.709 0.392,0 0.709,-0.318 0.709,-0.709 C 0.709,0.318 0.392,0 0,0" style="fill:#1d1d1b;fill-opacity:1;fill-rule:evenodd;stroke:none" id="path4136"></path>
        </g>
        <g id="g4138" transform="translate(34.3394,30.7693)">
          <path d="m 0,0 c -0.392,0 -0.708,0.317 -0.708,0.708 0,0.393 0.316,0.709 0.708,0.709 0.392,0 0.709,-0.316 0.709,-0.709 C 0.709,0.317 0.392,0 0,0" style="fill:#1d1d1b;fill-opacity:1;fill-rule:evenodd;stroke:none" id="path4140"></path>
        </g>
        <g id="g4142" transform="translate(37.4328,27.7902)">
          <path d="m 0,0 c -0.392,0 -0.709,0.318 -0.709,0.71 0,0.391 0.317,0.709 0.709,0.709 0.391,0 0.709,-0.318 0.709,-0.709 C 0.709,0.318 0.391,0 0,0" style="fill:#1d1d1b;fill-opacity:1;fill-rule:evenodd;stroke:none" id="path4144"></path>
        </g>
        <g id="g4146" transform="translate(31.0841,26.2511)">
          <path d="m 0,0 c -0.392,0 -0.71,0.318 -0.71,0.709 0,0.392 0.318,0.709 0.71,0.709 0.392,0 0.708,-0.317 0.708,-0.709 C 0.708,0.318 0.392,0 0,0" style="fill:#1d1d1b;fill-opacity:1;fill-rule:evenodd;stroke:none" id="path4148"></path>
        </g>
        <g id="g4150" transform="translate(34.8371,24.2209)">
          <path d="M 0,0 C -0.391,0 -0.709,0.317 -0.709,0.708 -0.709,1.1 -0.391,1.417 0,1.417 0.392,1.417 0.709,1.1 0.709,0.708 0.709,0.317 0.392,0 0,0" style="fill:#1d1d1b;fill-opacity:1;fill-rule:evenodd;stroke:none" id="path4152"></path>
        </g>
        <g id="g4154" transform="translate(38.296,24.8752)">
          <path d="M 0,0 C -0.391,0 -0.709,0.317 -0.709,0.708 -0.709,1.1 -0.391,1.417 0,1.417 0.392,1.417 0.709,1.1 0.709,0.708 0.709,0.317 0.392,0 0,0" style="fill:#1d1d1b;fill-opacity:1;fill-rule:evenodd;stroke:none" id="path4156"></path>
        </g>
        <g id="g4158" transform="translate(35.546,29.1225)">
          <path d="M 0,0 C -0.391,0 -0.709,0.317 -0.709,0.708 -0.709,1.1 -0.391,1.417 0,1.417 0.392,1.417 0.709,1.1 0.709,0.708 0.709,0.317 0.392,0 0,0" style="fill:#1d1d1b;fill-opacity:1;fill-rule:evenodd;stroke:none" id="path4160"></path>
        </g>
        <g id="g4162" transform="translate(34.3556,27.4758)">
          <path d="M 0,0 C -0.391,0 -0.708,0.317 -0.708,0.708 -0.708,1.1 -0.391,1.417 0,1.417 0.392,1.417 0.71,1.1 0.71,0.708 0.71,0.317 0.392,0 0,0" style="fill:#1d1d1b;fill-opacity:1;fill-rule:evenodd;stroke:none" id="path4164"></path>
        </g>
        <text xml:space="preserve" transform="matrix(1,0,0,-1,12.5985,35.6667)" style="font-variant:normal;font-weight:normal;font-stretch:normal;font-size:6.9997px;font-family:Arial;-inkscape-font-specification:ArialMT;writing-mode:lr-tb;fill:#e30613;fill-opacity:1;fill-rule:nonzero;stroke:none" id="text4168">
          <tspan x="0" y="0" id="tspan4166">ø</tspan>
        </text>
        <text xml:space="preserve" transform="matrix(1,0,0,-1,18.779235,35.505707)" style="font-variant:normal;font-weight:normal;font-stretch:semi-condensed;font-size:6.9997px;font-family:'Arial Narrow';-inkscape-font-specification:ArialNarrow;writing-mode:lr-tb;fill:#e30613;fill-opacity:1;fill-rule:nonzero;stroke:none" id="text4172">
          <tspan x="0 3.1918633 4.7877946 7.9796581" y="0" sodipodi:role="line" id="tspan4170">0.25</tspan>
        </text>
        <g id="g4174" transform="translate(33.2481,7.2246)">
          <path d="m 0,0 c 0.392,0 0.709,-0.319 0.709,-0.71 0,-0.391 -0.317,-0.709 -0.709,-0.709 -0.392,0 -0.709,0.318 -0.709,0.709 C -0.709,-0.319 -0.392,0 0,0" style="fill:#1d1d1b;fill-opacity:1;fill-rule:evenodd;stroke:none" id="path4176"></path>
        </g>
        <g id="g4178" transform="translate(36.0421,7.2246)">
          <path d="m 0,0 c 0.392,0 0.709,-0.319 0.709,-0.71 0,-0.391 -0.317,-0.709 -0.709,-0.709 -0.392,0 -0.709,0.318 -0.709,0.709 C -0.709,-0.319 -0.392,0 0,0" style="fill:#1d1d1b;fill-opacity:1;fill-rule:evenodd;stroke:none" id="path4180"></path>
        </g>
        <g id="g4182" transform="translate(34.6221,8.9623)">
          <path d="M 0,0 C 0.392,0 0.709,-0.319 0.709,-0.709 0.709,-1.1 0.392,-1.417 0,-1.417 c -0.392,0 -0.709,0.317 -0.709,0.708 C -0.709,-0.319 -0.392,0 0,0" style="fill:#1d1d1b;fill-opacity:1;fill-rule:evenodd;stroke:none" id="path4184"></path>
        </g>
        <path d="M 12.835,14.74 H 44.016 V 0.567 H 12.835 Z" style="fill:none;stroke:#312783;stroke-width:1.134;stroke-linecap:butt;stroke-linejoin:miter;stroke-miterlimit:22.926;stroke-dasharray:none;stroke-opacity:1" id="path4186"></path>
      </g>
    </g>
    <text xml:space="preserve" transform="matrix(1,0,0,-1,17.4076,5.2661)" style="font-variant:normal;font-weight:normal;font-stretch:semi-condensed;font-size:6.9997px;font-family:'Arial Narrow';-inkscape-font-specification:ArialNarrow;writing-mode:lr-tb;fill:#e30613;fill-opacity:1;fill-rule:nonzero;stroke:none" id="text4190">
      <tspan x="0 4.7807951 6.0547404 9.246604" y="0" sodipodi:role="line" id="tspan4188">min.</tspan>
    </text>
  </g>
</svg>
