<?xml version="1.0" encoding="UTF-8" standalone="no"?>
<!-- Created with Inkscape (http://www.inkscape.org/) -->

<svg
   version="1.1"
   id="svg6779"
   xml:space="preserve"
   width="98.61853"
   height="84.821602"
   viewBox="0 0 98.61853 84.821602"
   sodipodi:docname="ISSprOM 213 Open sandy ground.svg"
   inkscape:version="1.1.1 (3bf5ae0d25, 2021-09-20)"
   xmlns:inkscape="http://www.inkscape.org/namespaces/inkscape"
   xmlns:sodipodi="http://sodipodi.sourceforge.net/DTD/sodipodi-0.dtd"
   xmlns="http://www.w3.org/2000/svg"
   xmlns:svg="http://www.w3.org/2000/svg">
  <rect width="100%" height="100%" fill="white"/>
<defs
     id="defs6783"><clipPath
       clipPathUnits="userSpaceOnUse"
       id="clipPath6795"><path
         d="M 0,29.118 H 46.406 V 53.117 H 0 Z"
         id="path6793" /></clipPath><clipPath
       clipPathUnits="userSpaceOnUse"
       id="clipPath7477"><path
         d="m 26.484,4.819 h 5.669 v 5.67 h -5.669 z"
         id="path7475" /></clipPath><clipPath
       clipPathUnits="userSpaceOnUse"
       id="clipPath7525"><path
         d="M 0,63.616 H 73.964 V 0 H 0 Z"
         id="path7523" /></clipPath><clipPath
       clipPathUnits="userSpaceOnUse"
       id="clipPath7565"><path
         d="M 0,63.616 H 73.964 V 0 H 0 Z"
         id="path7563" /></clipPath></defs><sodipodi:namedview
     id="namedview6781"
     pagecolor="#ffffff"
     bordercolor="#666666"
     borderopacity="1.0"
     inkscape:pageshadow="2"
     inkscape:pageopacity="0.0"
     inkscape:pagecheckerboard="0"
     showgrid="false"
     inkscape:zoom="9.8441904"
     inkscape:cx="49.318428"
     inkscape:cy="42.410801"
     inkscape:window-width="1920"
     inkscape:window-height="1017"
     inkscape:window-x="-8"
     inkscape:window-y="-8"
     inkscape:window-maximized="1"
     inkscape:current-layer="g6785" /><g
     id="g6785"
     inkscape:groupmode="layer"
     inkscape:label="ISSprOM 213 Open sandy ground"
     transform="matrix(1.3333333,0,0,-1.3333333,0,84.8216)"><path
       d="M 0,29.118 H 46.406 V 53.117 H 0 Z"
       style="fill:#fedda4;fill-opacity:1;fill-rule:nonzero;stroke:none"
       id="path6787" /><g
       id="g6789"><g
         id="g6791"
         clip-path="url(#clipPath6795)"><g
           id="g6797"
           transform="translate(46.8057,27.9894)"><path
             d="m 0,0 c 0,0.282 0.229,0.511 0.511,0.511 0.281,0 0.51,-0.23 0.51,-0.512 0,-0.281 -0.228,-0.51 -0.51,-0.51 C 0.23,-0.511 0,-0.281 0,0"
             style="fill:#1d1d1b;fill-opacity:1;fill-rule:evenodd;stroke:none"
             id="path6799" /></g><g
           id="g6801"
           transform="translate(42.7969,27.9904)"><path
             d="M 0,0 C 0,0.281 0.229,0.51 0.51,0.51 0.791,0.51 1.02,0.28 1.021,-0.002 1.02,-0.283 0.792,-0.512 0.511,-0.512 0.229,-0.512 0,-0.283 0,0"
             style="fill:#1d1d1b;fill-opacity:1;fill-rule:evenodd;stroke:none"
             id="path6803" /></g><g
           id="g6805"
           transform="translate(44.8008,29.9943)"><path
             d="m 0,0 c 0,0.281 0.229,0.51 0.51,0.51 0.283,0 0.511,-0.229 0.511,-0.511 0,-0.281 -0.228,-0.51 -0.509,-0.511 C 0.23,-0.511 0,-0.281 0,0"
             style="fill:#1d1d1b;fill-opacity:1;fill-rule:evenodd;stroke:none"
             id="path6807" /></g><g
           id="g6809"
           transform="translate(46.8057,31.9992)"><path
             d="m 0,0 c 0,0.281 0.229,0.51 0.511,0.511 0.281,-0.001 0.51,-0.231 0.51,-0.512 0,-0.281 -0.229,-0.51 -0.51,-0.51 C 0.23,-0.511 0,-0.282 0,0"
             style="fill:#1d1d1b;fill-opacity:1;fill-rule:evenodd;stroke:none"
             id="path6811" /></g><g
           id="g6813"
           transform="translate(38.7871,27.9894)"><path
             d="m 0,0 c 0,0.282 0.228,0.511 0.51,0.511 0.282,0 0.511,-0.23 0.511,-0.512 0,-0.281 -0.228,-0.51 -0.51,-0.51 C 0.229,-0.511 0,-0.281 0,0"
             style="fill:#1d1d1b;fill-opacity:1;fill-rule:evenodd;stroke:none"
             id="path6815" /></g><g
           id="g6817"
           transform="translate(40.792,29.9943)"><path
             d="M 0,0 C -0.001,0.281 0.227,0.51 0.511,0.51 0.792,0.51 1.02,0.281 1.02,0 1.02,-0.283 0.792,-0.512 0.511,-0.511 0.229,-0.512 -0.001,-0.281 0,0"
             style="fill:#1d1d1b;fill-opacity:1;fill-rule:evenodd;stroke:none"
             id="path6819" /></g><g
           id="g6821"
           transform="translate(42.7969,31.9982)"><path
             d="M 0,0 C 0,0.283 0.229,0.512 0.51,0.511 0.791,0.512 1.021,0.281 1.02,0 1.021,-0.281 0.793,-0.51 0.51,-0.51 0.229,-0.51 0,-0.281 0,0"
             style="fill:#1d1d1b;fill-opacity:1;fill-rule:evenodd;stroke:none"
             id="path6823" /></g><g
           id="g6825"
           transform="translate(44.8008,34.0041)"><path
             d="m 0,0 c 0,0.281 0.229,0.51 0.511,0.51 0.281,0 0.51,-0.23 0.51,-0.511 0,-0.282 -0.228,-0.511 -0.509,-0.511 C 0.23,-0.512 0,-0.282 0,0"
             style="fill:#1d1d1b;fill-opacity:1;fill-rule:evenodd;stroke:none"
             id="path6827" /></g><g
           id="g6829"
           transform="translate(46.8057,36.008)"><path
             d="M 0,0 C 0,0.282 0.229,0.511 0.511,0.51 0.792,0.511 1.021,0.281 1.021,0 1.021,-0.282 0.793,-0.511 0.511,-0.511 0.23,-0.511 0,-0.281 0,0"
             style="fill:#1d1d1b;fill-opacity:1;fill-rule:evenodd;stroke:none"
             id="path6831" /></g><g
           id="g6833"
           transform="translate(34.7773,27.9904)"><path
             d="m 0,0 c 0,0.281 0.229,0.51 0.511,0.51 0.282,0 0.51,-0.23 0.51,-0.512 0,-0.281 -0.228,-0.51 -0.509,-0.51 C 0.23,-0.512 0,-0.283 0,0"
             style="fill:#1d1d1b;fill-opacity:1;fill-rule:evenodd;stroke:none"
             id="path6835" /></g><g
           id="g6837"
           transform="translate(36.7822,29.9943)"><path
             d="m 0,0 c 0.001,0.281 0.23,0.51 0.511,0.51 0.281,0 0.51,-0.229 0.51,-0.511 0,-0.281 -0.228,-0.51 -0.51,-0.511 C 0.23,-0.511 0.001,-0.281 0,0"
             style="fill:#1d1d1b;fill-opacity:1;fill-rule:evenodd;stroke:none"
             id="path6839" /></g><g
           id="g6841"
           transform="translate(38.7871,31.9992)"><path
             d="M 0,0 C 0,0.281 0.228,0.51 0.51,0.511 0.792,0.51 1.021,0.28 1.021,-0.001 1.021,-0.282 0.793,-0.511 0.512,-0.511 0.228,-0.511 0,-0.282 0,0"
             style="fill:#1d1d1b;fill-opacity:1;fill-rule:evenodd;stroke:none"
             id="path6843" /></g><g
           id="g6845"
           transform="translate(40.791,34.0041)"><path
             d="m 0,0 c 0.001,0.281 0.23,0.51 0.511,0.51 0.282,0 0.51,-0.229 0.51,-0.512 0,-0.281 -0.228,-0.51 -0.509,-0.51 C 0.23,-0.512 0.001,-0.282 0,0"
             style="fill:#1d1d1b;fill-opacity:1;fill-rule:evenodd;stroke:none"
             id="path6847" /></g><g
           id="g6849"
           transform="translate(42.7969,36.008)"><path
             d="M 0,0 C 0,0.281 0.229,0.51 0.51,0.511 0.791,0.51 1.02,0.281 1.021,0 1.02,-0.282 0.792,-0.511 0.511,-0.511 0.229,-0.511 0,-0.281 0,0"
             style="fill:#1d1d1b;fill-opacity:1;fill-rule:evenodd;stroke:none"
             id="path6851" /></g><g
           id="g6853"
           transform="translate(44.8008,38.0129)"><path
             d="m 0,0 c 0,0.282 0.229,0.511 0.51,0.511 0.283,0 0.511,-0.23 0.511,-0.512 0,-0.281 -0.228,-0.51 -0.509,-0.51 C 0.23,-0.511 0,-0.282 0,0"
             style="fill:#1d1d1b;fill-opacity:1;fill-rule:evenodd;stroke:none"
             id="path6855" /></g><g
           id="g6857"
           transform="translate(46.8047,40.0179)"><path
             d="m 0,0 c 0.001,0.281 0.229,0.51 0.512,0.51 0.281,0 0.509,-0.229 0.51,-0.511 C 1.021,-0.283 0.793,-0.512 0.512,-0.512 0.23,-0.512 0.001,-0.282 0,0"
             style="fill:#1d1d1b;fill-opacity:1;fill-rule:evenodd;stroke:none"
             id="path6859" /></g><g
           id="g6861"
           transform="translate(30.7686,27.9894)"><path
             d="m 0,0 c 0,0.282 0.229,0.511 0.511,0.511 0.281,0 0.51,-0.23 0.51,-0.512 0,-0.281 -0.228,-0.51 -0.51,-0.51 C 0.229,-0.511 0,-0.281 0,0"
             style="fill:#1d1d1b;fill-opacity:1;fill-rule:evenodd;stroke:none"
             id="path6863" /></g><g
           id="g6865"
           transform="translate(32.7734,29.9943)"><path
             d="M 0,0 C 0,0.281 0.229,0.51 0.51,0.51 0.791,0.51 1.021,0.281 1.021,0 1.021,-0.283 0.793,-0.512 0.511,-0.511 0.229,-0.512 0,-0.281 0,0"
             style="fill:#1d1d1b;fill-opacity:1;fill-rule:evenodd;stroke:none"
             id="path6867" /></g><g
           id="g6869"
           transform="translate(34.7773,31.9982)"><path
             d="M 0,0 C 0,0.283 0.229,0.512 0.511,0.511 0.793,0.512 1.021,0.281 1.021,0 1.021,-0.281 0.793,-0.51 0.512,-0.51 0.23,-0.51 0,-0.281 0,0"
             style="fill:#1d1d1b;fill-opacity:1;fill-rule:evenodd;stroke:none"
             id="path6871" /></g><g
           id="g6873"
           transform="translate(36.7832,34.0041)"><path
             d="m 0,0 c -0.001,0.281 0.227,0.51 0.51,0.51 0.281,0 0.51,-0.23 0.51,-0.511 0,-0.282 -0.228,-0.511 -0.51,-0.511 -0.281,0 -0.511,0.23 -0.51,0.512"
             style="fill:#1d1d1b;fill-opacity:1;fill-rule:evenodd;stroke:none"
             id="path6875" /></g><g
           id="g6877"
           transform="translate(38.7871,36.008)"><path
             d="M 0,0 C 0,0.282 0.228,0.511 0.51,0.51 0.792,0.511 1.021,0.281 1.021,0 1.021,-0.282 0.793,-0.511 0.511,-0.511 0.229,-0.511 0,-0.281 0,0"
             style="fill:#1d1d1b;fill-opacity:1;fill-rule:evenodd;stroke:none"
             id="path6879" /></g><g
           id="g6881"
           transform="translate(40.792,38.0129)"><path
             d="m 0,0 c -0.001,0.282 0.227,0.511 0.511,0.511 0.281,0 0.509,-0.231 0.509,-0.512 0,-0.281 -0.228,-0.51 -0.509,-0.51 C 0.229,-0.511 -0.001,-0.282 0,0"
             style="fill:#1d1d1b;fill-opacity:1;fill-rule:evenodd;stroke:none"
             id="path6883" /></g><g
           id="g6885"
           transform="translate(42.7969,40.0179)"><path
             d="M 0,0 C 0,0.281 0.229,0.51 0.51,0.51 0.791,0.51 1.021,0.281 1.02,-0.001 1.021,-0.283 0.793,-0.512 0.51,-0.512 0.229,-0.512 0,-0.281 0,0"
             style="fill:#1d1d1b;fill-opacity:1;fill-rule:evenodd;stroke:none"
             id="path6887" /></g><g
           id="g6889"
           transform="translate(44.8008,42.0217)"><path
             d="m 0,0 c 0,0.282 0.229,0.511 0.511,0.511 0.281,0 0.51,-0.23 0.51,-0.511 0,-0.282 -0.228,-0.511 -0.51,-0.511 C 0.23,-0.511 0,-0.281 0,0"
             style="fill:#1d1d1b;fill-opacity:1;fill-rule:evenodd;stroke:none"
             id="path6891" /></g><g
           id="g6893"
           transform="translate(46.8057,44.0266)"><path
             d="m 0,0 c -0.001,0.282 0.229,0.511 0.511,0.511 0.281,0 0.51,-0.23 0.51,-0.512 0,-0.281 -0.229,-0.51 -0.51,-0.51 C 0.23,-0.511 -0.001,-0.282 0,0"
             style="fill:#1d1d1b;fill-opacity:1;fill-rule:evenodd;stroke:none"
             id="path6895" /></g><g
           id="g6897"
           transform="translate(26.7598,27.9904)"><path
             d="m 0,0 c 0,0.281 0.229,0.51 0.51,0.51 0.281,0 0.511,-0.23 0.511,-0.512 0,-0.281 -0.229,-0.51 -0.51,-0.51 C 0.229,-0.512 0,-0.283 0,0"
             style="fill:#1d1d1b;fill-opacity:1;fill-rule:evenodd;stroke:none"
             id="path6899" /></g><g
           id="g6901"
           transform="translate(28.7637,29.9943)"><path
             d="m 0,0 c 0,0.281 0.229,0.51 0.51,0.51 0.283,0 0.511,-0.229 0.511,-0.511 0,-0.281 -0.228,-0.51 -0.509,-0.511 C 0.229,-0.511 0,-0.281 0,0"
             style="fill:#1d1d1b;fill-opacity:1;fill-rule:evenodd;stroke:none"
             id="path6903" /></g><g
           id="g6905"
           transform="translate(30.7686,31.9992)"><path
             d="m 0,0 c 0,0.281 0.229,0.51 0.511,0.511 0.281,-0.001 0.51,-0.231 0.51,-0.512 0,-0.281 -0.229,-0.51 -0.51,-0.51 C 0.229,-0.511 0,-0.282 0,0"
             style="fill:#1d1d1b;fill-opacity:1;fill-rule:evenodd;stroke:none"
             id="path6907" /></g><g
           id="g6909"
           transform="translate(32.7734,34.0041)"><path
             d="m 0,0 c 0,0.281 0.229,0.51 0.51,0.51 0.282,0 0.511,-0.229 0.511,-0.512 0,-0.281 -0.228,-0.51 -0.51,-0.51 C 0.229,-0.512 0,-0.282 0,0"
             style="fill:#1d1d1b;fill-opacity:1;fill-rule:evenodd;stroke:none"
             id="path6911" /></g><g
           id="g6913"
           transform="translate(34.7773,36.008)"><path
             d="M 0,0 C 0,0.281 0.229,0.51 0.511,0.511 0.793,0.51 1.021,0.281 1.021,0 1.021,-0.282 0.793,-0.511 0.512,-0.511 0.23,-0.511 0,-0.281 0,0"
             style="fill:#1d1d1b;fill-opacity:1;fill-rule:evenodd;stroke:none"
             id="path6915" /></g><g
           id="g6917"
           transform="translate(36.7822,38.0129)"><path
             d="m 0,0 c 0.001,0.282 0.23,0.511 0.511,0.511 0.281,0 0.51,-0.23 0.51,-0.512 0,-0.281 -0.228,-0.51 -0.51,-0.51 C 0.23,-0.511 0.001,-0.282 0,0"
             style="fill:#1d1d1b;fill-opacity:1;fill-rule:evenodd;stroke:none"
             id="path6919" /></g><g
           id="g6921"
           transform="translate(38.7871,40.0179)"><path
             d="m 0,0 c 0,0.281 0.228,0.51 0.51,0.51 0.282,0 0.511,-0.229 0.511,-0.511 0,-0.282 -0.228,-0.511 -0.509,-0.511 C 0.228,-0.512 0,-0.282 0,0"
             style="fill:#1d1d1b;fill-opacity:1;fill-rule:evenodd;stroke:none"
             id="path6923" /></g><g
           id="g6925"
           transform="translate(40.791,42.0217)"><path
             d="m 0,0 c 0.001,0.282 0.23,0.511 0.511,0.511 0.282,0 0.51,-0.23 0.51,-0.511 0,-0.281 -0.228,-0.51 -0.509,-0.511 C 0.23,-0.51 0.001,-0.281 0,0"
             style="fill:#1d1d1b;fill-opacity:1;fill-rule:evenodd;stroke:none"
             id="path6927" /></g><g
           id="g6929"
           transform="translate(42.7959,44.0266)"><path
             d="m 0,0 c 0.001,0.282 0.23,0.511 0.511,0.511 0.281,0 0.51,-0.23 0.512,-0.512 C 1.021,-0.282 0.793,-0.511 0.511,-0.511 0.23,-0.511 0.001,-0.282 0,0"
             style="fill:#1d1d1b;fill-opacity:1;fill-rule:evenodd;stroke:none"
             id="path6931" /></g><g
           id="g6933"
           transform="translate(44.8008,46.0314)"><path
             d="m 0,0 c 0,0.281 0.229,0.51 0.51,0.51 0.283,0 0.511,-0.229 0.511,-0.511 0,-0.281 -0.228,-0.511 -0.509,-0.511 C 0.229,-0.512 0,-0.282 0,0"
             style="fill:#1d1d1b;fill-opacity:1;fill-rule:evenodd;stroke:none"
             id="path6935" /></g><g
           id="g6937"
           transform="translate(46.8047,48.0353)"><path
             d="M 0,0 C 0.001,0.282 0.229,0.511 0.512,0.512 0.793,0.511 1.021,0.281 1.022,0 1.021,-0.281 0.793,-0.51 0.512,-0.511 0.23,-0.51 0.001,-0.281 0,0"
             style="fill:#1d1d1b;fill-opacity:1;fill-rule:evenodd;stroke:none"
             id="path6939" /></g><g
           id="g6941"
           transform="translate(22.75,27.9894)"><path
             d="m 0,0 c 0,0.282 0.229,0.511 0.51,0.511 0.282,0 0.511,-0.23 0.511,-0.512 0,-0.281 -0.228,-0.51 -0.509,-0.51 C 0.23,-0.511 0,-0.281 0,0"
             style="fill:#1d1d1b;fill-opacity:1;fill-rule:evenodd;stroke:none"
             id="path6943" /></g><g
           id="g6945"
           transform="translate(24.7549,29.9943)"><path
             d="m 0,0 c -0.001,0.281 0.228,0.51 0.511,0.51 0.281,0 0.51,-0.229 0.51,-0.511 0,-0.282 -0.229,-0.511 -0.51,-0.511 C 0.23,-0.512 -0.001,-0.281 0,0"
             style="fill:#1d1d1b;fill-opacity:1;fill-rule:evenodd;stroke:none"
             id="path6947" /></g><g
           id="g6949"
           transform="translate(26.7598,31.9982)"><path
             d="M 0,0 C 0,0.283 0.229,0.512 0.51,0.511 0.791,0.512 1.021,0.281 1.021,0 1.021,-0.281 0.793,-0.51 0.511,-0.511 0.229,-0.51 0,-0.281 0,0"
             style="fill:#1d1d1b;fill-opacity:1;fill-rule:evenodd;stroke:none"
             id="path6951" /></g><g
           id="g6953"
           transform="translate(28.7637,34.0041)"><path
             d="m 0,0 c 0,0.281 0.229,0.51 0.511,0.51 0.281,0 0.51,-0.23 0.51,-0.512 0,-0.281 -0.228,-0.51 -0.509,-0.51 C 0.229,-0.512 0,-0.282 0,0"
             style="fill:#1d1d1b;fill-opacity:1;fill-rule:evenodd;stroke:none"
             id="path6955" /></g><g
           id="g6957"
           transform="translate(30.7686,36.008)"><path
             d="m 0,0 c 0,0.282 0.229,0.511 0.511,0.51 0.281,0.001 0.51,-0.229 0.51,-0.511 0,-0.281 -0.228,-0.51 -0.51,-0.511 C 0.229,-0.511 0,-0.281 0,0"
             style="fill:#1d1d1b;fill-opacity:1;fill-rule:evenodd;stroke:none"
             id="path6959" /></g><g
           id="g6961"
           transform="translate(32.7734,38.0129)"><path
             d="m 0,0 c 0,0.282 0.229,0.511 0.51,0.511 0.281,0 0.511,-0.231 0.511,-0.512 0,-0.281 -0.228,-0.51 -0.509,-0.51 C 0.229,-0.511 0,-0.282 0,0"
             style="fill:#1d1d1b;fill-opacity:1;fill-rule:evenodd;stroke:none"
             id="path6963" /></g><g
           id="g6965"
           transform="translate(34.7773,40.0179)"><path
             d="m 0,0 c 0,0.281 0.229,0.51 0.511,0.51 0.282,0 0.51,-0.229 0.51,-0.512 0,-0.281 -0.228,-0.51 -0.509,-0.51 C 0.23,-0.512 0,-0.281 0,0"
             style="fill:#1d1d1b;fill-opacity:1;fill-rule:evenodd;stroke:none"
             id="path6967" /></g><g
           id="g6969"
           transform="translate(36.7832,42.0217)"><path
             d="M 0,0 C -0.001,0.282 0.227,0.511 0.51,0.511 0.791,0.511 1.02,0.281 1.021,0 1.02,-0.282 0.792,-0.511 0.511,-0.511 0.229,-0.511 -0.001,-0.281 0,0"
             style="fill:#1d1d1b;fill-opacity:1;fill-rule:evenodd;stroke:none"
             id="path6971" /></g><g
           id="g6973"
           transform="translate(38.7871,44.0266)"><path
             d="m 0,0 c 0,0.282 0.228,0.511 0.51,0.511 0.282,0 0.511,-0.23 0.511,-0.512 0,-0.281 -0.228,-0.51 -0.509,-0.51 C 0.229,-0.511 0,-0.281 0,0"
             style="fill:#1d1d1b;fill-opacity:1;fill-rule:evenodd;stroke:none"
             id="path6975" /></g><g
           id="g6977"
           transform="translate(40.791,46.0314)"><path
             d="M 0,0 C 0,0.281 0.229,0.51 0.512,0.51 0.793,0.51 1.021,0.281 1.023,-0.001 1.021,-0.283 0.793,-0.512 0.512,-0.512 0.23,-0.512 0,-0.281 0,0"
             style="fill:#1d1d1b;fill-opacity:1;fill-rule:evenodd;stroke:none"
             id="path6979" /></g><g
           id="g6981"
           transform="translate(42.7969,48.0353)"><path
             d="M 0,0 C -0.001,0.282 0.229,0.512 0.51,0.511 0.791,0.512 1.021,0.281 1.021,0 1.021,-0.281 0.792,-0.511 0.511,-0.511 0.229,-0.511 -0.001,-0.281 0,0"
             style="fill:#1d1d1b;fill-opacity:1;fill-rule:evenodd;stroke:none"
             id="path6983" /></g><g
           id="g6985"
           transform="translate(44.8008,50.0402)"><path
             d="m 0,0 c 0,0.282 0.229,0.511 0.511,0.511 0.281,0 0.51,-0.23 0.51,-0.512 0,-0.281 -0.228,-0.51 -0.509,-0.51 C 0.23,-0.511 0,-0.281 0,0"
             style="fill:#1d1d1b;fill-opacity:1;fill-rule:evenodd;stroke:none"
             id="path6987" /></g><g
           id="g6989"
           transform="translate(46.8057,52.0451)"><path
             d="m 0,0 c -0.001,0.281 0.228,0.51 0.511,0.51 0.281,0 0.51,-0.229 0.51,-0.511 0,-0.282 -0.229,-0.511 -0.51,-0.511 C 0.23,-0.512 -0.001,-0.281 0,0"
             style="fill:#1d1d1b;fill-opacity:1;fill-rule:evenodd;stroke:none"
             id="path6991" /></g><g
           id="g6993"
           transform="translate(18.7412,27.9894)"><path
             d="m 0,0 c -0.001,0.282 0.228,0.511 0.511,0.511 0.281,0 0.51,-0.231 0.51,-0.512 0,-0.281 -0.229,-0.51 -0.51,-0.51 C 0.23,-0.511 -0.001,-0.282 0,0"
             style="fill:#1d1d1b;fill-opacity:1;fill-rule:evenodd;stroke:none"
             id="path6995" /></g><g
           id="g6997"
           transform="translate(20.7461,29.9943)"><path
             d="m 0,0 c 0,0.281 0.229,0.51 0.51,0.51 0.281,0 0.511,-0.229 0.511,-0.511 0,-0.282 -0.228,-0.511 -0.511,-0.511 C 0.229,-0.512 0,-0.281 0,0"
             style="fill:#1d1d1b;fill-opacity:1;fill-rule:evenodd;stroke:none"
             id="path6999" /></g><g
           id="g7001"
           transform="translate(22.75,31.9982)"><path
             d="m 0,0 c 0,0.282 0.229,0.511 0.511,0.511 0.281,0 0.51,-0.23 0.51,-0.511 0,-0.282 -0.228,-0.511 -0.509,-0.51 C 0.23,-0.511 0,-0.281 0,0"
             style="fill:#1d1d1b;fill-opacity:1;fill-rule:evenodd;stroke:none"
             id="path7003" /></g><g
           id="g7005"
           transform="translate(24.7549,34.0031)"><path
             d="m 0,0 c 0,0.282 0.229,0.511 0.511,0.511 0.281,0 0.51,-0.23 0.51,-0.512 0,-0.281 -0.228,-0.51 -0.51,-0.51 C 0.23,-0.511 0,-0.281 0,0"
             style="fill:#1d1d1b;fill-opacity:1;fill-rule:evenodd;stroke:none"
             id="path7007" /></g><g
           id="g7009"
           transform="translate(26.7598,36.008)"><path
             d="M 0,0 C 0,0.281 0.229,0.51 0.51,0.51 0.791,0.51 1.021,0.281 1.021,0 1.021,-0.283 0.793,-0.512 0.511,-0.511 0.229,-0.512 0,-0.281 0,0"
             style="fill:#1d1d1b;fill-opacity:1;fill-rule:evenodd;stroke:none"
             id="path7011" /></g><g
           id="g7013"
           transform="translate(28.7637,38.0119)"><path
             d="M 0,0 C 0,0.283 0.229,0.512 0.511,0.511 0.793,0.512 1.021,0.281 1.021,0 1.021,-0.281 0.793,-0.51 0.512,-0.51 0.23,-0.51 0,-0.281 0,0"
             style="fill:#1d1d1b;fill-opacity:1;fill-rule:evenodd;stroke:none"
             id="path7015" /></g><g
           id="g7017"
           transform="translate(30.7695,40.0179)"><path
             d="m 0,0 c -0.001,0.281 0.228,0.51 0.51,0.51 0.281,0 0.511,-0.23 0.511,-0.511 0,-0.282 -0.229,-0.511 -0.511,-0.511 -0.281,0 -0.511,0.23 -0.51,0.512"
             style="fill:#1d1d1b;fill-opacity:1;fill-rule:evenodd;stroke:none"
             id="path7019" /></g><g
           id="g7021"
           transform="translate(32.7734,42.0217)"><path
             d="M 0,0 C 0,0.282 0.229,0.511 0.51,0.51 0.792,0.511 1.021,0.281 1.021,0 1.021,-0.282 0.793,-0.511 0.511,-0.511 0.229,-0.511 0,-0.281 0,0"
             style="fill:#1d1d1b;fill-opacity:1;fill-rule:evenodd;stroke:none"
             id="path7023" /></g><g
           id="g7025"
           transform="translate(34.7783,44.0266)"><path
             d="m 0,0 c -0.001,0.282 0.228,0.511 0.511,0.511 0.281,0 0.509,-0.231 0.509,-0.512 0,-0.281 -0.228,-0.51 -0.509,-0.51 C 0.229,-0.511 -0.001,-0.282 0,0"
             style="fill:#1d1d1b;fill-opacity:1;fill-rule:evenodd;stroke:none"
             id="path7027" /></g><g
           id="g7029"
           transform="translate(36.7832,46.0314)"><path
             d="M 0,0 C 0,0.281 0.229,0.51 0.51,0.51 0.791,0.51 1.021,0.281 1.02,-0.001 1.021,-0.283 0.793,-0.512 0.51,-0.512 0.229,-0.512 0,-0.281 0,0"
             style="fill:#1d1d1b;fill-opacity:1;fill-rule:evenodd;stroke:none"
             id="path7031" /></g><g
           id="g7033"
           transform="translate(38.7871,48.0353)"><path
             d="m 0,0 c 0,0.282 0.228,0.511 0.511,0.511 0.281,0 0.51,-0.23 0.51,-0.511 0,-0.282 -0.228,-0.511 -0.51,-0.511 C 0.229,-0.511 0,-0.281 0,0"
             style="fill:#1d1d1b;fill-opacity:1;fill-rule:evenodd;stroke:none"
             id="path7035" /></g><g
           id="g7037"
           transform="translate(40.792,50.0402)"><path
             d="m 0,0 c -0.001,0.282 0.229,0.511 0.511,0.511 0.281,0 0.51,-0.23 0.509,-0.512 C 1.021,-0.282 0.792,-0.511 0.511,-0.511 0.229,-0.511 -0.001,-0.282 0,0"
             style="fill:#1d1d1b;fill-opacity:1;fill-rule:evenodd;stroke:none"
             id="path7039" /></g><g
           id="g7041"
           transform="translate(42.7969,52.0451)"><path
             d="M 0,0 C 0,0.281 0.229,0.51 0.51,0.51 0.791,0.51 1.021,0.281 1.021,0 1.021,-0.283 0.793,-0.512 0.51,-0.512 0.229,-0.512 0,-0.281 0,0"
             style="fill:#1d1d1b;fill-opacity:1;fill-rule:evenodd;stroke:none"
             id="path7043" /></g><g
           id="g7045"
           transform="translate(44.8008,54.049)"><path
             d="m 0,0 c 0,0.282 0.229,0.511 0.511,0.511 0.281,0 0.51,-0.23 0.51,-0.511 0,-0.282 -0.228,-0.511 -0.509,-0.51 C 0.23,-0.511 0,-0.281 0,0"
             style="fill:#1d1d1b;fill-opacity:1;fill-rule:evenodd;stroke:none"
             id="path7047" /></g><g
           id="g7049"
           transform="translate(14.7314,27.9894)"><path
             d="m 0,0 c 0.001,0.282 0.23,0.511 0.511,0.511 0.281,0 0.51,-0.23 0.51,-0.512 0,-0.281 -0.228,-0.51 -0.51,-0.51 C 0.23,-0.511 0.001,-0.282 0,0"
             style="fill:#1d1d1b;fill-opacity:1;fill-rule:evenodd;stroke:none"
             id="path7051" /></g><g
           id="g7053"
           transform="translate(16.7363,29.9943)"><path
             d="m 0,0 c 0,0.281 0.229,0.51 0.51,0.51 0.282,0 0.511,-0.229 0.511,-0.511 0,-0.282 -0.228,-0.511 -0.509,-0.511 C 0.229,-0.512 0,-0.282 0,0"
             style="fill:#1d1d1b;fill-opacity:1;fill-rule:evenodd;stroke:none"
             id="path7055" /></g><g
           id="g7057"
           transform="translate(18.7402,31.9982)"><path
             d="m 0,0 c 0.001,0.282 0.229,0.511 0.511,0.511 0.282,0 0.51,-0.23 0.51,-0.511 0,-0.281 -0.228,-0.51 -0.509,-0.511 C 0.23,-0.51 0.001,-0.281 0,0"
             style="fill:#1d1d1b;fill-opacity:1;fill-rule:evenodd;stroke:none"
             id="path7059" /></g><g
           id="g7061"
           transform="translate(20.7461,34.0041)"><path
             d="m 0,0 c 0,0.281 0.229,0.51 0.51,0.51 0.281,0 0.511,-0.23 0.511,-0.512 0,-0.281 -0.229,-0.51 -0.51,-0.51 C 0.229,-0.512 0,-0.283 0,0"
             style="fill:#1d1d1b;fill-opacity:1;fill-rule:evenodd;stroke:none"
             id="path7063" /></g><g
           id="g7065"
           transform="translate(22.75,36.008)"><path
             d="m 0,0 c 0,0.281 0.229,0.51 0.51,0.51 0.283,0 0.511,-0.229 0.511,-0.511 0,-0.281 -0.228,-0.51 -0.509,-0.511 C 0.23,-0.511 0,-0.281 0,0"
             style="fill:#1d1d1b;fill-opacity:1;fill-rule:evenodd;stroke:none"
             id="path7067" /></g><g
           id="g7069"
           transform="translate(24.7549,38.0129)"><path
             d="m 0,0 c 0,0.281 0.229,0.51 0.511,0.511 0.281,-0.001 0.51,-0.231 0.51,-0.512 0,-0.281 -0.229,-0.51 -0.51,-0.51 C 0.23,-0.511 0,-0.282 0,0"
             style="fill:#1d1d1b;fill-opacity:1;fill-rule:evenodd;stroke:none"
             id="path7071" /></g><g
           id="g7073"
           transform="translate(26.7598,40.0179)"><path
             d="m 0,0 c 0,0.281 0.229,0.51 0.51,0.51 0.282,0 0.511,-0.229 0.511,-0.512 0,-0.281 -0.228,-0.51 -0.51,-0.51 C 0.229,-0.512 0,-0.282 0,0"
             style="fill:#1d1d1b;fill-opacity:1;fill-rule:evenodd;stroke:none"
             id="path7075" /></g><g
           id="g7077"
           transform="translate(28.7637,42.0217)"><path
             d="M 0,0 C 0,0.281 0.229,0.51 0.511,0.511 0.793,0.51 1.021,0.281 1.021,0 1.021,-0.282 0.793,-0.511 0.512,-0.511 0.229,-0.511 0,-0.281 0,0"
             style="fill:#1d1d1b;fill-opacity:1;fill-rule:evenodd;stroke:none"
             id="path7079" /></g><g
           id="g7081"
           transform="translate(30.7686,44.0266)"><path
             d="m 0,0 c 0.001,0.282 0.229,0.511 0.511,0.511 0.281,0 0.51,-0.23 0.51,-0.512 0,-0.281 -0.228,-0.51 -0.51,-0.51 C 0.229,-0.511 0.001,-0.282 0,0"
             style="fill:#1d1d1b;fill-opacity:1;fill-rule:evenodd;stroke:none"
             id="path7083" /></g><g
           id="g7085"
           transform="translate(32.7734,46.0314)"><path
             d="m 0,0 c 0,0.281 0.229,0.51 0.51,0.51 0.282,0 0.511,-0.229 0.511,-0.511 0,-0.282 -0.228,-0.511 -0.509,-0.511 C 0.229,-0.512 0,-0.282 0,0"
             style="fill:#1d1d1b;fill-opacity:1;fill-rule:evenodd;stroke:none"
             id="path7087" /></g><g
           id="g7089"
           transform="translate(34.7773,48.0353)"><path
             d="m 0,0 c 0.001,0.282 0.23,0.511 0.511,0.511 0.282,0 0.51,-0.23 0.51,-0.511 0,-0.281 -0.228,-0.51 -0.509,-0.511 C 0.23,-0.51 0.001,-0.281 0,0"
             style="fill:#1d1d1b;fill-opacity:1;fill-rule:evenodd;stroke:none"
             id="path7091" /></g><g
           id="g7093"
           transform="translate(36.7822,50.0402)"><path
             d="m 0,0 c 0.001,0.282 0.23,0.511 0.511,0.511 0.281,0 0.51,-0.23 0.512,-0.512 C 1.021,-0.282 0.793,-0.511 0.511,-0.511 0.23,-0.511 0.001,-0.282 0,0"
             style="fill:#1d1d1b;fill-opacity:1;fill-rule:evenodd;stroke:none"
             id="path7095" /></g><g
           id="g7097"
           transform="translate(38.7871,52.0451)"><path
             d="m 0,0 c 0,0.281 0.228,0.51 0.51,0.51 0.283,0 0.511,-0.229 0.511,-0.511 0,-0.281 -0.228,-0.511 -0.509,-0.511 C 0.228,-0.512 0,-0.282 0,0"
             style="fill:#1d1d1b;fill-opacity:1;fill-rule:evenodd;stroke:none"
             id="path7099" /></g><g
           id="g7101"
           transform="translate(40.791,54.049)"><path
             d="M 0,0 C 0.001,0.282 0.23,0.511 0.512,0.512 0.793,0.511 1.021,0.281 1.023,0 1.021,-0.281 0.793,-0.51 0.512,-0.511 0.23,-0.51 0.001,-0.281 0,0"
             style="fill:#1d1d1b;fill-opacity:1;fill-rule:evenodd;stroke:none"
             id="path7103" /></g><g
           id="g7105"
           transform="translate(10.7227,27.9894)"><path
             d="m 0,0 c 0,0.282 0.229,0.511 0.51,0.511 0.282,0 0.511,-0.23 0.511,-0.512 0,-0.281 -0.228,-0.51 -0.51,-0.51 C 0.229,-0.511 0,-0.282 0,0"
             style="fill:#1d1d1b;fill-opacity:1;fill-rule:evenodd;stroke:none"
             id="path7107" /></g><g
           id="g7109"
           transform="translate(12.7266,29.9943)"><path
             d="m 0,0 c 0,0.281 0.229,0.51 0.511,0.51 0.282,0 0.51,-0.229 0.51,-0.511 0,-0.282 -0.228,-0.511 -0.509,-0.511 C 0.23,-0.512 0,-0.281 0,0"
             style="fill:#1d1d1b;fill-opacity:1;fill-rule:evenodd;stroke:none"
             id="path7111" /></g><g
           id="g7113"
           transform="translate(14.7324,31.9982)"><path
             d="M 0,0 C -0.001,0.282 0.228,0.511 0.51,0.511 0.791,0.511 1.02,0.281 1.02,0 1.02,-0.282 0.792,-0.511 0.51,-0.51 0.229,-0.511 -0.001,-0.281 0,0"
             style="fill:#1d1d1b;fill-opacity:1;fill-rule:evenodd;stroke:none"
             id="path7115" /></g><g
           id="g7117"
           transform="translate(16.7363,34.0031)"><path
             d="m 0,0 c 0,0.282 0.229,0.511 0.51,0.511 0.282,0 0.511,-0.23 0.511,-0.512 0,-0.281 -0.228,-0.51 -0.51,-0.51 C 0.23,-0.511 0,-0.281 0,0"
             style="fill:#1d1d1b;fill-opacity:1;fill-rule:evenodd;stroke:none"
             id="path7119" /></g><g
           id="g7121"
           transform="translate(18.7412,36.008)"><path
             d="m 0,0 c -0.001,0.281 0.228,0.51 0.511,0.51 0.281,0 0.51,-0.229 0.51,-0.51 0,-0.283 -0.229,-0.512 -0.51,-0.511 C 0.23,-0.512 -0.001,-0.281 0,0"
             style="fill:#1d1d1b;fill-opacity:1;fill-rule:evenodd;stroke:none"
             id="path7123" /></g><g
           id="g7125"
           transform="translate(20.7461,38.0119)"><path
             d="M 0,0 C 0,0.283 0.229,0.512 0.51,0.511 0.791,0.512 1.021,0.281 1.021,0 1.021,-0.281 0.793,-0.51 0.51,-0.51 0.229,-0.51 0,-0.281 0,0"
             style="fill:#1d1d1b;fill-opacity:1;fill-rule:evenodd;stroke:none"
             id="path7127" /></g><g
           id="g7129"
           transform="translate(22.75,40.0179)"><path
             d="m 0,0 c 0,0.281 0.229,0.51 0.511,0.51 0.281,0 0.51,-0.23 0.51,-0.511 0,-0.282 -0.228,-0.511 -0.509,-0.511 C 0.23,-0.512 0,-0.282 0,0"
             style="fill:#1d1d1b;fill-opacity:1;fill-rule:evenodd;stroke:none"
             id="path7131" /></g><g
           id="g7133"
           transform="translate(24.7549,42.0217)"><path
             d="M 0,0 C 0,0.282 0.229,0.511 0.511,0.51 0.792,0.511 1.021,0.281 1.021,0 1.021,-0.282 0.793,-0.511 0.511,-0.511 0.23,-0.511 0,-0.281 0,0"
             style="fill:#1d1d1b;fill-opacity:1;fill-rule:evenodd;stroke:none"
             id="path7135" /></g><g
           id="g7137"
           transform="translate(26.7598,44.0266)"><path
             d="m 0,0 c 0,0.282 0.229,0.511 0.51,0.511 0.281,0 0.511,-0.231 0.511,-0.512 0,-0.281 -0.228,-0.51 -0.51,-0.51 C 0.229,-0.511 0,-0.282 0,0"
             style="fill:#1d1d1b;fill-opacity:1;fill-rule:evenodd;stroke:none"
             id="path7139" /></g><g
           id="g7141"
           transform="translate(28.7637,46.0314)"><path
             d="m 0,0 c 0,0.281 0.229,0.51 0.511,0.51 0.282,0 0.51,-0.229 0.51,-0.511 0,-0.282 -0.228,-0.511 -0.509,-0.511 C 0.23,-0.512 0,-0.281 0,0"
             style="fill:#1d1d1b;fill-opacity:1;fill-rule:evenodd;stroke:none"
             id="path7143" /></g><g
           id="g7145"
           transform="translate(30.7695,48.0353)"><path
             d="M 0,0 C -0.001,0.282 0.228,0.511 0.51,0.511 0.791,0.511 1.021,0.281 1.021,0 1.021,-0.282 0.792,-0.511 0.51,-0.51 0.229,-0.511 -0.001,-0.281 0,0"
             style="fill:#1d1d1b;fill-opacity:1;fill-rule:evenodd;stroke:none"
             id="path7147" /></g><g
           id="g7149"
           transform="translate(32.7734,50.0402)"><path
             d="m 0,0 c 0,0.282 0.229,0.511 0.51,0.511 0.282,0 0.511,-0.23 0.511,-0.512 0,-0.281 -0.228,-0.51 -0.51,-0.51 C 0.229,-0.511 0,-0.281 0,0"
             style="fill:#1d1d1b;fill-opacity:1;fill-rule:evenodd;stroke:none"
             id="path7151" /></g><g
           id="g7153"
           transform="translate(34.7773,52.0451)"><path
             d="M 0,0 C 0,0.281 0.229,0.51 0.512,0.51 0.793,0.51 1.021,0.281 1.021,0 1.021,-0.283 0.793,-0.512 0.512,-0.512 0.23,-0.512 0,-0.281 0,0"
             style="fill:#1d1d1b;fill-opacity:1;fill-rule:evenodd;stroke:none"
             id="path7155" /></g><g
           id="g7157"
           transform="translate(36.7832,54.049)"><path
             d="M 0,0 C -0.001,0.282 0.229,0.512 0.51,0.511 0.791,0.512 1.021,0.281 1.02,0 1.021,-0.281 0.792,-0.511 0.51,-0.51 0.229,-0.511 -0.001,-0.281 0,0"
             style="fill:#1d1d1b;fill-opacity:1;fill-rule:evenodd;stroke:none"
             id="path7159" /></g><g
           id="g7161"
           transform="translate(6.7129,27.9894)"><path
             d="m 0,0 c 0,0.282 0.229,0.511 0.511,0.511 0.282,0 0.51,-0.23 0.51,-0.512 0,-0.281 -0.228,-0.51 -0.509,-0.51 C 0.229,-0.511 0,-0.282 0,0"
             style="fill:#1d1d1b;fill-opacity:1;fill-rule:evenodd;stroke:none"
             id="path7163" /></g><g
           id="g7165"
           transform="translate(8.7178,29.9943)"><path
             d="m 0,0 c 0,0.281 0.229,0.51 0.511,0.51 0.281,0 0.51,-0.229 0.51,-0.511 0,-0.281 -0.229,-0.511 -0.51,-0.511 C 0.229,-0.512 0,-0.282 0,0"
             style="fill:#1d1d1b;fill-opacity:1;fill-rule:evenodd;stroke:none"
             id="path7167" /></g><g
           id="g7169"
           transform="translate(10.7227,31.9982)"><path
             d="M 0,0 C 0,0.282 0.229,0.511 0.51,0.511 0.792,0.511 1.021,0.281 1.021,0 1.021,-0.281 0.793,-0.51 0.511,-0.511 0.229,-0.51 0,-0.281 0,0"
             style="fill:#1d1d1b;fill-opacity:1;fill-rule:evenodd;stroke:none"
             id="path7171" /></g><g
           id="g7173"
           transform="translate(12.7266,34.0041)"><path
             d="m 0,0 c 0,0.281 0.229,0.51 0.511,0.51 0.282,0 0.51,-0.23 0.51,-0.512 0,-0.281 -0.228,-0.51 -0.509,-0.51 C 0.23,-0.512 0,-0.283 0,0"
             style="fill:#1d1d1b;fill-opacity:1;fill-rule:evenodd;stroke:none"
             id="path7175" /></g><g
           id="g7177"
           transform="translate(14.7314,36.008)"><path
             d="m 0,0 c 0.001,0.281 0.23,0.51 0.511,0.51 0.281,0 0.51,-0.229 0.51,-0.511 0,-0.281 -0.228,-0.51 -0.51,-0.511 C 0.23,-0.511 0.001,-0.281 0,0"
             style="fill:#1d1d1b;fill-opacity:1;fill-rule:evenodd;stroke:none"
             id="path7179" /></g><g
           id="g7181"
           transform="translate(16.7363,38.0129)"><path
             d="M 0,0 C 0,0.281 0.229,0.51 0.51,0.511 0.792,0.51 1.021,0.28 1.021,-0.001 1.021,-0.282 0.793,-0.511 0.512,-0.511 0.229,-0.511 0,-0.282 0,0"
             style="fill:#1d1d1b;fill-opacity:1;fill-rule:evenodd;stroke:none"
             id="path7183" /></g><g
           id="g7185"
           transform="translate(18.7402,40.0179)"><path
             d="m 0,0 c 0.001,0.281 0.229,0.51 0.511,0.51 0.282,0 0.51,-0.229 0.51,-0.512 0,-0.281 -0.228,-0.51 -0.509,-0.51 C 0.23,-0.512 0.001,-0.282 0,0"
             style="fill:#1d1d1b;fill-opacity:1;fill-rule:evenodd;stroke:none"
             id="path7187" /></g><g
           id="g7189"
           transform="translate(20.7461,42.0217)"><path
             d="M 0,0 C 0,0.281 0.229,0.51 0.51,0.511 0.791,0.51 1.021,0.281 1.021,0 1.021,-0.282 0.792,-0.511 0.511,-0.511 0.229,-0.511 0,-0.281 0,0"
             style="fill:#1d1d1b;fill-opacity:1;fill-rule:evenodd;stroke:none"
             id="path7191" /></g><g
           id="g7193"
           transform="translate(22.75,44.0266)"><path
             d="m 0,0 c 0,0.282 0.229,0.511 0.51,0.511 0.283,0 0.511,-0.23 0.511,-0.512 0,-0.281 -0.228,-0.51 -0.509,-0.51 C 0.23,-0.511 0,-0.282 0,0"
             style="fill:#1d1d1b;fill-opacity:1;fill-rule:evenodd;stroke:none"
             id="path7195" /></g><g
           id="g7197"
           transform="translate(24.7549,46.0314)"><path
             d="m 0,0 c 0,0.281 0.229,0.51 0.511,0.51 0.281,0 0.51,-0.229 0.51,-0.511 0,-0.282 -0.229,-0.511 -0.51,-0.511 C 0.23,-0.512 0,-0.282 0,0"
             style="fill:#1d1d1b;fill-opacity:1;fill-rule:evenodd;stroke:none"
             id="path7199" /></g><g
           id="g7201"
           transform="translate(26.7598,48.0353)"><path
             d="M 0,0 C 0,0.282 0.229,0.511 0.51,0.511 0.792,0.511 1.021,0.281 1.021,0 1.021,-0.281 0.793,-0.51 0.511,-0.511 0.229,-0.51 0,-0.281 0,0"
             style="fill:#1d1d1b;fill-opacity:1;fill-rule:evenodd;stroke:none"
             id="path7203" /></g><g
           id="g7205"
           transform="translate(28.7637,50.0412)"><path
             d="m 0,0 c 0,0.281 0.229,0.51 0.511,0.51 0.282,0 0.51,-0.23 0.51,-0.512 0,-0.281 -0.228,-0.51 -0.509,-0.51 C 0.229,-0.512 0,-0.283 0,0"
             style="fill:#1d1d1b;fill-opacity:1;fill-rule:evenodd;stroke:none"
             id="path7207" /></g><g
           id="g7209"
           transform="translate(30.7686,52.0451)"><path
             d="m 0,0 c 0.001,0.281 0.229,0.51 0.511,0.51 0.281,0 0.51,-0.229 0.51,-0.511 0,-0.281 -0.228,-0.51 -0.51,-0.511 C 0.229,-0.511 0.001,-0.281 0,0"
             style="fill:#1d1d1b;fill-opacity:1;fill-rule:evenodd;stroke:none"
             id="path7211" /></g><g
           id="g7213"
           transform="translate(32.7734,54.049)"><path
             d="M 0,0 C 0,0.282 0.229,0.511 0.51,0.512 0.792,0.511 1.021,0.281 1.021,0 1.021,-0.281 0.793,-0.51 0.511,-0.511 0.229,-0.51 0,-0.281 0,0"
             style="fill:#1d1d1b;fill-opacity:1;fill-rule:evenodd;stroke:none"
             id="path7215" /></g><g
           id="g7217"
           transform="translate(2.7041,27.9894)"><path
             d="m 0,0 c 0,0.282 0.229,0.511 0.511,0.511 0.281,0 0.51,-0.23 0.509,-0.512 C 1.021,-0.282 0.793,-0.511 0.511,-0.511 0.229,-0.511 0,-0.281 0,0"
             style="fill:#1d1d1b;fill-opacity:1;fill-rule:evenodd;stroke:none"
             id="path7219" /></g><g
           id="g7221"
           transform="translate(4.709,29.9943)"><path
             d="M 0,0 C 0,0.281 0.229,0.51 0.51,0.51 0.791,0.51 1.021,0.281 1.021,0 1.021,-0.283 0.793,-0.512 0.51,-0.512 0.229,-0.512 0,-0.281 0,0"
             style="fill:#1d1d1b;fill-opacity:1;fill-rule:evenodd;stroke:none"
             id="path7223" /></g><g
           id="g7225"
           transform="translate(6.7129,31.9982)"><path
             d="M 0,0 C 0,0.282 0.229,0.512 0.511,0.511 0.793,0.512 1.021,0.281 1.021,0 1.021,-0.281 0.793,-0.511 0.512,-0.51 0.229,-0.511 0,-0.281 0,0"
             style="fill:#1d1d1b;fill-opacity:1;fill-rule:evenodd;stroke:none"
             id="path7227" /></g><g
           id="g7229"
           transform="translate(8.7178,34.0031)"><path
             d="m 0,0 c 0,0.282 0.229,0.511 0.511,0.511 0.281,0 0.51,-0.23 0.509,-0.512 C 1.021,-0.282 0.793,-0.511 0.511,-0.511 0.229,-0.511 0,-0.281 0,0"
             style="fill:#1d1d1b;fill-opacity:1;fill-rule:evenodd;stroke:none"
             id="path7231" /></g><g
           id="g7233"
           transform="translate(10.7227,36.008)"><path
             d="M 0,0 C 0,0.281 0.229,0.51 0.51,0.51 0.791,0.51 1.021,0.281 1.021,0 1.021,-0.283 0.793,-0.512 0.511,-0.511 0.229,-0.512 0,-0.281 0,0"
             style="fill:#1d1d1b;fill-opacity:1;fill-rule:evenodd;stroke:none"
             id="path7235" /></g><g
           id="g7237"
           transform="translate(12.7266,38.0119)"><path
             d="M 0,0 C 0,0.283 0.229,0.512 0.511,0.511 0.793,0.512 1.021,0.281 1.021,0 1.021,-0.281 0.793,-0.51 0.512,-0.51 0.23,-0.51 0,-0.281 0,0"
             style="fill:#1d1d1b;fill-opacity:1;fill-rule:evenodd;stroke:none"
             id="path7239" /></g><g
           id="g7241"
           transform="translate(14.7324,40.0179)"><path
             d="m 0,0 c -0.001,0.281 0.228,0.51 0.51,0.51 0.281,0 0.51,-0.23 0.51,-0.511 0,-0.282 -0.228,-0.511 -0.51,-0.511 -0.281,0 -0.511,0.23 -0.51,0.512"
             style="fill:#1d1d1b;fill-opacity:1;fill-rule:evenodd;stroke:none"
             id="path7243" /></g><g
           id="g7245"
           transform="translate(16.7363,42.0217)"><path
             d="M 0,0 C 0,0.282 0.229,0.511 0.51,0.51 0.792,0.511 1.021,0.281 1.021,0 1.021,-0.282 0.793,-0.511 0.511,-0.511 0.23,-0.511 0,-0.281 0,0"
             style="fill:#1d1d1b;fill-opacity:1;fill-rule:evenodd;stroke:none"
             id="path7247" /></g><g
           id="g7249"
           transform="translate(18.7412,44.0266)"><path
             d="m 0,0 c -0.001,0.282 0.228,0.511 0.511,0.511 0.281,0 0.51,-0.231 0.51,-0.512 0,-0.281 -0.229,-0.51 -0.51,-0.51 C 0.23,-0.511 -0.001,-0.282 0,0"
             style="fill:#1d1d1b;fill-opacity:1;fill-rule:evenodd;stroke:none"
             id="path7251" /></g><g
           id="g7253"
           transform="translate(20.7461,46.0314)"><path
             d="m 0,0 c 0,0.281 0.229,0.51 0.51,0.51 0.281,0 0.511,-0.229 0.511,-0.511 0,-0.282 -0.228,-0.511 -0.511,-0.511 C 0.229,-0.512 0,-0.281 0,0"
             style="fill:#1d1d1b;fill-opacity:1;fill-rule:evenodd;stroke:none"
             id="path7255" /></g><g
           id="g7257"
           transform="translate(22.75,48.0353)"><path
             d="m 0,0 c 0,0.282 0.229,0.511 0.511,0.511 0.281,0 0.51,-0.23 0.51,-0.511 0,-0.282 -0.228,-0.511 -0.509,-0.51 C 0.23,-0.511 0,-0.281 0,0"
             style="fill:#1d1d1b;fill-opacity:1;fill-rule:evenodd;stroke:none"
             id="path7259" /></g><g
           id="g7261"
           transform="translate(24.7549,50.0402)"><path
             d="m 0,0 c 0,0.282 0.229,0.511 0.511,0.511 0.281,0 0.51,-0.23 0.51,-0.512 0,-0.281 -0.228,-0.51 -0.51,-0.51 C 0.23,-0.511 0,-0.281 0,0"
             style="fill:#1d1d1b;fill-opacity:1;fill-rule:evenodd;stroke:none"
             id="path7263" /></g><g
           id="g7265"
           transform="translate(26.7598,52.0451)"><path
             d="M 0,0 C 0,0.281 0.229,0.51 0.51,0.51 0.791,0.51 1.021,0.281 1.021,0 1.021,-0.283 0.793,-0.512 0.511,-0.511 0.229,-0.512 0,-0.281 0,0"
             style="fill:#1d1d1b;fill-opacity:1;fill-rule:evenodd;stroke:none"
             id="path7267" /></g><g
           id="g7269"
           transform="translate(28.7637,54.049)"><path
             d="M 0,0 C 0,0.283 0.229,0.512 0.511,0.511 0.793,0.512 1.021,0.281 1.021,0 1.021,-0.281 0.793,-0.51 0.512,-0.51 0.23,-0.51 0,-0.281 0,0"
             style="fill:#1d1d1b;fill-opacity:1;fill-rule:evenodd;stroke:none"
             id="path7271" /></g><g
           id="g7273"
           transform="translate(0.6992,29.9943)"><path
             d="m 0,0 c 0,0.281 0.229,0.51 0.51,0.51 0.283,0 0.511,-0.229 0.511,-0.511 0,-0.281 -0.228,-0.51 -0.509,-0.511 C 0.229,-0.511 0,-0.281 0,0"
             style="fill:#1d1d1b;fill-opacity:1;fill-rule:evenodd;stroke:none"
             id="path7275" /></g><g
           id="g7277"
           transform="translate(2.7031,31.9982)"><path
             d="M 0,0 C 0.001,0.282 0.23,0.511 0.512,0.512 0.793,0.511 1.021,0.281 1.023,0 1.021,-0.281 0.793,-0.51 0.512,-0.511 0.23,-0.51 0.001,-0.281 0,0"
             style="fill:#1d1d1b;fill-opacity:1;fill-rule:evenodd;stroke:none"
             id="path7279" /></g><g
           id="g7281"
           transform="translate(4.709,34.0041)"><path
             d="m 0,0 c 0,0.281 0.229,0.51 0.51,0.51 0.282,0 0.511,-0.229 0.511,-0.512 0,-0.281 -0.229,-0.51 -0.51,-0.51 C 0.229,-0.512 0,-0.283 0,0"
             style="fill:#1d1d1b;fill-opacity:1;fill-rule:evenodd;stroke:none"
             id="path7283" /></g><g
           id="g7285"
           transform="translate(6.7129,36.008)"><path
             d="m 0,0 c 0,0.281 0.229,0.51 0.51,0.51 0.283,0 0.511,-0.229 0.511,-0.511 0,-0.281 -0.228,-0.51 -0.509,-0.511 C 0.229,-0.511 0,-0.281 0,0"
             style="fill:#1d1d1b;fill-opacity:1;fill-rule:evenodd;stroke:none"
             id="path7287" /></g><g
           id="g7289"
           transform="translate(8.7178,38.0129)"><path
             d="M 0,0 C 0,0.281 0.229,0.51 0.511,0.511 0.792,0.51 1.02,0.28 1.021,-0.001 1.02,-0.282 0.792,-0.511 0.511,-0.511 0.229,-0.511 0,-0.282 0,0"
             style="fill:#1d1d1b;fill-opacity:1;fill-rule:evenodd;stroke:none"
             id="path7291" /></g><g
           id="g7293"
           transform="translate(10.7227,40.0179)"><path
             d="m 0,0 c 0,0.281 0.229,0.51 0.51,0.51 0.282,0 0.511,-0.229 0.511,-0.512 0,-0.281 -0.228,-0.51 -0.51,-0.51 C 0.229,-0.512 0,-0.282 0,0"
             style="fill:#1d1d1b;fill-opacity:1;fill-rule:evenodd;stroke:none"
             id="path7295" /></g><g
           id="g7297"
           transform="translate(12.7266,42.0217)"><path
             d="M 0,0 C 0,0.281 0.229,0.51 0.511,0.511 0.793,0.51 1.021,0.281 1.021,0 1.021,-0.282 0.793,-0.511 0.512,-0.511 0.23,-0.511 0,-0.281 0,0"
             style="fill:#1d1d1b;fill-opacity:1;fill-rule:evenodd;stroke:none"
             id="path7299" /></g><g
           id="g7301"
           transform="translate(14.7314,44.0266)"><path
             d="m 0,0 c 0.001,0.282 0.23,0.511 0.511,0.511 0.281,0 0.51,-0.23 0.51,-0.512 0,-0.281 -0.228,-0.51 -0.51,-0.51 C 0.23,-0.511 0.001,-0.282 0,0"
             style="fill:#1d1d1b;fill-opacity:1;fill-rule:evenodd;stroke:none"
             id="path7303" /></g><g
           id="g7305"
           transform="translate(16.7363,46.0314)"><path
             d="m 0,0 c 0,0.281 0.229,0.51 0.51,0.51 0.282,0 0.511,-0.229 0.511,-0.511 0,-0.282 -0.228,-0.511 -0.509,-0.511 C 0.229,-0.512 0,-0.282 0,0"
             style="fill:#1d1d1b;fill-opacity:1;fill-rule:evenodd;stroke:none"
             id="path7307" /></g><g
           id="g7309"
           transform="translate(18.7402,48.0353)"><path
             d="m 0,0 c 0.001,0.282 0.229,0.511 0.511,0.511 0.282,0 0.51,-0.23 0.51,-0.511 0,-0.281 -0.228,-0.51 -0.509,-0.511 C 0.23,-0.51 0.001,-0.281 0,0"
             style="fill:#1d1d1b;fill-opacity:1;fill-rule:evenodd;stroke:none"
             id="path7311" /></g><g
           id="g7313"
           transform="translate(20.7461,50.0412)"><path
             d="m 0,0 c 0,0.281 0.229,0.51 0.51,0.51 0.281,0 0.511,-0.23 0.511,-0.512 0,-0.281 -0.229,-0.51 -0.51,-0.51 C 0.229,-0.512 0,-0.283 0,0"
             style="fill:#1d1d1b;fill-opacity:1;fill-rule:evenodd;stroke:none"
             id="path7315" /></g><g
           id="g7317"
           transform="translate(22.75,52.0451)"><path
             d="m 0,0 c 0,0.281 0.229,0.51 0.51,0.51 0.283,0 0.511,-0.229 0.511,-0.511 0,-0.281 -0.228,-0.51 -0.509,-0.511 C 0.23,-0.511 0,-0.281 0,0"
             style="fill:#1d1d1b;fill-opacity:1;fill-rule:evenodd;stroke:none"
             id="path7319" /></g><g
           id="g7321"
           transform="translate(24.7549,54.05)"><path
             d="m 0,0 c 0,0.281 0.229,0.51 0.511,0.511 0.281,-0.001 0.51,-0.231 0.51,-0.512 0,-0.281 -0.229,-0.51 -0.51,-0.51 C 0.23,-0.511 0,-0.282 0,0"
             style="fill:#1d1d1b;fill-opacity:1;fill-rule:evenodd;stroke:none"
             id="path7323" /></g><g
           id="g7325"
           transform="translate(0.6992,34.0031)"><path
             d="m 0,0 c 0,0.282 0.229,0.511 0.511,0.511 0.281,0 0.51,-0.23 0.51,-0.511 0,-0.282 -0.228,-0.511 -0.51,-0.511 C 0.229,-0.511 0,-0.281 0,0"
             style="fill:#1d1d1b;fill-opacity:1;fill-rule:evenodd;stroke:none"
             id="path7327" /></g><g
           id="g7329"
           transform="translate(2.7041,36.008)"><path
             d="M 0,0 C -0.001,0.281 0.229,0.511 0.511,0.51 0.792,0.511 1.021,0.281 1.02,0 1.021,-0.282 0.792,-0.512 0.511,-0.511 0.229,-0.512 -0.001,-0.281 0,0"
             style="fill:#1d1d1b;fill-opacity:1;fill-rule:evenodd;stroke:none"
             id="path7331" /></g><g
           id="g7333"
           transform="translate(4.709,38.0119)"><path
             d="M 0,0 C 0,0.283 0.229,0.512 0.51,0.511 0.791,0.512 1.021,0.281 1.021,0 1.021,-0.281 0.793,-0.51 0.51,-0.51 0.229,-0.51 0,-0.281 0,0"
             style="fill:#1d1d1b;fill-opacity:1;fill-rule:evenodd;stroke:none"
             id="path7335" /></g><g
           id="g7337"
           transform="translate(6.7129,40.0179)"><path
             d="m 0,0 c 0,0.281 0.229,0.51 0.511,0.51 0.281,0 0.51,-0.23 0.51,-0.511 0,-0.282 -0.228,-0.511 -0.509,-0.511 C 0.229,-0.512 0,-0.282 0,0"
             style="fill:#1d1d1b;fill-opacity:1;fill-rule:evenodd;stroke:none"
             id="path7339" /></g><g
           id="g7341"
           transform="translate(8.7178,42.0217)"><path
             d="M 0,0 C 0,0.282 0.229,0.511 0.511,0.51 0.792,0.511 1.021,0.281 1.02,0 1.021,-0.282 0.793,-0.511 0.511,-0.511 0.229,-0.511 0,-0.281 0,0"
             style="fill:#1d1d1b;fill-opacity:1;fill-rule:evenodd;stroke:none"
             id="path7343" /></g><g
           id="g7345"
           transform="translate(10.7227,44.0266)"><path
             d="m 0,0 c 0,0.282 0.229,0.511 0.51,0.511 0.281,0 0.511,-0.231 0.511,-0.512 0,-0.281 -0.228,-0.51 -0.51,-0.51 C 0.229,-0.511 0,-0.282 0,0"
             style="fill:#1d1d1b;fill-opacity:1;fill-rule:evenodd;stroke:none"
             id="path7347" /></g><g
           id="g7349"
           transform="translate(12.7266,46.0314)"><path
             d="m 0,0 c 0,0.281 0.229,0.51 0.511,0.51 0.282,0 0.51,-0.229 0.51,-0.511 0,-0.282 -0.228,-0.511 -0.509,-0.511 C 0.23,-0.512 0,-0.281 0,0"
             style="fill:#1d1d1b;fill-opacity:1;fill-rule:evenodd;stroke:none"
             id="path7351" /></g><g
           id="g7353"
           transform="translate(14.7324,48.0353)"><path
             d="M 0,0 C -0.001,0.282 0.228,0.511 0.51,0.511 0.791,0.511 1.02,0.281 1.02,0 1.02,-0.282 0.792,-0.511 0.51,-0.51 0.229,-0.511 -0.001,-0.281 0,0"
             style="fill:#1d1d1b;fill-opacity:1;fill-rule:evenodd;stroke:none"
             id="path7355" /></g><g
           id="g7357"
           transform="translate(16.7363,50.0402)"><path
             d="m 0,0 c 0,0.282 0.229,0.511 0.51,0.511 0.282,0 0.511,-0.23 0.511,-0.512 0,-0.281 -0.228,-0.51 -0.51,-0.51 C 0.23,-0.511 0,-0.281 0,0"
             style="fill:#1d1d1b;fill-opacity:1;fill-rule:evenodd;stroke:none"
             id="path7359" /></g><g
           id="g7361"
           transform="translate(18.7412,52.0451)"><path
             d="m 0,0 c -0.001,0.281 0.228,0.51 0.511,0.51 0.281,0 0.51,-0.229 0.51,-0.51 0,-0.283 -0.229,-0.512 -0.51,-0.511 C 0.23,-0.512 -0.001,-0.281 0,0"
             style="fill:#1d1d1b;fill-opacity:1;fill-rule:evenodd;stroke:none"
             id="path7363" /></g><g
           id="g7365"
           transform="translate(20.7461,54.049)"><path
             d="M 0,0 C 0,0.283 0.229,0.512 0.51,0.511 0.791,0.512 1.021,0.281 1.021,0 1.021,-0.281 0.793,-0.51 0.51,-0.51 0.229,-0.51 0,-0.281 0,0"
             style="fill:#1d1d1b;fill-opacity:1;fill-rule:evenodd;stroke:none"
             id="path7367" /></g><g
           id="g7369"
           transform="translate(0.6992,38.0129)"><path
             d="m 0,0 c 0,0.281 0.229,0.511 0.51,0.511 0.283,0 0.511,-0.23 0.511,-0.512 0,-0.281 -0.228,-0.51 -0.509,-0.51 C 0.229,-0.511 0,-0.282 0,0"
             style="fill:#1d1d1b;fill-opacity:1;fill-rule:evenodd;stroke:none"
             id="path7371" /></g><g
           id="g7373"
           transform="translate(2.7031,40.0179)"><path
             d="m 0,0 c 0.001,0.281 0.23,0.51 0.511,0.51 0.282,0 0.51,-0.229 0.51,-0.512 0,-0.281 -0.228,-0.51 -0.509,-0.51 C 0.23,-0.512 0.001,-0.282 0,0"
             style="fill:#1d1d1b;fill-opacity:1;fill-rule:evenodd;stroke:none"
             id="path7375" /></g><g
           id="g7377"
           transform="translate(4.709,42.0217)"><path
             d="M 0,0 C 0,0.281 0.229,0.51 0.51,0.511 0.791,0.51 1.021,0.281 1.021,0 1.021,-0.282 0.792,-0.511 0.511,-0.511 0.229,-0.511 0,-0.281 0,0"
             style="fill:#1d1d1b;fill-opacity:1;fill-rule:evenodd;stroke:none"
             id="path7379" /></g><g
           id="g7381"
           transform="translate(6.7129,44.0266)"><path
             d="m 0,0 c 0,0.282 0.229,0.511 0.51,0.511 0.283,0 0.511,-0.23 0.511,-0.512 0,-0.281 -0.228,-0.51 -0.509,-0.51 C 0.229,-0.511 0,-0.282 0,0"
             style="fill:#1d1d1b;fill-opacity:1;fill-rule:evenodd;stroke:none"
             id="path7383" /></g><g
           id="g7385"
           transform="translate(8.7178,46.0314)"><path
             d="M 0,0 C 0,0.281 0.229,0.51 0.511,0.51 0.792,0.51 1.02,0.281 1.021,-0.001 1.02,-0.283 0.792,-0.512 0.511,-0.512 0.229,-0.512 0,-0.282 0,0"
             style="fill:#1d1d1b;fill-opacity:1;fill-rule:evenodd;stroke:none"
             id="path7387" /></g><g
           id="g7389"
           transform="translate(10.7227,48.0353)"><path
             d="M 0,0 C 0,0.282 0.229,0.511 0.51,0.511 0.792,0.511 1.021,0.281 1.021,0 1.021,-0.281 0.793,-0.51 0.511,-0.511 0.229,-0.51 0,-0.281 0,0"
             style="fill:#1d1d1b;fill-opacity:1;fill-rule:evenodd;stroke:none"
             id="path7391" /></g><g
           id="g7393"
           transform="translate(12.7266,50.0412)"><path
             d="m 0,0 c 0,0.281 0.229,0.51 0.511,0.51 0.282,0 0.51,-0.23 0.51,-0.512 0,-0.281 -0.228,-0.51 -0.509,-0.51 C 0.23,-0.512 0,-0.283 0,0"
             style="fill:#1d1d1b;fill-opacity:1;fill-rule:evenodd;stroke:none"
             id="path7395" /></g><g
           id="g7397"
           transform="translate(14.7314,52.0451)"><path
             d="m 0,0 c 0.001,0.281 0.23,0.51 0.511,0.51 0.281,0 0.51,-0.229 0.51,-0.511 0,-0.281 -0.228,-0.51 -0.51,-0.511 C 0.23,-0.511 0.001,-0.281 0,0"
             style="fill:#1d1d1b;fill-opacity:1;fill-rule:evenodd;stroke:none"
             id="path7399" /></g><g
           id="g7401"
           transform="translate(16.7363,54.05)"><path
             d="M 0,0 C 0,0.281 0.229,0.51 0.51,0.511 0.792,0.51 1.021,0.28 1.021,-0.001 1.021,-0.282 0.793,-0.511 0.512,-0.511 0.229,-0.511 0,-0.282 0,0"
             style="fill:#1d1d1b;fill-opacity:1;fill-rule:evenodd;stroke:none"
             id="path7403" /></g><g
           id="g7405"
           transform="translate(0.6992,42.0217)"><path
             d="M 0,0 C 0,0.282 0.229,0.511 0.51,0.51 0.792,0.511 1.021,0.281 1.021,0 1.021,-0.282 0.793,-0.511 0.511,-0.511 0.229,-0.511 0,-0.281 0,0"
             style="fill:#1d1d1b;fill-opacity:1;fill-rule:evenodd;stroke:none"
             id="path7407" /></g><g
           id="g7409"
           transform="translate(2.7041,44.0266)"><path
             d="m 0,0 c -0.001,0.282 0.227,0.511 0.511,0.511 0.281,0 0.509,-0.231 0.509,-0.512 0,-0.281 -0.228,-0.51 -0.509,-0.51 C 0.229,-0.511 -0.001,-0.282 0,0"
             style="fill:#1d1d1b;fill-opacity:1;fill-rule:evenodd;stroke:none"
             id="path7411" /></g><g
           id="g7413"
           transform="translate(4.709,46.0314)"><path
             d="m 0,0 c 0,0.281 0.229,0.51 0.51,0.51 0.281,0 0.511,-0.229 0.511,-0.511 0,-0.282 -0.228,-0.511 -0.511,-0.511 C 0.229,-0.512 0,-0.281 0,0"
             style="fill:#1d1d1b;fill-opacity:1;fill-rule:evenodd;stroke:none"
             id="path7415" /></g><g
           id="g7417"
           transform="translate(6.7129,48.0353)"><path
             d="m 0,0 c 0,0.282 0.229,0.511 0.511,0.511 0.281,0 0.51,-0.23 0.51,-0.511 0,-0.282 -0.228,-0.511 -0.509,-0.51 C 0.229,-0.511 0,-0.281 0,0"
             style="fill:#1d1d1b;fill-opacity:1;fill-rule:evenodd;stroke:none"
             id="path7419" /></g><g
           id="g7421"
           transform="translate(8.7178,50.0402)"><path
             d="m 0,0 c 0,0.282 0.229,0.511 0.511,0.511 0.281,0 0.51,-0.23 0.509,-0.512 C 1.021,-0.282 0.793,-0.511 0.511,-0.511 0.229,-0.511 0,-0.281 0,0"
             style="fill:#1d1d1b;fill-opacity:1;fill-rule:evenodd;stroke:none"
             id="path7423" /></g><g
           id="g7425"
           transform="translate(10.7227,52.0451)"><path
             d="M 0,0 C 0,0.281 0.229,0.51 0.51,0.51 0.791,0.51 1.021,0.281 1.021,0 1.021,-0.283 0.793,-0.512 0.511,-0.511 0.229,-0.512 0,-0.281 0,0"
             style="fill:#1d1d1b;fill-opacity:1;fill-rule:evenodd;stroke:none"
             id="path7427" /></g><g
           id="g7429"
           transform="translate(12.7266,54.049)"><path
             d="M 0,0 C 0,0.283 0.229,0.512 0.511,0.511 0.793,0.512 1.021,0.281 1.021,0 1.021,-0.281 0.793,-0.51 0.512,-0.51 0.23,-0.51 0,-0.281 0,0"
             style="fill:#1d1d1b;fill-opacity:1;fill-rule:evenodd;stroke:none"
             id="path7431" /></g><g
           id="g7433"
           transform="translate(0.6992,46.0314)"><path
             d="m 0,0 c 0,0.281 0.229,0.51 0.51,0.51 0.282,0 0.511,-0.229 0.511,-0.511 0,-0.282 -0.228,-0.511 -0.509,-0.511 C 0.229,-0.512 0,-0.282 0,0"
             style="fill:#1d1d1b;fill-opacity:1;fill-rule:evenodd;stroke:none"
             id="path7435" /></g><g
           id="g7437"
           transform="translate(2.7031,48.0353)"><path
             d="m 0,0 c 0.001,0.282 0.23,0.511 0.511,0.511 0.282,0 0.51,-0.23 0.51,-0.511 0,-0.281 -0.228,-0.51 -0.509,-0.511 C 0.23,-0.51 0.001,-0.281 0,0"
             style="fill:#1d1d1b;fill-opacity:1;fill-rule:evenodd;stroke:none"
             id="path7439" /></g><g
           id="g7441"
           transform="translate(4.709,50.0412)"><path
             d="m 0,0 c 0,0.281 0.229,0.51 0.51,0.51 0.281,0 0.511,-0.23 0.511,-0.512 0,-0.281 -0.229,-0.51 -0.51,-0.51 C 0.229,-0.512 0,-0.283 0,0"
             style="fill:#1d1d1b;fill-opacity:1;fill-rule:evenodd;stroke:none"
             id="path7443" /></g><g
           id="g7445"
           transform="translate(6.7129,52.0451)"><path
             d="m 0,0 c 0,0.281 0.229,0.51 0.51,0.51 0.283,0 0.511,-0.229 0.511,-0.511 0,-0.281 -0.228,-0.51 -0.509,-0.511 C 0.229,-0.511 0,-0.281 0,0"
             style="fill:#1d1d1b;fill-opacity:1;fill-rule:evenodd;stroke:none"
             id="path7447" /></g><g
           id="g7449"
           transform="translate(8.7178,54.05)"><path
             d="M 0,0 C 0,0.281 0.229,0.51 0.511,0.511 0.792,0.51 1.02,0.28 1.021,-0.001 1.02,-0.282 0.792,-0.511 0.511,-0.511 0.229,-0.511 0,-0.282 0,0"
             style="fill:#1d1d1b;fill-opacity:1;fill-rule:evenodd;stroke:none"
             id="path7451" /></g><g
           id="g7453"
           transform="translate(0.6992,50.0402)"><path
             d="m 0,0 c 0,0.282 0.229,0.511 0.51,0.511 0.282,0 0.511,-0.23 0.511,-0.512 0,-0.281 -0.228,-0.51 -0.51,-0.51 C 0.229,-0.511 0,-0.281 0,0"
             style="fill:#1d1d1b;fill-opacity:1;fill-rule:evenodd;stroke:none"
             id="path7455" /></g><g
           id="g7457"
           transform="translate(2.7041,52.0451)"><path
             d="M 0,0 C -0.001,0.281 0.227,0.51 0.511,0.51 0.792,0.51 1.02,0.281 1.02,0 1.02,-0.283 0.792,-0.512 0.511,-0.511 0.229,-0.512 -0.001,-0.281 0,0"
             style="fill:#1d1d1b;fill-opacity:1;fill-rule:evenodd;stroke:none"
             id="path7459" /></g><g
           id="g7461"
           transform="translate(4.709,54.049)"><path
             d="M 0,0 C 0,0.283 0.229,0.512 0.51,0.511 0.791,0.512 1.021,0.281 1.021,0 1.021,-0.281 0.793,-0.51 0.51,-0.51 0.229,-0.51 0,-0.281 0,0"
             style="fill:#1d1d1b;fill-opacity:1;fill-rule:evenodd;stroke:none"
             id="path7463" /></g><g
           id="g7465"
           transform="translate(0.6992,54.05)"><path
             d="M 0,0 C 0,0.281 0.229,0.51 0.51,0.511 0.792,0.51 1.021,0.28 1.021,-0.001 1.021,-0.282 0.793,-0.511 0.512,-0.511 0.229,-0.511 0,-0.282 0,0"
             style="fill:#1d1d1b;fill-opacity:1;fill-rule:evenodd;stroke:none"
             id="path7467" /></g></g></g><path
       d="m 26.485,4.819 h 5.668 v 5.67 h -5.668 z"
       style="fill:#fedda4;fill-opacity:1;fill-rule:nonzero;stroke:none"
       id="path7469" /><g
       id="g7471"><g
         id="g7473"
         clip-path="url(#clipPath7477)"><g
           id="g7479"
           transform="translate(30.8145,3.7141)"><path
             d="M 0,0 C 0,0.283 0.229,0.512 0.51,0.511 0.791,0.512 1.021,0.281 1.021,0 1.021,-0.281 0.793,-0.51 0.51,-0.51 0.229,-0.51 0,-0.281 0,0"
             style="fill:#1d1d1b;fill-opacity:1;fill-rule:evenodd;stroke:none"
             id="path7481" /></g><g
           id="g7483"
           transform="translate(32.8184,5.7199)"><path
             d="m 0,0 c 0,0.281 0.229,0.51 0.511,0.51 0.281,0 0.51,-0.23 0.51,-0.511 0,-0.282 -0.228,-0.511 -0.509,-0.511 C 0.229,-0.512 0,-0.282 0,0"
             style="fill:#1d1d1b;fill-opacity:1;fill-rule:evenodd;stroke:none"
             id="path7485" /></g><g
           id="g7487"
           transform="translate(26.8047,3.715)"><path
             d="m 0,0 c 0,0.281 0.229,0.511 0.51,0.511 0.283,0 0.511,-0.23 0.511,-0.512 0,-0.281 -0.228,-0.51 -0.509,-0.51 C 0.229,-0.511 0,-0.282 0,0"
             style="fill:#1d1d1b;fill-opacity:1;fill-rule:evenodd;stroke:none"
             id="path7489" /></g><g
           id="g7491"
           transform="translate(28.8086,5.7199)"><path
             d="m 0,0 c 0.001,0.281 0.23,0.51 0.511,0.51 0.282,0 0.51,-0.229 0.51,-0.512 0,-0.281 -0.228,-0.51 -0.509,-0.51 C 0.231,-0.512 0.001,-0.282 0,0"
             style="fill:#1d1d1b;fill-opacity:1;fill-rule:evenodd;stroke:none"
             id="path7493" /></g><g
           id="g7495"
           transform="translate(30.8145,7.7238)"><path
             d="M 0,0 C 0,0.281 0.229,0.51 0.51,0.511 0.791,0.51 1.021,0.281 1.021,0 1.021,-0.282 0.792,-0.511 0.511,-0.511 0.229,-0.511 0,-0.281 0,0"
             style="fill:#1d1d1b;fill-opacity:1;fill-rule:evenodd;stroke:none"
             id="path7497" /></g><g
           id="g7499"
           transform="translate(32.8184,9.7287)"><path
             d="m 0,0 c 0,0.282 0.229,0.511 0.51,0.511 0.283,0 0.511,-0.23 0.511,-0.512 0,-0.281 -0.228,-0.51 -0.509,-0.51 C 0.229,-0.511 0,-0.282 0,0"
             style="fill:#1d1d1b;fill-opacity:1;fill-rule:evenodd;stroke:none"
             id="path7501" /></g><g
           id="g7503"
           transform="translate(24.8008,5.7199)"><path
             d="m 0,0 c -0.001,0.281 0.229,0.51 0.51,0.51 0.281,0 0.511,-0.229 0.511,-0.511 0,-0.282 -0.229,-0.511 -0.511,-0.511 -0.281,0 -0.511,0.23 -0.51,0.512"
             style="fill:#1d1d1b;fill-opacity:1;fill-rule:evenodd;stroke:none"
             id="path7505" /></g><g
           id="g7507"
           transform="translate(26.8047,7.7238)"><path
             d="M 0,0 C 0,0.282 0.229,0.511 0.51,0.51 0.792,0.511 1.021,0.281 1.021,0 1.021,-0.282 0.793,-0.511 0.511,-0.511 0.229,-0.511 0,-0.281 0,0"
             style="fill:#1d1d1b;fill-opacity:1;fill-rule:evenodd;stroke:none"
             id="path7509" /></g><g
           id="g7511"
           transform="translate(28.8096,9.7287)"><path
             d="m 0,0 c -0.001,0.282 0.227,0.511 0.511,0.511 0.281,0 0.509,-0.231 0.509,-0.512 0,-0.281 -0.228,-0.51 -0.509,-0.51 C 0.23,-0.511 -0.001,-0.282 0,0"
             style="fill:#1d1d1b;fill-opacity:1;fill-rule:evenodd;stroke:none"
             id="path7513" /></g><g
           id="g7515"
           transform="translate(24.7998,9.7287)"><path
             d="m 0,0 c 0.001,0.282 0.229,0.511 0.511,0.511 0.281,0 0.51,-0.23 0.51,-0.512 0,-0.281 -0.228,-0.51 -0.51,-0.51 C 0.229,-0.511 0.001,-0.282 0,0"
             style="fill:#1d1d1b;fill-opacity:1;fill-rule:evenodd;stroke:none"
             id="path7517" /></g></g></g><g
       id="g7519"><g
         id="g7521"
         clip-path="url(#clipPath7525)"><text
           transform="matrix(1,0,0,-1,52.2816,30.6832)"
           style="font-variant:normal;font-weight:normal;font-stretch:semi-condensed;font-size:6.9997px;font-family:'Arial Narrow';-inkscape-font-specification:ArialNarrow;writing-mode:lr-tb;fill:#e30613;fill-opacity:1;fill-rule:nonzero;stroke:none"
           id="text7529"><tspan
             x="0 3.1918633 4.7877946 7.9796581 9.5755892 11.486507 15.63033 19.774153"
             y="0"
             sodipodi:role="line"
             id="tspan7527">0.5 (CC)</tspan></text><text
           transform="matrix(1,0,0,-1,51.623628,57.611046)"
           style="font-variant:normal;font-weight:normal;font-stretch:normal;font-size:6.9997px;font-family:Arial;-inkscape-font-specification:ArialMT;writing-mode:lr-tb;fill:#e30613;fill-opacity:1;fill-rule:nonzero;stroke:none"
           id="text7533"><tspan
             x="0"
             y="0"
             id="tspan7531">ø</tspan></text><text
           transform="matrix(1,0,0,-1,57.496376,57.611046)"
           style="font-variant:normal;font-weight:normal;font-stretch:semi-condensed;font-size:6.9997px;font-family:'Arial Narrow';-inkscape-font-specification:ArialNarrow;writing-mode:lr-tb;fill:#e30613;fill-opacity:1;fill-rule:nonzero;stroke:none"
           id="text7537"><tspan
             x="0 3.1918633 4.7877946 7.9796581"
             y="0"
             sodipodi:role="line"
             id="tspan7535">0.18</tspan></text></g></g><g
       id="g7539"
       transform="translate(44.3516,52.9094)"><path
         d="M 0,0 5.904,5.686"
         style="fill:none;stroke:#e30613;stroke-width:0.283;stroke-linecap:butt;stroke-linejoin:miter;stroke-miterlimit:22.926;stroke-dasharray:none;stroke-opacity:1"
         id="path7541" /></g><g
       id="g7543"
       transform="translate(47.7354,39.1457)"><path
         d="M 0,0 3.976,-3.974"
         style="fill:none;stroke:#e30613;stroke-width:0.283;stroke-linecap:butt;stroke-linejoin:miter;stroke-miterlimit:22.926;stroke-dasharray:none;stroke-opacity:1"
         id="path7545" /></g><g
       id="g7547"
       transform="translate(47.7354,35.1721)"><path
         d="M 0,0 3.976,-3.976"
         style="fill:none;stroke:#e30613;stroke-width:0.283;stroke-linecap:butt;stroke-linejoin:miter;stroke-miterlimit:22.926;stroke-dasharray:none;stroke-opacity:1"
         id="path7549" /></g><text
       transform="matrix(1,0,0,-1,25.0205,19.524)"
       style="font-variant:normal;font-weight:normal;font-stretch:semi-condensed;font-size:6.9997px;font-family:'Arial Narrow';-inkscape-font-specification:ArialNarrow;writing-mode:lr-tb;fill:#e30613;fill-opacity:1;fill-rule:nonzero;stroke:none"
       id="text7553"><tspan
         x="0 3.1918633 6.3837266"
         y="0"
         sodipodi:role="line"
         id="tspan7551">45º</tspan></text><g
       id="g7555"
       transform="translate(31.6553,28.2238)"><path
         d="M 0,0 -2.338,-2.338 H 0"
         style="fill:none;stroke:#e30613;stroke-width:0.283;stroke-linecap:butt;stroke-linejoin:miter;stroke-miterlimit:22.926;stroke-dasharray:none;stroke-opacity:1"
         id="path7557" /></g><g
       id="g7559"><g
         id="g7561"
         clip-path="url(#clipPath7565)"><path
           d="M 7.086,14.74 H 38.267 V 0.567 H 7.086 Z"
           style="fill:none;stroke:#312783;stroke-width:1.134;stroke-linecap:butt;stroke-linejoin:miter;stroke-miterlimit:22.926;stroke-dasharray:none;stroke-opacity:1"
           id="path7567" /></g></g><text
       transform="matrix(1,0,0,-1,11.6585,5.2661)"
       style="font-variant:normal;font-weight:normal;font-stretch:semi-condensed;font-size:6.9997px;font-family:'Arial Narrow';-inkscape-font-specification:ArialNarrow;writing-mode:lr-tb;fill:#e30613;fill-opacity:1;fill-rule:nonzero;stroke:none"
       id="text7571"><tspan
         x="0 4.7807951 6.0547404 9.246604"
         y="0"
         sodipodi:role="line"
         id="tspan7569">min.</tspan></text></g></svg>
