<?xml version="1.0" encoding="UTF-8" standalone="no"?>
<!-- Created with Inkscape (http://www.inkscape.org/) -->

<svg
   version="1.1"
   id="svg18434"
   xml:space="preserve"
   width="102.30493"
   height="68.362"
   viewBox="0 0 102.30493 68.362"
   sodipodi:docname="ISSprOM 307 Uncrossable marsh.svg"
   inkscape:version="1.1.1 (3bf5ae0d25, 2021-09-20)"
   xmlns:inkscape="http://www.inkscape.org/namespaces/inkscape"
   xmlns:sodipodi="http://sodipodi.sourceforge.net/DTD/sodipodi-0.dtd"
   xmlns="http://www.w3.org/2000/svg"
   xmlns:svg="http://www.w3.org/2000/svg"><defs
     id="defs18438"><clipPath
       clipPathUnits="userSpaceOnUse"
       id="clipPath18452"><path
         d="m 30.096,48.59 c -0.009,-1.001 -0.144,-2.088 -1.44,-3.744 v 0 c -1.297,-1.656 -6.048,-1.944 -9.36,-4.608 v 0 C 15.983,37.574 20.16,30.086 22.103,26.486 v 0 c 1.945,-3.6 4.105,-4.609 7.057,-4.752 v 0 c 2.952,-0.144 6.84,5.544 10.655,9.143 v 0 c 3.817,3.601 5.257,2.665 9.504,4.105 v 0 c 4.249,1.44 5.761,4.464 6.049,6.912 v 0 c 0.288,2.448 -3.599,2.952 -6.912,3.456 v 0 c -3.313,0.504 -4.896,1.152 -8.137,2.736 v 0 c -3.239,1.584 -3.96,2.447 -7.416,2.664 v 0 c -0.126,0.007 -0.245,0.011 -0.36,0.011 v 0 c -2.122,0 -2.438,-1.222 -2.447,-2.171"
         id="path18450" /></clipPath><clipPath
       clipPathUnits="userSpaceOnUse"
       id="clipPath18504"><path
         d="M 0,51.272 H 76.729 V 0 H 0 Z"
         id="path18502" /></clipPath><clipPath
       clipPathUnits="userSpaceOnUse"
       id="clipPath18538"><path
         d="M 0,51.272 H 76.729 V 0 H 0 Z"
         id="path18536" /></clipPath></defs><sodipodi:namedview
     id="namedview18436"
     pagecolor="#ffffff"
     bordercolor="#666666"
     borderopacity="1.0"
     inkscape:pageshadow="2"
     inkscape:pageopacity="0.0"
     inkscape:pagecheckerboard="0"
     showgrid="false"
     inkscape:zoom="11.016087"
     inkscape:cx="51.152466"
     inkscape:cy="34.177291"
     inkscape:window-width="1920"
     inkscape:window-height="1017"
     inkscape:window-x="-8"
     inkscape:window-y="-8"
     inkscape:window-maximized="1"
     inkscape:current-layer="g18440" /><g
     id="g18440"
     inkscape:groupmode="layer"
     inkscape:label="ISSprOM 307 Uncrossable marsh"
     transform="matrix(1.3333333,0,0,-1.3333333,0,68.362)"><g
       id="g18442"
       transform="translate(0,38.0952)"><path
         d="m 0,0 h 2.171 v -9.849 h 2.17 V 0 h 2.17 L 3.272,6.284 Z"
         style="fill:#e30613;fill-opacity:1;fill-rule:nonzero;stroke:none"
         id="path18444" /></g><g
       id="g18446"><g
         id="g18448"
         clip-path="url(#clipPath18452)"><g
           id="g18454"
           transform="translate(16.4883,49.2524)"><path
             d="M 0,0 H 40.535"
             style="fill:none;stroke:#099cd8;stroke-width:1.417;stroke-linecap:butt;stroke-linejoin:miter;stroke-miterlimit:22.926;stroke-dasharray:none;stroke-opacity:1"
             id="path18456" /></g><g
           id="g18458"
           transform="translate(16.4883,46.4184)"><path
             d="M 0,0 H 40.535"
             style="fill:none;stroke:#099cd8;stroke-width:1.417;stroke-linecap:butt;stroke-linejoin:miter;stroke-miterlimit:22.926;stroke-dasharray:none;stroke-opacity:1"
             id="path18460" /></g><g
           id="g18462"
           transform="translate(16.4883,43.5834)"><path
             d="M 0,0 H 40.535"
             style="fill:none;stroke:#099cd8;stroke-width:1.417;stroke-linecap:butt;stroke-linejoin:miter;stroke-miterlimit:22.926;stroke-dasharray:none;stroke-opacity:1"
             id="path18464" /></g><g
           id="g18466"
           transform="translate(16.4883,40.7485)"><path
             d="M 0,0 H 40.535"
             style="fill:none;stroke:#099cd8;stroke-width:1.417;stroke-linecap:butt;stroke-linejoin:miter;stroke-miterlimit:22.926;stroke-dasharray:none;stroke-opacity:1"
             id="path18468" /></g><g
           id="g18470"
           transform="translate(16.4883,37.9145)"><path
             d="M 0,0 H 40.535"
             style="fill:none;stroke:#099cd8;stroke-width:1.417;stroke-linecap:butt;stroke-linejoin:miter;stroke-miterlimit:22.926;stroke-dasharray:none;stroke-opacity:1"
             id="path18472" /></g><g
           id="g18474"
           transform="translate(16.4883,35.0795)"><path
             d="M 0,0 H 40.535"
             style="fill:none;stroke:#099cd8;stroke-width:1.417;stroke-linecap:butt;stroke-linejoin:miter;stroke-miterlimit:22.926;stroke-dasharray:none;stroke-opacity:1"
             id="path18476" /></g><g
           id="g18478"
           transform="translate(16.4883,32.2446)"><path
             d="M 0,0 H 40.535"
             style="fill:none;stroke:#099cd8;stroke-width:1.417;stroke-linecap:butt;stroke-linejoin:miter;stroke-miterlimit:22.926;stroke-dasharray:none;stroke-opacity:1"
             id="path18480" /></g><g
           id="g18482"
           transform="translate(16.4883,29.4106)"><path
             d="M 0,0 H 40.535"
             style="fill:none;stroke:#099cd8;stroke-width:1.417;stroke-linecap:butt;stroke-linejoin:miter;stroke-miterlimit:22.926;stroke-dasharray:none;stroke-opacity:1"
             id="path18484" /></g><g
           id="g18486"
           transform="translate(16.4883,26.5756)"><path
             d="M 0,0 H 40.535"
             style="fill:none;stroke:#099cd8;stroke-width:1.417;stroke-linecap:butt;stroke-linejoin:miter;stroke-miterlimit:22.926;stroke-dasharray:none;stroke-opacity:1"
             id="path18488" /></g><g
           id="g18490"
           transform="translate(16.4883,23.7407)"><path
             d="M 0,0 H 40.535"
             style="fill:none;stroke:#099cd8;stroke-width:1.417;stroke-linecap:butt;stroke-linejoin:miter;stroke-miterlimit:22.926;stroke-dasharray:none;stroke-opacity:1"
             id="path18492" /></g><g
           id="g18494"
           transform="translate(16.4883,20.9057)"><path
             d="M 0,0 H 40.535"
             style="fill:none;stroke:#099cd8;stroke-width:1.417;stroke-linecap:butt;stroke-linejoin:miter;stroke-miterlimit:22.926;stroke-dasharray:none;stroke-opacity:1"
             id="path18496" /></g></g></g><g
       id="g18498"><g
         id="g18500"
         clip-path="url(#clipPath18504)"><g
           id="g18506"
           transform="translate(30.0957,48.5903)"><path
             d="m 0,0 c 0.01,1 0.36,2.304 2.808,2.16 3.456,-0.217 4.176,-1.08 7.416,-2.664 3.24,-1.584 4.824,-2.232 8.136,-2.736 3.313,-0.504 7.201,-1.008 6.912,-3.456 -0.288,-2.449 -1.799,-5.472 -6.048,-6.912 -4.247,-1.44 -5.688,-0.504 -9.504,-4.105 -3.816,-3.599 -7.703,-9.287 -10.656,-9.144 -2.952,0.144 -5.112,1.153 -7.056,4.752 -1.944,3.601 -6.12,11.088 -2.808,13.752 3.313,2.664 8.064,2.953 9.361,4.609 C -0.144,-2.088 -0.009,-1.001 0,0 Z"
             style="fill:none;stroke:#1d1d1b;stroke-width:1.02;stroke-linecap:butt;stroke-linejoin:miter;stroke-miterlimit:22.926;stroke-dasharray:none;stroke-opacity:1"
             id="path18508" /></g><g
           id="g18510"
           transform="translate(39.5439,9.0035)"><path
             d="M 0,0 H 4.535"
             style="fill:none;stroke:#00a0dd;stroke-width:1.417;stroke-linecap:butt;stroke-linejoin:miter;stroke-miterlimit:22.926;stroke-dasharray:none;stroke-opacity:1"
             id="path18512" /></g><g
           id="g18514"
           transform="translate(39.5433,6.1695)"><path
             d="M 0,0 H 4.535"
             style="fill:none;stroke:#00a0dd;stroke-width:1.417;stroke-linecap:butt;stroke-linejoin:miter;stroke-miterlimit:22.926;stroke-dasharray:none;stroke-opacity:1"
             id="path18516" /></g><g
           id="g18518"
           transform="translate(41.8115,10.3644)"><path
             d="m 0,0 c 1.535,0 2.777,-1.244 2.777,-2.778 0,-1.534 -1.242,-2.778 -2.777,-2.778 -1.535,0 -2.778,1.244 -2.778,2.778 C -2.778,-1.244 -1.535,0 0,0 Z"
             style="fill:none;stroke:#00111e;stroke-width:1.02;stroke-linecap:butt;stroke-linejoin:miter;stroke-miterlimit:22.926;stroke-dasharray:none;stroke-opacity:1"
             id="path18520" /></g><text
           transform="matrix(1,0,0,-1,65.5562,35.1386)"
           style="font-variant:normal;font-weight:normal;font-stretch:semi-condensed;font-size:6.9997px;font-family:'Arial Narrow';-inkscape-font-specification:ArialNarrow;writing-mode:lr-tb;fill:#e30613;fill-opacity:1;fill-rule:nonzero;stroke:none"
           id="text18524"><tspan
             x="0 3.1918633 4.7877946 7.9796581"
             y="0"
             sodipodi:role="line"
             id="tspan18522">0.18</tspan></text></g></g><text
       transform="matrix(1,0,0,-1,50.7238,28.3077)"
       style="font-variant:normal;font-weight:normal;font-stretch:semi-condensed;font-size:6.9997px;font-family:'Arial Narrow';-inkscape-font-specification:ArialNarrow;writing-mode:lr-tb;fill:#e30613;fill-opacity:1;fill-rule:nonzero;stroke:none"
       id="text18530"><tspan
         x="0 3.1918633 4.7877946 7.9796581"
         y="0"
         sodipodi:role="line"
         id="tspan18526">0.50</tspan><tspan
         x="-45.624046 -42.432182 -40.83625 -37.644386"
         y="7.2166905"
         sodipodi:role="line"
         id="tspan18528">0.25</tspan></text><g
       id="g18532"><g
         id="g18534"
         clip-path="url(#clipPath18538)"><g
           id="g18540"
           transform="translate(63.6318,37.9399)"><path
             d="M 0,0 -8.093,3.946"
             style="fill:none;stroke:#e30613;stroke-width:0.283;stroke-linecap:butt;stroke-linejoin:miter;stroke-miterlimit:22.926;stroke-dasharray:none;stroke-opacity:1"
             id="path18542" /></g><g
           id="g18544"
           transform="translate(25.8623,26.4829)"><path
             d="M 0,0 -8.242,-3.165"
             style="fill:none;stroke:#e30613;stroke-width:0.283;stroke-linecap:butt;stroke-linejoin:miter;stroke-miterlimit:22.926;stroke-dasharray:none;stroke-opacity:1"
             id="path18546" /></g><g
           id="g18548"
           transform="translate(42.8652,32.2446)"><path
             d="M 0,0 H 6.049"
             style="fill:none;stroke:#e30613;stroke-width:0.283;stroke-linecap:butt;stroke-linejoin:miter;stroke-miterlimit:22.926;stroke-dasharray:none;stroke-opacity:1"
             id="path18550" /></g><g
           id="g18552"
           transform="translate(42.8652,29.4106)"><path
             d="M 0,0 H 6.048"
             style="fill:none;stroke:#e30613;stroke-width:0.283;stroke-linecap:butt;stroke-linejoin:miter;stroke-miterlimit:22.926;stroke-dasharray:none;stroke-opacity:1"
             id="path18554" /></g><path
           d="m 16.013,14.74 h 36.85 V 0.567 h -36.85 z"
           style="fill:none;stroke:#312783;stroke-width:1.134;stroke-linecap:butt;stroke-linejoin:miter;stroke-miterlimit:22.926;stroke-dasharray:none;stroke-opacity:1"
           id="path18556" /></g></g><text
       transform="matrix(1,0,0,-1,22.7788,5.4199)"
       style="font-variant:normal;font-weight:normal;font-stretch:semi-condensed;font-size:7px;font-family:'Arial Narrow';-inkscape-font-specification:ArialNarrow;writing-mode:lr-tb;fill:#e30613;fill-opacity:1;fill-rule:nonzero;stroke:none"
       id="text18560"><tspan
         x="0 4.7810001 6.0549998 9.2469997 10.843"
         y="0"
         sodipodi:role="line"
         id="tspan18558">min. </tspan></text></g></svg>
