<?xml version="1.0" standalone="no"?>
<!-- Generator: OCAD -->
<!DOCTYPE svg PUBLIC "-//W3C//DTD SVG 20010904//EN"
"http://www.w3.org/TR/2001/REC-SVG-20010904/DTD/svg10.dtd" [
<!ENTITY stR "stroke-linejoin:round;stroke-linecap:round">
<!ENTITY stB "stroke-linejoin:bevel">
]>
<svg id="mainMap" width="1.9110cm" height="1.3890cm" viewBox="0 0 19.1100 13.8900" style="fill:none;stroke-width:0;fill-rule:evenodd" xmlns:xlink="http://www.w3.org/1999/xlink" xmlns="http://www.w3.org/2000/svg" >
<desc>Map</desc>
<g id="scaleTransform" transform="scale(1.00000000)">
<g id="mainMapContent">
<!-- map fill color -->
<rect id="mapBg" x="-100%" y="-100%" width="200%" height="200%" fill="none" />
<g>
<clipPath id="Clip" fill="none" stroke="none">
<rect x="0" y="0" width="19.1100" height="13.8900" fill="none" />
</clipPath>
<g clip-path="url(#Clip)">
<g opacity="1.00">
</g>
<g opacity="1.00">
</g>
<g opacity="1.00">
</g>
<g opacity="1.00">
</g>
<g opacity="1.00">
</g>
<g opacity="1.00">
</g>
<g opacity="1.00">
</g>
<g opacity="1.00">
</g>
<g opacity="1.00">
</g>
<g opacity="1.00">
</g>
<g opacity="1.00">
</g>
<g opacity="1.00">
</g>
<g opacity="1.00">
</g>
<g opacity="1.00">
</g>
<g opacity="1.00">
</g>
<g opacity="1.00">
</g>
<g opacity="1.00">
</g>
<g opacity="1.00">
</g>
<g opacity="1.00">
</g>
<g opacity="1.00">
</g>
<g opacity="1.00">
<g id="315.000 hydrant 288" >
<g stroke="rgb(13,179,255)">
<g stroke-width="0.26"
style="&stR;"
>
<path 
d="M4.21,7.17
C4.21,7.82 4.73,8.34 5.38,8.34
C6.03,8.34 6.55,7.82 6.55,7.17
C6.55,6.52 6.03,6.00 5.38,6.00
C4.73,6.00 4.21,6.52 4.21,7.17
" />
</g>
<circle cx="5.38" cy="7.17" r="0.50" fill="rgb(13,179,255)" />
</g>
</g>
</g>
<g opacity="1.00">
</g>
<g opacity="1.00">
</g>
<g opacity="1.00">
</g>
<g opacity="1.00">
</g>
<g opacity="1.00">
</g>
<g opacity="1.00">
</g>
<g opacity="1.00">
</g>
<g opacity="1.00">
</g>
<g opacity="1.00">
</g>
<g opacity="1.00">
</g>
<g opacity="1.00">
</g>
<g opacity="1.00">
</g>
<g opacity="1.00">
</g>
<g opacity="1.00">
</g>
<g opacity="1.00">
</g>
<g opacity="1.00">
</g>
<g opacity="1.00">
</g>
<g opacity="1.00">
</g>
<g opacity="1.00">
</g>
<g opacity="1.00">
</g>
<g opacity="1.00">
</g>
<g opacity="1.00">
</g>
<g opacity="1.00">
</g>
<g opacity="1.00">
</g>
<g opacity="1.00">
</g>
<g opacity="1.00">
</g>
<g opacity="1.00">
</g>
<g opacity="1.00">
</g>
<g opacity="1.00">
</g>
<g opacity="1.00">
</g>
<g opacity="1.00">
</g>
<g opacity="1.00">
</g>
<g opacity="1.00">
</g>
<g opacity="1.00">
</g>
<g opacity="1.00">
</g>
<g opacity="1.00">
</g>
<g opacity="1.00">
</g>
<g opacity="1.00">
</g>
<g opacity="1.00">
</g>
<g opacity="1.00">
</g>
<g opacity="1.00">
</g>
<g opacity="1.00">
</g>
<g opacity="1.00">
</g>
<g opacity="1.00">
</g>
<g opacity="1.00">
</g>
<g opacity="1.00">
</g>
<g opacity="1.00">
</g>
<g opacity="1.00">
</g>
<g opacity="1.00">
</g>
<g opacity="1.00">
</g>
<g opacity="1.00">
</g>
<g opacity="1.00">
</g>
<g opacity="1.00">
</g>
<g opacity="1.00">
</g>
<g opacity="1.00">
</g>
<g opacity="1.00">
</g>
<g opacity="1.00">
</g>
<g opacity="1.00">
</g>
<g opacity="1.00">
</g>
<g opacity="1.00">
</g>
<g opacity="1.00">
</g>
<g opacity="1.00">
</g>
<g opacity="1.00">
</g>
<g opacity="1.00">
</g>
<g opacity="1.00">
</g>
<g opacity="1.00">
</g>
<g opacity="1.00">
</g>
<g opacity="1.00">
</g>
<g opacity="1.00">
</g>
<g opacity="1.00">
</g>
<g opacity="1.00">
</g>
<g opacity="1.00">
</g>
<g opacity="1.00">
</g>
<g opacity="1.00">
</g>
<g opacity="1.00">
</g>
<g opacity="1.00">
<g id="703.001 Control number 159" >
<g stroke="rgb(255,64,26)">
<g fill="rgb(255,64,26)" >
<path 
d="M2.47,3.94
2.32,3.94 
2.32,2.76 
C2.28,2.80 2.23,2.84 2.17,2.89
C2.12,2.93 2.06,2.96 2.01,2.98
L2.01,2.80 
C2.10,2.76 2.17,2.70 2.23,2.63
C2.30,2.56 2.34,2.49 2.37,2.42
L2.47,2.42 
" />
</g>
<g fill="rgb(255,64,26)" >
<path 
d="M2.95,3.94
2.95,3.73 
3.12,3.73 
3.12,3.94 
" />
</g>
<g fill="rgb(255,64,26)" >
<path 
d="M3.34,3.54
3.49,3.52 
C3.53,3.72 3.61,3.82 3.74,3.82
C3.81,3.82 3.87,3.79 3.92,3.73
C3.97,3.67 3.99,3.59 3.99,3.50
C3.99,3.41 3.97,3.34 3.92,3.29
C3.88,3.23 3.82,3.21 3.75,3.21
C3.72,3.21 3.69,3.21 3.64,3.23
L3.66,3.06 
3.68,3.07 
C3.76,3.07 3.82,3.04 3.87,3.00
C3.92,2.95 3.94,2.89 3.94,2.81
C3.94,2.74 3.92,2.68 3.88,2.64
C3.84,2.60 3.79,2.58 3.74,2.58
C3.68,2.58 3.63,2.60 3.59,2.64
C3.55,2.69 3.52,2.76 3.51,2.85
L3.36,2.82 
C3.38,2.69 3.42,2.59 3.49,2.52
C3.56,2.46 3.64,2.42 3.73,2.42
C3.83,2.42 3.92,2.46 3.99,2.54
C4.06,2.61 4.09,2.70 4.09,2.82
C4.09,2.88 4.08,2.95 4.05,3.00
C4.02,3.05 3.98,3.09 3.93,3.12
C3.97,3.14 4.02,3.16 4.05,3.19
C4.08,3.22 4.11,3.27 4.13,3.32
C4.15,3.37 4.16,3.43 4.16,3.50
C4.16,3.64 4.11,3.75 4.03,3.84
C3.95,3.93 3.85,3.97 3.74,3.97
C3.63,3.97 3.54,3.93 3.47,3.86
C3.39,3.78 3.35,3.67 3.34,3.54
" />
</g>
<g fill="rgb(255,64,26)" >
<path 
d="M5.12,4.39
C5.05,4.27 4.98,4.13 4.92,3.95
C4.85,3.78 4.82,3.59 4.82,3.40
C4.82,3.06 4.92,2.73 5.12,2.40
L5.23,2.40 
C5.16,2.57 5.10,2.69 5.07,2.78
C5.04,2.87 5.02,2.97 5.00,3.07
C4.99,3.18 4.98,3.29 4.98,3.40
C4.98,3.73 5.06,4.06 5.23,4.39
" />
</g>
<g fill="rgb(255,64,26)" >
<path 
d="M5.38,3.21
C5.38,2.95 5.44,2.75 5.55,2.61
C5.67,2.47 5.81,2.40 5.98,2.40
C6.09,2.40 6.19,2.43 6.28,2.50
C6.37,2.56 6.44,2.65 6.49,2.77
C6.55,2.88 6.57,3.03 6.57,3.19
C6.57,3.41 6.52,3.60 6.42,3.74
C6.31,3.89 6.16,3.97 5.98,3.97
C5.79,3.97 5.65,3.89 5.54,3.73
C5.43,3.59 5.38,3.41 5.38,3.21
L5.38,3.21
M5.55,3.21
C5.55,3.40 5.59,3.54 5.68,3.64
C5.76,3.75 5.86,3.80 5.98,3.80
C6.10,3.80 6.20,3.75 6.28,3.64
C6.36,3.54 6.40,3.39 6.40,3.18
C6.40,3.05 6.38,2.94 6.34,2.83
C6.31,2.76 6.26,2.69 6.19,2.65
C6.13,2.60 6.06,2.57 5.98,2.57
C5.86,2.57 5.75,2.63 5.67,2.73
C5.59,2.83 5.55,2.99 5.55,3.21
" />
</g>
<g fill="rgb(255,64,26)" >
<path 
d="M6.78,3.94
6.78,2.43 
7.02,2.43 
7.32,3.50 
7.38,3.73 
C7.39,3.67 7.41,3.59 7.44,3.48
L7.74,2.43 
7.96,2.43 
7.96,3.94 
7.80,3.94 
7.80,2.68 
7.44,3.94 
7.29,3.94 
6.93,2.66 
6.93,3.94 
" />
</g>
<g fill="rgb(255,64,26)" >
<path 
d="M8.27,4.39
8.16,4.39 
C8.32,4.06 8.41,3.73 8.41,3.40
C8.41,3.29 8.40,3.18 8.38,3.07
C8.37,2.97 8.34,2.87 8.31,2.78
C8.29,2.69 8.23,2.57 8.16,2.40
L8.27,2.40 
C8.47,2.73 8.57,3.06 8.57,3.40
C8.57,3.59 8.54,3.77 8.48,3.94
C8.42,4.12 8.35,4.27 8.27,4.39
" />
</g>
<g fill="rgb(255,64,26)" >
<path 
d="M14.29,7.32
C14.29,7.06 14.33,6.87 14.40,6.74
C14.47,6.61 14.57,6.54 14.70,6.54
C14.82,6.54 14.91,6.60 14.98,6.70
C15.06,6.83 15.10,7.04 15.10,7.32
C15.10,7.57 15.07,7.76 15.00,7.89
C14.93,8.03 14.83,8.09 14.70,8.09
C14.58,8.09 14.48,8.03 14.41,7.92
C14.33,7.80 14.29,7.60 14.29,7.32
L14.29,7.32
M14.45,7.32
C14.45,7.56 14.47,7.73 14.52,7.81
C14.57,7.90 14.63,7.94 14.70,7.94
C14.77,7.94 14.83,7.90 14.88,7.81
C14.93,7.73 14.95,7.56 14.95,7.32
C14.95,7.07 14.92,6.91 14.88,6.82
C14.83,6.74 14.77,6.70 14.69,6.70
C14.62,6.70 14.57,6.74 14.52,6.82
C14.47,6.91 14.45,7.07 14.45,7.32
" />
</g>
<g fill="rgb(255,64,26)" >
<path 
d="M15.35,8.06
15.35,7.85 
15.52,7.85 
15.52,8.06 
" />
</g>
<g fill="rgb(255,64,26)" >
<path 
d="M16.32,8.06
16.16,8.06 
16.16,6.88 
C16.13,6.92 16.08,6.96 16.02,7.01
C15.96,7.05 15.91,7.08 15.86,7.10
L15.86,6.92 
C15.94,6.88 16.02,6.82 16.08,6.75
C16.15,6.68 16.19,6.61 16.22,6.54
L16.32,6.54 
" />
</g>
<g fill="rgb(255,64,26)" >
<path 
d="M16.71,7.66
16.86,7.64 
C16.89,7.84 16.97,7.94 17.10,7.94
C17.17,7.94 17.23,7.91 17.28,7.85
C17.33,7.79 17.36,7.71 17.36,7.62
C17.36,7.53 17.34,7.46 17.29,7.41
C17.24,7.35 17.18,7.33 17.12,7.33
C17.09,7.33 17.05,7.33 17.01,7.35
L17.03,7.18 
17.05,7.19 
C17.13,7.19 17.19,7.16 17.23,7.12
C17.28,7.07 17.30,7.01 17.30,6.93
C17.30,6.86 17.28,6.80 17.24,6.76
C17.21,6.72 17.16,6.70 17.10,6.70
C17.04,6.70 16.99,6.72 16.95,6.76
C16.91,6.81 16.89,6.88 16.87,6.97
L16.72,6.94 
C16.74,6.81 16.79,6.71 16.85,6.64
C16.92,6.58 17.00,6.54 17.10,6.54
C17.20,6.54 17.28,6.58 17.35,6.66
C17.42,6.73 17.46,6.82 17.46,6.94
C17.46,7.00 17.45,7.07 17.42,7.12
C17.39,7.17 17.34,7.21 17.29,7.24
C17.34,7.26 17.38,7.28 17.41,7.31
C17.45,7.34 17.47,7.39 17.49,7.44
C17.51,7.49 17.52,7.55 17.52,7.62
C17.52,7.76 17.48,7.87 17.40,7.96
C17.32,8.05 17.22,8.09 17.10,8.09
C17.00,8.09 16.91,8.05 16.83,7.98
C16.76,7.90 16.72,7.79 16.71,7.66
" />
</g>
<g fill="rgb(255,64,26)" >
<path 
d="M7.64,10.25
7.78,10.05 
7.87,10.14 
7.72,10.35 
C7.77,10.44 7.80,10.52 7.82,10.60
C7.84,10.67 7.85,10.76 7.85,10.87
C7.85,11.03 7.82,11.17 7.77,11.29
C7.71,11.41 7.64,11.50 7.55,11.56
C7.46,11.62 7.36,11.65 7.25,11.65
C7.18,11.65 7.12,11.64 7.06,11.62
C7.00,11.59 6.94,11.55 6.88,11.49
L6.73,11.69 
6.65,11.60 
6.80,11.40 
C6.74,11.29 6.71,11.20 6.69,11.13
C6.67,11.06 6.66,10.97 6.66,10.87
C6.66,10.71 6.69,10.56 6.74,10.44
C6.80,10.32 6.87,10.23 6.96,10.17
C7.04,10.11 7.14,10.08 7.26,10.08
C7.33,10.08 7.39,10.09 7.45,10.12
C7.51,10.14 7.57,10.19 7.64,10.25
L7.64,10.25
M7.54,10.39
C7.48,10.33 7.44,10.30 7.40,10.28
C7.36,10.26 7.31,10.25 7.26,10.25
C7.13,10.25 7.03,10.31 6.95,10.41
C6.87,10.51 6.83,10.67 6.83,10.87
C6.83,10.95 6.83,11.01 6.84,11.06
C6.86,11.12 6.88,11.18 6.90,11.25
L7.54,10.39
M7.61,10.49
L6.98,11.35 
C7.02,11.40 7.07,11.43 7.11,11.45
C7.15,11.47 7.20,11.48 7.25,11.48
C7.37,11.48 7.47,11.43 7.56,11.32
C7.64,11.22 7.68,11.07 7.68,10.87
C7.68,10.73 7.65,10.60 7.61,10.49
" />
</g>
<g fill="rgb(255,64,26)" >
<path 
d="M8.48,10.88
C8.48,10.62 8.51,10.43 8.58,10.30
C8.65,10.17 8.75,10.10 8.88,10.10
C9.00,10.10 9.09,10.16 9.16,10.26
C9.24,10.39 9.29,10.60 9.29,10.88
C9.29,11.13 9.25,11.32 9.18,11.45
C9.11,11.59 9.01,11.65 8.88,11.65
C8.76,11.65 8.66,11.59 8.59,11.48
C8.51,11.36 8.48,11.16 8.48,10.88
L8.48,10.88
M8.63,10.88
C8.63,11.12 8.65,11.29 8.70,11.37
C8.75,11.46 8.81,11.50 8.88,11.50
C8.95,11.50 9.01,11.46 9.06,11.37
C9.11,11.29 9.13,11.12 9.13,10.88
C9.13,10.63 9.11,10.47 9.06,10.38
C9.01,10.30 8.95,10.26 8.87,10.26
C8.81,10.26 8.75,10.30 8.70,10.38
C8.65,10.47 8.63,10.63 8.63,10.88
" />
</g>
<g fill="rgb(255,64,26)" >
<path 
d="M9.53,11.62
9.53,11.41 
9.70,11.41 
9.70,11.62 
" />
</g>
<g fill="rgb(255,64,26)" >
<path 
d="M9.92,11.23
10.08,11.21 
C10.10,11.31 10.12,11.38 10.17,11.43
C10.21,11.47 10.26,11.50 10.32,11.50
C10.39,11.50 10.45,11.46 10.51,11.40
C10.56,11.33 10.59,11.24 10.59,11.13
C10.59,11.02 10.56,10.93 10.51,10.87
C10.46,10.81 10.40,10.78 10.32,10.78
C10.27,10.78 10.23,10.80 10.19,10.82
C10.15,10.85 10.12,10.88 10.09,10.93
L9.95,10.91 
10.07,10.13 
10.69,10.13 
10.69,10.31 
10.19,10.31 
10.13,10.71 
C10.20,10.65 10.28,10.62 10.36,10.62
C10.46,10.62 10.55,10.66 10.63,10.75
C10.71,10.84 10.75,10.96 10.75,11.11
C10.75,11.26 10.71,11.39 10.63,11.49
C10.55,11.60 10.45,11.65 10.32,11.65
C10.21,11.65 10.12,11.61 10.05,11.54
C9.98,11.46 9.93,11.36 9.92,11.23
" />
</g>
</g>
</g>
<g id="709.009 Out of bounds area, solid line 159" >
<g stroke="rgb(255,64,26)">
<g stroke-width="0.10"
style="&stB;"
>
<path 
d="M5.77,7.73
L7.04,9.71
" />
</g>
<g stroke-width="0.10"
style="&stB;"
>
<path 
d="M6.69,5.88
L6.69,4.47
" />
</g>
<g stroke-width="0.10"
style="&stB;"
>
<path 
d="M4.08,5.87
L4.08,4.46
" />
</g>
</g>
</g>
</g>
<g opacity="1.00">
</g>
<g opacity="1.00">
</g>
<g opacity="1.00">
</g>
<g opacity="1.00">
</g>
<g opacity="1.00">
</g>
<g opacity="1.00">
</g>
<g opacity="1.00">
</g>
<g opacity="1.00">
</g>
<g opacity="1.00">
</g>
<g opacity="1.00">
</g>
<g opacity="1.00">
</g>
<g opacity="1.00">
</g>
<g opacity="1.00">
</g>
<g opacity="1.00">
</g>
<g opacity="1.00">
</g>
<g opacity="1.00">
</g>
<g opacity="1.00">
</g>
<g opacity="1.00">
</g>
<g opacity="1.00">
</g>
<g opacity="1.00">
</g>
<g opacity="1.00">
</g>
<g opacity="1.00">
</g>
<g opacity="1.00">
</g>
<g opacity="1.00">
</g>
<g opacity="1.00">
</g>
<g opacity="1.00">
</g>
<g opacity="1.00">
</g>
<g opacity="1.00">
</g>
<g opacity="1.00">
</g>
<g opacity="1.00">
</g>
<g opacity="1.00">
</g>
<g opacity="1.00">
</g>
<g opacity="1.00">
</g>
<g opacity="1.00">
</g>
<g opacity="1.00">
</g>
<g opacity="1.00">
</g>
<g opacity="1.00">
</g>
<g opacity="1.00">
</g>
<g opacity="1.00">
</g>
<g opacity="1.00">
</g>
<g opacity="1.00">
</g>
<g opacity="1.00">
</g>
<g opacity="1.00">
</g>
<g opacity="1.00">
</g>
<g opacity="1.00">
</g>
<g opacity="1.00">
</g>
<g opacity="1.00">
</g>
<g opacity="1.00">
</g>
<g opacity="1.00">
</g>
<g opacity="1.00">
</g>
<g opacity="1.00">
</g>
<g opacity="1.00">
</g>
<g opacity="1.00">
</g>
<g opacity="1.00">
</g>
<g opacity="1.00">
</g>
<g opacity="1.00">
</g>
<g opacity="1.00">
</g>
<g opacity="1.00">
</g>
<g opacity="1.00">
</g>
<g opacity="1.00">
</g>
<g opacity="1.00">
</g>
<g opacity="1.00">
</g>
<g opacity="1.00">
</g>
<g opacity="1.00">
</g>
<g opacity="1.00">
</g>
<g opacity="1.00">
</g>
<g opacity="1.00">
</g>
<g opacity="1.00">
</g>
<g opacity="1.00">
</g>
<g opacity="1.00">
</g>
</g>
</g>
</g>
</g>
</svg>
