<?xml version="1.0" encoding="UTF-8" standalone="no"?>
<!-- Created with Inkscape (http://www.inkscape.org/) -->

<svg
   version="1.1"
   id="svg1001"
   xml:space="preserve"
   width="120.22333"
   height="90.10453"
   viewBox="0 0 120.22333 90.10453"
   sodipodi:docname="ISSprOM 402 Open land with scattered trees.svg"
   inkscape:version="1.1.1 (3bf5ae0d25, 2021-09-20)"
   xmlns:inkscape="http://www.inkscape.org/namespaces/inkscape"
   xmlns:sodipodi="http://sodipodi.sourceforge.net/DTD/sodipodi-0.dtd"
   xmlns="http://www.w3.org/2000/svg"
   xmlns:svg="http://www.w3.org/2000/svg"><defs
     id="defs1005"><clipPath
       clipPathUnits="userSpaceOnUse"
       id="clipPath1019"><path
         d="M 0,67.578 H 90.167 V 0 H 0 Z"
         id="path1017" /></clipPath><clipPath
       clipPathUnits="userSpaceOnUse"
       id="clipPath1033"><path
         d="M 14.594,39.232 H 71.288 V 67.578 H 14.594 Z"
         id="path1031" /></clipPath><clipPath
       clipPathUnits="userSpaceOnUse"
       id="clipPath1473"><path
         d="M 41.386,5.669 H 57.26 V 18.142 H 41.386 Z"
         id="path1471" /></clipPath><clipPath
       clipPathUnits="userSpaceOnUse"
       id="clipPath1561"><path
         d="M 0,67.578 H 90.167 V 0 H 0 Z"
         id="path1559" /></clipPath></defs><sodipodi:namedview
     id="namedview1003"
     pagecolor="#ffffff"
     bordercolor="#666666"
     borderopacity="1.0"
     inkscape:pageshadow="2"
     inkscape:pageopacity="0.0"
     inkscape:pagecheckerboard="0"
     showgrid="false"
     inkscape:zoom="9.2670146"
     inkscape:cx="60.159612"
     inkscape:cy="45.052265"
     inkscape:window-width="1920"
     inkscape:window-height="1017"
     inkscape:window-x="-8"
     inkscape:window-y="-8"
     inkscape:window-maximized="1"
     inkscape:current-layer="g1007" /><g
     id="g1007"
     inkscape:groupmode="layer"
     inkscape:label="ISSprOM 402 Open land with scattered trees"
     transform="matrix(1.3333333,0,0,-1.3333333,0,90.104533)"><g
       id="g1009"
       transform="translate(0,55.1871)"><path
         d="m 0,0 h 2.172 v -9.849 h 2.17 V 0 h 2.17 L 3.273,6.284 Z"
         style="fill:#e30613;fill-opacity:1;fill-rule:nonzero;stroke:none"
         id="path1011" /></g><g
       id="g1013"><g
         id="g1015"
         clip-path="url(#clipPath1019)"><path
           d="m 21.682,23.244 h 42.52 V 0.567 h -42.52 z"
           style="fill:none;stroke:#312783;stroke-width:1.134;stroke-linecap:butt;stroke-linejoin:miter;stroke-miterlimit:22.926;stroke-dasharray:none;stroke-opacity:1"
           id="path1021" /></g></g><path
       d="M 41.396,18.142 H 57.27 V 5.669 H 41.396 Z"
       style="fill:#fcc246;fill-opacity:1;fill-rule:evenodd;stroke:none"
       id="path1023" /><path
       d="M 14.594,39.232 H 71.288 V 67.578 H 14.594 Z"
       style="fill:#fcc246;fill-opacity:1;fill-rule:nonzero;stroke:none"
       id="path1025" /><g
       id="g1027"><g
         id="g1029"
         clip-path="url(#clipPath1033)"><g
           id="g1035"
           transform="translate(15.9956,67.8147)"><path
             d="m 0,0 c 0.662,-0.664 0.662,-1.741 0,-2.404 -0.664,-0.664 -1.742,-0.664 -2.404,0 -0.664,0.664 -0.664,1.74 0,2.404 0.662,0.663 1.74,0.664 2.404,0"
             style="fill:#9bcb90;fill-opacity:1;fill-rule:evenodd;stroke:none"
             id="path1037" /></g><g
           id="g1039"
           transform="translate(15.9956,61.8011)"><path
             d="m 0,0 c 0.664,-0.664 0.664,-1.74 0,-2.404 -0.664,-0.664 -1.742,-0.664 -2.404,0 -0.666,0.664 -0.664,1.74 0,2.404 0.664,0.664 1.74,0.664 2.404,0"
             style="fill:#9bcb90;fill-opacity:1;fill-rule:evenodd;stroke:none"
             id="path1041" /></g><g
           id="g1043"
           transform="translate(19.0015,64.8069)"><path
             d="m 0,0 c 0.664,-0.663 0.664,-1.74 0,-2.404 -0.664,-0.664 -1.74,-0.663 -2.404,0 -0.664,0.665 -0.664,1.74 0,2.404 0.664,0.664 1.74,0.665 2.404,0"
             style="fill:#9bcb90;fill-opacity:1;fill-rule:evenodd;stroke:none"
             id="path1045" /></g><g
           id="g1047"
           transform="translate(22.0093,67.8147)"><path
             d="M 0,0 C 0.662,-0.664 0.662,-1.741 0,-2.404 -0.666,-3.069 -1.742,-3.068 -2.406,-2.405 -3.07,-1.74 -3.07,-0.665 -2.404,0 -1.742,0.663 -0.666,0.664 0,0"
             style="fill:#9bcb90;fill-opacity:1;fill-rule:evenodd;stroke:none"
             id="path1049" /></g><g
           id="g1051"
           transform="translate(15.9956,55.7874)"><path
             d="m 0,0 c 0.662,-0.663 0.662,-1.74 0,-2.404 -0.664,-0.664 -1.742,-0.663 -2.404,0 -0.664,0.664 -0.664,1.74 0,2.404 0.662,0.664 1.74,0.664 2.404,0"
             style="fill:#9bcb90;fill-opacity:1;fill-rule:evenodd;stroke:none"
             id="path1053" /></g><g
           id="g1055"
           transform="translate(18.8037,58.5979)"><path
             d="m 0,0 c 0.664,-0.664 0.664,-1.741 0,-2.404 -0.664,-0.665 -1.74,-0.664 -2.404,-10e-4 -0.664,0.664 -0.664,1.74 0,2.405 0.664,0.663 1.74,0.664 2.404,0"
             style="fill:#9bcb90;fill-opacity:1;fill-rule:evenodd;stroke:none"
             id="path1057" /></g><g
           id="g1059"
           transform="translate(21.8096,61.6038)"><path
             d="m 0,0 c 0.664,-0.664 0.664,-1.74 0,-2.404 -0.664,-0.664 -1.74,-0.664 -2.404,0 -0.664,0.664 -0.664,1.74 0,2.404 0.664,0.664 1.74,0.664 2.404,0"
             style="fill:#9bcb90;fill-opacity:1;fill-rule:evenodd;stroke:none"
             id="path1061" /></g><g
           id="g1063"
           transform="translate(24.8174,64.6106)"><path
             d="m 0,0 c 0.664,-0.663 0.664,-1.741 0,-2.404 -0.664,-0.665 -1.742,-0.664 -2.404,-10e-4 -0.664,0.664 -0.664,1.74 0,2.405 0.664,0.663 1.74,0.664 2.404,0"
             style="fill:#9bcb90;fill-opacity:1;fill-rule:evenodd;stroke:none"
             id="path1065" /></g><g
           id="g1067"
           transform="translate(27.8233,67.6175)"><path
             d="m 0,0 c 0.664,-0.664 0.664,-1.741 0,-2.404 -0.664,-0.664 -1.74,-0.664 -2.404,0 -0.664,0.664 -0.664,1.74 0,2.404 0.664,0.663 1.74,0.664 2.404,0"
             style="fill:#9bcb90;fill-opacity:1;fill-rule:evenodd;stroke:none"
             id="path1069" /></g><g
           id="g1071"
           transform="translate(30.8311,70.6233)"><path
             d="m 0,0 c 0.662,-0.663 0.662,-1.74 0,-2.404 -0.666,-0.664 -1.742,-0.664 -2.406,0 C -3.07,-1.74 -3.07,-0.664 -2.404,0 -1.742,0.664 -0.664,0.664 0,0"
             style="fill:#9bcb90;fill-opacity:1;fill-rule:evenodd;stroke:none"
             id="path1073" /></g><g
           id="g1075"
           transform="translate(15.7979,49.5774)"><path
             d="M 0,0 C 0.664,-0.663 0.664,-1.741 0,-2.404 -0.664,-3.069 -1.742,-3.068 -2.404,-2.405 -3.07,-1.74 -3.068,-0.665 -2.404,0 -1.74,0.663 -0.664,0.665 0,0"
             style="fill:#ffffff;fill-opacity:1;fill-rule:evenodd;stroke:none"
             id="path1077" /></g><g
           id="g1079"
           transform="translate(18.8037,52.5843)"><path
             d="m 0,0 c 0.664,-0.664 0.664,-1.741 0,-2.404 -0.664,-0.664 -1.74,-0.664 -2.404,0 -0.664,0.664 -0.664,1.74 0,2.404 0.664,0.663 1.74,0.664 2.404,0"
             style="fill:#ffffff;fill-opacity:1;fill-rule:evenodd;stroke:none"
             id="path1081" /></g><g
           id="g1083"
           transform="translate(21.8115,55.5901)"><path
             d="m 0,0 c 0.662,-0.663 0.662,-1.74 0,-2.404 -0.666,-0.664 -1.742,-0.664 -2.406,0 C -3.07,-1.74 -3.07,-0.664 -2.404,0 -1.742,0.664 -0.666,0.665 0,0"
             style="fill:#9bcb90;fill-opacity:1;fill-rule:evenodd;stroke:none"
             id="path1085" /></g><g
           id="g1087"
           transform="translate(24.8174,58.597)"><path
             d="m 0,0 c 0.664,-0.663 0.664,-1.741 0,-2.404 -0.664,-0.664 -1.74,-0.663 -2.404,0 -0.664,0.665 -0.664,1.74 0,2.404 0.664,0.663 1.74,0.665 2.404,0"
             style="fill:#9bcb90;fill-opacity:1;fill-rule:evenodd;stroke:none"
             id="path1089" /></g><g
           id="g1091"
           transform="translate(27.8233,61.6038)"><path
             d="m 0,0 c 0.664,-0.664 0.664,-1.74 0,-2.404 -0.664,-0.664 -1.74,-0.664 -2.404,0 -0.664,0.664 -0.664,1.74 0,2.404 0.664,0.664 1.74,0.664 2.404,0"
             style="fill:#9bcb90;fill-opacity:1;fill-rule:evenodd;stroke:none"
             id="path1093" /></g><g
           id="g1095"
           transform="translate(30.8311,64.6097)"><path
             d="m 0,0 c 0.662,-0.663 0.662,-1.74 0,-2.404 -0.664,-0.664 -1.742,-0.663 -2.404,0 -0.666,0.665 -0.664,1.74 0,2.404 0.662,0.664 1.738,0.665 2.404,0"
             style="fill:#9bcb90;fill-opacity:1;fill-rule:evenodd;stroke:none"
             id="path1097" /></g><g
           id="g1099"
           transform="translate(33.8369,67.6175)"><path
             d="m 0,0 c 0.664,-0.664 0.664,-1.741 0,-2.404 -0.664,-0.665 -1.74,-0.664 -2.404,-10e-4 -0.664,0.665 -0.664,1.74 0,2.405 0.664,0.663 1.74,0.664 2.404,0"
             style="fill:#9bcb90;fill-opacity:1;fill-rule:evenodd;stroke:none"
             id="path1101" /></g><g
           id="g1103"
           transform="translate(36.8428,70.6233)"><path
             d="m 0,0 c 0.664,-0.664 0.664,-1.74 0,-2.404 -0.664,-0.664 -1.74,-0.664 -2.404,0 -0.664,0.664 -0.664,1.74 0,2.404 0.664,0.664 1.74,0.664 2.404,0"
             style="fill:#9bcb90;fill-opacity:1;fill-rule:evenodd;stroke:none"
             id="path1105" /></g><g
           id="g1107"
           transform="translate(15.7979,43.5647)"><path
             d="m 0,0 c 0.662,-0.664 0.662,-1.741 0,-2.404 -0.664,-0.664 -1.742,-0.664 -2.404,0 -0.664,0.664 -0.664,1.74 0,2.404 0.662,0.663 1.74,0.664 2.404,0"
             style="fill:#ffffff;fill-opacity:1;fill-rule:evenodd;stroke:none"
             id="path1109" /></g><g
           id="g1111"
           transform="translate(18.8037,46.5706)"><path
             d="m 0,0 c 0.664,-0.663 0.664,-1.74 0,-2.404 -0.664,-0.664 -1.74,-0.664 -2.404,0 -0.664,0.664 -0.664,1.74 0,2.404 0.664,0.664 1.74,0.664 2.404,0"
             style="fill:#ffffff;fill-opacity:1;fill-rule:evenodd;stroke:none"
             id="path1113" /></g><g
           id="g1115"
           transform="translate(21.8096,49.5774)"><path
             d="m 0,0 c 0.664,-0.663 0.664,-1.741 0,-2.404 -0.664,-0.664 -1.74,-0.663 -2.404,0 -0.664,0.664 -0.664,1.74 0,2.404 0.664,0.663 1.74,0.664 2.404,0"
             style="fill:#ffffff;fill-opacity:1;fill-rule:evenodd;stroke:none"
             id="path1117" /></g><g
           id="g1119"
           transform="translate(24.8174,52.5843)"><path
             d="m 0,0 c 0.664,-0.664 0.664,-1.74 0,-2.404 -0.664,-0.664 -1.742,-0.664 -2.404,0 -0.664,0.664 -0.664,1.74 0,2.404 0.664,0.664 1.74,0.664 2.404,0"
             style="fill:#ffffff;fill-opacity:1;fill-rule:evenodd;stroke:none"
             id="path1121" /></g><g
           id="g1123"
           transform="translate(27.8233,55.5901)"><path
             d="m 0,0 c 0.664,-0.663 0.664,-1.74 0,-2.404 -0.664,-0.664 -1.74,-0.663 -2.404,0 -0.664,0.664 -0.664,1.74 0,2.404 0.664,0.664 1.74,0.664 2.404,0"
             style="fill:#9bcb90;fill-opacity:1;fill-rule:evenodd;stroke:none"
             id="path1125" /></g><g
           id="g1127"
           transform="translate(30.8311,58.5979)"><path
             d="M 0,0 C 0.662,-0.664 0.662,-1.741 0,-2.404 -0.666,-3.069 -1.742,-3.068 -2.406,-2.405 -3.07,-1.741 -3.07,-0.665 -2.404,0 -1.742,0.663 -0.664,0.664 0,0"
             style="fill:#9bcb90;fill-opacity:1;fill-rule:evenodd;stroke:none"
             id="path1129" /></g><g
           id="g1131"
           transform="translate(33.8369,61.6038)"><path
             d="m 0,0 c 0.664,-0.664 0.664,-1.74 0,-2.404 -0.664,-0.664 -1.74,-0.664 -2.404,0 -0.664,0.664 -0.664,1.74 0,2.404 0.664,0.664 1.74,0.664 2.404,0"
             style="fill:#9bcb90;fill-opacity:1;fill-rule:evenodd;stroke:none"
             id="path1133" /></g><g
           id="g1135"
           transform="translate(36.8428,64.6106)"><path
             d="m 0,0 c 0.664,-0.663 0.664,-1.741 0,-2.404 -0.664,-0.665 -1.74,-0.664 -2.404,-10e-4 -0.664,0.664 -0.664,1.74 0,2.405 0.664,0.663 1.74,0.664 2.404,0"
             style="fill:#9bcb90;fill-opacity:1;fill-rule:evenodd;stroke:none"
             id="path1137" /></g><g
           id="g1139"
           transform="translate(39.8506,67.6175)"><path
             d="m 0,0 c 0.662,-0.664 0.662,-1.741 0,-2.404 -0.664,-0.664 -1.742,-0.664 -2.404,0 -0.664,0.664 -0.664,1.74 0,2.404 0.662,0.663 1.74,0.664 2.404,0"
             style="fill:#9bcb90;fill-opacity:1;fill-rule:evenodd;stroke:none"
             id="path1141" /></g><g
           id="g1143"
           transform="translate(42.8565,70.6233)"><path
             d="m 0,0 c 0.664,-0.663 0.664,-1.74 0,-2.404 -0.664,-0.664 -1.74,-0.664 -2.404,0 -0.664,0.664 -0.664,1.74 0,2.404 0.664,0.664 1.74,0.664 2.404,0"
             style="fill:#ffffff;fill-opacity:1;fill-rule:evenodd;stroke:none"
             id="path1145" /></g><g
           id="g1147"
           transform="translate(18.8037,40.5569)"><path
             d="m 0,0 c 0.664,-0.663 0.664,-1.74 0,-2.404 -0.664,-0.664 -1.74,-0.663 -2.404,0 -0.664,0.665 -0.664,1.74 0,2.404 0.664,0.664 1.74,0.665 2.404,0"
             style="fill:#ffffff;fill-opacity:1;fill-rule:evenodd;stroke:none"
             id="path1149" /></g><g
           id="g1151"
           transform="translate(21.8115,43.5647)"><path
             d="M 0,0 C 0.662,-0.664 0.662,-1.741 0,-2.404 -0.666,-3.069 -1.742,-3.068 -2.406,-2.405 -3.07,-1.74 -3.07,-0.665 -2.404,0 -1.742,0.663 -0.666,0.664 0,0"
             style="fill:#ffffff;fill-opacity:1;fill-rule:evenodd;stroke:none"
             id="path1153" /></g><g
           id="g1155"
           transform="translate(24.8174,46.5706)"><path
             d="m 0,0 c 0.664,-0.664 0.664,-1.74 0,-2.404 -0.664,-0.664 -1.74,-0.664 -2.404,0 -0.664,0.664 -0.664,1.74 0,2.404 0.664,0.664 1.74,0.664 2.404,0"
             style="fill:#ffffff;fill-opacity:1;fill-rule:evenodd;stroke:none"
             id="path1157" /></g><g
           id="g1159"
           transform="translate(27.8233,49.5774)"><path
             d="m 0,0 c 0.664,-0.663 0.664,-1.741 0,-2.404 -0.664,-0.665 -1.74,-0.664 -2.404,-10e-4 -0.664,0.665 -0.664,1.74 0,2.405 0.664,0.663 1.74,0.665 2.404,0"
             style="fill:#ffffff;fill-opacity:1;fill-rule:evenodd;stroke:none"
             id="path1161" /></g><g
           id="g1163"
           transform="translate(30.8311,52.5843)"><path
             d="m 0,0 c 0.662,-0.664 0.662,-1.741 0,-2.404 -0.664,-0.664 -1.742,-0.664 -2.404,0 -0.666,0.664 -0.664,1.74 0,2.404 0.662,0.663 1.738,0.664 2.404,0"
             style="fill:#ffffff;fill-opacity:1;fill-rule:evenodd;stroke:none"
             id="path1165" /></g><g
           id="g1167"
           transform="translate(33.8369,55.5901)"><path
             d="m 0,0 c 0.664,-0.663 0.664,-1.74 0,-2.404 -0.664,-0.664 -1.74,-0.664 -2.404,0 -0.664,0.664 -0.664,1.74 0,2.404 0.664,0.664 1.74,0.665 2.404,0"
             style="fill:#9bcb90;fill-opacity:1;fill-rule:evenodd;stroke:none"
             id="path1169" /></g><g
           id="g1171"
           transform="translate(36.8428,58.597)"><path
             d="m 0,0 c 0.664,-0.663 0.664,-1.741 0,-2.404 -0.664,-0.664 -1.74,-0.663 -2.404,0 -0.664,0.665 -0.664,1.74 0,2.404 0.664,0.663 1.74,0.665 2.404,0"
             style="fill:#9bcb90;fill-opacity:1;fill-rule:evenodd;stroke:none"
             id="path1173" /></g><g
           id="g1175"
           transform="translate(39.8506,61.6038)"><path
             d="m 0,0 c 0.664,-0.664 0.664,-1.74 0,-2.404 -0.664,-0.664 -1.742,-0.664 -2.404,0 -0.666,0.664 -0.664,1.74 0,2.404 0.664,0.664 1.74,0.664 2.404,0"
             style="fill:#9bcb90;fill-opacity:1;fill-rule:evenodd;stroke:none"
             id="path1177" /></g><g
           id="g1179"
           transform="translate(42.8565,64.6097)"><path
             d="m 0,0 c 0.664,-0.663 0.664,-1.74 0,-2.404 -0.664,-0.664 -1.74,-0.663 -2.404,0 -0.664,0.665 -0.664,1.74 0,2.404 0.664,0.664 1.74,0.665 2.404,0"
             style="fill:#ffffff;fill-opacity:1;fill-rule:evenodd;stroke:none"
             id="path1181" /></g><g
           id="g1183"
           transform="translate(45.8643,67.6175)"><path
             d="m 0,0 c 0.662,-0.664 0.662,-1.741 -0.002,-2.405 -0.664,-0.664 -1.74,-0.663 -2.404,0 -0.664,0.665 -0.664,1.74 0,2.404 C -1.742,0.663 -0.666,0.664 0,0"
             style="fill:#ffffff;fill-opacity:1;fill-rule:evenodd;stroke:none"
             id="path1185" /></g><g
           id="g1187"
           transform="translate(48.8701,70.6233)"><path
             d="m 0,0 c 0.664,-0.664 0.664,-1.74 0,-2.404 -0.664,-0.664 -1.74,-0.664 -2.404,0 -0.664,0.664 -0.664,1.74 0,2.404 0.664,0.664 1.74,0.664 2.404,0"
             style="fill:#ffffff;fill-opacity:1;fill-rule:evenodd;stroke:none"
             id="path1189" /></g><g
           id="g1191"
           transform="translate(24.8174,40.5579)"><path
             d="m 0,0 c 0.664,-0.663 0.664,-1.741 0,-2.404 -0.664,-0.665 -1.742,-0.664 -2.404,-10e-4 -0.664,0.664 -0.664,1.74 0,2.405 0.664,0.663 1.74,0.664 2.404,0"
             style="fill:#ffffff;fill-opacity:1;fill-rule:evenodd;stroke:none"
             id="path1193" /></g><g
           id="g1195"
           transform="translate(27.8233,43.5647)"><path
             d="m 0,0 c 0.664,-0.664 0.664,-1.741 0,-2.404 -0.664,-0.664 -1.74,-0.664 -2.404,0 -0.664,0.664 -0.664,1.74 0,2.404 0.664,0.663 1.74,0.664 2.404,0"
             style="fill:#ffffff;fill-opacity:1;fill-rule:evenodd;stroke:none"
             id="path1197" /></g><g
           id="g1199"
           transform="translate(30.8311,46.5706)"><path
             d="m 0,0 c 0.662,-0.663 0.662,-1.74 0,-2.404 -0.666,-0.664 -1.742,-0.664 -2.406,0 C -3.07,-1.74 -3.07,-0.664 -2.404,0 -1.742,0.664 -0.664,0.664 0,0"
             style="fill:#ffffff;fill-opacity:1;fill-rule:evenodd;stroke:none"
             id="path1201" /></g><g
           id="g1203"
           transform="translate(33.8369,49.5774)"><path
             d="m 0,0 c 0.664,-0.663 0.664,-1.741 0,-2.404 -0.664,-0.664 -1.74,-0.663 -2.404,0 -0.664,0.664 -0.664,1.74 0,2.404 0.664,0.663 1.74,0.664 2.404,0"
             style="fill:#ffffff;fill-opacity:1;fill-rule:evenodd;stroke:none"
             id="path1205" /></g><g
           id="g1207"
           transform="translate(36.8428,52.5843)"><path
             d="m 0,0 c 0.664,-0.664 0.664,-1.74 0,-2.404 -0.664,-0.664 -1.74,-0.664 -2.404,0 -0.664,0.664 -0.664,1.74 0,2.404 0.664,0.664 1.74,0.664 2.404,0"
             style="fill:#ffffff;fill-opacity:1;fill-rule:evenodd;stroke:none"
             id="path1209" /></g><g
           id="g1211"
           transform="translate(39.8506,55.5901)"><path
             d="m 0,0 c 0.662,-0.663 0.662,-1.74 0,-2.404 -0.664,-0.664 -1.742,-0.663 -2.404,0 -0.664,0.664 -0.664,1.74 0,2.404 0.662,0.664 1.74,0.664 2.404,0"
             style="fill:#9bcb90;fill-opacity:1;fill-rule:evenodd;stroke:none"
             id="path1213" /></g><g
           id="g1215"
           transform="translate(42.8565,58.5979)"><path
             d="m 0,0 c 0.664,-0.664 0.664,-1.741 0,-2.404 -0.664,-0.665 -1.74,-0.664 -2.404,-10e-4 -0.664,0.664 -0.664,1.74 0,2.405 0.664,0.663 1.74,0.664 2.404,0"
             style="fill:#ffffff;fill-opacity:1;fill-rule:evenodd;stroke:none"
             id="path1217" /></g><g
           id="g1219"
           transform="translate(45.8623,61.6038)"><path
             d="m 0,0 c 0.664,-0.664 0.664,-1.74 0,-2.404 -0.664,-0.664 -1.74,-0.664 -2.404,0 -0.664,0.664 -0.664,1.74 0,2.404 0.664,0.664 1.74,0.664 2.404,0"
             style="fill:#ffffff;fill-opacity:1;fill-rule:evenodd;stroke:none"
             id="path1221" /></g><g
           id="g1223"
           transform="translate(48.8701,64.6106)"><path
             d="m 0,0 c 0.664,-0.663 0.664,-1.741 0,-2.405 -0.664,-0.664 -1.742,-0.663 -2.404,0 -0.664,0.664 -0.664,1.74 0,2.404 C -1.74,0.663 -0.664,0.664 0,0"
             style="fill:#ffffff;fill-opacity:1;fill-rule:evenodd;stroke:none"
             id="path1225" /></g><g
           id="g1227"
           transform="translate(51.876,67.6175)"><path
             d="m 0,0 c 0.664,-0.664 0.664,-1.741 0,-2.404 -0.664,-0.664 -1.74,-0.664 -2.404,0 -0.664,0.664 -0.664,1.74 0,2.404 0.664,0.663 1.74,0.664 2.404,0"
             style="fill:#ffffff;fill-opacity:1;fill-rule:evenodd;stroke:none"
             id="path1229" /></g><g
           id="g1231"
           transform="translate(54.8838,70.6243)"><path
             d="m 0,0 c 0.664,-0.663 0.662,-1.741 -0.002,-2.405 -0.664,-0.664 -1.74,-0.664 -2.404,0 -0.664,0.664 -0.664,1.74 0,2.404 C -1.742,0.663 -0.664,0.664 0,0"
             style="fill:#ffffff;fill-opacity:1;fill-rule:evenodd;stroke:none"
             id="path1233" /></g><g
           id="g1235"
           transform="translate(30.8311,40.5569)"><path
             d="m 0,0 c 0.662,-0.663 0.662,-1.74 0,-2.404 -0.664,-0.664 -1.742,-0.663 -2.404,0 C -3.07,-1.739 -3.07,-0.663 -2.406,0.001 -1.742,0.664 -0.666,0.665 0,0"
             style="fill:#ffffff;fill-opacity:1;fill-rule:evenodd;stroke:none"
             id="path1237" /></g><g
           id="g1239"
           transform="translate(33.8369,43.5647)"><path
             d="M 0,0 C 0.664,-0.664 0.664,-1.741 0,-2.404 -0.664,-3.069 -1.74,-3.068 -2.404,-2.405 -3.068,-1.74 -3.068,-0.664 -2.404,0 -1.74,0.664 -0.664,0.664 0,0"
             style="fill:#ffffff;fill-opacity:1;fill-rule:evenodd;stroke:none"
             id="path1241" /></g><g
           id="g1243"
           transform="translate(36.8428,46.5706)"><path
             d="m 0,0 c 0.664,-0.664 0.664,-1.74 0,-2.404 -0.664,-0.664 -1.74,-0.664 -2.404,0 -0.664,0.664 -0.664,1.74 0,2.404 0.664,0.664 1.74,0.664 2.404,0"
             style="fill:#ffffff;fill-opacity:1;fill-rule:evenodd;stroke:none"
             id="path1245" /></g><g
           id="g1247"
           transform="translate(39.8506,49.5774)"><path
             d="m 0,0 c 0.664,-0.663 0.664,-1.741 0,-2.404 -0.664,-0.665 -1.742,-0.664 -2.404,-10e-4 -0.666,0.665 -0.666,1.741 0,2.406 C -1.742,0.664 -0.664,0.665 0,0"
             style="fill:#ffffff;fill-opacity:1;fill-rule:evenodd;stroke:none"
             id="path1249" /></g><g
           id="g1251"
           transform="translate(42.8565,52.5843)"><path
             d="m 0,0 c 0.664,-0.664 0.664,-1.741 0,-2.404 -0.664,-0.664 -1.74,-0.664 -2.404,0 -0.664,0.664 -0.664,1.74 0,2.404 0.664,0.664 1.74,0.664 2.404,0"
             style="fill:#ffffff;fill-opacity:1;fill-rule:evenodd;stroke:none"
             id="path1253" /></g><g
           id="g1255"
           transform="translate(45.8643,55.5901)"><path
             d="m 0,0 c 0.662,-0.663 0.662,-1.74 0,-2.404 -0.666,-0.664 -1.742,-0.664 -2.406,0 -0.664,0.664 -0.664,1.74 0,2.405 C -1.742,0.664 -0.666,0.665 0,0"
             style="fill:#ffffff;fill-opacity:1;fill-rule:evenodd;stroke:none"
             id="path1257" /></g><g
           id="g1259"
           transform="translate(48.8701,58.597)"><path
             d="m 0,0 c 0.664,-0.663 0.664,-1.741 0,-2.404 -0.664,-0.664 -1.74,-0.663 -2.404,0 -0.664,0.665 -0.664,1.741 0,2.405 C -1.742,0.664 -0.664,0.665 0,0"
             style="fill:#ffffff;fill-opacity:1;fill-rule:evenodd;stroke:none"
             id="path1261" /></g><g
           id="g1263"
           transform="translate(51.876,61.6038)"><path
             d="m 0,0 c 0.664,-0.664 0.664,-1.74 0,-2.404 -0.664,-0.664 -1.74,-0.664 -2.404,0 -0.664,0.664 -0.664,1.74 0,2.404 0.664,0.664 1.74,0.664 2.404,0"
             style="fill:#ffffff;fill-opacity:1;fill-rule:evenodd;stroke:none"
             id="path1265" /></g><g
           id="g1267"
           transform="translate(54.8838,64.6097)"><path
             d="m 0,0 c 0.662,-0.663 0.662,-1.74 0,-2.404 -0.664,-0.664 -1.742,-0.663 -2.404,0 C -3.07,-1.739 -3.07,-0.663 -2.406,0.001 -1.742,0.664 -0.666,0.665 0,0"
             style="fill:#ffffff;fill-opacity:1;fill-rule:evenodd;stroke:none"
             id="path1269" /></g><g
           id="g1271"
           transform="translate(57.8897,67.6175)"><path
             d="m 0,0 c 0.664,-0.664 0.664,-1.741 0,-2.405 -0.664,-0.664 -1.74,-0.663 -2.404,0 -0.664,0.665 -0.664,1.741 0,2.405 0.664,0.664 1.74,0.664 2.404,0"
             style="fill:#ffffff;fill-opacity:1;fill-rule:evenodd;stroke:none"
             id="path1273" /></g><g
           id="g1275"
           transform="translate(60.8975,70.6243)"><path
             d="m 0,0 c 0.664,-0.663 0.662,-1.741 -0.002,-2.405 -0.664,-0.664 -1.74,-0.664 -2.404,0 -0.664,0.664 -0.664,1.74 0,2.404 C -1.742,0.663 -0.664,0.665 0,0"
             style="fill:#ffffff;fill-opacity:1;fill-rule:evenodd;stroke:none"
             id="path1277" /></g><g
           id="g1279"
           transform="translate(36.8428,40.5579)"><path
             d="m 0,0 c 0.664,-0.663 0.664,-1.741 0,-2.404 -0.664,-0.665 -1.74,-0.664 -2.404,-10e-4 -0.664,0.664 -0.664,1.74 0,2.405 0.664,0.663 1.74,0.664 2.404,0"
             style="fill:#ffffff;fill-opacity:1;fill-rule:evenodd;stroke:none"
             id="path1281" /></g><g
           id="g1283"
           transform="translate(39.8506,43.5647)"><path
             d="m 0,0 c 0.662,-0.664 0.662,-1.741 0,-2.404 -0.664,-0.664 -1.742,-0.664 -2.404,0 -0.664,0.664 -0.664,1.74 0,2.404 0.662,0.663 1.74,0.664 2.404,0"
             style="fill:#ffffff;fill-opacity:1;fill-rule:evenodd;stroke:none"
             id="path1285" /></g><g
           id="g1287"
           transform="translate(42.8565,46.5706)"><path
             d="m 0,0 c 0.664,-0.663 0.664,-1.74 0,-2.404 -0.664,-0.664 -1.74,-0.664 -2.404,0 -0.664,0.664 -0.664,1.74 0,2.404 0.664,0.664 1.74,0.664 2.404,0"
             style="fill:#ffffff;fill-opacity:1;fill-rule:evenodd;stroke:none"
             id="path1289" /></g><g
           id="g1291"
           transform="translate(45.8623,49.5774)"><path
             d="m 0,0 c 0.664,-0.663 0.664,-1.741 0,-2.404 -0.664,-0.664 -1.74,-0.663 -2.404,0 -0.664,0.664 -0.664,1.74 0,2.404 0.664,0.663 1.74,0.664 2.404,0"
             style="fill:#ffffff;fill-opacity:1;fill-rule:evenodd;stroke:none"
             id="path1293" /></g><g
           id="g1295"
           transform="translate(48.8701,52.5843)"><path
             d="m 0,0 c 0.664,-0.664 0.664,-1.74 0,-2.404 -0.664,-0.664 -1.742,-0.664 -2.404,0 -0.664,0.664 -0.664,1.74 0,2.404 0.664,0.664 1.74,0.664 2.404,0"
             style="fill:#ffffff;fill-opacity:1;fill-rule:evenodd;stroke:none"
             id="path1297" /></g><g
           id="g1299"
           transform="translate(51.876,55.5901)"><path
             d="m 0,0 c 0.664,-0.663 0.664,-1.74 0,-2.404 -0.664,-0.664 -1.74,-0.663 -2.404,0 -0.664,0.664 -0.664,1.74 0,2.404 0.664,0.664 1.74,0.664 2.404,0"
             style="fill:#ffffff;fill-opacity:1;fill-rule:evenodd;stroke:none"
             id="path1301" /></g><g
           id="g1303"
           transform="translate(54.8838,58.5979)"><path
             d="m 0,0 c 0.662,-0.664 0.662,-1.741 -0.002,-2.405 -0.664,-0.664 -1.74,-0.663 -2.404,0 -0.664,0.664 -0.664,1.74 0,2.404 C -1.742,0.663 -0.664,0.664 0,0"
             style="fill:#ffffff;fill-opacity:1;fill-rule:evenodd;stroke:none"
             id="path1305" /></g><g
           id="g1307"
           transform="translate(57.8897,61.6038)"><path
             d="m 0,0 c 0.664,-0.664 0.664,-1.74 0,-2.404 -0.664,-0.664 -1.74,-0.664 -2.404,0 -0.664,0.664 -0.664,1.74 0,2.404 0.664,0.664 1.74,0.664 2.404,0"
             style="fill:#ffffff;fill-opacity:1;fill-rule:evenodd;stroke:none"
             id="path1309" /></g><g
           id="g1311"
           transform="translate(60.8975,64.6116)"><path
             d="m 0,0 c 0.662,-0.664 0.662,-1.742 -0.002,-2.406 -0.664,-0.664 -1.74,-0.663 -2.404,0 -0.664,0.664 -0.664,1.74 0,2.404 C -1.742,0.662 -0.664,0.664 0,0"
             style="fill:#ffffff;fill-opacity:1;fill-rule:evenodd;stroke:none"
             id="path1313" /></g><g
           id="g1315"
           transform="translate(63.9033,67.6175)"><path
             d="m 0,0 c 0.664,-0.663 0.664,-1.74 0,-2.404 -0.666,-0.665 -1.742,-0.664 -2.404,0 -0.664,0.664 -0.666,1.739 0,2.404 0.664,0.664 1.74,0.664 2.404,0"
             style="fill:#ffffff;fill-opacity:1;fill-rule:evenodd;stroke:none"
             id="path1317" /></g><g
           id="g1319"
           transform="translate(66.9092,70.6243)"><path
             d="m 0,0 c 0.664,-0.663 0.664,-1.741 0,-2.405 -0.664,-0.664 -1.74,-0.664 -2.404,0 -0.664,0.664 -0.664,1.74 0,2.404 C -1.74,0.663 -0.664,0.664 0,0"
             style="fill:#ffffff;fill-opacity:1;fill-rule:evenodd;stroke:none"
             id="path1321" /></g><g
           id="g1323"
           transform="translate(42.8565,40.5569)"><path
             d="m 0,0 c 0.664,-0.663 0.664,-1.74 0,-2.404 -0.664,-0.664 -1.74,-0.663 -2.404,0 -0.664,0.665 -0.664,1.741 0,2.405 C -1.74,0.664 -0.664,0.665 0,0"
             style="fill:#ffffff;fill-opacity:1;fill-rule:evenodd;stroke:none"
             id="path1325" /></g><g
           id="g1327"
           transform="translate(45.8643,43.5647)"><path
             d="M 0,0 C 0.662,-0.664 0.662,-1.741 0,-2.404 -0.666,-3.069 -1.742,-3.068 -2.406,-2.405 -3.07,-1.74 -3.07,-0.664 -2.406,0 -1.742,0.664 -0.666,0.664 0,0"
             style="fill:#ffffff;fill-opacity:1;fill-rule:evenodd;stroke:none"
             id="path1329" /></g><g
           id="g1331"
           transform="translate(48.8701,46.5706)"><path
             d="m 0,0 c 0.664,-0.664 0.664,-1.74 0,-2.404 -0.664,-0.664 -1.74,-0.664 -2.404,0 -0.664,0.664 -0.664,1.74 0,2.404 0.662,0.664 1.74,0.664 2.404,0"
             style="fill:#ffffff;fill-opacity:1;fill-rule:evenodd;stroke:none"
             id="path1333" /></g><g
           id="g1335"
           transform="translate(51.876,49.5774)"><path
             d="m 0,0 c 0.664,-0.663 0.664,-1.741 0,-2.404 -0.664,-0.665 -1.74,-0.664 -2.404,-10e-4 -0.664,0.665 -0.664,1.741 0,2.406 C -1.74,0.664 -0.664,0.665 0,0"
             style="fill:#ffffff;fill-opacity:1;fill-rule:evenodd;stroke:none"
             id="path1337" /></g><g
           id="g1339"
           transform="translate(54.8838,52.5843)"><path
             d="m 0,0 c 0.662,-0.664 0.662,-1.741 0,-2.404 -0.664,-0.664 -1.742,-0.664 -2.404,0 C -3.07,-1.74 -3.07,-0.664 -2.406,0 -1.742,0.664 -0.666,0.664 0,0"
             style="fill:#ffffff;fill-opacity:1;fill-rule:evenodd;stroke:none"
             id="path1341" /></g><g
           id="g1343"
           transform="translate(57.8897,55.5901)"><path
             d="m 0,0 c 0.664,-0.663 0.664,-1.74 0,-2.404 -0.664,-0.664 -1.74,-0.664 -2.404,0 -0.664,0.664 -0.664,1.74 0,2.404 0.664,0.664 1.74,0.665 2.404,0"
             style="fill:#ffffff;fill-opacity:1;fill-rule:evenodd;stroke:none"
             id="path1345" /></g><g
           id="g1347"
           transform="translate(60.8955,58.597)"><path
             d="m 0,0 c 0.664,-0.663 0.664,-1.741 0,-2.404 -0.664,-0.664 -1.74,-0.663 -2.404,0 -0.664,0.665 -0.664,1.741 0,2.405 C -1.74,0.664 -0.664,0.665 0,0"
             style="fill:#ffffff;fill-opacity:1;fill-rule:evenodd;stroke:none"
             id="path1349" /></g><g
           id="g1351"
           transform="translate(63.9033,61.6038)"><path
             d="m 0,0 c 0.664,-0.663 0.664,-1.74 0,-2.404 -0.664,-0.664 -1.742,-0.664 -2.404,0 C -3.07,-1.74 -3.07,-0.664 -2.406,0 -1.742,0.664 -0.664,0.665 0,0"
             style="fill:#ffffff;fill-opacity:1;fill-rule:evenodd;stroke:none"
             id="path1353" /></g><g
           id="g1355"
           transform="translate(66.9111,64.6116)"><path
             d="m 0,0 c 0.662,-0.664 0.662,-1.742 -0.002,-2.406 -0.664,-0.664 -1.74,-0.663 -2.404,0 -0.664,0.665 -0.664,1.74 0,2.405 C -1.742,0.663 -0.666,0.664 0,0"
             style="fill:#ffffff;fill-opacity:1;fill-rule:evenodd;stroke:none"
             id="path1357" /></g><g
           id="g1359"
           transform="translate(69.917,67.6175)"><path
             d="m 0,0 c 0.664,-0.664 0.664,-1.74 -0.002,-2.405 -0.664,-0.664 -1.74,-0.663 -2.404,0 -0.664,0.665 -0.664,1.741 0,2.405 0.664,0.664 1.742,0.664 2.406,0"
             style="fill:#ffffff;fill-opacity:1;fill-rule:evenodd;stroke:none"
             id="path1361" /></g><g
           id="g1363"
           transform="translate(72.9229,70.6233)"><path
             d="m 0,0 c 0.664,-0.663 0.664,-1.74 0,-2.404 -0.664,-0.664 -1.74,-0.664 -2.404,0 -0.664,0.664 -0.666,1.74 0,2.404 0.664,0.664 1.74,0.665 2.404,0"
             style="fill:#ffffff;fill-opacity:1;fill-rule:evenodd;stroke:none"
             id="path1365" /></g><g
           id="g1367"
           transform="translate(48.8701,40.5579)"><path
             d="m 0,0 c 0.664,-0.663 0.664,-1.741 0,-2.404 -0.664,-0.665 -1.742,-0.664 -2.404,-10e-4 -0.664,0.664 -0.664,1.74 0,2.405 0.664,0.663 1.74,0.664 2.404,0"
             style="fill:#ffffff;fill-opacity:1;fill-rule:evenodd;stroke:none"
             id="path1369" /></g><g
           id="g1371"
           transform="translate(51.876,43.5647)"><path
             d="m 0,0 c 0.664,-0.664 0.664,-1.741 0,-2.404 -0.664,-0.664 -1.74,-0.664 -2.404,0 -0.664,0.664 -0.664,1.74 0,2.404 0.664,0.663 1.74,0.664 2.404,0"
             style="fill:#ffffff;fill-opacity:1;fill-rule:evenodd;stroke:none"
             id="path1373" /></g><g
           id="g1375"
           transform="translate(54.8838,46.5706)"><path
             d="m 0,0 c 0.662,-0.663 0.662,-1.74 0,-2.404 -0.666,-0.664 -1.742,-0.664 -2.406,0 C -3.07,-1.74 -3.07,-0.664 -2.404,0 -1.742,0.664 -0.664,0.664 0,0"
             style="fill:#ffffff;fill-opacity:1;fill-rule:evenodd;stroke:none"
             id="path1377" /></g><g
           id="g1379"
           transform="translate(57.8897,49.5774)"><path
             d="m 0,0 c 0.664,-0.663 0.664,-1.741 0,-2.404 -0.664,-0.664 -1.74,-0.663 -2.404,0 -0.664,0.664 -0.664,1.74 0,2.404 0.664,0.663 1.74,0.664 2.404,0"
             style="fill:#ffffff;fill-opacity:1;fill-rule:evenodd;stroke:none"
             id="path1381" /></g><g
           id="g1383"
           transform="translate(60.8955,52.5843)"><path
             d="m 0,0 c 0.664,-0.664 0.664,-1.74 0,-2.404 -0.664,-0.664 -1.74,-0.664 -2.404,0 -0.664,0.664 -0.664,1.74 0,2.404 0.664,0.664 1.74,0.664 2.404,0"
             style="fill:#ffffff;fill-opacity:1;fill-rule:evenodd;stroke:none"
             id="path1385" /></g><g
           id="g1387"
           transform="translate(63.9033,55.5901)"><path
             d="m 0,0 c 0.662,-0.663 0.662,-1.74 0,-2.404 -0.664,-0.664 -1.742,-0.663 -2.404,0 -0.664,0.664 -0.664,1.74 0,2.404 0.662,0.664 1.74,0.664 2.404,0"
             style="fill:#ffffff;fill-opacity:1;fill-rule:evenodd;stroke:none"
             id="path1389" /></g><g
           id="g1391"
           transform="translate(66.9092,58.5979)"><path
             d="m 0,0 c 0.664,-0.664 0.664,-1.741 0,-2.405 -0.664,-0.664 -1.74,-0.663 -2.404,0 -0.664,0.664 -0.664,1.74 0,2.404 C -1.74,0.663 -0.664,0.664 0,0"
             style="fill:#ffffff;fill-opacity:1;fill-rule:evenodd;stroke:none"
             id="path1393" /></g><g
           id="g1395"
           transform="translate(69.917,61.6048)"><path
             d="m 0,0 c 0.664,-0.663 0.662,-1.741 -0.002,-2.405 -0.664,-0.664 -1.74,-0.664 -2.404,0 -0.664,0.664 -0.664,1.74 0,2.404 C -1.742,0.663 -0.664,0.664 0,0"
             style="fill:#ffffff;fill-opacity:1;fill-rule:evenodd;stroke:none"
             id="path1397" /></g><g
           id="g1399"
           transform="translate(72.9229,64.6116)"><path
             d="m 0,0 c 0.664,-0.664 0.664,-1.741 0,-2.406 -0.664,-0.664 -1.742,-0.663 -2.404,0 -0.664,0.664 -0.664,1.74 0,2.404 C -1.74,0.663 -0.664,0.664 0,0"
             style="fill:#ffffff;fill-opacity:1;fill-rule:evenodd;stroke:none"
             id="path1401" /></g><g
           id="g1403"
           transform="translate(54.8838,40.5569)"><path
             d="m 0,0 c 0.662,-0.663 0.662,-1.74 0,-2.404 -0.664,-0.664 -1.742,-0.663 -2.404,0 C -3.07,-1.739 -3.07,-0.663 -2.406,0.001 -1.742,0.664 -0.666,0.665 0,0"
             style="fill:#ffffff;fill-opacity:1;fill-rule:evenodd;stroke:none"
             id="path1405" /></g><g
           id="g1407"
           transform="translate(57.8897,43.5647)"><path
             d="M 0,0 C 0.664,-0.664 0.664,-1.741 0,-2.404 -0.664,-3.069 -1.74,-3.068 -2.404,-2.405 -3.068,-1.74 -3.068,-0.664 -2.404,0 -1.74,0.664 -0.664,0.664 0,0"
             style="fill:#ffffff;fill-opacity:1;fill-rule:evenodd;stroke:none"
             id="path1409" /></g><g
           id="g1411"
           transform="translate(60.8955,46.5706)"><path
             d="m 0,0 c 0.664,-0.664 0.664,-1.74 0,-2.404 -0.664,-0.664 -1.74,-0.664 -2.404,0 -0.664,0.664 -0.664,1.74 0,2.404 0.664,0.664 1.74,0.664 2.404,0"
             style="fill:#ffffff;fill-opacity:1;fill-rule:evenodd;stroke:none"
             id="path1413" /></g><g
           id="g1415"
           transform="translate(63.9033,49.5774)"><path
             d="m 0,0 c 0.664,-0.663 0.664,-1.741 0,-2.405 -0.664,-0.664 -1.742,-0.663 -2.404,0 C -3.07,-1.74 -3.07,-0.664 -2.406,0 -1.742,0.664 -0.664,0.665 0,0"
             style="fill:#ffffff;fill-opacity:1;fill-rule:evenodd;stroke:none"
             id="path1417" /></g><g
           id="g1419"
           transform="translate(66.9092,52.5843)"><path
             d="m 0,0 c 0.664,-0.664 0.664,-1.741 0,-2.404 -0.664,-0.664 -1.74,-0.664 -2.404,0 -0.664,0.664 -0.664,1.74 0,2.404 0.664,0.664 1.74,0.664 2.404,0"
             style="fill:#ffffff;fill-opacity:1;fill-rule:evenodd;stroke:none"
             id="path1421" /></g><g
           id="g1423"
           transform="translate(69.917,55.5911)"><path
             d="m 0,0 c 0.664,-0.663 0.662,-1.741 -0.002,-2.405 -0.664,-0.664 -1.74,-0.664 -2.404,0 -0.664,0.664 -0.664,1.74 0,2.404 C -1.742,0.663 -0.664,0.665 0,0"
             style="fill:#ffffff;fill-opacity:1;fill-rule:evenodd;stroke:none"
             id="path1425" /></g><g
           id="g1427"
           transform="translate(72.9229,58.5979)"><path
             d="m 0,0 c 0.664,-0.664 0.664,-1.741 0,-2.405 -0.664,-0.665 -1.74,-0.663 -2.404,0 -0.664,0.665 -0.666,1.74 0,2.405 0.664,0.664 1.74,0.664 2.404,0"
             style="fill:#ffffff;fill-opacity:1;fill-rule:evenodd;stroke:none"
             id="path1429" /></g><g
           id="g1431"
           transform="translate(60.8955,40.5579)"><path
             d="m 0,0 c 0.664,-0.663 0.664,-1.741 0,-2.404 -0.664,-0.665 -1.74,-0.664 -2.404,-10e-4 -0.664,0.664 -0.664,1.74 0,2.405 0.664,0.663 1.74,0.664 2.404,0"
             style="fill:#ffffff;fill-opacity:1;fill-rule:evenodd;stroke:none"
             id="path1433" /></g><g
           id="g1435"
           transform="translate(63.9033,43.5647)"><path
             d="m 0,0 c 0.662,-0.664 0.662,-1.741 0,-2.404 -0.664,-0.664 -1.742,-0.664 -2.404,0 -0.664,0.664 -0.664,1.74 0,2.404 0.662,0.663 1.74,0.664 2.404,0"
             style="fill:#ffffff;fill-opacity:1;fill-rule:evenodd;stroke:none"
             id="path1437" /></g><g
           id="g1439"
           transform="translate(66.9092,46.5706)"><path
             d="m 0,0 c 0.664,-0.663 0.664,-1.74 0,-2.404 -0.664,-0.664 -1.74,-0.664 -2.404,0 -0.664,0.664 -0.664,1.74 0,2.404 0.664,0.664 1.74,0.664 2.404,0"
             style="fill:#ffffff;fill-opacity:1;fill-rule:evenodd;stroke:none"
             id="path1441" /></g><g
           id="g1443"
           transform="translate(69.9151,49.5774)"><path
             d="m 0,0 c 0.664,-0.663 0.664,-1.741 0,-2.404 -0.664,-0.664 -1.74,-0.663 -2.404,0 -0.664,0.664 -0.664,1.74 0,2.404 0.664,0.663 1.74,0.664 2.404,0"
             style="fill:#ffffff;fill-opacity:1;fill-rule:evenodd;stroke:none"
             id="path1445" /></g><g
           id="g1447"
           transform="translate(72.9229,52.5843)"><path
             d="m 0,0 c 0.664,-0.663 0.664,-1.74 0,-2.404 -0.664,-0.664 -1.742,-0.664 -2.404,0 -0.664,0.664 -0.664,1.74 0,2.404 0.664,0.664 1.74,0.664 2.404,0"
             style="fill:#ffffff;fill-opacity:1;fill-rule:evenodd;stroke:none"
             id="path1449" /></g><g
           id="g1451"
           transform="translate(66.9092,40.5569)"><path
             d="m 0,0 c 0.664,-0.663 0.664,-1.74 0,-2.404 -0.664,-0.664 -1.74,-0.663 -2.404,0 -0.664,0.665 -0.664,1.741 0,2.405 C -1.74,0.664 -0.664,0.665 0,0"
             style="fill:#ffffff;fill-opacity:1;fill-rule:evenodd;stroke:none"
             id="path1453" /></g><g
           id="g1455"
           transform="translate(69.917,43.5647)"><path
             d="m 0,0 c 0.662,-0.664 0.662,-1.741 -0.002,-2.405 -0.664,-0.664 -1.74,-0.663 -2.404,0 -0.664,0.665 -0.664,1.741 0,2.405 0.664,0.664 1.74,0.664 2.406,0"
             style="fill:#ffffff;fill-opacity:1;fill-rule:evenodd;stroke:none"
             id="path1457" /></g><g
           id="g1459"
           transform="translate(72.9229,46.5706)"><path
             d="m 0,0 c 0.664,-0.664 0.664,-1.74 0,-2.404 -0.664,-0.664 -1.74,-0.664 -2.404,0 -0.664,0.664 -0.664,1.74 0,2.404 0.662,0.664 1.74,0.664 2.404,0"
             style="fill:#ffffff;fill-opacity:1;fill-rule:evenodd;stroke:none"
             id="path1461" /></g><g
           id="g1463"
           transform="translate(72.9229,40.5579)"><path
             d="m 0,0 c 0.664,-0.663 0.664,-1.741 0,-2.405 -0.664,-0.664 -1.742,-0.663 -2.404,0 -0.664,0.664 -0.664,1.74 0,2.404 C -1.74,0.663 -0.664,0.664 0,0"
             style="fill:#ffffff;fill-opacity:1;fill-rule:evenodd;stroke:none"
             id="path1465" /></g></g></g><g
       id="g1467"><g
         id="g1469"
         clip-path="url(#clipPath1473)"><g
           id="g1475"
           transform="translate(54.6245,13.1517)"><path
             d="m 0,0 c 0.664,-0.663 0.664,-1.741 0,-2.405 -0.665,-0.664 -1.741,-0.663 -2.404,0 -0.664,0.664 -0.665,1.74 0,2.404 C -1.74,0.663 -0.664,0.664 0,0"
             style="fill:#ffffff;fill-opacity:1;fill-rule:evenodd;stroke:none"
             id="path1477" /></g><g
           id="g1479"
           transform="translate(54.6245,7.139)"><path
             d="m 0,0 c 0.664,-0.664 0.664,-1.741 0,-2.406 -0.664,-0.664 -1.741,-0.663 -2.404,0 -0.665,0.665 -0.665,1.741 -10e-4,2.405 C -1.74,0.664 -0.664,0.664 0,0"
             style="fill:#ffffff;fill-opacity:1;fill-rule:evenodd;stroke:none"
             id="path1481" /></g><g
           id="g1483"
           transform="translate(42.5991,19.1643)"><path
             d="m 0,0 c 0.663,-0.663 0.663,-1.74 -0.002,-2.404 -0.664,-0.664 -1.74,-0.664 -2.404,0 -0.664,0.664 -0.664,1.74 0,2.404 0.664,0.664 1.741,0.665 2.406,0"
             style="fill:#ffffff;fill-opacity:1;fill-rule:evenodd;stroke:none"
             id="path1485" /></g><g
           id="g1487"
           transform="translate(42.5991,13.1526)"><path
             d="m 0,0 c 0.663,-0.664 0.662,-1.742 -0.002,-2.406 -0.664,-0.664 -1.74,-0.663 -2.404,0 -0.664,0.664 -0.664,1.74 0,2.404 C -1.742,0.662 -0.664,0.664 0,0"
             style="fill:#ffffff;fill-opacity:1;fill-rule:evenodd;stroke:none"
             id="path1489" /></g><g
           id="g1491"
           transform="translate(45.605,16.1585)"><path
             d="m 0,0 c 0.664,-0.664 0.664,-1.74 -0.001,-2.405 -0.664,-0.664 -1.741,-0.663 -2.404,0 -0.664,0.664 -0.664,1.74 0,2.404 C -1.74,0.664 -0.664,0.664 0,0"
             style="fill:#ffffff;fill-opacity:1;fill-rule:evenodd;stroke:none"
             id="path1493" /></g><g
           id="g1495"
           transform="translate(48.6109,19.1643)"><path
             d="m 0,0 c 0.664,-0.663 0.664,-1.74 0,-2.404 -0.664,-0.664 -1.74,-0.664 -2.404,0 -0.664,0.664 -0.664,1.74 0,2.404 0.664,0.664 1.74,0.664 2.404,0"
             style="fill:#ffffff;fill-opacity:1;fill-rule:evenodd;stroke:none"
             id="path1497" /></g><g
           id="g1499"
           transform="translate(42.5991,7.139)"><path
             d="m 0,0 c 0.663,-0.664 0.662,-1.742 -0.002,-2.406 -0.664,-0.664 -1.74,-0.663 -2.404,0 -0.664,0.665 -0.664,1.741 0,2.405 C -1.742,0.663 -0.665,0.664 0,0"
             style="fill:#ffffff;fill-opacity:1;fill-rule:evenodd;stroke:none"
             id="path1501" /></g><g
           id="g1503"
           transform="translate(45.605,10.1448)"><path
             d="m 0,0 c 0.664,-0.663 0.664,-1.74 0,-2.404 -0.665,-0.665 -1.741,-0.664 -2.404,0 C -3.069,-1.74 -3.07,-0.664 -2.405,0 -1.741,0.664 -0.664,0.665 0,0"
             style="fill:#ffffff;fill-opacity:1;fill-rule:evenodd;stroke:none"
             id="path1505" /></g><g
           id="g1507"
           transform="translate(48.6118,13.1517)"><path
             d="m 0,0 c 0.663,-0.663 0.663,-1.741 -0.001,-2.405 -0.664,-0.664 -1.74,-0.664 -2.404,0 -0.664,0.664 -0.664,1.74 0,2.404 C -1.741,0.664 -0.665,0.665 0,0"
             style="fill:#ffffff;fill-opacity:1;fill-rule:evenodd;stroke:none"
             id="path1509" /></g><g
           id="g1511"
           transform="translate(51.6187,16.1585)"><path
             d="m 0,0 c 0.663,-0.664 0.663,-1.741 -0.001,-2.405 -0.665,-0.665 -1.741,-0.663 -2.404,0 C -3.07,-1.74 -3.07,-0.665 -2.406,0 -1.742,0.664 -0.665,0.664 0,0"
             style="fill:#ffffff;fill-opacity:1;fill-rule:evenodd;stroke:none"
             id="path1513" /></g><g
           id="g1515"
           transform="translate(54.6245,19.1643)"><path
             d="m 0,0 c 0.664,-0.663 0.664,-1.74 0,-2.404 -0.664,-0.664 -1.741,-0.664 -2.404,0 C -3.069,-1.74 -3.069,-0.664 -2.405,0 -1.74,0.664 -0.664,0.665 0,0"
             style="fill:#ffffff;fill-opacity:1;fill-rule:evenodd;stroke:none"
             id="path1517" /></g><g
           id="g1519"
           transform="translate(48.6118,7.139)"><path
             d="m 0,0 c 0.663,-0.664 0.663,-1.741 -0.001,-2.405 -0.664,-0.665 -1.74,-0.663 -2.404,0 -0.664,0.664 -0.664,1.739 0,2.404 C -1.741,0.663 -0.664,0.664 0,0"
             style="fill:#ffffff;fill-opacity:1;fill-rule:evenodd;stroke:none"
             id="path1521" /></g><g
           id="g1523"
           transform="translate(51.6187,10.1448)"><path
             d="m 0,0 c 0.663,-0.663 0.663,-1.74 -0.002,-2.404 -0.664,-0.664 -1.74,-0.664 -2.404,0 -0.664,0.664 -0.664,1.74 0,2.404 0.665,0.664 1.742,0.664 2.406,0"
             style="fill:#ffffff;fill-opacity:1;fill-rule:evenodd;stroke:none"
             id="path1525" /></g><g
           id="g1527"
           transform="translate(57.6314,16.1585)"><path
             d="m 0,0 c 0.663,-0.664 0.663,-1.74 -0.001,-2.405 -0.664,-0.664 -1.74,-0.663 -2.404,0 -0.664,0.664 -0.664,1.74 0,2.404 C -1.741,0.664 -0.664,0.664 0,0"
             style="fill:#ffffff;fill-opacity:1;fill-rule:evenodd;stroke:none"
             id="path1529" /></g><g
           id="g1531"
           transform="translate(57.6314,10.1448)"><path
             d="m 0,0 c 0.663,-0.664 0.663,-1.74 -0.001,-2.404 -0.664,-0.665 -1.74,-0.664 -2.404,0 -0.664,0.664 -0.664,1.74 0,2.404 0.664,0.664 1.74,0.664 2.405,0"
             style="fill:#ffffff;fill-opacity:1;fill-rule:evenodd;stroke:none"
             id="path1533" /></g></g></g><text
       transform="matrix(1,0,0,-1,61.9662,29.3718)"
       style="font-variant:normal;font-weight:normal;font-stretch:semi-condensed;font-size:6.9997px;font-family:'Arial Narrow';-inkscape-font-specification:ArialNarrow;writing-mode:lr-tb;fill:#e30613;fill-opacity:1;fill-rule:nonzero;stroke:none"
       id="text1537"><tspan
         x="0 3.1918633 4.7877946 7.9796581 11.171521 12.767453 14.67837 18.822193 22.966015"
         y="0"
         sodipodi:role="line"
         id="tspan1535">0.75 (CC)</tspan></text><text
       transform="matrix(1,0,0,-1,14.634229,32.045685)"
       style="font-variant:normal;font-weight:normal;font-stretch:normal;font-size:6.9997px;font-family:Arial;-inkscape-font-specification:ArialMT;writing-mode:lr-tb;fill:#e30613;fill-opacity:1;fill-rule:nonzero;stroke:none"
       id="text1541"><tspan
         x="0"
         y="0"
         id="tspan1539">ø</tspan></text><text
       transform="matrix(1,0,0,-1,20.506977,32.045685)"
       style="font-variant:normal;font-weight:normal;font-stretch:semi-condensed;font-size:6.9997px;font-family:'Arial Narrow';-inkscape-font-specification:ArialNarrow;writing-mode:lr-tb;fill:#e30613;fill-opacity:1;fill-rule:nonzero;stroke:none"
       id="text1545"><tspan
         x="0 3.1918633 4.7877946"
         y="0"
         sodipodi:role="line"
         id="tspan1543">0.6</tspan></text><g
       id="g1547"
       transform="translate(60.5454,38.3968)"><path
         d="M 0,0 2.842,-2.842"
         style="fill:none;stroke:#e30613;stroke-width:0.283;stroke-linecap:butt;stroke-linejoin:miter;stroke-miterlimit:22.926;stroke-dasharray:none;stroke-opacity:1"
         id="path1549" /></g><g
       id="g1551"
       transform="translate(66.1978,38.5013)"><path
         d="M 0,0 2.842,-2.843"
         style="fill:none;stroke:#e30613;stroke-width:0.283;stroke-linecap:butt;stroke-linejoin:miter;stroke-miterlimit:22.926;stroke-dasharray:none;stroke-opacity:1"
         id="path1553" /></g><g
       id="g1555"><g
         id="g1557"
         clip-path="url(#clipPath1561)"><text
           transform="matrix(1,0,0,-1,75.4881,52.4429)"
           style="font-variant:normal;font-weight:normal;font-stretch:semi-condensed;font-size:6.9997px;font-family:'Arial Narrow';-inkscape-font-specification:ArialNarrow;writing-mode:lr-tb;fill:#e30613;fill-opacity:1;fill-rule:nonzero;stroke:none"
           id="text1565"><tspan
             x="0 3.1918633 6.3837266 9.5755892"
             y="0"
             sodipodi:role="line"
             id="tspan1563">100%</tspan></text></g></g><g
       id="g1567"
       transform="translate(71.2881,60.304)"><path
         d="M 0,0 4.189,-3.027"
         style="fill:none;stroke:#e30613;stroke-width:0.283;stroke-linecap:butt;stroke-linejoin:miter;stroke-miterlimit:22.926;stroke-dasharray:none;stroke-opacity:1"
         id="path1569" /></g><text
       transform="matrix(1,0,0,-1,27.0947,9.9463)"
       style="font-variant:normal;font-weight:normal;font-stretch:semi-condensed;font-size:7px;font-family:'Arial Narrow';-inkscape-font-specification:ArialNarrow;writing-mode:lr-tb;fill:#e30613;fill-opacity:1;fill-rule:nonzero;stroke:none"
       id="text1573"><tspan
         x="0 4.7810001 6.0549998 9.2469997"
         y="0"
         sodipodi:role="line"
         id="tspan1571">min.</tspan></text><text
       transform="matrix(1,0,0,-1,40.3076,29.6978)"
       style="font-variant:normal;font-weight:normal;font-stretch:semi-condensed;font-size:6.9997px;font-family:'Arial Narrow';-inkscape-font-specification:ArialNarrow;writing-mode:lr-tb;fill:#e30613;fill-opacity:1;fill-rule:nonzero;stroke:none"
       id="text1577"><tspan
         x="0 3.1918633 6.3837266"
         y="0"
         sodipodi:role="line"
         id="tspan1575">45º</tspan></text><g
       id="g1579"
       transform="translate(46.9419,38.3968)"><path
         d="M 0,0 -2.338,-2.338 H 0"
         style="fill:none;stroke:#e30613;stroke-width:0.283;stroke-linecap:butt;stroke-linejoin:miter;stroke-miterlimit:22.926;stroke-dasharray:none;stroke-opacity:1"
         id="path1581" /></g></g></svg>
