<?xml version="1.0" encoding="UTF-8" standalone="no"?>
<svg xmlns:inkscape="http://www.inkscape.org/namespaces/inkscape" xmlns:sodipodi="http://sodipodi.sourceforge.net/DTD/sodipodi-0.dtd" xmlns="http://www.w3.org/2000/svg" xmlns:svg="http://www.w3.org/2000/svg" version="1.1" id="svg8550" width="119.16213" height="91.075867" viewBox="0 0 119.16213 91.075867" sodipodi:docname="ISSprOM 404 Rough open land with scattered trees.svg" inkscape:version="1.2.2 (732a01da63, 2022-12-09)">
  <defs id="defs8554">
    <clipPath id="clipPath8572">
      <path d="M 14.594,39.959 H 71.286 V 68.307 H 14.594 Z" id="path8570"></path>
    </clipPath>
    <clipPath id="clipPath8822">
      <path d="M 42.867,4.82 H 57.04 V 18.992 H 42.867 Z" id="path8820"></path>
    </clipPath>
    <clipPath id="clipPath8882">
      <path d="M 0,68.307 H 89.372 V 0 H 0 Z" id="path8880"></path>
    </clipPath>
    <clipPath id="clipPath8906">
      <path d="M 0,68.307 H 89.372 V 0 H 0 Z" id="path8904"></path>
    </clipPath>
  </defs>
  <g id="g8558" inkscape:groupmode="layer" inkscape:label="Page 1" transform="matrix(1.3333333,0,0,-1.3333333,0,91.075867)">
    <g id="g8560" transform="translate(0,55.9143)">
      <path d="M 0,0 H 2.17 V -9.848 H 4.341 V 0 h 2.17 l -3.24,6.286 z" style="fill:#e30613;fill-opacity:1;fill-rule:nonzero;stroke:none" id="path8562"></path>
    </g>
    <path d="M 14.594,39.959 H 71.286 V 68.307 H 14.594 Z" style="fill:#ffe0a9;fill-opacity:1;fill-rule:nonzero;stroke:none" id="path8564"></path>
    <g id="g8566">
      <g id="g8568" clip-path="url(#clipPath8572)">
        <g id="g8574" transform="translate(16.2661,62.9015)">
          <path d="M 0,0 C 0.795,0.795 0.795,2.05 0.017,2.827 -0.719,3.565 -2.031,3.621 -2.826,2.826 -3.562,2.086 -3.547,0.738 -2.808,0.001 -2.032,-0.776 -0.738,-0.738 0,0" style="fill:#9bcb90;fill-opacity:1;fill-rule:evenodd;stroke:none" id="path8576"></path>
        </g>
        <g id="g8578" transform="translate(20.2744,66.9107)">
          <path d="m 0,0 c 0.795,0.794 0.795,2.05 0.019,2.826 -0.739,0.739 -2.05,0.795 -2.845,0 C -3.562,2.085 -3.546,0.738 -2.808,0 -2.031,-0.776 -0.738,-0.738 0,0" style="fill:#9bcb90;fill-opacity:1;fill-rule:evenodd;stroke:none" id="path8580"></path>
        </g>
        <g id="g8582" transform="translate(16.2662,54.8837)">
          <path d="M 0,0 C 0.795,0.795 0.793,2.05 0.017,2.828 -0.721,3.565 -2.031,3.621 -2.826,2.826 -3.563,2.086 -3.547,0.739 -2.809,0.002 -2.033,-0.775 -0.738,-0.738 0,0" style="fill:#9bcb90;fill-opacity:1;fill-rule:evenodd;stroke:none" id="path8584"></path>
        </g>
        <g id="g8586" transform="translate(20.2741,58.8934)">
          <path d="M 0,0 C 0.795,0.794 0.795,2.05 0.019,2.827 -0.719,3.564 -2.031,3.62 -2.826,2.826 -3.563,2.086 -3.545,0.738 -2.809,0 -2.031,-0.776 -0.738,-0.738 0,0" style="fill:#9bcb90;fill-opacity:1;fill-rule:evenodd;stroke:none" id="path8588"></path>
        </g>
        <g id="g8590" transform="translate(24.2836,62.9015)">
          <path d="M 0,0 C 0.795,0.795 0.795,2.05 0.017,2.827 -0.721,3.566 -2.031,3.621 -2.826,2.826 -3.562,2.086 -3.547,0.74 -2.808,0.002 -2.032,-0.774 -0.738,-0.738 0,0" style="fill:#9bcb90;fill-opacity:1;fill-rule:evenodd;stroke:none" id="path8592"></path>
        </g>
        <g id="g8594" transform="translate(28.2917,66.911)">
          <path d="M 0,0 C 0.795,0.794 0.795,2.05 0.019,2.827 -0.719,3.564 -2.031,3.62 -2.826,2.826 -3.563,2.086 -3.545,0.738 -2.807,0.001 -2.031,-0.776 -0.738,-0.738 0,0" style="fill:#9bcb90;fill-opacity:1;fill-rule:evenodd;stroke:none" id="path8596"></path>
        </g>
        <g id="g8598" transform="translate(16.2646,46.8664)">
          <path d="M 0,0 C 0.795,0.795 0.795,2.049 0.019,2.827 -0.72,3.564 -2.031,3.62 -2.826,2.826 -3.561,2.086 -3.546,0.739 -2.808,0.002 -2.031,-0.775 -0.738,-0.738 0,0" style="fill:#ffffff;fill-opacity:1;fill-rule:evenodd;stroke:none" id="path8600"></path>
        </g>
        <g id="g8602" transform="translate(20.2741,50.8758)">
          <path d="m 0,0 c 0.795,0.795 0.795,2.05 0.017,2.826 -0.736,0.738 -2.048,0.795 -2.843,0 C -3.563,2.086 -3.545,0.738 -2.809,0 -2.031,-0.776 -0.738,-0.738 0,0" style="fill:#ffffff;fill-opacity:1;fill-rule:evenodd;stroke:none" id="path8604"></path>
        </g>
        <g id="g8606" transform="translate(24.2838,54.8846)">
          <path d="M 0,0 C 0.793,0.794 0.795,2.05 0.017,2.827 -0.721,3.565 -2.033,3.62 -2.826,2.826 -3.563,2.085 -3.547,0.738 -2.809,0.001 -2.033,-0.776 -0.738,-0.738 0,0" style="fill:#9bcb90;fill-opacity:1;fill-rule:evenodd;stroke:none" id="path8608"></path>
        </g>
        <g id="g8610" transform="translate(28.2917,58.8934)">
          <path d="M 0,0 C 0.795,0.795 0.795,2.05 0.019,2.827 -0.719,3.564 -2.031,3.621 -2.826,2.826 -3.563,2.086 -3.545,0.738 -2.807,0.001 -2.031,-0.776 -0.738,-0.738 0,0" style="fill:#9bcb90;fill-opacity:1;fill-rule:evenodd;stroke:none" id="path8612"></path>
        </g>
        <g id="g8614" transform="translate(32.3013,62.9022)">
          <path d="M 0,0 C 0.793,0.794 0.795,2.05 0.017,2.827 -0.721,3.565 -2.033,3.62 -2.826,2.826 -3.563,2.085 -3.547,0.739 -2.809,0.001 -2.033,-0.775 -0.738,-0.738 0,0" style="fill:#9bcb90;fill-opacity:1;fill-rule:evenodd;stroke:none" id="path8616"></path>
        </g>
        <g id="g8618" transform="translate(36.3092,66.911)">
          <path d="M 0,0 C 0.795,0.795 0.795,2.05 0.019,2.827 -0.719,3.564 -2.031,3.621 -2.826,2.826 -3.563,2.086 -3.545,0.738 -2.807,0.001 -2.031,-0.776 -0.738,-0.738 0,0" style="fill:#9bcb90;fill-opacity:1;fill-rule:evenodd;stroke:none" id="path8620"></path>
        </g>
        <g id="g8622" transform="translate(16.2644,38.8486)">
          <path d="M 0,0 C 0.795,0.795 0.795,2.051 0.019,2.828 -0.719,3.566 -2.031,3.621 -2.826,2.826 -3.563,2.086 -3.545,0.74 -2.807,0.002 -2.031,-0.775 -0.738,-0.738 0,0" style="fill:#ffffff;fill-opacity:1;fill-rule:evenodd;stroke:none" id="path8624"></path>
        </g>
        <g id="g8626" transform="translate(20.2738,42.8584)">
          <path d="m 0,0 c 0.795,0.794 0.795,2.05 0.017,2.826 -0.738,0.738 -2.048,0.794 -2.843,0 C -3.562,2.086 -3.547,0.738 -2.808,0 -2.032,-0.776 -0.738,-0.738 0,0" style="fill:#ffffff;fill-opacity:1;fill-rule:evenodd;stroke:none" id="path8628"></path>
        </g>
        <g id="g8630" transform="translate(24.284,46.8668)">
          <path d="M 0,0 C 0.793,0.794 0.793,2.05 0.017,2.827 -0.721,3.566 -2.033,3.621 -2.827,2.826 -3.563,2.086 -3.548,0.739 -2.809,0.001 -2.033,-0.776 -0.738,-0.738 0,0" style="fill:#ffffff;fill-opacity:1;fill-rule:evenodd;stroke:none" id="path8632"></path>
        </g>
        <g id="g8634" transform="translate(28.2914,50.8761)">
          <path d="M 0,0 C 0.795,0.795 0.795,2.049 0.019,2.826 -0.719,3.564 -2.03,3.62 -2.825,2.825 -3.562,2.086 -3.546,0.738 -2.808,0 -2.032,-0.776 -0.738,-0.738 0,0" style="fill:#ffffff;fill-opacity:1;fill-rule:evenodd;stroke:none" id="path8636"></path>
        </g>
        <g id="g8638" transform="translate(32.3015,54.8844)">
          <path d="M 0,0 C 0.794,0.794 0.794,2.051 0.017,2.827 -0.721,3.566 -2.033,3.621 -2.826,2.826 -3.563,2.086 -3.548,0.739 -2.809,0.001 -2.033,-0.775 -0.738,-0.738 0,0" style="fill:#9bcb90;fill-opacity:1;fill-rule:evenodd;stroke:none" id="path8640"></path>
        </g>
        <g id="g8642" transform="translate(36.3092,58.8934)">
          <path d="M 0,0 C 0.795,0.795 0.795,2.05 0.019,2.827 -0.719,3.565 -2.031,3.621 -2.826,2.826 -3.563,2.086 -3.545,0.739 -2.807,0.001 -2.031,-0.775 -0.738,-0.738 0,0" style="fill:#9bcb90;fill-opacity:1;fill-rule:evenodd;stroke:none" id="path8644"></path>
        </g>
        <g id="g8646" transform="translate(40.3189,62.9031)">
          <path d="m 0,0 c 0.795,0.794 0.793,2.05 0.017,2.826 -0.738,0.738 -2.048,0.794 -2.843,0 C -3.563,2.085 -3.547,0.738 -2.809,0 -2.033,-0.776 -0.738,-0.739 0,0" style="fill:#9bcb90;fill-opacity:1;fill-rule:evenodd;stroke:none" id="path8648"></path>
        </g>
        <g id="g8650" transform="translate(44.3269,66.9111)">
          <path d="M 0,0 C 0.795,0.795 0.795,2.05 0.019,2.827 -0.719,3.565 -2.031,3.621 -2.826,2.826 -3.563,2.086 -3.545,0.739 -2.807,0.001 -2.031,-0.775 -0.738,-0.738 0,0" style="fill:#9bcb90;fill-opacity:1;fill-rule:evenodd;stroke:none" id="path8652"></path>
        </g>
        <g id="g8654" transform="translate(24.282,38.8494)">
          <path d="M 0,0 C 0.795,0.794 0.795,2.05 0.019,2.827 -0.719,3.565 -2.031,3.62 -2.826,2.826 -3.563,2.085 -3.545,0.739 -2.807,0.001 -2.031,-0.775 -0.738,-0.738 0,0" style="fill:#ffffff;fill-opacity:1;fill-rule:evenodd;stroke:none" id="path8656"></path>
        </g>
        <g id="g8658" transform="translate(28.2915,42.8584)">
          <path d="m 0,0 c 0.795,0.795 0.795,2.05 0.017,2.826 -0.738,0.738 -2.048,0.795 -2.843,0 C -3.562,2.086 -3.547,0.738 -2.808,0.001 -2.032,-0.776 -0.738,-0.738 0,0" style="fill:#ffffff;fill-opacity:1;fill-rule:evenodd;stroke:none" id="path8660"></path>
        </g>
        <g id="g8662" transform="translate(32.2998,46.8677)">
          <path d="m 0,0 c 0.795,0.794 0.795,2.05 0.019,2.826 -0.739,0.739 -2.05,0.795 -2.846,0 C -3.561,2.085 -3.546,0.738 -2.808,0 -2.031,-0.776 -0.738,-0.738 0,0" style="fill:#ffffff;fill-opacity:1;fill-rule:evenodd;stroke:none" id="path8664"></path>
        </g>
        <g id="g8666" transform="translate(36.3092,50.8759)">
          <path d="M 0,0 C 0.795,0.795 0.795,2.05 0.017,2.828 -0.719,3.565 -2.031,3.621 -2.826,2.826 -3.563,2.086 -3.545,0.739 -2.809,0.002 -2.031,-0.775 -0.738,-0.738 0,0" style="fill:#ffffff;fill-opacity:1;fill-rule:evenodd;stroke:none" id="path8668"></path>
        </g>
        <g id="g8670" transform="translate(40.3174,54.8854)">
          <path d="m 0,0 c 0.795,0.794 0.795,2.05 0.019,2.826 -0.739,0.739 -2.05,0.795 -2.846,0 C -3.562,2.085 -3.546,0.738 -2.808,0 -2.031,-0.776 -0.738,-0.738 0,0" style="fill:#9bcb90;fill-opacity:1;fill-rule:evenodd;stroke:none" id="path8672"></path>
        </g>
        <g id="g8674" transform="translate(44.3268,58.8944)">
          <path d="M 0,0 C 0.795,0.794 0.795,2.049 0.017,2.827 -0.719,3.564 -2.031,3.62 -2.826,2.826 -3.563,2.085 -3.545,0.738 -2.809,0.001 -2.031,-0.776 -0.738,-0.739 0,0" style="fill:#9bcb90;fill-opacity:1;fill-rule:evenodd;stroke:none" id="path8676"></path>
        </g>
        <g id="g8678" transform="translate(48.3367,62.9029)">
          <path d="m 0,0 c 0.794,0.795 0.794,2.05 0.017,2.827 -0.738,0.738 -2.05,0.795 -2.843,0 C -3.563,2.086 -3.548,0.738 -2.809,0 -2.033,-0.776 -0.738,-0.738 0,0" style="fill:#9bcb90;fill-opacity:1;fill-rule:evenodd;stroke:none" id="path8680"></path>
        </g>
        <g id="g8682" transform="translate(52.3444,66.912)">
          <path d="M 0,0 C 0.795,0.794 0.795,2.05 0.019,2.827 -0.719,3.565 -2.031,3.62 -2.826,2.826 -3.563,2.085 -3.545,0.738 -2.809,0.001 -2.031,-0.776 -0.738,-0.738 0,0" style="fill:#ffffff;fill-opacity:1;fill-rule:evenodd;stroke:none" id="path8684"></path>
        </g>
        <g id="g8686" transform="translate(32.2995,38.8504)">
          <path d="m 0,0 c 0.795,0.794 0.795,2.05 0.019,2.826 -0.738,0.738 -2.05,0.794 -2.845,0 C -3.563,2.086 -3.545,0.738 -2.807,0 -2.031,-0.776 -0.738,-0.738 0,0" style="fill:#ffffff;fill-opacity:1;fill-rule:evenodd;stroke:none" id="path8688"></path>
        </g>
        <g id="g8690" transform="translate(36.309,42.8585)">
          <path d="M 0,0 C 0.795,0.795 0.795,2.05 0.017,2.827 -0.721,3.566 -2.03,3.621 -2.826,2.826 -3.562,2.086 -3.547,0.739 -2.808,0.001 -2.032,-0.775 -0.738,-0.738 0,0" style="fill:#ffffff;fill-opacity:1;fill-rule:evenodd;stroke:none" id="path8692"></path>
        </g>
        <g id="g8694" transform="translate(40.3171,46.868)">
          <path d="m 0,0 c 0.795,0.794 0.795,2.05 0.019,2.826 -0.738,0.738 -2.05,0.794 -2.845,0 C -3.563,2.086 -3.545,0.738 -2.807,0 -2.031,-0.776 -0.738,-0.738 0,0" style="fill:#ffffff;fill-opacity:1;fill-rule:evenodd;stroke:none" id="path8696"></path>
        </g>
        <g id="g8698" transform="translate(44.3266,50.8761)">
          <path d="M 0,0 C 0.795,0.795 0.795,2.05 0.017,2.827 -0.721,3.566 -2.031,3.621 -2.826,2.826 -3.562,2.086 -3.547,0.74 -2.808,0.002 -2.032,-0.774 -0.738,-0.738 0,0" style="fill:#ffffff;fill-opacity:1;fill-rule:evenodd;stroke:none" id="path8700"></path>
        </g>
        <g id="g8702" transform="translate(48.3364,54.8856)">
          <path d="m 0,0 c 0.793,0.795 0.793,2.05 0.017,2.826 -0.738,0.738 -2.05,0.795 -2.843,0 C -3.564,2.086 -3.547,0.738 -2.809,0 -2.033,-0.776 -0.74,-0.738 0,0" style="fill:#9bcb90;fill-opacity:1;fill-rule:evenodd;stroke:none" id="path8704"></path>
        </g>
        <g id="g8706" transform="translate(52.3442,58.8946)">
          <path d="m 0,0 c 0.795,0.794 0.795,2.049 0.017,2.826 -0.738,0.739 -2.048,0.794 -2.843,0 C -3.562,2.086 -3.547,0.739 -2.808,0.001 -2.032,-0.775 -0.738,-0.738 0,0" style="fill:#ffffff;fill-opacity:1;fill-rule:evenodd;stroke:none" id="path8708"></path>
        </g>
        <g id="g8710" transform="translate(56.3543,62.9029)">
          <path d="m 0,0 c 0.794,0.795 0.794,2.05 0.017,2.827 -0.738,0.739 -2.05,0.795 -2.844,0 C -3.563,2.086 -3.548,0.738 -2.809,0 -2.033,-0.776 -0.738,-0.738 0,0" style="fill:#ffffff;fill-opacity:1;fill-rule:evenodd;stroke:none" id="path8712"></path>
        </g>
        <g id="g8714" transform="translate(60.362,66.9119)">
          <path d="M 0,0 C 0.795,0.794 0.795,2.051 0.019,2.827 -0.719,3.565 -2.031,3.62 -2.826,2.826 -3.563,2.086 -3.545,0.739 -2.807,0.001 -2.031,-0.775 -0.738,-0.738 0,0" style="fill:#ffffff;fill-opacity:1;fill-rule:evenodd;stroke:none" id="path8716"></path>
        </g>
        <g id="g8718" transform="translate(40.317,38.8505)">
          <path d="M 0,0 C 0.795,0.795 0.795,2.05 0.019,2.827 -0.719,3.564 -2.031,3.621 -2.826,2.826 -3.562,2.086 -3.545,0.738 -2.809,0 -2.031,-0.776 -0.738,-0.738 0,0" style="fill:#ffffff;fill-opacity:1;fill-rule:evenodd;stroke:none" id="path8720"></path>
        </g>
        <g id="g8722" transform="translate(44.3267,42.8592)">
          <path d="M 0,0 C 0.793,0.794 0.795,2.05 0.017,2.827 -0.721,3.565 -2.033,3.62 -2.826,2.826 -3.563,2.085 -3.547,0.739 -2.809,0.001 -2.033,-0.775 -0.738,-0.738 0,0" style="fill:#ffffff;fill-opacity:1;fill-rule:evenodd;stroke:none" id="path8724"></path>
        </g>
        <g id="g8726" transform="translate(48.3347,46.868)">
          <path d="M 0,0 C 0.795,0.795 0.795,2.05 0.019,2.827 -0.719,3.564 -2.031,3.621 -2.826,2.826 -3.563,2.086 -3.545,0.738 -2.807,0.001 -2.031,-0.776 -0.738,-0.738 0,0" style="fill:#ffffff;fill-opacity:1;fill-rule:evenodd;stroke:none" id="path8728"></path>
        </g>
        <g id="g8730" transform="translate(52.3442,50.8779)">
          <path d="m 0,0 c 0.795,0.794 0.795,2.049 0.017,2.826 -0.738,0.738 -2.048,0.794 -2.843,0 C -3.562,2.084 -3.547,0.738 -2.808,0 -2.032,-0.776 -0.738,-0.739 0,0" style="fill:#ffffff;fill-opacity:1;fill-rule:evenodd;stroke:none" id="path8732"></path>
        </g>
        <g id="g8734" transform="translate(56.3525,54.8854)">
          <path d="M 0,0 C 0.795,0.795 0.795,2.05 0.019,2.827 -0.72,3.565 -2.031,3.622 -2.826,2.826 -3.561,2.086 -3.546,0.738 -2.807,0.001 -2.031,-0.776 -0.738,-0.738 0,0" style="fill:#ffffff;fill-opacity:1;fill-rule:evenodd;stroke:none" id="path8736"></path>
        </g>
        <g id="g8738" transform="translate(60.3618,58.8955)">
          <path d="m 0,0 c 0.795,0.794 0.795,2.05 0.017,2.826 -0.736,0.738 -2.048,0.794 -2.843,0 C -3.562,2.085 -3.547,0.738 -2.808,0 -2.032,-0.776 -0.738,-0.738 0,0" style="fill:#ffffff;fill-opacity:1;fill-rule:evenodd;stroke:none" id="path8740"></path>
        </g>
        <g id="g8742" transform="translate(64.3701,62.9029)">
          <path d="M 0,0 C 0.795,0.795 0.795,2.05 0.019,2.828 -0.72,3.566 -2.031,3.622 -2.827,2.827 -3.562,2.086 -3.546,0.739 -2.808,0.002 -2.031,-0.775 -0.738,-0.738 0,0" style="fill:#ffffff;fill-opacity:1;fill-rule:evenodd;stroke:none" id="path8744"></path>
        </g>
        <g id="g8746" transform="translate(68.3796,66.9129)">
          <path d="m 0,0 c 0.795,0.794 0.795,2.05 0.017,2.826 -0.736,0.738 -2.048,0.794 -2.843,0 C -3.563,2.085 -3.546,0.738 -2.809,0 -2.031,-0.776 -0.738,-0.738 0,0" style="fill:#ffffff;fill-opacity:1;fill-rule:evenodd;stroke:none" id="path8748"></path>
        </g>
        <g id="g8750" transform="translate(48.3347,38.8505)">
          <path d="M 0,0 C 0.795,0.795 0.795,2.05 0.019,2.827 -0.719,3.565 -2.031,3.621 -2.826,2.826 -3.563,2.086 -3.545,0.739 -2.807,0.001 -2.031,-0.775 -0.738,-0.738 0,0" style="fill:#ffffff;fill-opacity:1;fill-rule:evenodd;stroke:none" id="path8752"></path>
        </g>
        <g id="g8754" transform="translate(52.3443,42.8592)">
          <path d="M 0,0 C 0.793,0.794 0.795,2.05 0.017,2.827 -0.721,3.565 -2.033,3.62 -2.826,2.826 -3.563,2.086 -3.547,0.739 -2.809,0.001 -2.033,-0.775 -0.738,-0.738 0,0" style="fill:#ffffff;fill-opacity:1;fill-rule:evenodd;stroke:none" id="path8756"></path>
        </g>
        <g id="g8758" transform="translate(56.3522,46.8681)">
          <path d="M 0,0 C 0.795,0.795 0.795,2.05 0.019,2.827 -0.719,3.565 -2.031,3.621 -2.826,2.826 -3.563,2.086 -3.545,0.739 -2.807,0.001 -2.031,-0.775 -0.738,-0.738 0,0" style="fill:#ffffff;fill-opacity:1;fill-rule:evenodd;stroke:none" id="path8760"></path>
        </g>
        <g id="g8762" transform="translate(60.3618,50.8779)">
          <path d="m 0,0 c 0.795,0.794 0.795,2.049 0.017,2.826 -0.738,0.738 -2.048,0.794 -2.843,0 C -3.562,2.086 -3.547,0.738 -2.808,0 -2.032,-0.776 -0.738,-0.738 0,0" style="fill:#ffffff;fill-opacity:1;fill-rule:evenodd;stroke:none" id="path8764"></path>
        </g>
        <g id="g8766" transform="translate(64.3699,54.8857)">
          <path d="M 0,0 C 0.795,0.795 0.795,2.05 0.019,2.828 -0.719,3.566 -2.031,3.621 -2.826,2.826 -3.563,2.086 -3.545,0.739 -2.807,0.001 -2.031,-0.775 -0.738,-0.738 0,0" style="fill:#ffffff;fill-opacity:1;fill-rule:evenodd;stroke:none" id="path8768"></path>
        </g>
        <g id="g8770" transform="translate(68.3793,58.8955)">
          <path d="m 0,0 c 0.795,0.794 0.795,2.05 0.017,2.826 -0.738,0.738 -2.048,0.794 -2.843,0 C -3.562,2.086 -3.547,0.738 -2.808,0 -2.032,-0.776 -0.738,-0.738 0,0" style="fill:#ffffff;fill-opacity:1;fill-rule:evenodd;stroke:none" id="path8772"></path>
        </g>
        <g id="g8774" transform="translate(72.3875,62.9032)">
          <path d="M 0,0 C 0.795,0.795 0.795,2.05 0.019,2.828 -0.719,3.566 -2.031,3.621 -2.826,2.826 -3.563,2.086 -3.546,0.74 -2.807,0.002 -2.031,-0.774 -0.738,-0.738 0,0" style="fill:#ffffff;fill-opacity:1;fill-rule:evenodd;stroke:none" id="path8776"></path>
        </g>
        <g id="g8778" transform="translate(56.3522,38.8505)">
          <path d="M 0,0 C 0.795,0.795 0.795,2.05 0.017,2.828 -0.719,3.565 -2.031,3.621 -2.826,2.826 -3.563,2.086 -3.545,0.739 -2.809,0.002 -2.031,-0.775 -0.738,-0.738 0,0" style="fill:#ffffff;fill-opacity:1;fill-rule:evenodd;stroke:none" id="path8780"></path>
        </g>
        <g id="g8782" transform="translate(60.3621,42.86)">
          <path d="m 0,0 c 0.794,0.795 0.794,2.05 0.017,2.826 -0.738,0.739 -2.05,0.796 -2.844,0 C -3.563,2.085 -3.548,0.738 -2.809,0 -2.033,-0.776 -0.74,-0.738 0,0" style="fill:#ffffff;fill-opacity:1;fill-rule:evenodd;stroke:none" id="path8784"></path>
        </g>
        <g id="g8786" transform="translate(64.3698,46.869)">
          <path d="M 0,0 C 0.795,0.794 0.795,2.049 0.017,2.827 -0.719,3.564 -2.031,3.62 -2.826,2.826 -3.563,2.085 -3.545,0.738 -2.809,0.001 -2.031,-0.776 -0.738,-0.738 0,0" style="fill:#ffffff;fill-opacity:1;fill-rule:evenodd;stroke:none" id="path8788"></path>
        </g>
        <g id="g8790" transform="translate(68.3795,50.8777)">
          <path d="M 0,0 C 0.793,0.795 0.795,2.05 0.017,2.827 -0.721,3.564 -2.033,3.621 -2.826,2.826 -3.563,2.086 -3.547,0.738 -2.809,0 -2.033,-0.776 -0.738,-0.738 0,0" style="fill:#ffffff;fill-opacity:1;fill-rule:evenodd;stroke:none" id="path8792"></path>
        </g>
        <g id="g8794" transform="translate(72.3875,54.8866)">
          <path d="M 0,0 C 0.795,0.794 0.795,2.05 0.019,2.827 -0.719,3.565 -2.031,3.62 -2.826,2.826 -3.563,2.085 -3.546,0.739 -2.807,0.001 -2.031,-0.775 -0.738,-0.738 0,0" style="fill:#ffffff;fill-opacity:1;fill-rule:evenodd;stroke:none" id="path8796"></path>
        </g>
        <g id="g8798" transform="translate(64.3696,38.8516)">
          <path d="m 0,0 c 0.795,0.794 0.795,2.049 0.017,2.826 -0.738,0.739 -2.048,0.794 -2.843,0 C -3.562,2.085 -3.547,0.739 -2.808,0.001 -2.032,-0.775 -0.738,-0.739 0,0" style="fill:#ffffff;fill-opacity:1;fill-rule:evenodd;stroke:none" id="path8800"></path>
        </g>
        <g id="g8802" transform="translate(68.3797,42.8599)">
          <path d="m 0,0 c 0.793,0.795 0.793,2.05 0.017,2.827 -0.738,0.738 -2.05,0.795 -2.844,0 C -3.563,2.086 -3.548,0.738 -2.809,0 -2.033,-0.776 -0.738,-0.738 0,0" style="fill:#ffffff;fill-opacity:1;fill-rule:evenodd;stroke:none" id="path8804"></path>
        </g>
        <g id="g8806" transform="translate(72.3871,46.8693)">
          <path d="M 0,0 C 0.795,0.794 0.795,2.049 0.019,2.826 -0.719,3.564 -2.03,3.62 -2.826,2.825 -3.562,2.085 -3.546,0.739 -2.808,0.001 -2.032,-0.775 -0.738,-0.738 0,0" style="fill:#ffffff;fill-opacity:1;fill-rule:evenodd;stroke:none" id="path8808"></path>
        </g>
        <g id="g8810" transform="translate(72.3872,38.8526)">
          <path d="m 0,0 c 0.795,0.794 0.795,2.049 0.017,2.826 -0.738,0.738 -2.048,0.794 -2.843,0 C -3.562,2.085 -3.547,0.738 -2.808,0 -2.032,-0.776 -0.738,-0.738 0,0" style="fill:#ffffff;fill-opacity:1;fill-rule:evenodd;stroke:none" id="path8812"></path>
        </g>
      </g>
    </g>
    <path d="M 42.867,4.82 H 57.04 V 18.992 H 42.867 Z" style="fill:#ffe0a9;fill-opacity:1;fill-rule:evenodd;stroke:none" id="path8814"></path>
    <g id="g8816">
      <g id="g8818" clip-path="url(#clipPath8822)">
        <g id="g8824" transform="translate(44.4148,11.5813)">
          <path d="M 0,0 C 0.795,0.794 0.795,2.05 0.019,2.827 -0.719,3.564 -2.031,3.62 -2.826,2.826 -3.562,2.086 -3.545,0.738 -2.809,0 -2.031,-0.776 -0.738,-0.738 0,0" style="fill:#ffffff;fill-opacity:1;fill-rule:evenodd;stroke:none" id="path8826"></path>
        </g>
        <g id="g8828" transform="translate(48.4244,15.5894)">
          <path d="M 0,0 C 0.795,0.795 0.795,2.05 0.017,2.827 -0.721,3.566 -2.031,3.621 -2.826,2.826 -3.562,2.086 -3.547,0.74 -2.808,0.002 -2.032,-0.774 -0.738,-0.738 0,0" style="fill:#ffffff;fill-opacity:1;fill-rule:evenodd;stroke:none" id="path8830"></path>
        </g>
        <g id="g8832" transform="translate(44.4149,3.5636)">
          <path d="m 0,0 c 0.795,0.795 0.795,2.05 0.017,2.826 -0.736,0.738 -2.048,0.795 -2.843,0 C -3.563,2.086 -3.545,0.738 -2.809,0 -2.031,-0.776 -0.738,-0.738 0,0" style="fill:#ffffff;fill-opacity:1;fill-rule:evenodd;stroke:none" id="path8834"></path>
        </g>
        <g id="g8836" transform="translate(48.4246,7.5724)">
          <path d="M 0,0 C 0.793,0.794 0.795,2.05 0.017,2.827 -0.721,3.565 -2.033,3.62 -2.826,2.826 -3.563,2.085 -3.547,0.738 -2.809,0.001 -2.033,-0.776 -0.738,-0.738 0,0" style="fill:#ffffff;fill-opacity:1;fill-rule:evenodd;stroke:none" id="path8838"></path>
        </g>
        <g id="g8840" transform="translate(52.4325,11.5812)">
          <path d="M 0,0 C 0.795,0.795 0.795,2.05 0.019,2.827 -0.719,3.564 -2.031,3.621 -2.826,2.826 -3.563,2.086 -3.545,0.738 -2.807,0.001 -2.031,-0.776 -0.738,-0.738 0,0" style="fill:#ffffff;fill-opacity:1;fill-rule:evenodd;stroke:none" id="path8842"></path>
        </g>
        <g id="g8844" transform="translate(56.4422,15.59)">
          <path d="M 0,0 C 0.793,0.794 0.795,2.05 0.017,2.827 -0.721,3.565 -2.033,3.62 -2.826,2.826 -3.563,2.085 -3.547,0.739 -2.809,0.001 -2.033,-0.775 -0.738,-0.738 0,0" style="fill:#ffffff;fill-opacity:1;fill-rule:evenodd;stroke:none" id="path8846"></path>
        </g>
        <g id="g8848" transform="translate(52.4321,3.5639)">
          <path d="M 0,0 C 0.795,0.795 0.795,2.049 0.019,2.826 -0.719,3.564 -2.03,3.62 -2.825,2.825 -3.562,2.086 -3.546,0.738 -2.808,0 -2.032,-0.776 -0.738,-0.738 0,0" style="fill:#ffffff;fill-opacity:1;fill-rule:evenodd;stroke:none" id="path8850"></path>
        </g>
        <g id="g8852" transform="translate(56.4423,7.5722)">
          <path d="M 0,0 C 0.794,0.794 0.794,2.051 0.017,2.827 -0.721,3.566 -2.033,3.621 -2.826,2.826 -3.563,2.086 -3.548,0.739 -2.809,0.001 -2.033,-0.775 -0.738,-0.738 0,0" style="fill:#ffffff;fill-opacity:1;fill-rule:evenodd;stroke:none" id="path8854"></path>
        </g>
      </g>
    </g>
    <g id="g8856" transform="translate(56.2431,38.7287)">
      <path d="M 0,0 2.837,-2.836" style="fill:none;stroke:#e30613;stroke-width:0.283;stroke-linecap:butt;stroke-linejoin:miter;stroke-miterlimit:22.926;stroke-dasharray:none;stroke-opacity:1" id="path8858"></path>
    </g>
    <g id="g8860" transform="translate(64.3994,38.7287)">
      <path d="M 0,0 2.836,-2.836" style="fill:none;stroke:#e30613;stroke-width:0.283;stroke-linecap:butt;stroke-linejoin:miter;stroke-miterlimit:22.926;stroke-dasharray:none;stroke-opacity:1" id="path8862"></path>
    </g>
    <text xml:space="preserve" transform="matrix(1,0,0,-1,60.3752,29.4502)" style="font-variant:normal;font-weight:normal;font-stretch:semi-condensed;font-size:6.9997px;font-family:'Arial Narrow';-inkscape-font-specification:ArialNarrow;writing-mode:lr-tb;fill:#e30613;fill-opacity:1;fill-rule:nonzero;stroke:none" id="text8866">
      <tspan x="0 3.1918633 4.7877946" y="0" sodipodi:role="line" id="tspan8864">1.0</tspan>
    </text>
    <text xml:space="preserve" transform="matrix(1,0,0,-1,14.18418,31.998091)" style="font-variant:normal;font-weight:normal;font-stretch:normal;font-size:6.9997px;font-family:Arial;-inkscape-font-specification:ArialMT;writing-mode:lr-tb;fill:#e30613;fill-opacity:1;fill-rule:nonzero;stroke:none" id="text8870">
      <tspan x="0" y="0" id="tspan8868">ø</tspan>
    </text>
    <text xml:space="preserve" transform="matrix(1,0,0,-1,20.056928,31.998091)" style="font-variant:normal;font-weight:normal;font-stretch:semi-condensed;font-size:6.9997px;font-family:'Arial Narrow';-inkscape-font-specification:ArialNarrow;writing-mode:lr-tb;fill:#e30613;fill-opacity:1;fill-rule:nonzero;stroke:none" id="text8874">
      <tspan x="0 3.1918633 4.7877946" y="0" sodipodi:role="line" id="tspan8872">0.7</tspan>
    </text>
    <g id="g8876">
      <g id="g8878" clip-path="url(#clipPath8882)">
        <text xml:space="preserve" transform="matrix(1,0,0,-1,77.8843,57.8781)" style="font-variant:normal;font-weight:normal;font-stretch:semi-condensed;font-size:6.9997px;font-family:'Arial Narrow';-inkscape-font-specification:ArialNarrow;writing-mode:lr-tb;fill:#e30613;fill-opacity:1;fill-rule:nonzero;stroke:none" id="text8886">
          <tspan x="0 3.1918633 6.3837266" y="0" sodipodi:role="line" id="tspan8884">50%</tspan>
        </text>
      </g>
    </g>
    <g id="g8888" transform="translate(71.0117,60.428)">
      <path d="M 0,0 H 5.669" style="fill:none;stroke:#e30613;stroke-width:0.283;stroke-linecap:butt;stroke-linejoin:miter;stroke-miterlimit:22.926;stroke-dasharray:none;stroke-opacity:1" id="path8890"></path>
    </g>
    <text xml:space="preserve" transform="matrix(1,0,0,-1,38.499,29.7046)" style="font-variant:normal;font-weight:normal;font-stretch:semi-condensed;font-size:6.9997px;font-family:'Arial Narrow';-inkscape-font-specification:ArialNarrow;writing-mode:lr-tb;fill:#e30613;fill-opacity:1;fill-rule:nonzero;stroke:none" id="text8894">
      <tspan x="0 3.1918633 6.3837266" y="0" sodipodi:role="line" id="tspan8892">45º</tspan>
    </text>
    <g id="g8896" transform="translate(45.1337,38.4045)">
      <path d="M 0,0 -2.338,-2.338 H 0" style="fill:none;stroke:#e30613;stroke-width:0.283;stroke-linecap:butt;stroke-linejoin:miter;stroke-miterlimit:22.926;stroke-dasharray:none;stroke-opacity:1" id="path8898"></path>
    </g>
    <g id="g8900">
      <g id="g8902" clip-path="url(#clipPath8906)">
        <path d="M 23.098,23.244 H 62.783 V 0.567 H 23.098 Z" style="fill:none;stroke:#312783;stroke-width:1.134;stroke-linecap:butt;stroke-linejoin:miter;stroke-miterlimit:22.926;stroke-dasharray:none;stroke-opacity:1" id="path8908"></path>
      </g>
    </g>
    <text xml:space="preserve" transform="matrix(1,0,0,-1,28.8408,9.9453)" style="font-variant:normal;font-weight:normal;font-stretch:semi-condensed;font-size:7px;font-family:'Arial Narrow';-inkscape-font-specification:ArialNarrow;writing-mode:lr-tb;fill:#e30613;fill-opacity:1;fill-rule:nonzero;stroke:none" id="text8912">
      <tspan x="0 4.7810001 6.0549998 9.2469997" y="0" sodipodi:role="line" id="tspan8910">min.</tspan>
    </text>
  </g>
</svg>
