<?xml version="1.0" encoding="UTF-8" standalone="no"?>
<!-- Created with Inkscape (http://www.inkscape.org/) -->

<svg
   version="1.1"
   id="svg1617"
   xml:space="preserve"
   width="87.541733"
   height="90.998268"
   viewBox="0 0 87.541733 90.998268"
   sodipodi:docname="ISSprOM 413 Orchard.svg"
   inkscape:version="1.1.1 (3bf5ae0d25, 2021-09-20)"
   xmlns:inkscape="http://www.inkscape.org/namespaces/inkscape"
   xmlns:sodipodi="http://sodipodi.sourceforge.net/DTD/sodipodi-0.dtd"
   xmlns="http://www.w3.org/2000/svg"
   xmlns:svg="http://www.w3.org/2000/svg"><defs
     id="defs1621"><clipPath
       clipPathUnits="userSpaceOnUse"
       id="clipPath1635"><path
         d="M 0,68.249 H 65.656 V 0 H 0 Z"
         id="path1633" /></clipPath></defs><sodipodi:namedview
     id="namedview1619"
     pagecolor="#ffffff"
     bordercolor="#666666"
     borderopacity="1.0"
     inkscape:pageshadow="2"
     inkscape:pageopacity="0.0"
     inkscape:pagecheckerboard="0"
     showgrid="false"
     inkscape:zoom="9.1759988"
     inkscape:cx="43.755455"
     inkscape:cy="45.499134"
     inkscape:window-width="1920"
     inkscape:window-height="1017"
     inkscape:window-x="-8"
     inkscape:window-y="-8"
     inkscape:window-maximized="1"
     inkscape:current-layer="g1623" /><g
     id="g1623"
     inkscape:groupmode="layer"
     inkscape:label="ISSprOM 413 Orchard"
     transform="matrix(1.3333333,0,0,-1.3333333,0,90.998267)"><path
       d="M 21.878,26.302 H 43.421 V 54.649 H 21.878 Z"
       style="fill:#fcc246;fill-opacity:1;fill-rule:evenodd;stroke:none"
       id="path1625" /><path
       d="M 0.334,26.302 H 21.877 V 54.648 H 0.334 Z"
       style="fill:#ffe0a9;fill-opacity:1;fill-rule:nonzero;stroke:none"
       id="path1627" /><g
       id="g1629"><g
         id="g1631"
         clip-path="url(#clipPath1635)"><g
           id="g1637"
           transform="translate(4.3027,32.1982)"><path
             d="m 0,0 c 1.065,0 1.928,-0.86 1.928,-1.927 0,-1.065 -0.863,-1.928 -1.928,-1.928 -1.064,0 -1.928,0.863 -1.928,1.928 C -1.928,-0.86 -1.064,0 0,0"
             style="fill:#3ead58;fill-opacity:1;fill-rule:evenodd;stroke:none"
             id="path1639" /></g><g
           id="g1641"
           transform="translate(11.1055,32.1982)"><path
             d="m 0,0 c 1.065,0 1.928,-0.86 1.928,-1.927 0,-1.065 -0.863,-1.928 -1.928,-1.928 -1.064,0 -1.928,0.863 -1.928,1.928 C -1.928,-0.86 -1.064,0 0,0"
             style="fill:#3ead58;fill-opacity:1;fill-rule:evenodd;stroke:none"
             id="path1643" /></g><g
           id="g1645"
           transform="translate(17.9082,32.1982)"><path
             d="m 0,0 c 1.065,0 1.928,-0.86 1.928,-1.927 0,-1.065 -0.863,-1.928 -1.928,-1.928 -1.064,0 -1.928,0.863 -1.928,1.928 C -1.928,-0.86 -1.064,0 0,0"
             style="fill:#3ead58;fill-opacity:1;fill-rule:evenodd;stroke:none"
             id="path1647" /></g><g
           id="g1649"
           transform="translate(4.3027,39.0009)"><path
             d="m 0,0 c 1.065,0 1.928,-0.86 1.928,-1.927 0,-1.065 -0.863,-1.927 -1.928,-1.927 -1.064,0 -1.928,0.862 -1.928,1.927 C -1.928,-0.86 -1.064,0 0,0"
             style="fill:#3ead58;fill-opacity:1;fill-rule:evenodd;stroke:none"
             id="path1651" /></g><g
           id="g1653"
           transform="translate(11.1055,39.0009)"><path
             d="m 0,0 c 1.065,0 1.928,-0.86 1.928,-1.927 0,-1.065 -0.863,-1.927 -1.928,-1.927 -1.064,0 -1.928,0.862 -1.928,1.927 C -1.928,-0.86 -1.064,0 0,0"
             style="fill:#3ead58;fill-opacity:1;fill-rule:evenodd;stroke:none"
             id="path1655" /></g><g
           id="g1657"
           transform="translate(17.9082,39.0009)"><path
             d="m 0,0 c 1.065,0 1.928,-0.86 1.928,-1.927 0,-1.065 -0.863,-1.927 -1.928,-1.927 -1.064,0 -1.928,0.862 -1.928,1.927 C -1.928,-0.86 -1.064,0 0,0"
             style="fill:#3ead58;fill-opacity:1;fill-rule:evenodd;stroke:none"
             id="path1659" /></g><g
           id="g1661"
           transform="translate(4.3027,45.8037)"><path
             d="m 0,0 c 1.065,0 1.928,-0.86 1.928,-1.927 0,-1.065 -0.863,-1.928 -1.928,-1.928 -1.064,0 -1.928,0.863 -1.928,1.928 C -1.928,-0.86 -1.064,0 0,0"
             style="fill:#3ead58;fill-opacity:1;fill-rule:evenodd;stroke:none"
             id="path1663" /></g><g
           id="g1665"
           transform="translate(11.1055,45.8037)"><path
             d="m 0,0 c 1.065,0 1.928,-0.86 1.928,-1.927 0,-1.065 -0.863,-1.928 -1.928,-1.928 -1.064,0 -1.928,0.863 -1.928,1.928 C -1.928,-0.86 -1.064,0 0,0"
             style="fill:#3ead58;fill-opacity:1;fill-rule:evenodd;stroke:none"
             id="path1667" /></g><g
           id="g1669"
           transform="translate(17.9082,45.8037)"><path
             d="m 0,0 c 1.065,0 1.928,-0.86 1.928,-1.927 0,-1.065 -0.863,-1.928 -1.928,-1.928 -1.064,0 -1.928,0.863 -1.928,1.928 C -1.928,-0.86 -1.064,0 0,0"
             style="fill:#3ead58;fill-opacity:1;fill-rule:evenodd;stroke:none"
             id="path1671" /></g><g
           id="g1673"
           transform="translate(4.3027,52.6064)"><path
             d="m 0,0 c 1.065,0 1.928,-0.86 1.928,-1.927 0,-1.065 -0.863,-1.927 -1.928,-1.927 -1.064,0 -1.928,0.862 -1.928,1.927 C -1.928,-0.86 -1.064,0 0,0"
             style="fill:#3ead58;fill-opacity:1;fill-rule:evenodd;stroke:none"
             id="path1675" /></g><g
           id="g1677"
           transform="translate(11.1055,52.6064)"><path
             d="m 0,0 c 1.065,0 1.928,-0.86 1.928,-1.927 0,-1.065 -0.863,-1.927 -1.928,-1.927 -1.064,0 -1.928,0.862 -1.928,1.927 C -1.928,-0.86 -1.064,0 0,0"
             style="fill:#3ead58;fill-opacity:1;fill-rule:evenodd;stroke:none"
             id="path1679" /></g><g
           id="g1681"
           transform="translate(17.9082,52.6064)"><path
             d="m 0,0 c 1.065,0 1.928,-0.86 1.928,-1.927 0,-1.065 -0.863,-1.927 -1.928,-1.927 -1.064,0 -1.928,0.862 -1.928,1.927 C -1.928,-0.86 -1.064,0 0,0"
             style="fill:#3ead58;fill-opacity:1;fill-rule:evenodd;stroke:none"
             id="path1683" /></g><g
           id="g1685"
           transform="translate(25.8467,32.1982)"><path
             d="m 0,0 c 1.065,0 1.928,-0.86 1.928,-1.927 0,-1.065 -0.863,-1.928 -1.928,-1.928 -1.064,0 -1.928,0.863 -1.928,1.928 C -1.928,-0.86 -1.064,0 0,0"
             style="fill:#3ead58;fill-opacity:1;fill-rule:evenodd;stroke:none"
             id="path1687" /></g><g
           id="g1689"
           transform="translate(32.6494,32.1982)"><path
             d="m 0,0 c 1.066,0 1.928,-0.86 1.928,-1.927 0,-1.065 -0.862,-1.928 -1.928,-1.928 -1.064,0 -1.928,0.863 -1.928,1.928 C -1.928,-0.86 -1.064,0 0,0"
             style="fill:#3ead58;fill-opacity:1;fill-rule:evenodd;stroke:none"
             id="path1691" /></g><g
           id="g1693"
           transform="translate(39.4522,32.1982)"><path
             d="m 0,0 c 1.065,0 1.928,-0.86 1.928,-1.927 0,-1.065 -0.863,-1.928 -1.928,-1.928 -1.064,0 -1.928,0.863 -1.928,1.928 C -1.928,-0.86 -1.064,0 0,0"
             style="fill:#3ead58;fill-opacity:1;fill-rule:evenodd;stroke:none"
             id="path1695" /></g><g
           id="g1697"
           transform="translate(25.8467,39.0009)"><path
             d="m 0,0 c 1.065,0 1.928,-0.86 1.928,-1.927 0,-1.065 -0.863,-1.927 -1.928,-1.927 -1.064,0 -1.928,0.862 -1.928,1.927 C -1.928,-0.86 -1.064,0 0,0"
             style="fill:#3ead58;fill-opacity:1;fill-rule:evenodd;stroke:none"
             id="path1699" /></g><g
           id="g1701"
           transform="translate(32.6494,39.0009)"><path
             d="m 0,0 c 1.066,0 1.928,-0.86 1.928,-1.927 0,-1.065 -0.862,-1.927 -1.928,-1.927 -1.064,0 -1.928,0.862 -1.928,1.927 C -1.928,-0.86 -1.064,0 0,0"
             style="fill:#3ead58;fill-opacity:1;fill-rule:evenodd;stroke:none"
             id="path1703" /></g><g
           id="g1705"
           transform="translate(39.4522,39.0009)"><path
             d="m 0,0 c 1.065,0 1.928,-0.86 1.928,-1.927 0,-1.065 -0.863,-1.927 -1.928,-1.927 -1.064,0 -1.928,0.862 -1.928,1.927 C -1.928,-0.86 -1.064,0 0,0"
             style="fill:#3ead58;fill-opacity:1;fill-rule:evenodd;stroke:none"
             id="path1707" /></g><g
           id="g1709"
           transform="translate(25.8467,45.8037)"><path
             d="m 0,0 c 1.065,0 1.928,-0.86 1.928,-1.927 0,-1.065 -0.863,-1.928 -1.928,-1.928 -1.064,0 -1.928,0.863 -1.928,1.928 C -1.928,-0.86 -1.064,0 0,0"
             style="fill:#3ead58;fill-opacity:1;fill-rule:evenodd;stroke:none"
             id="path1711" /></g><g
           id="g1713"
           transform="translate(32.6494,45.8037)"><path
             d="m 0,0 c 1.066,0 1.928,-0.86 1.928,-1.927 0,-1.065 -0.862,-1.928 -1.928,-1.928 -1.064,0 -1.928,0.863 -1.928,1.928 C -1.928,-0.86 -1.064,0 0,0"
             style="fill:#3ead58;fill-opacity:1;fill-rule:evenodd;stroke:none"
             id="path1715" /></g><g
           id="g1717"
           transform="translate(39.4522,45.8037)"><path
             d="m 0,0 c 1.065,0 1.928,-0.86 1.928,-1.927 0,-1.065 -0.863,-1.928 -1.928,-1.928 -1.064,0 -1.928,0.863 -1.928,1.928 C -1.928,-0.86 -1.064,0 0,0"
             style="fill:#3ead58;fill-opacity:1;fill-rule:evenodd;stroke:none"
             id="path1719" /></g><g
           id="g1721"
           transform="translate(25.8467,52.6064)"><path
             d="m 0,0 c 1.065,0 1.928,-0.86 1.928,-1.927 0,-1.065 -0.863,-1.927 -1.928,-1.927 -1.064,0 -1.928,0.862 -1.928,1.927 C -1.928,-0.86 -1.064,0 0,0"
             style="fill:#3ead58;fill-opacity:1;fill-rule:evenodd;stroke:none"
             id="path1723" /></g><g
           id="g1725"
           transform="translate(32.6494,52.6064)"><path
             d="m 0,0 c 1.066,0 1.928,-0.86 1.928,-1.927 0,-1.065 -0.862,-1.927 -1.928,-1.927 -1.064,0 -1.928,0.862 -1.928,1.927 C -1.928,-0.86 -1.064,0 0,0"
             style="fill:#3ead58;fill-opacity:1;fill-rule:evenodd;stroke:none"
             id="path1727" /></g><g
           id="g1729"
           transform="translate(39.4522,52.6064)"><path
             d="m 0,0 c 1.065,0 1.928,-0.86 1.928,-1.927 0,-1.065 -0.863,-1.927 -1.928,-1.927 -1.064,0 -1.928,0.862 -1.928,1.927 C -1.928,-0.86 -1.064,0 0,0"
             style="fill:#3ead58;fill-opacity:1;fill-rule:evenodd;stroke:none"
             id="path1731" /></g><path
           d="M 28.907,4.819 H 40.246 V 16.158 H 28.907 Z"
           style="fill:#fcc246;fill-opacity:1;fill-rule:evenodd;stroke:none"
           id="path1733" /><g
           id="g1735"
           transform="translate(31.1758,9.0146)"><path
             d="m 0,0 c 1.064,0 1.928,-0.86 1.928,-1.927 0,-1.065 -0.864,-1.927 -1.928,-1.927 -1.064,0 -1.928,0.862 -1.928,1.927 C -1.928,-0.86 -1.064,0 0,0"
             style="fill:#3ead58;fill-opacity:1;fill-rule:evenodd;stroke:none"
             id="path1737" /></g><g
           id="g1739"
           transform="translate(37.9785,9.0146)"><path
             d="m 0,0 c 1.064,0 1.928,-0.86 1.928,-1.927 0,-1.065 -0.864,-1.927 -1.928,-1.927 -1.064,0 -1.928,0.862 -1.928,1.927 C -1.928,-0.86 -1.064,0 0,0"
             style="fill:#3ead58;fill-opacity:1;fill-rule:evenodd;stroke:none"
             id="path1741" /></g><g
           id="g1743"
           transform="translate(31.1758,15.8173)"><path
             d="m 0,0 c 1.064,0 1.928,-0.86 1.928,-1.927 0,-1.065 -0.864,-1.928 -1.928,-1.928 -1.064,0 -1.928,0.863 -1.928,1.928 C -1.928,-0.86 -1.064,0 0,0"
             style="fill:#3ead58;fill-opacity:1;fill-rule:evenodd;stroke:none"
             id="path1745" /></g><g
           id="g1747"
           transform="translate(37.9785,15.8173)"><path
             d="m 0,0 c 1.064,0 1.928,-0.86 1.928,-1.927 0,-1.065 -0.864,-1.928 -1.928,-1.928 -1.064,0 -1.928,0.863 -1.928,1.928 C -1.928,-0.86 -1.064,0 0,0"
             style="fill:#3ead58;fill-opacity:1;fill-rule:evenodd;stroke:none"
             id="path1749" /></g><g
           id="g1751"
           transform="translate(51.9736,26.164)"><path
             d="M 0,0 13.683,4.949 3.987,31.586 -9.695,26.637 Z"
             style="fill:#fcc246;fill-opacity:1;fill-rule:evenodd;stroke:none"
             id="path1753" /></g><g
           id="g1755"
           transform="translate(53.6865,33.0624)"><path
             d="M 0,0 C 1.002,0.364 2.105,-0.149 2.471,-1.151 2.835,-2.153 2.32,-3.258 1.318,-3.622 c -1,-0.364 -2.106,0.15 -2.47,1.152 C -1.518,-1.468 -1,-0.364 0,0"
             style="fill:#3ead58;fill-opacity:1;fill-rule:evenodd;stroke:none"
             id="path1757" /></g><g
           id="g1759"
           transform="translate(60.0791,35.3896)"><path
             d="m 0,0 c 1.001,0.363 2.105,-0.15 2.471,-1.152 0.364,-1.002 -0.152,-2.106 -1.153,-2.471 -1,-0.363 -2.106,0.15 -2.47,1.152 C -1.518,-1.469 -1,-0.365 0,0"
             style="fill:#3ead58;fill-opacity:1;fill-rule:evenodd;stroke:none"
             id="path1761" /></g><g
           id="g1763"
           transform="translate(51.3604,39.455)"><path
             d="m 0,0 c 1.001,0.364 2.105,-0.149 2.47,-1.151 0.364,-1.002 -0.151,-2.107 -1.152,-2.471 -1,-0.364 -2.107,0.15 -2.471,1.152 C -1.518,-1.468 -1,-0.364 0,0"
             style="fill:#3ead58;fill-opacity:1;fill-rule:evenodd;stroke:none"
             id="path1765" /></g><g
           id="g1767"
           transform="translate(57.7529,41.7822)"><path
             d="M 0,0 C 1,0.363 2.105,-0.15 2.47,-1.152 2.834,-2.154 2.318,-3.258 1.318,-3.623 0.317,-3.986 -0.789,-3.473 -1.153,-2.471 -1.518,-1.469 -1.001,-0.365 0,0"
             style="fill:#3ead58;fill-opacity:1;fill-rule:evenodd;stroke:none"
             id="path1769" /></g><g
           id="g1771"
           transform="translate(49.0332,45.8466)"><path
             d="m 0,0 c 1.001,0.364 2.106,-0.148 2.471,-1.151 0.364,-1.001 -0.152,-2.106 -1.153,-2.47 -1,-0.364 -2.106,0.15 -2.47,1.151 C -1.518,-1.467 -1,-0.364 0,0"
             style="fill:#3ead58;fill-opacity:1;fill-rule:evenodd;stroke:none"
             id="path1773" /></g><g
           id="g1775"
           transform="translate(55.4258,48.1728)"><path
             d="M 0,0 C 1.001,0.365 2.105,-0.148 2.471,-1.15 2.835,-2.152 2.319,-3.256 1.318,-3.621 0.317,-3.984 -0.788,-3.471 -1.152,-2.47 -1.518,-1.467 -1.001,-0.363 0,0"
             style="fill:#3ead58;fill-opacity:1;fill-rule:evenodd;stroke:none"
             id="path1777" /></g><g
           id="g1779"
           transform="translate(46.7061,52.2392)"><path
             d="M 0,0 C 1.002,0.364 2.106,-0.148 2.471,-1.151 2.836,-2.152 2.32,-3.258 1.318,-3.622 c -1,-0.364 -2.105,0.151 -2.47,1.152 C -1.517,-1.467 -1,-0.364 0,0"
             style="fill:#3ead58;fill-opacity:1;fill-rule:evenodd;stroke:none"
             id="path1781" /></g><g
           id="g1783"
           transform="translate(53.0986,54.5654)"><path
             d="M 0,0 C 1.002,0.365 2.106,-0.148 2.471,-1.15 2.836,-2.152 2.32,-3.258 1.318,-3.621 c -1,-0.365 -2.105,0.15 -2.47,1.151 C -1.517,-1.467 -1,-0.363 0,0"
             style="fill:#3ead58;fill-opacity:1;fill-rule:evenodd;stroke:none"
             id="path1785" /></g><g
           id="g1787"
           transform="translate(11.1055,57.3046)"><path
             d="M 0,0 V 3.528"
             style="fill:none;stroke:#e30613;stroke-width:0.283;stroke-linecap:butt;stroke-linejoin:miter;stroke-miterlimit:22.926;stroke-dasharray:none;stroke-opacity:1"
             id="path1789" /></g><g
           id="g1791"
           transform="translate(32.6494,57.2548)"><path
             d="M 0,0 V 3.529"
             style="fill:none;stroke:#e30613;stroke-width:0.283;stroke-linecap:butt;stroke-linejoin:miter;stroke-miterlimit:22.926;stroke-dasharray:none;stroke-opacity:1"
             id="path1793" /></g><g
           id="g1795"
           transform="translate(39.4522,57.2548)"><path
             d="M 0,0 V 3.529"
             style="fill:none;stroke:#e30613;stroke-width:0.283;stroke-linecap:butt;stroke-linejoin:miter;stroke-miterlimit:22.926;stroke-dasharray:none;stroke-opacity:1"
             id="path1797" /></g><text
           transform="matrix(1,0,0,-1,31.8484,62.2425)"
           style="font-variant:normal;font-weight:normal;font-stretch:semi-condensed;font-size:6.9997px;font-family:'Arial Narrow';-inkscape-font-specification:ArialNarrow;writing-mode:lr-tb;fill:#e30613;fill-opacity:1;fill-rule:nonzero;stroke:none"
           id="text1801"><tspan
             x="0 3.1918633 4.7877946 -25.828894 -22.63703 -21.041098 -17.849236"
             y="0"
             sodipodi:role="line"
             id="tspan1799">1.20.68</tspan></text><text
           transform="matrix(1,0,0,-1,-2.35e-4,62.2425)"
           style="font-variant:normal;font-weight:normal;font-stretch:normal;font-size:6.9997px;font-family:Arial;-inkscape-font-specification:ArialMT;writing-mode:lr-tb;fill:#e30613;fill-opacity:1;fill-rule:nonzero;stroke:none"
           id="text1805"><tspan
             x="0"
             y="0"
             id="tspan1803">ø</tspan></text><path
           d="M 11.816,20.409 H 45.832 V 0.566 H 11.816 Z"
           style="fill:none;stroke:#312783;stroke-width:1.134;stroke-linecap:butt;stroke-linejoin:miter;stroke-miterlimit:22.926;stroke-dasharray:none;stroke-opacity:1"
           id="path1807" /></g></g><text
       transform="matrix(1,0,0,-1,15.9805,8.377)"
       style="font-variant:normal;font-weight:normal;font-stretch:semi-condensed;font-size:7px;font-family:'Arial Narrow';-inkscape-font-specification:ArialNarrow;writing-mode:lr-tb;fill:#e30613;fill-opacity:1;fill-rule:nonzero;stroke:none"
       id="text1811"><tspan
         x="0 4.7810001 6.0549998 9.2469997"
         y="0"
         sodipodi:role="line"
         id="tspan1809">min.</tspan></text></g></svg>
