<?xml version="1.0" encoding="UTF-8" standalone="no"?>
<!-- Created with Inkscape (http://www.inkscape.org/) -->

<svg
   version="1.1"
   id="svg3197"
   xml:space="preserve"
   width="36.201866"
   height="45.315067"
   viewBox="0 0 36.201866 45.315067"
   sodipodi:docname="ISSprOM 417 Prominent large tree.svg"
   inkscape:version="1.1.1 (3bf5ae0d25, 2021-09-20)"
   xmlns:inkscape="http://www.inkscape.org/namespaces/inkscape"
   xmlns:sodipodi="http://sodipodi.sourceforge.net/DTD/sodipodi-0.dtd"
   xmlns="http://www.w3.org/2000/svg"
   xmlns:svg="http://www.w3.org/2000/svg"><defs
     id="defs3201"><clipPath
       clipPathUnits="userSpaceOnUse"
       id="clipPath3211"><path
         d="M 0,33.986 H 27.151 V 0 H 0 Z"
         id="path3209" /></clipPath></defs><sodipodi:namedview
     id="namedview3199"
     pagecolor="#ffffff"
     bordercolor="#666666"
     borderopacity="1.0"
     inkscape:pageshadow="2"
     inkscape:pageopacity="0.0"
     inkscape:pagecheckerboard="0"
     showgrid="false"
     inkscape:zoom="18.426542"
     inkscape:cx="18.098892"
     inkscape:cy="22.657534"
     inkscape:window-width="1920"
     inkscape:window-height="1017"
     inkscape:window-x="-8"
     inkscape:window-y="-8"
     inkscape:window-maximized="1"
     inkscape:current-layer="g3203" /><g
     id="g3203"
     inkscape:groupmode="layer"
     inkscape:label="ISSprOM 417 Prominent large tree"
     transform="matrix(1.3333333,0,0,-1.3333333,0,45.315067)"><g
       id="g3205"><g
         id="g3207"
         clip-path="url(#clipPath3211)"><g
           id="g3213"
           transform="translate(4.4882,14.8933)"><path
             d="m 0,0 c -1.487,0 -2.693,1.206 -2.693,2.695 0,1.486 1.206,2.691 2.693,2.691 1.487,0 2.693,-1.205 2.693,-2.691 C 2.693,1.206 1.487,0 0,0 Z"
             style="fill:none;stroke:#31aa47;stroke-width:1.417;stroke-linecap:butt;stroke-linejoin:miter;stroke-miterlimit:22.926;stroke-dasharray:none;stroke-opacity:1"
             id="path3215" /></g><g
           id="g3217"
           transform="translate(4.4882,13.6177)"><path
             d="m 0,0 c -2.191,0 -3.968,1.777 -3.968,3.972 0,2.189 1.777,3.965 3.968,3.965 2.191,0 3.969,-1.776 3.969,-3.965 C 3.969,1.777 2.191,0 0,0 Z"
             style="fill:none;stroke:#e30613;stroke-width:0.142;stroke-linecap:butt;stroke-linejoin:miter;stroke-miterlimit:22.926;stroke-dasharray:none;stroke-opacity:1"
             id="path3219" /></g><text
           transform="matrix(1,0,0,-1,15.979,15.077)"
           style="font-variant:normal;font-weight:normal;font-stretch:semi-condensed;font-size:6.9997px;font-family:'Arial Narrow';-inkscape-font-specification:ArialNarrow;writing-mode:lr-tb;fill:#e30613;fill-opacity:1;fill-rule:nonzero;stroke:none"
           id="text3227"><tspan
             x="0 3.1918633 4.7877946 7.9796581"
             y="0"
             sodipodi:role="line"
             id="tspan3221">0.25</tspan><tspan
             x="-15.672328 -12.480465 -10.884534 -7.6926703 -6.0967388 -4.1858206 0.27998799 5.0607829"
             y="-12.900447"
             sodipodi:role="line"
             id="tspan3223">1.2 (OM)</tspan><tspan
             x="-15.973315 -12.781452 -11.18552 -7.9936576 -6.3977256 -4.4868078 -0.0209991 4.7597961"
             y="12.935446"
             sodipodi:role="line"
             id="tspan3225">1.4 (OM)</tspan></text><g
           id="g3229"
           transform="translate(7.8942,26.1253)"><path
             d="M 0,0 V -4.252"
             style="fill:none;stroke:#e30613;stroke-width:0.283;stroke-linecap:butt;stroke-linejoin:miter;stroke-miterlimit:22.926;stroke-dasharray:none;stroke-opacity:1"
             id="path3231" /></g><g
           id="g3233"
           transform="translate(1.0911,26.1253)"><path
             d="M 0,0 V -4.252"
             style="fill:none;stroke:#e30613;stroke-width:0.283;stroke-linecap:butt;stroke-linejoin:miter;stroke-miterlimit:22.926;stroke-dasharray:none;stroke-opacity:1"
             id="path3235" /></g><g
           id="g3237"
           transform="translate(8.4568,13.3753)"><path
             d="M 0,0 V -4.252"
             style="fill:none;stroke:#e30613;stroke-width:0.29;stroke-linecap:butt;stroke-linejoin:miter;stroke-miterlimit:22.926;stroke-dasharray:none;stroke-opacity:1"
             id="path3239" /></g><g
           id="g3241"
           transform="translate(0.5198,13.3753)"><path
             d="M 0,0 V -4.252"
             style="fill:none;stroke:#e30613;stroke-width:0.29;stroke-linecap:butt;stroke-linejoin:miter;stroke-miterlimit:22.926;stroke-dasharray:none;stroke-opacity:1"
             id="path3243" /></g></g></g></g></svg>
