<?xml version="1.0" encoding="UTF-8" standalone="no"?>
<!-- Created with Inkscape (http://www.inkscape.org/) -->

<svg
   version="1.1"
   id="svg3436"
   xml:space="preserve"
   width="37.102798"
   height="26.141867"
   viewBox="0 0 37.102798 26.141867"
   sodipodi:docname="ISSprOM 418 Prominent bush or small tree.svg"
   inkscape:version="1.1.1 (3bf5ae0d25, 2021-09-20)"
   xmlns:inkscape="http://www.inkscape.org/namespaces/inkscape"
   xmlns:sodipodi="http://sodipodi.sourceforge.net/DTD/sodipodi-0.dtd"
   xmlns="http://www.w3.org/2000/svg"
   xmlns:svg="http://www.w3.org/2000/svg"><defs
     id="defs3440"><clipPath
       clipPathUnits="userSpaceOnUse"
       id="clipPath3450"><path
         d="M 0,19.606 H 27.827 V 0 H 0 Z"
         id="path3448" /></clipPath></defs><sodipodi:namedview
     id="namedview3438"
     pagecolor="#ffffff"
     bordercolor="#666666"
     borderopacity="1.0"
     inkscape:pageshadow="2"
     inkscape:pageopacity="0.0"
     inkscape:pagecheckerboard="0"
     showgrid="false"
     inkscape:zoom="31.941101"
     inkscape:cx="18.549768"
     inkscape:cy="13.070933"
     inkscape:window-width="1920"
     inkscape:window-height="1017"
     inkscape:window-x="-8"
     inkscape:window-y="-8"
     inkscape:window-maximized="1"
     inkscape:current-layer="g3442" /><g
     id="g3442"
     inkscape:groupmode="layer"
     inkscape:label="ISSprOM 418 Prominent bush or small tree"
     transform="matrix(1.3333333,0,0,-1.3333333,0,26.141867)"><g
       id="g3444"><g
         id="g3446"
         clip-path="url(#clipPath3450)"><g
           id="g3452"
           transform="translate(3.8908,1.7513)"><path
             d="M 0,0 C -1.252,0 -2.268,1.016 -2.268,2.268 -2.268,3.52 -1.252,4.535 0,4.535 1.252,4.535 2.268,3.52 2.268,2.268 2.268,1.016 1.252,0 0,0"
             style="fill:#31aa47;fill-opacity:1;fill-rule:evenodd;stroke:none"
             id="path3454" /></g><text
           transform="matrix(1,0,0,-1,13.9754,2.2729)"
           style="font-variant:normal;font-weight:normal;font-stretch:normal;font-size:6.9997px;font-family:Arial;-inkscape-font-specification:ArialMT;writing-mode:lr-tb;fill:#e30613;fill-opacity:1;fill-rule:nonzero;stroke:none"
           id="text3458"><tspan
             x="0"
             y="0"
             id="tspan3456">ø</tspan></text><text
           transform="matrix(1,0,0,-1,19.848148,2.2729)"
           style="font-variant:normal;font-weight:normal;font-stretch:semi-condensed;font-size:6.9997px;font-family:'Arial Narrow';-inkscape-font-specification:ArialNarrow;writing-mode:lr-tb;fill:#e30613;fill-opacity:1;fill-rule:nonzero;stroke:none"
           id="text3462"><tspan
             x="0 3.1918633 4.7877946"
             y="0"
             sodipodi:role="line"
             id="tspan3460">0.8</tspan></text><g
           id="g3464"
           transform="translate(3.8908,3.452)"><path
             d="M 0,0 C -0.313,0 -0.567,0.254 -0.567,0.567 -0.567,0.88 -0.313,1.134 0,1.134 0.313,1.134 0.567,0.88 0.567,0.567 0.567,0.254 0.313,0 0,0"
             style="fill:#ffffff;fill-opacity:1;fill-rule:evenodd;stroke:none"
             id="path3466" /></g><g
           id="g3468"
           transform="translate(3.3239,7.5623)"><path
             d="M 0,0 V 4.252"
             style="fill:none;stroke:#e30613;stroke-width:0.283;stroke-linecap:butt;stroke-linejoin:miter;stroke-miterlimit:22.926;stroke-dasharray:none;stroke-opacity:1"
             id="path3470" /></g><g
           id="g3472"
           transform="translate(4.4578,7.5623)"><path
             d="M 0,0 V 4.252"
             style="fill:none;stroke:#e30613;stroke-width:0.283;stroke-linecap:butt;stroke-linejoin:miter;stroke-miterlimit:22.926;stroke-dasharray:none;stroke-opacity:1"
             id="path3474" /></g><text
           transform="matrix(1,0,0,-1,0,13.6006)"
           style="font-variant:normal;font-weight:normal;font-stretch:semi-condensed;font-size:7px;font-family:'Arial Narrow';-inkscape-font-specification:ArialNarrow;writing-mode:lr-tb;fill:#e30613;fill-opacity:1;fill-rule:nonzero;stroke:none"
           id="text3478"><tspan
             x="0 3.1919999 4.7880001 7.98 9.5760002 11.487 15.953 20.733999"
             y="0"
             sodipodi:role="line"
             id="tspan3476">0.2 (OM)</tspan></text></g></g></g></svg>
