<?xml version="1.0" encoding="UTF-8" standalone="no"?>
<!-- Created with Inkscape (http://www.inkscape.org/) -->

<svg
   version="1.1"
   id="svg8908"
   xml:space="preserve"
   width="107.0304"
   height="100.91813"
   viewBox="0 0 107.0304 100.91813"
   sodipodi:docname="ISSprOM 512.2 Underpass or tunnel.svg"
   inkscape:version="1.1.1 (3bf5ae0d25, 2021-09-20)"
   xmlns:inkscape="http://www.inkscape.org/namespaces/inkscape"
   xmlns:sodipodi="http://sodipodi.sourceforge.net/DTD/sodipodi-0.dtd"
   xmlns="http://www.w3.org/2000/svg"
   xmlns:svg="http://www.w3.org/2000/svg">
  <rect width="100%" height="100%" fill="white"/>
<defs
     id="defs8912"><clipPath
       clipPathUnits="userSpaceOnUse"
       id="clipPath9140"><path
         d="M 0,75.689 H 80.273 V 0 H 0 Z"
         id="path9138" /></clipPath><clipPath
       clipPathUnits="userSpaceOnUse"
       id="clipPath9170"><path
         d="M 0,75.689 H 80.273 V 0 H 0 Z"
         id="path9168" /></clipPath></defs><sodipodi:namedview
     id="namedview8910"
     pagecolor="#ffffff"
     bordercolor="#666666"
     borderopacity="1.0"
     inkscape:pageshadow="2"
     inkscape:pageopacity="0.0"
     inkscape:pagecheckerboard="0"
     showgrid="false"
     inkscape:zoom="8.2740337"
     inkscape:cx="53.480565"
     inkscape:cy="50.459064"
     inkscape:window-width="1920"
     inkscape:window-height="1017"
     inkscape:window-x="-8"
     inkscape:window-y="-8"
     inkscape:window-maximized="1"
     inkscape:current-layer="g8914" /><g
     id="g8914"
     inkscape:groupmode="layer"
     inkscape:label="ISSprOM 512.2 Underpass or tunnel"
     transform="matrix(1.3333333,0,0,-1.3333333,0,100.91813)"><path
       d="M 4.461,31.796 H 5.878 V 32.93 H 4.461 Z"
       style="fill:#1d1d1b;fill-opacity:1;fill-rule:evenodd;stroke:none"
       id="path8916" /><path
       d="M 7.012,31.796 H 8.429 V 32.93 H 7.012 Z"
       style="fill:#1d1d1b;fill-opacity:1;fill-rule:evenodd;stroke:none"
       id="path8918" /><path
       d="m 9.564,31.796 h 1.417 V 32.93 H 9.564 Z"
       style="fill:#1d1d1b;fill-opacity:1;fill-rule:evenodd;stroke:none"
       id="path8920" /><path
       d="m 12.115,31.796 h 1.417 v 1.134 h -1.417 z"
       style="fill:#1d1d1b;fill-opacity:1;fill-rule:evenodd;stroke:none"
       id="path8922" /><path
       d="m 14.666,31.796 h 1.417 v 1.134 h -1.417 z"
       style="fill:#1d1d1b;fill-opacity:1;fill-rule:evenodd;stroke:none"
       id="path8924" /><path
       d="m 17.217,31.796 h 1.417 v 1.134 h -1.417 z"
       style="fill:#1d1d1b;fill-opacity:1;fill-rule:evenodd;stroke:none"
       id="path8926" /><path
       d="m 19.768,31.796 h 1.417 v 1.134 h -1.417 z"
       style="fill:#1d1d1b;fill-opacity:1;fill-rule:evenodd;stroke:none"
       id="path8928" /><path
       d="m 22.32,31.796 h 1.417 V 32.93 H 22.32 Z"
       style="fill:#1d1d1b;fill-opacity:1;fill-rule:evenodd;stroke:none"
       id="path8930" /><path
       d="m 24.871,31.796 h 1.417 v 1.134 h -1.417 z"
       style="fill:#1d1d1b;fill-opacity:1;fill-rule:evenodd;stroke:none"
       id="path8932" /><path
       d="m 27.422,31.796 h 1.417 v 1.134 h -1.417 z"
       style="fill:#1d1d1b;fill-opacity:1;fill-rule:evenodd;stroke:none"
       id="path8934" /><path
       d="M 29.973,31.796 H 31.39 V 32.93 H 29.973 Z"
       style="fill:#1d1d1b;fill-opacity:1;fill-rule:evenodd;stroke:none"
       id="path8936" /><path
       d="m 32.524,31.796 h 1.417 v 1.134 h -1.417 z"
       style="fill:#1d1d1b;fill-opacity:1;fill-rule:evenodd;stroke:none"
       id="path8938" /><path
       d="m 35.076,31.796 h 1.417 v 1.134 h -1.417 z"
       style="fill:#1d1d1b;fill-opacity:1;fill-rule:evenodd;stroke:none"
       id="path8940" /><path
       d="m 37.627,31.796 h 1.417 v 1.134 h -1.417 z"
       style="fill:#1d1d1b;fill-opacity:1;fill-rule:evenodd;stroke:none"
       id="path8942" /><path
       d="m 40.178,31.796 h 1.417 v 1.134 h -1.417 z"
       style="fill:#1d1d1b;fill-opacity:1;fill-rule:evenodd;stroke:none"
       id="path8944" /><path
       d="m 42.729,31.796 h 1.417 v 1.134 h -1.417 z"
       style="fill:#1d1d1b;fill-opacity:1;fill-rule:evenodd;stroke:none"
       id="path8946" /><path
       d="m 45.28,31.796 h 1.417 V 32.93 H 45.28 Z"
       style="fill:#1d1d1b;fill-opacity:1;fill-rule:evenodd;stroke:none"
       id="path8948" /><path
       d="m 47.831,31.796 h 1.417 v 1.134 h -1.417 z"
       style="fill:#1d1d1b;fill-opacity:1;fill-rule:evenodd;stroke:none"
       id="path8950" /><path
       d="M 50.383,31.796 H 51.8 v 1.134 h -1.417 z"
       style="fill:#1d1d1b;fill-opacity:1;fill-rule:evenodd;stroke:none"
       id="path8952" /><path
       d="m 52.934,31.796 h 1.417 v 1.134 h -1.417 z"
       style="fill:#1d1d1b;fill-opacity:1;fill-rule:evenodd;stroke:none"
       id="path8954" /><path
       d="m 55.485,31.796 h 1.417 v 1.134 h -1.417 z"
       style="fill:#1d1d1b;fill-opacity:1;fill-rule:evenodd;stroke:none"
       id="path8956" /><path
       d="m 58.036,31.796 h 1.417 v 1.134 h -1.417 z"
       style="fill:#1d1d1b;fill-opacity:1;fill-rule:evenodd;stroke:none"
       id="path8958" /><path
       d="m 60.587,31.796 h 1.417 v 1.134 h -1.417 z"
       style="fill:#1d1d1b;fill-opacity:1;fill-rule:evenodd;stroke:none"
       id="path8960" /><path
       d="m 63.138,31.796 h 1.417 v 1.134 h -1.417 z"
       style="fill:#1d1d1b;fill-opacity:1;fill-rule:evenodd;stroke:none"
       id="path8962" /><path
       d="m 65.69,31.796 h 1.417 V 32.93 H 65.69 Z"
       style="fill:#1d1d1b;fill-opacity:1;fill-rule:evenodd;stroke:none"
       id="path8964" /><path
       d="m 4.461,44.649 h 1.417 v 1.134 H 4.461 Z"
       style="fill:#1d1d1b;fill-opacity:1;fill-rule:evenodd;stroke:none"
       id="path8966" /><path
       d="m 7.012,44.649 h 1.417 v 1.134 H 7.012 Z"
       style="fill:#1d1d1b;fill-opacity:1;fill-rule:evenodd;stroke:none"
       id="path8968" /><path
       d="m 9.564,44.649 h 1.417 v 1.134 H 9.564 Z"
       style="fill:#1d1d1b;fill-opacity:1;fill-rule:evenodd;stroke:none"
       id="path8970" /><path
       d="m 12.115,44.649 h 1.417 v 1.134 h -1.417 z"
       style="fill:#1d1d1b;fill-opacity:1;fill-rule:evenodd;stroke:none"
       id="path8972" /><path
       d="m 14.666,44.649 h 1.417 v 1.134 h -1.417 z"
       style="fill:#1d1d1b;fill-opacity:1;fill-rule:evenodd;stroke:none"
       id="path8974" /><path
       d="m 17.217,44.649 h 1.417 v 1.134 h -1.417 z"
       style="fill:#1d1d1b;fill-opacity:1;fill-rule:evenodd;stroke:none"
       id="path8976" /><path
       d="m 19.768,44.649 h 1.417 v 1.134 h -1.417 z"
       style="fill:#1d1d1b;fill-opacity:1;fill-rule:evenodd;stroke:none"
       id="path8978" /><path
       d="m 22.32,44.649 h 1.417 v 1.134 H 22.32 Z"
       style="fill:#1d1d1b;fill-opacity:1;fill-rule:evenodd;stroke:none"
       id="path8980" /><path
       d="m 32.524,44.649 h 1.417 v 1.134 h -1.417 z"
       style="fill:#1d1d1b;fill-opacity:1;fill-rule:evenodd;stroke:none"
       id="path8982" /><path
       d="m 35.076,44.649 h 1.417 v 1.134 h -1.417 z"
       style="fill:#1d1d1b;fill-opacity:1;fill-rule:evenodd;stroke:none"
       id="path8984" /><path
       d="m 37.627,44.649 h 1.417 v 1.134 h -1.417 z"
       style="fill:#1d1d1b;fill-opacity:1;fill-rule:evenodd;stroke:none"
       id="path8986" /><path
       d="m 40.178,44.649 h 1.417 v 1.134 h -1.417 z"
       style="fill:#1d1d1b;fill-opacity:1;fill-rule:evenodd;stroke:none"
       id="path8988" /><path
       d="m 42.729,44.649 h 1.417 v 1.134 h -1.417 z"
       style="fill:#1d1d1b;fill-opacity:1;fill-rule:evenodd;stroke:none"
       id="path8990" /><path
       d="m 45.28,44.649 h 1.417 v 1.134 H 45.28 Z"
       style="fill:#1d1d1b;fill-opacity:1;fill-rule:evenodd;stroke:none"
       id="path8992" /><path
       d="m 47.831,44.649 h 1.417 v 1.134 h -1.417 z"
       style="fill:#1d1d1b;fill-opacity:1;fill-rule:evenodd;stroke:none"
       id="path8994" /><path
       d="M 50.383,44.649 H 51.8 v 1.134 h -1.417 z"
       style="fill:#1d1d1b;fill-opacity:1;fill-rule:evenodd;stroke:none"
       id="path8996" /><path
       d="m 52.934,44.649 h 1.417 v 1.134 h -1.417 z"
       style="fill:#1d1d1b;fill-opacity:1;fill-rule:evenodd;stroke:none"
       id="path8998" /><path
       d="m 55.485,44.649 h 1.417 v 1.134 h -1.417 z"
       style="fill:#1d1d1b;fill-opacity:1;fill-rule:evenodd;stroke:none"
       id="path9000" /><path
       d="m 58.036,44.649 h 1.417 v 1.134 h -1.417 z"
       style="fill:#1d1d1b;fill-opacity:1;fill-rule:evenodd;stroke:none"
       id="path9002" /><path
       d="m 60.587,44.649 h 1.417 v 1.134 h -1.417 z"
       style="fill:#1d1d1b;fill-opacity:1;fill-rule:evenodd;stroke:none"
       id="path9004" /><path
       d="m 63.138,44.649 h 1.417 v 1.134 h -1.417 z"
       style="fill:#1d1d1b;fill-opacity:1;fill-rule:evenodd;stroke:none"
       id="path9006" /><path
       d="m 65.69,44.649 h 1.417 v 1.134 H 65.69 Z"
       style="fill:#1d1d1b;fill-opacity:1;fill-rule:evenodd;stroke:none"
       id="path9008" /><g
       id="g9010"
       transform="translate(34.5567,46.414)"><path
         d="M 0,0 1.044,0.958 0.277,1.793 -0.767,0.835 Z"
         style="fill:#1d1d1b;fill-opacity:1;fill-rule:evenodd;stroke:none"
         id="path9012" /></g><g
       id="g9014"
       transform="translate(36.4363,48.139)"><path
         d="M 0,0 1.044,0.958 0.277,1.793 -0.767,0.835 Z"
         style="fill:#1d1d1b;fill-opacity:1;fill-rule:evenodd;stroke:none"
         id="path9016" /></g><g
       id="g9018"
       transform="translate(38.3159,49.864)"><path
         d="M 0,0 1.044,0.958 0.277,1.793 -0.767,0.835 Z"
         style="fill:#1d1d1b;fill-opacity:1;fill-rule:evenodd;stroke:none"
         id="path9020" /></g><g
       id="g9022"
       transform="translate(40.1956,51.589)"><path
         d="M 0,0 1.044,0.958 0.277,1.793 -0.767,0.835 Z"
         style="fill:#1d1d1b;fill-opacity:1;fill-rule:evenodd;stroke:none"
         id="path9024" /></g><g
       id="g9026"
       transform="translate(42.0752,53.3139)"><path
         d="M 0,0 1.044,0.958 0.277,1.793 -0.767,0.835 Z"
         style="fill:#1d1d1b;fill-opacity:1;fill-rule:evenodd;stroke:none"
         id="path9028" /></g><g
       id="g9030"
       transform="translate(43.9548,55.0389)"><path
         d="M 0,0 1.044,0.958 0.277,1.793 -0.767,0.835 Z"
         style="fill:#1d1d1b;fill-opacity:1;fill-rule:evenodd;stroke:none"
         id="path9032" /></g><g
       id="g9034"
       transform="translate(45.8344,56.7639)"><path
         d="M 0,0 1.044,0.958 0.277,1.793 -0.767,0.835 Z"
         style="fill:#1d1d1b;fill-opacity:1;fill-rule:evenodd;stroke:none"
         id="path9036" /></g><g
       id="g9038"
       transform="translate(47.7141,58.4889)"><path
         d="M 0,0 1.044,0.958 0.277,1.793 -0.767,0.835 Z"
         style="fill:#1d1d1b;fill-opacity:1;fill-rule:evenodd;stroke:none"
         id="path9040" /></g><g
       id="g9042"
       transform="translate(49.5937,60.2139)"><path
         d="M 0,0 1.044,0.958 0.277,1.793 -0.767,0.835 Z"
         style="fill:#1d1d1b;fill-opacity:1;fill-rule:evenodd;stroke:none"
         id="path9044" /></g><g
       id="g9046"
       transform="translate(51.4733,61.9388)"><path
         d="M 0,0 1.044,0.958 0.277,1.793 -0.767,0.835 Z"
         style="fill:#1d1d1b;fill-opacity:1;fill-rule:evenodd;stroke:none"
         id="path9048" /></g><g
       id="g9050"
       transform="translate(53.3529,63.6638)"><path
         d="M 0,0 1.044,0.958 0.277,1.793 -0.767,0.835 Z"
         style="fill:#1d1d1b;fill-opacity:1;fill-rule:evenodd;stroke:none"
         id="path9052" /></g><g
       id="g9054"
       transform="translate(55.2325,65.3888)"><path
         d="M 0,0 1.044,0.958 0.277,1.793 -0.767,0.835 Z"
         style="fill:#1d1d1b;fill-opacity:1;fill-rule:evenodd;stroke:none"
         id="path9056" /></g><g
       id="g9058"
       transform="translate(57.1122,67.1138)"><path
         d="M 0,0 1.044,0.958 0.277,1.793 -0.767,0.835 Z"
         style="fill:#1d1d1b;fill-opacity:1;fill-rule:evenodd;stroke:none"
         id="path9060" /></g><g
       id="g9062"
       transform="translate(58.9918,68.8387)"><path
         d="M 0,0 1.044,0.958 0.277,1.793 -0.767,0.835 Z"
         style="fill:#1d1d1b;fill-opacity:1;fill-rule:evenodd;stroke:none"
         id="path9064" /></g><g
       id="g9066"
       transform="translate(24.3938,46.2955)"><path
         d="M 0,0 1.044,0.958 0.277,1.793 -0.767,0.835 Z"
         style="fill:#1d1d1b;fill-opacity:1;fill-rule:evenodd;stroke:none"
         id="path9068" /></g><g
       id="g9070"
       transform="translate(26.2734,48.0205)"><path
         d="M 0,0 1.044,0.958 0.277,1.793 -0.767,0.835 Z"
         style="fill:#1d1d1b;fill-opacity:1;fill-rule:evenodd;stroke:none"
         id="path9072" /></g><g
       id="g9074"
       transform="translate(28.153,49.7455)"><path
         d="M 0,0 1.044,0.958 0.277,1.793 -0.767,0.835 Z"
         style="fill:#1d1d1b;fill-opacity:1;fill-rule:evenodd;stroke:none"
         id="path9076" /></g><g
       id="g9078"
       transform="translate(30.0327,51.4704)"><path
         d="M 0,0 1.044,0.958 0.277,1.793 -0.767,0.835 Z"
         style="fill:#1d1d1b;fill-opacity:1;fill-rule:evenodd;stroke:none"
         id="path9080" /></g><g
       id="g9082"
       transform="translate(31.9123,53.1954)"><path
         d="M 0,0 1.044,0.958 0.277,1.793 -0.767,0.835 Z"
         style="fill:#1d1d1b;fill-opacity:1;fill-rule:evenodd;stroke:none"
         id="path9084" /></g><g
       id="g9086"
       transform="translate(33.7919,54.9204)"><path
         d="M 0,0 1.044,0.958 0.277,1.793 -0.767,0.835 Z"
         style="fill:#1d1d1b;fill-opacity:1;fill-rule:evenodd;stroke:none"
         id="path9088" /></g><g
       id="g9090"
       transform="translate(35.6715,56.6454)"><path
         d="M 0,0 1.044,0.958 0.277,1.793 -0.767,0.835 Z"
         style="fill:#1d1d1b;fill-opacity:1;fill-rule:evenodd;stroke:none"
         id="path9092" /></g><g
       id="g9094"
       transform="translate(37.5512,58.3703)"><path
         d="M 0,0 1.044,0.958 0.277,1.793 -0.767,0.835 Z"
         style="fill:#1d1d1b;fill-opacity:1;fill-rule:evenodd;stroke:none"
         id="path9096" /></g><g
       id="g9098"
       transform="translate(39.4308,60.0953)"><path
         d="M 0,0 1.044,0.958 0.277,1.793 -0.767,0.835 Z"
         style="fill:#1d1d1b;fill-opacity:1;fill-rule:evenodd;stroke:none"
         id="path9100" /></g><g
       id="g9102"
       transform="translate(41.3104,61.8203)"><path
         d="M 0,0 1.044,0.958 0.277,1.793 -0.767,0.835 Z"
         style="fill:#1d1d1b;fill-opacity:1;fill-rule:evenodd;stroke:none"
         id="path9104" /></g><g
       id="g9106"
       transform="translate(43.19,63.5453)"><path
         d="M 0,0 1.044,0.958 0.277,1.793 -0.767,0.835 Z"
         style="fill:#1d1d1b;fill-opacity:1;fill-rule:evenodd;stroke:none"
         id="path9108" /></g><g
       id="g9110"
       transform="translate(45.0696,65.2703)"><path
         d="M 0,0 1.044,0.958 0.277,1.793 -0.767,0.835 Z"
         style="fill:#1d1d1b;fill-opacity:1;fill-rule:evenodd;stroke:none"
         id="path9112" /></g><g
       id="g9114"
       transform="translate(46.9493,66.9952)"><path
         d="M 0,0 1.044,0.958 0.277,1.793 -0.767,0.835 Z"
         style="fill:#1d1d1b;fill-opacity:1;fill-rule:evenodd;stroke:none"
         id="path9116" /></g><g
       id="g9118"
       transform="translate(48.8289,68.7202)"><path
         d="M 0,0 1.044,0.958 0.277,1.793 -0.767,0.835 Z"
         style="fill:#1d1d1b;fill-opacity:1;fill-rule:evenodd;stroke:none"
         id="path9120" /></g><g
       id="g9122"
       transform="translate(50.7085,70.4452)"><path
         d="M 0,0 1.044,0.958 0.277,1.793 -0.767,0.835 Z"
         style="fill:#1d1d1b;fill-opacity:1;fill-rule:evenodd;stroke:none"
         id="path9124" /></g><g
       id="g9126"
       transform="translate(52.5881,72.1702)"><path
         d="M 0,0 1.044,0.958 0.277,1.793 -0.767,0.835 Z"
         style="fill:#1d1d1b;fill-opacity:1;fill-rule:evenodd;stroke:none"
         id="path9128" /></g><g
       id="g9130"
       transform="translate(54.7452,75.6882)"><path
         d="m 0,0 -1.044,-0.958 0.767,-0.835 1.044,0.958 z"
         style="fill:#1d1d1b;fill-opacity:1;fill-rule:nonzero;stroke:none"
         id="path9132" /></g><g
       id="g9134"><g
         id="g9136"
         clip-path="url(#clipPath9140)"><path
           d="M 17.016,14.74 H 48.197 V 0.567 H 17.016 Z"
           style="fill:none;stroke:#312783;stroke-width:1.134;stroke-linecap:butt;stroke-linejoin:miter;stroke-miterlimit:22.926;stroke-dasharray:none;stroke-opacity:1"
           id="path9142" /></g></g><path
       d="m 37.188,6.984 h 1.417 v 1.134 h -1.417 z"
       style="fill:#1d1d1b;fill-opacity:1;fill-rule:evenodd;stroke:none"
       id="path9144" /><path
       d="m 39.739,6.984 h 1.417 v 1.134 h -1.417 z"
       style="fill:#1d1d1b;fill-opacity:1;fill-rule:evenodd;stroke:none"
       id="path9146" /><g
       id="g9148"
       transform="translate(0,45.1989)"><path
         d="M 0,0 3.442,-1.975 V 1.993 Z"
         style="fill:#1d1d1b;fill-opacity:1;fill-rule:nonzero;stroke:none"
         id="path9150" /></g><g
       id="g9152"
       transform="translate(0,41.2308)"><path
         d="M 0,0 3.442,-1.976 V 1.993 Z"
         style="fill:#1d1d1b;fill-opacity:1;fill-rule:nonzero;stroke:none"
         id="path9154" /></g><g
       id="g9156"
       transform="translate(0,37.2618)"><path
         d="M 0,0 3.442,-1.975 V 1.993 Z"
         style="fill:#1d1d1b;fill-opacity:1;fill-rule:nonzero;stroke:none"
         id="path9158" /></g><g
       id="g9160"
       transform="translate(0,33.2937)"><path
         d="M 0,0 3.442,-1.975 V 1.993 Z"
         style="fill:#1d1d1b;fill-opacity:1;fill-rule:nonzero;stroke:none"
         id="path9162" /></g><g
       id="g9164"><g
         id="g9166"
         clip-path="url(#clipPath9170)"><text
           transform="matrix(1,0,0,-1,72.2924,42.4991)"
           style="font-variant:normal;font-weight:normal;font-stretch:semi-condensed;font-size:6.9997px;font-family:'Arial Narrow';-inkscape-font-specification:ArialNarrow;writing-mode:lr-tb;fill:#e30613;fill-opacity:1;fill-rule:nonzero;stroke:none"
           id="text9174"><tspan
             x="0 3.1918633 4.7877946"
             y="0"
             sodipodi:role="line"
             id="tspan9172">0.2</tspan></text></g></g><text
       transform="matrix(1,0,0,-1,33.0289,21.5424)"
       style="font-variant:normal;font-weight:normal;font-stretch:semi-condensed;font-size:6.9997px;font-family:'Arial Narrow';-inkscape-font-specification:ArialNarrow;writing-mode:lr-tb;fill:#e30613;fill-opacity:1;fill-rule:nonzero;stroke:none"
       id="text9178"><tspan
         x="0 3.1918633 4.7877946 15.217348 18.40921 20.005142 23.197006"
         y="0"
         sodipodi:role="line"
         id="tspan9176">0.20.25</tspan></text><g
       id="g9180"
       transform="translate(52.9335,28.168)"><path
         d="M 0,0 V 2.692"
         style="fill:none;stroke:#e30613;stroke-width:0.283;stroke-linecap:butt;stroke-linejoin:miter;stroke-miterlimit:22.926;stroke-dasharray:none;stroke-opacity:1"
         id="path9182" /></g><g
       id="g9184"
       transform="translate(54.3509,28.168)"><path
         d="M 0,0 V 2.692"
         style="fill:none;stroke:#e30613;stroke-width:0.283;stroke-linecap:butt;stroke-linejoin:miter;stroke-miterlimit:22.926;stroke-dasharray:none;stroke-opacity:1"
         id="path9186" /></g><text
       transform="matrix(1,0,0,-1,4.4239,21.5424)"
       style="font-variant:normal;font-weight:normal;font-stretch:semi-condensed;font-size:6.9997px;font-family:'Arial Narrow';-inkscape-font-specification:ArialNarrow;writing-mode:lr-tb;fill:#e30613;fill-opacity:1;fill-rule:nonzero;stroke:none"
       id="text9192"><tspan
         x="0 3.1918633 4.7877946"
         y="0"
         sodipodi:role="line"
         id="tspan9188">0.2</tspan><tspan
         x="17.625244 22.40604 23.679985 26.871849"
         y="15.854321"
         sodipodi:role="line"
         id="tspan9190">min.</tspan></text><g
       id="g9194"
       transform="translate(4.7617,27.5454)"><path
         d="M 0,0 -0.716,3.706 2.449,2.143"
         style="fill:none;stroke:#e30613;stroke-width:0.283;stroke-linecap:butt;stroke-linejoin:miter;stroke-miterlimit:22.926;stroke-dasharray:none;stroke-opacity:1"
         id="path9196" /></g><g
       id="g9198"
       transform="translate(35.9533,28.168)"><path
         d="M 0,0 1.11,2.588 2.22,0"
         style="fill:none;stroke:#e30613;stroke-width:0.283;stroke-linecap:butt;stroke-linejoin:miter;stroke-miterlimit:22.926;stroke-dasharray:none;stroke-opacity:1"
         id="path9200" /></g></g></svg>
