<?xml version="1.0" encoding="UTF-8" standalone="no"?>
<svg xmlns:inkscape="http://www.inkscape.org/namespaces/inkscape" xmlns:sodipodi="http://sodipodi.sourceforge.net/DTD/sodipodi-0.dtd" xmlns="http://www.w3.org/2000/svg" xmlns:svg="http://www.w3.org/2000/svg" version="1.1" id="svg23754" width="91.929733" height="34.642933" viewBox="0 0 91.929733 34.642933" sodipodi:docname="ISSprOM 715 Continuing point after map exchange.svg" inkscape:version="1.2.2 (732a01da63, 2022-12-09)">
<rect width="100%" height="100%" fill="white"/>
  <defs id="defs23758">
    <clipPath id="clipPath23770">
      <path d="M 0,25.982 H 68.947 V 0 H 0 Z" id="path23768"></path>
    </clipPath>
  </defs>
  <g id="g23762" inkscape:groupmode="layer" inkscape:label="Page 1" transform="matrix(1.3333333,0,0,-1.3333333,0,34.642933)">
    <g id="g23764">
      <g id="g23766" clip-path="url(#clipPath23770)">
        <g id="g23772" transform="translate(34.7918,8.4783)">
          <path d="m 0,0 c -4.697,0 -8.505,3.807 -8.505,8.504 0,4.697 3.808,8.504 8.505,8.504 4.696,0 8.503,-3.807 8.503,-8.504 C 8.503,3.807 4.696,0 0,0 Z" style="fill:none;stroke:#b04191;stroke-width:0.992;stroke-linecap:butt;stroke-linejoin:miter;stroke-miterlimit:22.926;stroke-dasharray:none;stroke-opacity:1" id="path23774"></path>
        </g>
        <g id="g23776" transform="translate(41.6493,13.0374)">
          <path d="m 0,0 h -13.717 l 6.859,11.88 z" style="fill:none;stroke:#b04191;stroke-width:0.992;stroke-linecap:butt;stroke-linejoin:miter;stroke-miterlimit:22.926;stroke-dasharray:none;stroke-opacity:1" id="path23778"></path>
        </g>
        <text xml:space="preserve" transform="matrix(1,0,0,-1,0,2.1465)" style="font-variant:normal;font-weight:normal;font-stretch:semi-condensed;font-size:7px;font-family:'Arial Narrow';-inkscape-font-specification:ArialNarrow;writing-mode:lr-tb;fill:#e30613;fill-opacity:1;fill-rule:nonzero;stroke:none" id="text23784">
          <tspan x="0 3.507 5.1030002 8.2950001 9.8909998 13.083 14.679 16.59 20.733999 24.878" y="0" sodipodi:role="line" id="tspan23780">ø 6.0 (CC)</tspan>
          <tspan x="57.771 60.963001 62.558998 65.750999" y="-12.761" sodipodi:role="line" id="tspan23782">0.35</tspan>
        </text>
      </g>
    </g>
  </g>
</svg>
