<?xml version="1.0" encoding="UTF-8" standalone="no"?>
<!-- Created with Inkscape (http://www.inkscape.org/) -->

<svg
   version="1.1"
   id="svg577"
   xml:space="preserve"
   width="111.98707"
   height="177.64133"
   viewBox="0 0 111.98707 177.64133"
   sodipodi:docname="ISSprOM 101 Contour.svg"
   inkscape:version="1.1.1 (3bf5ae0d25, 2021-09-20)"
   xmlns:inkscape="http://www.inkscape.org/namespaces/inkscape"
   xmlns:sodipodi="http://sodipodi.sourceforge.net/DTD/sodipodi-0.dtd"
   xmlns="http://www.w3.org/2000/svg"
   xmlns:svg="http://www.w3.org/2000/svg"><defs
     id="defs581"><clipPath
       clipPathUnits="userSpaceOnUse"
       id="clipPath591"><path
         d="M 0,133.231 H 83.99 V 0 H 0 Z"
         id="path589" /></clipPath><clipPath
       clipPathUnits="userSpaceOnUse"
       id="clipPath711"><path
         d="M 0,133.231 H 83.99 V 0 H 0 Z"
         id="path709" /></clipPath><clipPath
       clipPathUnits="userSpaceOnUse"
       id="clipPath731"><path
         d="M 0,133.231 H 83.99 V 0 H 0 Z"
         id="path729" /></clipPath></defs><sodipodi:namedview
     id="namedview579"
     pagecolor="#ffffff"
     bordercolor="#666666"
     borderopacity="1.0"
     inkscape:pageshadow="2"
     inkscape:pageopacity="0.0"
     inkscape:pagecheckerboard="0"
     showgrid="false"
     inkscape:zoom="4.7004828"
     inkscape:cx="56.058071"
     inkscape:cy="88.820663"
     inkscape:window-width="1920"
     inkscape:window-height="1017"
     inkscape:window-x="-8"
     inkscape:window-y="-8"
     inkscape:window-maximized="1"
     inkscape:current-layer="g583" /><g
     id="g583"
     inkscape:groupmode="layer"
     inkscape:label="ISSprOM 101 Contour"
     transform="matrix(1.3333333,0,0,-1.3333333,0,177.64133)"><g
       id="g585"><g
         id="g587"
         clip-path="url(#clipPath591)"><g
           id="g593"
           transform="translate(1.8927,11.5318)"><path
             d="m 0,0 c 0,4.173 -0.222,9.396 2.751,11.959 2.973,2.566 5.383,2.95 7.165,1.543 4.436,-3.503 10.477,-5.81 14.16,-7.389 4.785,-2.049 7.949,-2.845 13.127,-2.3 4.473,0.47 12.19,1.126 11.055,-3.225 -1.397,-5.362 -5.43,-14.412 -9.444,-10.592 -4.757,4.529 -9.32,5.337 -15.886,5.525 -6.653,0.19 -12.184,-6.457 -18.84,-6.457 C 1.342,-10.936 0,-2.746 0,0 Z"
             style="fill:none;stroke:#d07500;stroke-width:1.191;stroke-linecap:butt;stroke-linejoin:miter;stroke-miterlimit:22.926;stroke-dasharray:none;stroke-opacity:1"
             id="path595" /></g><g
           id="g597"
           transform="translate(15.4825,14.816)"><path
             d="m 0,0 c -0.564,1.13 -5.24,2.594 -6.504,1.782 -1.452,-0.933 -1.945,-6.333 -0.522,-7.308 1.13,-0.775 3.357,0.589 4.432,1.438 C -1.427,-3.165 0.789,-1.59 0,0 Z"
             style="fill:none;stroke:#d07500;stroke-width:1.701;stroke-linecap:butt;stroke-linejoin:miter;stroke-miterlimit:22.926;stroke-dasharray:none;stroke-opacity:1"
             id="path599" /></g><g
           id="g601"
           transform="translate(0.294,102.8903)"><path
             d="m 0,0 c 6.667,-0.483 15.649,-1.376 19.894,1.765 1.375,1.019 2.653,3.427 1.14,4.236 -1.675,0.893 -3.093,1.846 -3.093,3.743 0,1.537 1.882,1.902 3.419,1.953 3.303,0.115 8.054,-0.097 8.789,-2.503 1.209,-3.955 3.067,-7 7.17,-6.451 6.052,0.808 9.27,2.46 15.374,2.282"
             style="fill:none;stroke:#d07500;stroke-width:1.191;stroke-linecap:butt;stroke-linejoin:miter;stroke-miterlimit:22.926;stroke-dasharray:none;stroke-opacity:1"
             id="path603" /></g><g
           id="g605"
           transform="translate(0.294,39.5495)"><path
             d="m 0,0 c 4.982,2.83 11.891,7.594 14.827,3.694 3.506,-4.658 8.498,-9.318 13.516,-6.349 4.503,2.664 9.346,4.503 13.353,1.138 3.651,-3.066 6.669,-6.14 10.997,-4.142"
             style="fill:none;stroke:#d07500;stroke-width:1.191;stroke-linecap:butt;stroke-linejoin:miter;stroke-miterlimit:22.926;stroke-dasharray:none;stroke-opacity:1"
             id="path607" /></g><g
           id="g609"
           transform="translate(0.294,109.6276)"><path
             d="M 0,0 C 7.64,0.047 9.684,3.705 13.15,5.631 16.834,7.677 19.613,8.65 23.732,7.747 34.271,5.435 42.198,3.022 52.693,5.52"
             style="fill:none;stroke:#d07500;stroke-width:1.191;stroke-linecap:butt;stroke-linejoin:miter;stroke-miterlimit:22.926;stroke-dasharray:none;stroke-opacity:1"
             id="path611" /></g><g
           id="g613"
           transform="translate(0.2636,63.9391)"><path
             d="m 0,0 c 5.823,1.531 12.609,4.246 14.843,5.045 2.869,1.027 4.207,-0.22 5.234,-5.928 0.401,-2.226 2.32,-3.604 4.103,-3.365 5.372,0.721 6.673,4.043 11.61,2.701 3.735,-1.015 3.217,4.116 6.205,5.65 3.031,1.556 6.553,-0.277 6.553,6.608"
             style="fill:none;stroke:#d07500;stroke-width:1.191;stroke-linecap:butt;stroke-linejoin:miter;stroke-miterlimit:22.926;stroke-dasharray:none;stroke-opacity:1"
             id="path615" /></g><g
           id="g617"
           transform="translate(0.2939,31.5402)"><path
             d="m 0,0 c 6.991,1.291 15.001,0.625 20.038,-1.122 5.177,-1.798 8.691,-0.52 14.004,0.811 2.799,0.7 4.744,-0.223 7.164,-1.79 4.113,-2.669 7.681,-2.362 11.487,-1.147"
             style="fill:none;stroke:#d07500;stroke-width:1.191;stroke-linecap:butt;stroke-linejoin:miter;stroke-miterlimit:22.926;stroke-dasharray:none;stroke-opacity:1"
             id="path619" /></g><g
           id="g621"
           transform="translate(6.8438,4.0494)"><path
             d="M 0,0 C -2.397,1.319 -2.664,14.027 -0.515,15.718 1.371,17.2 15.107,13.563 15.9,11.298 16.868,8.541 9.721,5.341 7.371,3.506 6.115,2.524 1.398,-0.767 0,0 Z"
             style="fill:none;stroke:#d07500;stroke-width:1.191;stroke-linecap:butt;stroke-linejoin:miter;stroke-miterlimit:22.926;stroke-dasharray:none;stroke-opacity:1"
             id="path623" /></g><g
           id="g625"
           transform="translate(0.294,57.9286)"><path
             d="m 0,0 c 5.477,2.612 12.938,6.564 16.32,4.223 2.883,-1.997 4.067,-9.035 10.035,-8.809 4.389,0.166 6.125,5.989 10.501,5.637 3.506,-0.281 4.632,-0.14 6.515,2.832 1.282,2.027 6.711,0.024 7.602,9.497"
             style="fill:none;stroke:#d07500;stroke-width:1.191;stroke-linecap:butt;stroke-linejoin:miter;stroke-miterlimit:22.926;stroke-dasharray:none;stroke-opacity:1"
             id="path627" /></g><g
           id="g629"
           transform="translate(0.1788,95.5278)"><path
             d="m 0,0 c 10.292,-0.657 27.277,-2.549 26.034,5.221 -0.422,2.635 -2.664,7.026 0,6.838 2.872,-0.204 4.277,-2.387 5.374,-5.048 1.049,-2.542 1.167,-5.614 3.905,-5.862 2.34,-0.212 3.303,1.93 4.563,3.909 2.739,4.303 7.836,0.767 12.932,0.971"
             style="fill:none;stroke:#d07500;stroke-width:1.191;stroke-linecap:butt;stroke-linejoin:miter;stroke-miterlimit:22.926;stroke-dasharray:none;stroke-opacity:1"
             id="path631" /></g><g
           id="g633"
           transform="translate(0.294,78.5312)"><path
             d="m 0,0 c 5.447,-0.083 13.036,-0.383 16.177,-2.66 3.957,-2.873 6.017,-0.264 8.008,2.116 2.442,2.916 5.24,4.576 6.782,2.082 1.919,-3.11 2.372,-5.325 4.884,-7.979 1.716,-1.808 5.607,-1.727 6.352,0.653 1.245,3.991 0.192,8.829 4.317,8.144 2.58,-0.43 1.998,-4.403 1.998,-6.237"
             style="fill:none;stroke:#d07500;stroke-width:1.191;stroke-linecap:butt;stroke-linejoin:miter;stroke-miterlimit:22.926;stroke-dasharray:none;stroke-opacity:1"
             id="path635" /></g><g
           id="g637"
           transform="translate(24.6988,71.9846)"><path
             d="M 0,0 C 1.064,1.913 3.066,4.332 4.768,2.952 6.237,1.758 7.3,0.42 6.857,-1.418 6.378,-3.423 5.438,-4.667 4.607,-5.321 3.201,-6.428 1.413,-6.849 0.023,-5.719 -1.032,-4.864 -1.549,-3.628 -1.038,-2.367 -0.601,-1.282 -0.567,-1.02 0,0 Z"
             style="fill:none;stroke:#d07500;stroke-width:1.191;stroke-linecap:butt;stroke-linejoin:miter;stroke-miterlimit:22.926;stroke-dasharray:none;stroke-opacity:1"
             id="path639" /></g><g
           id="g641"
           transform="translate(0.294,84.2169)"><path
             d="m 0,0 c 5.325,-0.09 12.914,-0.528 14.69,-2.072 4.169,-3.625 6.115,-2.105 8.95,1.245 1.601,1.89 4.64,5.24 6.026,3.191 2.12,-3.128 3.714,-6.023 5.948,-9.068 1.76,-2.399 4.226,-2.974 5.004,-0.149 1.291,4.686 2.226,10.603 6.901,9.708 3.032,-0.58 4.508,-7.806 3.454,-15.763"
             style="fill:none;stroke:#d07500;stroke-width:1.191;stroke-linecap:butt;stroke-linejoin:miter;stroke-miterlimit:22.926;stroke-dasharray:none;stroke-opacity:1"
             id="path643" /></g><g
           id="g645"
           transform="translate(16.9109,85.8739)"><path
             d="M 0,0 C 1.268,0.518 6.174,1.445 4.773,-0.886 3.769,-2.558 2.602,-2.706 0.8,-1.957 -0.516,-1.408 -1.268,-0.518 0,0 Z"
             style="fill:none;stroke:#d07500;stroke-width:1.191;stroke-linecap:butt;stroke-linejoin:miter;stroke-miterlimit:22.926;stroke-dasharray:none;stroke-opacity:1"
             id="path647" /></g><g
           id="g649"
           transform="translate(34.0468,85.7467)"><path
             d="M 0,0 C -0.848,1.186 -1.008,2.791 0.36,2.935 2.531,3.164 6.382,2.819 6.15,0.768 5.957,-0.942 5.789,-4.675 3.68,-4.664 2.546,-4.658 1.9,-2.649 0,0 Z"
             style="fill:none;stroke:#d07500;stroke-width:1.701;stroke-linecap:butt;stroke-linejoin:miter;stroke-miterlimit:22.926;stroke-dasharray:none;stroke-opacity:1"
             id="path651" /></g><g
           id="g653"
           transform="translate(0.2939,75.1588)"><path
             d="M 0,0 C 5.344,-0.029 13.265,-0.297 13.623,-2.494 13.973,-4.642 5.587,-6.721 0,-7.857"
             style="fill:none;stroke:#d07500;stroke-width:1.191;stroke-linecap:butt;stroke-linejoin:miter;stroke-miterlimit:22.926;stroke-dasharray:none;stroke-opacity:1"
             id="path655" /></g><g
           id="g657"
           transform="translate(0.294,49.5276)"><path
             d="m 0,0 c 7.677,2.586 9.795,4.324 11.848,8.159 0.922,1.723 3.565,1.79 4.297,-0.597 1.437,-4.691 -0.427,-5.239 -0.264,-7.84 0.209,-3.35 3.114,-5.882 6.451,-6.234 4.219,-0.446 9.571,0.004 11.414,3.82 3.023,6.258 5.625,6.351 6.927,2.226 1.375,-4.358 2.435,-7.743 5.518,-8.032 2.813,-0.264 5.157,7.687 6.024,12.301 0.867,4.614 1.581,11.176 1.809,15.137 0.227,3.962 0.032,8.572 -0.127,9.94 -0.884,7.59 -2.745,13.078 -6.346,13.709 -3.493,0.612 -9.784,-1.595 -13.828,0.844 -2.04,1.23 -1.674,3.553 -4.057,3.553 -2.476,0 -2.92,-2.577 -4.399,-4.559 C 21.497,37.378 9.03,40.278 0,40.731"
             style="fill:none;stroke:#d07500;stroke-width:1.701;stroke-linecap:butt;stroke-linejoin:miter;stroke-miterlimit:22.926;stroke-dasharray:none;stroke-opacity:1"
             id="path659" /></g><g
           id="g661"
           transform="translate(0.294,115.2377)"><path
             d="m 0,0 c 7.196,0.614 9.7,4.343 13.15,6.26 3.684,2.045 7.536,5.291 11.49,3.831 C 29.98,8.119 42.723,3.34 52.547,6.266"
             style="fill:none;stroke:#d07500;stroke-width:1.191;stroke-linecap:butt;stroke-linejoin:miter;stroke-miterlimit:22.926;stroke-dasharray:none;stroke-opacity:1"
             id="path663" /></g><g
           id="g665"
           transform="translate(0.294,122.5876)"><path
             d="m 0,0 c 6.531,1.497 10.552,4.213 15.707,7.989 6.003,4.772 8.431,-1.508 14.204,-0.834 5.774,0.674 8.395,-8.091 22.782,-3.594"
             style="fill:none;stroke:#d07500;stroke-width:1.701;stroke-linecap:butt;stroke-linejoin:miter;stroke-miterlimit:22.926;stroke-dasharray:none;stroke-opacity:1"
             id="path667" /></g><g
           id="g669"
           transform="translate(22.9376,22.152)"><path
             d="m 0,0 c 2.986,-1.607 5.359,-4.134 12.938,-4.134 7.578,0 10.945,0.995 11.175,3.445 0.23,2.45 -5.742,4.899 -7.732,5.894 C 14.392,6.201 10.099,6.583 6.047,5.435 1.996,4.286 -3.368,3.215 0,0 Z"
             style="fill:none;stroke:#d07500;stroke-width:1.191;stroke-linecap:butt;stroke-linejoin:miter;stroke-miterlimit:22.926;stroke-dasharray:none;stroke-opacity:1"
             id="path671" /></g><g
           id="g673"
           transform="translate(33.8849,25.3668)"><path
             d="m 0,0 c -2.986,-0.23 -8.574,-0.23 -5.436,-2.602 3.139,-2.374 5.588,-2.756 9.262,-2.22 3.675,0.535 5.512,2.066 3.598,2.908 C 5.511,-1.072 4.822,-0.076 0,0 Z"
             style="fill:none;stroke:#d07500;stroke-width:1.191;stroke-linecap:butt;stroke-linejoin:miter;stroke-miterlimit:22.926;stroke-dasharray:none;stroke-opacity:1"
             id="path675" /></g><g
           id="g677"
           transform="translate(29.3004,81.282)"><path
             d="M 0,0 -0.156,-4.287"
             style="fill:none;stroke:#d07500;stroke-width:1.191;stroke-linecap:butt;stroke-linejoin:miter;stroke-miterlimit:22.926;stroke-dasharray:none;stroke-opacity:1"
             id="path679" /></g><g
           id="g681"
           transform="translate(46.178,80.9304)"><path
             d="M 0,0 -0.09,-4.252"
             style="fill:none;stroke:#d07500;stroke-width:1.191;stroke-linecap:butt;stroke-linejoin:miter;stroke-miterlimit:22.926;stroke-dasharray:none;stroke-opacity:1"
             id="path683" /></g><g
           id="g685"
           transform="translate(29.8602,96.5134)"><path
             d="M 0,0 -0.09,-4.252"
             style="fill:none;stroke:#d07500;stroke-width:1.191;stroke-linecap:butt;stroke-linejoin:miter;stroke-miterlimit:22.926;stroke-dasharray:none;stroke-opacity:1"
             id="path687" /></g><g
           id="g689"
           transform="translate(28.6129,75.5768)"><path
             d="M 0,0 -0.567,-4.215"
             style="fill:none;stroke:#d07500;stroke-width:1.191;stroke-linecap:butt;stroke-linejoin:miter;stroke-miterlimit:22.926;stroke-dasharray:none;stroke-opacity:1"
             id="path691" /></g><g
           id="g693"
           transform="translate(27.1861,69.6178)"><path
             d="M 0,0 -1.523,-3.706"
             style="fill:none;stroke:#d07500;stroke-width:1.191;stroke-linecap:butt;stroke-linejoin:miter;stroke-miterlimit:22.926;stroke-dasharray:none;stroke-opacity:1"
             id="path695" /></g><g
           id="g697"
           transform="translate(24.3504,63.9392)"><path
             d="M 0,0 -2.015,-3.744"
             style="fill:none;stroke:#d07500;stroke-width:1.191;stroke-linecap:butt;stroke-linejoin:miter;stroke-miterlimit:22.926;stroke-dasharray:none;stroke-opacity:1"
             id="path699" /></g></g></g><text
       transform="matrix(1,0,0,-1,60.7266,101.6123)"
       style="font-variant:normal;font-weight:normal;font-stretch:semi-condensed;font-size:7px;font-family:'Arial Narrow';-inkscape-font-specification:ArialNarrow;writing-mode:lr-tb;fill:#e30613;fill-opacity:1;fill-rule:nonzero;stroke:none"
       id="text703"><tspan
         x="0 3.1919999 4.7880001 7.98"
         y="0"
         sodipodi:role="line"
         id="tspan701">0.21</tspan></text><g
       id="g705"><g
         id="g707"
         clip-path="url(#clipPath711)"><g
           id="g713"
           transform="translate(59.2911,104.6101)"><path
             d="M 0,0 -5.348,3.253"
             style="fill:none;stroke:#e30613;stroke-width:0.283;stroke-linecap:butt;stroke-linejoin:miter;stroke-miterlimit:22.926;stroke-dasharray:none;stroke-opacity:1"
             id="path715" /></g><g
           id="g717"
           transform="translate(57.551,71.2059)"><path
             d="M 0,0 -10.316,5.255"
             style="fill:none;stroke:#e30613;stroke-width:0.283;stroke-linecap:butt;stroke-linejoin:miter;stroke-miterlimit:22.926;stroke-dasharray:none;stroke-opacity:1"
             id="path719" /></g></g></g><text
       transform="matrix(1,0,0,-1,58.1504,66.3135)"
       style="font-variant:normal;font-weight:normal;font-stretch:semi-condensed;font-size:7px;font-family:'Arial Narrow';-inkscape-font-specification:ArialNarrow;writing-mode:lr-tb;fill:#e30613;fill-opacity:1;fill-rule:nonzero;stroke:none"
       id="text723"><tspan
         x="0 3.1919999 4.7880001 7.98"
         y="0"
         sodipodi:role="line"
         id="tspan721">0.21</tspan></text><g
       id="g725"><g
         id="g727"
         clip-path="url(#clipPath731)"><text
           transform="matrix(1,0,0,-1,58.1504,78.1836)"
           style="font-variant:normal;font-weight:normal;font-stretch:semi-condensed;font-size:7px;font-family:'Arial Narrow';-inkscape-font-specification:ArialNarrow;writing-mode:lr-tb;fill:#e30613;fill-opacity:1;fill-rule:nonzero;stroke:none"
           id="text735"><tspan
             x="0 3.1919999 4.7880001 7.98 11.172 12.768 14.679 19.145 23.926001"
             y="0"
             sodipodi:role="line"
             id="tspan733">0.75 (OM)</tspan></text><g
           id="g737"
           transform="translate(47.2354,80.9304)"><path
             d="M 0,0 9.906,1.278"
             style="fill:none;stroke:#e30613;stroke-width:0.283;stroke-linecap:butt;stroke-linejoin:miter;stroke-miterlimit:22.926;stroke-dasharray:none;stroke-opacity:1"
             id="path739" /></g><g
           id="g741"
           transform="translate(47.7188,76.9048)"><path
             d="M 0,0 9.906,1.278"
             style="fill:none;stroke:#e30613;stroke-width:0.283;stroke-linecap:butt;stroke-linejoin:miter;stroke-miterlimit:22.926;stroke-dasharray:none;stroke-opacity:1"
             id="path743" /></g></g></g></g></svg>
