<?xml version="1.0" encoding="UTF-8" standalone="no"?>
<!-- Created with Inkscape (http://www.inkscape.org/) -->

<svg
   version="1.1"
   id="svg996"
   xml:space="preserve"
   width="115.58067"
   height="145.632"
   viewBox="0 0 115.58067 145.632"
   sodipodi:docname="ISSprOM 102 Index contour.svg"
   inkscape:version="1.1.1 (3bf5ae0d25, 2021-09-20)"
   xmlns:inkscape="http://www.inkscape.org/namespaces/inkscape"
   xmlns:sodipodi="http://sodipodi.sourceforge.net/DTD/sodipodi-0.dtd"
   xmlns="http://www.w3.org/2000/svg"
   xmlns:svg="http://www.w3.org/2000/svg">
  <rect width="100%" height="100%" fill="white"/>
<defs
     id="defs1000"><clipPath
       clipPathUnits="userSpaceOnUse"
       id="clipPath1010"><path
         d="M 0,109.224 H 86.686 V 0 H 0 Z"
         id="path1008" /></clipPath><clipPath
       clipPathUnits="userSpaceOnUse"
       id="clipPath1086"><path
         d="M 0,109.224 H 86.686 V 0 H 0 Z"
         id="path1084" /></clipPath><clipPath
       clipPathUnits="userSpaceOnUse"
       id="clipPath1102"><path
         d="M 0,109.224 H 86.686 V 0 H 0 Z"
         id="path1100" /></clipPath><clipPath
       clipPathUnits="userSpaceOnUse"
       id="clipPath1118"><path
         d="M 0,109.224 H 86.686 V 0 H 0 Z"
         id="path1116" /></clipPath></defs><sodipodi:namedview
     id="namedview998"
     pagecolor="#ffffff"
     bordercolor="#666666"
     borderopacity="1.0"
     inkscape:pageshadow="2"
     inkscape:pageopacity="0.0"
     inkscape:pagecheckerboard="0"
     showgrid="false"
     inkscape:zoom="5.7336298"
     inkscape:cx="57.816778"
     inkscape:cy="72.816002"
     inkscape:window-width="1920"
     inkscape:window-height="1017"
     inkscape:window-x="-8"
     inkscape:window-y="-8"
     inkscape:window-maximized="1"
     inkscape:current-layer="g1002" /><g
     id="g1002"
     inkscape:groupmode="layer"
     inkscape:label="ISSprOM 102 Index contour"
     transform="matrix(1.3333333,0,0,-1.3333333,0,145.632)"><g
       id="g1004"><g
         id="g1006"
         clip-path="url(#clipPath1010)"><g
           id="g1012"
           transform="translate(0.3564,80.2812)"><path
             d="m 0,0 c 3.107,0 10.002,0.388 11.312,4.327 0.816,2.451 3.072,5.179 5.625,6.087 2.082,0.74 7.455,0.295 10.07,-0.582 7.218,-2.424 14.161,-7.604 29.627,-3.888"
             style="fill:none;stroke:#d07500;stroke-width:1.191;stroke-linecap:butt;stroke-linejoin:miter;stroke-miterlimit:22.926;stroke-dasharray:none;stroke-opacity:1"
             id="path1014" /></g><g
           id="g1016"
           transform="translate(0.3564,72.0449)"><path
             d="m 0,0 c 8.374,-0.139 10.658,0.356 15.122,1.32 4.464,0.967 8.631,3.726 5.208,6.347 -3.422,2.622 -5.208,5.519 -1.489,5.795 3.721,0.275 9.079,1.241 11.013,-2.208 1.935,-3.449 1.34,-8.829 8.036,-8.139 6.697,0.689 11.908,3.046 18.803,2.771"
             style="fill:none;stroke:#d07500;stroke-width:1.191;stroke-linecap:butt;stroke-linejoin:miter;stroke-miterlimit:22.926;stroke-dasharray:none;stroke-opacity:1"
             id="path1018" /></g><g
           id="g1020"
           transform="translate(0.3564,64.2949)"><path
             d="m 0,0 c 5.845,0 12.889,-0.174 17.949,-0.174 5.059,0 7.738,2.899 7.888,5.658 0.148,2.758 -1.787,7.864 0.148,7.864 1.935,0 3.423,-1.38 4.911,-4.139 1.488,-2.76 2.977,-8.416 5.953,-8.416 2.977,0 3.869,5.381 6.846,5.795 2.976,0.414 9.527,-0.748 12.998,-0.197"
             style="fill:none;stroke:#d07500;stroke-width:1.191;stroke-linecap:butt;stroke-linejoin:miter;stroke-miterlimit:22.926;stroke-dasharray:none;stroke-opacity:1"
             id="path1022" /></g><g
           id="g1024"
           transform="translate(0.3564,57.7011)"><path
             d="m 0,0 c 9.416,-0.414 25.39,-1.167 26.581,0.627 1.19,1.793 3.868,5.656 6.696,4.139 2.828,-1.518 7.293,-4.967 9.674,-2.346 2.381,2.621 9.972,4.877 13.742,2.67"
             style="fill:none;stroke:#d07500;stroke-width:1.701;stroke-linecap:butt;stroke-linejoin:miter;stroke-miterlimit:22.926;stroke-dasharray:none;stroke-opacity:1"
             id="path1026" /></g><g
           id="g1028"
           transform="translate(0.3564,50.3261)"><path
             d="m 0,0 c 5.101,-0.138 10.211,0 15.865,-0.552 5.656,-0.552 9.822,0.966 11.31,1.38 1.489,0.414 4.167,-0.414 6.401,-2.346 2.231,-1.93 3.273,-6.345 6.25,-5.794 2.976,0.552 2.677,7.726 4.91,9.933 2.232,2.208 6.104,2.646 11.957,2.232"
             style="fill:none;stroke:#d07500;stroke-width:1.191;stroke-linecap:butt;stroke-linejoin:miter;stroke-miterlimit:22.926;stroke-dasharray:none;stroke-opacity:1"
             id="path1030" /></g><g
           id="g1032"
           transform="translate(38.3325,52.4863)"><path
             d="M 0,0 C 0.809,0.141 1.71,-0.959 2.015,-2.456 2.319,-3.954 1.912,-5.282 1.104,-5.423 0.297,-5.564 -0.605,-4.465 -0.91,-2.968 -1.215,-1.47 -0.807,-0.142 0,0 Z"
             style="fill:none;stroke:#d07500;stroke-width:1.191;stroke-linecap:butt;stroke-linejoin:miter;stroke-miterlimit:22.926;stroke-dasharray:none;stroke-opacity:1"
             id="path1034" /></g><g
           id="g1036"
           transform="translate(0.3564,39.2949)"><path
             d="m 0,0 c 9.862,4.416 9.466,6.064 14.824,3.305 5.357,-2.758 8.036,0.414 10.863,1.795 2.828,1.379 6.251,0.275 8.781,-3.452 2.53,-3.724 3.572,-7.449 7.291,-6.345 3.721,1.105 4.763,11.866 6.401,13.384 1.636,1.516 5.508,0.264 8.533,-1.39"
             style="fill:none;stroke:#d07500;stroke-width:1.191;stroke-linecap:butt;stroke-linejoin:miter;stroke-miterlimit:22.926;stroke-dasharray:none;stroke-opacity:1"
             id="path1038" /></g><g
           id="g1040"
           transform="translate(0.3564,0.5088)"><path
             d="M 0,0 C 5.148,3.126 10.478,9.293 15.201,8.84 16.523,8.714 18.972,4.1 20.697,3.587 28.585,1.242 28.812,0.689 35.957,2.208 43.099,3.725 49.352,9.134 56.693,2.513"
             style="fill:none;stroke:#d07500;stroke-width:1.191;stroke-linecap:butt;stroke-linejoin:miter;stroke-miterlimit:22.926;stroke-dasharray:none;stroke-opacity:1"
             id="path1042" /></g><g
           id="g1044"
           transform="translate(0.3564,31.7168)"><path
             d="m 0,0 c 6.142,2.622 9.913,8.691 12.443,6.209 2.529,-2.484 6.398,-4.002 8.78,-3.174 2.381,0.826 5.06,5.932 8.483,3.586 3.422,-2.346 9.414,-8.624 12.986,-8.763 3.571,-0.137 6.657,5.589 7.997,6.281 1.34,0.689 2.83,0.513 6.004,-1.694"
             style="fill:none;stroke:#d07500;stroke-width:1.191;stroke-linecap:butt;stroke-linejoin:miter;stroke-miterlimit:22.926;stroke-dasharray:none;stroke-opacity:1"
             id="path1046" /></g><g
           id="g1048"
           transform="translate(0.3564,25.4668)"><path
             d="m 0,0 c 7.778,4.965 11.021,4.562 15.039,2.493 2.01,-1.034 4.031,-4.625 6.101,-5.33 2.069,-0.707 4.659,0.998 6.592,1.549 2.055,0.586 -0.04,9.122 2.546,9.07 2.283,-0.046 11.064,-8.224 11.971,-8.677 1.933,-0.964 4.123,1.53 6.206,3.737 2.084,2.207 4.508,2.31 8.238,0.221"
             style="fill:none;stroke:#d07500;stroke-width:1.191;stroke-linecap:butt;stroke-linejoin:miter;stroke-miterlimit:22.926;stroke-dasharray:none;stroke-opacity:1"
             id="path1050" /></g><g
           id="g1052"
           transform="translate(0.3564,89.0136)"><path
             d="m 0,0 c 4.143,2.244 7.158,3.818 10.142,5.785 2.985,1.967 5.199,4.778 8.36,5.024 3.16,0.246 3.473,-1.908 7.099,-4.213 3.797,-2.413 13.228,-4.541 19.254,-4.541 6.027,0 6.482,0.3 11.838,1.304"
             style="fill:none;stroke:#d07500;stroke-width:1.191;stroke-linecap:butt;stroke-linejoin:miter;stroke-miterlimit:22.926;stroke-dasharray:none;stroke-opacity:1"
             id="path1054" /></g><g
           id="g1056"
           transform="translate(0.3564,97.2832)"><path
             d="m 0,0 c 8.703,4.018 11.105,6.361 14.454,9.038 3.347,2.679 5.356,3.014 9.708,-0.67 4.352,-3.682 7.7,-7.03 18.078,-7.03 10.378,0 11.047,0.67 14.394,3.014"
             style="fill:none;stroke:#d07500;stroke-width:1.701;stroke-linecap:butt;stroke-linejoin:miter;stroke-miterlimit:22.926;stroke-dasharray:none;stroke-opacity:1"
             id="path1058" /></g><g
           id="g1060"
           transform="translate(0.3564,6.5293)"><path
             d="m 0,0 c 3.889,1.527 5.651,2.549 7.457,3.52 1.805,0.973 1.367,3.575 2.201,5.797 0.833,2.222 1.666,4.535 4.723,1.201 1.384,-1.509 3.672,-1.303 4.376,-2.293 0.852,-1.194 0.336,-2.852 0.944,-3.991 1.11,-2.083 2.34,-2.797 5.812,-2.797 3.473,0 6.331,0.536 8.692,1.786 2.361,1.251 2.76,3.607 2.76,4.997 0,1.388 0.555,4.584 2.222,2.222 1.667,-2.361 2.439,-5.116 4.522,-4.976 2.084,0.138 2.774,0.811 3.607,2.061 0.833,1.249 1.913,3.42 2.607,4.532 0.694,1.111 3.333,1.667 3.473,0 0.138,-1.667 0.869,-6.593 1.008,-8.4 0.139,-1.805 1.455,-2.13 2.289,-2.268"
             style="fill:none;stroke:#d07500;stroke-width:1.191;stroke-linecap:butt;stroke-linejoin:miter;stroke-miterlimit:22.926;stroke-dasharray:none;stroke-opacity:1"
             id="path1062" /></g><g
           id="g1064"
           transform="translate(0.3564,14.1386)"><path
             d="m 0,0 c 2.223,0.418 3.15,0.355 4.957,2.996 1.805,2.639 2.638,5.556 5.694,5.693 3.056,0.14 4.306,-0.137 6.39,-1.804 0.129,-0.105 0.265,-0.221 0.406,-0.348 2.105,-1.891 5.28,-6.042 7.232,-6.042 2.797,0 0.479,4.331 2.8,4.597 2.321,0.267 3.012,-3.124 3.868,-3.347 0.856,-0.223 1.703,0.465 2.11,0.895 0.894,0.945 0.806,2.273 0.806,3.132 0,1.251 0,1.946 -1.111,3.195 -1.11,1.251 -2.5,4.168 -0.416,4.168 1.469,0 2.872,-1.799 5.233,-3.606 0.442,-0.338 -0.181,0.146 0.253,-0.2 1.879,-1.497 3.586,-3.036 4.375,-4.39 0.973,-1.666 1.668,-0.834 3.334,0.417 1.666,1.25 3.75,3.889 5,4.584 1.25,0.695 3.818,1 5.762,-1.221"
             style="fill:none;stroke:#d07500;stroke-width:1.701;stroke-linecap:butt;stroke-linejoin:miter;stroke-miterlimit:22.926;stroke-dasharray:none;stroke-opacity:1"
             id="path1066" /></g><g
           id="g1068"
           transform="translate(31.5586,62.4433)"><path
             d="M 0,0 0.894,-4.691"
             style="fill:none;stroke:#d07500;stroke-width:1.191;stroke-linecap:butt;stroke-linejoin:miter;stroke-miterlimit:22.926;stroke-dasharray:none;stroke-opacity:1"
             id="path1070" /></g><g
           id="g1072"
           transform="translate(53.8369,97.7148)"><path
             d="m 0,0 -12.25,-1.728 -11.25,2.75 1.455,4.5 9.073,-3.148 12.177,0.982 z"
             style="fill:#ffffff;fill-opacity:1;fill-rule:nonzero;stroke:none"
             id="path1074" /></g></g></g><text
       transform="matrix(0.99889598,-0.04697677,-0.04697677,-0.99889598,31.8047,95.3228)"
       style="font-variant:normal;font-weight:bold;font-stretch:normal;font-size:11.9995px;font-family:Arial;-inkscape-font-specification:Arial-BoldMT;writing-mode:lr-tb;fill:#d07500;fill-opacity:1;fill-rule:nonzero;stroke:none"
       id="text1078"><tspan
         x="0 6.6717486 13.343497"
         y="0"
         sodipodi:role="line"
         id="tspan1076">375</tspan></text><g
       id="g1080"><g
         id="g1082"
         clip-path="url(#clipPath1086)"><g
           id="g1088"
           transform="translate(64.5591,19.1142)"><path
             d="M 0,0 -5.279,2.415"
             style="fill:none;stroke:#e30613;stroke-width:0.283;stroke-linecap:butt;stroke-linejoin:miter;stroke-miterlimit:22.926;stroke-dasharray:none;stroke-opacity:1"
             id="path1090" /></g></g></g><text
       transform="matrix(1,0,0,-1,66.2691,17.2827)"
       style="font-variant:normal;font-weight:normal;font-stretch:semi-condensed;font-size:6.9997px;font-family:'Arial Narrow';-inkscape-font-specification:ArialNarrow;writing-mode:lr-tb;fill:#e30613;fill-opacity:1;fill-rule:nonzero;stroke:none"
       id="text1094"><tspan
         x="0 3.1918633 4.7877946 7.9796581"
         y="0"
         sodipodi:role="line"
         id="tspan1092">0.30</tspan></text><g
       id="g1096"><g
         id="g1098"
         clip-path="url(#clipPath1102)"><g
           id="g1104"
           transform="translate(59.8232,49.7744)"><path
             d="M 0,0 -26.674,7.381"
             style="fill:none;stroke:#e30613;stroke-width:0.283;stroke-linecap:butt;stroke-linejoin:miter;stroke-miterlimit:22.926;stroke-dasharray:none;stroke-opacity:1"
             id="path1106" /></g></g></g><text
       transform="matrix(1,0,0,-1,61.4453,46.8193)"
       style="font-variant:normal;font-weight:normal;font-stretch:semi-condensed;font-size:7px;font-family:'Arial Narrow';-inkscape-font-specification:ArialNarrow;writing-mode:lr-tb;fill:#e30613;fill-opacity:1;fill-rule:nonzero;stroke:none"
       id="text1110"><tspan
         x="0 3.1919999 4.7880001 7.98"
         y="0"
         sodipodi:role="line"
         id="tspan1108">0.21</tspan></text><g
       id="g1112"><g
         id="g1114"
         clip-path="url(#clipPath1118)"><text
           transform="matrix(1,0,0,-1,60.8457,57.3564)"
           style="font-variant:normal;font-weight:normal;font-stretch:semi-condensed;font-size:7px;font-family:'Arial Narrow';-inkscape-font-specification:ArialNarrow;writing-mode:lr-tb;fill:#e30613;fill-opacity:1;fill-rule:nonzero;stroke:none"
           id="text1122"><tspan
             x="0 3.1919999 4.7880001 7.98 11.172 12.768 14.679 19.145 23.926001"
             y="0"
             sodipodi:role="line"
             id="tspan1120">0.75 (OM)</tspan></text><g
           id="g1124"
           transform="translate(32.4526,57.7524)"><path
             d="M 0,0 H 27.134"
             style="fill:none;stroke:#e30613;stroke-width:0.283;stroke-linecap:butt;stroke-linejoin:miter;stroke-miterlimit:22.926;stroke-dasharray:none;stroke-opacity:1"
             id="path1126" /></g><g
           id="g1128"
           transform="translate(31.5586,61.8969)"><path
             d="M 0,0 H 28.028"
             style="fill:none;stroke:#e30613;stroke-width:0.283;stroke-linecap:butt;stroke-linejoin:miter;stroke-miterlimit:22.926;stroke-dasharray:none;stroke-opacity:1"
             id="path1130" /></g><g
           id="g1132"
           transform="translate(51.2734,102.8281)"><path
             d="M 0,0 10.208,-0.004"
             style="fill:none;stroke:#e30613;stroke-width:0.283;stroke-linecap:butt;stroke-linejoin:miter;stroke-miterlimit:22.926;stroke-dasharray:none;stroke-opacity:1"
             id="path1134" /></g><g
           id="g1136"
           transform="translate(51.2031,94.3896)"><path
             d="M 0,0 10.207,-0.001"
             style="fill:none;stroke:#e30613;stroke-width:0.283;stroke-linecap:butt;stroke-linejoin:miter;stroke-miterlimit:22.926;stroke-dasharray:none;stroke-opacity:1"
             id="path1138" /></g></g></g><text
       transform="matrix(1,0,0,-1,59.823,95.9867)"
       style="font-variant:normal;font-weight:normal;font-stretch:semi-condensed;font-size:6.9997px;font-family:'Arial Narrow';-inkscape-font-specification:ArialNarrow;writing-mode:lr-tb;fill:#e30613;fill-opacity:1;fill-rule:nonzero;stroke:none"
       id="text1144"><tspan
         x="0 3.1918633 4.7877946 7.9796581 11.171521 12.767453 17.548248"
         y="0"
         sodipodi:role="line"
         id="tspan1140">1.52 mm</tspan><tspan
         x="3.6678429 7.020699 8.6166306 11.808494 13.404426 16.596289"
         y="7.4966788"
         sodipodi:role="line"
         id="tspan1142">= 6 pt</tspan></text></g></svg>
