<?xml version="1.0" encoding="UTF-8" standalone="no"?>
<svg xmlns:inkscape="http://www.inkscape.org/namespaces/inkscape" xmlns:sodipodi="http://sodipodi.sourceforge.net/DTD/sodipodi-0.dtd" xmlns="http://www.w3.org/2000/svg" xmlns:svg="http://www.w3.org/2000/svg" version="1.1" id="svg1218" width="102.3076" height="69.807602" viewBox="0 0 102.3076 69.807602" sodipodi:docname="ISSprOM 105.1 Small earth wall.svg" inkscape:version="1.2.2 (732a01da63, 2022-12-09)">
  <defs id="defs1222">
    <clipPath id="clipPath1234">
      <path d="M 0,52.356 H 76.731 V 0 H 0 Z" id="path1232"></path>
    </clipPath>
    <clipPath id="clipPath1278">
      <path d="M 0,52.356 H 76.731 V 0 H 0 Z" id="path1276"></path>
    </clipPath>
  </defs>
  <g id="g1226" inkscape:groupmode="layer" inkscape:label="Page 1" transform="matrix(1.3333333,0,0,-1.3333333,0,69.8076)">
    <g id="g1228">
      <g id="g1230" clip-path="url(#clipPath1234)">
        <g id="g1236" transform="translate(0,35.2583)">
          <path d="M 0,0 H 56.692" style="fill:none;stroke:#d07500;stroke-width:1.531;stroke-linecap:butt;stroke-linejoin:miter;stroke-miterlimit:22.926;stroke-dasharray:none;stroke-opacity:1" id="path1238"></path>
        </g>
        <g id="g1240" transform="translate(7.129,37.2435)">
          <path d="M 0,0 C 1.095,0 1.984,-0.889 1.984,-1.985 1.984,-3.08 1.095,-3.969 0,-3.969 c -1.096,0 -1.985,0.889 -1.985,1.984 C -1.985,-0.889 -1.096,0 0,0" style="fill:#d07500;fill-opacity:1;fill-rule:evenodd;stroke:none" id="path1242"></path>
        </g>
        <g id="g1244" transform="translate(28.3888,37.2435)">
          <path d="M 0,0 C 1.096,0 1.984,-0.889 1.984,-1.985 1.984,-3.08 1.096,-3.969 0,-3.969 c -1.096,0 -1.985,0.889 -1.985,1.984 C -1.985,-0.889 -1.096,0 0,0" style="fill:#d07500;fill-opacity:1;fill-rule:evenodd;stroke:none" id="path1246"></path>
        </g>
        <g id="g1248" transform="translate(36.7875,7.6531)">
          <path d="M 0,0 H 7.936" style="fill:none;stroke:#d07500;stroke-width:1.531;stroke-linecap:butt;stroke-linejoin:miter;stroke-miterlimit:22.926;stroke-dasharray:none;stroke-opacity:1" id="path1250"></path>
        </g>
        <g id="g1252" transform="translate(40.7982,9.6384)">
          <path d="M 0,0 C 1.096,0 1.984,-0.889 1.984,-1.985 1.984,-3.08 1.096,-3.969 0,-3.969 c -1.096,0 -1.985,0.889 -1.985,1.984 C -1.985,-0.889 -1.096,0 0,0" style="fill:#d07500;fill-opacity:1;fill-rule:evenodd;stroke:none" id="path1254"></path>
        </g>
        <g id="g1256" transform="translate(49.6486,37.2435)">
          <path d="M 0,0 C 1.095,0 1.984,-0.889 1.984,-1.985 1.984,-3.08 1.095,-3.969 0,-3.969 c -1.096,0 -1.985,0.889 -1.985,1.984 C -1.985,-0.889 -1.096,0 0,0" style="fill:#d07500;fill-opacity:1;fill-rule:evenodd;stroke:none" id="path1258"></path>
        </g>
        <path d="M 17.106,14.74 H 48.287 V 0.567 H 17.106 Z" style="fill:none;stroke:#312783;stroke-width:1.134;stroke-linecap:butt;stroke-linejoin:miter;stroke-miterlimit:22.926;stroke-dasharray:none;stroke-opacity:1" id="path1260"></path>
        <text xml:space="preserve" transform="matrix(1,0,0,-1,65.5584,32.6669)" style="font-variant:normal;font-weight:normal;font-stretch:semi-condensed;font-size:6.9997px;font-family:'Arial Narrow';-inkscape-font-specification:ArialNarrow;writing-mode:lr-tb;fill:#e30613;fill-opacity:1;fill-rule:nonzero;stroke:none" id="text1264">
          <tspan x="0 3.1918633 4.7877946 7.9796581" y="0" sodipodi:role="line" id="tspan1262">0.27</tspan>
        </text>
      </g>
    </g>
    <text xml:space="preserve" transform="matrix(1,0,0,-1,12.0008,20.2788)" style="font-variant:normal;font-weight:normal;font-stretch:semi-condensed;font-size:6.9997px;font-family:'Arial Narrow';-inkscape-font-specification:ArialNarrow;writing-mode:lr-tb;fill:#e30613;fill-opacity:1;fill-rule:nonzero;stroke:none" id="text1270">
      <tspan x="0 3.1918633 4.7877946 7.9796581 11.171521 12.767453 14.67837 18.822193 22.966015" y="0" sodipodi:role="line" id="tspan1266">3.75 (CC)</tspan>
      <tspan x="8.6656284 13.446424 14.720369 17.912231" y="15.014357" sodipodi:role="line" id="tspan1268">min.</tspan>
    </text>
    <g id="g1272">
      <g id="g1274" clip-path="url(#clipPath1278)">
        <text xml:space="preserve" transform="matrix(1,0,0,-1,40.4585,46.3489)" style="font-variant:normal;font-weight:normal;font-stretch:normal;font-size:6.9997px;font-family:Arial;-inkscape-font-specification:ArialMT;writing-mode:lr-tb;fill:#e30613;fill-opacity:1;fill-rule:nonzero;stroke:none" id="text1282">
          <tspan x="0" y="0" id="tspan1280">ø</tspan>
        </text>
        <text xml:space="preserve" transform="matrix(1,0,0,-1,46.331248,46.3489)" style="font-variant:normal;font-weight:normal;font-stretch:semi-condensed;font-size:6.9997px;font-family:'Arial Narrow';-inkscape-font-specification:ArialNarrow;writing-mode:lr-tb;fill:#e30613;fill-opacity:1;fill-rule:nonzero;stroke:none" id="text1286">
          <tspan x="0 3.1918633 4.7877946" y="0" sodipodi:role="line" id="tspan1284">0.7</tspan>
        </text>
        <g id="g1288" transform="translate(7.1289,31.4201)">
          <path d="M 0,0 V -4.955" style="fill:none;stroke:#e30613;stroke-width:0.283;stroke-linecap:butt;stroke-linejoin:miter;stroke-miterlimit:22.926;stroke-dasharray:none;stroke-opacity:1" id="path1290"></path>
        </g>
        <g id="g1292" transform="translate(28.3887,31.4616)">
          <path d="M 0,0 V -4.955" style="fill:none;stroke:#e30613;stroke-width:0.283;stroke-linecap:butt;stroke-linejoin:miter;stroke-miterlimit:22.926;stroke-dasharray:none;stroke-opacity:1" id="path1294"></path>
        </g>
        <g id="g1296" transform="translate(49.6914,44.4553)">
          <path d="M 0,0 V -4.955" style="fill:none;stroke:#e30613;stroke-width:0.283;stroke-linecap:butt;stroke-linejoin:miter;stroke-miterlimit:22.926;stroke-dasharray:none;stroke-opacity:1" id="path1298"></path>
        </g>
      </g>
    </g>
  </g>
</svg>
