<?xml version="1.0" encoding="UTF-8" standalone="no"?>
<!-- Created with Inkscape (http://www.inkscape.org/) -->

<svg
   version="1.1"
   id="svg2603"
   xml:space="preserve"
   width="85.059998"
   height="75.81813"
   viewBox="0 0 85.059998 75.81813"
   sodipodi:docname="ISSprOM 107 Erosion gully or trench.svg"
   inkscape:version="1.1.1 (3bf5ae0d25, 2021-09-20)"
   xmlns:inkscape="http://www.inkscape.org/namespaces/inkscape"
   xmlns:sodipodi="http://sodipodi.sourceforge.net/DTD/sodipodi-0.dtd"
   xmlns="http://www.w3.org/2000/svg"
   xmlns:svg="http://www.w3.org/2000/svg">
  <rect width="100%" height="100%" fill="white"/>
<defs
     id="defs2607"><clipPath
       clipPathUnits="userSpaceOnUse"
       id="clipPath2617"><path
         d="M 0,56.864 H 63.795 V 0 H 0 Z"
         id="path2615" /></clipPath><clipPath
       clipPathUnits="userSpaceOnUse"
       id="clipPath2663"><path
         d="M 0,56.864 H 63.795 V 0 H 0 Z"
         id="path2661" /></clipPath><clipPath
       clipPathUnits="userSpaceOnUse"
       id="clipPath2679"><path
         d="M 0,56.864 H 63.795 V 0 H 0 Z"
         id="path2677" /></clipPath></defs><sodipodi:namedview
     id="namedview2605"
     pagecolor="#ffffff"
     bordercolor="#666666"
     borderopacity="1.0"
     inkscape:pageshadow="2"
     inkscape:pageopacity="0.0"
     inkscape:pagecheckerboard="0"
     showgrid="false"
     inkscape:zoom="11.013197"
     inkscape:cx="42.539873"
     inkscape:cy="37.909065"
     inkscape:window-width="1920"
     inkscape:window-height="1017"
     inkscape:window-x="-8"
     inkscape:window-y="-8"
     inkscape:window-maximized="1"
     inkscape:current-layer="g2609" /><g
     id="g2609"
     inkscape:groupmode="layer"
     inkscape:label="ISSprOM 107 Erosion gully or trench"
     transform="matrix(1.3333333,0,0,-1.3333333,0,75.818133)"><g
       id="g2611"><g
         id="g2613"
         clip-path="url(#clipPath2617)"><g
           id="g2619"
           transform="translate(31.6056,49.5139)"><path
             d="m 0,0 c 1.446,-0.119 2.873,-0.218 4.259,-0.283 6.12,-0.287 7.992,0.217 12.816,0.648"
             style="fill:none;stroke:#d07500;stroke-width:1.191;stroke-linecap:butt;stroke-linejoin:miter;stroke-miterlimit:22.926;stroke-dasharray:none;stroke-opacity:1"
             id="path2621" /></g><g
           id="g2623"
           transform="translate(11.7033,50.1585)"><path
             d="M 0,0 C 1.184,0.729 2.787,1.018 5.297,0.801 7.525,0.607 9.911,0.352 12.351,0.094"
             style="fill:none;stroke:#d07500;stroke-width:1.191;stroke-linecap:butt;stroke-linejoin:miter;stroke-miterlimit:22.926;stroke-dasharray:none;stroke-opacity:1"
             id="path2625" /></g><g
           id="g2627"
           transform="translate(0.0802,41.742)"><path
             d="M 0,0 C 5.545,-0.648 5.833,-0.72 7.992,3.385 8.135,3.656 8.273,3.918 8.406,4.173"
             style="fill:none;stroke:#d07500;stroke-width:1.191;stroke-linecap:butt;stroke-linejoin:miter;stroke-miterlimit:22.926;stroke-dasharray:none;stroke-opacity:1"
             id="path2629" /></g><g
           id="g2631"
           transform="translate(37.4269,35.8777)"><path
             d="m 0,0 c 1.084,0.025 2.27,-0.068 3.622,-0.327 4.896,-0.937 6.191,-1.296 7.632,-1.656"
             style="fill:none;stroke:#d07500;stroke-width:1.191;stroke-linecap:butt;stroke-linejoin:miter;stroke-miterlimit:22.926;stroke-dasharray:none;stroke-opacity:1"
             id="path2633" /></g><g
           id="g2635"
           transform="translate(0.0802,27.846)"><path
             d="m 0,0 c 7.416,-1.008 14.761,-1.8 20.593,0.648 5.832,2.448 5.687,4.32 9.216,5.545 0.621,0.216 1.216,0.43 1.804,0.635"
             style="fill:none;stroke:#d07500;stroke-width:1.191;stroke-linecap:butt;stroke-linejoin:miter;stroke-miterlimit:22.926;stroke-dasharray:none;stroke-opacity:1"
             id="path2637" /></g><g
           id="g2639"
           transform="translate(25.964,52.8548)"><path
             d="M 0,0 C 0.415,0.543 0.756,0.902 1.158,1.23 1.561,1.557 2.234,2.076 2.439,2.242 2.687,2.443 2.855,2.574 3.111,2.7 L 3.333,2.809 6.302,4.009 4.348,1.721 3.652,0.999 C 3.463,0.816 3.277,0.664 3.078,0.508 2.64,0.166 2.343,-0.087 2.107,-0.384 L 2.108,-0.386 C 1.949,-0.585 1.798,-0.827 1.63,-1.159 c 1.057,-0.84 1.735,-1.679 2.384,-3.221 0.669,-1.595 0.824,-3.237 1.022,-5.338 0.082,-0.872 0.172,-1.828 0.317,-2.919 0.282,-0.188 0.56,-0.394 0.83,-0.619 1.549,-1.299 2.903,-3.062 4.288,-4.863 h 0.004 c 0.489,-0.637 0.981,-1.278 1.39,-1.787 l 0.178,-0.323 1.567,-3.676 -3.053,2.526 -0.209,0.201 c -0.557,0.691 -1.005,1.274 -1.447,1.849 l 0.002,0.001 c -1.315,1.713 -2.602,3.387 -3.992,4.552 -0.481,0.403 -1.008,0.731 -1.549,0.995 -0.64,0.313 -1.297,0.535 -1.924,0.693 -0.511,0.126 -0.953,0.225 -1.451,0.335 -2.214,0.495 -5.404,1.205 -8.906,2.675 -1.488,0.626 -2.883,1.433 -4.202,2.32 -1.308,0.88 -2.512,1.816 -3.656,2.725 l -0.525,0.946 -0.613,1.189 -0.781,1.76 2.013,-1.566 1.138,-0.78 -0.002,-0.002 0.002,0.002 c 1.127,-0.894 2.304,-1.809 3.525,-2.629 1.208,-0.813 2.491,-1.556 3.869,-2.134 3.378,-1.419 6.439,-2.102 8.564,-2.575 0.62,-0.14 1.173,-0.261 1.505,-0.345 0.429,-0.107 0.87,-0.24 1.314,-0.404 -0.064,0.587 -0.116,1.142 -0.165,1.667 v 0.005 c -0.18,1.916 -0.321,3.415 -0.883,4.751 -0.767,1.827 -1.676,2.434 -3.724,3.8 l -0.242,0.161 -0.784,0.825 -2.119,2.564 4.002,-1.746 0.243,-0.16 C -0.288,0.193 -0.142,0.095 0,0"
             style="fill:#d07500;fill-opacity:1;fill-rule:nonzero;stroke:none"
             id="path2641" /></g><path
           d="M 9.26,14.74 H 43.276 V 0.567 H 9.26 Z"
           style="fill:none;stroke:#312783;stroke-width:1.134;stroke-linecap:butt;stroke-linejoin:miter;stroke-miterlimit:22.926;stroke-dasharray:none;stroke-opacity:1"
           id="path2643" /><g
           id="g2645"
           transform="translate(32.9738,6.4285)"><path
             d="M 0,0 C 0.252,-0.008 0.491,-0.01 0.753,0.01 L 1.742,0.118 4.693,0.623 1.662,1.604 1.423,1.662 C 1.146,1.73 0.935,1.736 0.617,1.741 0.355,1.744 -0.49,1.777 -1.006,1.785 -1.521,1.791 -0.295,1.786 -1.57,1.786 M 0,0 l -2.458,0.029 -1.66,0.36 -2.527,0.528 4.259,0.853 0.288,0.007 c 0.183,0.003 0.359,0.006 0.528,0.009"
             style="fill:#d07500;fill-opacity:1;fill-rule:nonzero;stroke:none"
             id="path2647" /></g><text
           transform="matrix(1,0,0,-1,40.181,42.106)"
           style="font-variant:normal;font-weight:normal;font-stretch:semi-condensed;font-size:6.9997px;font-family:'Arial Narrow';-inkscape-font-specification:ArialNarrow;writing-mode:lr-tb;fill:#e30613;fill-opacity:1;fill-rule:nonzero;stroke:none"
           id="text2651"><tspan
             x="0 4.7807951 6.0547404 9.246604 10.842535 12.438467 15.63033 17.226261 20.418125"
             y="0"
             sodipodi:role="line"
             id="tspan2649">min. 0.37</tspan></text></g></g><text
       transform="matrix(1,0,0,-1,12.8236,5.2652)"
       style="font-variant:normal;font-weight:normal;font-stretch:semi-condensed;font-size:6.9997px;font-family:'Arial Narrow';-inkscape-font-specification:ArialNarrow;writing-mode:lr-tb;fill:#e30613;fill-opacity:1;fill-rule:nonzero;stroke:none"
       id="text2655"><tspan
         x="0 4.7807951 6.0547404 9.246604"
         y="0"
         sodipodi:role="line"
         id="tspan2653">min.</tspan></text><g
       id="g2657"><g
         id="g2659"
         clip-path="url(#clipPath2663)"><g
           id="g2665"
           transform="translate(38.5167,27.8089)"><path
             d="M 0,0 -2.172,-1.87"
             style="fill:none;stroke:#e30613;stroke-width:0.283;stroke-linecap:butt;stroke-linejoin:miter;stroke-miterlimit:22.926;stroke-dasharray:none;stroke-opacity:1"
             id="path2667" /></g></g></g><text
       transform="matrix(1,0,0,-1,23.2394,22.7512)"
       style="font-variant:normal;font-weight:normal;font-stretch:semi-condensed;font-size:6.9997px;font-family:'Arial Narrow';-inkscape-font-specification:ArialNarrow;writing-mode:lr-tb;fill:#e30613;fill-opacity:1;fill-rule:nonzero;stroke:none"
       id="text2671"><tspan
         x="0 3.1918633 4.7877946 7.9796581"
         y="0"
         sodipodi:role="line"
         id="tspan2669">0.75</tspan></text><g
       id="g2673"><g
         id="g2675"
         clip-path="url(#clipPath2679)"><g
           id="g2681"
           transform="translate(35.5792,31.074)"><path
             d="M 0,0 -2.173,-1.869"
             style="fill:none;stroke:#e30613;stroke-width:0.283;stroke-linecap:butt;stroke-linejoin:miter;stroke-miterlimit:22.926;stroke-dasharray:none;stroke-opacity:1"
             id="path2683" /></g><g
           id="g2685"
           transform="translate(31.4992,44.1829)"><path
             d="M 0,0 H 5.816"
             style="fill:none;stroke:#e30613;stroke-width:0.283;stroke-linecap:butt;stroke-linejoin:miter;stroke-miterlimit:22.926;stroke-dasharray:none;stroke-opacity:1"
             id="path2687" /></g></g></g></g></svg>
