<?xml version="1.0" encoding="UTF-8" standalone="no"?>
<!-- Created with Inkscape (http://www.inkscape.org/) -->

<svg
   version="1.1"
   id="svg9"
   xml:space="preserve"
   width="92.764801"
   height="83.309334"
   viewBox="0 0 92.764801 83.309334"
   sodipodi:docname="ISSprOM 108 Small erosion gully.svg"
   inkscape:version="1.1.1 (3bf5ae0d25, 2021-09-20)"
   xmlns:inkscape="http://www.inkscape.org/namespaces/inkscape"
   xmlns:sodipodi="http://sodipodi.sourceforge.net/DTD/sodipodi-0.dtd"
   xmlns="http://www.w3.org/2000/svg"
   xmlns:svg="http://www.w3.org/2000/svg"><defs
     id="defs13"><clipPath
       clipPathUnits="userSpaceOnUse"
       id="clipPath23"><path
         d="M 0,62.482 H 69.574 V 0 H 0 Z"
         id="path21" /></clipPath><clipPath
       clipPathUnits="userSpaceOnUse"
       id="clipPath161"><path
         d="M 0,62.482 H 69.574 V 0 H 0 Z"
         id="path159" /></clipPath><clipPath
       clipPathUnits="userSpaceOnUse"
       id="clipPath181"><path
         d="M 0,62.482 H 69.574 V 0 H 0 Z"
         id="path179" /></clipPath></defs><sodipodi:namedview
     id="namedview11"
     pagecolor="#ffffff"
     bordercolor="#666666"
     borderopacity="1.0"
     inkscape:pageshadow="2"
     inkscape:pageopacity="0.0"
     inkscape:pagecheckerboard="0"
     showgrid="false"
     inkscape:zoom="10.022887"
     inkscape:cx="46.343935"
     inkscape:cy="41.654667"
     inkscape:window-width="1920"
     inkscape:window-height="1017"
     inkscape:window-x="-8"
     inkscape:window-y="-8"
     inkscape:window-maximized="1"
     inkscape:current-layer="g15" /><g
     id="g15"
     inkscape:groupmode="layer"
     inkscape:label="ISSprOM 108 Small erosion gully"
     transform="matrix(1.3333333,0,0,-1.3333333,0,83.309333)"><g
       id="g17"><g
         id="g19"
         clip-path="url(#clipPath23)"><g
           id="g25"
           transform="translate(0.2259,47.3777)"><path
             d="M 0,0 C 3.686,1.512 6.187,2.52 8.033,3.095"
             style="fill:none;stroke:#d07500;stroke-width:1.191;stroke-linecap:butt;stroke-linejoin:miter;stroke-miterlimit:22.926;stroke-dasharray:none;stroke-opacity:1"
             id="path27" /></g><g
           id="g29"
           transform="translate(13.9056,52.1306)"><path
             d="m 0,0 c 3.672,0.143 7.56,0.576 9.216,-1.081 1.656,-1.657 4.824,-3.528 7.992,-3.384 2.703,0.122 6.791,1.266 9.311,2.634"
             style="fill:none;stroke:#d07500;stroke-width:1.191;stroke-linecap:butt;stroke-linejoin:miter;stroke-miterlimit:22.926;stroke-dasharray:none;stroke-opacity:1"
             id="path31" /></g><g
           id="g33"
           transform="translate(46.5521,51.9343)"><path
             d="M 0,0 C 3.446,1.227 10.365,-0.236 10.365,-0.236"
             style="fill:none;stroke:#d07500;stroke-width:1.191;stroke-linecap:butt;stroke-linejoin:miter;stroke-miterlimit:22.926;stroke-dasharray:none;stroke-opacity:1"
             id="path35" /></g><g
           id="g37"
           transform="translate(0.2259,33.5388)"><path
             d="m 0,0 c 3.456,1.225 5.689,1.584 10.152,0.504 4.464,-1.08 13.428,-1.043 17.244,0.182"
             style="fill:none;stroke:#d07500;stroke-width:1.191;stroke-linecap:butt;stroke-linejoin:miter;stroke-miterlimit:22.926;stroke-dasharray:none;stroke-opacity:1"
             id="path39" /></g><g
           id="g41"
           transform="translate(36.0335,37.2888)"><path
             d="M 0,0 C 4.035,2.061 15.366,4.704 20.884,2.223"
             style="fill:none;stroke:#d07500;stroke-width:1.191;stroke-linecap:butt;stroke-linejoin:miter;stroke-miterlimit:22.926;stroke-dasharray:none;stroke-opacity:1"
             id="path43" /></g><g
           id="g45"
           transform="translate(31.5091,42.0515)"><path
             d="M 0,0 C 0.508,-0.278 0.694,-0.915 0.416,-1.424 0.138,-1.932 -0.501,-2.119 -1.009,-1.841 -1.517,-1.562 -1.703,-0.924 -1.425,-0.416 -1.146,0.093 -0.509,0.278 0,0"
             style="fill:#d07500;fill-opacity:1;fill-rule:evenodd;stroke:none"
             id="path47" /></g><g
           id="g49"
           transform="translate(34.4661,43.9373)"><path
             d="M 0,0 C 0.508,-0.278 0.694,-0.917 0.416,-1.426 0.138,-1.934 -0.501,-2.119 -1.009,-1.841 -1.517,-1.562 -1.703,-0.926 -1.425,-0.417 -1.146,0.091 -0.508,0.278 0,0"
             style="fill:#d07500;fill-opacity:1;fill-rule:evenodd;stroke:none"
             id="path51" /></g><g
           id="g53"
           transform="translate(37.14,45.8211)"><path
             d="M 0,0 C 0.508,-0.278 0.694,-0.917 0.416,-1.425 0.138,-1.934 -0.501,-2.119 -1.009,-1.841 -1.517,-1.562 -1.704,-0.924 -1.425,-0.416 -1.146,0.091 -0.509,0.278 0,0"
             style="fill:#d07500;fill-opacity:1;fill-rule:evenodd;stroke:none"
             id="path55" /></g><g
           id="g57"
           transform="translate(40.2064,47.4949)"><path
             d="M 0,0 C 0.509,-0.278 0.695,-0.917 0.417,-1.424 0.139,-1.933 -0.5,-2.119 -1.008,-1.841 -1.517,-1.562 -1.703,-0.925 -1.425,-0.416 -1.146,0.092 -0.508,0.278 0,0"
             style="fill:#d07500;fill-opacity:1;fill-rule:evenodd;stroke:none"
             id="path59" /></g><g
           id="g61"
           transform="translate(43.2279,48.7478)"><path
             d="M 0,0 C 0.508,-0.278 0.694,-0.916 0.416,-1.425 0.138,-1.932 -0.501,-2.119 -1.008,-1.841 -1.517,-1.562 -1.703,-0.924 -1.425,-0.416 -1.146,0.093 -0.508,0.278 0,0"
             style="fill:#d07500;fill-opacity:1;fill-rule:evenodd;stroke:none"
             id="path63" /></g><g
           id="g65"
           transform="translate(44.8939,57.283)"><path
             d="m 0,0 c -0.436,-0.382 -1.1,-0.338 -1.481,0.099 -0.382,0.435 -0.338,1.099 0.097,1.48 0.436,0.382 1.099,0.339 1.481,-0.098 C 0.48,1.047 0.435,0.382 0,0"
             style="fill:#d07500;fill-opacity:1;fill-rule:evenodd;stroke:none"
             id="path67" /></g><g
           id="g69"
           transform="translate(44.7533,53.8845)"><path
             d="M 0,0 C -0.435,-0.381 -1.099,-0.338 -1.48,0.098 -1.862,0.533 -1.819,1.196 -1.383,1.579 -0.947,1.961 -0.284,1.917 0.098,1.481 0.48,1.046 0.437,0.382 0,0"
             style="fill:#d07500;fill-opacity:1;fill-rule:evenodd;stroke:none"
             id="path71" /></g><g
           id="g73"
           transform="translate(44.6136,50.4851)"><path
             d="M 0,0 C -0.436,-0.381 -1.099,-0.338 -1.481,0.098 -1.862,0.533 -1.818,1.197 -1.383,1.579 -0.947,1.962 -0.284,1.918 0.098,1.482 0.479,1.046 0.436,0.382 0,0"
             style="fill:#d07500;fill-opacity:1;fill-rule:evenodd;stroke:none"
             id="path75" /></g><g
           id="g77"
           transform="translate(16.1429,48.2234)"><path
             d="m 0,0 c 0.073,-0.575 -0.335,-1.101 -0.91,-1.173 -0.574,-0.071 -1.1,0.337 -1.173,0.911 -0.071,0.575 0.337,1.1 0.911,1.173 C -0.597,0.982 -0.072,0.575 0,0"
             style="fill:#d07500;fill-opacity:1;fill-rule:evenodd;stroke:none"
             id="path79" /></g><g
           id="g81"
           transform="translate(19.1634,46.4871)"><path
             d="m 0,0 c 0.072,-0.575 -0.335,-1.101 -0.91,-1.173 -0.574,-0.071 -1.1,0.336 -1.172,0.911 -0.072,0.575 0.335,1.101 0.91,1.173 C -0.597,0.982 -0.072,0.575 0,0"
             style="fill:#d07500;fill-opacity:1;fill-rule:evenodd;stroke:none"
             id="path83" /></g><g
           id="g85"
           transform="translate(21.9007,44.4675)"><path
             d="m 0,0 c 0.072,-0.575 -0.336,-1.1 -0.91,-1.173 -0.575,-0.071 -1.101,0.336 -1.173,0.911 -0.072,0.576 0.336,1.1 0.911,1.171 C -0.598,0.982 -0.072,0.574 0,0"
             style="fill:#d07500;fill-opacity:1;fill-rule:evenodd;stroke:none"
             id="path87" /></g><g
           id="g89"
           transform="translate(24.638,42.448)"><path
             d="m 0,0 c 0.072,-0.576 -0.336,-1.101 -0.91,-1.173 -0.575,-0.071 -1.101,0.336 -1.173,0.911 -0.072,0.576 0.336,1.1 0.91,1.172 C -0.598,0.982 -0.072,0.573 0,0"
             style="fill:#d07500;fill-opacity:1;fill-rule:evenodd;stroke:none"
             id="path91" /></g><g
           id="g93"
           transform="translate(27.3744,40.4275)"><path
             d="m 0,0 c 0.072,-0.575 -0.335,-1.1 -0.91,-1.172 -0.575,-0.072 -1.1,0.335 -1.172,0.91 -0.072,0.574 0.336,1.1 0.91,1.172 C -0.597,0.982 -0.071,0.575 0,0"
             style="fill:#d07500;fill-opacity:1;fill-rule:evenodd;stroke:none"
             id="path95" /></g><g
           id="g97"
           transform="translate(30.1117,38.407)"><path
             d="m 0,0 c 0.072,-0.574 -0.336,-1.099 -0.91,-1.171 -0.575,-0.073 -1.101,0.335 -1.173,0.91 -0.071,0.575 0.336,1.1 0.911,1.172 C -0.598,0.983 -0.072,0.575 0,0"
             style="fill:#d07500;fill-opacity:1;fill-rule:evenodd;stroke:none"
             id="path99" /></g><g
           id="g101"
           transform="translate(32.849,36.3875)"><path
             d="m 0,0 c 0.072,-0.574 -0.336,-1.099 -0.911,-1.172 -0.574,-0.072 -1.1,0.336 -1.172,0.91 -0.072,0.575 0.336,1.101 0.91,1.173 C -0.598,0.983 -0.073,0.575 0,0"
             style="fill:#d07500;fill-opacity:1;fill-rule:evenodd;stroke:none"
             id="path103" /></g><g
           id="g105"
           transform="translate(35.5863,34.3679)"><path
             d="m 0,0 c 0.072,-0.574 -0.336,-1.101 -0.911,-1.172 -0.575,-0.072 -1.1,0.336 -1.172,0.91 -0.072,0.575 0.335,1.101 0.91,1.173 C -0.598,0.983 -0.072,0.575 0,0"
             style="fill:#d07500;fill-opacity:1;fill-rule:evenodd;stroke:none"
             id="path107" /></g><g
           id="g109"
           transform="translate(38.3226,32.3484)"><path
             d="m 0,0 c 0.072,-0.574 -0.335,-1.099 -0.91,-1.172 -0.575,-0.072 -1.1,0.336 -1.172,0.91 -0.073,0.575 0.335,1.1 0.91,1.173 C -0.598,0.983 -0.072,0.575 0,0"
             style="fill:#d07500;fill-opacity:1;fill-rule:evenodd;stroke:none"
             id="path111" /></g><g
           id="g113"
           transform="translate(41.0599,30.3289)"><path
             d="m 0,0 c 0.072,-0.576 -0.336,-1.101 -0.911,-1.172 -0.574,-0.072 -1.1,0.336 -1.172,0.91 -0.072,0.575 0.336,1.1 0.911,1.173 C -0.597,0.981 -0.072,0.575 0,0"
             style="fill:#d07500;fill-opacity:1;fill-rule:evenodd;stroke:none"
             id="path115" /></g><g
           id="g117"
           transform="translate(13.0628,50.3357)"><path
             d="m 0,0 c 0.071,-0.576 -0.336,-1.101 -0.911,-1.173 -0.574,-0.072 -1.1,0.336 -1.172,0.911 -0.072,0.574 0.336,1.099 0.911,1.172 C -0.598,0.981 -0.072,0.574 0,0"
             style="fill:#d07500;fill-opacity:1;fill-rule:evenodd;stroke:none"
             id="path119" /></g><g
           id="g121"
           transform="translate(11.4535,53.3435)"><path
             d="m 0,0 c 0.072,-0.575 -0.335,-1.101 -0.91,-1.172 -0.575,-0.072 -1.1,0.336 -1.172,0.91 -0.072,0.575 0.335,1.101 0.91,1.173 C -0.597,0.982 -0.072,0.575 0,0"
             style="fill:#d07500;fill-opacity:1;fill-rule:evenodd;stroke:none"
             id="path123" /></g><g
           id="g125"
           transform="translate(11.4535,56.8533)"><path
             d="m 0,0 c 0.072,-0.574 -0.335,-1.099 -0.91,-1.171 -0.575,-0.072 -1.1,0.335 -1.172,0.909 -0.072,0.576 0.335,1.101 0.91,1.173 C -0.597,0.983 -0.072,0.575 0,0"
             style="fill:#d07500;fill-opacity:1;fill-rule:evenodd;stroke:none"
             id="path127" /></g><g
           id="g129"
           transform="translate(10.3021,42.2127)"><path
             d="M 0,0 C 0.534,-0.225 0.785,-0.841 0.56,-1.374 0.335,-1.908 -0.281,-2.159 -0.814,-1.935 -1.349,-1.709 -1.6,-1.093 -1.374,-0.561 -1.149,-0.026 -0.533,0.225 0,0"
             style="fill:#d07500;fill-opacity:1;fill-rule:evenodd;stroke:none"
             id="path131" /></g><g
           id="g133"
           transform="translate(13.4202,43.572)"><path
             d="M 0,0 C 0.534,-0.225 0.784,-0.84 0.56,-1.374 0.335,-1.908 -0.281,-2.158 -0.815,-1.933 -1.349,-1.709 -1.6,-1.093 -1.375,-0.559 -1.15,-0.025 -0.534,0.226 0,0"
             style="fill:#d07500;fill-opacity:1;fill-rule:evenodd;stroke:none"
             id="path135" /></g><g
           id="g137"
           transform="translate(16.5374,44.9334)"><path
             d="M 0,0 C 0.534,-0.225 0.785,-0.841 0.56,-1.374 0.335,-1.908 -0.28,-2.159 -0.814,-1.935 -1.349,-1.709 -1.599,-1.094 -1.374,-0.56 -1.149,-0.025 -0.533,0.226 0,0"
             style="fill:#d07500;fill-opacity:1;fill-rule:evenodd;stroke:none"
             id="path139" /></g><path
           d="M 11.12,14.74 H 45.136 V 0.567 H 11.12 Z"
           style="fill:none;stroke:#312783;stroke-width:1.134;stroke-linecap:butt;stroke-linejoin:miter;stroke-miterlimit:22.926;stroke-dasharray:none;stroke-opacity:1"
           id="path141" /><g
           id="g143"
           transform="translate(34.8547,7.3513)"><path
             d="m 0,0 c 0.072,-0.576 -0.336,-1.101 -0.911,-1.172 -0.574,-0.072 -1.1,0.336 -1.172,0.91 -0.072,0.575 0.336,1.1 0.911,1.173 C -0.597,0.981 -0.072,0.575 0,0"
             style="fill:#d07500;fill-opacity:1;fill-rule:evenodd;stroke:none"
             id="path145" /></g><g
           id="g147"
           transform="translate(38.256,7.3513)"><path
             d="m 0,0 c 0.072,-0.576 -0.336,-1.101 -0.911,-1.172 -0.574,-0.072 -1.1,0.336 -1.172,0.91 -0.072,0.575 0.336,1.1 0.911,1.173 C -0.597,0.981 -0.072,0.575 0,0"
             style="fill:#d07500;fill-opacity:1;fill-rule:evenodd;stroke:none"
             id="path149" /></g></g></g><text
       transform="matrix(1,0,0,-1,17.9896,5.2661)"
       style="font-variant:normal;font-weight:normal;font-stretch:semi-condensed;font-size:6.9997px;font-family:'Arial Narrow';-inkscape-font-specification:ArialNarrow;writing-mode:lr-tb;fill:#e30613;fill-opacity:1;fill-rule:nonzero;stroke:none"
       id="text153"><tspan
         x="0 4.7807951 6.0547404 9.246604"
         y="0"
         sodipodi:role="line"
         id="tspan151">min.</tspan></text><g
       id="g155"><g
         id="g157"
         clip-path="url(#clipPath161)"><text
           transform="matrix(1,0,0,-1,52.5292,56.4761)"
           style="font-variant:normal;font-weight:normal;font-stretch:normal;font-size:6.9997px;font-family:Arial;-inkscape-font-specification:ArialMT;writing-mode:lr-tb;fill:#e30613;fill-opacity:1;fill-rule:nonzero;stroke:none"
           id="text165"><tspan
             x="0"
             y="0"
             id="tspan163">ø</tspan></text><text
           transform="matrix(1,0,0,-1,58.401948,56.4761)"
           style="font-variant:normal;font-weight:normal;font-stretch:semi-condensed;font-size:6.9997px;font-family:'Arial Narrow';-inkscape-font-specification:ArialNarrow;writing-mode:lr-tb;fill:#e30613;fill-opacity:1;fill-rule:nonzero;stroke:none"
           id="text169"><tspan
             x="0 3.1918633 4.7877946 7.9796581"
             y="0"
             sodipodi:role="line"
             id="tspan167">0.37</tspan></text></g></g><text
       transform="matrix(1,0,0,-1,13.0124,21.6034)"
       style="font-variant:normal;font-weight:normal;font-stretch:semi-condensed;font-size:6.9997px;font-family:'Arial Narrow';-inkscape-font-specification:ArialNarrow;writing-mode:lr-tb;fill:#e30613;fill-opacity:1;fill-rule:nonzero;stroke:none"
       id="text173"><tspan
         x="0 3.1918633 4.7877946 7.9796581 9.5755892 11.486507 15.63033 19.774153"
         y="0"
         sodipodi:role="line"
         id="tspan171">0.6 (CC)</tspan></text><g
       id="g175"><g
         id="g177"
         clip-path="url(#clipPath181)"><g
           id="g183"
           transform="translate(46.0091,58.2537)"><path
             d="M 0,0 H 5.815"
             style="fill:none;stroke:#e30613;stroke-width:0.283;stroke-linecap:butt;stroke-linejoin:miter;stroke-miterlimit:22.926;stroke-dasharray:none;stroke-opacity:1"
             id="path185" /></g><g
           id="g187"
           transform="translate(36.2122,25.5574)"><path
             d="M 0,0 2.558,3.072"
             style="fill:none;stroke:#e30613;stroke-width:0.283;stroke-linecap:butt;stroke-linejoin:miter;stroke-miterlimit:22.926;stroke-dasharray:none;stroke-opacity:1"
             id="path189" /></g><g
           id="g191"
           transform="translate(33.599,27.7332)"><path
             d="M 0,0 2.559,3.072"
             style="fill:none;stroke:#e30613;stroke-width:0.283;stroke-linecap:butt;stroke-linejoin:miter;stroke-miterlimit:22.926;stroke-dasharray:none;stroke-opacity:1"
             id="path193" /></g></g></g></g></svg>
