<?xml version="1.0" encoding="UTF-8" standalone="no"?>
<!-- Created with Inkscape (http://www.inkscape.org/) -->

<svg
   version="1.1"
   id="svg455"
   xml:space="preserve"
   width="48.061199"
   height="28.872133"
   viewBox="0 0 48.061199 28.872133"
   sodipodi:docname="ISSprOM 109 Small knoll.svg"
   inkscape:version="1.1.1 (3bf5ae0d25, 2021-09-20)"
   xmlns:inkscape="http://www.inkscape.org/namespaces/inkscape"
   xmlns:sodipodi="http://sodipodi.sourceforge.net/DTD/sodipodi-0.dtd"
   xmlns="http://www.w3.org/2000/svg"
   xmlns:svg="http://www.w3.org/2000/svg">
  <rect width="100%" height="100%" fill="white"/>
<defs
     id="defs459"><clipPath
       clipPathUnits="userSpaceOnUse"
       id="clipPath469"><path
         d="M 0,21.654 H 36.046 V 0 H 0 Z"
         id="path467" /></clipPath></defs><sodipodi:namedview
     id="namedview457"
     pagecolor="#ffffff"
     bordercolor="#666666"
     borderopacity="1.0"
     inkscape:pageshadow="2"
     inkscape:pageopacity="0.0"
     inkscape:pagecheckerboard="0"
     showgrid="false"
     inkscape:zoom="23.449269"
     inkscape:cx="24.0306"
     inkscape:cy="14.435418"
     inkscape:window-width="1920"
     inkscape:window-height="1017"
     inkscape:window-x="-8"
     inkscape:window-y="-8"
     inkscape:window-maximized="1"
     inkscape:current-layer="g461" /><g
     id="g461"
     inkscape:groupmode="layer"
     inkscape:label="ISSprOM 109 Small knoll"
     transform="matrix(1.3333333,0,0,-1.3333333,0,28.872133)"><g
       id="g463"><g
         id="g465"
         clip-path="url(#clipPath469)"><g
           id="g471"
           transform="translate(2.126,4.6865)"><path
             d="M 0,0 C -1.174,0 -2.126,0.952 -2.126,2.126 -2.126,3.3 -1.174,4.252 0,4.252 1.174,4.252 2.126,3.3 2.126,2.126 2.126,0.952 1.174,0 0,0"
             style="fill:#d07500;fill-opacity:1;fill-rule:evenodd;stroke:none"
             id="path473" /></g><g
           id="g475"
           transform="translate(28.6875,7.8115)"><path
             d="M 0,0 C -1.173,0 -2.126,0.953 -2.126,2.127 -2.126,3.3 -1.173,4.252 0,4.252 1.174,4.252 2.126,3.3 2.126,2.127 2.126,0.953 1.174,0 0,0"
             style="fill:#d07500;fill-opacity:1;fill-rule:evenodd;stroke:none"
             id="path477" /></g><g
           id="g479"
           transform="translate(13.6495)"><path
             d="M 0,0 C -1.174,0 -2.126,0.951 -2.126,2.125 -2.126,3.3 -1.174,4.251 0,4.251 1.174,4.251 2.126,3.3 2.126,2.125 2.126,0.951 1.174,0 0,0"
             style="fill:#d07500;fill-opacity:1;fill-rule:evenodd;stroke:none"
             id="path481" /></g><text
           transform="matrix(1,0,0,-1,19.0015,15.6476)"
           style="font-variant:normal;font-weight:normal;font-stretch:normal;font-size:6.9997px;font-family:Arial;-inkscape-font-specification:ArialMT;writing-mode:lr-tb;fill:#e30613;fill-opacity:1;fill-rule:nonzero;stroke:none"
           id="text485"><tspan
             x="0"
             y="0"
             id="tspan483">ø</tspan></text><text
           transform="matrix(1,0,0,-1,24.874248,15.6476)"
           style="font-variant:normal;font-weight:normal;font-stretch:semi-condensed;font-size:6.9997px;font-family:'Arial Narrow';-inkscape-font-specification:ArialNarrow;writing-mode:lr-tb;fill:#e30613;fill-opacity:1;fill-rule:nonzero;stroke:none"
           id="text489"><tspan
             x="0 3.1918633 4.7877946 7.9796581"
             y="0"
             sodipodi:role="line"
             id="tspan487">0.75</tspan></text></g></g></g></svg>
