<?xml version="1.0" encoding="UTF-8" standalone="no"?>
<svg xmlns:inkscape="http://www.inkscape.org/namespaces/inkscape" xmlns:sodipodi="http://sodipodi.sourceforge.net/DTD/sodipodi-0.dtd" xmlns="http://www.w3.org/2000/svg" xmlns:svg="http://www.w3.org/2000/svg" version="1.1" id="svg2225" width="76.159599" height="72.789597" viewBox="0 0 76.159599 72.789597" sodipodi:docname="ISSprOM 113 Broken ground.svg" inkscape:version="1.2.2 (732a01da63, 2022-12-09)">
  <defs id="defs2229">
    <clipPath id="clipPath2241">
      <path d="M 0,54.592 H 57.12 V 0 H 0 Z" id="path2239"></path>
    </clipPath>
    <clipPath id="clipPath2381">
      <path d="M 0,54.592 H 57.12 V 0 H 0 Z" id="path2379"></path>
    </clipPath>
    <clipPath id="clipPath2397">
      <path d="M 0,54.592 H 57.12 V 0 H 0 Z" id="path2395"></path>
    </clipPath>
  </defs>
  <g id="g2233" inkscape:groupmode="layer" inkscape:label="Page 1" transform="matrix(1.3333333,0,0,-1.3333333,0,72.7896)">
    <g id="g2235">
      <g id="g2237" clip-path="url(#clipPath2241)">
        <g id="g2243" transform="translate(0.0233,41.8445)">
          <path d="m 0,0 c 3.672,0.144 13.351,0.506 15.758,-0.379 4.894,-1.804 8.931,-4.343 12.408,-5.394 3.477,-1.052 19.343,-1.952 22.922,0.815 3.58,2.766 5.532,5.37 5.532,5.37" style="fill:none;stroke:#d07500;stroke-width:1.191;stroke-linecap:butt;stroke-linejoin:miter;stroke-miterlimit:22.926;stroke-dasharray:none;stroke-opacity:1" id="path2245"></path>
        </g>
        <g id="g2247" transform="translate(0.0233,53.9942)">
          <path d="m 0,0 c 3.672,0.144 15.628,-5.513 18.035,-6.398 4.895,-1.804 8.932,-4.343 12.408,-5.396 3.477,-1.051 8.28,-1.949 11.859,0.816 3.58,2.767 9.112,8.462 14.155,8.462" style="fill:none;stroke:#d07500;stroke-width:1.191;stroke-linecap:butt;stroke-linejoin:miter;stroke-miterlimit:22.926;stroke-dasharray:none;stroke-opacity:1" id="path2249"></path>
        </g>
        <g id="g2251" transform="translate(28.0787,47.828)">
          <path d="m 0,0 c 0.47,0 0.85,-0.38 0.85,-0.85 0,-0.469 -0.38,-0.851 -0.85,-0.851 -0.47,0 -0.851,0.382 -0.851,0.851 C -0.851,-0.38 -0.47,0 0,0" style="fill:#d07500;fill-opacity:1;fill-rule:evenodd;stroke:none" id="path2253"></path>
        </g>
        <g id="g2255" transform="translate(33.9584,49.5287)">
          <path d="m 0,0 c 0.47,0 0.85,-0.38 0.85,-0.85 0,-0.469 -0.38,-0.851 -0.85,-0.851 -0.47,0 -0.851,0.382 -0.851,0.851 C -0.851,-0.38 -0.47,0 0,0" style="fill:#d07500;fill-opacity:1;fill-rule:evenodd;stroke:none" id="path2257"></path>
        </g>
        <g id="g2259" transform="translate(36.4478,49.1212)">
          <path d="m 0,0 c 0.47,0 0.85,-0.38 0.85,-0.85 0,-0.469 -0.38,-0.851 -0.85,-0.851 -0.47,0 -0.851,0.382 -0.851,0.851 C -0.851,-0.38 -0.47,0 0,0" style="fill:#d07500;fill-opacity:1;fill-rule:evenodd;stroke:none" id="path2261"></path>
        </g>
        <g id="g2263" transform="translate(29.7714,45.7198)">
          <path d="m 0,0 c 0.47,0 0.85,-0.38 0.85,-0.85 0,-0.469 -0.38,-0.851 -0.85,-0.851 -0.47,0 -0.851,0.382 -0.851,0.851 C -0.851,-0.38 -0.47,0 0,0" style="fill:#d07500;fill-opacity:1;fill-rule:evenodd;stroke:none" id="path2265"></path>
        </g>
        <g id="g2267" transform="translate(26.5252,40.0152)">
          <path d="m 0,0 c 0.47,0 0.85,-0.38 0.85,-0.85 0,-0.469 -0.38,-0.851 -0.85,-0.851 -0.47,0 -0.851,0.382 -0.851,0.851 C -0.851,-0.38 -0.47,0 0,0" style="fill:#d07500;fill-opacity:1;fill-rule:evenodd;stroke:none" id="path2269"></path>
        </g>
        <g id="g2271" transform="translate(29.1845,34.2424)">
          <path d="m 0,0 c 0.47,0 0.85,-0.38 0.85,-0.85 0,-0.469 -0.38,-0.851 -0.85,-0.851 -0.47,0 -0.851,0.382 -0.851,0.851 C -0.851,-0.38 -0.47,0 0,0" style="fill:#d07500;fill-opacity:1;fill-rule:evenodd;stroke:none" id="path2273"></path>
        </g>
        <g id="g2275" transform="translate(37.0592,39.9252)">
          <path d="m 0,0 c 0.47,0 0.85,-0.38 0.85,-0.85 0,-0.469 -0.38,-0.851 -0.85,-0.851 -0.47,0 -0.851,0.382 -0.851,0.851 C -0.851,-0.38 -0.47,0 0,0" style="fill:#d07500;fill-opacity:1;fill-rule:evenodd;stroke:none" id="path2277"></path>
        </g>
        <g id="g2279" transform="translate(35.0381,38.1258)">
          <path d="m 0,0 c 0.47,0 0.85,-0.38 0.85,-0.85 0,-0.469 -0.38,-0.851 -0.85,-0.851 -0.47,0 -0.851,0.382 -0.851,0.851 C -0.851,-0.38 -0.47,0 0,0" style="fill:#d07500;fill-opacity:1;fill-rule:evenodd;stroke:none" id="path2281"></path>
        </g>
        <g id="g2283" transform="translate(34.0455,34.1101)">
          <path d="m 0,0 c 0.47,0 0.85,-0.38 0.85,-0.85 0,-0.469 -0.38,-0.851 -0.85,-0.851 -0.47,0 -0.851,0.382 -0.851,0.851 C -0.851,-0.38 -0.47,0 0,0" style="fill:#d07500;fill-opacity:1;fill-rule:evenodd;stroke:none" id="path2285"></path>
        </g>
        <g id="g2287" transform="translate(31.4722,32.74)">
          <path d="m 0,0 c 0.47,0 0.85,-0.38 0.85,-0.85 0,-0.469 -0.38,-0.851 -0.85,-0.851 -0.47,0 -0.851,0.382 -0.851,0.851 C -0.851,-0.38 -0.47,0 0,0" style="fill:#d07500;fill-opacity:1;fill-rule:evenodd;stroke:none" id="path2289"></path>
        </g>
        <g id="g2291" transform="translate(30.6218,38.9762)">
          <path d="m 0,0 c 0.47,0 0.85,-0.38 0.85,-0.85 0,-0.469 -0.38,-0.851 -0.85,-0.851 -0.47,0 -0.851,0.382 -0.851,0.851 C -0.851,-0.38 -0.47,0 0,0" style="fill:#d07500;fill-opacity:1;fill-rule:evenodd;stroke:none" id="path2293"></path>
        </g>
        <g id="g2295" transform="translate(29.103,41.1772)">
          <path d="m 0,0 c 0.47,0 0.85,-0.38 0.85,-0.85 0,-0.469 -0.38,-0.851 -0.85,-0.851 -0.47,0 -0.851,0.382 -0.851,0.851 C -0.851,-0.38 -0.47,0 0,0" style="fill:#d07500;fill-opacity:1;fill-rule:evenodd;stroke:none" id="path2297"></path>
        </g>
        <g id="g2299" transform="translate(39.6869,38.1258)">
          <path d="m 0,0 c 0.47,0 0.85,-0.38 0.85,-0.85 0,-0.469 -0.38,-0.851 -0.85,-0.851 -0.47,0 -0.851,0.382 -0.851,0.851 C -0.851,-0.38 -0.47,0 0,0" style="fill:#d07500;fill-opacity:1;fill-rule:evenodd;stroke:none" id="path2301"></path>
        </g>
        <g id="g2303" transform="translate(42.3743,33.3921)">
          <path d="m 0,0 c 0.47,0 0.85,-0.38 0.85,-0.85 0,-0.469 -0.38,-0.851 -0.85,-0.851 -0.47,0 -0.851,0.382 -0.851,0.851 C -0.851,-0.38 -0.47,0 0,0" style="fill:#d07500;fill-opacity:1;fill-rule:evenodd;stroke:none" id="path2305"></path>
        </g>
        <g id="g2307" transform="translate(40.4373,31.4726)">
          <path d="m 0,0 c 0.47,0 0.85,-0.38 0.85,-0.85 0,-0.469 -0.38,-0.851 -0.85,-0.851 -0.47,0 -0.851,0.382 -0.851,0.851 C -0.851,-0.38 -0.47,0 0,0" style="fill:#d07500;fill-opacity:1;fill-rule:evenodd;stroke:none" id="path2309"></path>
        </g>
        <g id="g2311" transform="translate(39.4795,33.7794)">
          <path d="m 0,0 c 0.47,0 0.85,-0.38 0.85,-0.85 0,-0.469 -0.38,-0.851 -0.85,-0.851 -0.47,0 -0.851,0.382 -0.851,0.851 C -0.851,-0.38 -0.47,0 0,0" style="fill:#d07500;fill-opacity:1;fill-rule:evenodd;stroke:none" id="path2313"></path>
        </g>
        <g id="g2315" transform="translate(36.7389,32.4094)">
          <path d="m 0,0 c 0.47,0 0.85,-0.38 0.85,-0.85 0,-0.469 -0.38,-0.851 -0.85,-0.851 -0.47,0 -0.851,0.382 -0.851,0.851 C -0.851,-0.38 -0.47,0 0,0" style="fill:#d07500;fill-opacity:1;fill-rule:evenodd;stroke:none" id="path2317"></path>
        </g>
        <g id="g2319" transform="translate(41.1803,40.5019)">
          <path d="m 0,0 c 0.47,0 0.85,-0.38 0.85,-0.85 0,-0.469 -0.38,-0.851 -0.85,-0.851 -0.47,0 -0.851,0.382 -0.851,0.851 C -0.851,-0.38 -0.47,0 0,0" style="fill:#d07500;fill-opacity:1;fill-rule:evenodd;stroke:none" id="path2321"></path>
        </g>
        <g id="g2323" transform="translate(34.6129,44.4266)">
          <path d="m 0,0 c 0.47,0 0.85,-0.38 0.85,-0.85 0,-0.469 -0.38,-0.851 -0.85,-0.851 -0.47,0 -0.851,0.382 -0.851,0.851 C -0.851,-0.38 -0.47,0 0,0" style="fill:#d07500;fill-opacity:1;fill-rule:evenodd;stroke:none" id="path2325"></path>
        </g>
        <g id="g2327" transform="translate(33.3216,40.0152)">
          <path d="m 0,0 c 0.47,0 0.85,-0.38 0.85,-0.85 0,-0.469 -0.38,-0.851 -0.85,-0.851 -0.47,0 -0.851,0.382 -0.851,0.851 C -0.851,-0.38 -0.47,0 0,0" style="fill:#d07500;fill-opacity:1;fill-rule:evenodd;stroke:none" id="path2329"></path>
        </g>
        <g id="g2331" transform="translate(34.0455,31.4726)">
          <path d="m 0,0 c 0.47,0 0.85,-0.38 0.85,-0.85 0,-0.469 -0.38,-0.851 -0.85,-0.851 -0.47,0 -0.851,0.382 -0.851,0.851 C -0.851,-0.38 -0.47,0 0,0" style="fill:#d07500;fill-opacity:1;fill-rule:evenodd;stroke:none" id="path2333"></path>
        </g>
        <g id="g2335" transform="translate(40.3299,45.088)">
          <path d="m 0,0 c 0.47,0 0.85,-0.38 0.85,-0.85 0,-0.469 -0.38,-0.851 -0.85,-0.851 -0.47,0 -0.851,0.382 -0.851,0.851 C -0.851,-0.38 -0.47,0 0,0" style="fill:#d07500;fill-opacity:1;fill-rule:evenodd;stroke:none" id="path2337"></path>
        </g>
        <g id="g2339" transform="translate(37.4121,45.088)">
          <path d="m 0,0 c 0.47,0 0.85,-0.38 0.85,-0.85 0,-0.469 -0.38,-0.851 -0.85,-0.851 -0.47,0 -0.851,0.382 -0.851,0.851 C -0.851,-0.38 -0.47,0 0,0" style="fill:#d07500;fill-opacity:1;fill-rule:evenodd;stroke:none" id="path2341"></path>
        </g>
        <g id="g2343" transform="translate(32.5689,45.9383)">
          <path d="m 0,0 c 0.47,0 0.85,-0.38 0.85,-0.85 0,-0.469 -0.38,-0.851 -0.85,-0.851 -0.47,0 -0.851,0.382 -0.851,0.851 C -0.851,-0.38 -0.47,0 0,0" style="fill:#d07500;fill-opacity:1;fill-rule:evenodd;stroke:none" id="path2345"></path>
        </g>
        <g id="g2347" transform="translate(34.8959,46.9776)">
          <path d="m 0,0 c 0.47,0 0.85,-0.38 0.85,-0.85 0,-0.469 -0.38,-0.851 -0.85,-0.851 -0.47,0 -0.851,0.382 -0.851,0.851 C -0.851,-0.38 -0.47,0 0,0" style="fill:#d07500;fill-opacity:1;fill-rule:evenodd;stroke:none" id="path2349"></path>
        </g>
        <g id="g2351" transform="translate(38.476,47.4205)">
          <path d="m 0,0 c 0.47,0 0.85,-0.38 0.85,-0.85 0,-0.469 -0.38,-0.851 -0.85,-0.851 -0.47,0 -0.851,0.382 -0.851,0.851 C -0.851,-0.38 -0.47,0 0,0" style="fill:#d07500;fill-opacity:1;fill-rule:evenodd;stroke:none" id="path2353"></path>
        </g>
        <g id="g2355" transform="translate(31.1764,48.5811)">
          <path d="m 0,0 c 0.47,0 0.85,-0.38 0.85,-0.85 0,-0.469 -0.38,-0.851 -0.85,-0.851 -0.47,0 -0.851,0.382 -0.851,0.851 C -0.851,-0.38 -0.47,0 0,0" style="fill:#d07500;fill-opacity:1;fill-rule:evenodd;stroke:none" id="path2357"></path>
        </g>
        <g id="g2359" transform="translate(35.9346,7.3661)">
          <path d="m 0,0 c 0.47,0 0.85,-0.382 0.85,-0.853 0,-0.468 -0.38,-0.85 -0.85,-0.85 -0.471,0 -0.85,0.382 -0.85,0.85 C -0.85,-0.382 -0.471,0 0,0" style="fill:#d07500;fill-opacity:1;fill-rule:evenodd;stroke:none" id="path2361"></path>
        </g>
        <g id="g2363" transform="translate(38.7284,7.3662)">
          <path d="m 0,0 c 0.471,0 0.85,-0.382 0.85,-0.853 0,-0.468 -0.379,-0.85 -0.85,-0.85 -0.471,0 -0.85,0.382 -0.85,0.85 C -0.85,-0.382 -0.471,0 0,0" style="fill:#d07500;fill-opacity:1;fill-rule:evenodd;stroke:none" id="path2365"></path>
        </g>
        <g id="g2367" transform="translate(37.3085,9.4705)">
          <path d="m 0,0 c 0.471,0 0.85,-0.382 0.85,-0.853 0,-0.468 -0.379,-0.85 -0.85,-0.85 -0.471,0 -0.85,0.382 -0.85,0.85 C -0.85,-0.382 -0.471,0 0,0" style="fill:#d07500;fill-opacity:1;fill-rule:evenodd;stroke:none" id="path2369"></path>
        </g>
      </g>
    </g>
    <text xml:space="preserve" transform="matrix(1,0,0,-1,32.4706,20.2594)" style="font-variant:normal;font-weight:normal;font-stretch:normal;font-size:6.9997px;font-family:Arial;-inkscape-font-specification:ArialMT;writing-mode:lr-tb;fill:#e30613;fill-opacity:1;fill-rule:nonzero;stroke:none" id="text2373">
      <tspan x="0" y="0" id="tspan2371">ø</tspan>
    </text>
    <g id="g2375">
      <g id="g2377" clip-path="url(#clipPath2381)">
        <g id="g2383" transform="translate(39.5711,26.4973)">
          <path d="M 0,0 -2.32,3.783" style="fill:none;stroke:#e30613;stroke-width:0.283;stroke-linecap:butt;stroke-linejoin:miter;stroke-miterlimit:22.926;stroke-dasharray:none;stroke-opacity:1" id="path2385"></path>
        </g>
      </g>
    </g>
    <text xml:space="preserve" transform="matrix(1,0,0,-1,38.4116,20.2587)" style="font-variant:normal;font-weight:normal;font-stretch:semi-condensed;font-size:6.9997px;font-family:'Arial Narrow';-inkscape-font-specification:ArialNarrow;writing-mode:lr-tb;fill:#e30613;fill-opacity:1;fill-rule:nonzero;stroke:none" id="text2389">
      <tspan x="0 3.1918633 4.7877946" y="0" sodipodi:role="line" id="tspan2387">0.3</tspan>
    </text>
    <g id="g2391">
      <g id="g2393" clip-path="url(#clipPath2397)">
        <path d="M 15.522,14.74 H 46.703 V 0.567 H 15.522 Z" style="fill:none;stroke:#312783;stroke-width:1.134;stroke-linecap:butt;stroke-linejoin:miter;stroke-miterlimit:22.926;stroke-dasharray:none;stroke-opacity:1" id="path2399"></path>
      </g>
    </g>
    <text xml:space="preserve" transform="matrix(1,0,0,-1,20.0941,5.2652)" style="font-variant:normal;font-weight:normal;font-stretch:semi-condensed;font-size:6.9997px;font-family:'Arial Narrow';-inkscape-font-specification:ArialNarrow;writing-mode:lr-tb;fill:#e30613;fill-opacity:1;fill-rule:nonzero;stroke:none" id="text2403">
      <tspan x="0 4.7807951 6.0547404 9.246604" y="0" sodipodi:role="line" id="tspan2401">min.</tspan>
    </text>
  </g>
</svg>
