<?xml version="1.0" encoding="UTF-8" standalone="no"?>
<!-- Created with Inkscape (http://www.inkscape.org/) -->

<svg
   version="1.1"
   id="svg17482"
   xml:space="preserve"
   width="102.31547"
   height="139.94133"
   viewBox="0 0 102.31547 139.94133"
   sodipodi:docname="ISSprOM 201 Uncrossable cliff.svg"
   inkscape:version="1.1.1 (3bf5ae0d25, 2021-09-20)"
   xmlns:inkscape="http://www.inkscape.org/namespaces/inkscape"
   xmlns:sodipodi="http://sodipodi.sourceforge.net/DTD/sodipodi-0.dtd"
   xmlns="http://www.w3.org/2000/svg"
   xmlns:svg="http://www.w3.org/2000/svg"><defs
     id="defs17486"><clipPath
       clipPathUnits="userSpaceOnUse"
       id="clipPath17496"><path
         d="M 0,104.956 H 76.737 V 0 H 0 Z"
         id="path17494" /></clipPath><clipPath
       clipPathUnits="userSpaceOnUse"
       id="clipPath17648"><path
         d="M 0,104.956 H 76.737 V 0 H 0 Z"
         id="path17646" /></clipPath><clipPath
       clipPathUnits="userSpaceOnUse"
       id="clipPath17664"><path
         d="M 0,104.956 H 76.737 V 0 H 0 Z"
         id="path17662" /></clipPath><clipPath
       clipPathUnits="userSpaceOnUse"
       id="clipPath17712"><path
         d="M 0,104.956 H 76.737 V 0 H 0 Z"
         id="path17710" /></clipPath><clipPath
       clipPathUnits="userSpaceOnUse"
       id="clipPath17732"><path
         d="M 0,104.956 H 76.737 V 0 H 0 Z"
         id="path17730" /></clipPath></defs><sodipodi:namedview
     id="namedview17484"
     pagecolor="#ffffff"
     bordercolor="#666666"
     borderopacity="1.0"
     inkscape:pageshadow="2"
     inkscape:pageopacity="0.0"
     inkscape:pagecheckerboard="0"
     showgrid="false"
     inkscape:zoom="5.9667862"
     inkscape:cx="51.200091"
     inkscape:cy="69.970665"
     inkscape:window-width="1920"
     inkscape:window-height="1017"
     inkscape:window-x="-8"
     inkscape:window-y="-8"
     inkscape:window-maximized="1"
     inkscape:current-layer="g17488" /><g
     id="g17488"
     inkscape:groupmode="layer"
     inkscape:label="ISSprOM 201 Uncrossable cliff"
     transform="matrix(1.3333333,0,0,-1.3333333,0,139.94133)"><g
       id="g17490"><g
         id="g17492"
         clip-path="url(#clipPath17496)"><g
           id="g17498"
           transform="translate(33.9717,39.2737)"><path
             d="m 0,0 c -2.592,-1.859 -4.607,-4.42 -1.512,-5.122 3.096,-0.703 14.184,-1.406 19.225,-0.903 5.039,0.502 7.703,1.354 6.552,2.711 -1.153,1.355 -4.896,3.112 -6.697,4.167 -1.799,1.053 -1.367,1.807 -1.367,3.263 0,1.456 0.36,3.918 -1.945,4.67 -2.304,0.754 -1.367,1.758 -2.879,2.812 C 9.865,12.652 6.912,13.607 5.688,12.151 4.465,10.694 3.24,8.938 0.721,8.083 -1.799,7.23 -2.808,7.028 -1.799,5.572 -0.791,4.116 0.504,4.267 1.584,3.766 2.664,3.264 3.313,2.058 2.232,1.255 1.152,0.451 0,0 0,0"
             style="fill:#27abe2;fill-opacity:1;fill-rule:evenodd;stroke:none"
             id="path17500" /></g><g
           id="g17502"
           transform="translate(31.9658,46.1966)"><path
             d="M 0,0 C -0.29,-0.316 -0.235,-0.713 0.207,-1.351 1.215,-2.807 2.51,-2.656 3.59,-3.157 4.67,-3.659 5.318,-4.865 4.238,-5.668 3.158,-6.472 2.006,-6.923 2.006,-6.923 c -2.592,-1.859 -4.608,-4.42 -1.512,-5.122 3.096,-0.703 14.184,-1.406 19.225,-0.903 5.039,0.502 7.703,1.354 6.552,2.711 -1.153,1.355 -4.896,3.112 -6.697,4.167 -1.8,1.053 -1.367,1.807 -1.367,3.263 0,1.456 0.359,3.918 -1.945,4.67 -1.989,0.652 -1.563,1.488 -2.382,2.382"
             style="fill:none;stroke:#1d1d1b;stroke-width:1.02;stroke-linecap:butt;stroke-linejoin:miter;stroke-miterlimit:22.926;stroke-dasharray:none;stroke-opacity:1"
             id="path17504" /></g><g
           id="g17506"
           transform="translate(26.7544,19.987)"><path
             d="M 0,0 H 6.236"
             style="fill:none;stroke:#1d1d1b;stroke-width:2.835;stroke-linecap:butt;stroke-linejoin:miter;stroke-miterlimit:22.926;stroke-dasharray:none;stroke-opacity:1"
             id="path17508" /></g><g
           id="g17510"
           transform="translate(29.2138,42.2884)"><path
             d="M 0,0 -1.146,5.645"
             style="fill:none;stroke:#1d1d1b;stroke-width:1.02;stroke-linecap:butt;stroke-linejoin:miter;stroke-miterlimit:22.926;stroke-dasharray:none;stroke-opacity:1"
             id="path17512" /></g><g
           id="g17514"
           transform="translate(34.8667,44.967)"><path
             d="M 0,0 -2.278,4.393"
             style="fill:none;stroke:#1d1d1b;stroke-width:1.02;stroke-linecap:butt;stroke-linejoin:miter;stroke-miterlimit:22.926;stroke-dasharray:none;stroke-opacity:1"
             id="path17516" /></g><g
           id="g17518"
           transform="translate(44.5971,50.8282)"><path
             d="M 0,0 -0.645,5.103"
             style="fill:none;stroke:#1d1d1b;stroke-width:1.02;stroke-linecap:butt;stroke-linejoin:miter;stroke-miterlimit:22.926;stroke-dasharray:none;stroke-opacity:1"
             id="path17520" /></g><g
           id="g17522"
           transform="translate(50.0283,51.8959)"><path
             d="M 0,0 V 4.252"
             style="fill:none;stroke:#1d1d1b;stroke-width:1.02;stroke-linecap:butt;stroke-linejoin:miter;stroke-miterlimit:22.926;stroke-dasharray:none;stroke-opacity:1"
             id="path17524" /></g><g
           id="g17526"
           transform="translate(27.7217,19.8563)"><path
             d="M 0,0 V -4.253"
             style="fill:none;stroke:#1d1d1b;stroke-width:1.02;stroke-linecap:butt;stroke-linejoin:miter;stroke-miterlimit:22.926;stroke-dasharray:none;stroke-opacity:1"
             id="path17528" /></g><g
           id="g17530"
           transform="translate(31.9736,19.8563)"><path
             d="M 0,0 V -4.253"
             style="fill:none;stroke:#1d1d1b;stroke-width:1.02;stroke-linecap:butt;stroke-linejoin:miter;stroke-miterlimit:22.926;stroke-dasharray:none;stroke-opacity:1"
             id="path17532" /></g><g
           id="g17534"
           transform="translate(19.6963,45.8606)"><path
             d="M 0,0 C 2.191,0.306 5.775,0.949 8.803,1.634"
             style="fill:none;stroke:#d07500;stroke-width:1.191;stroke-linecap:butt;stroke-linejoin:miter;stroke-miterlimit:22.926;stroke-dasharray:none;stroke-opacity:1"
             id="path17536" /></g><g
           id="g17538"
           transform="translate(50.1523,55.972)"><path
             d="M 0,0 C 8.425,0.144 14.482,0.137 26.456,-2.503"
             style="fill:none;stroke:#d07500;stroke-width:1.191;stroke-linecap:butt;stroke-linejoin:miter;stroke-miterlimit:22.926;stroke-dasharray:none;stroke-opacity:1"
             id="path17540" /></g><g
           id="g17542"
           transform="translate(76.6084,60.4593)"><path
             d="m 0,0 c -11.975,2.639 -18.031,2.646 -26.456,2.502 -8.424,-0.144 -7.879,-0.504 -11.331,-2.601 -3.453,-2.094 -3.206,-4.561 -7.276,-5.671 -4.068,-1.109 -9.125,1.604 -11.714,2.097"
             style="fill:none;stroke:#d07500;stroke-width:1.191;stroke-linecap:butt;stroke-linejoin:miter;stroke-miterlimit:22.926;stroke-dasharray:none;stroke-opacity:1"
             id="path17544" /></g><g
           id="g17546"
           transform="translate(27.206,47.2356)"><path
             d="m 0,0 c 4.63,1.37 5.542,1.562 7.773,4.298 2.233,2.736 3.889,3.96 7.202,4.32 3.311,0.361 5.798,0.288 8.853,0.288"
             style="fill:none;stroke:#1d1d1b;stroke-width:2.835;stroke-linecap:butt;stroke-linejoin:miter;stroke-miterlimit:22.926;stroke-dasharray:none;stroke-opacity:1"
             id="path17548" /></g><g
           id="g17550"
           transform="translate(37.042,53.6858)"><path
             d="M 0,0 3.198,-4.608"
             style="fill:none;stroke:#1d1d1b;stroke-width:1.02;stroke-linecap:butt;stroke-linejoin:miter;stroke-miterlimit:22.926;stroke-dasharray:none;stroke-opacity:1"
             id="path17552" /></g><g
           id="g17554"
           transform="translate(22.7334,92.8216)"><path
             d="M 0,0 H 28.347"
             style="fill:none;stroke:#1d1d1b;stroke-width:2.835;stroke-linecap:butt;stroke-linejoin:miter;stroke-miterlimit:22.926;stroke-dasharray:none;stroke-opacity:1"
             id="path17556" /></g><g
           id="g17558"
           transform="translate(41.2949,92.8216)"><path
             d="M 0,0 V -4.253"
             style="fill:none;stroke:#1d1d1b;stroke-width:1.02;stroke-linecap:butt;stroke-linejoin:miter;stroke-miterlimit:22.926;stroke-dasharray:none;stroke-opacity:1"
             id="path17560" /></g><g
           id="g17562"
           transform="translate(37.043,92.8216)"><path
             d="M 0,0 V -4.253"
             style="fill:none;stroke:#1d1d1b;stroke-width:1.02;stroke-linecap:butt;stroke-linejoin:miter;stroke-miterlimit:22.926;stroke-dasharray:none;stroke-opacity:1"
             id="path17564" /></g><g
           id="g17566"
           transform="translate(32.791,92.8216)"><path
             d="M 0,0 V -4.253"
             style="fill:none;stroke:#1d1d1b;stroke-width:1.02;stroke-linecap:butt;stroke-linejoin:miter;stroke-miterlimit:22.926;stroke-dasharray:none;stroke-opacity:1"
             id="path17568" /></g><g
           id="g17570"
           transform="translate(28.539,92.8216)"><path
             d="M 0,0 V -4.253"
             style="fill:none;stroke:#1d1d1b;stroke-width:1.02;stroke-linecap:butt;stroke-linejoin:miter;stroke-miterlimit:22.926;stroke-dasharray:none;stroke-opacity:1"
             id="path17572" /></g><g
           id="g17574"
           transform="translate(24.2871,92.8216)"><path
             d="M 0,0 V -4.253"
             style="fill:none;stroke:#1d1d1b;stroke-width:1.02;stroke-linecap:butt;stroke-linejoin:miter;stroke-miterlimit:22.926;stroke-dasharray:none;stroke-opacity:1"
             id="path17576" /></g><g
           id="g17578"
           transform="translate(45.5469,92.8216)"><path
             d="M 0,0 V -4.253"
             style="fill:none;stroke:#1d1d1b;stroke-width:1.02;stroke-linecap:butt;stroke-linejoin:miter;stroke-miterlimit:22.926;stroke-dasharray:none;stroke-opacity:1"
             id="path17580" /></g><g
           id="g17582"
           transform="translate(49.7988,92.8216)"><path
             d="M 0,0 V -4.253"
             style="fill:none;stroke:#1d1d1b;stroke-width:1.02;stroke-linecap:butt;stroke-linejoin:miter;stroke-miterlimit:22.926;stroke-dasharray:none;stroke-opacity:1"
             id="path17584" /></g><g
           id="g17586"
           transform="translate(20.8037,81.0789)"><path
             d="M 0,0 V -4.259"
             style="fill:none;stroke:#1d1d1b;stroke-width:1.02;stroke-linecap:butt;stroke-linejoin:miter;stroke-miterlimit:22.926;stroke-dasharray:none;stroke-opacity:1"
             id="path17588" /></g><g
           id="g17590"
           transform="translate(15.9521,79.9051)"><path
             d="M 0,0 2.019,-3.644"
             style="fill:none;stroke:#1d1d1b;stroke-width:1.02;stroke-linecap:butt;stroke-linejoin:miter;stroke-miterlimit:22.926;stroke-dasharray:none;stroke-opacity:1"
             id="path17592" /></g><g
           id="g17594"
           transform="translate(12.3633,76.5052)"><path
             d="M 0,0 3.295,-2.026"
             style="fill:none;stroke:#1d1d1b;stroke-width:1.02;stroke-linecap:butt;stroke-linejoin:miter;stroke-miterlimit:22.926;stroke-dasharray:none;stroke-opacity:1"
             id="path17596" /></g><g
           id="g17598"
           transform="translate(11.2197,71.1634)"><path
             d="M 0,0 3.71,0.445"
             style="fill:none;stroke:#1d1d1b;stroke-width:1.02;stroke-linecap:butt;stroke-linejoin:miter;stroke-miterlimit:22.926;stroke-dasharray:none;stroke-opacity:1"
             id="path17600" /></g><g
           id="g17602"
           transform="translate(12.4609,67.4573)"><path
             d="M 0,0 2.949,1.242"
             style="fill:none;stroke:#1d1d1b;stroke-width:1.02;stroke-linecap:butt;stroke-linejoin:miter;stroke-miterlimit:22.926;stroke-dasharray:none;stroke-opacity:1"
             id="path17604" /></g><g
           id="g17606"
           transform="translate(14.5371,64.2815)"><path
             d="M 0,0 2.224,1.576"
             style="fill:none;stroke:#1d1d1b;stroke-width:1.02;stroke-linecap:butt;stroke-linejoin:miter;stroke-miterlimit:22.926;stroke-dasharray:none;stroke-opacity:1"
             id="path17608" /></g><g
           id="g17610"
           transform="translate(25.2002,80.326)"><path
             d="M 0,0 -1.549,-3.925"
             style="fill:none;stroke:#1d1d1b;stroke-width:1.02;stroke-linecap:butt;stroke-linejoin:miter;stroke-miterlimit:22.926;stroke-dasharray:none;stroke-opacity:1"
             id="path17612" /></g><g
           id="g17614"
           transform="translate(29.0683,76.9476)"><path
             d="M 0,0 -3.338,-1.973"
             style="fill:none;stroke:#1d1d1b;stroke-width:1.02;stroke-linecap:butt;stroke-linejoin:miter;stroke-miterlimit:22.926;stroke-dasharray:none;stroke-opacity:1"
             id="path17616" /></g><g
           id="g17618"
           transform="translate(30.4521,72.7083)"><path
             d="M 0,0 -3.544,-0.492"
             style="fill:none;stroke:#1d1d1b;stroke-width:1.02;stroke-linecap:butt;stroke-linejoin:miter;stroke-miterlimit:22.926;stroke-dasharray:none;stroke-opacity:1"
             id="path17620" /></g><g
           id="g17622"
           transform="translate(30.3388,68.4427)"><path
             d="M 0,0 -3.22,0.802"
             style="fill:none;stroke:#1d1d1b;stroke-width:1.02;stroke-linecap:butt;stroke-linejoin:miter;stroke-miterlimit:22.926;stroke-dasharray:none;stroke-opacity:1"
             id="path17624" /></g><g
           id="g17626"
           transform="translate(28.6474,64.5931)"><path
             d="M 0,0 -2.404,1.343"
             style="fill:none;stroke:#1d1d1b;stroke-width:1.02;stroke-linecap:butt;stroke-linejoin:miter;stroke-miterlimit:22.926;stroke-dasharray:none;stroke-opacity:1"
             id="path17628" /></g><g
           id="g17630"
           transform="translate(15.8662,62.6976)"><path
             d="m 0,0 c -5.503,6.14 -5.446,10.465 -3.608,13.632 1.837,3.167 5.486,5.293 10.341,4.627 4.856,-0.666 6.994,-3.176 7.934,-8.702 C 15.29,5.89 13.424,3.049 12.109,0.716"
             style="fill:none;stroke:#1d1d1b;stroke-width:2.835;stroke-linecap:butt;stroke-linejoin:miter;stroke-miterlimit:22.926;stroke-dasharray:none;stroke-opacity:1"
             id="path17632" /></g><g
           id="g17634"
           transform="translate(15.8662,62.6976)"><path
             d="m 0,0 c -5.503,6.14 -5.446,10.465 -3.608,13.632 1.837,3.167 5.486,5.293 10.341,4.627 4.856,-0.666 6.994,-3.176 7.934,-8.702 C 15.29,5.89 13.424,3.049 12.109,0.716"
             style="fill:none;stroke:#1d1d1b;stroke-width:2.835;stroke-linecap:butt;stroke-linejoin:miter;stroke-miterlimit:22.926;stroke-dasharray:none;stroke-opacity:1"
             id="path17636" /></g></g></g><text
       transform="matrix(1,0,0,-1,13.5143,5.3514)"
       style="font-variant:normal;font-weight:normal;font-stretch:semi-condensed;font-size:6.9997px;font-family:'Arial Narrow';-inkscape-font-specification:ArialNarrow;writing-mode:lr-tb;fill:#e30613;fill-opacity:1;fill-rule:nonzero;stroke:none"
       id="text17640"><tspan
         x="0 4.7807951 6.0547404 9.246604 10.842535 12.438467 15.63033 17.226261 20.418125 22.014057 23.924974 28.390783 33.171577"
         y="0"
         sodipodi:role="line"
         id="tspan17638">min. 1.1 (OM)</tspan></text><g
       id="g17642"><g
         id="g17644"
         clip-path="url(#clipPath17648)"><text
           transform="matrix(1,0,0,-1,2e-4,87.2204)"
           style="font-variant:normal;font-weight:normal;font-stretch:semi-condensed;font-size:6.9997px;font-family:'Arial Narrow';-inkscape-font-specification:ArialNarrow;writing-mode:lr-tb;fill:#e30613;fill-opacity:1;fill-rule:nonzero;stroke:none"
           id="text17652"><tspan
             x="0 3.1918633 4.7877946 7.9796581"
             y="0"
             sodipodi:role="line"
             id="tspan17650">0.50</tspan></text></g></g><text
       transform="matrix(1,0,0,-1,35.7632,77.654)"
       style="font-variant:normal;font-weight:normal;font-stretch:semi-condensed;font-size:6.9997px;font-family:'Arial Narrow';-inkscape-font-specification:ArialNarrow;writing-mode:lr-tb;fill:#e30613;fill-opacity:1;fill-rule:nonzero;stroke:none"
       id="text17656"><tspan
         x="0 3.1918633 4.7877946 7.9796581"
         y="0"
         sodipodi:role="line"
         id="tspan17654">0.18</tspan></text><g
       id="g17658"><g
         id="g17660"
         clip-path="url(#clipPath17664)"><g
           id="g17666"
           transform="translate(26.7296,11.3737)"><path
             d="M 0,0 V 2.735"
             style="fill:none;stroke:#e30613;stroke-width:0.283;stroke-linecap:butt;stroke-linejoin:miter;stroke-miterlimit:22.926;stroke-dasharray:none;stroke-opacity:1"
             id="path17668" /></g><g
           id="g17670"
           transform="translate(32.9658,11.3737)"><path
             d="M 0,0 V 2.735"
             style="fill:none;stroke:#e30613;stroke-width:0.283;stroke-linecap:butt;stroke-linejoin:miter;stroke-miterlimit:22.926;stroke-dasharray:none;stroke-opacity:1"
             id="path17672" /></g><g
           id="g17674"
           transform="translate(41.2949,83.9437)"><path
             d="M 0,0 V 4.252"
             style="fill:none;stroke:#e30613;stroke-width:0.283;stroke-linecap:butt;stroke-linejoin:miter;stroke-miterlimit:22.926;stroke-dasharray:none;stroke-opacity:1"
             id="path17676" /></g><text
           transform="matrix(1,0,0,-1,37.8417,98.9497)"
           style="font-variant:normal;font-weight:normal;font-stretch:semi-condensed;font-size:6.9997px;font-family:'Arial Narrow';-inkscape-font-specification:ArialNarrow;writing-mode:lr-tb;fill:#e30613;fill-opacity:1;fill-rule:nonzero;stroke:none"
           id="text17680"><tspan
             x="0 3.1918633 4.7877946 7.9796581 11.171521 12.767453 14.67837 18.822193 22.966015"
             y="0"
             sodipodi:role="line"
             id="tspan17678">0.75 (CC)</tspan></text><g
           id="g17682"
           transform="translate(41.2949,94.6348)"><path
             d="M 0,0 V 2.835"
             style="fill:none;stroke:#e30613;stroke-width:0.283;stroke-linecap:butt;stroke-linejoin:miter;stroke-miterlimit:22.926;stroke-dasharray:none;stroke-opacity:1"
             id="path17684" /></g><g
           id="g17686"
           transform="translate(45.5469,94.6348)"><path
             d="M 0,0 V 2.835"
             style="fill:none;stroke:#e30613;stroke-width:0.283;stroke-linecap:butt;stroke-linejoin:miter;stroke-miterlimit:22.926;stroke-dasharray:none;stroke-opacity:1"
             id="path17688" /></g><g
           id="g17690"
           transform="translate(12.2578,90.1422)"><path
             d="M 0,0 10.342,2.661"
             style="fill:none;stroke:#e30613;stroke-width:0.283;stroke-linecap:butt;stroke-linejoin:miter;stroke-miterlimit:22.926;stroke-dasharray:none;stroke-opacity:1"
             id="path17692" /></g><g
           id="g17694"
           transform="translate(34.0566,15.6053)"><path
             d="M 0,0 H 5.669"
             style="fill:none;stroke:#e30613;stroke-width:0.283;stroke-linecap:butt;stroke-linejoin:miter;stroke-miterlimit:22.926;stroke-dasharray:none;stroke-opacity:1"
             id="path17696" /></g><g
           id="g17698"
           transform="translate(34.0566,19.8563)"><path
             d="M 0,0 H 5.669"
             style="fill:none;stroke:#e30613;stroke-width:0.283;stroke-linecap:butt;stroke-linejoin:miter;stroke-miterlimit:22.926;stroke-dasharray:none;stroke-opacity:1"
             id="path17700" /></g></g></g><text
       transform="matrix(1,0,0,-1,42.1905,15.6029)"
       style="font-variant:normal;font-weight:normal;font-stretch:semi-condensed;font-size:6.9997px;font-family:'Arial Narrow';-inkscape-font-specification:ArialNarrow;writing-mode:lr-tb;fill:#e30613;fill-opacity:1;fill-rule:nonzero;stroke:none"
       id="text17704"><tspan
         x="0 4.7807951 6.0547404 9.246604 10.842535 12.438467 15.63033 17.226261 20.418125"
         y="0"
         sodipodi:role="line"
         id="tspan17702">min. 0.75</tspan></text><g
       id="g17706"><g
         id="g17708"
         clip-path="url(#clipPath17712)"><g
           id="g17714"
           transform="translate(51.6435,88.5701)"><path
             d="M 0,0 H 5.669"
             style="fill:none;stroke:#e30613;stroke-width:0.283;stroke-linecap:butt;stroke-linejoin:miter;stroke-miterlimit:22.926;stroke-dasharray:none;stroke-opacity:1"
             id="path17716" /></g><g
           id="g17718"
           transform="translate(51.6435,92.8216)"><path
             d="M 0,0 H 5.669"
             style="fill:none;stroke:#e30613;stroke-width:0.283;stroke-linecap:butt;stroke-linejoin:miter;stroke-miterlimit:22.926;stroke-dasharray:none;stroke-opacity:1"
             id="path17720" /></g></g></g><text
       transform="matrix(1,0,0,-1,59.7774,88.2025)"
       style="font-variant:normal;font-weight:normal;font-stretch:semi-condensed;font-size:6.9997px;font-family:'Arial Narrow';-inkscape-font-specification:ArialNarrow;writing-mode:lr-tb;fill:#e30613;fill-opacity:1;fill-rule:nonzero;stroke:none"
       id="text17724"><tspan
         x="0 3.1918633 4.7877946 7.9796581"
         y="0"
         sodipodi:role="line"
         id="tspan17722">0.75</tspan></text><g
       id="g17726"><g
         id="g17728"
         clip-path="url(#clipPath17732)"><path
           d="M 8.635,26.079 H 70.997 V 0.567 H 8.635 Z"
           style="fill:none;stroke:#312783;stroke-width:1.134;stroke-linecap:butt;stroke-linejoin:miter;stroke-miterlimit:22.926;stroke-dasharray:none;stroke-opacity:1"
           id="path17734" /></g></g></g></svg>
