<?xml version="1.0" encoding="UTF-8" standalone="no"?>
<!-- Created with Inkscape (http://www.inkscape.org/) -->

<svg
   version="1.1"
   id="svg4967"
   xml:space="preserve"
   width="66.537331"
   height="46.702"
   viewBox="0 0 66.537331 46.702"
   sodipodi:docname="ISSprOM 204 Boulder.svg"
   inkscape:version="1.1.1 (3bf5ae0d25, 2021-09-20)"
   xmlns:inkscape="http://www.inkscape.org/namespaces/inkscape"
   xmlns:sodipodi="http://sodipodi.sourceforge.net/DTD/sodipodi-0.dtd"
   xmlns="http://www.w3.org/2000/svg"
   xmlns:svg="http://www.w3.org/2000/svg"><defs
     id="defs4971"><clipPath
       clipPathUnits="userSpaceOnUse"
       id="clipPath4981"><path
         d="M 0,35.026 H 49.903 V 0 H 0 Z"
         id="path4979" /></clipPath></defs><sodipodi:namedview
     id="namedview4969"
     pagecolor="#ffffff"
     bordercolor="#666666"
     borderopacity="1.0"
     inkscape:pageshadow="2"
     inkscape:pageopacity="0.0"
     inkscape:pagecheckerboard="0"
     showgrid="false"
     inkscape:zoom="16.93786"
     inkscape:cx="33.268665"
     inkscape:cy="23.350057"
     inkscape:window-width="1920"
     inkscape:window-height="1017"
     inkscape:window-x="-8"
     inkscape:window-y="-8"
     inkscape:window-maximized="1"
     inkscape:current-layer="g4973" /><g
     id="g4973"
     inkscape:groupmode="layer"
     inkscape:label="ISSprOM 204 Boulder"
     transform="matrix(1.3333333,0,0,-1.3333333,0,46.702)"><g
       id="g4975"><g
         id="g4977"
         clip-path="url(#clipPath4981)"><g
           id="g4983"
           transform="translate(0.747,11.9589)"><path
             d="m 0,0 c 18.235,-0.418 28.102,6.11 34.122,13.998 6.021,7.889 14.995,8.476 14.995,8.476"
             style="fill:none;stroke:#d07500;stroke-width:1.191;stroke-linecap:butt;stroke-linejoin:miter;stroke-miterlimit:22.926;stroke-dasharray:none;stroke-opacity:1"
             id="path4985" /></g><g
           id="g4987"
           transform="translate(24.8837,15.5312)"><path
             d="M 0,0 C -0.939,0 -1.701,0.762 -1.701,1.7 -1.701,2.64 -0.939,3.402 0,3.402 0.939,3.402 1.701,2.64 1.701,1.7 1.701,0.762 0.939,0 0,0"
             style="fill:#1d1d1b;fill-opacity:1;fill-rule:evenodd;stroke:none"
             id="path4989" /></g><g
           id="g4991"
           transform="translate(0.0136,0.6142)"><path
             d="m 0,0 c 18.235,-0.417 28.102,6.111 34.122,13.999 6.021,7.888 14.996,8.476 14.996,8.476"
             style="fill:none;stroke:#d07500;stroke-width:1.191;stroke-linecap:butt;stroke-linejoin:miter;stroke-miterlimit:22.926;stroke-dasharray:none;stroke-opacity:1"
             id="path4993" /></g><g
           id="g4995"
           transform="translate(11.4403,5.3622)"><path
             d="m 0,0 c -0.938,0 -1.7,0.762 -1.7,1.702 0,0.938 0.762,1.7 1.7,1.7 0.939,0 1.701,-0.762 1.701,-1.7 C 1.701,0.762 0.939,0 0,0"
             style="fill:#1d1d1b;fill-opacity:1;fill-rule:evenodd;stroke:none"
             id="path4997" /></g><g
           id="g4999"
           transform="translate(32.9843,5.018)"><path
             d="M 0,0 C -0.939,0 -1.7,0.762 -1.7,1.7 -1.7,2.64 -0.939,3.402 0,3.402 0.939,3.402 1.701,2.64 1.701,1.7 1.701,0.762 0.939,0 0,0"
             style="fill:#1d1d1b;fill-opacity:1;fill-rule:evenodd;stroke:none"
             id="path5001" /></g></g></g><text
       transform="matrix(1,0,0,-1,8.9744,19.8862)"
       style="font-variant:normal;font-weight:normal;font-stretch:normal;font-size:6.9997px;font-family:Arial;-inkscape-font-specification:ArialMT;writing-mode:lr-tb;fill:#e30613;fill-opacity:1;fill-rule:nonzero;stroke:none"
       id="text5005"><tspan
         x="0"
         y="0"
         id="tspan5003">ø</tspan></text><text
       transform="matrix(1,0,0,-1,14.847148,19.8862)"
       style="font-variant:normal;font-weight:normal;font-stretch:semi-condensed;font-size:6.9997px;font-family:'Arial Narrow';-inkscape-font-specification:ArialNarrow;writing-mode:lr-tb;fill:#e30613;fill-opacity:1;fill-rule:nonzero;stroke:none"
       id="text5009"><tspan
         x="0 3.1918633 4.7877946"
         y="0"
         sodipodi:role="line"
         id="tspan5007">0.6</tspan></text></g></svg>
