<?xml version="1.0" encoding="UTF-8" standalone="no"?>
<!-- Created with Inkscape (http://www.inkscape.org/) -->

<svg
   version="1.1"
   id="svg8364"
   xml:space="preserve"
   width="115.74733"
   height="51.937466"
   viewBox="0 0 115.74733 51.937466"
   sodipodi:docname="ISSprOM 301 Uncrossable body of water.svg"
   inkscape:version="1.1.1 (3bf5ae0d25, 2021-09-20)"
   xmlns:inkscape="http://www.inkscape.org/namespaces/inkscape"
   xmlns:sodipodi="http://sodipodi.sourceforge.net/DTD/sodipodi-0.dtd"
   xmlns="http://www.w3.org/2000/svg"
   xmlns:svg="http://www.w3.org/2000/svg"><defs
     id="defs8368"><clipPath
       clipPathUnits="userSpaceOnUse"
       id="clipPath8378"><path
         d="M 0,38.953 H 86.811 V 0 H 0 Z"
         id="path8376" /></clipPath></defs><sodipodi:namedview
     id="namedview8366"
     pagecolor="#ffffff"
     bordercolor="#666666"
     borderopacity="1.0"
     inkscape:pageshadow="2"
     inkscape:pageopacity="0.0"
     inkscape:pagecheckerboard="0"
     showgrid="false"
     inkscape:zoom="9.7367257"
     inkscape:cx="57.873665"
     inkscape:cy="25.932742"
     inkscape:window-width="1920"
     inkscape:window-height="1017"
     inkscape:window-x="-8"
     inkscape:window-y="-8"
     inkscape:window-maximized="1"
     inkscape:current-layer="g8370" /><g
     id="g8370"
     inkscape:groupmode="layer"
     inkscape:label="ISSprOM 301 Uncrossable body of water"
     transform="matrix(1.3333333,0,0,-1.3333333,0,51.937467)"><g
       id="g8372"><g
         id="g8374"
         clip-path="url(#clipPath8378)"><g
           id="g8380"
           transform="translate(12.7356,1.0243)"><path
             d="m 0,0 c 3.879,-3.672 8.003,18.375 10.307,20.857 2.089,2.248 7.608,2.911 11.068,1.254 1.598,-0.762 -0.994,-10.416 0.896,-14.162 2.206,-4.375 7.747,-2.758 9.776,-2.045 2.017,0.709 8.494,1.164 7.069,11.549 C 37.689,27.838 16.566,26.566 6.909,24.156 -2.75,21.746 -7.023,12.852 -6.605,10.332 -6.187,7.811 0,0 0,0"
             style="fill:#009fe3;fill-opacity:1;fill-rule:evenodd;stroke:none"
             id="path8382" /></g><g
           id="g8384"
           transform="translate(12.7356,1.0243)"><path
             d="m 0,0 c 3.879,-3.672 8.003,18.375 10.307,20.857 2.089,2.248 7.608,2.911 11.068,1.254 1.598,-0.762 -0.994,-10.416 0.896,-14.162 2.206,-4.375 7.747,-2.758 9.776,-2.045 2.017,0.709 8.494,1.164 7.069,11.549 C 37.689,27.838 16.566,26.566 6.909,24.156 -2.75,21.746 -7.023,12.852 -6.605,10.332 -6.187,7.811 0,0 0,0 Z"
             style="fill:none;stroke:#1d1d1b;stroke-width:1.02;stroke-linecap:butt;stroke-linejoin:miter;stroke-miterlimit:22.926;stroke-dasharray:none;stroke-opacity:1"
             id="path8386" /></g><text
           transform="matrix(1,0,0,-1,58.5386,2.1465)"
           style="font-variant:normal;font-weight:normal;font-stretch:semi-condensed;font-size:7px;font-family:'Arial Narrow';-inkscape-font-specification:ArialNarrow;writing-mode:lr-tb;fill:#e30613;fill-opacity:1;fill-rule:nonzero;stroke:none"
           id="text8392"><tspan
             x="0 3.1919999 4.7880001 7.98"
             y="0"
             sodipodi:role="line"
             id="tspan8388">0.18</tspan><tspan
             x="-58.541 -53.759998 -52.486 -49.293999 -48.02 -43.238998 -40.047001 -35.265999 -33.669998 -29.525999 -28.252001 -25.059999 -23.464001 -20.271999 -18.676001 -15.484 -13.888 -10.696 -9.1000004 -7.1890001 -5.5929999 -0.81199998"
             y="-30.799999"
             sodipodi:role="line"
             id="tspan8390">Minimum width 0.3 (IM)</tspan></text><g
           id="g8394"
           transform="translate(51.5032,9.4325)"><path
             d="M 0,0 4.283,-3.446"
             style="fill:none;stroke:#e30613;stroke-width:0.283;stroke-linecap:butt;stroke-linejoin:miter;stroke-miterlimit:22.926;stroke-dasharray:none;stroke-opacity:1"
             id="path8396" /></g><text
           transform="matrix(1,0,0,-1,55.2251,19.8677)"
           style="font-variant:normal;font-weight:normal;font-stretch:semi-condensed;font-size:7px;font-family:'Arial Narrow';-inkscape-font-specification:ArialNarrow;writing-mode:lr-tb;fill:#e30613;fill-opacity:1;fill-rule:nonzero;stroke:none"
           id="text8400"><tspan
             x="0 3.1919999 6.3839998 9.5760002 14.679 16.275 18.186001 21.378 24.57 29.673"
             y="0"
             sodipodi:role="line"
             id="tspan8398">100% (70%)</tspan></text><g
           id="g8402"
           transform="translate(29.0871,31.0633)"><path
             d="M 0,0 0.006,-5.639"
             style="fill:none;stroke:#e30613;stroke-width:0.283;stroke-linecap:butt;stroke-linejoin:miter;stroke-miterlimit:22.926;stroke-dasharray:none;stroke-opacity:1"
             id="path8404" /></g></g></g></g></svg>
