<?xml version="1.0" encoding="UTF-8" standalone="no"?>
<!-- Created with Inkscape (http://www.inkscape.org/) -->

<svg
   version="1.1"
   id="svg8594"
   xml:space="preserve"
   width="94.026398"
   height="58.554001"
   viewBox="0 0 94.026398 58.554001"
   sodipodi:docname="ISSprOM 302 Crossable body of water.svg"
   inkscape:version="1.1.1 (3bf5ae0d25, 2021-09-20)"
   xmlns:inkscape="http://www.inkscape.org/namespaces/inkscape"
   xmlns:sodipodi="http://sodipodi.sourceforge.net/DTD/sodipodi-0.dtd"
   xmlns="http://www.w3.org/2000/svg"
   xmlns:svg="http://www.w3.org/2000/svg"><defs
     id="defs8598"><clipPath
       clipPathUnits="userSpaceOnUse"
       id="clipPath8608"><path
         d="M 0,43.916 H 70.52 V 0 H 0 Z"
         id="path8606" /></clipPath></defs><sodipodi:namedview
     id="namedview8596"
     pagecolor="#ffffff"
     bordercolor="#666666"
     borderopacity="1.0"
     inkscape:pageshadow="2"
     inkscape:pageopacity="0.0"
     inkscape:pagecheckerboard="0"
     showgrid="false"
     inkscape:zoom="11.985996"
     inkscape:cx="47.013199"
     inkscape:cy="29.24246"
     inkscape:window-width="1920"
     inkscape:window-height="1017"
     inkscape:window-x="-8"
     inkscape:window-y="-8"
     inkscape:window-maximized="1"
     inkscape:current-layer="g8600" /><g
     id="g8600"
     inkscape:groupmode="layer"
     inkscape:label="ISSprOM 302 Crossable body of water"
     transform="matrix(1.3333333,0,0,-1.3333333,0,58.554)"><g
       id="g8602"><g
         id="g8604"
         clip-path="url(#clipPath8608)"><g
           id="g8610"
           transform="translate(8.7505,19.4745)"><path
             d="m 0,0 c 3.071,0.943 7.936,3.367 11.104,6.535 3.167,3.168 6.906,3.387 11.08,1.731 1.927,-0.762 -1.199,-10.416 1.082,-14.162 2.662,-4.375 10.185,-2.598 11.797,-2.045 2.286,0.896 10.248,1.164 8.529,11.548 C 41.871,13.992 16.383,12.721 4.729,10.311 -6.924,7.9 -8.668,7.977 -8.164,5.456 -7.66,2.936 -3.07,-0.943 0,0"
             style="fill:#bce4fa;fill-opacity:1;fill-rule:evenodd;stroke:none"
             id="path8612" /></g><g
           id="g8614"
           transform="translate(39.3908,30.9269)"><path
             d="m 0,0 c -8.587,1.194 -19.405,0.204 -25.911,-1.142 -11.653,-2.41 -13.397,-2.334 -12.893,-4.854 0.504,-2.521 5.093,-6.4 8.164,-5.456 3.071,0.943 7.935,3.367 11.103,6.535 3.168,3.168 6.906,3.387 11.081,1.73 1.927,-0.761 -1.199,-10.416 1.081,-14.162 2.662,-4.374 10.186,-2.597 11.797,-2.045 2.286,0.897 10.249,1.164 8.53,11.549 -0.295,1.778 -1.286,3.214 -2.785,4.361"
             style="fill:none;stroke:#009fe3;stroke-width:1.02;stroke-linecap:butt;stroke-linejoin:miter;stroke-miterlimit:22.926;stroke-dasharray:none;stroke-opacity:1"
             id="path8616" /></g><g
           id="g8618"
           transform="translate(55.4379,33.1409)"><path
             d="m 0,0 -6.154,-5.449 c -1.774,1.139 -5.528,1.985 -9.485,3.207 l 0.238,10.341 z"
             style="fill:#ffe0a9;fill-opacity:1;fill-rule:evenodd;stroke:none"
             id="path8620" /></g><g
           id="g8622"
           transform="translate(55.4379,33.1409)"><path
             d="m 0,0 -6.154,-5.449 c -1.774,1.139 -4.776,2.4 -9.485,3.207 l 0.238,10.341"
             style="fill:none;stroke:#1d1d1b;stroke-width:0.567;stroke-linecap:butt;stroke-linejoin:miter;stroke-miterlimit:22.926;stroke-dasharray:none;stroke-opacity:1"
             id="path8624" /></g><text
           transform="matrix(1,0,0,-1,46.9915,2.1462)"
           style="font-variant:normal;font-weight:normal;font-stretch:semi-condensed;font-size:6.9997px;font-family:'Arial Narrow';-inkscape-font-specification:ArialNarrow;writing-mode:lr-tb;fill:#e30613;fill-opacity:1;fill-rule:nonzero;stroke:none"
           id="text8628"><tspan
             x="0 3.1918633 4.7877946 7.9796581"
             y="0"
             sodipodi:role="line"
             id="tspan8626">0.18</tspan></text><g
           id="g8630"
           transform="translate(48.4341,11.7157)"><path
             d="M 0,0 1.093,-3.381"
             style="fill:none;stroke:#e30613;stroke-width:0.283;stroke-linecap:butt;stroke-linejoin:miter;stroke-miterlimit:22.926;stroke-dasharray:none;stroke-opacity:1"
             id="path8632" /></g><text
           transform="matrix(1,0,0,-1,59.0323,21.0846)"
           style="font-variant:normal;font-weight:normal;font-stretch:semi-condensed;font-size:6.9997px;font-family:'Arial Narrow';-inkscape-font-specification:ArialNarrow;writing-mode:lr-tb;fill:#e30613;fill-opacity:1;fill-rule:nonzero;stroke:none"
           id="text8636"><tspan
             x="0 3.1918633 6.3837266"
             y="0"
             sodipodi:role="line"
             id="tspan8634">30%</tspan></text><text
           transform="matrix(1,0,0,-1,5.5078,37.9097)"
           style="font-variant:normal;font-weight:normal;font-stretch:semi-condensed;font-size:7px;font-family:'Arial Narrow';-inkscape-font-specification:ArialNarrow;writing-mode:lr-tb;fill:#e30613;fill-opacity:1;fill-rule:nonzero;stroke:none"
           id="text8640"><tspan
             x="0 4.7810001 6.0549998 9.2469997 10.843 12.439 15.631 17.226999 20.419001 22.014999 23.926001 25.521999 30.302999"
             y="0"
             sodipodi:role="line"
             id="tspan8638">min. 0.3 (IM)</tspan></text><g
           id="g8642"
           transform="translate(25.1534,35.883)"><path
             d="M 0,0 0.006,-5.639"
             style="fill:none;stroke:#e30613;stroke-width:0.283;stroke-linecap:butt;stroke-linejoin:miter;stroke-miterlimit:22.926;stroke-dasharray:none;stroke-opacity:1"
             id="path8644" /></g></g></g></g></svg>
