<?xml version="1.0" encoding="UTF-8" standalone="no"?>
<!-- Created with Inkscape (http://www.inkscape.org/) -->

<svg
   version="1.1"
   id="svg10289"
   xml:space="preserve"
   width="75.363197"
   height="67.242264"
   viewBox="0 0 75.363197 67.242264"
   sodipodi:docname="ISSprOM 309 Narrow marsh.svg"
   inkscape:version="1.1.1 (3bf5ae0d25, 2021-09-20)"
   xmlns:inkscape="http://www.inkscape.org/namespaces/inkscape"
   xmlns:sodipodi="http://sodipodi.sourceforge.net/DTD/sodipodi-0.dtd"
   xmlns="http://www.w3.org/2000/svg"
   xmlns:svg="http://www.w3.org/2000/svg">
  <rect width="100%" height="100%" fill="white"/>
<defs
     id="defs10293"><clipPath
       clipPathUnits="userSpaceOnUse"
       id="clipPath10303"><path
         d="M 0,50.432 H 56.522 V 0 H 0 Z"
         id="path10301" /></clipPath><clipPath
       clipPathUnits="userSpaceOnUse"
       id="clipPath10395"><path
         d="M 0,50.432 H 56.522 V 0 H 0 Z"
         id="path10393" /></clipPath><clipPath
       clipPathUnits="userSpaceOnUse"
       id="clipPath10423"><path
         d="M 0,50.432 H 56.522 V 0 H 0 Z"
         id="path10421" /></clipPath></defs><sodipodi:namedview
     id="namedview10291"
     pagecolor="#ffffff"
     bordercolor="#666666"
     borderopacity="1.0"
     inkscape:pageshadow="2"
     inkscape:pageopacity="0.0"
     inkscape:pagecheckerboard="0"
     showgrid="false"
     inkscape:zoom="12.417785"
     inkscape:cx="37.647615"
     inkscape:cy="33.621132"
     inkscape:window-width="1920"
     inkscape:window-height="1017"
     inkscape:window-x="-8"
     inkscape:window-y="-8"
     inkscape:window-maximized="1"
     inkscape:current-layer="g10295" /><g
     id="g10295"
     inkscape:groupmode="layer"
     inkscape:label="ISSprOM 309 Narrow marsh"
     transform="matrix(1.3333333,0,0,-1.3333333,0,67.242267)"><g
       id="g10297"><g
         id="g10299"
         clip-path="url(#clipPath10303)"><g
           id="g10305"
           transform="translate(55.4736,36.2375)"><path
             d="m 0,0 c 0.579,0 1.049,-0.47 1.049,-1.048 0,-0.58 -0.47,-1.05 -1.049,-1.05 -0.579,0 -1.049,0.47 -1.049,1.05 C -1.049,-0.47 -0.579,0 0,0"
             style="fill:#009fe3;fill-opacity:1;fill-rule:evenodd;stroke:none"
             id="path10307" /></g><g
           id="g10309"
           transform="translate(52.0722,36.2375)"><path
             d="m 0,0 c 0.578,0 1.048,-0.47 1.048,-1.048 0,-0.58 -0.47,-1.05 -1.048,-1.05 -0.579,0 -1.049,0.47 -1.049,1.05 C -1.049,-0.47 -0.579,0 0,0"
             style="fill:#009fe3;fill-opacity:1;fill-rule:evenodd;stroke:none"
             id="path10311" /></g><g
           id="g10313"
           transform="translate(48.6699,36.2375)"><path
             d="m 0,0 c 0.58,0 1.05,-0.47 1.05,-1.048 0,-0.58 -0.47,-1.05 -1.05,-1.05 -0.578,0 -1.048,0.47 -1.048,1.05 C -1.048,-0.47 -0.578,0 0,0"
             style="fill:#009fe3;fill-opacity:1;fill-rule:evenodd;stroke:none"
             id="path10315" /></g><g
           id="g10317"
           transform="translate(45.2695,36.2375)"><path
             d="m 0,0 c 0.578,0 1.048,-0.47 1.048,-1.048 0,-0.58 -0.47,-1.05 -1.048,-1.05 -0.58,0 -1.05,0.47 -1.05,1.05 C -1.05,-0.47 -0.58,0 0,0"
             style="fill:#009fe3;fill-opacity:1;fill-rule:evenodd;stroke:none"
             id="path10319" /></g><g
           id="g10321"
           transform="translate(41.8672,36.2375)"><path
             d="m 0,0 c 0.579,0 1.049,-0.47 1.049,-1.048 0,-0.58 -0.47,-1.05 -1.049,-1.05 -0.579,0 -1.049,0.47 -1.049,1.05 C -1.049,-0.47 -0.579,0 0,0"
             style="fill:#009fe3;fill-opacity:1;fill-rule:evenodd;stroke:none"
             id="path10323" /></g><g
           id="g10325"
           transform="translate(38.4658,36.2375)"><path
             d="m 0,0 c 0.579,0 1.049,-0.47 1.049,-1.048 0,-0.58 -0.47,-1.05 -1.049,-1.05 -0.579,0 -1.049,0.47 -1.049,1.05 C -1.049,-0.47 -0.579,0 0,0"
             style="fill:#009fe3;fill-opacity:1;fill-rule:evenodd;stroke:none"
             id="path10327" /></g><g
           id="g10329"
           transform="translate(35.0644,36.2375)"><path
             d="m 0,0 c 0.579,0 1.049,-0.47 1.049,-1.048 0,-0.58 -0.47,-1.05 -1.049,-1.05 -0.579,0 -1.049,0.47 -1.049,1.05 C -1.049,-0.47 -0.579,0 0,0"
             style="fill:#009fe3;fill-opacity:1;fill-rule:evenodd;stroke:none"
             id="path10331" /></g><g
           id="g10333"
           transform="translate(31.6631,36.2375)"><path
             d="m 0,0 c 0.578,0 1.048,-0.47 1.048,-1.048 0,-0.58 -0.47,-1.05 -1.048,-1.05 -0.58,0 -1.05,0.47 -1.05,1.05 C -1.05,-0.47 -0.58,0 0,0"
             style="fill:#009fe3;fill-opacity:1;fill-rule:evenodd;stroke:none"
             id="path10335" /></g><g
           id="g10337"
           transform="translate(28.2607,36.2375)"><path
             d="m 0,0 c 0.58,0 1.049,-0.47 1.049,-1.048 0,-0.58 -0.469,-1.05 -1.049,-1.05 -0.579,0 -1.049,0.47 -1.049,1.05 C -1.049,-0.47 -0.579,0 0,0"
             style="fill:#009fe3;fill-opacity:1;fill-rule:evenodd;stroke:none"
             id="path10339" /></g><g
           id="g10341"
           transform="translate(24.8594,36.2375)"><path
             d="m 0,0 c 0.579,0 1.049,-0.47 1.049,-1.048 0,-0.58 -0.47,-1.05 -1.049,-1.05 -0.579,0 -1.049,0.47 -1.049,1.05 C -1.049,-0.47 -0.579,0 0,0"
             style="fill:#009fe3;fill-opacity:1;fill-rule:evenodd;stroke:none"
             id="path10343" /></g><g
           id="g10345"
           transform="translate(21.458,36.2375)"><path
             d="m 0,0 c 0.579,0 1.049,-0.47 1.049,-1.048 0,-0.58 -0.47,-1.05 -1.049,-1.05 -0.579,0 -1.049,0.47 -1.049,1.05 C -1.049,-0.47 -0.579,0 0,0"
             style="fill:#009fe3;fill-opacity:1;fill-rule:evenodd;stroke:none"
             id="path10347" /></g><g
           id="g10349"
           transform="translate(18.0566,36.2375)"><path
             d="m 0,0 c 0.579,0 1.049,-0.47 1.049,-1.048 0,-0.58 -0.47,-1.05 -1.049,-1.05 -0.579,0 -1.049,0.47 -1.049,1.05 C -1.049,-0.47 -0.579,0 0,0"
             style="fill:#009fe3;fill-opacity:1;fill-rule:evenodd;stroke:none"
             id="path10351" /></g><g
           id="g10353"
           transform="translate(14.6543,36.2375)"><path
             d="m 0,0 c 0.58,0 1.049,-0.47 1.049,-1.048 0,-0.58 -0.469,-1.05 -1.049,-1.05 -0.579,0 -1.049,0.47 -1.049,1.05 C -1.049,-0.47 -0.579,0 0,0"
             style="fill:#009fe3;fill-opacity:1;fill-rule:evenodd;stroke:none"
             id="path10355" /></g><g
           id="g10357"
           transform="translate(11.2529,36.2375)"><path
             d="m 0,0 c 0.579,0 1.049,-0.47 1.049,-1.048 0,-0.58 -0.47,-1.05 -1.049,-1.05 -0.579,0 -1.049,0.47 -1.049,1.05 C -1.049,-0.47 -0.579,0 0,0"
             style="fill:#009fe3;fill-opacity:1;fill-rule:evenodd;stroke:none"
             id="path10359" /></g><g
           id="g10361"
           transform="translate(7.8515,36.2375)"><path
             d="m 0,0 c 0.579,0 1.049,-0.47 1.049,-1.048 0,-0.58 -0.47,-1.05 -1.049,-1.05 -0.579,0 -1.049,0.47 -1.049,1.05 C -1.049,-0.47 -0.579,0 0,0"
             style="fill:#009fe3;fill-opacity:1;fill-rule:evenodd;stroke:none"
             id="path10363" /></g><g
           id="g10365"
           transform="translate(4.4502,36.2375)"><path
             d="m 0,0 c 0.579,0 1.049,-0.47 1.049,-1.048 0,-0.58 -0.47,-1.05 -1.049,-1.05 -0.579,0 -1.049,0.47 -1.049,1.05 C -1.049,-0.47 -0.579,0 0,0"
             style="fill:#009fe3;fill-opacity:1;fill-rule:evenodd;stroke:none"
             id="path10367" /></g><g
           id="g10369"
           transform="translate(1.0488,36.2375)"><path
             d="m 0,0 c 0.579,0 1.048,-0.47 1.048,-1.048 0,-0.58 -0.469,-1.05 -1.048,-1.05 -0.579,0 -1.049,0.47 -1.049,1.05 C -1.049,-0.47 -0.579,0 0,0"
             style="fill:#009fe3;fill-opacity:1;fill-rule:evenodd;stroke:none"
             id="path10371" /></g><g
           id="g10373"
           transform="translate(38.5342,8.0754)"><path
             d="m 0,0 c 0.579,0 1.049,-0.471 1.049,-1.049 0,-0.58 -0.47,-1.049 -1.049,-1.049 -0.579,0 -1.049,0.469 -1.049,1.049 C -1.049,-0.471 -0.579,0 0,0"
             style="fill:#099cd8;fill-opacity:1;fill-rule:evenodd;stroke:none"
             id="path10375" /></g><g
           id="g10377"
           transform="translate(35.1328,8.0754)"><path
             d="m 0,0 c 0.579,0 1.048,-0.471 1.048,-1.049 0,-0.58 -0.469,-1.049 -1.048,-1.049 -0.579,0 -1.049,0.469 -1.049,1.049 C -1.049,-0.471 -0.579,0 0,0"
             style="fill:#099cd8;fill-opacity:1;fill-rule:evenodd;stroke:none"
             id="path10379" /></g><text
           transform="matrix(1,0,0,-1,40.8698,44.4247)"
           style="font-variant:normal;font-weight:normal;font-stretch:semi-condensed;font-size:6.9997px;font-family:'Arial Narrow';-inkscape-font-specification:ArialNarrow;writing-mode:lr-tb;fill:#e30613;fill-opacity:1;fill-rule:nonzero;stroke:none"
           id="text10383"><tspan
             x="0 3.1918633 4.7877946 7.9796581"
             y="0"
             sodipodi:role="line"
             id="tspan10381">0.37</tspan></text></g></g><text
       transform="matrix(1,0,0,-1,16.1431,23.3735)"
       style="font-variant:normal;font-weight:normal;font-stretch:semi-condensed;font-size:6.9997px;font-family:'Arial Narrow';-inkscape-font-specification:ArialNarrow;writing-mode:lr-tb;fill:#e30613;fill-opacity:1;fill-rule:nonzero;stroke:none"
       id="text10387"><tspan
         x="0 3.1918633 4.7877946 7.9796581 9.5755892 11.486507 15.63033 19.774153"
         y="0"
         sodipodi:role="line"
         id="tspan10385">0.6 (CC)</tspan></text><g
       id="g10389"><g
         id="g10391"
         clip-path="url(#clipPath10395)"><g
           id="g10397"
           transform="translate(45.2695,37.5491)"><path
             d="M 0,0 V 4.842"
             style="fill:none;stroke:#e30613;stroke-width:0.283;stroke-linecap:butt;stroke-linejoin:miter;stroke-miterlimit:22.926;stroke-dasharray:none;stroke-opacity:1"
             id="path10399" /></g><g
           id="g10401"
           transform="translate(18.0566,29.9016)"><path
             d="M 0,0 V 3.355"
             style="fill:none;stroke:#e30613;stroke-width:0.283;stroke-linecap:butt;stroke-linejoin:miter;stroke-miterlimit:22.926;stroke-dasharray:none;stroke-opacity:1"
             id="path10403" /></g><g
           id="g10405"
           transform="translate(21.458,29.9016)"><path
             d="M 0,0 V 3.355"
             style="fill:none;stroke:#e30613;stroke-width:0.283;stroke-linecap:butt;stroke-linejoin:miter;stroke-miterlimit:22.926;stroke-dasharray:none;stroke-opacity:1"
             id="path10407" /></g><text
           transform="matrix(1,0,0,-1,35.2767,44.4251)"
           style="font-variant:normal;font-weight:normal;font-stretch:normal;font-size:6.9997px;font-family:Arial;-inkscape-font-specification:ArialMT;writing-mode:lr-tb;fill:#e30613;fill-opacity:1;fill-rule:nonzero;stroke:none"
           id="text10411"><tspan
             x="0"
             y="0"
             id="tspan10409">ø</tspan></text></g></g><text
       transform="matrix(1,0,0,-1,17.1092,5.3871)"
       style="font-variant:normal;font-weight:normal;font-stretch:semi-condensed;font-size:6.9997px;font-family:'Arial Narrow';-inkscape-font-specification:ArialNarrow;writing-mode:lr-tb;fill:#e30613;fill-opacity:1;fill-rule:nonzero;stroke:none"
       id="text10415"><tspan
         x="0 4.7807951 6.0547404 9.246604"
         y="0"
         sodipodi:role="line"
         id="tspan10413">min.</tspan></text><g
       id="g10417"><g
         id="g10419"
         clip-path="url(#clipPath10423)"><path
           d="m 9.922,14.74 h 36.85 V 0.567 H 9.922 Z"
           style="fill:none;stroke:#312783;stroke-width:1.134;stroke-linecap:butt;stroke-linejoin:miter;stroke-miterlimit:22.926;stroke-dasharray:none;stroke-opacity:1"
           id="path10425" /></g></g></g></svg>
