<?xml version="1.0" encoding="UTF-8" standalone="no"?>
<!-- Created with Inkscape (http://www.inkscape.org/) -->

<svg
   version="1.1"
   id="svg242"
   xml:space="preserve"
   width="69.217865"
   height="52.454399"
   viewBox="0 0 69.217865 52.454399"
   sodipodi:docname="ISSprOM 312 Spring.svg"
   inkscape:version="1.1.1 (3bf5ae0d25, 2021-09-20)"
   xmlns:inkscape="http://www.inkscape.org/namespaces/inkscape"
   xmlns:sodipodi="http://sodipodi.sourceforge.net/DTD/sodipodi-0.dtd"
   xmlns="http://www.w3.org/2000/svg"
   xmlns:svg="http://www.w3.org/2000/svg"><defs
     id="defs246"><clipPath
       clipPathUnits="userSpaceOnUse"
       id="clipPath256"><path
         d="M 0,39.341 H 51.913 V 0 H 0 Z"
         id="path254" /></clipPath><clipPath
       clipPathUnits="userSpaceOnUse"
       id="clipPath294"><path
         d="M 0,39.341 H 51.913 V 0 H 0 Z"
         id="path292" /></clipPath></defs><sodipodi:namedview
     id="namedview244"
     pagecolor="#ffffff"
     bordercolor="#666666"
     borderopacity="1.0"
     inkscape:pageshadow="2"
     inkscape:pageopacity="0.0"
     inkscape:pagecheckerboard="0"
     showgrid="false"
     inkscape:zoom="15.918589"
     inkscape:cx="34.582212"
     inkscape:cy="26.2272"
     inkscape:window-width="1920"
     inkscape:window-height="1017"
     inkscape:window-x="-8"
     inkscape:window-y="-8"
     inkscape:window-maximized="1"
     inkscape:current-layer="g248" /><g
     id="g248"
     inkscape:groupmode="layer"
     inkscape:label="ISSprOM 312 Spring"
     transform="matrix(1.3333333,0,0,-1.3333333,0,52.4544)"><g
       id="g250"><g
         id="g252"
         clip-path="url(#clipPath256)"><g
           id="g258"
           transform="translate(39.8514,13.1487)"><path
             d="m 0,0 c -4.605,-3.648 -8.07,-2.85 -10.447,-4.662 -2.377,-1.814 -3.01,-4.918 -4.911,-5.393 -1.901,-0.475 -4.039,0.554 -4.752,2.455 -0.713,1.901 -1.03,4.594 -2.614,4.356 -1.584,-0.237 -2.534,-1.11 -4.039,-2.059 -1.505,-0.951 -2.93,-1.664 -4.356,-0.951 -1.425,0.713 -3.326,1.426 -4.831,0.713 -1.505,-0.713 -3.643,-1.742 -3.643,-1.742"
             style="fill:none;stroke:#009fe3;stroke-width:1.191;stroke-linecap:butt;stroke-linejoin:miter;stroke-miterlimit:22.926;stroke-dasharray:none;stroke-opacity:1"
             id="path260" /></g><g
           id="g262"
           transform="translate(38.827,15.6096)"><path
             d="M 0,0 C 1.284,0.75 2.933,0.316 3.683,-0.968 4.433,-2.252 3.999,-3.902 2.715,-4.652"
             style="fill:none;stroke:#009fe3;stroke-width:1.417;stroke-linecap:butt;stroke-linejoin:miter;stroke-miterlimit:22.926;stroke-dasharray:none;stroke-opacity:1"
             id="path264" /></g><g
           id="g266"
           transform="translate(10.3802,23.8303)"><path
             d="m 0,0 c -1.876,0 -3.401,1.525 -3.401,3.401 h 1.417 c 0,-1.094 0.89,-1.984 1.984,-1.984 1.094,0 1.984,0.89 1.984,1.984 H 3.401 C 3.401,1.525 1.876,0 0,0"
             style="fill:#009fe3;fill-opacity:1;fill-rule:nonzero;stroke:none"
             id="path268" /></g><text
           transform="matrix(1,0,0,-1,40.741,2.1465)"
           style="font-variant:normal;font-weight:normal;font-stretch:semi-condensed;font-size:6.9997px;font-family:'Arial Narrow';-inkscape-font-specification:ArialNarrow;writing-mode:lr-tb;fill:#e30613;fill-opacity:1;fill-rule:nonzero;stroke:none"
           id="text274"><tspan
             x="0 3.1918633 4.7877946 7.9796581"
             y="0"
             sodipodi:role="line"
             id="tspan270">0.25</tspan><tspan
             x="-34.921505 -31.729641 -30.133709 -26.941845 -25.345913 -23.434996 -18.969187 -14.188392"
             y="-31.190662"
             sodipodi:role="line"
             id="tspan272">1.2 (OM)</tspan></text><g
           id="g276"
           transform="translate(6.9789,28.3479)"><path
             d="M 0,0 V 3.313"
             style="fill:none;stroke:#e30613;stroke-width:0.283;stroke-linecap:butt;stroke-linejoin:miter;stroke-miterlimit:22.926;stroke-dasharray:none;stroke-opacity:1"
             id="path278" /></g><g
           id="g280"
           transform="translate(13.7811,28.3479)"><path
             d="M 0,0 V 3.313"
             style="fill:none;stroke:#e30613;stroke-width:0.283;stroke-linecap:butt;stroke-linejoin:miter;stroke-miterlimit:22.926;stroke-dasharray:none;stroke-opacity:1"
             id="path282" /></g></g></g><text
       transform="matrix(1,0,0,-1,19.8203,23.1635)"
       style="font-variant:normal;font-weight:normal;font-stretch:semi-condensed;font-size:6.9997px;font-family:'Arial Narrow';-inkscape-font-specification:ArialNarrow;writing-mode:lr-tb;fill:#e30613;fill-opacity:1;fill-rule:nonzero;stroke:none"
       id="text286"><tspan
         x="0 3.1918633 4.7877946 7.9796581 9.5755892 11.486507 15.952316 20.733112"
         y="0"
         sodipodi:role="line"
         id="tspan284">0.6 (OM)</tspan></text><g
       id="g288"><g
         id="g290"
         clip-path="url(#clipPath294)"><g
           id="g296"
           transform="translate(18.4647,27.2317)"><path
             d="M 0,0 H -3.308"
             style="fill:none;stroke:#e30613;stroke-width:0.283;stroke-linecap:butt;stroke-linejoin:miter;stroke-miterlimit:22.926;stroke-dasharray:none;stroke-opacity:1"
             id="path298" /></g><g
           id="g300"
           transform="translate(18.4647,23.8303)"><path
             d="M 0,0 H -3.308"
             style="fill:none;stroke:#e30613;stroke-width:0.283;stroke-linecap:butt;stroke-linejoin:miter;stroke-miterlimit:22.926;stroke-dasharray:none;stroke-opacity:1"
             id="path302" /></g></g></g></g></svg>
