<?xml version="1.0" encoding="UTF-8" standalone="no"?>
<!-- Created with Inkscape (http://www.inkscape.org/) -->

<svg
   version="1.1"
   id="svg577"
   xml:space="preserve"
   width="96.701736"
   height="94.298935"
   viewBox="0 0 96.701736 94.298935"
   sodipodi:docname="ISSprOM 412 Cultivated land.svg"
   inkscape:version="1.1.1 (3bf5ae0d25, 2021-09-20)"
   xmlns:inkscape="http://www.inkscape.org/namespaces/inkscape"
   xmlns:sodipodi="http://sodipodi.sourceforge.net/DTD/sodipodi-0.dtd"
   xmlns="http://www.w3.org/2000/svg"
   xmlns:svg="http://www.w3.org/2000/svg"><defs
     id="defs581"><clipPath
       clipPathUnits="userSpaceOnUse"
       id="clipPath593"><path
         d="M 0,70.724 H 72.526 V 0 H 0 Z"
         id="path591" /></clipPath><clipPath
       clipPathUnits="userSpaceOnUse"
       id="clipPath1035"><path
         d="M 10.462,40.961 H 23.648 V 70.724 H 10.462 Z"
         id="path1033" /></clipPath><clipPath
       clipPathUnits="userSpaceOnUse"
       id="clipPath1123"><path
         d="M 0,70.724 H 72.526 V 0 H 0 Z"
         id="path1121" /></clipPath><clipPath
       clipPathUnits="userSpaceOnUse"
       id="clipPath1147"><path
         d="M 0,70.724 H 72.526 V 0 H 0 Z"
         id="path1145" /></clipPath></defs><sodipodi:namedview
     id="namedview579"
     pagecolor="#ffffff"
     bordercolor="#666666"
     borderopacity="1.0"
     inkscape:pageshadow="2"
     inkscape:pageopacity="0.0"
     inkscape:pagecheckerboard="0"
     showgrid="false"
     inkscape:zoom="8.854819"
     inkscape:cx="48.391729"
     inkscape:cy="47.149467"
     inkscape:window-width="1920"
     inkscape:window-height="1017"
     inkscape:window-x="-8"
     inkscape:window-y="-8"
     inkscape:window-maximized="1"
     inkscape:current-layer="g583" /><g
     id="g583"
     inkscape:groupmode="layer"
     inkscape:label="ISSprOM 412 Cultivated land"
     transform="matrix(1.3333333,0,0,-1.3333333,0,94.298933)"><path
       d="M 10.462,40.961 H 67.156 V 70.724 H 10.462 Z"
       style="fill:#fcc246;fill-opacity:1;fill-rule:nonzero;stroke:none"
       id="path585" /><g
       id="g587"><g
         id="g589"
         clip-path="url(#clipPath593)"><g
           id="g595"
           transform="translate(11.7832,70.0152)"><path
             d="m 0,0 c 0.313,0 0.567,-0.254 0.567,-0.567 0,-0.312 -0.254,-0.567 -0.567,-0.567 -0.312,0 -0.566,0.255 -0.566,0.567 C -0.566,-0.254 -0.312,0 0,0"
             style="fill:#1d1d1b;fill-opacity:1;fill-rule:evenodd;stroke:none"
             id="path597" /></g><g
           id="g599"
           transform="translate(11.7832,65.4791)"><path
             d="m 0,0 c 0.313,0 0.567,-0.253 0.567,-0.566 0,-0.313 -0.254,-0.568 -0.567,-0.568 -0.312,0 -0.566,0.255 -0.566,0.568 C -0.566,-0.253 -0.312,0 0,0"
             style="fill:#1d1d1b;fill-opacity:1;fill-rule:evenodd;stroke:none"
             id="path601" /></g><g
           id="g603"
           transform="translate(11.7832,60.9449)"><path
             d="m 0,0 c 0.313,0 0.567,-0.255 0.567,-0.567 0,-0.314 -0.254,-0.567 -0.567,-0.567 -0.312,0 -0.566,0.253 -0.566,0.567 C -0.566,-0.255 -0.312,0 0,0"
             style="fill:#1d1d1b;fill-opacity:1;fill-rule:evenodd;stroke:none"
             id="path605" /></g><g
           id="g607"
           transform="translate(11.7832,56.4088)"><path
             d="M 0,0 C 0.313,0 0.567,-0.253 0.567,-0.566 0.567,-0.88 0.313,-1.134 0,-1.134 c -0.312,0 -0.566,0.254 -0.566,0.568 C -0.566,-0.253 -0.312,0 0,0"
             style="fill:#1d1d1b;fill-opacity:1;fill-rule:evenodd;stroke:none"
             id="path609" /></g><g
           id="g611"
           transform="translate(11.7832,51.8736)"><path
             d="m 0,0 c 0.313,0 0.567,-0.254 0.567,-0.567 0,-0.312 -0.254,-0.567 -0.567,-0.567 -0.312,0 -0.566,0.255 -0.566,0.567 C -0.566,-0.254 -0.312,0 0,0"
             style="fill:#1d1d1b;fill-opacity:1;fill-rule:evenodd;stroke:none"
             id="path613" /></g><g
           id="g615"
           transform="translate(11.7832,47.3385)"><path
             d="M 0,0 C 0.313,0 0.567,-0.254 0.567,-0.566 0.567,-0.88 0.313,-1.135 0,-1.135 c -0.312,0 -0.566,0.255 -0.566,0.569 C -0.566,-0.254 -0.312,0 0,0"
             style="fill:#1d1d1b;fill-opacity:1;fill-rule:evenodd;stroke:none"
             id="path617" /></g><g
           id="g619"
           transform="translate(11.7832,42.8033)"><path
             d="M 0,0 C 0.313,0 0.567,-0.255 0.567,-0.567 0.567,-0.88 0.313,-1.134 0,-1.134 c -0.312,0 -0.566,0.254 -0.566,0.567 C -0.566,-0.255 -0.312,0 0,0"
             style="fill:#1d1d1b;fill-opacity:1;fill-rule:evenodd;stroke:none"
             id="path621" /></g><g
           id="g623"
           transform="translate(16.3183,70.0152)"><path
             d="m 0,0 c 0.314,0 0.567,-0.254 0.567,-0.567 0,-0.312 -0.253,-0.567 -0.567,-0.567 -0.312,0 -0.566,0.255 -0.566,0.567 C -0.566,-0.254 -0.312,0 0,0"
             style="fill:#1d1d1b;fill-opacity:1;fill-rule:evenodd;stroke:none"
             id="path625" /></g><g
           id="g627"
           transform="translate(16.3183,65.4791)"><path
             d="m 0,0 c 0.314,0 0.567,-0.253 0.567,-0.566 0,-0.313 -0.253,-0.568 -0.567,-0.568 -0.312,0 -0.566,0.255 -0.566,0.568 C -0.566,-0.253 -0.312,0 0,0"
             style="fill:#1d1d1b;fill-opacity:1;fill-rule:evenodd;stroke:none"
             id="path629" /></g><g
           id="g631"
           transform="translate(16.3183,60.9449)"><path
             d="m 0,0 c 0.314,0 0.567,-0.255 0.567,-0.567 0,-0.314 -0.253,-0.567 -0.567,-0.567 -0.312,0 -0.566,0.253 -0.566,0.567 C -0.566,-0.255 -0.312,0 0,0"
             style="fill:#1d1d1b;fill-opacity:1;fill-rule:evenodd;stroke:none"
             id="path633" /></g><g
           id="g635"
           transform="translate(16.3183,56.4088)"><path
             d="M 0,0 C 0.314,0 0.567,-0.253 0.567,-0.566 0.567,-0.88 0.314,-1.134 0,-1.134 c -0.312,0 -0.566,0.254 -0.566,0.568 C -0.566,-0.253 -0.312,0 0,0"
             style="fill:#1d1d1b;fill-opacity:1;fill-rule:evenodd;stroke:none"
             id="path637" /></g><g
           id="g639"
           transform="translate(16.3183,51.8736)"><path
             d="m 0,0 c 0.314,0 0.567,-0.254 0.567,-0.567 0,-0.312 -0.253,-0.567 -0.567,-0.567 -0.312,0 -0.566,0.255 -0.566,0.567 C -0.566,-0.254 -0.312,0 0,0"
             style="fill:#1d1d1b;fill-opacity:1;fill-rule:evenodd;stroke:none"
             id="path641" /></g><g
           id="g643"
           transform="translate(16.3183,47.3385)"><path
             d="M 0,0 C 0.314,0 0.567,-0.254 0.567,-0.566 0.567,-0.88 0.314,-1.135 0,-1.135 c -0.312,0 -0.566,0.255 -0.566,0.569 C -0.566,-0.254 -0.312,0 0,0"
             style="fill:#1d1d1b;fill-opacity:1;fill-rule:evenodd;stroke:none"
             id="path645" /></g><g
           id="g647"
           transform="translate(16.3183,42.8033)"><path
             d="M 0,0 C 0.314,0 0.567,-0.255 0.567,-0.567 0.567,-0.88 0.314,-1.134 0,-1.134 c -0.312,0 -0.566,0.254 -0.566,0.567 C -0.566,-0.255 -0.312,0 0,0"
             style="fill:#1d1d1b;fill-opacity:1;fill-rule:evenodd;stroke:none"
             id="path649" /></g><g
           id="g651"
           transform="translate(20.8544,70.0152)"><path
             d="m 0,0 c 0.312,0 0.566,-0.254 0.566,-0.567 0,-0.312 -0.254,-0.567 -0.566,-0.567 -0.313,0 -0.567,0.255 -0.567,0.567 C -0.567,-0.254 -0.313,0 0,0"
             style="fill:#1d1d1b;fill-opacity:1;fill-rule:evenodd;stroke:none"
             id="path653" /></g><g
           id="g655"
           transform="translate(20.8544,65.4791)"><path
             d="m 0,0 c 0.312,0 0.566,-0.253 0.566,-0.566 0,-0.313 -0.254,-0.568 -0.566,-0.568 -0.313,0 -0.567,0.255 -0.567,0.568 C -0.567,-0.253 -0.313,0 0,0"
             style="fill:#1d1d1b;fill-opacity:1;fill-rule:evenodd;stroke:none"
             id="path657" /></g><g
           id="g659"
           transform="translate(20.8544,60.9449)"><path
             d="m 0,0 c 0.312,0 0.566,-0.255 0.566,-0.567 0,-0.314 -0.254,-0.567 -0.566,-0.567 -0.313,0 -0.567,0.253 -0.567,0.567 C -0.567,-0.255 -0.313,0 0,0"
             style="fill:#1d1d1b;fill-opacity:1;fill-rule:evenodd;stroke:none"
             id="path661" /></g><g
           id="g663"
           transform="translate(20.8544,56.4088)"><path
             d="M 0,0 C 0.312,0 0.566,-0.253 0.566,-0.566 0.566,-0.88 0.312,-1.134 0,-1.134 c -0.313,0 -0.567,0.254 -0.567,0.568 C -0.567,-0.253 -0.313,0 0,0"
             style="fill:#1d1d1b;fill-opacity:1;fill-rule:evenodd;stroke:none"
             id="path665" /></g><g
           id="g667"
           transform="translate(20.8544,51.8736)"><path
             d="m 0,0 c 0.312,0 0.566,-0.254 0.566,-0.567 0,-0.312 -0.254,-0.567 -0.566,-0.567 -0.313,0 -0.567,0.255 -0.567,0.567 C -0.567,-0.254 -0.313,0 0,0"
             style="fill:#1d1d1b;fill-opacity:1;fill-rule:evenodd;stroke:none"
             id="path669" /></g><g
           id="g671"
           transform="translate(20.8544,47.3385)"><path
             d="M 0,0 C 0.312,0 0.566,-0.254 0.566,-0.566 0.566,-0.88 0.312,-1.135 0,-1.135 c -0.313,0 -0.567,0.255 -0.567,0.569 C -0.567,-0.254 -0.313,0 0,0"
             style="fill:#1d1d1b;fill-opacity:1;fill-rule:evenodd;stroke:none"
             id="path673" /></g><g
           id="g675"
           transform="translate(20.8544,42.8033)"><path
             d="M 0,0 C 0.312,0 0.566,-0.255 0.566,-0.567 0.566,-0.88 0.312,-1.134 0,-1.134 c -0.313,0 -0.567,0.254 -0.567,0.567 C -0.567,-0.255 -0.313,0 0,0"
             style="fill:#1d1d1b;fill-opacity:1;fill-rule:evenodd;stroke:none"
             id="path677" /></g><g
           id="g679"
           transform="translate(25.3896,70.0152)"><path
             d="m 0,0 c 0.312,0 0.566,-0.254 0.566,-0.567 0,-0.312 -0.254,-0.567 -0.566,-0.567 -0.312,0 -0.567,0.255 -0.567,0.567 C -0.567,-0.254 -0.312,0 0,0"
             style="fill:#1d1d1b;fill-opacity:1;fill-rule:evenodd;stroke:none"
             id="path681" /></g><g
           id="g683"
           transform="translate(25.3896,65.4791)"><path
             d="m 0,0 c 0.312,0 0.566,-0.253 0.566,-0.566 0,-0.313 -0.254,-0.568 -0.566,-0.568 -0.312,0 -0.567,0.255 -0.567,0.568 C -0.567,-0.253 -0.312,0 0,0"
             style="fill:#1d1d1b;fill-opacity:1;fill-rule:evenodd;stroke:none"
             id="path685" /></g><g
           id="g687"
           transform="translate(25.3896,60.9449)"><path
             d="m 0,0 c 0.312,0 0.566,-0.255 0.566,-0.567 0,-0.314 -0.254,-0.567 -0.566,-0.567 -0.312,0 -0.567,0.253 -0.567,0.567 C -0.567,-0.255 -0.312,0 0,0"
             style="fill:#1d1d1b;fill-opacity:1;fill-rule:evenodd;stroke:none"
             id="path689" /></g><g
           id="g691"
           transform="translate(25.3896,56.4088)"><path
             d="M 0,0 C 0.312,0 0.566,-0.253 0.566,-0.566 0.566,-0.88 0.312,-1.134 0,-1.134 c -0.312,0 -0.567,0.254 -0.567,0.568 C -0.567,-0.253 -0.312,0 0,0"
             style="fill:#1d1d1b;fill-opacity:1;fill-rule:evenodd;stroke:none"
             id="path693" /></g><g
           id="g695"
           transform="translate(25.3896,51.8736)"><path
             d="m 0,0 c 0.312,0 0.566,-0.254 0.566,-0.567 0,-0.312 -0.254,-0.567 -0.566,-0.567 -0.312,0 -0.567,0.255 -0.567,0.567 C -0.567,-0.254 -0.312,0 0,0"
             style="fill:#1d1d1b;fill-opacity:1;fill-rule:evenodd;stroke:none"
             id="path697" /></g><g
           id="g699"
           transform="translate(25.3896,47.3385)"><path
             d="M 0,0 C 0.312,0 0.566,-0.254 0.566,-0.566 0.566,-0.88 0.312,-1.135 0,-1.135 c -0.312,0 -0.567,0.255 -0.567,0.569 C -0.567,-0.254 -0.312,0 0,0"
             style="fill:#1d1d1b;fill-opacity:1;fill-rule:evenodd;stroke:none"
             id="path701" /></g><g
           id="g703"
           transform="translate(25.3896,42.8033)"><path
             d="M 0,0 C 0.312,0 0.566,-0.255 0.566,-0.567 0.566,-0.88 0.312,-1.134 0,-1.134 c -0.312,0 -0.567,0.254 -0.567,0.567 C -0.567,-0.255 -0.312,0 0,0"
             style="fill:#1d1d1b;fill-opacity:1;fill-rule:evenodd;stroke:none"
             id="path705" /></g><g
           id="g707"
           transform="translate(29.9248,70.0152)"><path
             d="m 0,0 c 0.313,0 0.567,-0.254 0.567,-0.567 0,-0.312 -0.254,-0.567 -0.567,-0.567 -0.312,0 -0.566,0.255 -0.566,0.567 C -0.566,-0.254 -0.312,0 0,0"
             style="fill:#1d1d1b;fill-opacity:1;fill-rule:evenodd;stroke:none"
             id="path709" /></g><g
           id="g711"
           transform="translate(29.9248,65.4791)"><path
             d="m 0,0 c 0.313,0 0.567,-0.253 0.567,-0.566 0,-0.313 -0.254,-0.568 -0.567,-0.568 -0.312,0 -0.566,0.255 -0.566,0.568 C -0.566,-0.253 -0.312,0 0,0"
             style="fill:#1d1d1b;fill-opacity:1;fill-rule:evenodd;stroke:none"
             id="path713" /></g><g
           id="g715"
           transform="translate(29.9248,60.9449)"><path
             d="m 0,0 c 0.313,0 0.567,-0.255 0.567,-0.567 0,-0.314 -0.254,-0.567 -0.567,-0.567 -0.312,0 -0.566,0.253 -0.566,0.567 C -0.566,-0.255 -0.312,0 0,0"
             style="fill:#1d1d1b;fill-opacity:1;fill-rule:evenodd;stroke:none"
             id="path717" /></g><g
           id="g719"
           transform="translate(29.9248,56.4088)"><path
             d="M 0,0 C 0.313,0 0.567,-0.253 0.567,-0.566 0.567,-0.88 0.313,-1.134 0,-1.134 c -0.312,0 -0.566,0.254 -0.566,0.568 C -0.566,-0.253 -0.312,0 0,0"
             style="fill:#1d1d1b;fill-opacity:1;fill-rule:evenodd;stroke:none"
             id="path721" /></g><g
           id="g723"
           transform="translate(29.9248,51.8736)"><path
             d="m 0,0 c 0.313,0 0.567,-0.254 0.567,-0.567 0,-0.312 -0.254,-0.567 -0.567,-0.567 -0.312,0 -0.566,0.255 -0.566,0.567 C -0.566,-0.254 -0.312,0 0,0"
             style="fill:#1d1d1b;fill-opacity:1;fill-rule:evenodd;stroke:none"
             id="path725" /></g><g
           id="g727"
           transform="translate(29.9248,47.3385)"><path
             d="M 0,0 C 0.313,0 0.567,-0.254 0.567,-0.566 0.567,-0.88 0.313,-1.135 0,-1.135 c -0.312,0 -0.566,0.255 -0.566,0.569 C -0.566,-0.254 -0.312,0 0,0"
             style="fill:#1d1d1b;fill-opacity:1;fill-rule:evenodd;stroke:none"
             id="path729" /></g><g
           id="g731"
           transform="translate(29.9248,42.8033)"><path
             d="M 0,0 C 0.313,0 0.567,-0.255 0.567,-0.567 0.567,-0.88 0.313,-1.134 0,-1.134 c -0.312,0 -0.566,0.254 -0.566,0.567 C -0.566,-0.255 -0.312,0 0,0"
             style="fill:#1d1d1b;fill-opacity:1;fill-rule:evenodd;stroke:none"
             id="path733" /></g><g
           id="g735"
           transform="translate(34.4609,70.0152)"><path
             d="m 0,0 c 0.313,0 0.566,-0.254 0.566,-0.567 0,-0.312 -0.253,-0.567 -0.566,-0.567 -0.313,0 -0.567,0.255 -0.567,0.567 C -0.567,-0.254 -0.313,0 0,0"
             style="fill:#1d1d1b;fill-opacity:1;fill-rule:evenodd;stroke:none"
             id="path737" /></g><g
           id="g739"
           transform="translate(34.4609,65.4791)"><path
             d="m 0,0 c 0.313,0 0.566,-0.253 0.566,-0.566 0,-0.313 -0.253,-0.568 -0.566,-0.568 -0.313,0 -0.567,0.255 -0.567,0.568 C -0.567,-0.253 -0.313,0 0,0"
             style="fill:#1d1d1b;fill-opacity:1;fill-rule:evenodd;stroke:none"
             id="path741" /></g><g
           id="g743"
           transform="translate(34.4609,60.9449)"><path
             d="m 0,0 c 0.313,0 0.566,-0.255 0.566,-0.567 0,-0.314 -0.253,-0.567 -0.566,-0.567 -0.313,0 -0.567,0.253 -0.567,0.567 C -0.567,-0.255 -0.313,0 0,0"
             style="fill:#1d1d1b;fill-opacity:1;fill-rule:evenodd;stroke:none"
             id="path745" /></g><g
           id="g747"
           transform="translate(34.4609,56.4088)"><path
             d="M 0,0 C 0.313,0 0.566,-0.253 0.566,-0.566 0.566,-0.88 0.313,-1.134 0,-1.134 c -0.313,0 -0.567,0.254 -0.567,0.568 C -0.567,-0.253 -0.313,0 0,0"
             style="fill:#1d1d1b;fill-opacity:1;fill-rule:evenodd;stroke:none"
             id="path749" /></g><g
           id="g751"
           transform="translate(34.4609,51.8736)"><path
             d="m 0,0 c 0.313,0 0.566,-0.254 0.566,-0.567 0,-0.312 -0.253,-0.567 -0.566,-0.567 -0.313,0 -0.567,0.255 -0.567,0.567 C -0.567,-0.254 -0.313,0 0,0"
             style="fill:#1d1d1b;fill-opacity:1;fill-rule:evenodd;stroke:none"
             id="path753" /></g><g
           id="g755"
           transform="translate(34.4609,47.3385)"><path
             d="M 0,0 C 0.313,0 0.566,-0.254 0.566,-0.566 0.566,-0.88 0.313,-1.135 0,-1.135 c -0.313,0 -0.567,0.255 -0.567,0.569 C -0.567,-0.254 -0.313,0 0,0"
             style="fill:#1d1d1b;fill-opacity:1;fill-rule:evenodd;stroke:none"
             id="path757" /></g><g
           id="g759"
           transform="translate(34.4609,42.8033)"><path
             d="M 0,0 C 0.313,0 0.566,-0.255 0.566,-0.567 0.566,-0.88 0.313,-1.134 0,-1.134 c -0.313,0 -0.567,0.254 -0.567,0.567 C -0.567,-0.255 -0.313,0 0,0"
             style="fill:#1d1d1b;fill-opacity:1;fill-rule:evenodd;stroke:none"
             id="path761" /></g><g
           id="g763"
           transform="translate(38.996,70.0152)"><path
             d="m 0,0 c 0.312,0 0.566,-0.254 0.566,-0.567 0,-0.312 -0.254,-0.567 -0.566,-0.567 -0.312,0 -0.567,0.255 -0.567,0.567 C -0.567,-0.254 -0.312,0 0,0"
             style="fill:#1d1d1b;fill-opacity:1;fill-rule:evenodd;stroke:none"
             id="path765" /></g><g
           id="g767"
           transform="translate(38.996,65.4791)"><path
             d="m 0,0 c 0.312,0 0.566,-0.253 0.566,-0.566 0,-0.313 -0.254,-0.568 -0.566,-0.568 -0.312,0 -0.567,0.255 -0.567,0.568 C -0.567,-0.253 -0.312,0 0,0"
             style="fill:#1d1d1b;fill-opacity:1;fill-rule:evenodd;stroke:none"
             id="path769" /></g><g
           id="g771"
           transform="translate(38.996,60.9449)"><path
             d="m 0,0 c 0.312,0 0.566,-0.255 0.566,-0.567 0,-0.314 -0.254,-0.567 -0.566,-0.567 -0.312,0 -0.567,0.253 -0.567,0.567 C -0.567,-0.255 -0.312,0 0,0"
             style="fill:#1d1d1b;fill-opacity:1;fill-rule:evenodd;stroke:none"
             id="path773" /></g><g
           id="g775"
           transform="translate(38.996,56.4088)"><path
             d="M 0,0 C 0.312,0 0.566,-0.253 0.566,-0.566 0.566,-0.88 0.312,-1.134 0,-1.134 c -0.312,0 -0.567,0.254 -0.567,0.568 C -0.567,-0.253 -0.312,0 0,0"
             style="fill:#1d1d1b;fill-opacity:1;fill-rule:evenodd;stroke:none"
             id="path777" /></g><g
           id="g779"
           transform="translate(38.996,51.8736)"><path
             d="m 0,0 c 0.312,0 0.566,-0.254 0.566,-0.567 0,-0.312 -0.254,-0.567 -0.566,-0.567 -0.312,0 -0.567,0.255 -0.567,0.567 C -0.567,-0.254 -0.312,0 0,0"
             style="fill:#1d1d1b;fill-opacity:1;fill-rule:evenodd;stroke:none"
             id="path781" /></g><g
           id="g783"
           transform="translate(38.996,47.3385)"><path
             d="M 0,0 C 0.312,0 0.566,-0.254 0.566,-0.566 0.566,-0.88 0.312,-1.135 0,-1.135 c -0.312,0 -0.567,0.255 -0.567,0.569 C -0.567,-0.254 -0.312,0 0,0"
             style="fill:#1d1d1b;fill-opacity:1;fill-rule:evenodd;stroke:none"
             id="path785" /></g><g
           id="g787"
           transform="translate(38.996,42.8033)"><path
             d="M 0,0 C 0.312,0 0.566,-0.255 0.566,-0.567 0.566,-0.88 0.312,-1.134 0,-1.134 c -0.312,0 -0.567,0.254 -0.567,0.567 C -0.567,-0.255 -0.312,0 0,0"
             style="fill:#1d1d1b;fill-opacity:1;fill-rule:evenodd;stroke:none"
             id="path789" /></g><g
           id="g791"
           transform="translate(43.5312,70.0152)"><path
             d="m 0,0 c 0.313,0 0.566,-0.254 0.566,-0.567 0,-0.312 -0.253,-0.567 -0.566,-0.567 -0.312,0 -0.566,0.255 -0.566,0.567 C -0.566,-0.254 -0.312,0 0,0"
             style="fill:#1d1d1b;fill-opacity:1;fill-rule:evenodd;stroke:none"
             id="path793" /></g><g
           id="g795"
           transform="translate(43.5312,65.4791)"><path
             d="m 0,0 c 0.313,0 0.566,-0.253 0.566,-0.566 0,-0.313 -0.253,-0.568 -0.566,-0.568 -0.312,0 -0.566,0.255 -0.566,0.568 C -0.566,-0.253 -0.312,0 0,0"
             style="fill:#1d1d1b;fill-opacity:1;fill-rule:evenodd;stroke:none"
             id="path797" /></g><g
           id="g799"
           transform="translate(43.5312,60.9449)"><path
             d="m 0,0 c 0.313,0 0.566,-0.255 0.566,-0.567 0,-0.314 -0.253,-0.567 -0.566,-0.567 -0.312,0 -0.566,0.253 -0.566,0.567 C -0.566,-0.255 -0.312,0 0,0"
             style="fill:#1d1d1b;fill-opacity:1;fill-rule:evenodd;stroke:none"
             id="path801" /></g><g
           id="g803"
           transform="translate(43.5312,56.4088)"><path
             d="M 0,0 C 0.313,0 0.566,-0.253 0.566,-0.566 0.566,-0.88 0.313,-1.134 0,-1.134 c -0.312,0 -0.566,0.254 -0.566,0.568 C -0.566,-0.253 -0.312,0 0,0"
             style="fill:#1d1d1b;fill-opacity:1;fill-rule:evenodd;stroke:none"
             id="path805" /></g><g
           id="g807"
           transform="translate(43.5312,51.8736)"><path
             d="m 0,0 c 0.313,0 0.566,-0.254 0.566,-0.567 0,-0.312 -0.253,-0.567 -0.566,-0.567 -0.312,0 -0.566,0.255 -0.566,0.567 C -0.566,-0.254 -0.312,0 0,0"
             style="fill:#1d1d1b;fill-opacity:1;fill-rule:evenodd;stroke:none"
             id="path809" /></g><g
           id="g811"
           transform="translate(43.5312,47.3385)"><path
             d="M 0,0 C 0.313,0 0.566,-0.254 0.566,-0.566 0.566,-0.88 0.313,-1.135 0,-1.135 c -0.312,0 -0.566,0.255 -0.566,0.569 C -0.566,-0.254 -0.312,0 0,0"
             style="fill:#1d1d1b;fill-opacity:1;fill-rule:evenodd;stroke:none"
             id="path813" /></g><g
           id="g815"
           transform="translate(43.5312,42.8033)"><path
             d="M 0,0 C 0.313,0 0.566,-0.255 0.566,-0.567 0.566,-0.88 0.313,-1.134 0,-1.134 c -0.312,0 -0.566,0.254 -0.566,0.567 C -0.566,-0.255 -0.312,0 0,0"
             style="fill:#1d1d1b;fill-opacity:1;fill-rule:evenodd;stroke:none"
             id="path817" /></g><g
           id="g819"
           transform="translate(48.0673,70.0152)"><path
             d="m 0,0 c 0.312,0 0.566,-0.254 0.566,-0.567 0,-0.312 -0.254,-0.567 -0.566,-0.567 -0.313,0 -0.567,0.255 -0.567,0.567 C -0.567,-0.254 -0.313,0 0,0"
             style="fill:#1d1d1b;fill-opacity:1;fill-rule:evenodd;stroke:none"
             id="path821" /></g><g
           id="g823"
           transform="translate(48.0673,65.4791)"><path
             d="m 0,0 c 0.312,0 0.566,-0.253 0.566,-0.566 0,-0.313 -0.254,-0.568 -0.566,-0.568 -0.313,0 -0.567,0.255 -0.567,0.568 C -0.567,-0.253 -0.313,0 0,0"
             style="fill:#1d1d1b;fill-opacity:1;fill-rule:evenodd;stroke:none"
             id="path825" /></g><g
           id="g827"
           transform="translate(48.0673,60.9449)"><path
             d="m 0,0 c 0.312,0 0.566,-0.255 0.566,-0.567 0,-0.314 -0.254,-0.567 -0.566,-0.567 -0.313,0 -0.567,0.253 -0.567,0.567 C -0.567,-0.255 -0.313,0 0,0"
             style="fill:#1d1d1b;fill-opacity:1;fill-rule:evenodd;stroke:none"
             id="path829" /></g><g
           id="g831"
           transform="translate(48.0673,56.4088)"><path
             d="M 0,0 C 0.312,0 0.566,-0.253 0.566,-0.566 0.566,-0.88 0.312,-1.134 0,-1.134 c -0.313,0 -0.567,0.254 -0.567,0.568 C -0.567,-0.253 -0.313,0 0,0"
             style="fill:#1d1d1b;fill-opacity:1;fill-rule:evenodd;stroke:none"
             id="path833" /></g><g
           id="g835"
           transform="translate(48.0673,51.8736)"><path
             d="m 0,0 c 0.312,0 0.566,-0.254 0.566,-0.567 0,-0.312 -0.254,-0.567 -0.566,-0.567 -0.313,0 -0.567,0.255 -0.567,0.567 C -0.567,-0.254 -0.313,0 0,0"
             style="fill:#1d1d1b;fill-opacity:1;fill-rule:evenodd;stroke:none"
             id="path837" /></g><g
           id="g839"
           transform="translate(48.0673,47.3385)"><path
             d="M 0,0 C 0.312,0 0.566,-0.254 0.566,-0.566 0.566,-0.88 0.312,-1.135 0,-1.135 c -0.313,0 -0.567,0.255 -0.567,0.569 C -0.567,-0.254 -0.313,0 0,0"
             style="fill:#1d1d1b;fill-opacity:1;fill-rule:evenodd;stroke:none"
             id="path841" /></g><g
           id="g843"
           transform="translate(48.0673,42.8033)"><path
             d="M 0,0 C 0.312,0 0.566,-0.255 0.566,-0.567 0.566,-0.88 0.312,-1.134 0,-1.134 c -0.313,0 -0.567,0.254 -0.567,0.567 C -0.567,-0.255 -0.313,0 0,0"
             style="fill:#1d1d1b;fill-opacity:1;fill-rule:evenodd;stroke:none"
             id="path845" /></g><g
           id="g847"
           transform="translate(52.6025,70.0152)"><path
             d="m 0,0 c 0.312,0 0.566,-0.254 0.566,-0.567 0,-0.312 -0.254,-0.567 -0.566,-0.567 -0.312,0 -0.567,0.255 -0.567,0.567 C -0.567,-0.254 -0.312,0 0,0"
             style="fill:#1d1d1b;fill-opacity:1;fill-rule:evenodd;stroke:none"
             id="path849" /></g><g
           id="g851"
           transform="translate(52.6025,65.4791)"><path
             d="m 0,0 c 0.312,0 0.566,-0.253 0.566,-0.566 0,-0.313 -0.254,-0.568 -0.566,-0.568 -0.312,0 -0.567,0.255 -0.567,0.568 C -0.567,-0.253 -0.312,0 0,0"
             style="fill:#1d1d1b;fill-opacity:1;fill-rule:evenodd;stroke:none"
             id="path853" /></g><g
           id="g855"
           transform="translate(52.6025,60.9449)"><path
             d="m 0,0 c 0.312,0 0.566,-0.255 0.566,-0.567 0,-0.314 -0.254,-0.567 -0.566,-0.567 -0.312,0 -0.567,0.253 -0.567,0.567 C -0.567,-0.255 -0.312,0 0,0"
             style="fill:#1d1d1b;fill-opacity:1;fill-rule:evenodd;stroke:none"
             id="path857" /></g><g
           id="g859"
           transform="translate(52.6025,56.4088)"><path
             d="M 0,0 C 0.312,0 0.566,-0.253 0.566,-0.566 0.566,-0.88 0.312,-1.134 0,-1.134 c -0.312,0 -0.567,0.254 -0.567,0.568 C -0.567,-0.253 -0.312,0 0,0"
             style="fill:#1d1d1b;fill-opacity:1;fill-rule:evenodd;stroke:none"
             id="path861" /></g><g
           id="g863"
           transform="translate(52.6025,51.8736)"><path
             d="m 0,0 c 0.312,0 0.566,-0.254 0.566,-0.567 0,-0.312 -0.254,-0.567 -0.566,-0.567 -0.312,0 -0.567,0.255 -0.567,0.567 C -0.567,-0.254 -0.312,0 0,0"
             style="fill:#1d1d1b;fill-opacity:1;fill-rule:evenodd;stroke:none"
             id="path865" /></g><g
           id="g867"
           transform="translate(52.6025,47.3385)"><path
             d="M 0,0 C 0.312,0 0.566,-0.254 0.566,-0.566 0.566,-0.88 0.312,-1.135 0,-1.135 c -0.312,0 -0.567,0.255 -0.567,0.569 C -0.567,-0.254 -0.312,0 0,0"
             style="fill:#1d1d1b;fill-opacity:1;fill-rule:evenodd;stroke:none"
             id="path869" /></g><g
           id="g871"
           transform="translate(52.6025,42.8033)"><path
             d="M 0,0 C 0.312,0 0.566,-0.255 0.566,-0.567 0.566,-0.88 0.312,-1.134 0,-1.134 c -0.312,0 -0.567,0.254 -0.567,0.567 C -0.567,-0.255 -0.312,0 0,0"
             style="fill:#1d1d1b;fill-opacity:1;fill-rule:evenodd;stroke:none"
             id="path873" /></g><g
           id="g875"
           transform="translate(57.1377,70.0152)"><path
             d="m 0,0 c 0.312,0 0.566,-0.254 0.566,-0.567 0,-0.312 -0.254,-0.567 -0.566,-0.567 -0.312,0 -0.567,0.255 -0.567,0.567 C -0.567,-0.254 -0.312,0 0,0"
             style="fill:#1d1d1b;fill-opacity:1;fill-rule:evenodd;stroke:none"
             id="path877" /></g><g
           id="g879"
           transform="translate(57.1377,65.4791)"><path
             d="m 0,0 c 0.312,0 0.566,-0.253 0.566,-0.566 0,-0.313 -0.254,-0.568 -0.566,-0.568 -0.312,0 -0.567,0.255 -0.567,0.568 C -0.567,-0.253 -0.312,0 0,0"
             style="fill:#1d1d1b;fill-opacity:1;fill-rule:evenodd;stroke:none"
             id="path881" /></g><g
           id="g883"
           transform="translate(57.1377,60.9449)"><path
             d="m 0,0 c 0.312,0 0.566,-0.255 0.566,-0.567 0,-0.314 -0.254,-0.567 -0.566,-0.567 -0.312,0 -0.567,0.253 -0.567,0.567 C -0.567,-0.255 -0.312,0 0,0"
             style="fill:#1d1d1b;fill-opacity:1;fill-rule:evenodd;stroke:none"
             id="path885" /></g><g
           id="g887"
           transform="translate(57.1377,56.4088)"><path
             d="M 0,0 C 0.312,0 0.566,-0.253 0.566,-0.566 0.566,-0.88 0.312,-1.134 0,-1.134 c -0.312,0 -0.567,0.254 -0.567,0.568 C -0.567,-0.253 -0.312,0 0,0"
             style="fill:#1d1d1b;fill-opacity:1;fill-rule:evenodd;stroke:none"
             id="path889" /></g><g
           id="g891"
           transform="translate(57.1377,51.8736)"><path
             d="m 0,0 c 0.312,0 0.566,-0.254 0.566,-0.567 0,-0.312 -0.254,-0.567 -0.566,-0.567 -0.312,0 -0.567,0.255 -0.567,0.567 C -0.567,-0.254 -0.312,0 0,0"
             style="fill:#1d1d1b;fill-opacity:1;fill-rule:evenodd;stroke:none"
             id="path893" /></g><g
           id="g895"
           transform="translate(57.1377,47.3385)"><path
             d="M 0,0 C 0.312,0 0.566,-0.254 0.566,-0.566 0.566,-0.88 0.312,-1.135 0,-1.135 c -0.312,0 -0.567,0.255 -0.567,0.569 C -0.567,-0.254 -0.312,0 0,0"
             style="fill:#1d1d1b;fill-opacity:1;fill-rule:evenodd;stroke:none"
             id="path897" /></g><g
           id="g899"
           transform="translate(57.1377,42.8033)"><path
             d="M 0,0 C 0.312,0 0.566,-0.255 0.566,-0.567 0.566,-0.88 0.312,-1.134 0,-1.134 c -0.312,0 -0.567,0.254 -0.567,0.567 C -0.567,-0.255 -0.312,0 0,0"
             style="fill:#1d1d1b;fill-opacity:1;fill-rule:evenodd;stroke:none"
             id="path901" /></g><g
           id="g903"
           transform="translate(61.6728,60.9449)"><path
             d="m 0,0 c 0.314,0 0.567,-0.255 0.567,-0.567 0,-0.314 -0.253,-0.567 -0.567,-0.567 -0.312,0 -0.566,0.253 -0.566,0.567 C -0.566,-0.255 -0.312,0 0,0"
             style="fill:#1d1d1b;fill-opacity:1;fill-rule:evenodd;stroke:none"
             id="path905" /></g><g
           id="g907"
           transform="translate(61.6728,56.4088)"><path
             d="M 0,0 C 0.314,0 0.567,-0.253 0.567,-0.566 0.567,-0.88 0.314,-1.134 0,-1.134 c -0.312,0 -0.566,0.254 -0.566,0.568 C -0.566,-0.253 -0.312,0 0,0"
             style="fill:#1d1d1b;fill-opacity:1;fill-rule:evenodd;stroke:none"
             id="path909" /></g><g
           id="g911"
           transform="translate(61.6728,51.8736)"><path
             d="m 0,0 c 0.314,0 0.567,-0.254 0.567,-0.567 0,-0.312 -0.253,-0.567 -0.567,-0.567 -0.312,0 -0.566,0.255 -0.566,0.567 C -0.566,-0.254 -0.312,0 0,0"
             style="fill:#1d1d1b;fill-opacity:1;fill-rule:evenodd;stroke:none"
             id="path913" /></g><g
           id="g915"
           transform="translate(61.6728,47.3385)"><path
             d="M 0,0 C 0.314,0 0.567,-0.254 0.567,-0.566 0.567,-0.88 0.314,-1.135 0,-1.135 c -0.312,0 -0.566,0.255 -0.566,0.569 C -0.566,-0.254 -0.312,0 0,0"
             style="fill:#1d1d1b;fill-opacity:1;fill-rule:evenodd;stroke:none"
             id="path917" /></g><g
           id="g919"
           transform="translate(61.6728,42.8033)"><path
             d="M 0,0 C 0.314,0 0.567,-0.255 0.567,-0.567 0.567,-0.88 0.314,-1.134 0,-1.134 c -0.312,0 -0.566,0.254 -0.566,0.567 C -0.566,-0.255 -0.312,0 0,0"
             style="fill:#1d1d1b;fill-opacity:1;fill-rule:evenodd;stroke:none"
             id="path921" /></g><g
           id="g923"
           transform="translate(61.4853,70.0152)"><path
             d="m 0,0 c 0.314,0 0.567,-0.254 0.567,-0.567 0,-0.312 -0.253,-0.567 -0.567,-0.567 -0.312,0 -0.566,0.255 -0.566,0.567 C -0.566,-0.254 -0.312,0 0,0"
             style="fill:#1d1d1b;fill-opacity:1;fill-rule:evenodd;stroke:none"
             id="path925" /></g><g
           id="g927"
           transform="translate(61.4853,65.4791)"><path
             d="m 0,0 c 0.314,0 0.567,-0.253 0.567,-0.566 0,-0.313 -0.253,-0.568 -0.567,-0.568 -0.312,0 -0.566,0.255 -0.566,0.568 C -0.566,-0.253 -0.312,0 0,0"
             style="fill:#1d1d1b;fill-opacity:1;fill-rule:evenodd;stroke:none"
             id="path929" /></g><g
           id="g931"
           transform="translate(66.0214,70.0152)"><path
             d="m 0,0 c 0.312,0 0.566,-0.254 0.566,-0.567 0,-0.312 -0.254,-0.567 -0.566,-0.567 -0.313,0 -0.567,0.255 -0.567,0.567 C -0.567,-0.254 -0.313,0 0,0"
             style="fill:#1d1d1b;fill-opacity:1;fill-rule:evenodd;stroke:none"
             id="path933" /></g><g
           id="g935"
           transform="translate(66.0214,65.4791)"><path
             d="m 0,0 c 0.312,0 0.566,-0.253 0.566,-0.566 0,-0.313 -0.254,-0.568 -0.566,-0.568 -0.313,0 -0.567,0.255 -0.567,0.568 C -0.567,-0.253 -0.313,0 0,0"
             style="fill:#1d1d1b;fill-opacity:1;fill-rule:evenodd;stroke:none"
             id="path937" /></g><g
           id="g939"
           transform="translate(66.2089,60.9449)"><path
             d="m 0,0 c 0.312,0 0.566,-0.255 0.566,-0.567 0,-0.314 -0.254,-0.567 -0.566,-0.567 -0.313,0 -0.567,0.253 -0.567,0.567 C -0.567,-0.255 -0.313,0 0,0"
             style="fill:#1d1d1b;fill-opacity:1;fill-rule:evenodd;stroke:none"
             id="path941" /></g><g
           id="g943"
           transform="translate(66.2089,56.4088)"><path
             d="M 0,0 C 0.312,0 0.566,-0.253 0.566,-0.566 0.566,-0.88 0.312,-1.134 0,-1.134 c -0.313,0 -0.567,0.254 -0.567,0.568 C -0.567,-0.253 -0.313,0 0,0"
             style="fill:#1d1d1b;fill-opacity:1;fill-rule:evenodd;stroke:none"
             id="path945" /></g><g
           id="g947"
           transform="translate(66.2089,51.8736)"><path
             d="m 0,0 c 0.312,0 0.566,-0.254 0.566,-0.567 0,-0.312 -0.254,-0.567 -0.566,-0.567 -0.313,0 -0.567,0.255 -0.567,0.567 C -0.567,-0.254 -0.313,0 0,0"
             style="fill:#1d1d1b;fill-opacity:1;fill-rule:evenodd;stroke:none"
             id="path949" /></g><g
           id="g951"
           transform="translate(66.2089,47.3385)"><path
             d="M 0,0 C 0.312,0 0.566,-0.254 0.566,-0.566 0.566,-0.88 0.312,-1.135 0,-1.135 c -0.313,0 -0.567,0.255 -0.567,0.569 C -0.567,-0.254 -0.313,0 0,0"
             style="fill:#1d1d1b;fill-opacity:1;fill-rule:evenodd;stroke:none"
             id="path953" /></g><g
           id="g955"
           transform="translate(66.2089,42.8033)"><path
             d="M 0,0 C 0.312,0 0.566,-0.255 0.566,-0.567 0.566,-0.88 0.312,-1.134 0,-1.134 c -0.313,0 -0.567,0.254 -0.567,0.567 C -0.567,-0.255 -0.313,0 0,0"
             style="fill:#1d1d1b;fill-opacity:1;fill-rule:evenodd;stroke:none"
             id="path957" /></g><path
           d="M 37.13,4.819 H 54.138 V 21.827 H 37.13 Z"
           style="fill:#fcc246;fill-opacity:1;fill-rule:evenodd;stroke:none"
           id="path959" /><g
           id="g961"
           transform="translate(38.83,20.693)"><path
             d="m 0,0 c 0.314,0 0.568,-0.254 0.568,-0.567 0,-0.312 -0.254,-0.567 -0.568,-0.567 -0.312,0 -0.566,0.255 -0.566,0.567 C -0.566,-0.254 -0.312,0 0,0"
             style="fill:#1d1d1b;fill-opacity:1;fill-rule:evenodd;stroke:none"
             id="path963" /></g><g
           id="g965"
           transform="translate(38.83,16.1568)"><path
             d="m 0,0 c 0.314,0 0.568,-0.253 0.568,-0.566 0,-0.313 -0.254,-0.568 -0.568,-0.568 -0.312,0 -0.566,0.255 -0.566,0.568 C -0.566,-0.253 -0.312,0 0,0"
             style="fill:#1d1d1b;fill-opacity:1;fill-rule:evenodd;stroke:none"
             id="path967" /></g><g
           id="g969"
           transform="translate(38.83,11.6227)"><path
             d="m 0,0 c 0.314,0 0.568,-0.255 0.568,-0.567 0,-0.314 -0.254,-0.567 -0.568,-0.567 -0.312,0 -0.566,0.253 -0.566,0.567 C -0.566,-0.255 -0.312,0 0,0"
             style="fill:#1d1d1b;fill-opacity:1;fill-rule:evenodd;stroke:none"
             id="path971" /></g><g
           id="g973"
           transform="translate(38.83,7.0865)"><path
             d="M 0,0 C 0.314,0 0.568,-0.253 0.568,-0.566 0.568,-0.88 0.314,-1.134 0,-1.134 c -0.312,0 -0.566,0.254 -0.566,0.568 C -0.566,-0.253 -0.312,0 0,0"
             style="fill:#1d1d1b;fill-opacity:1;fill-rule:evenodd;stroke:none"
             id="path975" /></g><g
           id="g977"
           transform="translate(43.3652,20.693)"><path
             d="m 0,0 c 0.314,0 0.568,-0.254 0.568,-0.567 0,-0.312 -0.254,-0.567 -0.568,-0.567 -0.312,0 -0.566,0.255 -0.566,0.567 C -0.566,-0.254 -0.312,0 0,0"
             style="fill:#1d1d1b;fill-opacity:1;fill-rule:evenodd;stroke:none"
             id="path979" /></g><g
           id="g981"
           transform="translate(43.3652,16.1568)"><path
             d="m 0,0 c 0.314,0 0.568,-0.253 0.568,-0.566 0,-0.313 -0.254,-0.568 -0.568,-0.568 -0.312,0 -0.566,0.255 -0.566,0.568 C -0.566,-0.253 -0.312,0 0,0"
             style="fill:#1d1d1b;fill-opacity:1;fill-rule:evenodd;stroke:none"
             id="path983" /></g><g
           id="g985"
           transform="translate(43.3652,11.6227)"><path
             d="m 0,0 c 0.314,0 0.568,-0.255 0.568,-0.567 0,-0.314 -0.254,-0.567 -0.568,-0.567 -0.312,0 -0.566,0.253 -0.566,0.567 C -0.566,-0.255 -0.312,0 0,0"
             style="fill:#1d1d1b;fill-opacity:1;fill-rule:evenodd;stroke:none"
             id="path987" /></g><g
           id="g989"
           transform="translate(43.3652,7.0865)"><path
             d="M 0,0 C 0.314,0 0.568,-0.253 0.568,-0.566 0.568,-0.88 0.314,-1.134 0,-1.134 c -0.312,0 -0.566,0.254 -0.566,0.568 C -0.566,-0.253 -0.312,0 0,0"
             style="fill:#1d1d1b;fill-opacity:1;fill-rule:evenodd;stroke:none"
             id="path991" /></g><g
           id="g993"
           transform="translate(47.9023,20.693)"><path
             d="m 0,0 c 0.312,0 0.566,-0.254 0.566,-0.567 0,-0.312 -0.254,-0.567 -0.566,-0.567 -0.314,0 -0.568,0.255 -0.568,0.567 C -0.568,-0.254 -0.314,0 0,0"
             style="fill:#1d1d1b;fill-opacity:1;fill-rule:evenodd;stroke:none"
             id="path995" /></g><g
           id="g997"
           transform="translate(47.9023,16.1568)"><path
             d="m 0,0 c 0.312,0 0.566,-0.253 0.566,-0.566 0,-0.313 -0.254,-0.568 -0.566,-0.568 -0.314,0 -0.568,0.255 -0.568,0.568 C -0.568,-0.253 -0.314,0 0,0"
             style="fill:#1d1d1b;fill-opacity:1;fill-rule:evenodd;stroke:none"
             id="path999" /></g><g
           id="g1001"
           transform="translate(47.9023,11.6227)"><path
             d="m 0,0 c 0.312,0 0.566,-0.255 0.566,-0.567 0,-0.314 -0.254,-0.567 -0.566,-0.567 -0.314,0 -0.568,0.253 -0.568,0.567 C -0.568,-0.255 -0.314,0 0,0"
             style="fill:#1d1d1b;fill-opacity:1;fill-rule:evenodd;stroke:none"
             id="path1003" /></g><g
           id="g1005"
           transform="translate(47.9023,7.0865)"><path
             d="M 0,0 C 0.312,0 0.566,-0.253 0.566,-0.566 0.566,-0.88 0.312,-1.134 0,-1.134 c -0.314,0 -0.568,0.254 -0.568,0.568 C -0.568,-0.253 -0.314,0 0,0"
             style="fill:#1d1d1b;fill-opacity:1;fill-rule:evenodd;stroke:none"
             id="path1007" /></g><g
           id="g1009"
           transform="translate(52.4375,20.693)"><path
             d="m 0,0 c 0.312,0 0.566,-0.254 0.566,-0.567 0,-0.312 -0.254,-0.567 -0.566,-0.567 -0.312,0 -0.568,0.255 -0.568,0.567 C -0.568,-0.254 -0.312,0 0,0"
             style="fill:#1d1d1b;fill-opacity:1;fill-rule:evenodd;stroke:none"
             id="path1011" /></g><g
           id="g1013"
           transform="translate(52.4375,16.1568)"><path
             d="m 0,0 c 0.312,0 0.566,-0.253 0.566,-0.566 0,-0.313 -0.254,-0.568 -0.566,-0.568 -0.312,0 -0.568,0.255 -0.568,0.568 C -0.568,-0.253 -0.312,0 0,0"
             style="fill:#1d1d1b;fill-opacity:1;fill-rule:evenodd;stroke:none"
             id="path1015" /></g><g
           id="g1017"
           transform="translate(52.4375,11.6227)"><path
             d="m 0,0 c 0.312,0 0.566,-0.255 0.566,-0.567 0,-0.314 -0.254,-0.567 -0.566,-0.567 -0.312,0 -0.568,0.253 -0.568,0.567 C -0.568,-0.255 -0.312,0 0,0"
             style="fill:#1d1d1b;fill-opacity:1;fill-rule:evenodd;stroke:none"
             id="path1019" /></g><g
           id="g1021"
           transform="translate(52.4375,7.0865)"><path
             d="M 0,0 C 0.312,0 0.566,-0.253 0.566,-0.566 0.566,-0.88 0.312,-1.134 0,-1.134 c -0.312,0 -0.568,0.254 -0.568,0.568 C -0.568,-0.253 -0.312,0 0,0"
             style="fill:#1d1d1b;fill-opacity:1;fill-rule:evenodd;stroke:none"
             id="path1023" /></g><g
           id="g1025"
           transform="translate(3.2714,65.9088)"><path
             d="M 0,0 3.24,-6.284 H 1.069 v -9.85 h -2.17 v 9.85 h -2.17 z"
             style="fill:#e30613;fill-opacity:1;fill-rule:evenodd;stroke:none"
             id="path1027" /></g></g></g><g
       id="g1029"><g
         id="g1031"
         clip-path="url(#clipPath1035)"><g
           id="g1037"
           transform="translate(22.2704,104.6376)"><path
             d="M 0,0 -54.383,-54.672"
             style="fill:none;stroke:#b04191;stroke-width:1.134;stroke-linecap:butt;stroke-linejoin:miter;stroke-miterlimit:22.926;stroke-dasharray:none;stroke-opacity:1"
             id="path1039" /></g><g
           id="g1041"
           transform="translate(27.0809,99.8271)"><path
             d="M 0,0 -54.383,-54.672"
             style="fill:none;stroke:#b04191;stroke-width:1.134;stroke-linecap:butt;stroke-linejoin:miter;stroke-miterlimit:22.926;stroke-dasharray:none;stroke-opacity:1"
             id="path1043" /></g><g
           id="g1045"
           transform="translate(31.8915,95.0165)"><path
             d="M 0,0 -54.383,-54.672"
             style="fill:none;stroke:#b04191;stroke-width:1.134;stroke-linecap:butt;stroke-linejoin:miter;stroke-miterlimit:22.926;stroke-dasharray:none;stroke-opacity:1"
             id="path1047" /></g><g
           id="g1049"
           transform="translate(36.702,90.206)"><path
             d="M 0,0 -54.383,-54.672"
             style="fill:none;stroke:#b04191;stroke-width:1.134;stroke-linecap:butt;stroke-linejoin:miter;stroke-miterlimit:22.926;stroke-dasharray:none;stroke-opacity:1"
             id="path1051" /></g><g
           id="g1053"
           transform="translate(41.5126,85.3954)"><path
             d="M 0,0 -33.785,-33.894 -54.383,-54.672"
             style="fill:none;stroke:#b04191;stroke-width:1.134;stroke-linecap:butt;stroke-linejoin:miter;stroke-miterlimit:22.926;stroke-dasharray:none;stroke-opacity:1"
             id="path1055" /></g><g
           id="g1057"
           transform="translate(46.3231,80.5849)"><path
             d="M 0,0 -54.383,-54.672"
             style="fill:none;stroke:#b04191;stroke-width:1.134;stroke-linecap:butt;stroke-linejoin:miter;stroke-miterlimit:22.926;stroke-dasharray:none;stroke-opacity:1"
             id="path1059" /></g><g
           id="g1061"
           transform="translate(51.1337,75.7743)"><path
             d="M 0,0 -54.383,-54.672"
             style="fill:none;stroke:#b04191;stroke-width:1.134;stroke-linecap:butt;stroke-linejoin:miter;stroke-miterlimit:22.926;stroke-dasharray:none;stroke-opacity:1"
             id="path1063" /></g><g
           id="g1065"
           transform="translate(55.9442,70.9637)"><path
             d="M 0,0 -54.383,-54.672"
             style="fill:none;stroke:#b04191;stroke-width:1.134;stroke-linecap:butt;stroke-linejoin:miter;stroke-miterlimit:22.926;stroke-dasharray:none;stroke-opacity:1"
             id="path1067" /></g><g
           id="g1069"
           transform="translate(60.7548,66.1532)"><path
             d="M 0,0 -54.383,-54.672"
             style="fill:none;stroke:#b04191;stroke-width:1.134;stroke-linecap:butt;stroke-linejoin:miter;stroke-miterlimit:22.926;stroke-dasharray:none;stroke-opacity:1"
             id="path1071" /></g><g
           id="g1073"
           transform="translate(65.5654,61.3426)"><path
             d="M 0,0 -54.383,-54.672"
             style="fill:none;stroke:#b04191;stroke-width:1.134;stroke-linecap:butt;stroke-linejoin:miter;stroke-miterlimit:22.926;stroke-dasharray:none;stroke-opacity:1"
             id="path1075" /></g><g
           id="g1077"
           transform="translate(-30.3685,60.0824)"><path
             d="M 0,0 9.048,-9.049 52.068,-52.07"
             style="fill:none;stroke:#b04191;stroke-width:1.134;stroke-linecap:butt;stroke-linejoin:miter;stroke-miterlimit:22.926;stroke-dasharray:none;stroke-opacity:1"
             id="path1079" /></g><g
           id="g1081"
           transform="translate(-25.558,64.8929)"><path
             d="M 0,0 13.711,-13.711 52.068,-52.07"
             style="fill:none;stroke:#b04191;stroke-width:1.134;stroke-linecap:butt;stroke-linejoin:miter;stroke-miterlimit:22.926;stroke-dasharray:none;stroke-opacity:1"
             id="path1083" /></g><g
           id="g1085"
           transform="translate(-20.7474,69.7035)"><path
             d="m 0,0 18.669,-18.67 33.399,-33.4"
             style="fill:none;stroke:#b04191;stroke-width:1.134;stroke-linecap:butt;stroke-linejoin:miter;stroke-miterlimit:22.926;stroke-dasharray:none;stroke-opacity:1"
             id="path1087" /></g><g
           id="g1089"
           transform="translate(-15.8699,74.4471)"><path
             d="M 0,0 52.001,-52.003"
             style="fill:none;stroke:#b04191;stroke-width:1.134;stroke-linecap:butt;stroke-linejoin:miter;stroke-miterlimit:22.926;stroke-dasharray:none;stroke-opacity:1"
             id="path1091" /></g><g
           id="g1093"
           transform="translate(-11.1263,79.3246)"><path
             d="M 0,0 28.142,-28.143 52.068,-52.07"
             style="fill:none;stroke:#b04191;stroke-width:1.134;stroke-linecap:butt;stroke-linejoin:miter;stroke-miterlimit:22.926;stroke-dasharray:none;stroke-opacity:1"
             id="path1095" /></g><g
           id="g1097"
           transform="translate(-6.3157,84.1352)"><path
             d="M 0,0 32.799,-32.799 52.068,-52.07"
             style="fill:none;stroke:#b04191;stroke-width:1.134;stroke-linecap:butt;stroke-linejoin:miter;stroke-miterlimit:22.926;stroke-dasharray:none;stroke-opacity:1"
             id="path1099" /></g><g
           id="g1101"
           transform="translate(-1.5052,88.9457)"><path
             d="m 0,0 37.911,-37.912 9.459,-9.459 4.698,-4.699"
             style="fill:none;stroke:#b04191;stroke-width:1.134;stroke-linecap:butt;stroke-linejoin:miter;stroke-miterlimit:22.926;stroke-dasharray:none;stroke-opacity:1"
             id="path1103" /></g><g
           id="g1105"
           transform="translate(3.3054,93.7563)"><path
             d="m 0,0 42.679,-42.68 9.389,-9.39"
             style="fill:none;stroke:#b04191;stroke-width:1.134;stroke-linecap:butt;stroke-linejoin:miter;stroke-miterlimit:22.926;stroke-dasharray:none;stroke-opacity:1"
             id="path1107" /></g><g
           id="g1109"
           transform="translate(8.1159,98.5668)"><path
             d="M 0,0 52.068,-52.07"
             style="fill:none;stroke:#b04191;stroke-width:1.134;stroke-linecap:butt;stroke-linejoin:miter;stroke-miterlimit:22.926;stroke-dasharray:none;stroke-opacity:1"
             id="path1111" /></g><g
           id="g1113"
           transform="translate(12.9265,103.3774)"><path
             d="M 0,0 52.068,-52.07"
             style="fill:none;stroke:#b04191;stroke-width:1.134;stroke-linecap:butt;stroke-linejoin:miter;stroke-miterlimit:22.926;stroke-dasharray:none;stroke-opacity:1"
             id="path1115" /></g></g></g><g
       id="g1117"><g
         id="g1119"
         clip-path="url(#clipPath1123)"><g
           id="g1125"
           transform="translate(52.6347,36.527)"><path
             d="M 0,0 V 3.527"
             style="fill:none;stroke:#e30613;stroke-width:0.283;stroke-linecap:butt;stroke-linejoin:miter;stroke-miterlimit:22.926;stroke-dasharray:none;stroke-opacity:1"
             id="path1127" /></g><text
           transform="matrix(1,0,0,-1,50.8442,29.8168)"
           style="font-variant:normal;font-weight:normal;font-stretch:semi-condensed;font-size:6.9997px;font-family:'Arial Narrow';-inkscape-font-specification:ArialNarrow;writing-mode:lr-tb;fill:#e30613;fill-opacity:1;fill-rule:nonzero;stroke:none"
           id="text1131"><tspan
             x="0 3.1918633 4.7877946 7.9796581 9.5755892 11.486507 15.63033 19.774153"
             y="0"
             sodipodi:role="line"
             id="tspan1129">0.8 (CC)</tspan></text></g></g><text
       transform="matrix(1,0,0,-1,22.0276,29.8168)"
       style="font-variant:normal;font-weight:normal;font-stretch:normal;font-size:6.9997px;font-family:Arial;-inkscape-font-specification:ArialMT;writing-mode:lr-tb;fill:#e30613;fill-opacity:1;fill-rule:nonzero;stroke:none"
       id="text1135"><tspan
         x="0"
         y="0"
         id="tspan1133">ø</tspan></text><text
       transform="matrix(1,0,0,-1,27.900348,29.8168)"
       style="font-variant:normal;font-weight:normal;font-stretch:semi-condensed;font-size:6.9997px;font-family:'Arial Narrow';-inkscape-font-specification:ArialNarrow;writing-mode:lr-tb;fill:#e30613;fill-opacity:1;fill-rule:nonzero;stroke:none"
       id="text1139"><tspan
         x="0 3.1918633 4.7877946"
         y="0"
         sodipodi:role="line"
         id="tspan1137">0.2</tspan></text><g
       id="g1141"><g
         id="g1143"
         clip-path="url(#clipPath1147)"><g
           id="g1149"
           transform="translate(57.208,36.527)"><path
             d="M 0,0 V 3.527"
             style="fill:none;stroke:#e30613;stroke-width:0.283;stroke-linecap:butt;stroke-linejoin:miter;stroke-miterlimit:22.926;stroke-dasharray:none;stroke-opacity:1"
             id="path1151" /></g><path
           d="M 17.55,26.079 H 60.07 V 0.567 H 17.55 Z"
           style="fill:none;stroke:#312783;stroke-width:1.134;stroke-linecap:butt;stroke-linejoin:miter;stroke-miterlimit:22.926;stroke-dasharray:none;stroke-opacity:1"
           id="path1153" /></g></g><text
       transform="matrix(1,0,0,-1,23.1934,11.2109)"
       style="font-variant:normal;font-weight:normal;font-stretch:semi-condensed;font-size:7px;font-family:'Arial Narrow';-inkscape-font-specification:ArialNarrow;writing-mode:lr-tb;fill:#e30613;fill-opacity:1;fill-rule:nonzero;stroke:none"
       id="text1157"><tspan
         x="0 4.7810001 6.0549998 9.2469997"
         y="0"
         sodipodi:role="line"
         id="tspan1155">min.</tspan></text></g></svg>
