<?xml version="1.0" encoding="UTF-8" standalone="no"?>
<!-- Created with Inkscape (http://www.inkscape.org/) -->

<svg
   version="1.1"
   id="svg2823"
   xml:space="preserve"
   width="99.464935"
   height="48.653599"
   viewBox="0 0 99.464935 48.653599"
   sodipodi:docname="ISSprOM 416 Distinct vegetation boundary.svg"
   inkscape:version="1.1.1 (3bf5ae0d25, 2021-09-20)"
   xmlns:inkscape="http://www.inkscape.org/namespaces/inkscape"
   xmlns:sodipodi="http://sodipodi.sourceforge.net/DTD/sodipodi-0.dtd"
   xmlns="http://www.w3.org/2000/svg"
   xmlns:svg="http://www.w3.org/2000/svg"><defs
     id="defs2827"><clipPath
       clipPathUnits="userSpaceOnUse"
       id="clipPath2837"><path
         d="M 0,36.49 H 74.599 V 0 H 0 Z"
         id="path2835" /></clipPath><clipPath
       clipPathUnits="userSpaceOnUse"
       id="clipPath2937"><path
         d="M 0,36.49 H 74.599 V 0 H 0 Z"
         id="path2935" /></clipPath></defs><sodipodi:namedview
     id="namedview2825"
     pagecolor="#ffffff"
     bordercolor="#666666"
     borderopacity="1.0"
     inkscape:pageshadow="2"
     inkscape:pageopacity="0.0"
     inkscape:pagecheckerboard="0"
     showgrid="false"
     inkscape:zoom="17.162143"
     inkscape:cx="49.731553"
     inkscape:cy="24.326799"
     inkscape:window-width="1920"
     inkscape:window-height="1017"
     inkscape:window-x="-8"
     inkscape:window-y="-8"
     inkscape:window-maximized="1"
     inkscape:current-layer="g2829" /><g
     id="g2829"
     inkscape:groupmode="layer"
     inkscape:label="ISSprOM 416 Distinct vegetation boundary"
     transform="matrix(1.3333333,0,0,-1.3333333,0,48.6536)"><g
       id="g2831"><g
         id="g2833"
         clip-path="url(#clipPath2837)"><g
           id="g2839"
           transform="translate(29.1973,8.3616)"><path
             d="m 0,0 c 0.392,0 0.709,-0.316 0.709,-0.708 0,-0.391 -0.317,-0.709 -0.709,-0.709 -0.391,0 -0.709,0.318 -0.709,0.709 C -0.709,-0.316 -0.391,0 0,0"
             style="fill:#1d1d1b;fill-opacity:1;fill-rule:evenodd;stroke:none"
             id="path2841" /></g><g
           id="g2843"
           transform="translate(32.5987,8.3616)"><path
             d="m 0,0 c 0.392,0 0.709,-0.316 0.709,-0.708 0,-0.391 -0.317,-0.709 -0.709,-0.709 -0.392,0 -0.708,0.318 -0.708,0.709 C -0.708,-0.316 -0.392,0 0,0"
             style="fill:#1d1d1b;fill-opacity:1;fill-rule:evenodd;stroke:none"
             id="path2845" /></g><g
           id="g2847"
           transform="translate(36,8.3616)"><path
             d="m 0,0 c 0.392,0 0.709,-0.316 0.709,-0.708 0,-0.391 -0.317,-0.709 -0.709,-0.709 -0.391,0 -0.708,0.318 -0.708,0.709 C -0.708,-0.316 -0.391,0 0,0"
             style="fill:#1d1d1b;fill-opacity:1;fill-rule:evenodd;stroke:none"
             id="path2849" /></g><g
           id="g2851"
           transform="translate(39.4024,8.3616)"><path
             d="m 0,0 c 0.391,0 0.708,-0.316 0.708,-0.708 0,-0.391 -0.317,-0.709 -0.708,-0.709 -0.392,0 -0.709,0.318 -0.709,0.709 C -0.709,-0.316 -0.392,0 0,0"
             style="fill:#1d1d1b;fill-opacity:1;fill-rule:evenodd;stroke:none"
             id="path2853" /></g><g
           id="g2855"
           transform="translate(42.8038,8.3616)"><path
             d="m 0,0 c 0.391,0 0.709,-0.316 0.709,-0.708 0,-0.391 -0.318,-0.709 -0.709,-0.709 -0.392,0 -0.709,0.318 -0.709,0.709 C -0.709,-0.316 -0.392,0 0,0"
             style="fill:#1d1d1b;fill-opacity:1;fill-rule:evenodd;stroke:none"
             id="path2857" /></g><g
           id="g2859"
           transform="translate(0.709,33.1379)"><path
             d="m 0,0 c 0.392,0 0.709,-0.316 0.709,-0.708 0,-0.391 -0.317,-0.709 -0.709,-0.709 -0.391,0 -0.709,0.318 -0.709,0.709 C -0.709,-0.316 -0.391,0 0,0"
             style="fill:#1d1d1b;fill-opacity:1;fill-rule:evenodd;stroke:none"
             id="path2861" /></g><g
           id="g2863"
           transform="translate(4.1104,33.1379)"><path
             d="m 0,0 c 0.392,0 0.709,-0.316 0.709,-0.708 0,-0.391 -0.317,-0.709 -0.709,-0.709 -0.392,0 -0.708,0.318 -0.708,0.709 C -0.708,-0.316 -0.392,0 0,0"
             style="fill:#1d1d1b;fill-opacity:1;fill-rule:evenodd;stroke:none"
             id="path2865" /></g><g
           id="g2867"
           transform="translate(7.5118,33.1379)"><path
             d="m 0,0 c 0.392,0 0.709,-0.316 0.709,-0.708 0,-0.391 -0.317,-0.709 -0.709,-0.709 -0.391,0 -0.708,0.318 -0.708,0.709 C -0.708,-0.316 -0.391,0 0,0"
             style="fill:#1d1d1b;fill-opacity:1;fill-rule:evenodd;stroke:none"
             id="path2869" /></g><g
           id="g2871"
           transform="translate(10.9141,33.1379)"><path
             d="m 0,0 c 0.391,0 0.708,-0.316 0.708,-0.708 0,-0.391 -0.317,-0.709 -0.708,-0.709 -0.392,0 -0.709,0.318 -0.709,0.709 C -0.709,-0.316 -0.392,0 0,0"
             style="fill:#1d1d1b;fill-opacity:1;fill-rule:evenodd;stroke:none"
             id="path2873" /></g><g
           id="g2875"
           transform="translate(14.3155,33.1379)"><path
             d="m 0,0 c 0.391,0 0.709,-0.316 0.709,-0.708 0,-0.391 -0.318,-0.709 -0.709,-0.709 -0.392,0 -0.709,0.318 -0.709,0.709 C -0.709,-0.316 -0.392,0 0,0"
             style="fill:#1d1d1b;fill-opacity:1;fill-rule:evenodd;stroke:none"
             id="path2877" /></g><g
           id="g2879"
           transform="translate(17.7168,33.1379)"><path
             d="m 0,0 c 0.392,0 0.709,-0.316 0.709,-0.708 0,-0.391 -0.317,-0.709 -0.709,-0.709 -0.392,0 -0.708,0.318 -0.708,0.709 C -0.708,-0.316 -0.392,0 0,0"
             style="fill:#1d1d1b;fill-opacity:1;fill-rule:evenodd;stroke:none"
             id="path2881" /></g><g
           id="g2883"
           transform="translate(21.1182,33.1379)"><path
             d="m 0,0 c 0.392,0 0.709,-0.316 0.709,-0.708 0,-0.391 -0.317,-0.709 -0.709,-0.709 -0.391,0 -0.709,0.318 -0.709,0.709 C -0.709,-0.316 -0.391,0 0,0"
             style="fill:#1d1d1b;fill-opacity:1;fill-rule:evenodd;stroke:none"
             id="path2885" /></g><g
           id="g2887"
           transform="translate(24.5196,33.1379)"><path
             d="m 0,0 c 0.392,0 0.709,-0.316 0.709,-0.708 0,-0.391 -0.317,-0.709 -0.709,-0.709 -0.391,0 -0.708,0.318 -0.708,0.709 C -0.708,-0.316 -0.391,0 0,0"
             style="fill:#1d1d1b;fill-opacity:1;fill-rule:evenodd;stroke:none"
             id="path2889" /></g><g
           id="g2891"
           transform="translate(27.9219,33.1379)"><path
             d="m 0,0 c 0.391,0 0.708,-0.316 0.708,-0.708 0,-0.391 -0.317,-0.709 -0.708,-0.709 -0.392,0 -0.709,0.318 -0.709,0.709 C -0.709,-0.316 -0.392,0 0,0"
             style="fill:#1d1d1b;fill-opacity:1;fill-rule:evenodd;stroke:none"
             id="path2893" /></g><g
           id="g2895"
           transform="translate(31.3233,33.1379)"><path
             d="m 0,0 c 0.391,0 0.709,-0.316 0.709,-0.708 0,-0.391 -0.318,-0.709 -0.709,-0.709 -0.392,0 -0.709,0.318 -0.709,0.709 C -0.709,-0.316 -0.392,0 0,0"
             style="fill:#1d1d1b;fill-opacity:1;fill-rule:evenodd;stroke:none"
             id="path2897" /></g><g
           id="g2899"
           transform="translate(34.7247,33.1379)"><path
             d="m 0,0 c 0.392,0 0.709,-0.316 0.709,-0.708 0,-0.391 -0.317,-0.709 -0.709,-0.709 -0.391,0 -0.709,0.318 -0.709,0.709 C -0.709,-0.316 -0.391,0 0,0"
             style="fill:#1d1d1b;fill-opacity:1;fill-rule:evenodd;stroke:none"
             id="path2901" /></g><g
           id="g2903"
           transform="translate(38.126,33.1379)"><path
             d="m 0,0 c 0.392,0 0.709,-0.316 0.709,-0.708 0,-0.391 -0.317,-0.709 -0.709,-0.709 -0.391,0 -0.708,0.318 -0.708,0.709 C -0.708,-0.316 -0.391,0 0,0"
             style="fill:#1d1d1b;fill-opacity:1;fill-rule:evenodd;stroke:none"
             id="path2905" /></g><g
           id="g2907"
           transform="translate(41.5274,33.1379)"><path
             d="m 0,0 c 0.392,0 0.709,-0.316 0.709,-0.708 0,-0.391 -0.317,-0.709 -0.709,-0.709 -0.391,0 -0.708,0.318 -0.708,0.709 C -0.708,-0.316 -0.391,0 0,0"
             style="fill:#1d1d1b;fill-opacity:1;fill-rule:evenodd;stroke:none"
             id="path2909" /></g><g
           id="g2911"
           transform="translate(44.9297,33.1379)"><path
             d="m 0,0 c 0.391,0 0.709,-0.316 0.709,-0.708 0,-0.391 -0.318,-0.709 -0.709,-0.709 -0.392,0 -0.709,0.318 -0.709,0.709 C -0.709,-0.316 -0.392,0 0,0"
             style="fill:#1d1d1b;fill-opacity:1;fill-rule:evenodd;stroke:none"
             id="path2913" /></g><g
           id="g2915"
           transform="translate(48.3311,33.1379)"><path
             d="m 0,0 c 0.391,0 0.709,-0.316 0.709,-0.708 0,-0.391 -0.318,-0.709 -0.709,-0.709 -0.392,0 -0.709,0.318 -0.709,0.709 C -0.709,-0.316 -0.392,0 0,0"
             style="fill:#1d1d1b;fill-opacity:1;fill-rule:evenodd;stroke:none"
             id="path2917" /></g><g
           id="g2919"
           transform="translate(51.7325,33.1379)"><path
             d="m 0,0 c 0.392,0 0.709,-0.316 0.709,-0.708 0,-0.391 -0.317,-0.709 -0.709,-0.709 -0.391,0 -0.708,0.318 -0.708,0.709 C -0.708,-0.316 -0.391,0 0,0"
             style="fill:#1d1d1b;fill-opacity:1;fill-rule:evenodd;stroke:none"
             id="path2921" /></g><g
           id="g2923"
           transform="translate(55.1338,33.1379)"><path
             d="m 0,0 c 0.392,0 0.709,-0.316 0.709,-0.708 0,-0.391 -0.317,-0.709 -0.709,-0.709 -0.391,0 -0.708,0.318 -0.708,0.709 C -0.708,-0.316 -0.391,0 0,0"
             style="fill:#1d1d1b;fill-opacity:1;fill-rule:evenodd;stroke:none"
             id="path2925" /></g></g></g><text
       transform="matrix(1,0,0,-1,22.2409,20.9901)"
       style="font-variant:normal;font-weight:normal;font-stretch:semi-condensed;font-size:6.9997px;font-family:'Arial Narrow';-inkscape-font-specification:ArialNarrow;writing-mode:lr-tb;fill:#e30613;fill-opacity:1;fill-rule:nonzero;stroke:none"
       id="text2929"><tspan
         x="0 3.1918633 4.7877946 7.9796581 9.5755892 11.486507 15.63033 19.774153"
         y="0"
         sodipodi:role="line"
         id="tspan2927">0.6 (CC)</tspan></text><g
       id="g2931"><g
         id="g2933"
         clip-path="url(#clipPath2937)"><g
           id="g2939"
           transform="translate(24.5196,30.9006)"><path
             d="M 0,0 V -3.515"
             style="fill:none;stroke:#e30613;stroke-width:0.283;stroke-linecap:butt;stroke-linejoin:miter;stroke-miterlimit:22.926;stroke-dasharray:none;stroke-opacity:1"
             id="path2941" /></g><g
           id="g2943"
           transform="translate(27.9219,30.9006)"><path
             d="M 0,0 V -3.515"
             style="fill:none;stroke:#e30613;stroke-width:0.283;stroke-linecap:butt;stroke-linejoin:miter;stroke-miterlimit:22.926;stroke-dasharray:none;stroke-opacity:1"
             id="path2945" /></g><text
           transform="matrix(1,0,0,-1,57.555,30.4838)"
           style="font-variant:normal;font-weight:normal;font-stretch:normal;font-size:6.9997px;font-family:Arial;-inkscape-font-specification:ArialMT;writing-mode:lr-tb;fill:#e30613;fill-opacity:1;fill-rule:nonzero;stroke:none"
           id="text2949"><tspan
             x="0"
             y="0"
             id="tspan2947">ø</tspan></text><text
           transform="matrix(1,0,0,-1,63.427748,30.4838)"
           style="font-variant:normal;font-weight:normal;font-stretch:semi-condensed;font-size:6.9997px;font-family:'Arial Narrow';-inkscape-font-specification:ArialNarrow;writing-mode:lr-tb;fill:#e30613;fill-opacity:1;fill-rule:nonzero;stroke:none"
           id="text2953"><tspan
             x="0 3.1918633 4.7877946 7.9796581"
             y="0"
             sodipodi:role="line"
             id="tspan2951">0.25</tspan></text><path
           d="m 7.087,14.74 h 42.52 V 0.567 H 7.087 Z"
           style="fill:none;stroke:#312783;stroke-width:1.134;stroke-linecap:butt;stroke-linejoin:miter;stroke-miterlimit:22.926;stroke-dasharray:none;stroke-opacity:1"
           id="path2955" /></g></g><text
       transform="matrix(1,0,0,-1,13.1846,5.542)"
       style="font-variant:normal;font-weight:normal;font-stretch:semi-condensed;font-size:7px;font-family:'Arial Narrow';-inkscape-font-specification:ArialNarrow;writing-mode:lr-tb;fill:#e30613;fill-opacity:1;fill-rule:nonzero;stroke:none"
       id="text2959"><tspan
         x="0 4.7810001 6.0549998 9.2469997"
         y="0"
         sodipodi:role="line"
         id="tspan2957">min.</tspan></text></g></svg>
