<?xml version="1.0" encoding="UTF-8" standalone="no"?>
<!-- Created with Inkscape (http://www.inkscape.org/) -->

<svg
   version="1.1"
   id="svg4201"
   xml:space="preserve"
   width="75.59053"
   height="65.537865"
   viewBox="0 0 75.59053 65.537865"
   sodipodi:docname="ISSprOM 501.1 Step or edge of paved area.svg"
   inkscape:version="1.1.1 (3bf5ae0d25, 2021-09-20)"
   xmlns:inkscape="http://www.inkscape.org/namespaces/inkscape"
   xmlns:sodipodi="http://sodipodi.sourceforge.net/DTD/sodipodi-0.dtd"
   xmlns="http://www.w3.org/2000/svg"
   xmlns:svg="http://www.w3.org/2000/svg">
  <rect width="100%" height="100%" fill="white"/>
<defs
     id="defs4205"><clipPath
       clipPathUnits="userSpaceOnUse"
       id="clipPath4215"><path
         d="M 0,49.153 H 56.693 V 0 H 0 Z"
         id="path4213" /></clipPath></defs><sodipodi:namedview
     id="namedview4203"
     pagecolor="#ffffff"
     bordercolor="#666666"
     borderopacity="1.0"
     inkscape:pageshadow="2"
     inkscape:pageopacity="0.0"
     inkscape:pagecheckerboard="0"
     showgrid="false"
     inkscape:zoom="12.740726"
     inkscape:cx="37.792194"
     inkscape:cy="32.768932"
     inkscape:window-width="1920"
     inkscape:window-height="1017"
     inkscape:window-x="-8"
     inkscape:window-y="-8"
     inkscape:window-maximized="1"
     inkscape:current-layer="g4207" /><g
     id="g4207"
     inkscape:groupmode="layer"
     inkscape:label="ISSprOM 501.1 Step or edge of paved area"
     transform="matrix(1.3333333,0,0,-1.3333333,0,65.537867)"><g
       id="g4209"><g
         id="g4211"
         clip-path="url(#clipPath4215)"><g
           id="g4217"
           transform="translate(56.4095,25.5257)"><path
             d="m 0,0 h -15.198 c -2.603,0 -4.136,0.047 -5.531,-0.893 -1.393,-0.935 -2.695,-1.777 -2.695,-7.118 v -17.231 h -9.278 v 17.231 c 0,5.341 -1.3,6.183 -2.696,7.118 C -36.792,0.047 -38.325,0 -40.928,0 H -56.126 V 10.359 H 0 Z"
             style="fill:#eab983;fill-opacity:1;fill-rule:evenodd;stroke:none"
             id="path4219" /></g><g
           id="g4221"
           transform="translate(32.9857,0.2835)"><path
             d="m 0,0 v 17.232 c 0,5.34 1.302,6.182 2.695,7.118 1.395,0.939 2.928,0.892 5.531,0.892 H 23.424 V 18.168 H 8.15 V 0 Z"
             style="fill:#f4d5b4;fill-opacity:1;fill-rule:evenodd;stroke:none"
             id="path4223" /></g><g
           id="g4225"
           transform="translate(23.7073,0.2835)"><path
             d="m 0,0 v 17.232 c 0,5.34 -1.3,6.182 -2.695,7.118 -1.395,0.939 -2.928,0.892 -5.53,0.892 H -23.424 V 18.168 H -8.15 V 0 Z"
             style="fill:#f4d5b4;fill-opacity:1;fill-rule:evenodd;stroke:none"
             id="path4227" /></g><path
           d="M 15.557,0.283 H 0.284 v 18.168 h 15.273 z"
           style="fill:#878786;fill-opacity:1;fill-rule:evenodd;stroke:#1d1d1b;stroke-width:0.567;stroke-linecap:butt;stroke-linejoin:miter;stroke-miterlimit:10;stroke-dasharray:none;stroke-opacity:1"
           id="path4229" /><path
           d="M 56.409,0.283 H 41.136 v 18.168 h 15.273 z"
           style="fill:#878786;fill-opacity:1;fill-rule:evenodd;stroke:#1d1d1b;stroke-width:0.567;stroke-linecap:butt;stroke-linejoin:miter;stroke-miterlimit:10;stroke-dasharray:none;stroke-opacity:1"
           id="path4231" /><g
           id="g4233"
           transform="translate(32.9857,0.2835)"><path
             d="m 0,0 v 17.232 c 0,5.34 1.302,6.182 2.695,7.118 1.395,0.939 2.928,0.892 5.531,0.892 h 15.198"
             style="fill:none;stroke:#1d1d1b;stroke-width:0.567;stroke-linecap:butt;stroke-linejoin:miter;stroke-miterlimit:10;stroke-dasharray:none;stroke-opacity:1"
             id="path4235" /></g><g
           id="g4237"
           transform="translate(23.7073,0.2835)"><path
             d="m 0,0 v 17.232 c 0,5.34 -1.3,6.182 -2.695,7.118 -1.395,0.939 -2.928,0.892 -5.53,0.892 h -15.199"
             style="fill:none;stroke:#1d1d1b;stroke-width:0.567;stroke-linecap:butt;stroke-linejoin:miter;stroke-miterlimit:10;stroke-dasharray:none;stroke-opacity:1"
             id="path4239" /></g><g
           id="g4241"
           transform="translate(0.2835,35.8851)"><path
             d="M 0,0 H 56.126"
             style="fill:none;stroke:#1d1d1b;stroke-width:0.567;stroke-linecap:butt;stroke-linejoin:miter;stroke-miterlimit:10;stroke-dasharray:none;stroke-opacity:1"
             id="path4243" /></g><g
           id="g4245"
           transform="translate(21.0589,35.8851)"><path
             d="M 0,0 -4.559,5.534"
             style="fill:none;stroke:#e30613;stroke-width:0.283;stroke-linecap:butt;stroke-linejoin:miter;stroke-miterlimit:22.926;stroke-dasharray:none;stroke-opacity:1"
             id="path4247" /></g><g
           id="g4249"
           transform="translate(15.3206,25.5257)"><path
             d="M 0,0 -2.279,15.363"
             style="fill:none;stroke:#e30613;stroke-width:0.283;stroke-linecap:butt;stroke-linejoin:miter;stroke-miterlimit:22.926;stroke-dasharray:none;stroke-opacity:1"
             id="path4251" /></g><text
           transform="matrix(1,0,0,-1,8.6621,43.1473)"
           style="font-variant:normal;font-weight:normal;font-stretch:semi-condensed;font-size:6.9997px;font-family:'Arial Narrow';-inkscape-font-specification:ArialNarrow;writing-mode:lr-tb;fill:#e30613;fill-opacity:1;fill-rule:nonzero;stroke:none"
           id="text4255"><tspan
             x="0 3.1918633 4.7877946"
             y="0"
             sodipodi:role="line"
             id="tspan4253">0.1</tspan></text></g></g></g></svg>
