<?xml version="1.0" encoding="UTF-8" standalone="no"?>
<!-- Created with Inkscape (http://www.inkscape.org/) -->

<svg
   version="1.1"
   id="svg4841"
   xml:space="preserve"
   width="112.13547"
   height="89.656532"
   viewBox="0 0 112.13547 89.656532"
   sodipodi:docname="ISSprOM 501.3 Paved area with scattered trees.svg"
   inkscape:version="1.1.1 (3bf5ae0d25, 2021-09-20)"
   xmlns:inkscape="http://www.inkscape.org/namespaces/inkscape"
   xmlns:sodipodi="http://sodipodi.sourceforge.net/DTD/sodipodi-0.dtd"
   xmlns="http://www.w3.org/2000/svg"
   xmlns:svg="http://www.w3.org/2000/svg">
  <rect width="100%" height="100%" fill="white"/>
<defs
     id="defs4845"><clipPath
       clipPathUnits="userSpaceOnUse"
       id="clipPath4861"><path
         d="M 8.221,38.895 H 64.915 V 67.242 H 8.221 Z"
         id="path4859" /></clipPath><clipPath
       clipPathUnits="userSpaceOnUse"
       id="clipPath5309"><path
         d="M 0,67.242 H 84.102 V 0 H 0 Z"
         id="path5307" /></clipPath><clipPath
       clipPathUnits="userSpaceOnUse"
       id="clipPath5321"><path
         d="M 35.667,4.82 H 49.841 V 18.994 H 35.667 Z"
         id="path5319" /></clipPath><clipPath
       clipPathUnits="userSpaceOnUse"
       id="clipPath5465"><path
         d="M 0,67.242 H 84.102 V 0 H 0 Z"
         id="path5463" /></clipPath></defs><sodipodi:namedview
     id="namedview4843"
     pagecolor="#ffffff"
     bordercolor="#666666"
     borderopacity="1.0"
     inkscape:pageshadow="2"
     inkscape:pageopacity="0.0"
     inkscape:pagecheckerboard="0"
     showgrid="false"
     inkscape:zoom="9.3133203"
     inkscape:cx="56.102441"
     inkscape:cy="44.828266"
     inkscape:window-width="1920"
     inkscape:window-height="1017"
     inkscape:window-x="-8"
     inkscape:window-y="-8"
     inkscape:window-maximized="1"
     inkscape:current-layer="g4847" /><g
     id="g4847"
     inkscape:groupmode="layer"
     inkscape:label="ISSprOM 501.3 Paved area with scattered trees"
     transform="matrix(1.3333333,0,0,-1.3333333,0,89.656533)"><g
       id="g4849"
       transform="translate(0,54.8505)"><path
         d="m 0,0 h 2.172 v -9.849 h 2.17 V 0 h 2.17 L 3.273,6.285 Z"
         style="fill:#e30613;fill-opacity:1;fill-rule:nonzero;stroke:none"
         id="path4851" /></g><path
       d="M 8.221,38.895 H 64.915 V 67.242 H 8.221 Z"
       style="fill:#eab983;fill-opacity:1;fill-rule:nonzero;stroke:none"
       id="path4853" /><g
       id="g4855"><g
         id="g4857"
         clip-path="url(#clipPath4861)"><g
           id="g4863"
           transform="translate(9.4239,67.2814)"><path
             d="m 0,0 c 0.662,-0.664 0.662,-1.741 0,-2.404 -0.664,-0.664 -1.742,-0.664 -2.404,0 -0.664,0.664 -0.664,1.74 0,2.404 0.662,0.663 1.74,0.664 2.404,0"
             style="fill:#ffffff;fill-opacity:1;fill-rule:evenodd;stroke:none"
             id="path4865" /></g><g
           id="g4867"
           transform="translate(12.4297,70.2873)"><path
             d="m 0,0 c 0.664,-0.663 0.664,-1.74 0,-2.404 -0.664,-0.664 -1.74,-0.664 -2.404,0 -0.664,0.664 -0.664,1.74 0,2.404 0.664,0.664 1.74,0.664 2.404,0"
             style="fill:#ffffff;fill-opacity:1;fill-rule:evenodd;stroke:none"
             id="path4869" /></g><g
           id="g4871"
           transform="translate(9.4239,61.2678)"><path
             d="m 0,0 c 0.664,-0.664 0.664,-1.74 0,-2.404 -0.664,-0.664 -1.742,-0.664 -2.404,0 -0.666,0.664 -0.664,1.74 0,2.404 0.664,0.664 1.74,0.664 2.404,0"
             style="fill:#ffffff;fill-opacity:1;fill-rule:evenodd;stroke:none"
             id="path4873" /></g><g
           id="g4875"
           transform="translate(12.4297,64.2736)"><path
             d="m 0,0 c 0.664,-0.663 0.664,-1.74 0,-2.404 -0.664,-0.664 -1.74,-0.663 -2.404,0 -0.664,0.665 -0.664,1.74 0,2.404 0.664,0.664 1.74,0.665 2.404,0"
             style="fill:#ffffff;fill-opacity:1;fill-rule:evenodd;stroke:none"
             id="path4877" /></g><g
           id="g4879"
           transform="translate(15.4375,67.2814)"><path
             d="M 0,0 C 0.662,-0.664 0.662,-1.741 0,-2.404 -0.666,-3.069 -1.742,-3.068 -2.406,-2.405 -3.07,-1.74 -3.07,-0.665 -2.404,0 -1.742,0.663 -0.666,0.664 0,0"
             style="fill:#ffffff;fill-opacity:1;fill-rule:evenodd;stroke:none"
             id="path4881" /></g><g
           id="g4883"
           transform="translate(18.4434,70.2873)"><path
             d="m 0,0 c 0.664,-0.664 0.664,-1.74 0,-2.404 -0.664,-0.664 -1.74,-0.664 -2.404,0 -0.664,0.664 -0.664,1.74 0,2.404 0.664,0.664 1.74,0.664 2.404,0"
             style="fill:#ffffff;fill-opacity:1;fill-rule:evenodd;stroke:none"
             id="path4885" /></g><g
           id="g4887"
           transform="translate(9.4239,55.2541)"><path
             d="m 0,0 c 0.662,-0.663 0.662,-1.74 0,-2.404 -0.664,-0.664 -1.742,-0.663 -2.404,0 -0.664,0.664 -0.664,1.74 0,2.404 0.662,0.664 1.74,0.664 2.404,0"
             style="fill:#ffffff;fill-opacity:1;fill-rule:evenodd;stroke:none"
             id="path4889" /></g><g
           id="g4891"
           transform="translate(12.4297,58.2619)"><path
             d="m 0,0 c 0.664,-0.664 0.664,-1.741 0,-2.404 -0.664,-0.665 -1.74,-0.664 -2.404,-10e-4 -0.664,0.664 -0.664,1.74 0,2.405 0.664,0.663 1.74,0.664 2.404,0"
             style="fill:#ffffff;fill-opacity:1;fill-rule:evenodd;stroke:none"
             id="path4893" /></g><g
           id="g4895"
           transform="translate(15.4356,61.2678)"><path
             d="m 0,0 c 0.664,-0.664 0.664,-1.74 0,-2.404 -0.664,-0.664 -1.74,-0.664 -2.404,0 -0.664,0.664 -0.664,1.74 0,2.404 0.664,0.664 1.74,0.664 2.404,0"
             style="fill:#ffffff;fill-opacity:1;fill-rule:evenodd;stroke:none"
             id="path4897" /></g><g
           id="g4899"
           transform="translate(18.4434,64.2746)"><path
             d="m 0,0 c 0.664,-0.663 0.664,-1.741 0,-2.404 -0.664,-0.665 -1.742,-0.664 -2.404,-10e-4 -0.664,0.664 -0.664,1.74 0,2.405 0.664,0.663 1.74,0.664 2.404,0"
             style="fill:#ffffff;fill-opacity:1;fill-rule:evenodd;stroke:none"
             id="path4901" /></g><g
           id="g4903"
           transform="translate(21.4493,67.2814)"><path
             d="m 0,0 c 0.664,-0.664 0.664,-1.741 0,-2.404 -0.664,-0.664 -1.74,-0.664 -2.404,0 -0.664,0.664 -0.664,1.74 0,2.404 0.664,0.663 1.74,0.664 2.404,0"
             style="fill:#ffffff;fill-opacity:1;fill-rule:evenodd;stroke:none"
             id="path4905" /></g><g
           id="g4907"
           transform="translate(24.4571,70.2873)"><path
             d="m 0,0 c 0.662,-0.663 0.662,-1.74 0,-2.404 -0.666,-0.664 -1.742,-0.664 -2.406,0 C -3.07,-1.74 -3.07,-0.664 -2.404,0 -1.742,0.664 -0.664,0.664 0,0"
             style="fill:#ffffff;fill-opacity:1;fill-rule:evenodd;stroke:none"
             id="path4909" /></g><g
           id="g4911"
           transform="translate(9.4239,49.2414)"><path
             d="M 0,0 C 0.664,-0.663 0.664,-1.741 0,-2.404 -0.664,-3.069 -1.742,-3.068 -2.404,-2.405 -3.07,-1.74 -3.068,-0.665 -2.404,0 -1.74,0.663 -0.664,0.665 0,0"
             style="fill:#ffffff;fill-opacity:1;fill-rule:evenodd;stroke:none"
             id="path4913" /></g><g
           id="g4915"
           transform="translate(12.4297,52.2482)"><path
             d="m 0,0 c 0.664,-0.664 0.664,-1.741 0,-2.404 -0.664,-0.664 -1.74,-0.664 -2.404,0 -0.664,0.664 -0.664,1.74 0,2.404 0.664,0.663 1.74,0.664 2.404,0"
             style="fill:#ffffff;fill-opacity:1;fill-rule:evenodd;stroke:none"
             id="path4917" /></g><g
           id="g4919"
           transform="translate(15.4375,55.2541)"><path
             d="m 0,0 c 0.662,-0.663 0.662,-1.74 0,-2.404 -0.666,-0.664 -1.742,-0.664 -2.406,0 C -3.07,-1.74 -3.07,-0.664 -2.404,0 -1.742,0.664 -0.666,0.665 0,0"
             style="fill:#ffffff;fill-opacity:1;fill-rule:evenodd;stroke:none"
             id="path4921" /></g><g
           id="g4923"
           transform="translate(18.4434,58.2609)"><path
             d="m 0,0 c 0.664,-0.663 0.664,-1.741 0,-2.404 -0.664,-0.664 -1.74,-0.663 -2.404,0 -0.664,0.665 -0.664,1.74 0,2.404 0.664,0.663 1.74,0.665 2.404,0"
             style="fill:#ffffff;fill-opacity:1;fill-rule:evenodd;stroke:none"
             id="path4925" /></g><g
           id="g4927"
           transform="translate(21.4493,61.2678)"><path
             d="m 0,0 c 0.664,-0.664 0.664,-1.74 0,-2.404 -0.664,-0.664 -1.74,-0.664 -2.404,0 -0.664,0.664 -0.664,1.74 0,2.404 0.664,0.664 1.74,0.664 2.404,0"
             style="fill:#ffffff;fill-opacity:1;fill-rule:evenodd;stroke:none"
             id="path4929" /></g><g
           id="g4931"
           transform="translate(24.4571,64.2736)"><path
             d="m 0,0 c 0.662,-0.663 0.662,-1.74 0,-2.404 -0.664,-0.664 -1.742,-0.663 -2.404,0 -0.666,0.665 -0.664,1.74 0,2.404 0.662,0.664 1.738,0.665 2.404,0"
             style="fill:#ffffff;fill-opacity:1;fill-rule:evenodd;stroke:none"
             id="path4933" /></g><g
           id="g4935"
           transform="translate(27.4629,67.2814)"><path
             d="m 0,0 c 0.664,-0.664 0.664,-1.741 0,-2.404 -0.664,-0.665 -1.74,-0.664 -2.404,-10e-4 -0.664,0.665 -0.664,1.74 0,2.405 0.664,0.663 1.74,0.664 2.404,0"
             style="fill:#ffffff;fill-opacity:1;fill-rule:evenodd;stroke:none"
             id="path4937" /></g><g
           id="g4939"
           transform="translate(30.4688,70.2873)"><path
             d="m 0,0 c 0.664,-0.664 0.664,-1.74 0,-2.404 -0.664,-0.664 -1.74,-0.664 -2.404,0 -0.664,0.664 -0.664,1.74 0,2.404 0.664,0.664 1.74,0.664 2.404,0"
             style="fill:#ffffff;fill-opacity:1;fill-rule:evenodd;stroke:none"
             id="path4941" /></g><g
           id="g4943"
           transform="translate(9.4239,43.2287)"><path
             d="m 0,0 c 0.662,-0.664 0.662,-1.741 0,-2.404 -0.664,-0.664 -1.742,-0.664 -2.404,0 -0.664,0.664 -0.664,1.74 0,2.404 0.662,0.663 1.74,0.664 2.404,0"
             style="fill:#ffffff;fill-opacity:1;fill-rule:evenodd;stroke:none"
             id="path4945" /></g><g
           id="g4947"
           transform="translate(12.4297,46.2346)"><path
             d="m 0,0 c 0.664,-0.663 0.664,-1.74 0,-2.404 -0.664,-0.664 -1.74,-0.664 -2.404,0 -0.664,0.664 -0.664,1.74 0,2.404 0.664,0.664 1.74,0.664 2.404,0"
             style="fill:#ffffff;fill-opacity:1;fill-rule:evenodd;stroke:none"
             id="path4949" /></g><g
           id="g4951"
           transform="translate(15.4356,49.2414)"><path
             d="m 0,0 c 0.664,-0.663 0.664,-1.741 0,-2.404 -0.664,-0.664 -1.74,-0.663 -2.404,0 -0.664,0.664 -0.664,1.74 0,2.404 0.664,0.663 1.74,0.664 2.404,0"
             style="fill:#ffffff;fill-opacity:1;fill-rule:evenodd;stroke:none"
             id="path4953" /></g><g
           id="g4955"
           transform="translate(18.4434,52.2482)"><path
             d="m 0,0 c 0.664,-0.664 0.664,-1.74 0,-2.404 -0.664,-0.664 -1.742,-0.664 -2.404,0 -0.664,0.664 -0.664,1.74 0,2.404 0.664,0.664 1.74,0.664 2.404,0"
             style="fill:#ffffff;fill-opacity:1;fill-rule:evenodd;stroke:none"
             id="path4957" /></g><g
           id="g4959"
           transform="translate(21.4493,55.2541)"><path
             d="m 0,0 c 0.664,-0.663 0.664,-1.74 0,-2.404 -0.664,-0.664 -1.74,-0.663 -2.404,0 -0.664,0.664 -0.664,1.74 0,2.404 0.664,0.664 1.74,0.664 2.404,0"
             style="fill:#ffffff;fill-opacity:1;fill-rule:evenodd;stroke:none"
             id="path4961" /></g><g
           id="g4963"
           transform="translate(24.4571,58.2619)"><path
             d="M 0,0 C 0.662,-0.664 0.662,-1.741 0,-2.404 -0.666,-3.069 -1.742,-3.068 -2.406,-2.405 -3.07,-1.741 -3.07,-0.665 -2.404,0 -1.742,0.663 -0.664,0.664 0,0"
             style="fill:#ffffff;fill-opacity:1;fill-rule:evenodd;stroke:none"
             id="path4965" /></g><g
           id="g4967"
           transform="translate(27.4629,61.2678)"><path
             d="m 0,0 c 0.664,-0.664 0.664,-1.74 0,-2.404 -0.664,-0.664 -1.74,-0.664 -2.404,0 -0.664,0.664 -0.664,1.74 0,2.404 0.664,0.664 1.74,0.664 2.404,0"
             style="fill:#ffffff;fill-opacity:1;fill-rule:evenodd;stroke:none"
             id="path4969" /></g><g
           id="g4971"
           transform="translate(30.4688,64.2746)"><path
             d="m 0,0 c 0.664,-0.663 0.664,-1.741 0,-2.404 -0.664,-0.665 -1.74,-0.664 -2.404,-10e-4 -0.664,0.664 -0.664,1.74 0,2.405 0.664,0.663 1.74,0.664 2.404,0"
             style="fill:#ffffff;fill-opacity:1;fill-rule:evenodd;stroke:none"
             id="path4973" /></g><g
           id="g4975"
           transform="translate(33.4766,67.2814)"><path
             d="m 0,0 c 0.662,-0.664 0.662,-1.741 0,-2.404 -0.664,-0.664 -1.742,-0.664 -2.404,0 -0.664,0.664 -0.664,1.74 0,2.404 0.662,0.663 1.74,0.664 2.404,0"
             style="fill:#ffffff;fill-opacity:1;fill-rule:evenodd;stroke:none"
             id="path4977" /></g><g
           id="g4979"
           transform="translate(36.4825,70.2873)"><path
             d="m 0,0 c 0.664,-0.663 0.664,-1.74 0,-2.404 -0.664,-0.664 -1.74,-0.664 -2.404,0 -0.664,0.664 -0.664,1.74 0,2.404 0.664,0.664 1.74,0.664 2.404,0"
             style="fill:#ffffff;fill-opacity:1;fill-rule:evenodd;stroke:none"
             id="path4981" /></g><g
           id="g4983"
           transform="translate(12.4297,40.2209)"><path
             d="m 0,0 c 0.664,-0.663 0.664,-1.74 0,-2.404 -0.664,-0.664 -1.74,-0.663 -2.404,0 -0.664,0.665 -0.664,1.74 0,2.404 0.664,0.664 1.74,0.665 2.404,0"
             style="fill:#ffffff;fill-opacity:1;fill-rule:evenodd;stroke:none"
             id="path4985" /></g><g
           id="g4987"
           transform="translate(15.4375,43.2287)"><path
             d="M 0,0 C 0.662,-0.664 0.662,-1.741 0,-2.404 -0.666,-3.069 -1.742,-3.068 -2.406,-2.405 -3.07,-1.74 -3.07,-0.665 -2.404,0 -1.742,0.663 -0.666,0.664 0,0"
             style="fill:#ffffff;fill-opacity:1;fill-rule:evenodd;stroke:none"
             id="path4989" /></g><g
           id="g4991"
           transform="translate(18.4434,46.2346)"><path
             d="m 0,0 c 0.664,-0.664 0.664,-1.74 0,-2.404 -0.664,-0.664 -1.74,-0.664 -2.404,0 -0.664,0.664 -0.664,1.74 0,2.404 0.664,0.664 1.74,0.664 2.404,0"
             style="fill:#ffffff;fill-opacity:1;fill-rule:evenodd;stroke:none"
             id="path4993" /></g><g
           id="g4995"
           transform="translate(21.4493,49.2414)"><path
             d="m 0,0 c 0.664,-0.663 0.664,-1.741 0,-2.404 -0.664,-0.665 -1.74,-0.664 -2.404,-10e-4 -0.664,0.665 -0.664,1.74 0,2.405 0.664,0.663 1.74,0.665 2.404,0"
             style="fill:#ffffff;fill-opacity:1;fill-rule:evenodd;stroke:none"
             id="path4997" /></g><g
           id="g4999"
           transform="translate(24.4571,52.2482)"><path
             d="m 0,0 c 0.662,-0.664 0.662,-1.741 0,-2.404 -0.664,-0.664 -1.742,-0.664 -2.404,0 -0.666,0.664 -0.664,1.74 0,2.404 0.662,0.663 1.738,0.664 2.404,0"
             style="fill:#ffffff;fill-opacity:1;fill-rule:evenodd;stroke:none"
             id="path5001" /></g><g
           id="g5003"
           transform="translate(27.4629,55.2541)"><path
             d="m 0,0 c 0.664,-0.663 0.664,-1.74 0,-2.404 -0.664,-0.664 -1.74,-0.664 -2.404,0 -0.664,0.664 -0.664,1.74 0,2.404 0.664,0.664 1.74,0.665 2.404,0"
             style="fill:#ffffff;fill-opacity:1;fill-rule:evenodd;stroke:none"
             id="path5005" /></g><g
           id="g5007"
           transform="translate(30.4688,58.2609)"><path
             d="m 0,0 c 0.664,-0.663 0.664,-1.741 0,-2.404 -0.664,-0.664 -1.74,-0.663 -2.404,0 -0.664,0.665 -0.664,1.74 0,2.404 0.664,0.663 1.74,0.665 2.404,0"
             style="fill:#ffffff;fill-opacity:1;fill-rule:evenodd;stroke:none"
             id="path5009" /></g><g
           id="g5011"
           transform="translate(33.4766,61.2678)"><path
             d="m 0,0 c 0.664,-0.664 0.664,-1.74 0,-2.404 -0.664,-0.664 -1.742,-0.664 -2.404,0 -0.666,0.664 -0.664,1.74 0,2.404 0.664,0.664 1.74,0.664 2.404,0"
             style="fill:#ffffff;fill-opacity:1;fill-rule:evenodd;stroke:none"
             id="path5013" /></g><g
           id="g5015"
           transform="translate(36.4825,64.2736)"><path
             d="m 0,0 c 0.664,-0.663 0.664,-1.74 0,-2.404 -0.664,-0.664 -1.74,-0.663 -2.404,0 -0.664,0.665 -0.664,1.74 0,2.404 0.664,0.664 1.74,0.665 2.404,0"
             style="fill:#ffffff;fill-opacity:1;fill-rule:evenodd;stroke:none"
             id="path5017" /></g><g
           id="g5019"
           transform="translate(39.4903,67.2814)"><path
             d="m 0,0 c 0.662,-0.664 0.662,-1.741 -0.002,-2.405 -0.664,-0.664 -1.74,-0.663 -2.404,0 -0.664,0.665 -0.664,1.74 0,2.404 C -1.742,0.663 -0.666,0.664 0,0"
             style="fill:#ffffff;fill-opacity:1;fill-rule:evenodd;stroke:none"
             id="path5021" /></g><g
           id="g5023"
           transform="translate(42.4961,70.2873)"><path
             d="m 0,0 c 0.664,-0.664 0.664,-1.74 0,-2.404 -0.664,-0.664 -1.74,-0.664 -2.404,0 -0.664,0.664 -0.664,1.74 0,2.404 0.664,0.664 1.74,0.664 2.404,0"
             style="fill:#ffffff;fill-opacity:1;fill-rule:evenodd;stroke:none"
             id="path5025" /></g><g
           id="g5027"
           transform="translate(18.4434,40.2219)"><path
             d="m 0,0 c 0.664,-0.663 0.664,-1.741 0,-2.404 -0.664,-0.665 -1.742,-0.664 -2.404,-10e-4 -0.664,0.664 -0.664,1.74 0,2.405 0.664,0.663 1.74,0.664 2.404,0"
             style="fill:#ffffff;fill-opacity:1;fill-rule:evenodd;stroke:none"
             id="path5029" /></g><g
           id="g5031"
           transform="translate(21.4493,43.2287)"><path
             d="m 0,0 c 0.664,-0.664 0.664,-1.741 0,-2.404 -0.664,-0.664 -1.74,-0.664 -2.404,0 -0.664,0.664 -0.664,1.74 0,2.404 0.664,0.663 1.74,0.664 2.404,0"
             style="fill:#ffffff;fill-opacity:1;fill-rule:evenodd;stroke:none"
             id="path5033" /></g><g
           id="g5035"
           transform="translate(24.4571,46.2346)"><path
             d="m 0,0 c 0.662,-0.663 0.662,-1.74 0,-2.404 -0.666,-0.664 -1.742,-0.664 -2.406,0 C -3.07,-1.74 -3.07,-0.664 -2.404,0 -1.742,0.664 -0.664,0.664 0,0"
             style="fill:#ffffff;fill-opacity:1;fill-rule:evenodd;stroke:none"
             id="path5037" /></g><g
           id="g5039"
           transform="translate(27.4629,49.2414)"><path
             d="m 0,0 c 0.664,-0.663 0.664,-1.741 0,-2.404 -0.664,-0.664 -1.74,-0.663 -2.404,0 -0.664,0.664 -0.664,1.74 0,2.404 0.664,0.663 1.74,0.664 2.404,0"
             style="fill:#ffffff;fill-opacity:1;fill-rule:evenodd;stroke:none"
             id="path5041" /></g><g
           id="g5043"
           transform="translate(30.4688,52.2482)"><path
             d="m 0,0 c 0.664,-0.664 0.664,-1.74 0,-2.404 -0.664,-0.664 -1.74,-0.664 -2.404,0 -0.664,0.664 -0.664,1.74 0,2.404 0.664,0.664 1.74,0.664 2.404,0"
             style="fill:#ffffff;fill-opacity:1;fill-rule:evenodd;stroke:none"
             id="path5045" /></g><g
           id="g5047"
           transform="translate(33.4766,55.2541)"><path
             d="m 0,0 c 0.662,-0.663 0.662,-1.74 0,-2.404 -0.664,-0.664 -1.742,-0.663 -2.404,0 -0.664,0.664 -0.664,1.74 0,2.404 0.662,0.664 1.74,0.664 2.404,0"
             style="fill:#ffffff;fill-opacity:1;fill-rule:evenodd;stroke:none"
             id="path5049" /></g><g
           id="g5051"
           transform="translate(36.4825,58.2619)"><path
             d="m 0,0 c 0.664,-0.664 0.664,-1.741 0,-2.404 -0.664,-0.665 -1.74,-0.664 -2.404,-10e-4 -0.664,0.664 -0.664,1.74 0,2.405 0.664,0.663 1.74,0.664 2.404,0"
             style="fill:#ffffff;fill-opacity:1;fill-rule:evenodd;stroke:none"
             id="path5053" /></g><g
           id="g5055"
           transform="translate(39.4883,61.2678)"><path
             d="m 0,0 c 0.664,-0.664 0.664,-1.74 0,-2.404 -0.664,-0.664 -1.74,-0.664 -2.404,0 -0.664,0.664 -0.664,1.74 0,2.404 0.664,0.664 1.74,0.664 2.404,0"
             style="fill:#ffffff;fill-opacity:1;fill-rule:evenodd;stroke:none"
             id="path5057" /></g><g
           id="g5059"
           transform="translate(42.4961,64.2746)"><path
             d="m 0,0 c 0.664,-0.663 0.664,-1.741 0,-2.405 -0.664,-0.664 -1.742,-0.663 -2.404,0 -0.664,0.664 -0.664,1.74 0,2.404 C -1.74,0.663 -0.664,0.664 0,0"
             style="fill:#ffffff;fill-opacity:1;fill-rule:evenodd;stroke:none"
             id="path5061" /></g><g
           id="g5063"
           transform="translate(45.502,67.2814)"><path
             d="m 0,0 c 0.664,-0.664 0.664,-1.741 0,-2.404 -0.664,-0.664 -1.74,-0.664 -2.404,0 -0.664,0.664 -0.664,1.74 0,2.404 0.664,0.663 1.74,0.664 2.404,0"
             style="fill:#ffffff;fill-opacity:1;fill-rule:evenodd;stroke:none"
             id="path5065" /></g><g
           id="g5067"
           transform="translate(48.5098,70.2883)"><path
             d="m 0,0 c 0.664,-0.663 0.662,-1.741 -0.002,-2.405 -0.664,-0.664 -1.74,-0.664 -2.404,0 -0.664,0.664 -0.664,1.74 0,2.404 C -1.742,0.663 -0.664,0.664 0,0"
             style="fill:#ffffff;fill-opacity:1;fill-rule:evenodd;stroke:none"
             id="path5069" /></g><g
           id="g5071"
           transform="translate(24.4571,40.2209)"><path
             d="m 0,0 c 0.662,-0.663 0.662,-1.74 0,-2.404 -0.664,-0.664 -1.742,-0.663 -2.404,0 C -3.07,-1.739 -3.07,-0.663 -2.406,0.001 -1.742,0.664 -0.666,0.665 0,0"
             style="fill:#ffffff;fill-opacity:1;fill-rule:evenodd;stroke:none"
             id="path5073" /></g><g
           id="g5075"
           transform="translate(27.4629,43.2287)"><path
             d="M 0,0 C 0.664,-0.664 0.664,-1.741 0,-2.404 -0.664,-3.069 -1.74,-3.068 -2.404,-2.405 -3.068,-1.74 -3.068,-0.664 -2.404,0 -1.74,0.664 -0.664,0.664 0,0"
             style="fill:#ffffff;fill-opacity:1;fill-rule:evenodd;stroke:none"
             id="path5077" /></g><g
           id="g5079"
           transform="translate(30.4688,46.2346)"><path
             d="m 0,0 c 0.664,-0.664 0.664,-1.74 0,-2.404 -0.664,-0.664 -1.74,-0.664 -2.404,0 -0.664,0.664 -0.664,1.74 0,2.404 0.664,0.664 1.74,0.664 2.404,0"
             style="fill:#ffffff;fill-opacity:1;fill-rule:evenodd;stroke:none"
             id="path5081" /></g><g
           id="g5083"
           transform="translate(33.4766,49.2414)"><path
             d="m 0,0 c 0.664,-0.663 0.664,-1.741 0,-2.404 -0.664,-0.665 -1.742,-0.664 -2.404,-10e-4 -0.666,0.665 -0.666,1.741 0,2.406 C -1.742,0.664 -0.664,0.665 0,0"
             style="fill:#ffffff;fill-opacity:1;fill-rule:evenodd;stroke:none"
             id="path5085" /></g><g
           id="g5087"
           transform="translate(36.4825,52.2482)"><path
             d="m 0,0 c 0.664,-0.664 0.664,-1.741 0,-2.404 -0.664,-0.664 -1.74,-0.664 -2.404,0 -0.664,0.664 -0.664,1.74 0,2.404 0.664,0.664 1.74,0.664 2.404,0"
             style="fill:#ffffff;fill-opacity:1;fill-rule:evenodd;stroke:none"
             id="path5089" /></g><g
           id="g5091"
           transform="translate(39.4903,55.2541)"><path
             d="m 0,0 c 0.662,-0.663 0.662,-1.74 0,-2.404 -0.666,-0.664 -1.742,-0.664 -2.406,0 -0.664,0.664 -0.664,1.74 0,2.405 C -1.742,0.664 -0.666,0.665 0,0"
             style="fill:#ffffff;fill-opacity:1;fill-rule:evenodd;stroke:none"
             id="path5093" /></g><g
           id="g5095"
           transform="translate(42.4961,58.2609)"><path
             d="m 0,0 c 0.664,-0.663 0.664,-1.741 0,-2.404 -0.664,-0.664 -1.74,-0.663 -2.404,0 -0.664,0.665 -0.664,1.741 0,2.405 C -1.742,0.664 -0.664,0.665 0,0"
             style="fill:#ffffff;fill-opacity:1;fill-rule:evenodd;stroke:none"
             id="path5097" /></g><g
           id="g5099"
           transform="translate(45.502,61.2678)"><path
             d="m 0,0 c 0.664,-0.664 0.664,-1.74 0,-2.404 -0.664,-0.664 -1.74,-0.664 -2.404,0 -0.664,0.664 -0.664,1.74 0,2.404 0.664,0.664 1.74,0.664 2.404,0"
             style="fill:#ffffff;fill-opacity:1;fill-rule:evenodd;stroke:none"
             id="path5101" /></g><g
           id="g5103"
           transform="translate(48.5098,64.2736)"><path
             d="m 0,0 c 0.662,-0.663 0.662,-1.74 0,-2.404 -0.664,-0.664 -1.742,-0.663 -2.404,0 C -3.07,-1.739 -3.07,-0.663 -2.406,0.001 -1.742,0.664 -0.666,0.665 0,0"
             style="fill:#ffffff;fill-opacity:1;fill-rule:evenodd;stroke:none"
             id="path5105" /></g><g
           id="g5107"
           transform="translate(51.5157,67.2814)"><path
             d="m 0,0 c 0.664,-0.664 0.664,-1.741 0,-2.405 -0.664,-0.664 -1.74,-0.663 -2.404,0 -0.664,0.665 -0.664,1.741 0,2.405 0.664,0.664 1.74,0.664 2.404,0"
             style="fill:#ffffff;fill-opacity:1;fill-rule:evenodd;stroke:none"
             id="path5109" /></g><g
           id="g5111"
           transform="translate(54.5235,70.2883)"><path
             d="m 0,0 c 0.664,-0.663 0.662,-1.741 -0.002,-2.405 -0.664,-0.664 -1.74,-0.664 -2.404,0 -0.664,0.664 -0.664,1.74 0,2.404 C -1.742,0.663 -0.664,0.665 0,0"
             style="fill:#ffffff;fill-opacity:1;fill-rule:evenodd;stroke:none"
             id="path5113" /></g><g
           id="g5115"
           transform="translate(30.4688,40.2219)"><path
             d="m 0,0 c 0.664,-0.663 0.664,-1.741 0,-2.404 -0.664,-0.665 -1.74,-0.664 -2.404,-10e-4 -0.664,0.664 -0.664,1.74 0,2.405 0.664,0.663 1.74,0.664 2.404,0"
             style="fill:#ffffff;fill-opacity:1;fill-rule:evenodd;stroke:none"
             id="path5117" /></g><g
           id="g5119"
           transform="translate(33.4766,43.2287)"><path
             d="m 0,0 c 0.662,-0.664 0.662,-1.741 0,-2.404 -0.664,-0.664 -1.742,-0.664 -2.404,0 -0.664,0.664 -0.664,1.74 0,2.404 0.662,0.663 1.74,0.664 2.404,0"
             style="fill:#ffffff;fill-opacity:1;fill-rule:evenodd;stroke:none"
             id="path5121" /></g><g
           id="g5123"
           transform="translate(36.4825,46.2346)"><path
             d="m 0,0 c 0.664,-0.663 0.664,-1.74 0,-2.404 -0.664,-0.664 -1.74,-0.664 -2.404,0 -0.664,0.664 -0.664,1.74 0,2.404 0.664,0.664 1.74,0.664 2.404,0"
             style="fill:#ffffff;fill-opacity:1;fill-rule:evenodd;stroke:none"
             id="path5125" /></g><g
           id="g5127"
           transform="translate(39.4883,49.2414)"><path
             d="m 0,0 c 0.664,-0.663 0.664,-1.741 0,-2.404 -0.664,-0.664 -1.74,-0.663 -2.404,0 -0.664,0.664 -0.664,1.74 0,2.404 0.664,0.663 1.74,0.664 2.404,0"
             style="fill:#ffffff;fill-opacity:1;fill-rule:evenodd;stroke:none"
             id="path5129" /></g><g
           id="g5131"
           transform="translate(42.4961,52.2482)"><path
             d="m 0,0 c 0.664,-0.664 0.664,-1.74 0,-2.404 -0.664,-0.664 -1.742,-0.664 -2.404,0 -0.664,0.664 -0.664,1.74 0,2.404 0.664,0.664 1.74,0.664 2.404,0"
             style="fill:#ffffff;fill-opacity:1;fill-rule:evenodd;stroke:none"
             id="path5133" /></g><g
           id="g5135"
           transform="translate(45.502,55.2541)"><path
             d="m 0,0 c 0.664,-0.663 0.664,-1.74 0,-2.404 -0.664,-0.664 -1.74,-0.663 -2.404,0 -0.664,0.664 -0.664,1.74 0,2.404 0.664,0.664 1.74,0.664 2.404,0"
             style="fill:#ffffff;fill-opacity:1;fill-rule:evenodd;stroke:none"
             id="path5137" /></g><g
           id="g5139"
           transform="translate(48.5098,58.2619)"><path
             d="m 0,0 c 0.662,-0.664 0.662,-1.741 -0.002,-2.405 -0.664,-0.664 -1.74,-0.663 -2.404,0 -0.664,0.664 -0.664,1.74 0,2.404 C -1.742,0.663 -0.664,0.664 0,0"
             style="fill:#ffffff;fill-opacity:1;fill-rule:evenodd;stroke:none"
             id="path5141" /></g><g
           id="g5143"
           transform="translate(51.5157,61.2678)"><path
             d="m 0,0 c 0.664,-0.664 0.664,-1.74 0,-2.404 -0.664,-0.664 -1.74,-0.664 -2.404,0 -0.664,0.664 -0.664,1.74 0,2.404 0.664,0.664 1.74,0.664 2.404,0"
             style="fill:#ffffff;fill-opacity:1;fill-rule:evenodd;stroke:none"
             id="path5145" /></g><g
           id="g5147"
           transform="translate(54.5235,64.2756)"><path
             d="m 0,0 c 0.662,-0.664 0.662,-1.742 -0.002,-2.406 -0.664,-0.664 -1.74,-0.663 -2.404,0 -0.664,0.664 -0.664,1.74 0,2.404 C -1.742,0.662 -0.664,0.664 0,0"
             style="fill:#ffffff;fill-opacity:1;fill-rule:evenodd;stroke:none"
             id="path5149" /></g><g
           id="g5151"
           transform="translate(57.5293,67.2814)"><path
             d="m 0,0 c 0.664,-0.663 0.664,-1.74 0,-2.404 -0.666,-0.665 -1.742,-0.664 -2.404,0 -0.664,0.664 -0.666,1.739 0,2.404 0.664,0.664 1.74,0.664 2.404,0"
             style="fill:#ffffff;fill-opacity:1;fill-rule:evenodd;stroke:none"
             id="path5153" /></g><g
           id="g5155"
           transform="translate(60.5352,70.2883)"><path
             d="m 0,0 c 0.664,-0.663 0.664,-1.741 0,-2.405 -0.664,-0.664 -1.74,-0.664 -2.404,0 -0.664,0.664 -0.664,1.74 0,2.404 C -1.74,0.663 -0.664,0.664 0,0"
             style="fill:#ffffff;fill-opacity:1;fill-rule:evenodd;stroke:none"
             id="path5157" /></g><g
           id="g5159"
           transform="translate(36.4825,40.2209)"><path
             d="m 0,0 c 0.664,-0.663 0.664,-1.74 0,-2.404 -0.664,-0.664 -1.74,-0.663 -2.404,0 -0.664,0.665 -0.664,1.741 0,2.405 C -1.74,0.664 -0.664,0.665 0,0"
             style="fill:#ffffff;fill-opacity:1;fill-rule:evenodd;stroke:none"
             id="path5161" /></g><g
           id="g5163"
           transform="translate(39.4903,43.2287)"><path
             d="M 0,0 C 0.662,-0.664 0.662,-1.741 0,-2.404 -0.666,-3.069 -1.742,-3.068 -2.406,-2.405 -3.07,-1.74 -3.07,-0.664 -2.406,0 -1.742,0.664 -0.666,0.664 0,0"
             style="fill:#ffffff;fill-opacity:1;fill-rule:evenodd;stroke:none"
             id="path5165" /></g><g
           id="g5167"
           transform="translate(42.4961,46.2346)"><path
             d="m 0,0 c 0.664,-0.664 0.664,-1.74 0,-2.404 -0.664,-0.664 -1.74,-0.664 -2.404,0 -0.664,0.664 -0.664,1.74 0,2.404 0.662,0.664 1.74,0.664 2.404,0"
             style="fill:#ffffff;fill-opacity:1;fill-rule:evenodd;stroke:none"
             id="path5169" /></g><g
           id="g5171"
           transform="translate(45.502,49.2414)"><path
             d="m 0,0 c 0.664,-0.663 0.664,-1.741 0,-2.404 -0.664,-0.665 -1.74,-0.664 -2.404,-10e-4 -0.664,0.665 -0.664,1.741 0,2.406 C -1.74,0.664 -0.664,0.665 0,0"
             style="fill:#ffffff;fill-opacity:1;fill-rule:evenodd;stroke:none"
             id="path5173" /></g><g
           id="g5175"
           transform="translate(48.5098,52.2482)"><path
             d="m 0,0 c 0.662,-0.664 0.662,-1.741 0,-2.404 -0.664,-0.664 -1.742,-0.664 -2.404,0 C -3.07,-1.74 -3.07,-0.664 -2.406,0 -1.742,0.664 -0.666,0.664 0,0"
             style="fill:#ffffff;fill-opacity:1;fill-rule:evenodd;stroke:none"
             id="path5177" /></g><g
           id="g5179"
           transform="translate(51.5157,55.2541)"><path
             d="m 0,0 c 0.664,-0.663 0.664,-1.74 0,-2.404 -0.664,-0.664 -1.74,-0.664 -2.404,0 -0.664,0.664 -0.664,1.74 0,2.404 0.664,0.664 1.74,0.665 2.404,0"
             style="fill:#ffffff;fill-opacity:1;fill-rule:evenodd;stroke:none"
             id="path5181" /></g><g
           id="g5183"
           transform="translate(54.5215,58.2609)"><path
             d="m 0,0 c 0.664,-0.663 0.664,-1.741 0,-2.404 -0.664,-0.664 -1.74,-0.663 -2.404,0 -0.664,0.665 -0.664,1.741 0,2.405 C -1.74,0.664 -0.664,0.665 0,0"
             style="fill:#ffffff;fill-opacity:1;fill-rule:evenodd;stroke:none"
             id="path5185" /></g><g
           id="g5187"
           transform="translate(57.5293,61.2678)"><path
             d="m 0,0 c 0.664,-0.663 0.664,-1.74 0,-2.404 -0.664,-0.664 -1.742,-0.664 -2.404,0 C -3.07,-1.74 -3.07,-0.664 -2.406,0 -1.742,0.664 -0.664,0.665 0,0"
             style="fill:#ffffff;fill-opacity:1;fill-rule:evenodd;stroke:none"
             id="path5189" /></g><g
           id="g5191"
           transform="translate(60.5371,64.2756)"><path
             d="m 0,0 c 0.662,-0.664 0.662,-1.742 -0.002,-2.406 -0.664,-0.664 -1.74,-0.663 -2.404,0 -0.664,0.665 -0.664,1.74 0,2.405 C -1.742,0.663 -0.666,0.664 0,0"
             style="fill:#ffffff;fill-opacity:1;fill-rule:evenodd;stroke:none"
             id="path5193" /></g><g
           id="g5195"
           transform="translate(63.543,67.2814)"><path
             d="m 0,0 c 0.664,-0.664 0.664,-1.74 -0.002,-2.405 -0.664,-0.664 -1.74,-0.663 -2.404,0 -0.664,0.665 -0.664,1.741 0,2.405 0.664,0.664 1.742,0.664 2.406,0"
             style="fill:#ffffff;fill-opacity:1;fill-rule:evenodd;stroke:none"
             id="path5197" /></g><g
           id="g5199"
           transform="translate(66.5489,70.2873)"><path
             d="m 0,0 c 0.664,-0.663 0.664,-1.74 0,-2.404 -0.664,-0.664 -1.74,-0.664 -2.404,0 -0.664,0.664 -0.666,1.74 0,2.404 0.664,0.664 1.74,0.665 2.404,0"
             style="fill:#ffffff;fill-opacity:1;fill-rule:evenodd;stroke:none"
             id="path5201" /></g><g
           id="g5203"
           transform="translate(42.4961,40.2219)"><path
             d="m 0,0 c 0.664,-0.663 0.664,-1.741 0,-2.404 -0.664,-0.665 -1.742,-0.664 -2.404,-10e-4 -0.664,0.664 -0.664,1.74 0,2.405 0.664,0.663 1.74,0.664 2.404,0"
             style="fill:#ffffff;fill-opacity:1;fill-rule:evenodd;stroke:none"
             id="path5205" /></g><g
           id="g5207"
           transform="translate(45.502,43.2287)"><path
             d="m 0,0 c 0.664,-0.664 0.664,-1.741 0,-2.404 -0.664,-0.664 -1.74,-0.664 -2.404,0 -0.664,0.664 -0.664,1.74 0,2.404 0.664,0.663 1.74,0.664 2.404,0"
             style="fill:#ffffff;fill-opacity:1;fill-rule:evenodd;stroke:none"
             id="path5209" /></g><g
           id="g5211"
           transform="translate(48.5098,46.2346)"><path
             d="m 0,0 c 0.662,-0.663 0.662,-1.74 0,-2.404 -0.666,-0.664 -1.742,-0.664 -2.406,0 C -3.07,-1.74 -3.07,-0.664 -2.404,0 -1.742,0.664 -0.664,0.664 0,0"
             style="fill:#ffffff;fill-opacity:1;fill-rule:evenodd;stroke:none"
             id="path5213" /></g><g
           id="g5215"
           transform="translate(51.5157,49.2414)"><path
             d="m 0,0 c 0.664,-0.663 0.664,-1.741 0,-2.404 -0.664,-0.664 -1.74,-0.663 -2.404,0 -0.664,0.664 -0.664,1.74 0,2.404 0.664,0.663 1.74,0.664 2.404,0"
             style="fill:#ffffff;fill-opacity:1;fill-rule:evenodd;stroke:none"
             id="path5217" /></g><g
           id="g5219"
           transform="translate(54.5215,52.2482)"><path
             d="m 0,0 c 0.664,-0.664 0.664,-1.74 0,-2.404 -0.664,-0.664 -1.74,-0.664 -2.404,0 -0.664,0.664 -0.664,1.74 0,2.404 0.664,0.664 1.74,0.664 2.404,0"
             style="fill:#ffffff;fill-opacity:1;fill-rule:evenodd;stroke:none"
             id="path5221" /></g><g
           id="g5223"
           transform="translate(57.5293,55.2541)"><path
             d="m 0,0 c 0.662,-0.663 0.662,-1.74 0,-2.404 -0.664,-0.664 -1.742,-0.663 -2.404,0 -0.664,0.664 -0.664,1.74 0,2.404 0.662,0.664 1.74,0.664 2.404,0"
             style="fill:#ffffff;fill-opacity:1;fill-rule:evenodd;stroke:none"
             id="path5225" /></g><g
           id="g5227"
           transform="translate(60.5352,58.2619)"><path
             d="m 0,0 c 0.664,-0.664 0.664,-1.741 0,-2.405 -0.664,-0.664 -1.74,-0.663 -2.404,0 -0.664,0.664 -0.664,1.74 0,2.404 C -1.74,0.663 -0.664,0.664 0,0"
             style="fill:#ffffff;fill-opacity:1;fill-rule:evenodd;stroke:none"
             id="path5229" /></g><g
           id="g5231"
           transform="translate(63.543,61.2687)"><path
             d="m 0,0 c 0.664,-0.663 0.662,-1.741 -0.002,-2.405 -0.664,-0.664 -1.74,-0.664 -2.404,0 -0.664,0.664 -0.664,1.74 0,2.404 C -1.742,0.663 -0.664,0.664 0,0"
             style="fill:#ffffff;fill-opacity:1;fill-rule:evenodd;stroke:none"
             id="path5233" /></g><g
           id="g5235"
           transform="translate(66.5489,64.2756)"><path
             d="m 0,0 c 0.664,-0.664 0.664,-1.741 0,-2.406 -0.664,-0.664 -1.742,-0.663 -2.404,0 -0.664,0.664 -0.664,1.74 0,2.404 C -1.74,0.663 -0.664,0.664 0,0"
             style="fill:#ffffff;fill-opacity:1;fill-rule:evenodd;stroke:none"
             id="path5237" /></g><g
           id="g5239"
           transform="translate(48.5098,40.2209)"><path
             d="m 0,0 c 0.662,-0.663 0.662,-1.74 0,-2.404 -0.664,-0.664 -1.742,-0.663 -2.404,0 C -3.07,-1.739 -3.07,-0.663 -2.406,0.001 -1.742,0.664 -0.666,0.665 0,0"
             style="fill:#ffffff;fill-opacity:1;fill-rule:evenodd;stroke:none"
             id="path5241" /></g><g
           id="g5243"
           transform="translate(51.5157,43.2287)"><path
             d="M 0,0 C 0.664,-0.664 0.664,-1.741 0,-2.404 -0.664,-3.069 -1.74,-3.068 -2.404,-2.405 -3.068,-1.74 -3.068,-0.664 -2.404,0 -1.74,0.664 -0.664,0.664 0,0"
             style="fill:#ffffff;fill-opacity:1;fill-rule:evenodd;stroke:none"
             id="path5245" /></g><g
           id="g5247"
           transform="translate(54.5215,46.2346)"><path
             d="m 0,0 c 0.664,-0.664 0.664,-1.74 0,-2.404 -0.664,-0.664 -1.74,-0.664 -2.404,0 -0.664,0.664 -0.664,1.74 0,2.404 0.664,0.664 1.74,0.664 2.404,0"
             style="fill:#ffffff;fill-opacity:1;fill-rule:evenodd;stroke:none"
             id="path5249" /></g><g
           id="g5251"
           transform="translate(57.5293,49.2414)"><path
             d="m 0,0 c 0.664,-0.663 0.664,-1.741 0,-2.405 -0.664,-0.664 -1.742,-0.663 -2.404,0 C -3.07,-1.74 -3.07,-0.664 -2.406,0 -1.742,0.664 -0.664,0.665 0,0"
             style="fill:#ffffff;fill-opacity:1;fill-rule:evenodd;stroke:none"
             id="path5253" /></g><g
           id="g5255"
           transform="translate(60.5352,52.2482)"><path
             d="m 0,0 c 0.664,-0.664 0.664,-1.741 0,-2.404 -0.664,-0.664 -1.74,-0.664 -2.404,0 -0.664,0.664 -0.664,1.74 0,2.404 0.664,0.664 1.74,0.664 2.404,0"
             style="fill:#ffffff;fill-opacity:1;fill-rule:evenodd;stroke:none"
             id="path5257" /></g><g
           id="g5259"
           transform="translate(63.543,55.2551)"><path
             d="m 0,0 c 0.664,-0.663 0.662,-1.741 -0.002,-2.405 -0.664,-0.664 -1.74,-0.664 -2.404,0 -0.664,0.664 -0.664,1.74 0,2.404 C -1.742,0.663 -0.664,0.665 0,0"
             style="fill:#ffffff;fill-opacity:1;fill-rule:evenodd;stroke:none"
             id="path5261" /></g><g
           id="g5263"
           transform="translate(66.5489,58.2619)"><path
             d="m 0,0 c 0.664,-0.664 0.664,-1.741 0,-2.405 -0.664,-0.665 -1.74,-0.663 -2.404,0 -0.664,0.665 -0.666,1.74 0,2.405 0.664,0.664 1.74,0.664 2.404,0"
             style="fill:#ffffff;fill-opacity:1;fill-rule:evenodd;stroke:none"
             id="path5265" /></g><g
           id="g5267"
           transform="translate(54.5215,40.2219)"><path
             d="m 0,0 c 0.664,-0.663 0.664,-1.741 0,-2.404 -0.664,-0.665 -1.74,-0.664 -2.404,-10e-4 -0.664,0.664 -0.664,1.74 0,2.405 0.664,0.663 1.74,0.664 2.404,0"
             style="fill:#ffffff;fill-opacity:1;fill-rule:evenodd;stroke:none"
             id="path5269" /></g><g
           id="g5271"
           transform="translate(57.5293,43.2287)"><path
             d="m 0,0 c 0.662,-0.664 0.662,-1.741 0,-2.404 -0.664,-0.664 -1.742,-0.664 -2.404,0 -0.664,0.664 -0.664,1.74 0,2.404 0.662,0.663 1.74,0.664 2.404,0"
             style="fill:#ffffff;fill-opacity:1;fill-rule:evenodd;stroke:none"
             id="path5273" /></g><g
           id="g5275"
           transform="translate(60.5352,46.2346)"><path
             d="m 0,0 c 0.664,-0.663 0.664,-1.74 0,-2.404 -0.664,-0.664 -1.74,-0.664 -2.404,0 -0.664,0.664 -0.664,1.74 0,2.404 0.664,0.664 1.74,0.664 2.404,0"
             style="fill:#ffffff;fill-opacity:1;fill-rule:evenodd;stroke:none"
             id="path5277" /></g><g
           id="g5279"
           transform="translate(63.5411,49.2414)"><path
             d="m 0,0 c 0.664,-0.663 0.664,-1.741 0,-2.404 -0.664,-0.664 -1.74,-0.663 -2.404,0 -0.664,0.664 -0.664,1.74 0,2.404 0.664,0.663 1.74,0.664 2.404,0"
             style="fill:#ffffff;fill-opacity:1;fill-rule:evenodd;stroke:none"
             id="path5281" /></g><g
           id="g5283"
           transform="translate(66.5489,52.2482)"><path
             d="m 0,0 c 0.664,-0.663 0.664,-1.74 0,-2.404 -0.664,-0.664 -1.742,-0.664 -2.404,0 -0.664,0.664 -0.664,1.74 0,2.404 0.664,0.664 1.74,0.664 2.404,0"
             style="fill:#ffffff;fill-opacity:1;fill-rule:evenodd;stroke:none"
             id="path5285" /></g><g
           id="g5287"
           transform="translate(60.5352,40.2209)"><path
             d="m 0,0 c 0.664,-0.663 0.664,-1.74 0,-2.404 -0.664,-0.664 -1.74,-0.663 -2.404,0 -0.664,0.665 -0.664,1.741 0,2.405 C -1.74,0.664 -0.664,0.665 0,0"
             style="fill:#ffffff;fill-opacity:1;fill-rule:evenodd;stroke:none"
             id="path5289" /></g><g
           id="g5291"
           transform="translate(63.543,43.2287)"><path
             d="m 0,0 c 0.662,-0.664 0.662,-1.741 -0.002,-2.405 -0.664,-0.664 -1.74,-0.663 -2.404,0 -0.664,0.665 -0.664,1.741 0,2.405 0.664,0.664 1.74,0.664 2.406,0"
             style="fill:#ffffff;fill-opacity:1;fill-rule:evenodd;stroke:none"
             id="path5293" /></g><g
           id="g5295"
           transform="translate(66.5489,46.2346)"><path
             d="m 0,0 c 0.664,-0.664 0.664,-1.74 0,-2.404 -0.664,-0.664 -1.74,-0.664 -2.404,0 -0.664,0.664 -0.664,1.74 0,2.404 0.662,0.664 1.74,0.664 2.404,0"
             style="fill:#ffffff;fill-opacity:1;fill-rule:evenodd;stroke:none"
             id="path5297" /></g><g
           id="g5299"
           transform="translate(66.5489,40.2219)"><path
             d="m 0,0 c 0.664,-0.663 0.664,-1.741 0,-2.405 -0.664,-0.664 -1.742,-0.663 -2.404,0 -0.664,0.664 -0.664,1.74 0,2.404 C -1.74,0.663 -0.664,0.664 0,0"
             style="fill:#ffffff;fill-opacity:1;fill-rule:evenodd;stroke:none"
             id="path5301" /></g></g></g><g
       id="g5303"><g
         id="g5305"
         clip-path="url(#clipPath5309)"><path
           d="M 16.725,23.244 H 56.41 V 0.567 H 16.725 Z"
           style="fill:none;stroke:#312783;stroke-width:1.134;stroke-linecap:butt;stroke-linejoin:miter;stroke-miterlimit:22.926;stroke-dasharray:none;stroke-opacity:1"
           id="path5311" /></g></g><path
       d="M 35.667,18.993 H 49.841 V 4.819 H 35.667 Z"
       style="fill:#eab983;fill-opacity:1;fill-rule:evenodd;stroke:none"
       id="path5313" /><g
       id="g5315"><g
         id="g5317"
         clip-path="url(#clipPath5321)"><g
           id="g5323"
           transform="translate(49.8868,13.1516)"><path
             d="m 0,0 c 0.664,-0.662 0.664,-1.74 0,-2.404 -0.666,-0.664 -1.742,-0.664 -2.404,0 -0.664,0.664 -0.666,1.74 0,2.404 0.664,0.664 1.74,0.664 2.404,0"
             style="fill:#ffffff;fill-opacity:1;fill-rule:evenodd;stroke:none"
             id="path5325" /></g><g
           id="g5327"
           transform="translate(49.8868,7.1398)"><path
             d="m 0,0 c 0.664,-0.664 0.664,-1.742 0,-2.406 -0.664,-0.664 -1.742,-0.664 -2.404,0 -0.666,0.664 -0.666,1.74 -0.002,2.404 C -1.74,0.664 -0.664,0.664 0,0"
             style="fill:#ffffff;fill-opacity:1;fill-rule:evenodd;stroke:none"
             id="path5329" /></g><g
           id="g5331"
           transform="translate(34.8536,22.173)"><path
             d="m 0,0 c 0.664,-0.664 0.664,-1.742 0,-2.406 -0.664,-0.664 -1.742,-0.664 -2.404,0 -0.664,0.664 -0.664,1.74 0,2.404 C -1.74,0.662 -0.664,0.664 0,0"
             style="fill:#ffffff;fill-opacity:1;fill-rule:evenodd;stroke:none"
             id="path5333" /></g><g
           id="g5335"
           transform="translate(34.8536,16.1594)"><path
             d="m 0,0 c 0.664,-0.664 0.664,-1.742 0,-2.406 -0.664,-0.664 -1.74,-0.662 -2.404,0 -0.664,0.666 -0.666,1.74 0,2.406 0.664,0.664 1.74,0.664 2.404,0"
             style="fill:#ffffff;fill-opacity:1;fill-rule:evenodd;stroke:none"
             id="path5337" /></g><g
           id="g5339"
           transform="translate(37.8614,19.1652)"><path
             d="m 0,0 c 0.662,-0.664 0.662,-1.74 -0.002,-2.404 -0.664,-0.664 -1.74,-0.664 -2.404,0 -0.664,0.664 -0.664,1.74 0,2.404 0.664,0.664 1.74,0.664 2.406,0"
             style="fill:#ffffff;fill-opacity:1;fill-rule:evenodd;stroke:none"
             id="path5341" /></g><g
           id="g5343"
           transform="translate(40.8672,22.1711)"><path
             d="m 0,0 c 0.664,-0.662 0.664,-1.74 0,-2.404 -0.666,-0.664 -1.742,-0.664 -2.404,0 C -3.07,-1.74 -3.07,-0.664 -2.406,0 -1.742,0.664 -0.664,0.666 0,0"
             style="fill:#ffffff;fill-opacity:1;fill-rule:evenodd;stroke:none"
             id="path5345" /></g><g
           id="g5347"
           transform="translate(34.8536,10.1457)"><path
             d="m 0,0 c 0.664,-0.664 0.664,-1.74 0,-2.404 -0.664,-0.664 -1.742,-0.664 -2.404,0 -0.664,0.664 -0.664,1.74 0,2.404 0.664,0.664 1.74,0.664 2.404,0"
             style="fill:#ffffff;fill-opacity:1;fill-rule:evenodd;stroke:none"
             id="path5349" /></g><g
           id="g5351"
           transform="translate(37.8614,13.1535)"><path
             d="m 0,0 c 0.662,-0.664 0.662,-1.742 -0.002,-2.406 -0.664,-0.664 -1.74,-0.664 -2.404,0 -0.664,0.664 -0.664,1.74 0,2.404 C -1.742,0.662 -0.664,0.664 0,0"
             style="fill:#ffffff;fill-opacity:1;fill-rule:evenodd;stroke:none"
             id="path5353" /></g><g
           id="g5355"
           transform="translate(40.8672,16.1594)"><path
             d="m 0,0 c 0.664,-0.664 0.664,-1.74 -0.002,-2.406 -0.664,-0.664 -1.74,-0.662 -2.404,0 -0.664,0.664 -0.664,1.74 0,2.404 C -1.74,0.664 -0.664,0.664 0,0"
             style="fill:#ffffff;fill-opacity:1;fill-rule:evenodd;stroke:none"
             id="path5357" /></g><g
           id="g5359"
           transform="translate(43.8731,19.1652)"><path
             d="m 0,0 c 0.664,-0.664 0.664,-1.74 0,-2.404 -0.664,-0.664 -1.74,-0.664 -2.404,0 -0.664,0.664 -0.664,1.74 0,2.404 0.664,0.664 1.74,0.664 2.404,0"
             style="fill:#ffffff;fill-opacity:1;fill-rule:evenodd;stroke:none"
             id="path5361" /></g><g
           id="g5363"
           transform="translate(46.8809,22.173)"><path
             d="m 0,0 c 0.662,-0.664 0.662,-1.742 -0.002,-2.406 -0.664,-0.664 -1.74,-0.664 -2.404,0 -0.664,0.664 -0.664,1.74 0,2.404 C -1.742,0.662 -0.664,0.664 0,0"
             style="fill:#ffffff;fill-opacity:1;fill-rule:evenodd;stroke:none"
             id="path5365" /></g><g
           id="g5367"
           transform="translate(34.8536,4.132)"><path
             d="m 0,0 c 0.664,-0.664 0.664,-1.74 0,-2.404 -0.664,-0.664 -1.74,-0.664 -2.404,0 -0.664,0.664 -0.664,1.74 0,2.404 0.662,0.664 1.74,0.664 2.404,0"
             style="fill:#ffffff;fill-opacity:1;fill-rule:evenodd;stroke:none"
             id="path5369" /></g><g
           id="g5371"
           transform="translate(37.8614,7.1398)"><path
             d="m 0,0 c 0.662,-0.664 0.662,-1.742 -0.002,-2.406 -0.664,-0.664 -1.74,-0.664 -2.404,0 -0.664,0.664 -0.664,1.74 0,2.404 C -1.742,0.662 -0.666,0.664 0,0"
             style="fill:#ffffff;fill-opacity:1;fill-rule:evenodd;stroke:none"
             id="path5373" /></g><g
           id="g5375"
           transform="translate(40.8672,10.1457)"><path
             d="m 0,0 c 0.664,-0.664 0.664,-1.74 0,-2.404 -0.666,-0.666 -1.742,-0.664 -2.404,0 C -3.07,-1.74 -3.07,-0.664 -2.406,0 -1.742,0.664 -0.664,0.664 0,0"
             style="fill:#ffffff;fill-opacity:1;fill-rule:evenodd;stroke:none"
             id="path5377" /></g><g
           id="g5379"
           transform="translate(43.8731,13.1516)"><path
             d="m 0,0 c 0.664,-0.662 0.664,-1.74 0,-2.404 -0.664,-0.664 -1.74,-0.664 -2.404,0 -0.664,0.664 -0.664,1.74 0,2.404 0.664,0.664 1.74,0.666 2.404,0"
             style="fill:#ffffff;fill-opacity:1;fill-rule:evenodd;stroke:none"
             id="path5381" /></g><g
           id="g5383"
           transform="translate(46.8809,16.1594)"><path
             d="m 0,0 c 0.662,-0.664 0.662,-1.742 -0.002,-2.406 -0.664,-0.664 -1.74,-0.662 -2.404,0 -0.664,0.666 -0.664,1.74 0,2.406 0.664,0.664 1.74,0.664 2.406,0"
             style="fill:#ffffff;fill-opacity:1;fill-rule:evenodd;stroke:none"
             id="path5385" /></g><g
           id="g5387"
           transform="translate(49.8868,19.1652)"><path
             d="m 0,0 c 0.664,-0.664 0.664,-1.74 0,-2.404 -0.664,-0.664 -1.742,-0.664 -2.404,0 C -3.07,-1.74 -3.07,-0.664 -2.406,0 -1.74,0.664 -0.664,0.664 0,0"
             style="fill:#ffffff;fill-opacity:1;fill-rule:evenodd;stroke:none"
             id="path5389" /></g><g
           id="g5391"
           transform="translate(52.8926,22.1711)"><path
             d="m 0,0 c 0.664,-0.662 0.664,-1.74 0,-2.404 -0.664,-0.664 -1.74,-0.664 -2.404,0 -0.664,0.664 -0.664,1.74 0,2.404 0.664,0.664 1.74,0.666 2.404,0"
             style="fill:#ffffff;fill-opacity:1;fill-rule:evenodd;stroke:none"
             id="path5393" /></g><g
           id="g5395"
           transform="translate(37.8594,1.1262)"><path
             d="m 0,0 c 0.664,-0.664 0.664,-1.742 0,-2.404 -0.664,-0.664 -1.74,-0.664 -2.404,0 -0.664,0.664 -0.664,1.74 0,2.404 0.664,0.662 1.74,0.664 2.404,0"
             style="fill:#ffffff;fill-opacity:1;fill-rule:evenodd;stroke:none"
             id="path5397" /></g><g
           id="g5399"
           transform="translate(40.8672,4.132)"><path
             d="m 0,0 c 0.664,-0.662 0.662,-1.74 -0.002,-2.404 -0.664,-0.664 -1.74,-0.664 -2.404,0 -0.664,0.664 -0.664,1.74 0,2.404 0.664,0.664 1.742,0.664 2.406,0"
             style="fill:#ffffff;fill-opacity:1;fill-rule:evenodd;stroke:none"
             id="path5401" /></g><g
           id="g5403"
           transform="translate(43.8731,7.1398)"><path
             d="m 0,0 c 0.664,-0.664 0.664,-1.742 0,-2.406 -0.664,-0.664 -1.74,-0.662 -2.404,0 -0.664,0.664 -0.664,1.74 0,2.404 C -1.74,0.662 -0.664,0.664 0,0"
             style="fill:#ffffff;fill-opacity:1;fill-rule:evenodd;stroke:none"
             id="path5405" /></g><g
           id="g5407"
           transform="translate(46.8809,10.1457)"><path
             d="m 0,0 c 0.662,-0.664 0.662,-1.74 -0.002,-2.404 -0.664,-0.664 -1.74,-0.664 -2.404,0 -0.664,0.664 -0.664,1.74 0,2.404 0.664,0.664 1.742,0.664 2.406,0"
             style="fill:#ffffff;fill-opacity:1;fill-rule:evenodd;stroke:none"
             id="path5409" /></g><g
           id="g5411"
           transform="translate(52.8926,16.1594)"><path
             d="m 0,0 c 0.664,-0.664 0.664,-1.74 0,-2.406 -0.664,-0.664 -1.74,-0.662 -2.404,0 -0.664,0.664 -0.664,1.74 0,2.404 C -1.74,0.664 -0.664,0.664 0,0"
             style="fill:#ffffff;fill-opacity:1;fill-rule:evenodd;stroke:none"
             id="path5413" /></g><g
           id="g5415"
           transform="translate(43.8731,1.1262)"><path
             d="m 0,0 c 0.664,-0.664 0.664,-1.742 0,-2.406 -0.664,-0.664 -1.74,-0.662 -2.404,0 -0.664,0.666 -0.664,1.742 0,2.406 0.664,0.664 1.74,0.664 2.404,0"
             style="fill:#ffffff;fill-opacity:1;fill-rule:evenodd;stroke:none"
             id="path5417" /></g><g
           id="g5419"
           transform="translate(46.8809,4.132)"><path
             d="m 0,0 c 0.664,-0.662 0.662,-1.74 -0.002,-2.404 -0.664,-0.664 -1.74,-0.664 -2.404,0 -0.664,0.664 -0.664,1.74 0,2.404 0.664,0.664 1.742,0.666 2.406,0"
             style="fill:#ffffff;fill-opacity:1;fill-rule:evenodd;stroke:none"
             id="path5421" /></g><g
           id="g5423"
           transform="translate(52.8926,10.1457)"><path
             d="m 0,0 c 0.664,-0.664 0.664,-1.74 0,-2.404 -0.664,-0.666 -1.74,-0.664 -2.404,0 -0.664,0.664 -0.664,1.74 0,2.404 0.664,0.664 1.74,0.664 2.404,0"
             style="fill:#ffffff;fill-opacity:1;fill-rule:evenodd;stroke:none"
             id="path5425" /></g><g
           id="g5427"
           transform="translate(49.8868,1.1262)"><path
             d="m 0,0 c 0.664,-0.664 0.664,-1.74 0,-2.404 -0.666,-0.666 -1.742,-0.664 -2.404,0 -0.664,0.664 -0.666,1.738 0,2.404 0.664,0.664 1.74,0.664 2.404,0"
             style="fill:#ffffff;fill-opacity:1;fill-rule:evenodd;stroke:none"
             id="path5429" /></g><g
           id="g5431"
           transform="translate(52.8926,4.132)"><path
             d="m 0,0 c 0.664,-0.662 0.664,-1.74 0,-2.404 -0.664,-0.664 -1.74,-0.664 -2.404,0 -0.664,0.664 -0.664,1.74 0,2.404 0.664,0.664 1.74,0.664 2.404,0"
             style="fill:#ffffff;fill-opacity:1;fill-rule:evenodd;stroke:none"
             id="path5433" /></g></g></g><text
       transform="matrix(1,0,0,-1,55.7494,29.0349)"
       style="font-variant:normal;font-weight:normal;font-stretch:semi-condensed;font-size:6.9997px;font-family:'Arial Narrow';-inkscape-font-specification:ArialNarrow;writing-mode:lr-tb;fill:#e30613;fill-opacity:1;fill-rule:nonzero;stroke:none"
       id="text5437"><tspan
         x="0 3.1918633 4.7877946 7.9796581 11.171521 12.767453 14.67837 18.822193 22.966015"
         y="0"
         sodipodi:role="line"
         id="tspan5435">0.75 (CC)</tspan></text><text
       transform="matrix(1,0,0,-1,17.895022,31.708785)"
       style="font-variant:normal;font-weight:normal;font-stretch:normal;font-size:6.9997px;font-family:Arial;-inkscape-font-specification:ArialMT;writing-mode:lr-tb;fill:#e30613;fill-opacity:1;fill-rule:nonzero;stroke:none"
       id="text5441"><tspan
         x="0"
         y="0"
         id="tspan5439">ø</tspan></text><text
       transform="matrix(1,0,0,-1,23.767771,31.708785)"
       style="font-variant:normal;font-weight:normal;font-stretch:semi-condensed;font-size:6.9997px;font-family:'Arial Narrow';-inkscape-font-specification:ArialNarrow;writing-mode:lr-tb;fill:#e30613;fill-opacity:1;fill-rule:nonzero;stroke:none"
       id="text5445"><tspan
         x="0 3.1918633 4.7877946"
         y="0"
         sodipodi:role="line"
         id="tspan5443">0.6</tspan></text><g
       id="g5447"
       transform="translate(54.3282,38.0607)"><path
         d="M 0,0 2.842,-2.842"
         style="fill:none;stroke:#e30613;stroke-width:0.283;stroke-linecap:butt;stroke-linejoin:miter;stroke-miterlimit:22.926;stroke-dasharray:none;stroke-opacity:1"
         id="path5449" /></g><g
       id="g5451"
       transform="translate(59.9805,38.1652)"><path
         d="M 0,0 2.842,-2.843"
         style="fill:none;stroke:#e30613;stroke-width:0.283;stroke-linecap:butt;stroke-linejoin:miter;stroke-miterlimit:22.926;stroke-dasharray:none;stroke-opacity:1"
         id="path5453" /></g><text
       transform="matrix(1,0,0,-1,70.704,54.9409)"
       style="font-variant:normal;font-weight:normal;font-stretch:semi-condensed;font-size:6.9997px;font-family:'Arial Narrow';-inkscape-font-specification:ArialNarrow;writing-mode:lr-tb;fill:#e30613;fill-opacity:1;fill-rule:nonzero;stroke:none"
       id="text5457"><tspan
         x="0 3.1918633 6.3837266"
         y="0"
         sodipodi:role="line"
         id="tspan5455">30%</tspan></text><g
       id="g5459"><g
         id="g5461"
         clip-path="url(#clipPath5465)"><text
           transform="matrix(1,0,0,-1,68.7933,46.5416)"
           style="font-variant:normal;font-weight:normal;font-stretch:semi-condensed;font-size:6.9997px;font-family:'Arial Narrow';-inkscape-font-specification:ArialNarrow;writing-mode:lr-tb;fill:#e30613;fill-opacity:1;fill-rule:nonzero;stroke:none"
           id="text5469"><tspan
             x="0 1.9109181 5.1027813 8.2946444 13.397426"
             y="0"
             sodipodi:role="line"
             id="tspan5467">(50%)</tspan></text></g></g><text
       transform="matrix(1,0,0,-1,39.9702,29.4654)"
       style="font-variant:normal;font-weight:normal;font-stretch:semi-condensed;font-size:6.9997px;font-family:'Arial Narrow';-inkscape-font-specification:ArialNarrow;writing-mode:lr-tb;fill:#e30613;fill-opacity:1;fill-rule:nonzero;stroke:none"
       id="text5473"><tspan
         x="0 3.1918633 6.3837266"
         y="0"
         sodipodi:role="line"
         id="tspan5471">45º</tspan></text><g
       id="g5475"
       transform="translate(46.6045,38.1652)"><path
         d="M 0,0 -2.338,-2.338 H 0"
         style="fill:none;stroke:#e30613;stroke-width:0.283;stroke-linecap:butt;stroke-linejoin:miter;stroke-miterlimit:22.926;stroke-dasharray:none;stroke-opacity:1"
         id="path5477" /></g><text
       transform="matrix(1,0,0,-1,20.9609,9.9463)"
       style="font-variant:normal;font-weight:normal;font-stretch:semi-condensed;font-size:7px;font-family:'Arial Narrow';-inkscape-font-specification:ArialNarrow;writing-mode:lr-tb;fill:#e30613;fill-opacity:1;fill-rule:nonzero;stroke:none"
       id="text5481"><tspan
         x="0 4.7810001 6.0549998 9.2469997"
         y="0"
         sodipodi:role="line"
         id="tspan5479">min.</tspan></text></g></svg>
