<?xml version="1.0" encoding="UTF-8" standalone="no"?>
<!-- Created with Inkscape (http://www.inkscape.org/) -->

<svg
   version="1.1"
   id="svg11996"
   xml:space="preserve"
   width="100.0216"
   height="62.7668"
   viewBox="0 0 100.0216 62.7668"
   sodipodi:docname="ISSprOM 513.1 Passable wall.svg"
   inkscape:version="1.1.1 (3bf5ae0d25, 2021-09-20)"
   xmlns:inkscape="http://www.inkscape.org/namespaces/inkscape"
   xmlns:sodipodi="http://sodipodi.sourceforge.net/DTD/sodipodi-0.dtd"
   xmlns="http://www.w3.org/2000/svg"
   xmlns:svg="http://www.w3.org/2000/svg">
  <rect width="100%" height="100%" fill="white"/>
<defs
     id="defs12000"><clipPath
       clipPathUnits="userSpaceOnUse"
       id="clipPath12010"><path
         d="M 0,47.075 H 75.016 V 0 H 0 Z"
         id="path12008" /></clipPath></defs><sodipodi:namedview
     id="namedview11998"
     pagecolor="#ffffff"
     bordercolor="#666666"
     borderopacity="1.0"
     inkscape:pageshadow="2"
     inkscape:pageopacity="0.0"
     inkscape:pagecheckerboard="0"
     showgrid="false"
     inkscape:zoom="13.303211"
     inkscape:cx="50.025515"
     inkscape:cy="31.3834"
     inkscape:window-width="1920"
     inkscape:window-height="1017"
     inkscape:window-x="-8"
     inkscape:window-y="-8"
     inkscape:window-maximized="1"
     inkscape:current-layer="g12002" /><g
     id="g12002"
     inkscape:groupmode="layer"
     inkscape:label="ISSprOM 513.1 Passable wall"
     transform="matrix(1.3333333,0,0,-1.3333333,0,62.7668)"><g
       id="g12004"><g
         id="g12006"
         clip-path="url(#clipPath12010)"><g
           id="g12012"
           transform="translate(35.4326,9.3538)"><path
             d="M 0,0 C 0.939,0 1.701,-0.762 1.701,-1.702 1.701,-2.64 0.939,-3.401 0,-3.401 c -0.939,0 -1.7,0.761 -1.7,1.699 C -1.7,-0.762 -0.939,0 0,0"
             style="fill:#1d1d1b;fill-opacity:1;fill-rule:evenodd;stroke:none"
             id="path12014" /></g><g
           id="g12016"
           transform="translate(0,33.3606)"><path
             d="M 0,0 H 56.693"
             style="fill:none;stroke:#1d1d1b;stroke-width:1.191;stroke-linecap:butt;stroke-linejoin:miter;stroke-miterlimit:22.926;stroke-dasharray:none;stroke-opacity:1"
             id="path12018" /></g><g
           id="g12020"
           transform="translate(5.6686,35.0628)"><path
             d="M 0,0 C 0.938,0 1.7,-0.762 1.7,-1.702 1.7,-2.64 0.938,-3.401 0,-3.401 c -0.939,0 -1.701,0.761 -1.701,1.699 C -1.701,-0.762 -0.939,0 0,0"
             style="fill:#1d1d1b;fill-opacity:1;fill-rule:evenodd;stroke:none"
             id="path12022" /></g><g
           id="g12024"
           transform="translate(26.9274,35.0628)"><path
             d="M 0,0 C 0.939,0 1.701,-0.762 1.701,-1.702 1.701,-2.64 0.939,-3.401 0,-3.401 c -0.938,0 -1.7,0.761 -1.7,1.699 C -1.7,-0.762 -0.938,0 0,0"
             style="fill:#1d1d1b;fill-opacity:1;fill-rule:evenodd;stroke:none"
             id="path12026" /></g><g
           id="g12028"
           transform="translate(48.1881,35.0628)"><path
             d="M 0,0 C 0.939,0 1.7,-0.762 1.7,-1.702 1.7,-2.64 0.939,-3.401 0,-3.401 c -0.939,0 -1.701,0.761 -1.701,1.699 C -1.701,-0.762 -0.939,0 0,0"
             style="fill:#1d1d1b;fill-opacity:1;fill-rule:evenodd;stroke:none"
             id="path12030" /></g><path
           d="M 11.338,14.74 H 45.354 V 0.567 H 11.338 Z"
           style="fill:none;stroke:#312783;stroke-width:1.134;stroke-linecap:butt;stroke-linejoin:miter;stroke-miterlimit:22.926;stroke-dasharray:none;stroke-opacity:1"
           id="path12032" /><g
           id="g12034"
           transform="translate(31.4646,7.551)"><path
             d="M 0,0 H 7.937"
             style="fill:none;stroke:#1d1d1b;stroke-width:1.191;stroke-linecap:butt;stroke-linejoin:miter;stroke-miterlimit:22.926;stroke-dasharray:none;stroke-opacity:1"
             id="path12036" /></g><text
           transform="matrix(1,0,0,-1,63.8435,30.9633)"
           style="font-variant:normal;font-weight:normal;font-stretch:semi-condensed;font-size:6.9997px;font-family:'Arial Narrow';-inkscape-font-specification:ArialNarrow;writing-mode:lr-tb;fill:#e30613;fill-opacity:1;fill-rule:nonzero;stroke:none"
           id="text12042"><tspan
             x="0 3.1918633 4.7877946 7.9796581"
             y="0"
             sodipodi:role="line"
             id="tspan12038">0.21</tspan><tspan
             x="-53.589703 -50.397839 -48.801907 -45.610046 -42.418182 -40.82225 -38.911331 -34.767509 -30.623688"
             y="-10.107567"
             sodipodi:role="line"
             id="tspan12040">3.75 (CC)</tspan></text><g
           id="g12044"
           transform="translate(48.1881,27.5178)"><path
             d="M 0,0 V 3.825"
             style="fill:none;stroke:#e30613;stroke-width:0.283;stroke-linecap:butt;stroke-linejoin:miter;stroke-miterlimit:22.926;stroke-dasharray:none;stroke-opacity:1"
             id="path12046" /></g><g
           id="g12048"
           transform="translate(26.9283,36.0706)"><path
             d="M 0,0 V 3.064"
             style="fill:none;stroke:#e30613;stroke-width:0.283;stroke-linecap:butt;stroke-linejoin:miter;stroke-miterlimit:22.926;stroke-dasharray:none;stroke-opacity:1"
             id="path12050" /></g><g
           id="g12052"
           transform="translate(5.6608,36.0706)"><path
             d="M 0,0 V 3.064"
             style="fill:none;stroke:#e30613;stroke-width:0.283;stroke-linecap:butt;stroke-linejoin:miter;stroke-miterlimit:22.926;stroke-dasharray:none;stroke-opacity:1"
             id="path12054" /></g></g></g><text
       transform="matrix(1,0,0,-1,38.8021,21.0453)"
       style="font-variant:normal;font-weight:normal;font-stretch:normal;font-size:6.9997px;font-family:Arial;-inkscape-font-specification:ArialMT;writing-mode:lr-tb;fill:#e30613;fill-opacity:1;fill-rule:nonzero;stroke:none"
       id="text12058"><tspan
         x="0"
         y="0"
         id="tspan12056">ø</tspan></text><text
       transform="matrix(1,0,0,-1,44.674848,21.0453)"
       style="font-variant:normal;font-weight:normal;font-stretch:semi-condensed;font-size:6.9997px;font-family:'Arial Narrow';-inkscape-font-specification:ArialNarrow;writing-mode:lr-tb;fill:#e30613;fill-opacity:1;fill-rule:nonzero;stroke:none"
       id="text12064"><tspan
         x="0 3.1918633 4.7877946"
         y="0"
         sodipodi:role="line"
         id="tspan12060">0.6</tspan><tspan
         x="-26.752853 -21.972059 -20.698112 -17.50625"
         y="15.357342"
         sodipodi:role="line"
         id="tspan12062">min.</tspan></text></g></svg>
