<?xml version="1.0" encoding="UTF-8" standalone="no"?>
<svg xmlns:inkscape="http://www.inkscape.org/namespaces/inkscape" xmlns:sodipodi="http://sodipodi.sourceforge.net/DTD/sodipodi-0.dtd" xmlns="http://www.w3.org/2000/svg" xmlns:svg="http://www.w3.org/2000/svg" version="1.1" id="svg18320" width="100.02107" height="62.2644" viewBox="0 0 100.02107 62.2644" sodipodi:docname="ISSprOM 513.2 Passable retained wall.svg" inkscape:version="1.2.2 (732a01da63, 2022-12-09)">
  <defs id="defs18324">
    <clipPath id="clipPath18336">
      <path d="M 0,46.698 H 75.016 V 0 H 0 Z" id="path18334"></path>
    </clipPath>
  </defs>
  <g id="g18328" inkscape:groupmode="layer" inkscape:label="Page 1" transform="matrix(1.3333333,0,0,-1.3333333,0,62.2644)">
    <g id="g18330">
      <g id="g18332" clip-path="url(#clipPath18336)">
        <g id="g18338" transform="translate(0,32.9846)">
          <path d="M 0,0 H 56.693" style="fill:none;stroke:#1d1d1b;stroke-width:1.191;stroke-linecap:butt;stroke-linejoin:miter;stroke-miterlimit:22.926;stroke-dasharray:none;stroke-opacity:1" id="path18340"></path>
        </g>
        <g id="g18342" transform="translate(36.216,7.2675)">
          <path d="m 0,0 c 0,-0.937 0.762,-1.7 1.701,-1.7 0.939,0 1.7,0.763 1.7,1.7 z" style="fill:#1d1d1b;fill-opacity:1;fill-rule:evenodd;stroke:none" id="path18344"></path>
        </g>
        <g id="g18346" transform="translate(3.9675,32.7011)">
          <path d="m 0,0 c 0,-0.937 0.762,-1.7 1.701,-1.7 0.939,0 1.7,0.763 1.7,1.7 z" style="fill:#1d1d1b;fill-opacity:1;fill-rule:evenodd;stroke:none" id="path18348"></path>
        </g>
        <g id="g18350" transform="translate(14.739,32.7011)">
          <path d="m 0,0 c 0,-0.937 0.762,-1.7 1.701,-1.7 0.939,0 1.7,0.763 1.7,1.7 z" style="fill:#1d1d1b;fill-opacity:1;fill-rule:evenodd;stroke:none" id="path18352"></path>
        </g>
        <g id="g18354" transform="translate(25.5105,32.7011)">
          <path d="m 0,0 c 0,-0.937 0.762,-1.7 1.701,-1.7 0.939,0 1.7,0.763 1.7,1.7 z" style="fill:#1d1d1b;fill-opacity:1;fill-rule:evenodd;stroke:none" id="path18356"></path>
        </g>
        <g id="g18358" transform="translate(36.2818,32.7011)">
          <path d="m 0,0 c 0,-0.937 0.762,-1.7 1.701,-1.7 0.939,0 1.7,0.763 1.7,1.7 z" style="fill:#1d1d1b;fill-opacity:1;fill-rule:evenodd;stroke:none" id="path18360"></path>
        </g>
        <g id="g18362" transform="translate(47.0533,32.7011)">
          <path d="m 0,0 c 0,-0.937 0.762,-1.7 1.701,-1.7 0.939,0 1.7,0.763 1.7,1.7 z" style="fill:#1d1d1b;fill-opacity:1;fill-rule:evenodd;stroke:none" id="path18364"></path>
        </g>
        <path d="M 12.739,14.74 H 47.838 V 0.567 H 12.739 Z" style="fill:none;stroke:#312783;stroke-width:1.134;stroke-linecap:butt;stroke-linejoin:miter;stroke-miterlimit:22.926;stroke-dasharray:none;stroke-opacity:1" id="path18366"></path>
        <g id="g18368" transform="translate(33.9482,7.551)">
          <path d="M 0,0 H 7.937" style="fill:none;stroke:#1d1d1b;stroke-width:1.191;stroke-linecap:butt;stroke-linejoin:miter;stroke-miterlimit:22.926;stroke-dasharray:none;stroke-opacity:1" id="path18370"></path>
        </g>
        <text xml:space="preserve" transform="matrix(1,0,0,-1,63.843,30.5863)" style="font-variant:normal;font-weight:normal;font-stretch:semi-condensed;font-size:6.9997px;font-family:'Arial Narrow';-inkscape-font-specification:ArialNarrow;writing-mode:lr-tb;fill:#e30613;fill-opacity:1;fill-rule:nonzero;stroke:none" id="text18376">
          <tspan x="0 3.1918633 4.7877946 7.9796581" y="0" sodipodi:role="line" id="tspan18372">0.21</tspan>
          <tspan x="-57.614532 -54.422668 -52.826736 -49.634872 -48.03894 -46.128021 -41.9842 -37.840378" y="-10.107567" sodipodi:role="line" id="tspan18374">1.9 (CC)</tspan>
        </text>
        <g id="g18378" transform="translate(48.7545,27.1409)">
          <path d="M 0,0 V 3.826" style="fill:none;stroke:#e30613;stroke-width:0.283;stroke-linecap:butt;stroke-linejoin:miter;stroke-miterlimit:22.926;stroke-dasharray:none;stroke-opacity:1" id="path18380"></path>
        </g>
        <g id="g18382" transform="translate(16.4401,35.6946)">
          <path d="M 0,0 V 3.064" style="fill:none;stroke:#e30613;stroke-width:0.283;stroke-linecap:butt;stroke-linejoin:miter;stroke-miterlimit:22.926;stroke-dasharray:none;stroke-opacity:1" id="path18384"></path>
        </g>
        <g id="g18386" transform="translate(5.6608,35.6946)">
          <path d="M 0,0 V 3.064" style="fill:none;stroke:#e30613;stroke-width:0.283;stroke-linecap:butt;stroke-linejoin:miter;stroke-miterlimit:22.926;stroke-dasharray:none;stroke-opacity:1" id="path18388"></path>
        </g>
      </g>
    </g>
    <text xml:space="preserve" transform="matrix(1,0,0,-1,39.369,20.6684)" style="font-variant:normal;font-weight:normal;font-stretch:normal;font-size:6.9997px;font-family:Arial;-inkscape-font-specification:ArialMT;writing-mode:lr-tb;fill:#e30613;fill-opacity:1;fill-rule:nonzero;stroke:none" id="text18392">
      <tspan x="0" y="0" id="tspan18390">ø</tspan>
    </text>
    <text xml:space="preserve" transform="matrix(1,0,0,-1,45.241748,20.6684)" style="font-variant:normal;font-weight:normal;font-stretch:semi-condensed;font-size:6.9997px;font-family:'Arial Narrow';-inkscape-font-specification:ArialNarrow;writing-mode:lr-tb;fill:#e30613;fill-opacity:1;fill-rule:nonzero;stroke:none" id="text18398">
      <tspan x="0 3.1918633 4.7877946" y="0" sodipodi:role="line" id="tspan18394">0.6</tspan>
      <tspan x="-26.115881 -21.335085 -20.06114 -16.869276" y="14.979358" sodipodi:role="line" id="tspan18396">min.</tspan>
    </text>
  </g>
</svg>
