<?xml version="1.0" encoding="UTF-8" standalone="no"?>
<!-- Created with Inkscape (http://www.inkscape.org/) -->

<svg
   version="1.1"
   id="svg15483"
   xml:space="preserve"
   width="34.079468"
   height="42.395866"
   viewBox="0 0 34.079468 42.395866"
   sodipodi:docname="ISSprOM 526 Cairn, memorial, small monument or boundary stone.svg"
   inkscape:version="1.1.1 (3bf5ae0d25, 2021-09-20)"
   xmlns:inkscape="http://www.inkscape.org/namespaces/inkscape"
   xmlns:sodipodi="http://sodipodi.sourceforge.net/DTD/sodipodi-0.dtd"
   xmlns="http://www.w3.org/2000/svg"
   xmlns:svg="http://www.w3.org/2000/svg">
  <rect width="100%" height="100%" fill="white"/>
<defs
     id="defs15487"><clipPath
       clipPathUnits="userSpaceOnUse"
       id="clipPath15497"><path
         d="M 0,31.797 H 25.56 V 0 H 0 Z"
         id="path15495" /></clipPath></defs><sodipodi:namedview
     id="namedview15485"
     pagecolor="#ffffff"
     bordercolor="#666666"
     borderopacity="1.0"
     inkscape:pageshadow="2"
     inkscape:pageopacity="0.0"
     inkscape:pagecheckerboard="0"
     showgrid="false"
     inkscape:zoom="19.695316"
     inkscape:cx="17.034507"
     inkscape:cy="21.197933"
     inkscape:window-width="1920"
     inkscape:window-height="1017"
     inkscape:window-x="-8"
     inkscape:window-y="-8"
     inkscape:window-maximized="1"
     inkscape:current-layer="g15489" /><g
     id="g15489"
     inkscape:groupmode="layer"
     inkscape:label="ISSprOM 526 Cairn, memorial, small monument or boundary stone"
     transform="matrix(1.3333333,0,0,-1.3333333,0,42.395867)"><g
       id="g15491"><g
         id="g15493"
         clip-path="url(#clipPath15497)"><g
           id="g15499"
           transform="translate(4.1221,17.0686)"><path
             d="m 0,0 c 1.222,0 2.211,-0.99 2.211,-2.211 0,-1.222 -0.989,-2.211 -2.211,-2.211 -1.221,0 -2.211,0.989 -2.211,2.211 C -2.211,-0.99 -1.221,0 0,0 Z"
             style="fill:none;stroke:#1d1d1b;stroke-width:1.247;stroke-linecap:butt;stroke-linejoin:miter;stroke-miterlimit:22.926;stroke-dasharray:none;stroke-opacity:1"
             id="path15501" /></g><g
           id="g15503"
           transform="translate(4.1221,15.424)"><path
             d="M 0,0 C 0.313,0 0.567,-0.254 0.567,-0.566 0.567,-0.88 0.313,-1.133 0,-1.133 c -0.312,0 -0.566,0.253 -0.566,0.567 C -0.566,-0.254 -0.312,0 0,0"
             style="fill:#1d1d1b;fill-opacity:1;fill-rule:evenodd;stroke:none"
             id="path15505" /></g><g
           id="g15507"
           transform="translate(4.1221,15.424)"><path
             d="M 0,0 C 0.313,0 0.567,-0.254 0.567,-0.566 0.567,-0.88 0.313,-1.133 0,-1.133 c -0.312,0 -0.566,0.253 -0.566,0.567 C -0.566,-0.254 -0.312,0 0,0"
             style="fill:#1d1d1b;fill-opacity:1;fill-rule:nonzero;stroke:none"
             id="path15509" /></g><text
           transform="matrix(1,0,0,-1,-4e-4,25.7911)"
           style="font-variant:normal;font-weight:normal;font-stretch:semi-condensed;font-size:6.9997px;font-family:'Arial Narrow';-inkscape-font-specification:ArialNarrow;writing-mode:lr-tb;fill:#e30613;fill-opacity:1;fill-rule:nonzero;stroke:none"
           id="text15513"><tspan
             x="0 3.1918633 4.7877946 7.9796581 9.5755892 11.486507 15.952316 20.733112"
             y="0"
             sodipodi:role="line"
             id="tspan15511">1.0 (OM)</tspan></text><g
           id="g15515"
           transform="translate(1.2881,19.5061)"><path
             d="M 0,0 V 4.642"
             style="fill:none;stroke:#e30613;stroke-width:0.283;stroke-linecap:butt;stroke-linejoin:miter;stroke-miterlimit:22.926;stroke-dasharray:none;stroke-opacity:1"
             id="path15517" /></g><g
           id="g15519"
           transform="translate(6.957,19.5061)"><path
             d="M 0,0 V 4.642"
             style="fill:none;stroke:#e30613;stroke-width:0.283;stroke-linecap:butt;stroke-linejoin:miter;stroke-miterlimit:22.926;stroke-dasharray:none;stroke-opacity:1"
             id="path15521" /></g><g
           id="g15523"
           transform="translate(4.3437,14.299)"><path
             d="M 0,0 3.139,-5.621"
             style="fill:none;stroke:#e30613;stroke-width:0.283;stroke-linecap:butt;stroke-linejoin:miter;stroke-miterlimit:22.926;stroke-dasharray:none;stroke-opacity:1"
             id="path15525" /></g><text
           transform="matrix(1,0,0,-1,14.387,12.6388)"
           style="font-variant:normal;font-weight:normal;font-stretch:semi-condensed;font-size:6.9997px;font-family:'Arial Narrow';-inkscape-font-specification:ArialNarrow;writing-mode:lr-tb;fill:#e30613;fill-opacity:1;fill-rule:nonzero;stroke:none"
           id="text15529"><tspan
             x="0 3.1918633 4.7877946 7.9796581"
             y="0"
             sodipodi:role="line"
             id="tspan15527">0.22</tspan></text><g
           id="g15531"
           transform="translate(7.9004,15.0354)"><path
             d="M 0,0 H 4.997"
             style="fill:none;stroke:#e30613;stroke-width:0.283;stroke-linecap:butt;stroke-linejoin:miter;stroke-miterlimit:22.926;stroke-dasharray:none;stroke-opacity:1"
             id="path15533" /></g><text
           transform="matrix(1,0,0,-1,7.4611,2.2723)"
           style="font-variant:normal;font-weight:normal;font-stretch:semi-condensed;font-size:6.9997px;font-family:'Arial Narrow';-inkscape-font-specification:ArialNarrow;writing-mode:lr-tb;fill:#e30613;fill-opacity:1;fill-rule:nonzero;stroke:none"
           id="text15537"><tspan
             x="0 3.1918633 4.7877946"
             y="0"
             sodipodi:role="line"
             id="tspan15535">0.2</tspan></text><text
           transform="matrix(1,0,0,-1,1.8683397,2.2723)"
           style="font-variant:normal;font-weight:normal;font-stretch:normal;font-size:6.9997px;font-family:Arial;-inkscape-font-specification:ArialMT;writing-mode:lr-tb;fill:#e30613;fill-opacity:1;fill-rule:nonzero;stroke:none"
           id="text15541"><tspan
             x="0"
             y="0"
             id="tspan15539">ø</tspan></text></g></g></g></svg>
