<?xml version="1.0" standalone="no"?>
<!-- Generator: OCAD -->
<!DOCTYPE svg PUBLIC "-//W3C//DTD SVG 20010904//EN"
"http://www.w3.org/TR/2001/REC-SVG-20010904/DTD/svg10.dtd" [
<!ENTITY stR "stroke-linejoin:round;stroke-linecap:round">
<!ENTITY stB "stroke-linejoin:bevel">
]>
<svg id="mainMap" width="3.2580cm" height="1.7950cm" viewBox="0 0 32.5800 17.9500" style="fill:none;stroke-width:0;fill-rule:evenodd" xmlns:xlink="http://www.w3.org/1999/xlink" xmlns="http://www.w3.org/2000/svg" >
<desc>Map</desc>
<g id="scaleTransform" transform="scale(1.00000000)">
<g id="mainMapContent">
<!-- map fill color -->
<rect id="mapBg" x="-100%" y="-100%" width="200%" height="200%" fill="none" />
<g>
<clipPath id="Clip" fill="none" stroke="none">
<rect x="0" y="0" width="32.5800" height="17.9500" fill="none" />
</clipPath>
<g clip-path="url(#Clip)">
<g opacity="1.00">
</g>
<g opacity="1.00">
</g>
<g opacity="1.00">
</g>
<g opacity="1.00">
</g>
<g opacity="1.00">
</g>
<g opacity="1.00">
</g>
<g opacity="1.00">
</g>
<g opacity="1.00">
</g>
<g opacity="1.00">
</g>
<g opacity="1.00">
</g>
<g opacity="1.00">
</g>
<g opacity="1.00">
</g>
<g opacity="1.00">
</g>
<g opacity="1.00">
</g>
<g opacity="1.00">
</g>
<g opacity="1.00">
</g>
<g opacity="1.00">
</g>
<g opacity="1.00">
</g>
<g opacity="1.00">
</g>
<g opacity="1.00">
</g>
<g opacity="1.00">
</g>
<g opacity="1.00">
</g>
<g opacity="1.00">
</g>
<g opacity="1.00">
</g>
<g opacity="1.00">
</g>
<g opacity="1.00">
</g>
<g opacity="1.00">
</g>
<g opacity="1.00">
</g>
<g opacity="1.00">
<g id="541.000 playground equipment 280" >
<g stroke="rgb(0,0,0)">
<g stroke-width="0.36"
style="&stB;"
>
<path 
d="M19.25,11.47
L21.28,11.47
" />
</g>
<g stroke-width="0.24"
style="&stR;"
>
<path 
d="M18.27,11.47
C18.27,11.74 18.48,11.95 18.75,11.95
C19.02,11.95 19.23,11.74 19.23,11.47
C19.23,11.20 19.02,10.99 18.75,10.99
C18.48,10.99 18.27,11.20 18.27,11.47
" />
</g>
<g stroke-width="0.20"
style="&stR;"
>
<path 
d="M21.28,11.49
C21.28,11.77 21.50,11.99 21.78,11.99
C22.06,11.99 22.28,11.77 22.28,11.49
C22.28,11.21 22.06,10.99 21.78,10.99
C21.50,10.99 21.28,11.21 21.28,11.49
" />
</g>
<g stroke-width="0.36"
style="&stB;"
>
<path 
d="M6.72,7.07
L9.15,5.00
" />
</g>
<g stroke-width="0.24"
style="&stR;"
>
<path 
d="M5.86,7.39
C5.86,7.66 6.07,7.87 6.34,7.87
C6.61,7.87 6.82,7.66 6.82,7.39
C6.82,7.12 6.61,6.91 6.34,6.91
C6.07,6.91 5.86,7.12 5.86,7.39
" />
</g>
<g stroke-width="0.20"
style="&stR;"
>
<path 
d="M9.05,4.69
C9.05,4.97 9.27,5.19 9.55,5.19
C9.83,5.19 10.05,4.97 10.05,4.69
C10.05,4.41 9.83,4.19 9.55,4.19
C9.27,4.19 9.05,4.41 9.05,4.69
" />
</g>
<g stroke-width="0.36"
style="&stB;"
>
<path 
d="M9.93,4.99
L11.49,6.23
" />
</g>
<g stroke-width="0.24"
style="&stR;"
>
<path 
d="M9.06,4.67
C9.06,4.94 9.27,5.15 9.54,5.15
C9.81,5.15 10.02,4.94 10.02,4.67
C10.02,4.40 9.81,4.19 9.54,4.19
C9.27,4.19 9.06,4.40 9.06,4.67
" />
</g>
<g stroke-width="0.20"
style="&stR;"
>
<path 
d="M11.37,6.56
C11.37,6.84 11.59,7.06 11.87,7.06
C12.15,7.06 12.37,6.84 12.37,6.56
C12.37,6.28 12.15,6.06 11.87,6.06
C11.59,6.06 11.37,6.28 11.37,6.56
" />
</g>
<g stroke-width="0.36"
style="&stB;"
>
<path 
d="M11.64,6.98
L10.79,8.50
" />
</g>
<g stroke-width="0.24"
style="&stR;"
>
<path 
d="M11.41,6.54
C11.41,6.81 11.62,7.02 11.89,7.02
C12.16,7.02 12.37,6.81 12.37,6.54
C12.37,6.27 12.16,6.06 11.89,6.06
C11.62,6.06 11.41,6.27 11.41,6.54
" />
</g>
<g stroke-width="0.20"
style="&stR;"
>
<path 
d="M10.03,8.93
C10.03,9.21 10.25,9.43 10.53,9.43
C10.81,9.43 11.03,9.21 11.03,8.93
C11.03,8.65 10.81,8.43 10.53,8.43
C10.25,8.43 10.03,8.65 10.03,8.93
" />
</g>
<g stroke-width="0.36"
style="&stB;"
>
<path 
d="M10.08,8.76
L6.80,7.57
" />
</g>
<g stroke-width="0.24"
style="&stR;"
>
<path 
d="M10.07,8.93
C10.07,9.20 10.28,9.41 10.55,9.41
C10.82,9.41 11.03,9.20 11.03,8.93
C11.03,8.66 10.82,8.45 10.55,8.45
C10.28,8.45 10.07,8.66 10.07,8.93
" />
</g>
<g stroke-width="0.20"
style="&stR;"
>
<path 
d="M5.84,7.38
C5.84,7.66 6.06,7.88 6.34,7.88
C6.62,7.88 6.84,7.66 6.84,7.38
C6.84,7.10 6.62,6.88 6.34,6.88
C6.06,6.88 5.84,7.10 5.84,7.38
" />
</g>
<g stroke-width="0.36"
style="&stB;"
>
<path 
d="M1.90,7.64
L4.67,5.33
" />
</g>
<g stroke-width="0.24"
style="&stR;"
>
<path 
d="M1.04,7.96
C1.04,8.23 1.25,8.44 1.52,8.44
C1.79,8.44 2.00,8.23 2.00,7.96
C2.00,7.69 1.79,7.48 1.52,7.48
C1.25,7.48 1.04,7.69 1.04,7.96
" />
</g>
<g stroke-width="0.20"
style="&stR;"
>
<path 
d="M4.57,5.02
C4.57,5.30 4.79,5.52 5.07,5.52
C5.35,5.52 5.57,5.30 5.57,5.02
C5.57,4.74 5.35,4.52 5.07,4.52
C4.79,4.52 4.57,4.74 4.57,5.02
" />
</g>
<g stroke-width="0.36"
style="&stB;"
>
<path 
d="M5.44,4.69
L7.82,2.70
" />
</g>
<g stroke-width="0.24"
style="&stR;"
>
<path 
d="M4.58,5.00
C4.58,5.27 4.79,5.48 5.06,5.48
C5.33,5.48 5.54,5.27 5.54,5.00
C5.54,4.73 5.33,4.52 5.06,4.52
C4.79,4.52 4.58,4.73 4.58,5.00
" />
</g>
<g stroke-width="0.20"
style="&stR;"
>
<path 
d="M7.72,2.40
C7.72,2.68 7.94,2.90 8.22,2.90
C8.50,2.90 8.72,2.68 8.72,2.40
C8.72,2.12 8.50,1.90 8.22,1.90
C7.94,1.90 7.72,2.12 7.72,2.40
" />
</g>
</g>
</g>
</g>
<g opacity="1.00">
</g>
<g opacity="1.00">
</g>
<g opacity="1.00">
</g>
<g opacity="1.00">
</g>
<g opacity="1.00">
</g>
<g opacity="1.00">
</g>
<g opacity="1.00">
</g>
<g opacity="1.00">
</g>
<g opacity="1.00">
</g>
<g opacity="1.00">
</g>
<g opacity="1.00">
</g>
<g opacity="1.00">
</g>
<g opacity="1.00">
</g>
<g opacity="1.00">
</g>
<g opacity="1.00">
</g>
<g opacity="1.00">
</g>
<g opacity="1.00">
</g>
<g opacity="1.00">
</g>
<g opacity="1.00">
</g>
<g opacity="1.00">
</g>
<g opacity="1.00">
</g>
<g opacity="1.00">
</g>
<g opacity="1.00">
</g>
<g opacity="1.00">
</g>
<g opacity="1.00">
</g>
<g opacity="1.00">
</g>
<g opacity="1.00">
</g>
<g opacity="1.00">
</g>
<g opacity="1.00">
</g>
<g opacity="1.00">
</g>
<g opacity="1.00">
</g>
<g opacity="1.00">
</g>
<g opacity="1.00">
</g>
<g opacity="1.00">
</g>
<g opacity="1.00">
</g>
<g opacity="1.00">
</g>
<g opacity="1.00">
</g>
<g opacity="1.00">
</g>
<g opacity="1.00">
</g>
<g opacity="1.00">
</g>
<g opacity="1.00">
</g>
<g opacity="1.00">
</g>
<g opacity="1.00">
</g>
<g opacity="1.00">
</g>
<g opacity="1.00">
</g>
<g opacity="1.00">
</g>
<g opacity="1.00">
</g>
<g opacity="1.00">
</g>
<g opacity="1.00">
</g>
<g opacity="1.00">
</g>
<g opacity="1.00">
</g>
<g opacity="1.00">
</g>
<g opacity="1.00">
</g>
<g opacity="1.00">
</g>
<g opacity="1.00">
</g>
<g opacity="1.00">
</g>
<g opacity="1.00">
</g>
<g opacity="1.00">
</g>
<g opacity="1.00">
</g>
<g opacity="1.00">
</g>
<g opacity="1.00">
</g>
<g opacity="1.00">
</g>
<g opacity="1.00">
</g>
<g opacity="1.00">
</g>
<g opacity="1.00">
</g>
<g opacity="1.00">
</g>
<g opacity="1.00">
</g>
<g opacity="1.00">
<g id="703.001 Control number 159" >
<g stroke="rgb(255,64,26)">
<g fill="rgb(255,64,26)" >
<path 
d="M15.10,8.95
15.10,7.86 
15.24,7.86 
15.24,8.01 
C15.27,7.95 15.30,7.91 15.35,7.88
C15.40,7.85 15.45,7.83 15.51,7.83
C15.57,7.83 15.62,7.85 15.67,7.88
C15.71,7.91 15.74,7.96 15.76,8.02
C15.80,7.96 15.84,7.91 15.89,7.88
C15.93,7.85 15.98,7.83 16.04,7.83
C16.13,7.83 16.19,7.86 16.24,7.92
C16.29,7.98 16.32,8.07 16.32,8.20
L16.32,8.95 
16.17,8.95 
16.17,8.26 
C16.17,8.18 16.16,8.13 16.15,8.10
C16.14,8.06 16.12,8.04 16.09,8.02
C16.07,8.00 16.04,7.99 16.01,7.99
C15.94,7.99 15.89,8.02 15.85,8.07
C15.81,8.12 15.78,8.20 15.78,8.32
L15.78,8.95 
15.63,8.95 
15.63,8.24 
C15.63,8.15 15.62,8.09 15.59,8.05
C15.56,8.01 15.52,7.99 15.48,7.99
C15.41,7.99 15.35,8.02 15.31,8.08
C15.27,8.13 15.25,8.24 15.25,8.38
L15.25,8.95 
" />
</g>
<g fill="rgb(255,64,26)" >
<path 
d="M16.54,7.65
16.54,7.44 
16.70,7.44 
16.70,7.65 
L16.54,7.65
M16.54,8.95
16.54,7.86 
16.70,7.86 
16.70,8.95 
" />
</g>
<g fill="rgb(255,64,26)" >
<path 
d="M16.93,8.95
16.93,7.86 
17.07,7.86 
17.07,8.01 
C17.10,7.95 17.14,7.91 17.19,7.88
C17.24,7.85 17.29,7.83 17.35,7.83
C17.40,7.83 17.45,7.84 17.49,7.86
C17.53,7.88 17.56,7.90 17.58,7.94
C17.61,7.97 17.63,8.01 17.64,8.05
C17.65,8.10 17.66,8.18 17.66,8.28
L17.66,8.95 
17.51,8.95 
17.51,8.29 
C17.51,8.21 17.50,8.15 17.49,8.11
C17.47,8.07 17.45,8.04 17.42,8.02
C17.39,8.00 17.36,7.99 17.32,7.99
C17.25,7.99 17.19,8.02 17.15,8.07
C17.10,8.13 17.08,8.22 17.08,8.35
L17.08,8.95 
" />
</g>
<g fill="rgb(255,64,26)" >
<path 
d="M17.94,8.95
17.94,8.74 
18.12,8.74 
18.12,8.95 
" />
</g>
<g fill="rgb(255,64,26)" >
<path 
d="M19.39,8.95
19.24,8.95 
19.24,7.77 
C19.20,7.81 19.15,7.85 19.09,7.90
C19.03,7.94 18.98,7.97 18.93,7.99
L18.93,7.81 
C19.01,7.77 19.09,7.71 19.15,7.64
C19.22,7.57 19.26,7.50 19.29,7.43
L19.39,7.43 
" />
</g>
<g fill="rgb(255,64,26)" >
<path 
d="M19.87,8.95
19.87,8.74 
20.04,8.74 
20.04,8.95 
" />
</g>
<g fill="rgb(255,64,26)" >
<path 
d="M20.50,8.13
C20.44,8.11 20.39,8.07 20.36,8.01
C20.33,7.96 20.31,7.90 20.31,7.82
C20.31,7.71 20.35,7.61 20.41,7.54
C20.48,7.47 20.57,7.43 20.67,7.43
C20.77,7.43 20.86,7.47 20.93,7.54
C20.99,7.62 21.03,7.71 21.03,7.83
C21.03,7.90 21.01,7.96 20.98,8.01
C20.95,8.07 20.91,8.10 20.85,8.13
C20.92,8.16 20.98,8.21 21.02,8.28
C21.06,8.34 21.08,8.42 21.08,8.52
C21.08,8.66 21.04,8.77 20.96,8.85
C20.88,8.94 20.79,8.98 20.67,8.98
C20.55,8.98 20.46,8.94 20.38,8.85
C20.30,8.77 20.26,8.66 20.26,8.52
C20.26,8.42 20.28,8.33 20.32,8.27
C20.37,8.20 20.42,8.16 20.50,8.13
L20.50,8.13
M20.47,7.82
C20.47,7.89 20.49,7.95 20.53,7.99
C20.57,8.04 20.61,8.06 20.67,8.06
C20.73,8.06 20.77,8.04 20.81,8.00
C20.85,7.95 20.87,7.90 20.87,7.83
C20.87,7.76 20.85,7.70 20.81,7.65
C20.77,7.61 20.72,7.59 20.67,7.59
C20.61,7.59 20.57,7.61 20.53,7.65
C20.49,7.70 20.47,7.75 20.47,7.82
L20.47,7.82
M20.42,8.52
C20.42,8.61 20.44,8.69 20.49,8.74
C20.54,8.80 20.60,8.83 20.67,8.83
C20.74,8.83 20.80,8.80 20.85,8.75
C20.90,8.69 20.92,8.62 20.92,8.52
C20.92,8.43 20.90,8.36 20.85,8.30
C20.80,8.24 20.74,8.21 20.67,8.21
C20.60,8.21 20.54,8.24 20.49,8.30
C20.44,8.36 20.42,8.43 20.42,8.52
" />
</g>
<g fill="rgb(255,64,26)" >
<path 
d="M22.04,9.40
C21.97,9.28 21.90,9.14 21.84,8.96
C21.77,8.79 21.74,8.60 21.74,8.41
C21.74,8.07 21.84,7.74 22.04,7.41
L22.15,7.41 
C22.08,7.58 22.02,7.70 21.99,7.79
C21.96,7.88 21.94,7.98 21.92,8.08
C21.91,8.19 21.90,8.30 21.90,8.41
C21.90,8.74 21.98,9.07 22.15,9.40
" />
</g>
<g fill="rgb(255,64,26)" >
<path 
d="M22.30,8.22
C22.30,7.96 22.36,7.76 22.47,7.62
C22.59,7.48 22.73,7.41 22.90,7.41
C23.01,7.41 23.11,7.44 23.20,7.51
C23.29,7.57 23.36,7.66 23.41,7.78
C23.47,7.89 23.49,8.04 23.49,8.20
C23.49,8.42 23.44,8.61 23.34,8.75
C23.23,8.90 23.08,8.98 22.90,8.98
C22.71,8.98 22.57,8.90 22.46,8.74
C22.35,8.60 22.30,8.42 22.30,8.22
L22.30,8.22
M22.47,8.22
C22.47,8.41 22.51,8.55 22.60,8.65
C22.68,8.76 22.78,8.81 22.90,8.81
C23.02,8.81 23.12,8.76 23.20,8.65
C23.28,8.55 23.32,8.40 23.32,8.19
C23.32,8.06 23.30,7.95 23.26,7.84
C23.23,7.77 23.18,7.70 23.11,7.66
C23.05,7.61 22.98,7.58 22.90,7.58
C22.78,7.58 22.67,7.64 22.59,7.74
C22.51,7.84 22.47,8.00 22.47,8.22
" />
</g>
<g fill="rgb(255,64,26)" >
<path 
d="M23.70,8.95
23.70,7.44 
23.94,7.44 
24.24,8.51 
24.30,8.74 
C24.31,8.68 24.33,8.60 24.36,8.49
L24.66,7.44 
24.88,7.44 
24.88,8.95 
24.72,8.95 
24.72,7.69 
24.36,8.95 
24.21,8.95 
23.85,7.67 
23.85,8.95 
" />
</g>
<g fill="rgb(255,64,26)" >
<path 
d="M25.18,9.40
25.08,9.40 
C25.24,9.07 25.33,8.74 25.33,8.41
C25.33,8.30 25.32,8.19 25.30,8.08
C25.29,7.98 25.26,7.88 25.23,7.79
C25.21,7.70 25.15,7.58 25.08,7.41
L25.18,7.41 
C25.38,7.74 25.48,8.07 25.48,8.41
C25.48,8.60 25.45,8.78 25.39,8.95
C25.34,9.13 25.27,9.28 25.18,9.40
" />
</g>
<g fill="rgb(255,64,26)" >
<path 
d="M9.53,11.53
C9.53,11.27 9.57,11.08 9.64,10.95
C9.71,10.82 9.81,10.75 9.94,10.75
C10.06,10.75 10.15,10.81 10.22,10.91
C10.30,11.04 10.34,11.25 10.34,11.53
C10.34,11.78 10.31,11.97 10.24,12.10
C10.17,12.24 10.07,12.30 9.94,12.30
C9.82,12.30 9.72,12.24 9.65,12.13
C9.57,12.01 9.53,11.81 9.53,11.53
L9.53,11.53
M9.69,11.53
C9.69,11.77 9.71,11.94 9.76,12.02
C9.81,12.11 9.87,12.15 9.94,12.15
C10.01,12.15 10.07,12.11 10.12,12.02
C10.17,11.94 10.19,11.77 10.19,11.53
C10.19,11.28 10.16,11.12 10.12,11.03
C10.07,10.95 10.01,10.91 9.93,10.91
C9.86,10.91 9.81,10.95 9.76,11.03
C9.71,11.12 9.69,11.28 9.69,11.53
" />
</g>
<g fill="rgb(255,64,26)" >
<path 
d="M10.59,12.27
10.59,12.06 
10.76,12.06 
10.76,12.27 
" />
</g>
<g fill="rgb(255,64,26)" >
<path 
d="M11.77,11.13
11.62,11.14 
C11.61,11.07 11.59,11.01 11.56,10.98
C11.52,10.93 11.47,10.91 11.41,10.91
C11.32,10.91 11.25,10.96 11.20,11.07
C11.15,11.17 11.13,11.31 11.13,11.49
C11.16,11.43 11.21,11.38 11.26,11.34
C11.31,11.31 11.37,11.29 11.43,11.29
C11.53,11.29 11.61,11.34 11.69,11.43
C11.76,11.52 11.80,11.63 11.80,11.78
C11.80,11.89 11.78,11.98 11.74,12.06
C11.70,12.14 11.66,12.20 11.60,12.24
C11.54,12.28 11.48,12.30 11.41,12.30
C11.28,12.30 11.18,12.24 11.10,12.13
C11.02,12.02 10.98,11.83 10.98,11.57
C10.98,11.27 11.02,11.06 11.10,10.94
C11.18,10.82 11.29,10.75 11.42,10.75
C11.51,10.75 11.59,10.79 11.66,10.85
C11.72,10.91 11.76,11.01 11.77,11.13
L11.77,11.13
M11.15,11.78
C11.15,11.89 11.18,11.98 11.23,12.05
C11.28,12.11 11.34,12.15 11.41,12.15
C11.47,12.15 11.52,12.12 11.57,12.05
C11.62,11.99 11.64,11.90 11.64,11.80
C11.64,11.69 11.62,11.60 11.57,11.55
C11.52,11.49 11.47,11.46 11.40,11.46
C11.33,11.46 11.27,11.49 11.22,11.54
C11.18,11.60 11.15,11.68 11.15,11.78
" />
</g>
<g fill="rgb(255,64,26)" >
<path 
d="M12.76,12.72
C12.69,12.60 12.62,12.46 12.56,12.28
C12.49,12.11 12.46,11.92 12.46,11.73
C12.46,11.39 12.56,11.06 12.76,10.73
L12.87,10.73 
C12.80,10.90 12.74,11.02 12.71,11.11
C12.68,11.20 12.66,11.30 12.64,11.40
C12.63,11.51 12.62,11.62 12.62,11.73
C12.62,12.06 12.70,12.39 12.87,12.72
" />
</g>
<g fill="rgb(255,64,26)" >
<path 
d="M13.02,11.54
C13.02,11.28 13.08,11.08 13.19,10.94
C13.31,10.80 13.45,10.73 13.62,10.73
C13.73,10.73 13.83,10.76 13.92,10.83
C14.01,10.89 14.08,10.98 14.13,11.10
C14.19,11.21 14.21,11.36 14.21,11.52
C14.21,11.74 14.16,11.93 14.06,12.07
C13.95,12.22 13.80,12.30 13.62,12.30
C13.43,12.30 13.29,12.22 13.18,12.06
C13.07,11.92 13.02,11.74 13.02,11.54
L13.02,11.54
M13.19,11.54
C13.19,11.73 13.23,11.87 13.32,11.97
C13.40,12.08 13.50,12.13 13.62,12.13
C13.74,12.13 13.84,12.08 13.92,11.97
C14.00,11.87 14.04,11.72 14.04,11.51
C14.04,11.38 14.02,11.27 13.98,11.16
C13.95,11.09 13.90,11.02 13.83,10.98
C13.77,10.93 13.70,10.90 13.62,10.90
C13.50,10.90 13.39,10.96 13.31,11.06
C13.23,11.16 13.19,11.32 13.19,11.54
" />
</g>
<g fill="rgb(255,64,26)" >
<path 
d="M14.42,12.27
14.42,10.76 
14.66,10.76 
14.96,11.83 
15.02,12.06 
C15.03,12.00 15.05,11.92 15.08,11.81
L15.38,10.76 
15.60,10.76 
15.60,12.27 
15.44,12.27 
15.44,11.01 
15.08,12.27 
14.93,12.27 
14.57,10.99 
14.57,12.27 
" />
</g>
<g fill="rgb(255,64,26)" >
<path 
d="M15.91,12.72
15.80,12.72 
C15.96,12.39 16.05,12.06 16.05,11.73
C16.05,11.62 16.04,11.51 16.02,11.40
C16.01,11.30 15.98,11.20 15.95,11.11
C15.93,11.02 15.87,10.90 15.80,10.73
L15.91,10.73 
C16.11,11.06 16.21,11.39 16.21,11.73
C16.21,11.92 16.18,12.10 16.12,12.27
C16.06,12.45 15.99,12.60 15.91,12.72
" />
</g>
<g fill="rgb(255,64,26)" >
<path 
d="M19.42,15.17
C19.42,14.91 19.46,14.72 19.53,14.59
C19.60,14.46 19.70,14.39 19.83,14.39
C19.95,14.39 20.04,14.45 20.11,14.55
C20.19,14.68 20.23,14.89 20.23,15.17
C20.23,15.42 20.20,15.61 20.13,15.74
C20.06,15.88 19.96,15.94 19.83,15.94
C19.71,15.94 19.61,15.88 19.54,15.77
C19.46,15.65 19.42,15.45 19.42,15.17
L19.42,15.17
M19.58,15.17
C19.58,15.41 19.60,15.58 19.65,15.66
C19.70,15.75 19.76,15.79 19.83,15.79
C19.90,15.79 19.96,15.75 20.01,15.66
C20.06,15.58 20.08,15.41 20.08,15.17
C20.08,14.92 20.05,14.76 20.01,14.67
C19.96,14.59 19.90,14.55 19.82,14.55
C19.75,14.55 19.70,14.59 19.65,14.67
C19.60,14.76 19.58,14.92 19.58,15.17
" />
</g>
<g fill="rgb(255,64,26)" >
<path 
d="M20.48,15.91
20.48,15.70 
20.65,15.70 
20.65,15.91 
" />
</g>
<g fill="rgb(255,64,26)" >
<path 
d="M21.45,15.91
21.29,15.91 
21.29,14.73 
C21.26,14.77 21.21,14.81 21.15,14.86
C21.09,14.90 21.04,14.93 20.99,14.95
L20.99,14.77 
C21.07,14.73 21.15,14.67 21.21,14.60
C21.28,14.53 21.32,14.46 21.35,14.39
L21.45,14.39 
" />
</g>
<g fill="rgb(255,64,26)" >
<path 
d="M22.64,15.74
22.64,15.91 
21.82,15.91 
C21.82,15.84 21.84,15.76 21.89,15.67
C21.93,15.58 22.02,15.48 22.14,15.35
C22.28,15.21 22.37,15.10 22.42,15.03
C22.46,14.95 22.48,14.88 22.48,14.81
C22.48,14.73 22.46,14.67 22.42,14.62
C22.37,14.57 22.32,14.55 22.25,14.55
C22.18,14.55 22.12,14.57 22.07,14.63
C22.03,14.68 22.01,14.75 22.01,14.85
L21.85,14.83 
C21.86,14.69 21.90,14.58 21.97,14.50
C22.04,14.43 22.14,14.39 22.25,14.39
C22.38,14.39 22.48,14.44 22.54,14.52
C22.61,14.61 22.64,14.70 22.64,14.81
C22.64,14.91 22.61,15.00 22.56,15.09
C22.51,15.18 22.42,15.30 22.27,15.44
C22.18,15.54 22.12,15.60 22.10,15.63
C22.07,15.67 22.05,15.70 22.03,15.74
" />
</g>
<g fill="rgb(255,64,26)" >
<path 
d="M27.27,11.74
C27.27,11.48 27.31,11.29 27.38,11.16
C27.45,11.03 27.55,10.96 27.68,10.96
C27.80,10.96 27.89,11.02 27.96,11.12
C28.04,11.25 28.08,11.46 28.08,11.74
C28.08,11.99 28.05,12.18 27.98,12.31
C27.91,12.45 27.81,12.51 27.68,12.51
C27.56,12.51 27.46,12.45 27.39,12.34
C27.31,12.22 27.27,12.02 27.27,11.74
L27.27,11.74
M27.43,11.74
C27.43,11.98 27.45,12.15 27.50,12.23
C27.55,12.32 27.61,12.36 27.68,12.36
C27.75,12.36 27.81,12.32 27.86,12.23
C27.91,12.15 27.93,11.98 27.93,11.74
C27.93,11.49 27.90,11.33 27.86,11.24
C27.81,11.16 27.75,11.12 27.67,11.12
C27.60,11.12 27.55,11.16 27.50,11.24
C27.45,11.33 27.43,11.49 27.43,11.74
" />
</g>
<g fill="rgb(255,64,26)" >
<path 
d="M28.33,12.48
28.33,12.27 
28.50,12.27 
28.50,12.48 
" />
</g>
<g fill="rgb(255,64,26)" >
<path 
d="M29.30,12.48
29.14,12.48 
29.14,11.30 
C29.11,11.34 29.06,11.38 29.00,11.43
C28.94,11.47 28.89,11.50 28.84,11.52
L28.84,11.34 
C28.92,11.30 29.00,11.24 29.06,11.17
C29.13,11.10 29.17,11.03 29.20,10.96
L29.30,10.96 
" />
</g>
<g fill="rgb(255,64,26)" >
<path 
d="M29.92,11.66
C29.86,11.64 29.82,11.60 29.78,11.54
C29.75,11.49 29.74,11.43 29.74,11.35
C29.74,11.24 29.77,11.14 29.84,11.07
C29.91,11.00 29.99,10.96 30.09,10.96
C30.20,10.96 30.28,11.00 30.35,11.07
C30.42,11.15 30.45,11.24 30.45,11.36
C30.45,11.43 30.44,11.49 30.41,11.54
C30.38,11.60 30.33,11.63 30.27,11.66
C30.35,11.69 30.40,11.74 30.44,11.81
C30.48,11.87 30.51,11.95 30.51,12.05
C30.51,12.19 30.47,12.30 30.39,12.38
C30.31,12.47 30.21,12.51 30.10,12.51
C29.98,12.51 29.88,12.47 29.80,12.38
C29.73,12.30 29.69,12.19 29.69,12.05
C29.69,11.95 29.71,11.86 29.75,11.80
C29.79,11.73 29.85,11.69 29.92,11.66
L29.92,11.66
M29.89,11.35
C29.89,11.42 29.91,11.48 29.95,11.52
C29.99,11.57 30.04,11.59 30.10,11.59
C30.15,11.59 30.20,11.57 30.24,11.53
C30.28,11.48 30.30,11.43 30.30,11.36
C30.30,11.29 30.28,11.23 30.24,11.18
C30.20,11.14 30.15,11.12 30.10,11.12
C30.04,11.12 29.99,11.14 29.95,11.18
C29.91,11.23 29.89,11.28 29.89,11.35
L29.89,11.35
M29.84,12.05
C29.84,12.14 29.87,12.22 29.92,12.27
C29.97,12.33 30.03,12.36 30.10,12.36
C30.17,12.36 30.23,12.33 30.28,12.28
C30.32,12.22 30.35,12.15 30.35,12.05
C30.35,11.96 30.32,11.89 30.27,11.83
C30.22,11.77 30.16,11.74 30.09,11.74
C30.02,11.74 29.96,11.77 29.92,11.83
C29.87,11.89 29.84,11.96 29.84,12.05
" />
</g>
</g>
</g>
<g id="709.009 Out of bounds area, solid line 159" >
<g stroke="rgb(255,64,26)">
<g stroke-width="0.10"
style="&stB;"
>
<path 
d="M18.86,12.26
L19.75,13.80
" />
</g>
<g stroke-width="0.10"
style="&stB;"
>
<path 
d="M18.16,10.81
L18.16,9.40
" />
</g>
<g stroke-width="0.10"
style="&stB;"
>
<path 
d="M22.38,10.80
L22.38,9.39
" />
</g>
<g stroke-width="0.10"
style="&stB;"
>
<path 
d="M17.89,12.08
L16.48,12.08
" />
</g>
<g stroke-width="0.10"
style="&stB;"
>
<path 
d="M17.88,10.88
L16.47,10.88
" />
</g>
</g>
</g>
</g>
<g opacity="1.00">
</g>
<g opacity="1.00">
</g>
<g opacity="1.00">
</g>
<g opacity="1.00">
</g>
<g opacity="1.00">
</g>
<g opacity="1.00">
</g>
<g opacity="1.00">
</g>
<g opacity="1.00">
</g>
<g opacity="1.00">
</g>
<g opacity="1.00">
</g>
<g opacity="1.00">
</g>
<g opacity="1.00">
</g>
<g opacity="1.00">
</g>
<g opacity="1.00">
</g>
<g opacity="1.00">
</g>
<g opacity="1.00">
</g>
<g opacity="1.00">
</g>
<g opacity="1.00">
</g>
<g opacity="1.00">
</g>
<g opacity="1.00">
</g>
<g opacity="1.00">
</g>
<g opacity="1.00">
</g>
<g opacity="1.00">
</g>
<g opacity="1.00">
</g>
<g opacity="1.00">
</g>
<g opacity="1.00">
</g>
<g opacity="1.00">
</g>
<g opacity="1.00">
</g>
<g opacity="1.00">
</g>
<g opacity="1.00">
</g>
<g opacity="1.00">
</g>
<g opacity="1.00">
</g>
<g opacity="1.00">
</g>
<g opacity="1.00">
</g>
<g opacity="1.00">
</g>
<g opacity="1.00">
</g>
<g opacity="1.00">
</g>
<g opacity="1.00">
</g>
<g opacity="1.00">
</g>
<g opacity="1.00">
</g>
<g opacity="1.00">
</g>
<g opacity="1.00">
</g>
<g opacity="1.00">
</g>
<g opacity="1.00">
</g>
<g opacity="1.00">
</g>
<g opacity="1.00">
</g>
<g opacity="1.00">
</g>
<g opacity="1.00">
</g>
<g opacity="1.00">
</g>
<g opacity="1.00">
</g>
<g opacity="1.00">
</g>
<g opacity="1.00">
</g>
<g opacity="1.00">
</g>
<g opacity="1.00">
</g>
<g opacity="1.00">
</g>
<g opacity="1.00">
</g>
<g opacity="1.00">
</g>
<g opacity="1.00">
</g>
<g opacity="1.00">
</g>
<g opacity="1.00">
</g>
<g opacity="1.00">
</g>
<g opacity="1.00">
</g>
<g opacity="1.00">
</g>
<g opacity="1.00">
</g>
<g opacity="1.00">
</g>
<g opacity="1.00">
</g>
<g opacity="1.00">
</g>
<g opacity="1.00">
</g>
<g opacity="1.00">
</g>
<g opacity="1.00">
</g>
</g>
</g>
</g>
</g>
</svg>
