<?xml version="1.0" standalone="no"?>
<!-- Generator: OCAD -->
<!DOCTYPE svg PUBLIC "-//W3C//DTD SVG 20010904//EN"
"http://www.w3.org/TR/2001/REC-SVG-20010904/DTD/svg10.dtd" [
<!ENTITY stR "stroke-linejoin:round;stroke-linecap:round">
<!ENTITY stB "stroke-linejoin:bevel">
]>
<svg id="mainMap" width="3.2580cm" height="1.7950cm" viewBox="0 0 32.5800 17.9500" style="fill:none;stroke-width:0;fill-rule:evenodd" xmlns:xlink="http://www.w3.org/1999/xlink" xmlns="http://www.w3.org/2000/svg" >
<desc>Map</desc>
<g id="scaleTransform" transform="scale(1.00000000)">
<g id="mainMapContent">
<!-- map fill color -->
<rect id="mapBg" x="-100%" y="-100%" width="200%" height="200%" fill="none" />
<g>
<clipPath id="Clip" fill="none" stroke="none">
<rect x="0" y="0" width="32.5800" height="17.9500" fill="none" />
</clipPath>
<g clip-path="url(#Clip)">
<g opacity="1.00">
</g>
<g opacity="1.00">
</g>
<g opacity="1.00">
</g>
<g opacity="1.00">
</g>
<g opacity="1.00">
</g>
<g opacity="1.00">
</g>
<g opacity="1.00">
</g>
<g opacity="1.00">
</g>
<g opacity="1.00">
</g>
<g opacity="1.00">
</g>
<g opacity="1.00">
</g>
<g opacity="1.00">
</g>
<g opacity="1.00">
</g>
<g opacity="1.00">
</g>
<g opacity="1.00">
</g>
<g opacity="1.00">
</g>
<g opacity="1.00">
</g>
<g opacity="1.00">
</g>
<g opacity="1.00">
</g>
<g opacity="1.00">
</g>
<g opacity="1.00">
</g>
<g opacity="1.00">
</g>
<g opacity="1.00">
</g>
<g opacity="1.00">
</g>
<g opacity="1.00">
</g>
<g opacity="1.00">
</g>
<g opacity="1.00">
</g>
<g opacity="1.00">
</g>
<g opacity="1.00">
<g id="542.000 table 280" >
<g stroke="rgb(0,0,0)">
<g stroke-width="0.24"
style="&stB;"
>
<path 
d="M19.35,12.15
L21.95,9.55
" />
</g>
<g stroke-width="0.24"
style="&stB;"
>
<path 
d="M19.35,9.55
L21.95,12.15
" />
</g>
<g stroke-width="0.40"
>
<path 
d="M19.35,9.53
L21.95,9.53
L21.95,12.13
L19.35,12.13
L19.35,9.53
L21.95,9.53
" />
</g>
</g>
</g>
</g>
<g opacity="1.00">
</g>
<g opacity="1.00">
</g>
<g opacity="1.00">
</g>
<g opacity="1.00">
</g>
<g opacity="1.00">
</g>
<g opacity="1.00">
</g>
<g opacity="1.00">
</g>
<g opacity="1.00">
</g>
<g opacity="1.00">
</g>
<g opacity="1.00">
</g>
<g opacity="1.00">
</g>
<g opacity="1.00">
</g>
<g opacity="1.00">
</g>
<g opacity="1.00">
</g>
<g opacity="1.00">
</g>
<g opacity="1.00">
</g>
<g opacity="1.00">
</g>
<g opacity="1.00">
</g>
<g opacity="1.00">
</g>
<g opacity="1.00">
</g>
<g opacity="1.00">
</g>
<g opacity="1.00">
</g>
<g opacity="1.00">
</g>
<g opacity="1.00">
</g>
<g opacity="1.00">
</g>
<g opacity="1.00">
</g>
<g opacity="1.00">
</g>
<g opacity="1.00">
</g>
<g opacity="1.00">
</g>
<g opacity="1.00">
</g>
<g opacity="1.00">
</g>
<g opacity="1.00">
</g>
<g opacity="1.00">
</g>
<g opacity="1.00">
</g>
<g opacity="1.00">
</g>
<g opacity="1.00">
</g>
<g opacity="1.00">
</g>
<g opacity="1.00">
</g>
<g opacity="1.00">
</g>
<g opacity="1.00">
</g>
<g opacity="1.00">
</g>
<g opacity="1.00">
</g>
<g opacity="1.00">
</g>
<g opacity="1.00">
</g>
<g opacity="1.00">
</g>
<g opacity="1.00">
</g>
<g opacity="1.00">
</g>
<g opacity="1.00">
</g>
<g opacity="1.00">
</g>
<g opacity="1.00">
</g>
<g opacity="1.00">
</g>
<g opacity="1.00">
</g>
<g opacity="1.00">
</g>
<g opacity="1.00">
</g>
<g opacity="1.00">
</g>
<g opacity="1.00">
</g>
<g opacity="1.00">
</g>
<g opacity="1.00">
</g>
<g opacity="1.00">
</g>
<g opacity="1.00">
</g>
<g opacity="1.00">
</g>
<g opacity="1.00">
</g>
<g opacity="1.00">
</g>
<g opacity="1.00">
</g>
<g opacity="1.00">
</g>
<g opacity="1.00">
</g>
<g opacity="1.00">
</g>
<g opacity="1.00">
<g id="703.001 Control number 159" >
<g stroke="rgb(255,64,26)">
<g fill="rgb(255,64,26)" >
<path 
d="M15.40,7.14
15.40,6.05 
15.54,6.05 
15.54,6.20 
C15.57,6.14 15.60,6.10 15.65,6.07
C15.70,6.04 15.75,6.02 15.81,6.02
C15.87,6.02 15.92,6.04 15.97,6.07
C16.01,6.10 16.04,6.15 16.06,6.21
C16.10,6.15 16.14,6.10 16.19,6.07
C16.23,6.04 16.28,6.02 16.34,6.02
C16.43,6.02 16.49,6.05 16.54,6.11
C16.59,6.17 16.62,6.26 16.62,6.39
L16.62,7.14 
16.47,7.14 
16.47,6.45 
C16.47,6.37 16.46,6.32 16.45,6.29
C16.44,6.25 16.42,6.23 16.39,6.21
C16.37,6.19 16.34,6.18 16.31,6.18
C16.24,6.18 16.19,6.21 16.15,6.26
C16.11,6.31 16.08,6.39 16.08,6.51
L16.08,7.14 
15.93,7.14 
15.93,6.43 
C15.93,6.34 15.92,6.28 15.89,6.24
C15.86,6.20 15.82,6.18 15.78,6.18
C15.71,6.18 15.65,6.21 15.61,6.27
C15.57,6.32 15.55,6.43 15.55,6.57
L15.55,7.14 
" />
</g>
<g fill="rgb(255,64,26)" >
<path 
d="M16.84,5.84
16.84,5.63 
17.00,5.63 
17.00,5.84 
L16.84,5.84
M16.84,7.14
16.84,6.05 
17.00,6.05 
17.00,7.14 
" />
</g>
<g fill="rgb(255,64,26)" >
<path 
d="M17.23,7.14
17.23,6.05 
17.37,6.05 
17.37,6.20 
C17.40,6.14 17.44,6.10 17.49,6.07
C17.54,6.04 17.59,6.02 17.65,6.02
C17.70,6.02 17.75,6.03 17.79,6.05
C17.83,6.07 17.86,6.09 17.88,6.13
C17.91,6.16 17.93,6.20 17.94,6.24
C17.95,6.29 17.96,6.37 17.96,6.47
L17.96,7.14 
17.81,7.14 
17.81,6.48 
C17.81,6.40 17.80,6.34 17.79,6.30
C17.77,6.26 17.75,6.23 17.72,6.21
C17.69,6.19 17.66,6.18 17.62,6.18
C17.55,6.18 17.49,6.21 17.45,6.26
C17.40,6.32 17.38,6.41 17.38,6.54
L17.38,7.14 
" />
</g>
<g fill="rgb(255,64,26)" >
<path 
d="M18.24,7.14
18.24,6.93 
18.42,6.93 
18.42,7.14 
" />
</g>
<g fill="rgb(255,64,26)" >
<path 
d="M19.69,7.14
19.54,7.14 
19.54,5.96 
C19.50,6.00 19.45,6.04 19.39,6.09
C19.33,6.13 19.28,6.16 19.23,6.18
L19.23,6.00 
C19.31,5.96 19.39,5.90 19.45,5.83
C19.52,5.76 19.56,5.69 19.59,5.62
L19.69,5.62 
" />
</g>
<g fill="rgb(255,64,26)" >
<path 
d="M20.17,7.14
20.17,6.93 
20.34,6.93 
20.34,7.14 
" />
</g>
<g fill="rgb(255,64,26)" >
<path 
d="M20.56,6.75
20.72,6.73 
C20.73,6.83 20.76,6.90 20.81,6.95
C20.85,6.99 20.90,7.02 20.96,7.02
C21.03,7.02 21.09,6.98 21.15,6.92
C21.20,6.85 21.22,6.76 21.22,6.65
C21.22,6.54 21.20,6.45 21.15,6.39
C21.10,6.33 21.03,6.30 20.96,6.30
C20.91,6.30 20.87,6.32 20.83,6.34
C20.79,6.37 20.76,6.40 20.73,6.45
L20.59,6.43 
20.71,5.65 
21.33,5.65 
21.33,5.83 
20.83,5.83 
20.76,6.23 
C20.84,6.17 20.92,6.14 21.00,6.14
C21.10,6.14 21.19,6.18 21.27,6.27
C21.35,6.36 21.39,6.48 21.39,6.63
C21.39,6.78 21.35,6.91 21.27,7.01
C21.19,7.12 21.09,7.17 20.96,7.17
C20.85,7.17 20.76,7.13 20.69,7.06
C20.61,6.98 20.57,6.88 20.56,6.75
" />
</g>
<g fill="rgb(255,64,26)" >
<path 
d="M22.34,7.59
C22.27,7.47 22.20,7.33 22.14,7.15
C22.07,6.98 22.04,6.79 22.04,6.60
C22.04,6.26 22.14,5.93 22.34,5.60
L22.45,5.60 
C22.38,5.77 22.32,5.89 22.29,5.98
C22.26,6.07 22.24,6.17 22.22,6.27
C22.21,6.38 22.20,6.49 22.20,6.60
C22.20,6.93 22.28,7.26 22.45,7.59
" />
</g>
<g fill="rgb(255,64,26)" >
<path 
d="M22.60,6.41
C22.60,6.15 22.66,5.95 22.77,5.81
C22.89,5.67 23.03,5.60 23.20,5.60
C23.31,5.60 23.41,5.63 23.50,5.70
C23.59,5.76 23.66,5.85 23.71,5.97
C23.77,6.08 23.79,6.23 23.79,6.39
C23.79,6.61 23.74,6.80 23.64,6.94
C23.53,7.09 23.38,7.17 23.20,7.17
C23.01,7.17 22.87,7.09 22.76,6.93
C22.65,6.79 22.60,6.61 22.60,6.41
L22.60,6.41
M22.77,6.41
C22.77,6.60 22.81,6.74 22.90,6.84
C22.98,6.95 23.08,7.00 23.20,7.00
C23.32,7.00 23.42,6.95 23.50,6.84
C23.58,6.74 23.62,6.59 23.62,6.38
C23.62,6.25 23.60,6.14 23.56,6.03
C23.53,5.96 23.48,5.89 23.41,5.85
C23.35,5.80 23.28,5.77 23.20,5.77
C23.08,5.77 22.97,5.83 22.89,5.93
C22.81,6.03 22.77,6.19 22.77,6.41
" />
</g>
<g fill="rgb(255,64,26)" >
<path 
d="M24.00,7.14
24.00,5.63 
24.24,5.63 
24.54,6.70 
24.60,6.93 
C24.61,6.87 24.63,6.79 24.66,6.68
L24.96,5.63 
25.18,5.63 
25.18,7.14 
25.02,7.14 
25.02,5.88 
24.66,7.14 
24.51,7.14 
24.15,5.86 
24.15,7.14 
" />
</g>
<g fill="rgb(255,64,26)" >
<path 
d="M25.48,7.59
25.38,7.59 
C25.54,7.26 25.63,6.93 25.63,6.60
C25.63,6.49 25.62,6.38 25.60,6.27
C25.59,6.17 25.56,6.07 25.53,5.98
C25.51,5.89 25.45,5.77 25.38,5.60
L25.48,5.60 
C25.68,5.93 25.78,6.26 25.78,6.60
C25.78,6.79 25.75,6.97 25.69,7.14
C25.64,7.32 25.57,7.47 25.48,7.59
" />
</g>
<g fill="rgb(255,64,26)" >
<path 
d="M27.43,11.07
C27.43,10.81 27.47,10.62 27.54,10.49
C27.61,10.36 27.71,10.29 27.84,10.29
C27.96,10.29 28.05,10.35 28.12,10.45
C28.20,10.58 28.24,10.79 28.24,11.07
C28.24,11.32 28.21,11.51 28.14,11.64
C28.07,11.78 27.97,11.84 27.84,11.84
C27.72,11.84 27.62,11.78 27.55,11.67
C27.47,11.55 27.43,11.35 27.43,11.07
L27.43,11.07
M27.59,11.07
C27.59,11.31 27.61,11.48 27.66,11.56
C27.71,11.65 27.77,11.69 27.84,11.69
C27.91,11.69 27.97,11.65 28.02,11.56
C28.07,11.48 28.09,11.31 28.09,11.07
C28.09,10.82 28.06,10.66 28.02,10.57
C27.97,10.49 27.91,10.45 27.83,10.45
C27.76,10.45 27.71,10.49 27.66,10.57
C27.61,10.66 27.59,10.82 27.59,11.07
" />
</g>
<g fill="rgb(255,64,26)" >
<path 
d="M28.49,11.81
28.49,11.60 
28.66,11.60 
28.66,11.81 
" />
</g>
<g fill="rgb(255,64,26)" >
<path 
d="M29.69,11.64
29.69,11.81 
28.86,11.81 
C28.86,11.74 28.88,11.66 28.93,11.57
C28.98,11.48 29.06,11.38 29.18,11.25
C29.32,11.11 29.42,11.00 29.46,10.93
C29.51,10.85 29.53,10.78 29.53,10.71
C29.53,10.63 29.51,10.57 29.46,10.52
C29.42,10.47 29.36,10.45 29.29,10.45
C29.22,10.45 29.16,10.47 29.12,10.53
C29.07,10.58 29.05,10.65 29.05,10.75
L28.89,10.73 
C28.90,10.59 28.95,10.48 29.02,10.40
C29.09,10.33 29.18,10.29 29.30,10.29
C29.43,10.29 29.52,10.34 29.59,10.42
C29.65,10.51 29.68,10.60 29.68,10.71
C29.68,10.81 29.66,10.90 29.61,10.99
C29.56,11.08 29.46,11.20 29.32,11.34
C29.23,11.44 29.17,11.50 29.14,11.53
C29.11,11.57 29.09,11.60 29.08,11.64
" />
</g>
<g fill="rgb(255,64,26)" >
<path 
d="M30.65,11.64
30.65,11.81 
29.83,11.81 
C29.83,11.74 29.85,11.66 29.90,11.57
C29.94,11.48 30.03,11.38 30.15,11.25
C30.29,11.11 30.38,11.00 30.43,10.93
C30.47,10.85 30.49,10.78 30.49,10.71
C30.49,10.63 30.47,10.57 30.43,10.52
C30.38,10.47 30.33,10.45 30.26,10.45
C30.19,10.45 30.13,10.47 30.08,10.53
C30.04,10.58 30.02,10.65 30.02,10.75
L29.86,10.73 
C29.87,10.59 29.91,10.48 29.98,10.40
C30.05,10.33 30.15,10.29 30.26,10.29
C30.39,10.29 30.49,10.34 30.55,10.42
C30.62,10.51 30.65,10.60 30.65,10.71
C30.65,10.81 30.62,10.90 30.57,10.99
C30.52,11.08 30.43,11.20 30.28,11.34
C30.19,11.44 30.13,11.50 30.11,11.53
C30.08,11.57 30.06,11.60 30.04,11.64
" />
</g>
<g fill="rgb(255,64,26)" >
<path 
d="M20.58,14.97
C20.58,14.71 20.62,14.52 20.69,14.39
C20.76,14.26 20.86,14.19 20.99,14.19
C21.11,14.19 21.20,14.25 21.27,14.35
C21.35,14.48 21.39,14.69 21.39,14.97
C21.39,15.22 21.36,15.41 21.29,15.54
C21.22,15.68 21.12,15.74 20.99,15.74
C20.87,15.74 20.77,15.68 20.70,15.57
C20.62,15.45 20.58,15.25 20.58,14.97
L20.58,14.97
M20.74,14.97
C20.74,15.21 20.76,15.38 20.81,15.46
C20.86,15.55 20.92,15.59 20.99,15.59
C21.06,15.59 21.12,15.55 21.17,15.46
C21.22,15.38 21.24,15.21 21.24,14.97
C21.24,14.72 21.21,14.56 21.17,14.47
C21.12,14.39 21.06,14.35 20.98,14.35
C20.91,14.35 20.86,14.39 20.81,14.47
C20.76,14.56 20.74,14.72 20.74,14.97
" />
</g>
<g fill="rgb(255,64,26)" >
<path 
d="M21.64,15.71
21.64,15.50 
21.81,15.50 
21.81,15.71 
" />
</g>
<g fill="rgb(255,64,26)" >
<path 
d="M22.61,15.71
22.45,15.71 
22.45,14.53 
C22.42,14.57 22.37,14.61 22.31,14.66
C22.25,14.70 22.20,14.73 22.15,14.75
L22.15,14.57 
C22.23,14.53 22.31,14.47 22.37,14.40
C22.44,14.33 22.48,14.26 22.51,14.19
L22.61,14.19 
" />
</g>
<g fill="rgb(255,64,26)" >
<path 
d="M23.80,15.54
23.80,15.71 
22.98,15.71 
C22.98,15.64 23.00,15.56 23.05,15.47
C23.09,15.38 23.18,15.28 23.30,15.15
C23.44,15.01 23.53,14.90 23.58,14.83
C23.62,14.75 23.64,14.68 23.64,14.61
C23.64,14.53 23.62,14.47 23.58,14.42
C23.53,14.37 23.48,14.35 23.41,14.35
C23.34,14.35 23.28,14.37 23.23,14.43
C23.19,14.48 23.17,14.55 23.17,14.65
L23.01,14.63 
C23.02,14.49 23.06,14.38 23.13,14.30
C23.20,14.23 23.30,14.19 23.41,14.19
C23.54,14.19 23.64,14.24 23.70,14.32
C23.77,14.41 23.80,14.50 23.80,14.61
C23.80,14.71 23.77,14.80 23.72,14.89
C23.67,14.98 23.58,15.10 23.43,15.24
C23.34,15.34 23.28,15.40 23.26,15.43
C23.23,15.47 23.21,15.50 23.19,15.54
" />
</g>
<g fill="rgb(255,64,26)" >
<path 
d="M6.72,11.45
6.72,10.36 
6.86,10.36 
6.86,10.51 
C6.89,10.45 6.92,10.41 6.97,10.38
C7.02,10.35 7.07,10.33 7.13,10.33
C7.19,10.33 7.24,10.35 7.29,10.38
C7.33,10.41 7.36,10.46 7.38,10.52
C7.42,10.46 7.46,10.41 7.51,10.38
C7.55,10.35 7.60,10.33 7.66,10.33
C7.75,10.33 7.81,10.36 7.86,10.42
C7.91,10.48 7.94,10.57 7.94,10.70
L7.94,11.45 
7.79,11.45 
7.79,10.76 
C7.79,10.68 7.78,10.63 7.77,10.60
C7.76,10.56 7.74,10.54 7.71,10.52
C7.69,10.50 7.66,10.49 7.63,10.49
C7.56,10.49 7.51,10.52 7.47,10.57
C7.43,10.62 7.40,10.70 7.40,10.82
L7.40,11.45 
7.25,11.45 
7.25,10.74 
C7.25,10.65 7.24,10.59 7.21,10.55
C7.18,10.51 7.14,10.49 7.10,10.49
C7.03,10.49 6.97,10.52 6.93,10.58
C6.89,10.63 6.87,10.74 6.87,10.88
L6.87,11.45 
" />
</g>
<g fill="rgb(255,64,26)" >
<path 
d="M8.16,10.15
8.16,9.94 
8.32,9.94 
8.32,10.15 
L8.16,10.15
M8.16,11.45
8.16,10.36 
8.32,10.36 
8.32,11.45 
" />
</g>
<g fill="rgb(255,64,26)" >
<path 
d="M8.55,11.45
8.55,10.36 
8.69,10.36 
8.69,10.51 
C8.72,10.45 8.76,10.41 8.81,10.38
C8.86,10.35 8.91,10.33 8.97,10.33
C9.02,10.33 9.07,10.34 9.11,10.36
C9.15,10.38 9.18,10.40 9.20,10.44
C9.23,10.47 9.25,10.51 9.26,10.55
C9.27,10.60 9.28,10.68 9.28,10.78
L9.28,11.45 
9.13,11.45 
9.13,10.79 
C9.13,10.71 9.12,10.65 9.11,10.61
C9.09,10.57 9.07,10.54 9.04,10.52
C9.01,10.50 8.98,10.49 8.94,10.49
C8.87,10.49 8.81,10.52 8.77,10.57
C8.72,10.63 8.70,10.72 8.70,10.85
L8.70,11.45 
" />
</g>
<g fill="rgb(255,64,26)" >
<path 
d="M9.56,11.45
9.56,11.24 
9.74,11.24 
9.74,11.45 
" />
</g>
<g fill="rgb(255,64,26)" >
<path 
d="M11.01,11.45
10.86,11.45 
10.86,10.27 
C10.82,10.31 10.77,10.35 10.71,10.40
C10.65,10.44 10.60,10.47 10.55,10.49
L10.55,10.31 
C10.63,10.27 10.71,10.21 10.77,10.14
C10.84,10.07 10.88,10.00 10.91,9.93
L11.01,9.93 
" />
</g>
<g fill="rgb(255,64,26)" >
<path 
d="M11.49,11.45
11.49,11.24 
11.66,11.24 
11.66,11.45 
" />
</g>
<g fill="rgb(255,64,26)" >
<path 
d="M11.88,11.06
12.04,11.04 
C12.05,11.14 12.08,11.21 12.13,11.26
C12.17,11.30 12.22,11.33 12.28,11.33
C12.35,11.33 12.41,11.29 12.47,11.23
C12.52,11.16 12.54,11.07 12.54,10.96
C12.54,10.85 12.52,10.76 12.47,10.70
C12.42,10.64 12.35,10.61 12.28,10.61
C12.23,10.61 12.19,10.63 12.15,10.65
C12.11,10.68 12.08,10.71 12.05,10.76
L11.91,10.74 
12.03,9.96 
12.65,9.96 
12.65,10.14 
12.15,10.14 
12.08,10.54 
C12.16,10.48 12.24,10.45 12.32,10.45
C12.42,10.45 12.51,10.49 12.59,10.58
C12.67,10.67 12.71,10.79 12.71,10.94
C12.71,11.09 12.67,11.22 12.59,11.32
C12.51,11.43 12.41,11.48 12.28,11.48
C12.17,11.48 12.08,11.44 12.01,11.37
C11.93,11.29 11.89,11.19 11.88,11.06
" />
</g>
<g fill="rgb(255,64,26)" >
<path 
d="M13.66,11.90
C13.59,11.78 13.52,11.64 13.46,11.46
C13.39,11.29 13.36,11.10 13.36,10.91
C13.36,10.57 13.46,10.24 13.66,9.91
L13.77,9.91 
C13.70,10.08 13.64,10.20 13.61,10.29
C13.58,10.38 13.56,10.48 13.54,10.58
C13.53,10.69 13.52,10.80 13.52,10.91
C13.52,11.24 13.60,11.57 13.77,11.90
" />
</g>
<g fill="rgb(255,64,26)" >
<path 
d="M13.92,10.72
C13.92,10.46 13.98,10.26 14.09,10.12
C14.21,9.98 14.35,9.91 14.52,9.91
C14.63,9.91 14.73,9.94 14.82,10.01
C14.91,10.07 14.98,10.16 15.03,10.28
C15.09,10.39 15.11,10.54 15.11,10.70
C15.11,10.92 15.06,11.11 14.96,11.25
C14.85,11.40 14.70,11.48 14.52,11.48
C14.33,11.48 14.19,11.40 14.08,11.24
C13.97,11.10 13.92,10.92 13.92,10.72
L13.92,10.72
M14.09,10.72
C14.09,10.91 14.13,11.05 14.22,11.15
C14.30,11.26 14.40,11.31 14.52,11.31
C14.64,11.31 14.74,11.26 14.82,11.15
C14.90,11.05 14.94,10.90 14.94,10.69
C14.94,10.56 14.92,10.45 14.88,10.34
C14.85,10.27 14.80,10.20 14.73,10.16
C14.67,10.11 14.60,10.08 14.52,10.08
C14.40,10.08 14.29,10.14 14.21,10.24
C14.13,10.34 14.09,10.50 14.09,10.72
" />
</g>
<g fill="rgb(255,64,26)" >
<path 
d="M15.32,11.45
15.32,9.94 
15.56,9.94 
15.86,11.01 
15.92,11.24 
C15.93,11.18 15.95,11.10 15.98,10.99
L16.28,9.94 
16.50,9.94 
16.50,11.45 
16.34,11.45 
16.34,10.19 
15.98,11.45 
15.83,11.45 
15.47,10.17 
15.47,11.45 
" />
</g>
<g fill="rgb(255,64,26)" >
<path 
d="M16.80,11.90
16.70,11.90 
C16.86,11.57 16.95,11.24 16.95,10.91
C16.95,10.80 16.94,10.69 16.92,10.58
C16.91,10.48 16.88,10.38 16.85,10.29
C16.83,10.20 16.77,10.08 16.70,9.91
L16.80,9.91 
C17.00,10.24 17.10,10.57 17.10,10.91
C17.10,11.10 17.07,11.28 17.01,11.45
C16.96,11.63 16.89,11.78 16.80,11.90
" />
</g>
</g>
</g>
<g id="709.009 Out of bounds area, solid line 159" >
<g stroke="rgb(255,64,26)">
<g stroke-width="0.10"
style="&stB;"
>
<path 
d="M19.17,8.96
L19.17,7.55
" />
</g>
<g stroke-width="0.10"
style="&stB;"
>
<path 
d="M22.16,8.95
L22.16,7.54
" />
</g>
<g stroke-width="0.10"
style="&stB;"
>
<path 
d="M18.79,12.33
L17.38,12.33
" />
</g>
<g stroke-width="0.10"
style="&stB;"
>
<path 
d="M18.78,9.33
L17.37,9.33
" />
</g>
<g stroke-width="0.10"
style="&stB;"
>
<path 
d="M20.84,11.50
L21.12,13.64
" />
</g>
</g>
</g>
</g>
<g opacity="1.00">
</g>
<g opacity="1.00">
</g>
<g opacity="1.00">
</g>
<g opacity="1.00">
</g>
<g opacity="1.00">
</g>
<g opacity="1.00">
</g>
<g opacity="1.00">
</g>
<g opacity="1.00">
</g>
<g opacity="1.00">
</g>
<g opacity="1.00">
</g>
<g opacity="1.00">
</g>
<g opacity="1.00">
</g>
<g opacity="1.00">
</g>
<g opacity="1.00">
</g>
<g opacity="1.00">
</g>
<g opacity="1.00">
</g>
<g opacity="1.00">
</g>
<g opacity="1.00">
</g>
<g opacity="1.00">
</g>
<g opacity="1.00">
</g>
<g opacity="1.00">
</g>
<g opacity="1.00">
</g>
<g opacity="1.00">
</g>
<g opacity="1.00">
</g>
<g opacity="1.00">
</g>
<g opacity="1.00">
</g>
<g opacity="1.00">
</g>
<g opacity="1.00">
</g>
<g opacity="1.00">
</g>
<g opacity="1.00">
</g>
<g opacity="1.00">
</g>
<g opacity="1.00">
</g>
<g opacity="1.00">
</g>
<g opacity="1.00">
</g>
<g opacity="1.00">
</g>
<g opacity="1.00">
</g>
<g opacity="1.00">
</g>
<g opacity="1.00">
</g>
<g opacity="1.00">
</g>
<g opacity="1.00">
</g>
<g opacity="1.00">
</g>
<g opacity="1.00">
</g>
<g opacity="1.00">
</g>
<g opacity="1.00">
</g>
<g opacity="1.00">
</g>
<g opacity="1.00">
</g>
<g opacity="1.00">
</g>
<g opacity="1.00">
</g>
<g opacity="1.00">
</g>
<g opacity="1.00">
</g>
<g opacity="1.00">
</g>
<g opacity="1.00">
</g>
<g opacity="1.00">
</g>
<g opacity="1.00">
</g>
<g opacity="1.00">
</g>
<g opacity="1.00">
</g>
<g opacity="1.00">
</g>
<g opacity="1.00">
</g>
<g opacity="1.00">
</g>
<g opacity="1.00">
</g>
<g opacity="1.00">
</g>
<g opacity="1.00">
</g>
<g opacity="1.00">
</g>
<g opacity="1.00">
</g>
<g opacity="1.00">
</g>
<g opacity="1.00">
<g id="542.300 table large 2" >
<g stroke="rgb(0,0,0)">
<g stroke-width="0.44"
>
<path 
d="M3.23,8.27
L10.48,6.39
L9.67,3.29
L2.42,5.17
L3.23,8.27
L10.48,6.39
" />
</g>
</g>
</g>
<g id="542.100  2" >
<g stroke="rgb(0,0,0)">
<g stroke-width="0.24"
>
<path 
d="M2.30,5.29
L10.44,6.23
" />
</g>
<g stroke-width="0.24"
>
<path 
d="M9.63,3.34
L3.31,8.11
" />
</g>
</g>
</g>
</g>
<g opacity="1.00">
</g>
<g opacity="1.00">
</g>
<g opacity="1.00">
</g>
<g opacity="1.00">
</g>
</g>
</g>
</g>
</g>
</svg>
