<?xml version="1.0" standalone="no"?>
<!-- Generator: OCAD -->
<!DOCTYPE svg PUBLIC "-//W3C//DTD SVG 20010904//EN"
"http://www.w3.org/TR/2001/REC-SVG-20010904/DTD/svg10.dtd" [
<!ENTITY stR "stroke-linejoin:round;stroke-linecap:round">
<!ENTITY stB "stroke-linejoin:bevel">
]>
<svg id="mainMap" width="2.1440cm" height="1.1820cm" viewBox="0 0 21.4400 11.8200" style="fill:none;stroke-width:0;fill-rule:evenodd" xmlns:xlink="http://www.w3.org/1999/xlink" xmlns="http://www.w3.org/2000/svg" >
  <rect width="100%" height="100%" fill="white"/>

<desc>Map</desc>
<g id="scaleTransform" transform="scale(1.00000000)">
<g id="mainMapContent">
<!-- map fill color -->
<rect id="mapBg" x="-100%" y="-100%" width="200%" height="200%" fill="none" />
<g>
<clipPath id="Clip" fill="none" stroke="none">
<rect x="0" y="0" width="21.4400" height="11.8200" fill="none" />
</clipPath>
<g clip-path="url(#Clip)">
<g opacity="1.00">
</g>
<g opacity="1.00">
</g>
<g opacity="1.00">
</g>
<g opacity="1.00">
</g>
<g opacity="1.00">
</g>
<g opacity="1.00">
</g>
<g opacity="1.00">
</g>
<g opacity="1.00">
</g>
<g opacity="1.00">
</g>
<g opacity="1.00">
</g>
<g opacity="1.00">
</g>
<g opacity="1.00">
</g>
<g opacity="1.00">
</g>
<g opacity="1.00">
</g>
<g opacity="1.00">
</g>
<g opacity="1.00">
</g>
<g opacity="1.00">
</g>
<g opacity="1.00">
</g>
<g opacity="1.00">
</g>
<g opacity="1.00">
</g>
<g opacity="1.00">
</g>
<g opacity="1.00">
</g>
<g opacity="1.00">
</g>
<g opacity="1.00">
</g>
<g opacity="1.00">
</g>
<g opacity="1.00">
</g>
<g opacity="1.00">
</g>
<g opacity="1.00">
</g>
<g opacity="1.00">
<g id="543.000 Bench 280" >
<g stroke="rgb(0,0,0)">
<g stroke-width="0.36"
style="&stB;"
>
<path 
d="M5.77,6.26
L8.32,6.26
" />
</g>
<g stroke-width="0.44"
style="&stB;"
>
<path 
d="M5.77,5.46
L5.77,7.06
" />
</g>
<g stroke-width="0.44"
style="&stB;"
>
<path 
d="M8.32,5.46
L8.32,7.06
" />
</g>
</g>
</g>
</g>
<g opacity="1.00">
</g>
<g opacity="1.00">
</g>
<g opacity="1.00">
</g>
<g opacity="1.00">
</g>
<g opacity="1.00">
</g>
<g opacity="1.00">
</g>
<g opacity="1.00">
</g>
<g opacity="1.00">
</g>
<g opacity="1.00">
</g>
<g opacity="1.00">
</g>
<g opacity="1.00">
</g>
<g opacity="1.00">
</g>
<g opacity="1.00">
</g>
<g opacity="1.00">
</g>
<g opacity="1.00">
</g>
<g opacity="1.00">
</g>
<g opacity="1.00">
</g>
<g opacity="1.00">
</g>
<g opacity="1.00">
</g>
<g opacity="1.00">
</g>
<g opacity="1.00">
</g>
<g opacity="1.00">
</g>
<g opacity="1.00">
</g>
<g opacity="1.00">
</g>
<g opacity="1.00">
</g>
<g opacity="1.00">
</g>
<g opacity="1.00">
</g>
<g opacity="1.00">
</g>
<g opacity="1.00">
</g>
<g opacity="1.00">
</g>
<g opacity="1.00">
</g>
<g opacity="1.00">
</g>
<g opacity="1.00">
</g>
<g opacity="1.00">
</g>
<g opacity="1.00">
</g>
<g opacity="1.00">
</g>
<g opacity="1.00">
</g>
<g opacity="1.00">
</g>
<g opacity="1.00">
</g>
<g opacity="1.00">
</g>
<g opacity="1.00">
</g>
<g opacity="1.00">
</g>
<g opacity="1.00">
</g>
<g opacity="1.00">
</g>
<g opacity="1.00">
</g>
<g opacity="1.00">
</g>
<g opacity="1.00">
</g>
<g opacity="1.00">
</g>
<g opacity="1.00">
</g>
<g opacity="1.00">
</g>
<g opacity="1.00">
</g>
<g opacity="1.00">
</g>
<g opacity="1.00">
</g>
<g opacity="1.00">
</g>
<g opacity="1.00">
</g>
<g opacity="1.00">
</g>
<g opacity="1.00">
</g>
<g opacity="1.00">
</g>
<g opacity="1.00">
</g>
<g opacity="1.00">
</g>
<g opacity="1.00">
</g>
<g opacity="1.00">
</g>
<g opacity="1.00">
</g>
<g opacity="1.00">
</g>
<g opacity="1.00">
</g>
<g opacity="1.00">
</g>
<g opacity="1.00">
</g>
<g opacity="1.00">
<g id="703.001 Control number 159" >
<g stroke="rgb(255,64,26)">
<g fill="rgb(255,64,26)" >
<path 
d="M8.35,9.65
C8.35,9.39 8.39,9.20 8.46,9.07
C8.53,8.94 8.63,8.87 8.76,8.87
C8.88,8.87 8.97,8.93 9.04,9.03
C9.12,9.16 9.16,9.37 9.16,9.65
C9.16,9.90 9.13,10.09 9.06,10.22
C8.99,10.36 8.89,10.42 8.76,10.42
C8.64,10.42 8.54,10.36 8.47,10.25
C8.39,10.13 8.35,9.93 8.35,9.65
L8.35,9.65
M8.51,9.65
C8.51,9.89 8.53,10.06 8.58,10.14
C8.63,10.23 8.69,10.27 8.76,10.27
C8.83,10.27 8.89,10.23 8.94,10.14
C8.99,10.06 9.01,9.89 9.01,9.65
C9.01,9.40 8.98,9.24 8.94,9.15
C8.89,9.07 8.83,9.03 8.75,9.03
C8.68,9.03 8.63,9.07 8.58,9.15
C8.53,9.24 8.51,9.40 8.51,9.65
" />
</g>
<g fill="rgb(255,64,26)" >
<path 
d="M9.41,10.39
9.41,10.18 
9.58,10.18 
9.58,10.39 
" />
</g>
<g fill="rgb(255,64,26)" >
<path 
d="M10.61,10.22
10.61,10.39 
9.78,10.39 
C9.78,10.32 9.80,10.24 9.85,10.15
C9.90,10.06 9.98,9.96 10.10,9.83
C10.24,9.69 10.34,9.58 10.38,9.51
C10.43,9.43 10.45,9.36 10.45,9.29
C10.45,9.21 10.43,9.15 10.38,9.10
C10.34,9.05 10.28,9.03 10.21,9.03
C10.14,9.03 10.08,9.05 10.04,9.11
C9.99,9.16 9.97,9.23 9.97,9.33
L9.81,9.31 
C9.82,9.17 9.87,9.06 9.94,8.98
C10.01,8.91 10.10,8.87 10.22,8.87
C10.35,8.87 10.44,8.92 10.51,9.00
C10.57,9.09 10.60,9.18 10.60,9.29
C10.60,9.39 10.58,9.48 10.53,9.57
C10.48,9.66 10.38,9.78 10.24,9.92
C10.15,10.02 10.09,10.08 10.06,10.11
C10.03,10.15 10.01,10.18 10.00,10.22
" />
</g>
<g fill="rgb(255,64,26)" >
<path 
d="M11.57,10.22
11.57,10.39 
10.75,10.39 
C10.75,10.32 10.77,10.24 10.82,10.15
C10.86,10.06 10.95,9.96 11.07,9.83
C11.21,9.69 11.30,9.58 11.35,9.51
C11.39,9.43 11.41,9.36 11.41,9.29
C11.41,9.21 11.39,9.15 11.35,9.10
C11.30,9.05 11.25,9.03 11.18,9.03
C11.11,9.03 11.05,9.05 11.00,9.11
C10.96,9.16 10.94,9.23 10.94,9.33
L10.78,9.31 
C10.79,9.17 10.83,9.06 10.90,8.98
C10.97,8.91 11.07,8.87 11.18,8.87
C11.31,8.87 11.41,8.92 11.47,9.00
C11.54,9.09 11.57,9.18 11.57,9.29
C11.57,9.39 11.54,9.48 11.49,9.57
C11.44,9.66 11.35,9.78 11.20,9.92
C11.11,10.02 11.05,10.08 11.03,10.11
C11.00,10.15 10.98,10.18 10.96,10.22
" />
</g>
<g fill="rgb(255,64,26)" >
<path 
d="M16.88,6.39
C16.88,6.13 16.92,5.94 16.99,5.81
C17.06,5.68 17.16,5.61 17.29,5.61
C17.41,5.61 17.50,5.67 17.57,5.77
C17.65,5.90 17.69,6.11 17.69,6.39
C17.69,6.64 17.66,6.83 17.59,6.96
C17.52,7.10 17.42,7.16 17.29,7.16
C17.17,7.16 17.07,7.10 17.00,6.99
C16.92,6.87 16.88,6.67 16.88,6.39
L16.88,6.39
M17.04,6.39
C17.04,6.63 17.06,6.80 17.11,6.88
C17.16,6.97 17.22,7.01 17.29,7.01
C17.36,7.01 17.42,6.97 17.47,6.88
C17.52,6.80 17.54,6.63 17.54,6.39
C17.54,6.14 17.51,5.98 17.47,5.89
C17.42,5.81 17.36,5.77 17.28,5.77
C17.21,5.77 17.16,5.81 17.11,5.89
C17.06,5.98 17.04,6.14 17.04,6.39
" />
</g>
<g fill="rgb(255,64,26)" >
<path 
d="M17.94,7.13
17.94,6.92 
18.11,6.92 
18.11,7.13 
" />
</g>
<g fill="rgb(255,64,26)" >
<path 
d="M18.91,7.13
18.75,7.13 
18.75,5.95 
C18.72,5.99 18.67,6.03 18.61,6.08
C18.55,6.12 18.50,6.15 18.45,6.17
L18.45,5.99 
C18.53,5.95 18.61,5.89 18.67,5.82
C18.74,5.75 18.78,5.68 18.81,5.61
L18.91,5.61 
" />
</g>
<g fill="rgb(255,64,26)" >
<path 
d="M19.53,6.31
C19.47,6.29 19.43,6.25 19.39,6.19
C19.36,6.14 19.35,6.08 19.35,6.00
C19.35,5.89 19.38,5.79 19.45,5.72
C19.52,5.65 19.60,5.61 19.70,5.61
C19.81,5.61 19.89,5.65 19.96,5.72
C20.03,5.80 20.06,5.89 20.06,6.01
C20.06,6.08 20.05,6.14 20.02,6.19
C19.99,6.25 19.94,6.28 19.88,6.31
C19.96,6.34 20.01,6.39 20.05,6.46
C20.09,6.52 20.12,6.60 20.12,6.70
C20.12,6.84 20.08,6.95 20.00,7.03
C19.92,7.12 19.82,7.16 19.71,7.16
C19.59,7.16 19.49,7.12 19.41,7.03
C19.34,6.95 19.30,6.84 19.30,6.70
C19.30,6.60 19.32,6.51 19.36,6.45
C19.40,6.38 19.46,6.34 19.53,6.31
L19.53,6.31
M19.50,6.00
C19.50,6.07 19.52,6.13 19.56,6.17
C19.60,6.22 19.65,6.24 19.71,6.24
C19.76,6.24 19.81,6.22 19.85,6.18
C19.89,6.13 19.91,6.08 19.91,6.01
C19.91,5.94 19.89,5.88 19.85,5.83
C19.81,5.79 19.76,5.77 19.71,5.77
C19.65,5.77 19.60,5.79 19.56,5.83
C19.52,5.88 19.50,5.93 19.50,6.00
L19.50,6.00
M19.45,6.70
C19.45,6.79 19.48,6.87 19.53,6.92
C19.58,6.98 19.64,7.01 19.71,7.01
C19.78,7.01 19.84,6.98 19.89,6.93
C19.93,6.87 19.96,6.80 19.96,6.70
C19.96,6.61 19.93,6.54 19.88,6.48
C19.83,6.42 19.77,6.39 19.70,6.39
C19.63,6.39 19.57,6.42 19.53,6.48
C19.48,6.54 19.45,6.61 19.45,6.70
" />
</g>
<g fill="rgb(255,64,26)" >
<path 
d="M1.77,3.23
1.77,2.14 
1.91,2.14 
1.91,2.29 
C1.94,2.23 1.97,2.19 2.02,2.16
C2.07,2.13 2.12,2.11 2.18,2.11
C2.24,2.11 2.29,2.13 2.34,2.16
C2.38,2.19 2.41,2.24 2.43,2.30
C2.47,2.24 2.51,2.19 2.56,2.16
C2.60,2.13 2.65,2.11 2.71,2.11
C2.80,2.11 2.86,2.14 2.91,2.20
C2.96,2.26 2.99,2.35 2.99,2.48
L2.99,3.23 
2.84,3.23 
2.84,2.54 
C2.84,2.46 2.83,2.41 2.82,2.38
C2.81,2.34 2.79,2.32 2.76,2.30
C2.74,2.28 2.71,2.27 2.68,2.27
C2.61,2.27 2.56,2.30 2.52,2.35
C2.48,2.40 2.45,2.48 2.45,2.60
L2.45,3.23 
2.30,3.23 
2.30,2.52 
C2.30,2.43 2.29,2.37 2.26,2.33
C2.23,2.29 2.19,2.27 2.15,2.27
C2.08,2.27 2.02,2.30 1.98,2.36
C1.94,2.41 1.92,2.52 1.92,2.66
L1.92,3.23 
" />
</g>
<g fill="rgb(255,64,26)" >
<path 
d="M3.21,1.93
3.21,1.72 
3.37,1.72 
3.37,1.93 
L3.21,1.93
M3.21,3.23
3.21,2.14 
3.37,2.14 
3.37,3.23 
" />
</g>
<g fill="rgb(255,64,26)" >
<path 
d="M3.60,3.23
3.60,2.14 
3.74,2.14 
3.74,2.29 
C3.77,2.23 3.81,2.19 3.86,2.16
C3.91,2.13 3.96,2.11 4.02,2.11
C4.07,2.11 4.12,2.12 4.16,2.14
C4.20,2.16 4.23,2.18 4.25,2.22
C4.28,2.25 4.30,2.29 4.31,2.33
C4.32,2.38 4.33,2.46 4.33,2.56
L4.33,3.23 
4.18,3.23 
4.18,2.57 
C4.18,2.49 4.17,2.43 4.16,2.39
C4.14,2.35 4.12,2.32 4.09,2.30
C4.06,2.28 4.03,2.27 3.99,2.27
C3.92,2.27 3.86,2.30 3.82,2.35
C3.77,2.41 3.75,2.50 3.75,2.63
L3.75,3.23 
" />
</g>
<g fill="rgb(255,64,26)" >
<path 
d="M4.61,3.23
4.61,3.02 
4.79,3.02 
4.79,3.23 
" />
</g>
<g fill="rgb(255,64,26)" >
<path 
d="M6.06,3.23
5.91,3.23 
5.91,2.05 
C5.87,2.09 5.82,2.13 5.76,2.18
C5.70,2.22 5.65,2.25 5.60,2.27
L5.60,2.09 
C5.68,2.05 5.76,1.99 5.82,1.92
C5.89,1.85 5.93,1.78 5.96,1.71
L6.06,1.71 
" />
</g>
<g fill="rgb(255,64,26)" >
<path 
d="M6.54,3.23
6.54,3.02 
6.71,3.02 
6.71,3.23 
" />
</g>
<g fill="rgb(255,64,26)" >
<path 
d="M6.93,2.84
7.09,2.82 
C7.10,2.92 7.13,2.99 7.18,3.04
C7.22,3.08 7.27,3.11 7.33,3.11
C7.40,3.11 7.46,3.07 7.52,3.01
C7.57,2.94 7.59,2.85 7.59,2.74
C7.59,2.63 7.57,2.54 7.52,2.48
C7.47,2.42 7.40,2.39 7.33,2.39
C7.28,2.39 7.24,2.41 7.20,2.43
C7.16,2.46 7.13,2.49 7.10,2.54
L6.96,2.52 
7.08,1.74 
7.70,1.74 
7.70,1.92 
7.20,1.92 
7.13,2.32 
C7.21,2.26 7.29,2.23 7.37,2.23
C7.47,2.23 7.56,2.27 7.64,2.36
C7.72,2.45 7.76,2.57 7.76,2.72
C7.76,2.87 7.72,3.00 7.64,3.10
C7.56,3.21 7.46,3.26 7.33,3.26
C7.22,3.26 7.13,3.22 7.06,3.15
C6.98,3.07 6.94,2.97 6.93,2.84
" />
</g>
<g fill="rgb(255,64,26)" >
<path 
d="M8.71,3.68
C8.64,3.56 8.57,3.42 8.51,3.24
C8.44,3.07 8.41,2.88 8.41,2.69
C8.41,2.35 8.51,2.02 8.71,1.69
L8.82,1.69 
C8.75,1.86 8.69,1.98 8.66,2.07
C8.63,2.16 8.61,2.26 8.59,2.36
C8.58,2.47 8.57,2.58 8.57,2.69
C8.57,3.02 8.65,3.35 8.82,3.68
" />
</g>
<g fill="rgb(255,64,26)" >
<path 
d="M8.97,2.50
C8.97,2.24 9.03,2.04 9.14,1.90
C9.26,1.76 9.40,1.69 9.57,1.69
C9.68,1.69 9.78,1.72 9.87,1.79
C9.96,1.85 10.03,1.94 10.08,2.06
C10.14,2.17 10.16,2.32 10.16,2.48
C10.16,2.70 10.11,2.89 10.01,3.03
C9.90,3.18 9.75,3.26 9.57,3.26
C9.38,3.26 9.24,3.18 9.13,3.02
C9.02,2.88 8.97,2.70 8.97,2.50
L8.97,2.50
M9.14,2.50
C9.14,2.69 9.18,2.83 9.27,2.93
C9.35,3.04 9.45,3.09 9.57,3.09
C9.69,3.09 9.79,3.04 9.87,2.93
C9.95,2.83 9.99,2.68 9.99,2.47
C9.99,2.34 9.97,2.23 9.93,2.12
C9.90,2.05 9.85,1.98 9.78,1.94
C9.72,1.89 9.65,1.86 9.57,1.86
C9.45,1.86 9.34,1.92 9.26,2.02
C9.18,2.12 9.14,2.28 9.14,2.50
" />
</g>
<g fill="rgb(255,64,26)" >
<path 
d="M10.37,3.23
10.37,1.72 
10.61,1.72 
10.91,2.79 
10.97,3.02 
C10.98,2.96 11.00,2.88 11.03,2.77
L11.33,1.72 
11.55,1.72 
11.55,3.23 
11.39,3.23 
11.39,1.97 
11.03,3.23 
10.88,3.23 
10.52,1.95 
10.52,3.23 
" />
</g>
<g fill="rgb(255,64,26)" >
<path 
d="M11.85,3.68
11.75,3.68 
C11.91,3.35 12.00,3.02 12.00,2.69
C12.00,2.58 11.99,2.47 11.97,2.36
C11.96,2.26 11.93,2.16 11.90,2.07
C11.88,1.98 11.82,1.86 11.75,1.69
L11.85,1.69 
C12.05,2.02 12.15,2.35 12.15,2.69
C12.15,2.88 12.12,3.06 12.06,3.23
C12.01,3.41 11.94,3.56 11.85,3.68
" />
</g>
<g fill="rgb(255,64,26)" >
<path 
d="M10.79,6.37
C10.79,6.11 10.83,5.92 10.90,5.79
C10.97,5.66 11.07,5.59 11.20,5.59
C11.32,5.59 11.41,5.65 11.48,5.75
C11.56,5.88 11.60,6.09 11.60,6.37
C11.60,6.62 11.57,6.81 11.50,6.94
C11.43,7.08 11.33,7.14 11.20,7.14
C11.08,7.14 10.98,7.08 10.91,6.97
C10.83,6.85 10.79,6.65 10.79,6.37
L10.79,6.37
M10.95,6.37
C10.95,6.61 10.97,6.78 11.02,6.86
C11.07,6.95 11.13,6.99 11.20,6.99
C11.27,6.99 11.33,6.95 11.38,6.86
C11.43,6.78 11.45,6.61 11.45,6.37
C11.45,6.12 11.42,5.96 11.38,5.87
C11.33,5.79 11.27,5.75 11.19,5.75
C11.12,5.75 11.07,5.79 11.02,5.87
C10.97,5.96 10.95,6.12 10.95,6.37
" />
</g>
<g fill="rgb(255,64,26)" >
<path 
d="M11.85,7.11
11.85,6.90 
12.02,6.90 
12.02,7.11 
" />
</g>
<g fill="rgb(255,64,26)" >
<path 
d="M12.48,6.29
C12.42,6.27 12.37,6.23 12.34,6.17
C12.31,6.12 12.29,6.06 12.29,5.98
C12.29,5.87 12.33,5.77 12.39,5.70
C12.46,5.63 12.55,5.59 12.65,5.59
C12.75,5.59 12.84,5.63 12.91,5.70
C12.97,5.78 13.01,5.87 13.01,5.99
C13.01,6.06 12.99,6.12 12.96,6.17
C12.93,6.23 12.89,6.26 12.83,6.29
C12.90,6.32 12.96,6.37 13.00,6.44
C13.04,6.50 13.06,6.58 13.06,6.68
C13.06,6.82 13.02,6.93 12.94,7.01
C12.86,7.10 12.77,7.14 12.65,7.14
C12.54,7.14 12.44,7.10 12.36,7.01
C12.28,6.93 12.24,6.82 12.24,6.68
C12.24,6.58 12.26,6.49 12.30,6.43
C12.35,6.36 12.40,6.32 12.48,6.29
L12.48,6.29
M12.45,5.98
C12.45,6.05 12.47,6.11 12.51,6.15
C12.55,6.20 12.59,6.22 12.65,6.22
C12.71,6.22 12.76,6.20 12.79,6.16
C12.83,6.11 12.85,6.06 12.85,5.99
C12.85,5.92 12.83,5.86 12.79,5.81
C12.75,5.77 12.70,5.75 12.65,5.75
C12.59,5.75 12.55,5.77 12.51,5.81
C12.47,5.86 12.45,5.91 12.45,5.98
L12.45,5.98
M12.40,6.68
C12.40,6.77 12.42,6.85 12.47,6.90
C12.52,6.96 12.58,6.99 12.65,6.99
C12.72,6.99 12.78,6.96 12.83,6.91
C12.88,6.85 12.90,6.78 12.90,6.68
C12.90,6.59 12.88,6.52 12.83,6.46
C12.78,6.40 12.72,6.37 12.65,6.37
C12.58,6.37 12.52,6.40 12.47,6.46
C12.42,6.52 12.40,6.59 12.40,6.68
" />
</g>
</g>
</g>
<g id="709.009 Out of bounds area, solid line 159" >
<g stroke="rgb(255,64,26)">
<g stroke-width="0.10"
style="&stB;"
>
<path 
d="M5.55,5.09
L5.55,3.68
" />
</g>
<g stroke-width="0.10"
style="&stB;"
>
<path 
d="M8.54,5.08
L8.54,3.67
" />
</g>
<g stroke-width="0.10"
style="&stB;"
>
<path 
d="M10.31,7.06
L8.90,7.06
" />
</g>
<g stroke-width="0.10"
style="&stB;"
>
<path 
d="M10.30,5.46
L8.89,5.46
" />
</g>
<g stroke-width="0.10"
style="&stB;"
>
<path 
d="M8.34,7.34
L8.74,8.13
" />
</g>
</g>
</g>
</g>
<g opacity="1.00">
</g>
<g opacity="1.00">
</g>
<g opacity="1.00">
</g>
<g opacity="1.00">
</g>
<g opacity="1.00">
</g>
<g opacity="1.00">
</g>
<g opacity="1.00">
</g>
<g opacity="1.00">
</g>
<g opacity="1.00">
</g>
<g opacity="1.00">
</g>
<g opacity="1.00">
</g>
<g opacity="1.00">
</g>
<g opacity="1.00">
</g>
<g opacity="1.00">
</g>
<g opacity="1.00">
</g>
<g opacity="1.00">
</g>
<g opacity="1.00">
</g>
<g opacity="1.00">
</g>
<g opacity="1.00">
</g>
<g opacity="1.00">
</g>
<g opacity="1.00">
</g>
<g opacity="1.00">
</g>
<g opacity="1.00">
</g>
<g opacity="1.00">
</g>
<g opacity="1.00">
</g>
<g opacity="1.00">
</g>
<g opacity="1.00">
</g>
<g opacity="1.00">
</g>
<g opacity="1.00">
</g>
<g opacity="1.00">
</g>
<g opacity="1.00">
</g>
<g opacity="1.00">
</g>
<g opacity="1.00">
</g>
<g opacity="1.00">
</g>
<g opacity="1.00">
</g>
<g opacity="1.00">
</g>
<g opacity="1.00">
</g>
<g opacity="1.00">
</g>
<g opacity="1.00">
</g>
<g opacity="1.00">
</g>
<g opacity="1.00">
</g>
<g opacity="1.00">
</g>
<g opacity="1.00">
</g>
<g opacity="1.00">
</g>
<g opacity="1.00">
</g>
<g opacity="1.00">
</g>
<g opacity="1.00">
</g>
<g opacity="1.00">
</g>
<g opacity="1.00">
</g>
<g opacity="1.00">
</g>
<g opacity="1.00">
</g>
<g opacity="1.00">
</g>
<g opacity="1.00">
</g>
<g opacity="1.00">
</g>
<g opacity="1.00">
</g>
<g opacity="1.00">
</g>
<g opacity="1.00">
</g>
<g opacity="1.00">
</g>
<g opacity="1.00">
</g>
<g opacity="1.00">
</g>
<g opacity="1.00">
</g>
<g opacity="1.00">
</g>
<g opacity="1.00">
</g>
<g opacity="1.00">
</g>
<g opacity="1.00">
</g>
<g opacity="1.00">
</g>
<g opacity="1.00">
</g>
<g opacity="1.00">
</g>
<g opacity="1.00">
</g>
<g opacity="1.00">
</g>
</g>
</g>
</g>
</g>
</svg>
