<?xml version="1.0" standalone="no"?>
<!-- Generator: OCAD -->
<!DOCTYPE svg PUBLIC "-//W3C//DTD SVG 20010904//EN"
"http://www.w3.org/TR/2001/REC-SVG-20010904/DTD/svg10.dtd" [
<!ENTITY stR "stroke-linejoin:round;stroke-linecap:round">
<!ENTITY stB "stroke-linejoin:bevel">
]>
<svg id="mainMap" width="1.6540cm" height="0.9740cm" viewBox="0 0 16.5400 9.7400" style="fill:none;stroke-width:0;fill-rule:evenodd" xmlns:xlink="http://www.w3.org/1999/xlink" xmlns="http://www.w3.org/2000/svg" >
  <rect width="100%" height="100%" fill="white"/>

<desc>Map</desc>
<g id="scaleTransform" transform="scale(1.00000000)">
<g id="mainMapContent">
<!-- map fill color -->
<rect id="mapBg" x="-100%" y="-100%" width="200%" height="200%" fill="none" />
<g>
<clipPath id="Clip" fill="none" stroke="none">
<rect x="0" y="0" width="16.5400" height="9.7400" fill="none" />
</clipPath>
<g clip-path="url(#Clip)">
<g opacity="1.00">
</g>
<g opacity="1.00">
</g>
<g opacity="1.00">
</g>
<g opacity="1.00">
</g>
<g opacity="1.00">
</g>
<g opacity="1.00">
</g>
<g opacity="1.00">
</g>
<g opacity="1.00">
</g>
<g opacity="1.00">
</g>
<g opacity="1.00">
</g>
<g opacity="1.00">
</g>
<g opacity="1.00">
</g>
<g opacity="1.00">
</g>
<g opacity="1.00">
</g>
<g opacity="1.00">
</g>
<g opacity="1.00">
</g>
<g opacity="1.00">
</g>
<g opacity="1.00">
</g>
<g opacity="1.00">
</g>
<g opacity="1.00">
</g>
<g opacity="1.00">
</g>
<g opacity="1.00">
</g>
<g opacity="1.00">
</g>
<g opacity="1.00">
</g>
<g opacity="1.00">
</g>
<g opacity="1.00">
</g>
<g opacity="1.00">
</g>
<g opacity="1.00">
</g>
<g opacity="1.00">
<g id="544.000 poles 280" >
<g stroke="rgb(0,0,0)">
<g stroke-width="0.36"
style="&stR;"
>
<path 
d="M3.92,2.83
C3.92,3.34 4.33,3.75 4.84,3.75
C5.35,3.75 5.76,3.34 5.76,2.83
C5.76,2.32 5.35,1.91 4.84,1.91
C4.33,1.91 3.92,2.32 3.92,2.83
" />
</g>
</g>
</g>
</g>
<g opacity="1.00">
</g>
<g opacity="1.00">
</g>
<g opacity="1.00">
</g>
<g opacity="1.00">
</g>
<g opacity="1.00">
</g>
<g opacity="1.00">
</g>
<g opacity="1.00">
</g>
<g opacity="1.00">
</g>
<g opacity="1.00">
</g>
<g opacity="1.00">
</g>
<g opacity="1.00">
</g>
<g opacity="1.00">
</g>
<g opacity="1.00">
</g>
<g opacity="1.00">
</g>
<g opacity="1.00">
</g>
<g opacity="1.00">
</g>
<g opacity="1.00">
</g>
<g opacity="1.00">
</g>
<g opacity="1.00">
</g>
<g opacity="1.00">
</g>
<g opacity="1.00">
</g>
<g opacity="1.00">
</g>
<g opacity="1.00">
</g>
<g opacity="1.00">
</g>
<g opacity="1.00">
</g>
<g opacity="1.00">
</g>
<g opacity="1.00">
</g>
<g opacity="1.00">
</g>
<g opacity="1.00">
</g>
<g opacity="1.00">
</g>
<g opacity="1.00">
</g>
<g opacity="1.00">
</g>
<g opacity="1.00">
</g>
<g opacity="1.00">
</g>
<g opacity="1.00">
</g>
<g opacity="1.00">
</g>
<g opacity="1.00">
</g>
<g opacity="1.00">
</g>
<g opacity="1.00">
</g>
<g opacity="1.00">
</g>
<g opacity="1.00">
</g>
<g opacity="1.00">
</g>
<g opacity="1.00">
</g>
<g opacity="1.00">
</g>
<g opacity="1.00">
</g>
<g opacity="1.00">
</g>
<g opacity="1.00">
</g>
<g opacity="1.00">
</g>
<g opacity="1.00">
</g>
<g opacity="1.00">
</g>
<g opacity="1.00">
</g>
<g opacity="1.00">
</g>
<g opacity="1.00">
</g>
<g opacity="1.00">
</g>
<g opacity="1.00">
</g>
<g opacity="1.00">
</g>
<g opacity="1.00">
</g>
<g opacity="1.00">
</g>
<g opacity="1.00">
</g>
<g opacity="1.00">
</g>
<g opacity="1.00">
</g>
<g opacity="1.00">
</g>
<g opacity="1.00">
</g>
<g opacity="1.00">
</g>
<g opacity="1.00">
</g>
<g opacity="1.00">
</g>
<g opacity="1.00">
</g>
<g opacity="1.00">
<g id="703.001 Control number 159" >
<g stroke="rgb(255,64,26)">
<g fill="rgb(255,64,26)" >
<path 
d="M2.15,7.71
2.00,7.71 
2.00,6.53 
C1.96,6.57 1.91,6.61 1.85,6.66
C1.80,6.70 1.74,6.73 1.69,6.75
L1.69,6.57 
C1.78,6.53 1.85,6.47 1.91,6.40
C1.98,6.33 2.02,6.26 2.05,6.19
L2.15,6.19 
" />
</g>
<g fill="rgb(255,64,26)" >
<path 
d="M2.63,7.71
2.63,7.50 
2.80,7.50 
2.80,7.71 
" />
</g>
<g fill="rgb(255,64,26)" >
<path 
d="M3.60,7.71
3.44,7.71 
3.44,6.53 
C3.41,6.57 3.36,6.61 3.30,6.66
C3.24,6.70 3.19,6.73 3.14,6.75
L3.14,6.57 
C3.22,6.53 3.30,6.47 3.36,6.40
C3.43,6.33 3.47,6.26 3.50,6.19
L3.60,6.19 
" />
</g>
<g fill="rgb(255,64,26)" >
<path 
d="M4.80,8.16
C4.73,8.04 4.66,7.90 4.60,7.72
C4.53,7.55 4.50,7.36 4.50,7.17
C4.50,6.83 4.60,6.50 4.80,6.17
L4.91,6.17 
C4.84,6.34 4.78,6.46 4.75,6.55
C4.72,6.64 4.70,6.74 4.68,6.84
C4.67,6.95 4.66,7.06 4.66,7.17
C4.66,7.50 4.74,7.83 4.91,8.16
" />
</g>
<g fill="rgb(255,64,26)" >
<path 
d="M5.06,6.98
C5.06,6.72 5.12,6.52 5.23,6.38
C5.35,6.24 5.49,6.17 5.66,6.17
C5.77,6.17 5.87,6.20 5.96,6.27
C6.05,6.33 6.12,6.42 6.17,6.54
C6.23,6.65 6.25,6.80 6.25,6.96
C6.25,7.18 6.20,7.37 6.10,7.51
C5.99,7.66 5.84,7.74 5.66,7.74
C5.47,7.74 5.33,7.66 5.22,7.50
C5.11,7.36 5.06,7.18 5.06,6.98
L5.06,6.98
M5.23,6.98
C5.23,7.17 5.27,7.31 5.36,7.41
C5.44,7.52 5.54,7.57 5.66,7.57
C5.78,7.57 5.88,7.52 5.96,7.41
C6.04,7.31 6.08,7.16 6.08,6.95
C6.08,6.82 6.06,6.71 6.02,6.60
C5.99,6.53 5.94,6.46 5.87,6.42
C5.81,6.37 5.74,6.34 5.66,6.34
C5.54,6.34 5.43,6.40 5.35,6.50
C5.27,6.60 5.23,6.76 5.23,6.98
" />
</g>
<g fill="rgb(255,64,26)" >
<path 
d="M6.46,7.71
6.46,6.20 
6.70,6.20 
7.00,7.27 
7.06,7.50 
C7.07,7.44 7.09,7.36 7.12,7.25
L7.42,6.20 
7.64,6.20 
7.64,7.71 
7.48,7.71 
7.48,6.45 
7.12,7.71 
6.97,7.71 
6.61,6.43 
6.61,7.71 
" />
</g>
<g fill="rgb(255,64,26)" >
<path 
d="M7.95,8.16
7.84,8.16 
C8.00,7.83 8.09,7.50 8.09,7.17
C8.09,7.06 8.08,6.95 8.06,6.84
C8.05,6.74 8.02,6.64 7.99,6.55
C7.97,6.46 7.91,6.34 7.84,6.17
L7.95,6.17 
C8.15,6.50 8.25,6.83 8.25,7.17
C8.25,7.36 8.22,7.54 8.16,7.71
C8.10,7.89 8.03,8.04 7.95,8.16
" />
</g>
<g fill="rgb(255,64,26)" >
<path 
d="M11.70,2.95
C11.70,2.69 11.74,2.50 11.81,2.37
C11.88,2.24 11.98,2.17 12.11,2.17
C12.23,2.17 12.32,2.23 12.39,2.33
C12.47,2.46 12.51,2.67 12.51,2.95
C12.51,3.20 12.48,3.39 12.41,3.52
C12.34,3.66 12.24,3.72 12.11,3.72
C11.99,3.72 11.89,3.66 11.82,3.55
C11.74,3.43 11.70,3.23 11.70,2.95
L11.70,2.95
M11.86,2.95
C11.86,3.19 11.88,3.36 11.93,3.44
C11.98,3.53 12.04,3.57 12.11,3.57
C12.18,3.57 12.24,3.53 12.29,3.44
C12.34,3.36 12.36,3.19 12.36,2.95
C12.36,2.70 12.33,2.54 12.29,2.45
C12.24,2.37 12.18,2.33 12.10,2.33
C12.03,2.33 11.98,2.37 11.93,2.45
C11.88,2.54 11.86,2.70 11.86,2.95
" />
</g>
<g fill="rgb(255,64,26)" >
<path 
d="M12.76,3.69
12.76,3.48 
12.93,3.48 
12.93,3.69 
" />
</g>
<g fill="rgb(255,64,26)" >
<path 
d="M13.73,3.69
13.57,3.69 
13.57,2.51 
C13.54,2.55 13.49,2.59 13.43,2.64
C13.37,2.68 13.32,2.71 13.27,2.73
L13.27,2.55 
C13.35,2.51 13.43,2.45 13.49,2.38
C13.56,2.31 13.60,2.24 13.63,2.17
L13.73,2.17 
" />
</g>
<g fill="rgb(255,64,26)" >
<path 
d="M14.35,2.87
C14.29,2.85 14.25,2.81 14.21,2.75
C14.18,2.70 14.17,2.64 14.17,2.56
C14.17,2.45 14.20,2.35 14.27,2.28
C14.34,2.21 14.42,2.17 14.52,2.17
C14.63,2.17 14.71,2.21 14.78,2.28
C14.85,2.36 14.88,2.45 14.88,2.57
C14.88,2.64 14.87,2.70 14.84,2.75
C14.81,2.81 14.76,2.84 14.70,2.87
C14.78,2.90 14.83,2.95 14.87,3.02
C14.91,3.08 14.94,3.16 14.94,3.26
C14.94,3.40 14.90,3.51 14.82,3.59
C14.74,3.68 14.64,3.72 14.53,3.72
C14.41,3.72 14.31,3.68 14.23,3.59
C14.16,3.51 14.12,3.40 14.12,3.26
C14.12,3.16 14.14,3.07 14.18,3.01
C14.22,2.94 14.28,2.90 14.35,2.87
L14.35,2.87
M14.32,2.56
C14.32,2.63 14.34,2.69 14.38,2.73
C14.42,2.78 14.47,2.80 14.53,2.80
C14.58,2.80 14.63,2.78 14.67,2.74
C14.71,2.69 14.73,2.64 14.73,2.57
C14.73,2.50 14.71,2.44 14.67,2.39
C14.63,2.35 14.58,2.33 14.53,2.33
C14.47,2.33 14.42,2.35 14.38,2.39
C14.34,2.44 14.32,2.49 14.32,2.56
L14.32,2.56
M14.27,3.26
C14.27,3.35 14.30,3.43 14.35,3.48
C14.40,3.54 14.46,3.57 14.53,3.57
C14.60,3.57 14.66,3.54 14.71,3.49
C14.75,3.43 14.78,3.36 14.78,3.26
C14.78,3.17 14.75,3.10 14.70,3.04
C14.65,2.98 14.59,2.95 14.52,2.95
C14.45,2.95 14.39,2.98 14.35,3.04
C14.30,3.10 14.27,3.17 14.27,3.26
" />
</g>
</g>
</g>
<g id="709.009 Out of bounds area, solid line 159" >
<g stroke="rgb(255,64,26)">
<g stroke-width="0.10"
style="&stB;"
>
<path 
d="M3.76,5.36
L3.76,3.95
" />
</g>
<g stroke-width="0.10"
style="&stB;"
>
<path 
d="M5.94,5.35
L5.94,3.94
" />
</g>
</g>
</g>
</g>
<g opacity="1.00">
</g>
<g opacity="1.00">
</g>
<g opacity="1.00">
</g>
<g opacity="1.00">
</g>
<g opacity="1.00">
</g>
<g opacity="1.00">
</g>
<g opacity="1.00">
</g>
<g opacity="1.00">
</g>
<g opacity="1.00">
</g>
<g opacity="1.00">
</g>
<g opacity="1.00">
</g>
<g opacity="1.00">
</g>
<g opacity="1.00">
</g>
<g opacity="1.00">
</g>
<g opacity="1.00">
</g>
<g opacity="1.00">
</g>
<g opacity="1.00">
</g>
<g opacity="1.00">
</g>
<g opacity="1.00">
</g>
<g opacity="1.00">
</g>
<g opacity="1.00">
</g>
<g opacity="1.00">
</g>
<g opacity="1.00">
</g>
<g opacity="1.00">
</g>
<g opacity="1.00">
</g>
<g opacity="1.00">
</g>
<g opacity="1.00">
</g>
<g opacity="1.00">
</g>
<g opacity="1.00">
</g>
<g opacity="1.00">
</g>
<g opacity="1.00">
</g>
<g opacity="1.00">
</g>
<g opacity="1.00">
</g>
<g opacity="1.00">
</g>
<g opacity="1.00">
</g>
<g opacity="1.00">
</g>
<g opacity="1.00">
</g>
<g opacity="1.00">
</g>
<g opacity="1.00">
</g>
<g opacity="1.00">
</g>
<g opacity="1.00">
</g>
<g opacity="1.00">
</g>
<g opacity="1.00">
</g>
<g opacity="1.00">
</g>
<g opacity="1.00">
</g>
<g opacity="1.00">
</g>
<g opacity="1.00">
</g>
<g opacity="1.00">
</g>
<g opacity="1.00">
</g>
<g opacity="1.00">
</g>
<g opacity="1.00">
</g>
<g opacity="1.00">
</g>
<g opacity="1.00">
</g>
<g opacity="1.00">
</g>
<g opacity="1.00">
</g>
<g opacity="1.00">
</g>
<g opacity="1.00">
</g>
<g opacity="1.00">
</g>
<g opacity="1.00">
</g>
<g opacity="1.00">
</g>
<g opacity="1.00">
</g>
<g opacity="1.00">
</g>
<g opacity="1.00">
</g>
<g opacity="1.00">
</g>
<g opacity="1.00">
</g>
<g opacity="1.00">
</g>
<g opacity="1.00">
</g>
<g opacity="1.00">
</g>
<g opacity="1.00">
</g>
<g opacity="1.00">
</g>
</g>
</g>
</g>
</g>
</svg>
