<?xml version="1.0" standalone="no"?>
<!-- Generator: OCAD -->
<!DOCTYPE svg PUBLIC "-//W3C//DTD SVG 20010904//EN"
"http://www.w3.org/TR/2001/REC-SVG-20010904/DTD/svg10.dtd" [
<!ENTITY stR "stroke-linejoin:round;stroke-linecap:round">
<!ENTITY stB "stroke-linejoin:bevel">
]>
<svg id="mainMap" width="2.7550cm" height="1.4090cm" viewBox="0 0 27.5500 14.0900" style="fill:none;stroke-width:0;fill-rule:evenodd" xmlns:xlink="http://www.w3.org/1999/xlink" xmlns="http://www.w3.org/2000/svg" >
<desc>Map</desc>
<g id="scaleTransform" transform="scale(1.00000000)">
<g id="mainMapContent">
<!-- map fill color -->
<rect id="mapBg" x="-100%" y="-100%" width="200%" height="200%" fill="none" />
<g>
<clipPath id="Clip" fill="none" stroke="none">
<rect x="0" y="0" width="27.5500" height="14.0900" fill="none" />
</clipPath>
<g clip-path="url(#Clip)">
<g opacity="1.00">
</g>
<g opacity="1.00">
</g>
<g opacity="1.00">
</g>
<g opacity="1.00">
</g>
<g opacity="1.00">
</g>
<g opacity="1.00">
</g>
<g opacity="1.00">
</g>
<g opacity="1.00">
</g>
<g opacity="1.00">
</g>
<g opacity="1.00">
</g>
<g opacity="1.00">
</g>
<g opacity="1.00">
</g>
<g opacity="1.00">
</g>
<g opacity="1.00">
</g>
<g opacity="1.00">
</g>
<g opacity="1.00">
</g>
<g opacity="1.00">
</g>
<g opacity="1.00">
</g>
<g opacity="1.00">
</g>
<g opacity="1.00">
</g>
<g opacity="1.00">
</g>
<g opacity="1.00">
</g>
<g opacity="1.00">
</g>
<g opacity="1.00">
</g>
<g opacity="1.00">
</g>
<g opacity="1.00">
</g>
<g opacity="1.00">
</g>
<g opacity="1.00">
</g>
<g opacity="1.00">
<g id="545.000 lamp post 280" >
<g stroke="rgb(0,0,0)">
<g stroke-width="0.36"
style="&stR;"
>
<path 
d="M14.73,6.72
C14.73,7.44 15.31,8.02 16.03,8.02
C16.75,8.02 17.33,7.44 17.33,6.72
C17.33,6.00 16.75,5.42 16.03,5.42
C15.31,5.42 14.73,6.00 14.73,6.72
" />
</g>
<g stroke-width="0.24"
style="&stB;"
>
<path 
d="M15.53,6.22
L16.51,7.20
" />
</g>
<g stroke-width="0.24"
style="&stB;"
>
<path 
d="M15.55,7.20
L16.53,6.24
" />
</g>
</g>
</g>
</g>
<g opacity="1.00">
</g>
<g opacity="1.00">
</g>
<g opacity="1.00">
</g>
<g opacity="1.00">
</g>
<g opacity="1.00">
</g>
<g opacity="1.00">
</g>
<g opacity="1.00">
</g>
<g opacity="1.00">
</g>
<g opacity="1.00">
</g>
<g opacity="1.00">
</g>
<g opacity="1.00">
</g>
<g opacity="1.00">
</g>
<g opacity="1.00">
</g>
<g opacity="1.00">
</g>
<g opacity="1.00">
</g>
<g opacity="1.00">
</g>
<g opacity="1.00">
</g>
<g opacity="1.00">
</g>
<g opacity="1.00">
</g>
<g opacity="1.00">
</g>
<g opacity="1.00">
</g>
<g opacity="1.00">
</g>
<g opacity="1.00">
</g>
<g opacity="1.00">
</g>
<g opacity="1.00">
</g>
<g opacity="1.00">
</g>
<g opacity="1.00">
</g>
<g opacity="1.00">
</g>
<g opacity="1.00">
</g>
<g opacity="1.00">
</g>
<g opacity="1.00">
</g>
<g opacity="1.00">
</g>
<g opacity="1.00">
</g>
<g opacity="1.00">
</g>
<g opacity="1.00">
</g>
<g opacity="1.00">
</g>
<g opacity="1.00">
</g>
<g opacity="1.00">
</g>
<g opacity="1.00">
</g>
<g opacity="1.00">
</g>
<g opacity="1.00">
</g>
<g opacity="1.00">
</g>
<g opacity="1.00">
</g>
<g opacity="1.00">
</g>
<g opacity="1.00">
</g>
<g opacity="1.00">
</g>
<g opacity="1.00">
</g>
<g opacity="1.00">
</g>
<g opacity="1.00">
</g>
<g opacity="1.00">
</g>
<g opacity="1.00">
</g>
<g opacity="1.00">
</g>
<g opacity="1.00">
</g>
<g opacity="1.00">
</g>
<g opacity="1.00">
</g>
<g opacity="1.00">
</g>
<g opacity="1.00">
</g>
<g opacity="1.00">
</g>
<g opacity="1.00">
</g>
<g opacity="1.00">
</g>
<g opacity="1.00">
</g>
<g opacity="1.00">
</g>
<g opacity="1.00">
</g>
<g opacity="1.00">
</g>
<g opacity="1.00">
</g>
<g opacity="1.00">
</g>
<g opacity="1.00">
</g>
<g opacity="1.00">
<g id="703.001 Control number 159" >
<g stroke="rgb(255,64,26)">
<g fill="rgb(255,64,26)" >
<path 
d="M12.58,11.27
C12.58,11.01 12.62,10.82 12.69,10.69
C12.76,10.56 12.86,10.49 12.99,10.49
C13.11,10.49 13.20,10.55 13.27,10.65
C13.35,10.78 13.39,10.99 13.39,11.27
C13.39,11.52 13.36,11.71 13.29,11.84
C13.22,11.98 13.12,12.04 12.99,12.04
C12.87,12.04 12.77,11.98 12.70,11.87
C12.62,11.75 12.58,11.55 12.58,11.27
L12.58,11.27
M12.74,11.27
C12.74,11.51 12.76,11.68 12.81,11.76
C12.86,11.85 12.92,11.89 12.99,11.89
C13.06,11.89 13.12,11.85 13.17,11.76
C13.22,11.68 13.24,11.51 13.24,11.27
C13.24,11.02 13.21,10.86 13.17,10.77
C13.12,10.69 13.06,10.65 12.98,10.65
C12.91,10.65 12.86,10.69 12.81,10.77
C12.76,10.86 12.74,11.02 12.74,11.27
" />
</g>
<g fill="rgb(255,64,26)" >
<path 
d="M13.64,12.01
13.64,11.80 
13.81,11.80 
13.81,12.01 
" />
</g>
<g fill="rgb(255,64,26)" >
<path 
d="M14.82,10.87
14.67,10.88 
C14.66,10.81 14.64,10.75 14.61,10.72
C14.57,10.67 14.52,10.65 14.46,10.65
C14.37,10.65 14.30,10.70 14.25,10.81
C14.20,10.91 14.18,11.05 14.18,11.23
C14.21,11.17 14.26,11.12 14.31,11.08
C14.36,11.05 14.42,11.03 14.48,11.03
C14.58,11.03 14.66,11.08 14.74,11.17
C14.81,11.26 14.85,11.37 14.85,11.52
C14.85,11.63 14.83,11.72 14.79,11.80
C14.75,11.88 14.71,11.94 14.65,11.98
C14.59,12.02 14.53,12.04 14.46,12.04
C14.33,12.04 14.23,11.98 14.15,11.87
C14.07,11.76 14.03,11.57 14.03,11.31
C14.03,11.01 14.07,10.80 14.15,10.68
C14.23,10.56 14.34,10.49 14.47,10.49
C14.56,10.49 14.64,10.53 14.71,10.59
C14.77,10.65 14.81,10.75 14.82,10.87
L14.82,10.87
M14.20,11.52
C14.20,11.63 14.23,11.72 14.28,11.79
C14.33,11.85 14.39,11.89 14.46,11.89
C14.52,11.89 14.57,11.86 14.62,11.79
C14.67,11.73 14.69,11.64 14.69,11.54
C14.69,11.43 14.67,11.34 14.62,11.29
C14.57,11.23 14.52,11.20 14.45,11.20
C14.38,11.20 14.32,11.23 14.27,11.28
C14.23,11.34 14.20,11.42 14.20,11.52
" />
</g>
<g fill="rgb(255,64,26)" >
<path 
d="M15.81,12.46
C15.74,12.34 15.67,12.20 15.61,12.02
C15.54,11.85 15.51,11.66 15.51,11.47
C15.51,11.13 15.61,10.80 15.81,10.47
L15.92,10.47 
C15.85,10.64 15.79,10.76 15.76,10.85
C15.73,10.94 15.71,11.04 15.69,11.14
C15.68,11.25 15.67,11.36 15.67,11.47
C15.67,11.80 15.75,12.13 15.92,12.46
" />
</g>
<g fill="rgb(255,64,26)" >
<path 
d="M16.07,11.28
C16.07,11.02 16.13,10.82 16.24,10.68
C16.36,10.54 16.50,10.47 16.67,10.47
C16.78,10.47 16.88,10.50 16.97,10.57
C17.06,10.63 17.13,10.72 17.18,10.84
C17.24,10.95 17.26,11.10 17.26,11.26
C17.26,11.48 17.21,11.67 17.11,11.81
C17.00,11.96 16.85,12.04 16.67,12.04
C16.48,12.04 16.34,11.96 16.23,11.80
C16.12,11.66 16.07,11.48 16.07,11.28
L16.07,11.28
M16.24,11.28
C16.24,11.47 16.28,11.61 16.37,11.71
C16.45,11.82 16.55,11.87 16.67,11.87
C16.79,11.87 16.89,11.82 16.97,11.71
C17.05,11.61 17.09,11.46 17.09,11.25
C17.09,11.12 17.07,11.01 17.03,10.90
C17.00,10.83 16.95,10.76 16.88,10.72
C16.82,10.67 16.75,10.64 16.67,10.64
C16.55,10.64 16.44,10.70 16.36,10.80
C16.28,10.90 16.24,11.06 16.24,11.28
" />
</g>
<g fill="rgb(255,64,26)" >
<path 
d="M17.47,12.01
17.47,10.50 
17.71,10.50 
18.01,11.57 
18.07,11.80 
C18.08,11.74 18.10,11.66 18.13,11.55
L18.43,10.50 
18.65,10.50 
18.65,12.01 
18.49,12.01 
18.49,10.75 
18.13,12.01 
17.98,12.01 
17.62,10.73 
17.62,12.01 
" />
</g>
<g fill="rgb(255,64,26)" >
<path 
d="M18.96,12.46
18.85,12.46 
C19.01,12.13 19.10,11.80 19.10,11.47
C19.10,11.36 19.09,11.25 19.07,11.14
C19.06,11.04 19.03,10.94 19.00,10.85
C18.98,10.76 18.92,10.64 18.85,10.47
L18.96,10.47 
C19.16,10.80 19.26,11.13 19.26,11.47
C19.26,11.66 19.23,11.84 19.17,12.01
C19.11,12.19 19.04,12.34 18.96,12.46
" />
</g>
<g fill="rgb(255,64,26)" >
<path 
d="M5.69,6.72
C5.69,6.46 5.73,6.27 5.80,6.14
C5.87,6.01 5.97,5.94 6.10,5.94
C6.22,5.94 6.31,6.00 6.38,6.10
C6.46,6.23 6.50,6.44 6.50,6.72
C6.50,6.97 6.47,7.16 6.40,7.29
C6.33,7.43 6.23,7.49 6.10,7.49
C5.98,7.49 5.88,7.43 5.81,7.32
C5.73,7.20 5.69,7.00 5.69,6.72
L5.69,6.72
M5.85,6.72
C5.85,6.96 5.87,7.13 5.92,7.21
C5.97,7.30 6.03,7.34 6.10,7.34
C6.17,7.34 6.23,7.30 6.28,7.21
C6.33,7.13 6.35,6.96 6.35,6.72
C6.35,6.47 6.32,6.31 6.28,6.22
C6.23,6.14 6.17,6.10 6.09,6.10
C6.02,6.10 5.97,6.14 5.92,6.22
C5.87,6.31 5.85,6.47 5.85,6.72
" />
</g>
<g fill="rgb(255,64,26)" >
<path 
d="M6.75,7.46
6.75,7.25 
6.92,7.25 
6.92,7.46 
" />
</g>
<g fill="rgb(255,64,26)" >
<path 
d="M7.93,6.32
7.78,6.33 
C7.77,6.26 7.75,6.20 7.72,6.17
C7.68,6.12 7.63,6.10 7.57,6.10
C7.48,6.10 7.41,6.15 7.36,6.26
C7.31,6.36 7.29,6.50 7.29,6.68
C7.32,6.62 7.37,6.57 7.42,6.53
C7.47,6.50 7.53,6.48 7.59,6.48
C7.69,6.48 7.77,6.53 7.85,6.62
C7.92,6.71 7.96,6.82 7.96,6.97
C7.96,7.08 7.94,7.17 7.90,7.25
C7.86,7.33 7.82,7.39 7.76,7.43
C7.70,7.47 7.64,7.49 7.57,7.49
C7.44,7.49 7.34,7.43 7.26,7.32
C7.18,7.21 7.14,7.02 7.14,6.76
C7.14,6.46 7.18,6.25 7.26,6.13
C7.34,6.01 7.45,5.94 7.58,5.94
C7.67,5.94 7.75,5.98 7.82,6.04
C7.88,6.10 7.92,6.20 7.93,6.32
L7.93,6.32
M7.31,6.97
C7.31,7.08 7.34,7.17 7.39,7.24
C7.44,7.30 7.50,7.34 7.57,7.34
C7.63,7.34 7.68,7.31 7.73,7.24
C7.78,7.18 7.80,7.09 7.80,6.99
C7.80,6.88 7.78,6.79 7.73,6.74
C7.68,6.68 7.63,6.65 7.56,6.65
C7.49,6.65 7.43,6.68 7.38,6.73
C7.34,6.79 7.31,6.87 7.31,6.97
" />
</g>
<g fill="rgb(255,64,26)" >
<path 
d="M8.92,7.91
C8.85,7.79 8.78,7.65 8.72,7.47
C8.65,7.30 8.62,7.11 8.62,6.92
C8.62,6.58 8.72,6.25 8.92,5.92
L9.03,5.92 
C8.96,6.09 8.90,6.21 8.87,6.30
C8.84,6.39 8.82,6.49 8.80,6.59
C8.79,6.70 8.78,6.81 8.78,6.92
C8.78,7.25 8.86,7.58 9.03,7.91
" />
</g>
<g fill="rgb(255,64,26)" >
<path 
d="M9.18,6.73
C9.18,6.47 9.24,6.27 9.35,6.13
C9.47,5.99 9.61,5.92 9.78,5.92
C9.89,5.92 9.99,5.95 10.08,6.02
C10.17,6.08 10.24,6.17 10.29,6.29
C10.35,6.40 10.37,6.55 10.37,6.71
C10.37,6.93 10.32,7.12 10.22,7.26
C10.11,7.41 9.96,7.49 9.78,7.49
C9.59,7.49 9.45,7.41 9.34,7.25
C9.23,7.11 9.18,6.93 9.18,6.73
L9.18,6.73
M9.35,6.73
C9.35,6.92 9.39,7.06 9.48,7.16
C9.56,7.27 9.66,7.32 9.78,7.32
C9.90,7.32 10.00,7.27 10.08,7.16
C10.16,7.06 10.20,6.91 10.20,6.70
C10.20,6.57 10.18,6.46 10.14,6.35
C10.11,6.28 10.06,6.21 9.99,6.17
C9.93,6.12 9.86,6.09 9.78,6.09
C9.66,6.09 9.55,6.15 9.47,6.25
C9.39,6.35 9.35,6.51 9.35,6.73
" />
</g>
<g fill="rgb(255,64,26)" >
<path 
d="M10.58,7.46
10.58,5.95 
10.82,5.95 
11.12,7.02 
11.18,7.25 
C11.19,7.19 11.21,7.11 11.24,7.00
L11.54,5.95 
11.76,5.95 
11.76,7.46 
11.60,7.46 
11.60,6.20 
11.24,7.46 
11.09,7.46 
10.73,6.18 
10.73,7.46 
" />
</g>
<g fill="rgb(255,64,26)" >
<path 
d="M12.07,7.91
11.96,7.91 
C12.12,7.58 12.21,7.25 12.21,6.92
C12.21,6.81 12.20,6.70 12.18,6.59
C12.17,6.49 12.14,6.39 12.11,6.30
C12.09,6.21 12.03,6.09 11.96,5.92
L12.07,5.92 
C12.27,6.25 12.37,6.58 12.37,6.92
C12.37,7.11 12.34,7.29 12.28,7.46
C12.22,7.64 12.15,7.79 12.07,7.91
" />
</g>
<g fill="rgb(255,64,26)" >
<path 
d="M7.65,11.32
C7.65,11.06 7.69,10.87 7.76,10.74
C7.83,10.61 7.93,10.54 8.06,10.54
C8.18,10.54 8.27,10.60 8.34,10.70
C8.42,10.83 8.46,11.04 8.46,11.32
C8.46,11.57 8.43,11.76 8.36,11.89
C8.29,12.03 8.19,12.09 8.06,12.09
C7.94,12.09 7.84,12.03 7.77,11.92
C7.69,11.80 7.65,11.60 7.65,11.32
L7.65,11.32
M7.81,11.32
C7.81,11.56 7.83,11.73 7.88,11.81
C7.93,11.90 7.99,11.94 8.06,11.94
C8.13,11.94 8.19,11.90 8.24,11.81
C8.29,11.73 8.31,11.56 8.31,11.32
C8.31,11.07 8.28,10.91 8.24,10.82
C8.19,10.74 8.13,10.70 8.05,10.70
C7.98,10.70 7.93,10.74 7.88,10.82
C7.83,10.91 7.81,11.07 7.81,11.32
" />
</g>
<g fill="rgb(255,64,26)" >
<path 
d="M8.71,12.06
8.71,11.85 
8.88,11.85 
8.88,12.06 
" />
</g>
<g fill="rgb(255,64,26)" >
<path 
d="M9.68,12.06
9.52,12.06 
9.52,10.88 
C9.49,10.92 9.44,10.96 9.38,11.01
C9.32,11.05 9.27,11.08 9.22,11.10
L9.22,10.92 
C9.30,10.88 9.38,10.82 9.44,10.75
C9.51,10.68 9.55,10.61 9.58,10.54
L9.68,10.54 
" />
</g>
<g fill="rgb(255,64,26)" >
<path 
d="M10.87,11.89
10.87,12.06 
10.05,12.06 
C10.05,11.99 10.07,11.91 10.12,11.82
C10.16,11.73 10.25,11.63 10.37,11.50
C10.51,11.36 10.60,11.25 10.65,11.18
C10.69,11.10 10.71,11.03 10.71,10.96
C10.71,10.88 10.69,10.82 10.65,10.77
C10.60,10.72 10.55,10.70 10.48,10.70
C10.41,10.70 10.35,10.72 10.30,10.78
C10.26,10.83 10.24,10.90 10.24,11.00
L10.08,10.98 
C10.09,10.84 10.13,10.73 10.20,10.65
C10.27,10.58 10.37,10.54 10.48,10.54
C10.61,10.54 10.71,10.59 10.77,10.67
C10.84,10.76 10.87,10.85 10.87,10.96
C10.87,11.06 10.84,11.15 10.79,11.24
C10.74,11.33 10.65,11.45 10.50,11.59
C10.41,11.69 10.35,11.75 10.33,11.78
C10.30,11.82 10.28,11.85 10.26,11.89
" />
</g>
<g fill="rgb(255,64,26)" >
<path 
d="M12.83,3.28
12.68,3.28 
12.68,2.10 
C12.64,2.14 12.59,2.18 12.53,2.23
C12.48,2.27 12.42,2.30 12.37,2.32
L12.37,2.14 
C12.46,2.10 12.53,2.04 12.59,1.97
C12.66,1.90 12.70,1.83 12.73,1.76
L12.83,1.76 
" />
</g>
<g fill="rgb(255,64,26)" >
<path 
d="M13.31,3.28
13.31,3.07 
13.48,3.07 
13.48,3.28 
" />
</g>
<g fill="rgb(255,64,26)" >
<path 
d="M14.19,3.28
14.19,2.92 
13.65,2.92 
13.65,2.75 
14.22,1.77 
14.34,1.77 
14.34,2.75 
14.51,2.75 
14.51,2.92 
14.34,2.92 
14.34,3.28 
L14.19,3.28
M14.19,2.75
14.19,2.07 
13.80,2.75 
" />
</g>
<g fill="rgb(255,64,26)" >
<path 
d="M15.48,3.73
C15.41,3.61 15.34,3.47 15.28,3.29
C15.21,3.12 15.18,2.93 15.18,2.74
C15.18,2.40 15.28,2.07 15.48,1.74
L15.59,1.74 
C15.52,1.91 15.46,2.03 15.43,2.12
C15.40,2.21 15.38,2.31 15.36,2.41
C15.35,2.52 15.34,2.63 15.34,2.74
C15.34,3.07 15.42,3.40 15.59,3.73
" />
</g>
<g fill="rgb(255,64,26)" >
<path 
d="M15.74,2.55
C15.74,2.29 15.80,2.09 15.91,1.95
C16.03,1.81 16.17,1.74 16.34,1.74
C16.45,1.74 16.55,1.77 16.64,1.84
C16.73,1.90 16.80,1.99 16.85,2.11
C16.91,2.22 16.93,2.37 16.93,2.53
C16.93,2.75 16.88,2.94 16.78,3.08
C16.67,3.23 16.52,3.31 16.34,3.31
C16.15,3.31 16.01,3.23 15.90,3.07
C15.79,2.93 15.74,2.75 15.74,2.55
L15.74,2.55
M15.91,2.55
C15.91,2.74 15.95,2.88 16.04,2.98
C16.12,3.09 16.22,3.14 16.34,3.14
C16.46,3.14 16.56,3.09 16.64,2.98
C16.72,2.88 16.76,2.73 16.76,2.52
C16.76,2.39 16.74,2.28 16.70,2.17
C16.67,2.10 16.62,2.03 16.55,1.99
C16.49,1.94 16.42,1.91 16.34,1.91
C16.22,1.91 16.11,1.97 16.03,2.07
C15.95,2.17 15.91,2.33 15.91,2.55
" />
</g>
<g fill="rgb(255,64,26)" >
<path 
d="M17.14,3.28
17.14,1.77 
17.38,1.77 
17.68,2.84 
17.74,3.07 
C17.75,3.01 17.77,2.93 17.80,2.82
L18.10,1.77 
18.32,1.77 
18.32,3.28 
18.16,3.28 
18.16,2.02 
17.80,3.28 
17.65,3.28 
17.29,2.00 
17.29,3.28 
" />
</g>
<g fill="rgb(255,64,26)" >
<path 
d="M18.63,3.73
18.52,3.73 
C18.68,3.40 18.77,3.07 18.77,2.74
C18.77,2.63 18.76,2.52 18.74,2.41
C18.73,2.31 18.70,2.21 18.67,2.12
C18.65,2.03 18.59,1.91 18.52,1.74
L18.63,1.74 
C18.83,2.07 18.93,2.40 18.93,2.74
C18.93,2.93 18.90,3.11 18.84,3.28
C18.78,3.46 18.71,3.61 18.63,3.73
" />
</g>
<g fill="rgb(255,64,26)" >
<path 
d="M22.99,6.87
C22.99,6.61 23.03,6.42 23.10,6.29
C23.17,6.16 23.27,6.09 23.40,6.09
C23.52,6.09 23.61,6.15 23.68,6.25
C23.76,6.38 23.80,6.59 23.80,6.87
C23.80,7.12 23.77,7.31 23.70,7.44
C23.63,7.58 23.53,7.64 23.40,7.64
C23.28,7.64 23.18,7.58 23.11,7.47
C23.03,7.35 22.99,7.15 22.99,6.87
L22.99,6.87
M23.15,6.87
C23.15,7.11 23.17,7.28 23.22,7.36
C23.27,7.45 23.33,7.49 23.40,7.49
C23.47,7.49 23.53,7.45 23.58,7.36
C23.63,7.28 23.65,7.11 23.65,6.87
C23.65,6.62 23.62,6.46 23.58,6.37
C23.53,6.29 23.47,6.25 23.39,6.25
C23.32,6.25 23.27,6.29 23.22,6.37
C23.17,6.46 23.15,6.62 23.15,6.87
" />
</g>
<g fill="rgb(255,64,26)" >
<path 
d="M24.05,7.61
24.05,7.40 
24.22,7.40 
24.22,7.61 
" />
</g>
<g fill="rgb(255,64,26)" >
<path 
d="M25.02,7.61
24.86,7.61 
24.86,6.43 
C24.83,6.47 24.78,6.51 24.72,6.56
C24.66,6.60 24.61,6.63 24.56,6.65
L24.56,6.47 
C24.64,6.43 24.72,6.37 24.78,6.30
C24.85,6.23 24.89,6.16 24.92,6.09
L25.02,6.09 
" />
</g>
<g fill="rgb(255,64,26)" >
<path 
d="M25.64,6.79
C25.58,6.77 25.54,6.73 25.50,6.67
C25.47,6.62 25.46,6.56 25.46,6.48
C25.46,6.37 25.49,6.27 25.56,6.20
C25.63,6.13 25.71,6.09 25.81,6.09
C25.92,6.09 26.00,6.13 26.07,6.20
C26.14,6.28 26.17,6.37 26.17,6.49
C26.17,6.56 26.16,6.62 26.13,6.67
C26.10,6.73 26.05,6.76 25.99,6.79
C26.07,6.82 26.12,6.87 26.16,6.94
C26.20,7.00 26.23,7.08 26.23,7.18
C26.23,7.32 26.19,7.43 26.11,7.51
C26.03,7.60 25.93,7.64 25.82,7.64
C25.70,7.64 25.60,7.60 25.52,7.51
C25.45,7.43 25.41,7.32 25.41,7.18
C25.41,7.08 25.43,6.99 25.47,6.93
C25.51,6.86 25.57,6.82 25.64,6.79
L25.64,6.79
M25.61,6.48
C25.61,6.55 25.63,6.61 25.67,6.65
C25.71,6.70 25.76,6.72 25.82,6.72
C25.87,6.72 25.92,6.70 25.96,6.66
C26.00,6.61 26.02,6.56 26.02,6.49
C26.02,6.42 26.00,6.36 25.96,6.31
C25.92,6.27 25.87,6.25 25.82,6.25
C25.76,6.25 25.71,6.27 25.67,6.31
C25.63,6.36 25.61,6.41 25.61,6.48
L25.61,6.48
M25.56,7.18
C25.56,7.27 25.59,7.35 25.64,7.40
C25.69,7.46 25.75,7.49 25.82,7.49
C25.89,7.49 25.95,7.46 26.00,7.41
C26.04,7.35 26.07,7.28 26.07,7.18
C26.07,7.09 26.04,7.02 25.99,6.96
C25.94,6.90 25.88,6.87 25.81,6.87
C25.74,6.87 25.68,6.90 25.64,6.96
C25.59,7.02 25.56,7.09 25.56,7.18
" />
</g>
</g>
</g>
<g id="709.009 Out of bounds area, solid line 159" >
<g stroke="rgb(255,64,26)">
<g stroke-width="0.10"
style="&stB;"
>
<path 
d="M10.75,9.92
L15.45,7.27
" />
</g>
<g stroke-width="0.10"
style="&stB;"
>
<path 
d="M14.56,5.20
L14.56,3.79
" />
</g>
<g stroke-width="0.10"
style="&stB;"
>
<path 
d="M17.52,5.19
L17.52,3.78
" />
</g>
<g stroke-width="0.10"
style="&stB;"
>
<path 
d="M14.30,7.28
L12.89,7.28
" />
</g>
<g stroke-width="0.10"
style="&stB;"
>
<path 
d="M14.29,6.15
L12.88,6.15
" />
</g>
<g stroke-width="0.10"
style="&stB;"
>
<path 
d="M15.47,9.72
L15.47,8.31
" />
</g>
<g stroke-width="0.10"
style="&stB;"
>
<path 
d="M16.59,9.71
L16.59,8.30
" />
</g>
<g stroke-width="0.10"
style="&stB;"
>
<path 
d="M1.66,6.43
L2.85,4.23
L4.06,6.43
L3.35,6.43
L3.35,9.89
L2.35,9.89
L2.35,6.45
" />
</g>
<g stroke-width="0.10"
style="&stB;"
>
<path 
d="M2.35,6.43
L1.66,6.43
" />
</g>
</g>
</g>
<g id="1.000  159" >
<g stroke="rgb(255,64,26)">
<g fill="rgb(255,64,26)" >
<path 
d="M1.66,6.43
2.85,4.23 
4.06,6.43 
3.35,6.43 
3.35,9.89 
2.35,9.89 
2.35,6.45 
" />
</g>
</g>
</g>
</g>
<g opacity="1.00">
</g>
<g opacity="1.00">
</g>
<g opacity="1.00">
</g>
<g opacity="1.00">
</g>
<g opacity="1.00">
</g>
<g opacity="1.00">
</g>
<g opacity="1.00">
</g>
<g opacity="1.00">
</g>
<g opacity="1.00">
</g>
<g opacity="1.00">
</g>
<g opacity="1.00">
</g>
<g opacity="1.00">
</g>
<g opacity="1.00">
</g>
<g opacity="1.00">
</g>
<g opacity="1.00">
</g>
<g opacity="1.00">
</g>
<g opacity="1.00">
</g>
<g opacity="1.00">
</g>
<g opacity="1.00">
</g>
<g opacity="1.00">
</g>
<g opacity="1.00">
</g>
<g opacity="1.00">
</g>
<g opacity="1.00">
</g>
<g opacity="1.00">
</g>
<g opacity="1.00">
</g>
<g opacity="1.00">
</g>
<g opacity="1.00">
</g>
<g opacity="1.00">
</g>
<g opacity="1.00">
</g>
<g opacity="1.00">
</g>
<g opacity="1.00">
</g>
<g opacity="1.00">
</g>
<g opacity="1.00">
</g>
<g opacity="1.00">
</g>
<g opacity="1.00">
</g>
<g opacity="1.00">
</g>
<g opacity="1.00">
</g>
<g opacity="1.00">
</g>
<g opacity="1.00">
</g>
<g opacity="1.00">
</g>
<g opacity="1.00">
</g>
<g opacity="1.00">
</g>
<g opacity="1.00">
</g>
<g opacity="1.00">
</g>
<g opacity="1.00">
</g>
<g opacity="1.00">
</g>
<g opacity="1.00">
</g>
<g opacity="1.00">
</g>
<g opacity="1.00">
</g>
<g opacity="1.00">
</g>
<g opacity="1.00">
</g>
<g opacity="1.00">
</g>
<g opacity="1.00">
</g>
<g opacity="1.00">
</g>
<g opacity="1.00">
</g>
<g opacity="1.00">
</g>
<g opacity="1.00">
</g>
<g opacity="1.00">
</g>
<g opacity="1.00">
</g>
<g opacity="1.00">
</g>
<g opacity="1.00">
</g>
<g opacity="1.00">
</g>
<g opacity="1.00">
</g>
<g opacity="1.00">
</g>
<g opacity="1.00">
</g>
<g opacity="1.00">
</g>
<g opacity="1.00">
</g>
<g opacity="1.00">
</g>
<g opacity="1.00">
</g>
<g opacity="1.00">
</g>
</g>
</g>
</g>
</g>
</svg>
