<?xml version="1.0" encoding="UTF-8" standalone="no"?>
<!-- Created with Inkscape (http://www.inkscape.org/) -->

<svg
   version="1.1"
   id="svg19459"
   xml:space="preserve"
   width="86.856796"
   height="40.325466"
   viewBox="0 0 86.856796 40.325466"
   sodipodi:docname="ISSprOM 706 Finish.svg"
   inkscape:version="1.1.1 (3bf5ae0d25, 2021-09-20)"
   xmlns:inkscape="http://www.inkscape.org/namespaces/inkscape"
   xmlns:sodipodi="http://sodipodi.sourceforge.net/DTD/sodipodi-0.dtd"
   xmlns="http://www.w3.org/2000/svg"
   xmlns:svg="http://www.w3.org/2000/svg">
  <rect width="100%" height="100%" fill="white"/>
<defs
     id="defs19463"><clipPath
       clipPathUnits="userSpaceOnUse"
       id="clipPath19473"><path
         d="M 0,30.244 H 65.143 V 0 H 0 Z"
         id="path19471" /></clipPath><clipPath
       clipPathUnits="userSpaceOnUse"
       id="clipPath19493"><path
         d="M 0,30.244 H 65.143 V 0 H 0 Z"
         id="path19491" /></clipPath></defs><sodipodi:namedview
     id="namedview19461"
     pagecolor="#ffffff"
     bordercolor="#666666"
     borderopacity="1.0"
     inkscape:pageshadow="2"
     inkscape:pageopacity="0.0"
     inkscape:pagecheckerboard="0"
     showgrid="false"
     inkscape:zoom="19.722118"
     inkscape:cx="43.428398"
     inkscape:cy="20.155036"
     inkscape:window-width="1920"
     inkscape:window-height="1017"
     inkscape:window-x="-8"
     inkscape:window-y="-8"
     inkscape:window-maximized="1"
     inkscape:current-layer="g19465" /><g
     id="g19465"
     inkscape:groupmode="layer"
     inkscape:label="ISSprOM 706 Finish"
     transform="matrix(1.3333333,0,0,-1.3333333,0,40.325467)"><g
       id="g19467"><g
         id="g19469"
         clip-path="url(#clipPath19473)"><g
           id="g19475"
           transform="translate(21.3994,9.4982)"><path
             d="m 0,0 c -5.48,0 -9.921,4.442 -9.921,9.922 0,5.478 4.441,9.922 9.921,9.922 5.478,0 9.921,-4.444 9.921,-9.922 C 9.921,4.442 5.478,0 0,0 Z"
             style="fill:none;stroke:#b04191;stroke-width:0.992;stroke-linecap:butt;stroke-linejoin:miter;stroke-miterlimit:22.926;stroke-dasharray:none;stroke-opacity:1"
             id="path19477" /></g><text
           transform="matrix(1,0,0,-1,38.356,24.2383)"
           style="font-variant:normal;font-weight:normal;font-stretch:semi-condensed;font-size:7px;font-family:'Arial Narrow';-inkscape-font-specification:ArialNarrow;writing-mode:lr-tb;fill:#e30613;fill-opacity:1;fill-rule:nonzero;stroke:none"
           id="text19481"><tspan
             x="0 3.507 5.1030002 8.2950001 9.8909998 13.083 14.679 16.59 20.733999 24.878"
             y="0"
             sodipodi:role="line"
             id="tspan19479">ø 5.0 (CC)</tspan></text></g></g><text
       transform="matrix(1,0,0,-1,38.104,8.2109)"
       style="font-variant:normal;font-weight:normal;font-stretch:semi-condensed;font-size:7px;font-family:'Arial Narrow';-inkscape-font-specification:ArialNarrow;writing-mode:lr-tb;fill:#e30613;fill-opacity:1;fill-rule:nonzero;stroke:none"
       id="text19485"><tspan
         x="0 3.507 5.1030002 8.2950001 9.8909998 13.083 14.679 16.59 20.733999 24.878"
         y="0"
         sodipodi:role="line"
         id="tspan19483">ø 7.0 (CC)</tspan></text><g
       id="g19487"><g
         id="g19489"
         clip-path="url(#clipPath19493)"><text
           transform="matrix(1,0,0,-1,-5e-4,2.1465)"
           style="font-variant:normal;font-weight:normal;font-stretch:semi-condensed;font-size:7px;font-family:'Arial Narrow';-inkscape-font-specification:ArialNarrow;writing-mode:lr-tb;fill:#e30613;fill-opacity:1;fill-rule:nonzero;stroke:none"
           id="text19497"><tspan
             x="0 3.1919999 4.7880001 7.98"
             y="0"
             sodipodi:role="line"
             id="tspan19495">0.35</tspan></text><g
           id="g19499"
           transform="translate(28.7798,22.7264)"><path
             d="M 0,0 8.064,2.952"
             style="fill:none;stroke:#e30613;stroke-width:0.283;stroke-linecap:butt;stroke-linejoin:miter;stroke-miterlimit:22.926;stroke-dasharray:none;stroke-opacity:1"
             id="path19501" /></g><g
           id="g19503"
           transform="translate(36.4478,10.7313)"><path
             d="M 0,0 -5.76,3.24"
             style="fill:none;stroke:#e30613;stroke-width:0.283;stroke-linecap:butt;stroke-linejoin:miter;stroke-miterlimit:22.926;stroke-dasharray:none;stroke-opacity:1"
             id="path19505" /></g><g
           id="g19507"
           transform="translate(21.3994,12.3334)"><path
             d="M 0,0 C -3.914,0 -7.087,3.173 -7.087,7.087 -7.087,11 -3.914,14.173 0,14.173 3.913,14.173 7.087,11 7.087,7.087 7.087,3.173 3.913,0 0,0 Z"
             style="fill:none;stroke:#b04191;stroke-width:0.992;stroke-linecap:butt;stroke-linejoin:miter;stroke-miterlimit:22.926;stroke-dasharray:none;stroke-opacity:1"
             id="path19509" /></g></g></g></g></svg>
